<?xml version="1.0" encoding="UTF-8" standalone="no"?>
<!DOCTYPE svg PUBLIC "-//W3C//DTD SVG 1.1//EN"
 "http://www.w3.org/Graphics/SVG/1.1/DTD/svg11.dtd">
<!-- Generated by graphviz version 3.0.0 (20220413.0106)
 -->
<!-- Title: json::json Pages: 1 -->
<svg width="181pt" height="64pt"
 viewBox="0.00 0.00 181.00 64.00" xmlns="http://www.w3.org/2000/svg" xmlns:xlink="http://www.w3.org/1999/xlink">
<g id="graph0" class="graph" transform="scale(1 1) rotate(0) translate(4 60)">
<title>json::json</title>
<polygon fill="white" stroke="transparent" points="-4,4 -4,-60 177,-60 177,4 -4,4"/>
<!-- Node1 -->
<g id="node1" class="node">
<title>Node1</title>
<g id="a_node1"><a xlink:title=" ">
<polygon fill="#bfbfbf" stroke="black" points="120,-18.5 120,-36.5 173,-36.5 173,-18.5 120,-18.5"/>
<text text-anchor="middle" x="146.5" y="-25.3" font-family="Helvetica,sans-Serif" font-size="9.00">json::json</text>
</a>
</g>
</g>
<!-- Node2 -->
<g id="node2" class="node">
<title>Node2</title>
<g id="a_node2"><a xlink:href="classjson.html#a830f214138e785fb65c93f72588e51ba" target="_top" xlink:title=" ">
<polygon fill="white" stroke="black" points="0,-37.5 0,-55.5 84,-55.5 84,-37.5 0,-37.5"/>
<text text-anchor="middle" x="42" y="-44.3" font-family="Helvetica,sans-Serif" font-size="9.00">json::get_element</text>
</a>
</g>
</g>
<!-- Node1&#45;&gt;Node2 -->
<g id="edge1" class="edge">
<title>Node1&#45;&gt;Node2</title>
<path fill="none" stroke="midnightblue" d="M109.82,-34.11C101.55,-35.65 92.69,-37.29 84.21,-38.86"/>
<polygon fill="midnightblue" stroke="midnightblue" points="110.7,-37.51 119.9,-32.25 109.43,-30.63 110.7,-37.51"/>
</g>
<!-- Node3 -->
<g id="node3" class="node">
<title>Node3</title>
<g id="a_node3"><a xlink:href="classjson.html#acd55406f1a70cca2c48639f9d77b91ce" target="_top" xlink:title=" ">
<polygon fill="white" stroke="black" points="6.5,-0.5 6.5,-18.5 77.5,-18.5 77.5,-0.5 6.5,-0.5"/>
<text text-anchor="middle" x="42" y="-7.3" font-family="Helvetica,sans-Serif" font-size="9.00">json::get_field</text>
</a>
</g>
</g>
<!-- Node1&#45;&gt;Node3 -->
<g id="edge2" class="edge">
<title>Node1&#45;&gt;Node3</title>
<path fill="none" stroke="midnightblue" d="M109.83,-21.24C99.36,-19.4 87.94,-17.39 77.55,-15.57"/>
<polygon fill="midnightblue" stroke="midnightblue" points="109.44,-24.72 119.9,-23 110.66,-17.83 109.44,-24.72"/>
</g>
</g>
</svg>
