<?xml version="1.0" encoding="UTF-8" standalone="no"?>
<!DOCTYPE svg PUBLIC "-//W3C//DTD SVG 1.1//EN"
 "http://www.w3.org/Graphics/SVG/1.1/DTD/svg11.dtd">
<!-- Generated by graphviz version 3.0.0 (20220413.0106)
 -->
<!-- Title: json Pages: 1 -->
<svg width="81pt" height="163pt"
 viewBox="0.00 0.00 81.00 163.00" xmlns="http://www.w3.org/2000/svg" xmlns:xlink="http://www.w3.org/1999/xlink">
<g id="graph0" class="graph" transform="scale(1 1) rotate(0) translate(4 159)">
<title>json</title>
<polygon fill="white" stroke="transparent" points="-4,4 -4,-159 77,-159 77,4 -4,4"/>
<!-- Node1 -->
<g id="node1" class="node">
<title>Node1</title>
<g id="a_node1"><a xlink:title=" ">
<polygon fill="#bfbfbf" stroke="black" points="0,-0.5 0,-154.5 73,-154.5 73,-0.5 0,-0.5"/>
<text text-anchor="middle" x="36.5" y="-143.3" font-family="Helvetica,sans-Serif" font-size="9.00">json</text>
<polyline fill="none" stroke="black" points="0,-136.5 73,-136.5 "/>
<text text-anchor="start" x="8" y="-125.3" font-family="Helvetica,sans-Serif" font-size="9.00">&#45; obj</text>
<polyline fill="none" stroke="black" points="0,-118.5 73,-118.5 "/>
<text text-anchor="start" x="8" y="-107.3" font-family="Helvetica,sans-Serif" font-size="9.00">+ json()</text>
<text text-anchor="start" x="8" y="-97.3" font-family="Helvetica,sans-Serif" font-size="9.00">+ json()</text>
<text text-anchor="start" x="8" y="-87.3" font-family="Helvetica,sans-Serif" font-size="9.00">+ json()</text>
<text text-anchor="start" x="8" y="-77.3" font-family="Helvetica,sans-Serif" font-size="9.00">+ json()</text>
<text text-anchor="start" x="8" y="-67.3" font-family="Helvetica,sans-Serif" font-size="9.00">+ ~json()</text>
<text text-anchor="start" x="8" y="-57.3" font-family="Helvetica,sans-Serif" font-size="9.00">+ operator=()</text>
<text text-anchor="start" x="8" y="-47.3" font-family="Helvetica,sans-Serif" font-size="9.00">+ operator==()</text>
<text text-anchor="start" x="8" y="-37.3" font-family="Helvetica,sans-Serif" font-size="9.00">+ operator!=()</text>
<text text-anchor="start" x="8" y="-27.3" font-family="Helvetica,sans-Serif" font-size="9.00">+ to_string()</text>
<text text-anchor="start" x="8" y="-17.3" font-family="Helvetica,sans-Serif" font-size="9.00">+ to_int()</text>
<text text-anchor="start" x="8" y="-7.3" font-family="Helvetica,sans-Serif" font-size="9.00">and 18 more...</text>
</a>
</g>
</g>
</g>
</svg>
