<?xml version="1.0" encoding="UTF-8" standalone="no"?>
<!DOCTYPE svg PUBLIC "-//W3C//DTD SVG 1.1//EN"
 "http://www.w3.org/Graphics/SVG/1.1/DTD/svg11.dtd">
<!-- Generated by graphviz version 2.43.0 (0)
 -->
<!-- Title: json::json Pages: 1 -->
<svg width="200pt" height="64pt"
 viewBox="0.00 0.00 200.00 64.00" xmlns="http://www.w3.org/2000/svg" xmlns:xlink="http://www.w3.org/1999/xlink">
<g id="graph0" class="graph" transform="scale(1 1) rotate(0) translate(4 60)">
<title>json::json</title>
<polygon fill="white" stroke="transparent" points="-4,4 -4,-60 196,-60 196,4 -4,4"/>
<!-- Node1 -->
<g id="node1" class="node">
<title>Node1</title>
<g id="a_node1"><a xlink:title=" ">
<polygon fill="#bfbfbf" stroke="black" points="133,-18.5 133,-36.5 192,-36.5 192,-18.5 133,-18.5"/>
<text text-anchor="middle" x="162.5" y="-25.3" font-family="Helvetica,sans-Serif" font-size="9.00">json::json</text>
</a>
</g>
</g>
<!-- Node2 -->
<g id="node2" class="node">
<title>Node2</title>
<g id="a_node2"><a xlink:href="classjson.html#a830f214138e785fb65c93f72588e51ba" target="_top" xlink:title=" ">
<polygon fill="white" stroke="black" points="0,-37.5 0,-55.5 97,-55.5 97,-37.5 0,-37.5"/>
<text text-anchor="middle" x="48.5" y="-44.3" font-family="Helvetica,sans-Serif" font-size="9.00">json::get_element</text>
</a>
</g>
</g>
<!-- Node1&#45;&gt;Node2 -->
<g id="edge1" class="edge">
<title>Node1&#45;&gt;Node2</title>
<path fill="none" stroke="midnightblue" d="M122.83,-34.06C114.55,-35.46 105.71,-36.96 97.15,-38.42"/>
<polygon fill="midnightblue" stroke="midnightblue" points="123.67,-37.47 132.95,-32.34 122.5,-30.57 123.67,-37.47"/>
</g>
<!-- Node3 -->
<g id="node3" class="node">
<title>Node3</title>
<g id="a_node3"><a xlink:href="classjson.html#acd55406f1a70cca2c48639f9d77b91ce" target="_top" xlink:title=" ">
<polygon fill="white" stroke="black" points="8.5,-0.5 8.5,-18.5 88.5,-18.5 88.5,-0.5 8.5,-0.5"/>
<text text-anchor="middle" x="48.5" y="-7.3" font-family="Helvetica,sans-Serif" font-size="9.00">json::get_field</text>
</a>
</g>
</g>
<!-- Node1&#45;&gt;Node3 -->
<g id="edge2" class="edge">
<title>Node1&#45;&gt;Node3</title>
<path fill="none" stroke="midnightblue" d="M123.06,-21.32C111.92,-19.53 99.74,-17.58 88.56,-15.78"/>
<polygon fill="midnightblue" stroke="midnightblue" points="122.52,-24.78 132.95,-22.91 123.63,-17.87 122.52,-24.78"/>
</g>
</g>
</svg>
