<?xml version="1.0" encoding="UTF-8" standalone="no"?>
<!DOCTYPE svg PUBLIC "-//W3C//DTD SVG 1.1//EN"
 "http://www.w3.org/Graphics/SVG/1.1/DTD/svg11.dtd">
<!-- Generated by graphviz version 3.0.0 (20220413.0106)
 -->
<!-- Title: Graph Legend Pages: 1 -->
<svg width="479pt" height="154pt"
 viewBox="0.00 0.00 479.00 154.00" xmlns="http://www.w3.org/2000/svg" xmlns:xlink="http://www.w3.org/1999/xlink">
<g id="graph0" class="graph" transform="scale(1 1) rotate(0) translate(4 150)">
<title>Graph Legend</title>
<polygon fill="white" stroke="transparent" points="-4,4 -4,-150 475,-150 475,4 -4,4"/>
<!-- Node9 -->
<g id="node1" class="node">
<title>Node9</title>
<polygon fill="#bfbfbf" stroke="black" points="274,-18 224,-18 224,0 274,0 274,-18"/>
<text text-anchor="middle" x="249" y="-6.8" font-family="Helvetica,sans-Serif" font-size="9.00">Inherited</text>
</g>
<!-- Node10 -->
<g id="node2" class="node">
<title>Node10</title>
<polygon fill="none" stroke="black" points="62,-82 0,-82 0,-64 62,-64 62,-82"/>
<text text-anchor="middle" x="31" y="-70.8" font-family="Helvetica,sans-Serif" font-size="9.00">PublicBase</text>
</g>
<!-- Node10&#45;&gt;Node9 -->
<g id="edge1" class="edge">
<title>Node10&#45;&gt;Node9</title>
<path fill="none" stroke="midnightblue" d="M69.37,-61.09C113.87,-48.43 185.97,-27.93 223.87,-17.15"/>
<polygon fill="midnightblue" stroke="midnightblue" points="68.16,-57.79 59.5,-63.89 70.08,-64.53 68.16,-57.79"/>
</g>
<!-- Node11 -->
<g id="node3" class="node">
<title>Node11</title>
<polygon fill="none" stroke="red" points="59,-146 3,-146 3,-128 59,-128 59,-146"/>
<text text-anchor="middle" x="31" y="-134.8" font-family="Helvetica,sans-Serif" font-size="9.00">Truncated</text>
</g>
<!-- Node11&#45;&gt;Node10 -->
<g id="edge2" class="edge">
<title>Node11&#45;&gt;Node10</title>
<path fill="none" stroke="midnightblue" d="M31,-117.83C31,-106.08 31,-91.34 31,-82.31"/>
<polygon fill="midnightblue" stroke="midnightblue" points="27.5,-117.89 31,-127.89 34.5,-117.89 27.5,-117.89"/>
</g>
<!-- Node13 -->
<g id="node4" class="node">
<title>Node13</title>
<polygon fill="none" stroke="black" points="154,-82 80,-82 80,-64 154,-64 154,-82"/>
<text text-anchor="middle" x="117" y="-70.8" font-family="Helvetica,sans-Serif" font-size="9.00">ProtectedBase</text>
</g>
<!-- Node13&#45;&gt;Node9 -->
<g id="edge3" class="edge">
<title>Node13&#45;&gt;Node9</title>
<path fill="none" stroke="darkgreen" d="M143.62,-59.5C169.9,-47.15 209.3,-28.64 231.74,-18.11"/>
<polygon fill="darkgreen" stroke="darkgreen" points="141.82,-56.48 134.26,-63.89 144.8,-62.81 141.82,-56.48"/>
</g>
<!-- Node14 -->
<g id="node5" class="node">
<title>Node14</title>
<polygon fill="none" stroke="black" points="237.5,-82 172.5,-82 172.5,-64 237.5,-64 237.5,-82"/>
<text text-anchor="middle" x="205" y="-70.8" font-family="Helvetica,sans-Serif" font-size="9.00">PrivateBase</text>
</g>
<!-- Node14&#45;&gt;Node9 -->
<g id="edge4" class="edge">
<title>Node14&#45;&gt;Node9</title>
<path fill="none" stroke="#8b1a1a" d="M216.62,-55.62C225.15,-43.61 236.36,-27.81 243.11,-18.31"/>
<polygon fill="#8b1a1a" stroke="#8b1a1a" points="213.69,-53.71 210.75,-63.89 219.39,-57.77 213.69,-53.71"/>
</g>
<!-- Node15 -->
<g id="node6" class="node">
<title>Node15</title>
<polygon fill="none" stroke="#bfbfbf" points="330.5,-82 255.5,-82 255.5,-64 330.5,-64 330.5,-82"/>
<text text-anchor="middle" x="293" y="-70.8" font-family="Helvetica,sans-Serif" font-size="9.00">Undocumented</text>
</g>
<!-- Node15&#45;&gt;Node9 -->
<g id="edge5" class="edge">
<title>Node15&#45;&gt;Node9</title>
<path fill="none" stroke="midnightblue" d="M281.38,-55.62C272.85,-43.61 261.64,-27.81 254.89,-18.31"/>
<polygon fill="midnightblue" stroke="midnightblue" points="278.61,-57.77 287.25,-63.89 284.31,-53.71 278.61,-57.77"/>
</g>
<!-- Node16 -->
<g id="node7" class="node">
<title>Node16</title>
<polygon fill="none" stroke="black" points="415,-82 349,-82 349,-64 415,-64 415,-82"/>
<text text-anchor="middle" x="382" y="-70.8" font-family="Helvetica,sans-Serif" font-size="9.00">Templ&lt; int &gt;</text>
</g>
<!-- Node16&#45;&gt;Node9 -->
<g id="edge6" class="edge">
<title>Node16&#45;&gt;Node9</title>
<path fill="none" stroke="midnightblue" d="M355.53,-59.66C329.05,-47.32 289.1,-28.69 266.39,-18.11"/>
<polygon fill="midnightblue" stroke="midnightblue" points="354.07,-62.84 364.61,-63.89 357.03,-56.5 354.07,-62.84"/>
</g>
<!-- Node17 -->
<g id="node8" class="node">
<title>Node17</title>
<polygon fill="none" stroke="black" points="413.5,-146 350.5,-146 350.5,-128 413.5,-128 413.5,-146"/>
<text text-anchor="middle" x="382" y="-134.8" font-family="Helvetica,sans-Serif" font-size="9.00">Templ&lt; T &gt;</text>
</g>
<!-- Node17&#45;&gt;Node16 -->
<g id="edge7" class="edge">
<title>Node17&#45;&gt;Node16</title>
<path fill="none" stroke="orange" stroke-dasharray="5,2" d="M382,-117.83C382,-106.08 382,-91.34 382,-82.31"/>
<polygon fill="orange" stroke="orange" points="378.5,-117.89 382,-127.89 385.5,-117.89 378.5,-117.89"/>
<text text-anchor="middle" x="394.5" y="-102.8" font-family="Helvetica,sans-Serif" font-size="9.00">&lt; int &gt;</text>
</g>
<!-- Node18 -->
<g id="node9" class="node">
<title>Node18</title>
<polygon fill="none" stroke="black" points="471,-82 433,-82 433,-64 471,-64 471,-82"/>
<text text-anchor="middle" x="452" y="-70.8" font-family="Helvetica,sans-Serif" font-size="9.00">Used</text>
</g>
<!-- Node18&#45;&gt;Node9 -->
<g id="edge8" class="edge">
<title>Node18&#45;&gt;Node9</title>
<path fill="none" stroke="#9a32cd" stroke-dasharray="5,2" d="M423.26,-63.22C383.4,-51.05 312.01,-29.25 274.16,-17.69"/>
<polygon fill="#9a32cd" stroke="#9a32cd" points="422.32,-66.59 432.9,-66.17 424.36,-59.9 422.32,-66.59"/>
<text text-anchor="middle" x="389.5" y="-38.8" font-family="Helvetica,sans-Serif" font-size="9.00">m_usedClass</text>
</g>
</g>
</svg>
