<?xml version="1.0" encoding="UTF-8" standalone="no"?>
<!DOCTYPE svg PUBLIC "-//W3C//DTD SVG 1.1//EN"
 "http://www.w3.org/Graphics/SVG/1.1/DTD/svg11.dtd">
<!-- Generated by graphviz version 2.47.1 (20210417.1919)
 -->
<!-- Title: Graphical Class Hierarchy Pages: 1 -->
<svg width="358pt" height="27pt"
 viewBox="0.00 0.00 358.00 27.00" xmlns="http://www.w3.org/2000/svg" xmlns:xlink="http://www.w3.org/1999/xlink">
<g id="graph0" class="graph" transform="scale(1 1) rotate(0) translate(4 23)">
<title>Graphical Class Hierarchy</title>
<polygon fill="white" stroke="transparent" points="-4,4 -4,-23 354,-23 354,4 -4,4"/>
<!-- Node1 -->
<g id="node1" class="node">
<title>Node1</title>
<g id="a_node1"><a xlink:title=" ">
<polygon fill="white" stroke="#bfbfbf" points="0,-0.5 0,-18.5 81,-18.5 81,-0.5 0,-0.5"/>
<text text-anchor="middle" x="40.5" y="-7.3" font-family="Helvetica,sans-Serif" font-size="9.00">std::exception</text>
</a>
</g>
</g>
<!-- Node2 -->
<g id="node2" class="node">
<title>Node2</title>
<g id="a_node2"><a xlink:title=" ">
<polygon fill="white" stroke="#bfbfbf" points="117,-0.5 117,-18.5 216,-18.5 216,-0.5 117,-0.5"/>
<text text-anchor="middle" x="166.5" y="-7.3" font-family="Helvetica,sans-Serif" font-size="9.00">std::runtime_error</text>
</a>
</g>
</g>
<!-- Node1&#45;&gt;Node2 -->
<g id="edge1" class="edge">
<title>Node1&#45;&gt;Node2</title>
<path fill="none" stroke="midnightblue" d="M91.16,-9.5C99.58,-9.5 108.33,-9.5 116.74,-9.5"/>
<polygon fill="midnightblue" stroke="midnightblue" points="91.08,-6 81.08,-9.5 91.08,-13 91.08,-6"/>
</g>
<!-- Node0 -->
<g id="node3" class="node">
<title>Node0</title>
<g id="a_node3"><a xlink:href="classjson__missing__field.html" target="_top" xlink:title=" ">
<polygon fill="white" stroke="black" points="252,-0.5 252,-18.5 350,-18.5 350,-0.5 252,-0.5"/>
<text text-anchor="middle" x="301" y="-7.3" font-family="Helvetica,sans-Serif" font-size="9.00">json_missing_field</text>
</a>
</g>
</g>
<!-- Node2&#45;&gt;Node0 -->
<g id="edge2" class="edge">
<title>Node2&#45;&gt;Node0</title>
<path fill="none" stroke="midnightblue" d="M226.36,-9.5C234.89,-9.5 243.58,-9.5 251.86,-9.5"/>
<polygon fill="midnightblue" stroke="midnightblue" points="226.09,-6 216.09,-9.5 226.09,-13 226.09,-6"/>
</g>
</g>
</svg>
