<?xml version="1.0" encoding="UTF-8" standalone="no"?>
<!DOCTYPE svg PUBLIC "-//W3C//DTD SVG 1.1//EN"
 "http://www.w3.org/Graphics/SVG/1.1/DTD/svg11.dtd">
<!-- Generated by graphviz version 2.43.0 (0)
 -->
<!-- Title: inc/json.hh Pages: 1 -->
<svg width="223pt" height="82pt"
 viewBox="0.00 0.00 222.50 82.00" xmlns="http://www.w3.org/2000/svg" xmlns:xlink="http://www.w3.org/1999/xlink">
<g id="graph0" class="graph" transform="scale(1 1) rotate(0) translate(4 78)">
<title>inc/json.hh</title>
<polygon fill="white" stroke="transparent" points="-4,4 -4,-78 218.5,-78 218.5,4 -4,4"/>
<!-- Node1 -->
<g id="node1" class="node">
<title>Node1</title>
<g id="a_node1"><a xlink:title=" ">
<polygon fill="#bfbfbf" stroke="black" points="79.5,-55.5 79.5,-73.5 145.5,-73.5 145.5,-55.5 79.5,-55.5"/>
<text text-anchor="middle" x="112.5" y="-62.3" font-family="Helvetica,sans-Serif" font-size="9.00">inc/json.hh</text>
</a>
</g>
</g>
<!-- Node2 -->
<g id="node2" class="node">
<title>Node2</title>
<g id="a_node2"><a xlink:title=" ">
<polygon fill="white" stroke="#bfbfbf" points="0,-0.5 0,-18.5 73,-18.5 73,-0.5 0,-0.5"/>
<text text-anchor="middle" x="36.5" y="-7.3" font-family="Helvetica,sans-Serif" font-size="9.00">json&#45;c/json.h</text>
</a>
</g>
</g>
<!-- Node1&#45;&gt;Node2 -->
<g id="edge1" class="edge">
<title>Node1&#45;&gt;Node2</title>
<path fill="none" stroke="midnightblue" d="M100.96,-55.45C89.24,-47.28 70.86,-34.46 56.72,-24.6"/>
<polygon fill="midnightblue" stroke="midnightblue" points="58.36,-21.47 48.15,-18.63 54.35,-27.22 58.36,-21.47"/>
</g>
<!-- Node3 -->
<g id="node3" class="node">
<title>Node3</title>
<g id="a_node3"><a xlink:title=" ">
<polygon fill="white" stroke="#bfbfbf" points="91,-0.5 91,-18.5 134,-18.5 134,-0.5 91,-0.5"/>
<text text-anchor="middle" x="112.5" y="-7.3" font-family="Helvetica,sans-Serif" font-size="9.00">string</text>
</a>
</g>
</g>
<!-- Node1&#45;&gt;Node3 -->
<g id="edge2" class="edge">
<title>Node1&#45;&gt;Node3</title>
<path fill="none" stroke="midnightblue" d="M112.5,-55.22C112.5,-48.18 112.5,-37.81 112.5,-28.83"/>
<polygon fill="midnightblue" stroke="midnightblue" points="116,-28.55 112.5,-18.55 109,-28.55 116,-28.55"/>
</g>
<!-- Node4 -->
<g id="node4" class="node">
<title>Node4</title>
<g id="a_node4"><a xlink:title=" ">
<polygon fill="white" stroke="#bfbfbf" points="152.5,-0.5 152.5,-18.5 214.5,-18.5 214.5,-0.5 152.5,-0.5"/>
<text text-anchor="middle" x="183.5" y="-7.3" font-family="Helvetica,sans-Serif" font-size="9.00">stdexcept</text>
</a>
</g>
</g>
<!-- Node1&#45;&gt;Node4 -->
<g id="edge3" class="edge">
<title>Node1&#45;&gt;Node4</title>
<path fill="none" stroke="midnightblue" d="M123.28,-55.45C134.13,-47.36 151.08,-34.7 164.23,-24.88"/>
<polygon fill="midnightblue" stroke="midnightblue" points="166.7,-27.41 172.62,-18.63 162.51,-21.8 166.7,-27.41"/>
</g>
</g>
</svg>
