<?xml version="1.0" encoding="UTF-8" standalone="no"?>
<!DOCTYPE svg PUBLIC "-//W3C//DTD SVG 1.1//EN"
 "http://www.w3.org/Graphics/SVG/1.1/DTD/svg11.dtd">
<!-- Generated by graphviz version 3.0.0 (20220413.0106)
 -->
<!-- Title: inc/json.hh Pages: 1 -->
<svg width="202pt" height="82pt"
 viewBox="0.00 0.00 201.50 82.00" xmlns="http://www.w3.org/2000/svg" xmlns:xlink="http://www.w3.org/1999/xlink">
<g id="graph0" class="graph" transform="scale(1 1) rotate(0) translate(4 78)">
<title>inc/json.hh</title>
<polygon fill="white" stroke="transparent" points="-4,4 -4,-78 197.5,-78 197.5,4 -4,4"/>
<!-- Node1 -->
<g id="node1" class="node">
<title>Node1</title>
<g id="a_node1"><a xlink:title=" ">
<polygon fill="#bfbfbf" stroke="black" points="74,-55.5 74,-73.5 131,-73.5 131,-55.5 74,-55.5"/>
<text text-anchor="middle" x="102.5" y="-62.3" font-family="Helvetica,sans-Serif" font-size="9.00">inc/json.hh</text>
</a>
</g>
</g>
<!-- Node2 -->
<g id="node2" class="node">
<title>Node2</title>
<g id="a_node2"><a xlink:title=" ">
<polygon fill="white" stroke="#bfbfbf" points="0,-0.5 0,-18.5 65,-18.5 65,-0.5 0,-0.5"/>
<text text-anchor="middle" x="32.5" y="-7.3" font-family="Helvetica,sans-Serif" font-size="9.00">json&#45;c/json.h</text>
</a>
</g>
</g>
<!-- Node1&#45;&gt;Node2 -->
<g id="edge1" class="edge">
<title>Node1&#45;&gt;Node2</title>
<path fill="none" stroke="midnightblue" d="M91.87,-55.45C81.18,-47.36 64.47,-34.7 51.5,-24.88"/>
<polygon fill="midnightblue" stroke="midnightblue" points="53.32,-21.87 43.23,-18.63 49.09,-27.45 53.32,-21.87"/>
</g>
<!-- Node3 -->
<g id="node3" class="node">
<title>Node3</title>
<g id="a_node3"><a xlink:title=" ">
<polygon fill="white" stroke="#bfbfbf" points="83.5,-0.5 83.5,-18.5 121.5,-18.5 121.5,-0.5 83.5,-0.5"/>
<text text-anchor="middle" x="102.5" y="-7.3" font-family="Helvetica,sans-Serif" font-size="9.00">string</text>
</a>
</g>
</g>
<!-- Node1&#45;&gt;Node3 -->
<g id="edge2" class="edge">
<title>Node1&#45;&gt;Node3</title>
<path fill="none" stroke="midnightblue" d="M102.5,-55.22C102.5,-48.18 102.5,-37.81 102.5,-28.83"/>
<polygon fill="midnightblue" stroke="midnightblue" points="106,-28.55 102.5,-18.55 99,-28.55 106,-28.55"/>
</g>
<!-- Node4 -->
<g id="node4" class="node">
<title>Node4</title>
<g id="a_node4"><a xlink:title=" ">
<polygon fill="white" stroke="#bfbfbf" points="139.5,-0.5 139.5,-18.5 193.5,-18.5 193.5,-0.5 139.5,-0.5"/>
<text text-anchor="middle" x="166.5" y="-7.3" font-family="Helvetica,sans-Serif" font-size="9.00">stdexcept</text>
</a>
</g>
</g>
<!-- Node1&#45;&gt;Node4 -->
<g id="edge3" class="edge">
<title>Node1&#45;&gt;Node4</title>
<path fill="none" stroke="midnightblue" d="M112.22,-55.45C121.9,-47.43 136.98,-34.95 148.79,-25.17"/>
<polygon fill="midnightblue" stroke="midnightblue" points="151.22,-27.7 156.69,-18.63 146.75,-22.31 151.22,-27.7"/>
</g>
</g>
</svg>
