<?xml version="1.0" encoding="UTF-8" standalone="no"?>
<!DOCTYPE svg PUBLIC "-//W3C//DTD SVG 1.1//EN"
 "http://www.w3.org/Graphics/SVG/1.1/DTD/svg11.dtd">
<!-- Generated by graphviz version 2.50.0 (20220203.2022)
 -->
<!-- Title: redis_ipc_read_status Pages: 1 -->
<svg width="710pt" height="118pt"
 viewBox="0.00 0.00 710.00 117.76" xmlns="http://www.w3.org/2000/svg" xmlns:xlink="http://www.w3.org/1999/xlink">
<g id="graph0" class="graph" transform="scale(1 1) rotate(0) translate(4 113.76)">
<title>redis_ipc_read_status</title>
<polygon fill="white" stroke="transparent" points="-4,4 -4,-113.76 706,-113.76 706,4 -4,4"/>
<!-- Node1 -->
<g id="node1" class="node">
<title>Node1</title>
<g id="a_node1"><a xlink:title=" ">
<polygon fill="#bfbfbf" stroke="black" points="0,-75.5 0,-93.5 105,-93.5 105,-75.5 0,-75.5"/>
<text text-anchor="middle" x="52.5" y="-82.3" font-family="Helvetica,sans-Serif" font-size="9.00">redis_ipc_read_status</text>
</a>
</g>
</g>
<!-- Node2 -->
<g id="node2" class="node">
<title>Node2</title>
<g id="a_node2"><a xlink:href="redis__ipc_8c.html#a7b930ec420c7b4bf2df1469aca77f93d" target="_top" xlink:title=" ">
<polygon fill="white" stroke="black" points="521.5,-76.5 521.5,-94.5 616.5,-94.5 616.5,-76.5 521.5,-76.5"/>
<text text-anchor="middle" x="569" y="-83.3" font-family="Helvetica,sans-Serif" font-size="9.00">get_per_thread_info</text>
</a>
</g>
</g>
<!-- Node1&#45;&gt;Node2 -->
<g id="edge1" class="edge">
<title>Node1&#45;&gt;Node2</title>
<path fill="none" stroke="midnightblue" d="M86.88,-93.51C103.09,-97.42 122.92,-101.56 141,-103.5 273.12,-117.68 429.36,-103.21 511.31,-93.24"/>
<polygon fill="midnightblue" stroke="midnightblue" points="511.92,-96.69 521.41,-91.98 511.06,-89.74 511.92,-96.69"/>
</g>
<!-- Node4 -->
<g id="node4" class="node">
<title>Node4</title>
<g id="a_node4"><a xlink:href="redis__ipc_8c.html#a67c9dd84d2426ab58a759dbdfd223267" target="_top" xlink:title=" ">
<polygon fill="white" stroke="black" points="157,-75.5 157,-93.5 208,-93.5 208,-75.5 157,-75.5"/>
<text text-anchor="middle" x="182.5" y="-82.3" font-family="Helvetica,sans-Serif" font-size="9.00">ipc_path</text>
</a>
</g>
</g>
<!-- Node1&#45;&gt;Node4 -->
<g id="edge3" class="edge">
<title>Node1&#45;&gt;Node4</title>
<path fill="none" stroke="midnightblue" d="M105.19,-84.5C119.07,-84.5 133.75,-84.5 146.49,-84.5"/>
<polygon fill="midnightblue" stroke="midnightblue" points="146.67,-88 156.67,-84.5 146.67,-81 146.67,-88"/>
</g>
<!-- Node5 -->
<g id="node5" class="node">
<title>Node5</title>
<g id="a_node5"><a xlink:href="redis__ipc_8c.html#a9f1ecd3f095bb4358ae2b26347b2b822" target="_top" xlink:title=" ">
<polygon fill="white" stroke="black" points="141,-38.5 141,-56.5 224,-56.5 224,-38.5 141,-38.5"/>
<text text-anchor="middle" x="182.5" y="-45.3" font-family="Helvetica,sans-Serif" font-size="9.00">redis_read_hash</text>
</a>
</g>
</g>
<!-- Node1&#45;&gt;Node5 -->
<g id="edge4" class="edge">
<title>Node1&#45;&gt;Node5</title>
<path fill="none" stroke="midnightblue" d="M84.81,-75.45C101.55,-70.61 122.36,-64.59 140.38,-59.38"/>
<polygon fill="midnightblue" stroke="midnightblue" points="141.43,-62.73 150.07,-56.59 139.49,-56 141.43,-62.73"/>
</g>
<!-- Node3 -->
<g id="node3" class="node">
<title>Node3</title>
<g id="a_node3"><a xlink:href="redis__ipc_8c.html#af0449193b7cded86e600f052d0aabd39" target="_top" xlink:title=" ">
<polygon fill="white" stroke="black" points="664,-76.5 664,-94.5 702,-94.5 702,-76.5 664,-76.5"/>
<text text-anchor="middle" x="683" y="-83.3" font-family="Helvetica,sans-Serif" font-size="9.00">gettid</text>
</a>
</g>
</g>
<!-- Node2&#45;&gt;Node3 -->
<g id="edge2" class="edge">
<title>Node2&#45;&gt;Node3</title>
<path fill="none" stroke="midnightblue" d="M616.53,-85.5C629.19,-85.5 642.51,-85.5 653.82,-85.5"/>
<polygon fill="midnightblue" stroke="midnightblue" points="653.94,-89 663.94,-85.5 653.94,-82 653.94,-89"/>
</g>
<!-- Node6 -->
<g id="node6" class="node">
<title>Node6</title>
<g id="a_node6"><a xlink:href="redis__ipc_8c.html#afab35d4c40b4b1866fc0239bb885a39b" target="_top" xlink:title=" ">
<polygon fill="white" stroke="black" points="260,-38.5 260,-56.5 340,-56.5 340,-38.5 260,-38.5"/>
<text text-anchor="middle" x="300" y="-45.3" font-family="Helvetica,sans-Serif" font-size="9.00">redis_command</text>
</a>
</g>
</g>
<!-- Node5&#45;&gt;Node6 -->
<g id="edge5" class="edge">
<title>Node5&#45;&gt;Node6</title>
<path fill="none" stroke="midnightblue" d="M224.22,-47.5C232.44,-47.5 241.16,-47.5 249.64,-47.5"/>
<polygon fill="midnightblue" stroke="midnightblue" points="249.81,-51 259.81,-47.5 249.81,-44 249.81,-51"/>
</g>
<!-- Node7 -->
<g id="node7" class="node">
<title>Node7</title>
<g id="a_node7"><a xlink:href="redis__ipc_8c.html#a5e81feac565f9476476c5f042b2a5c9d" target="_top" xlink:title=" ">
<polygon fill="white" stroke="black" points="510,-0.5 510,-18.5 628,-18.5 628,-0.5 510,-0.5"/>
<text text-anchor="middle" x="569" y="-7.3" font-family="Helvetica,sans-Serif" font-size="9.00">stderr_debug_is_enabled</text>
</a>
</g>
</g>
<!-- Node5&#45;&gt;Node7 -->
<g id="edge11" class="edge">
<title>Node5&#45;&gt;Node7</title>
<path fill="none" stroke="midnightblue" d="M216.47,-38.5C229.9,-35.04 245.62,-31.27 260,-28.5 311.1,-18.66 324.11,-16.47 376,-12.5 417.02,-9.36 463.1,-8.55 499.84,-8.56"/>
<polygon fill="midnightblue" stroke="midnightblue" points="499.94,-12.06 509.94,-8.58 499.95,-5.06 499.94,-12.06"/>
</g>
<!-- Node6&#45;&gt;Node2 -->
<g id="edge6" class="edge">
<title>Node6&#45;&gt;Node2</title>
<path fill="none" stroke="midnightblue" d="M332.16,-56.5C345.55,-60.08 361.45,-63.95 376,-66.5 420.94,-74.37 472.4,-79.24 510.73,-82.08"/>
<polygon fill="midnightblue" stroke="midnightblue" points="510.95,-85.61 521.18,-82.83 511.45,-78.62 510.95,-85.61"/>
</g>
<!-- Node6&#45;&gt;Node7 -->
<g id="edge7" class="edge">
<title>Node6&#45;&gt;Node7</title>
<path fill="none" stroke="midnightblue" d="M332.16,-38.5C345.55,-34.92 361.45,-31.05 376,-28.5 416.71,-21.37 462.79,-16.7 499.6,-13.77"/>
<polygon fill="midnightblue" stroke="midnightblue" points="500.02,-17.25 509.72,-12.99 499.48,-10.27 500.02,-17.25"/>
</g>
<!-- Node8 -->
<g id="node8" class="node">
<title>Node8</title>
<g id="a_node8"><a xlink:href="redis__ipc_8c.html#a80ea8825dd17a3cff2530680c97d184a" target="_top" xlink:title=" ">
<polygon fill="white" stroke="black" points="376,-38.5 376,-56.5 474,-56.5 474,-38.5 376,-38.5"/>
<text text-anchor="middle" x="425" y="-45.3" font-family="Helvetica,sans-Serif" font-size="9.00">validate_redis_reply</text>
</a>
</g>
</g>
<!-- Node6&#45;&gt;Node8 -->
<g id="edge8" class="edge">
<title>Node6&#45;&gt;Node8</title>
<path fill="none" stroke="midnightblue" d="M340.26,-47.5C348.34,-47.5 357.02,-47.5 365.62,-47.5"/>
<polygon fill="midnightblue" stroke="midnightblue" points="365.63,-51 375.63,-47.5 365.63,-44 365.63,-51"/>
</g>
<!-- Node8&#45;&gt;Node2 -->
<g id="edge9" class="edge">
<title>Node8&#45;&gt;Node2</title>
<path fill="none" stroke="midnightblue" d="M459.65,-56.51C478.96,-61.67 503.43,-68.22 524.22,-73.79"/>
<polygon fill="midnightblue" stroke="midnightblue" points="523.53,-77.22 534.1,-76.43 525.34,-70.46 523.53,-77.22"/>
</g>
<!-- Node8&#45;&gt;Node7 -->
<g id="edge10" class="edge">
<title>Node8&#45;&gt;Node7</title>
<path fill="none" stroke="midnightblue" d="M459.65,-38.49C478.96,-33.33 503.43,-26.78 524.22,-21.21"/>
<polygon fill="midnightblue" stroke="midnightblue" points="525.34,-24.54 534.1,-18.57 523.53,-17.78 525.34,-24.54"/>
</g>
</g>
</svg>
