<?xml version="1.0" encoding="UTF-8" standalone="no"?>
<!DOCTYPE svg PUBLIC "-//W3C//DTD SVG 1.1//EN"
 "http://www.w3.org/Graphics/SVG/1.1/DTD/svg11.dtd">
<!-- Generated by graphviz version 2.50.0 (20220203.2022)
 -->
<!-- Title: redis_read_hash Pages: 1 -->
<svg width="569pt" height="103pt"
 viewBox="0.00 0.00 569.00 103.00" xmlns="http://www.w3.org/2000/svg" xmlns:xlink="http://www.w3.org/1999/xlink">
<g id="graph0" class="graph" transform="scale(1 1) rotate(0) translate(4 99)">
<title>redis_read_hash</title>
<polygon fill="white" stroke="transparent" points="-4,4 -4,-99 565,-99 565,4 -4,4"/>
<!-- Node1 -->
<g id="node1" class="node">
<title>Node1</title>
<g id="a_node1"><a xlink:title=" ">
<polygon fill="#bfbfbf" stroke="black" points="0,-0.5 0,-18.5 83,-18.5 83,-0.5 0,-0.5"/>
<text text-anchor="middle" x="41.5" y="-7.3" font-family="Helvetica,sans-Serif" font-size="9.00">redis_read_hash</text>
</a>
</g>
</g>
<!-- Node2 -->
<g id="node2" class="node">
<title>Node2</title>
<g id="a_node2"><a xlink:href="redis__ipc_8c.html#afab35d4c40b4b1866fc0239bb885a39b" target="_top" xlink:title=" ">
<polygon fill="white" stroke="black" points="119,-38.5 119,-56.5 199,-56.5 199,-38.5 119,-38.5"/>
<text text-anchor="middle" x="159" y="-45.3" font-family="Helvetica,sans-Serif" font-size="9.00">redis_command</text>
</a>
</g>
</g>
<!-- Node1&#45;&gt;Node2 -->
<g id="edge1" class="edge">
<title>Node1&#45;&gt;Node2</title>
<path fill="none" stroke="midnightblue" d="M69.87,-18.51C85.01,-23.49 104.04,-29.75 120.54,-35.17"/>
<polygon fill="midnightblue" stroke="midnightblue" points="119.83,-38.63 130.42,-38.43 122.02,-31.98 119.83,-38.63"/>
</g>
<!-- Node5 -->
<g id="node5" class="node">
<title>Node5</title>
<g id="a_node5"><a xlink:href="redis__ipc_8c.html#a5e81feac565f9476476c5f042b2a5c9d" target="_top" xlink:title=" ">
<polygon fill="white" stroke="black" points="369,-19.5 369,-37.5 487,-37.5 487,-19.5 369,-19.5"/>
<text text-anchor="middle" x="428" y="-26.3" font-family="Helvetica,sans-Serif" font-size="9.00">stderr_debug_is_enabled</text>
</a>
</g>
</g>
<!-- Node1&#45;&gt;Node5 -->
<g id="edge8" class="edge">
<title>Node1&#45;&gt;Node5</title>
<path fill="none" stroke="midnightblue" d="M83.28,-11.52C148.86,-14.76 278.45,-21.16 358.42,-25.11"/>
<polygon fill="midnightblue" stroke="midnightblue" points="358.72,-28.63 368.89,-25.63 359.07,-21.64 358.72,-28.63"/>
</g>
<!-- Node3 -->
<g id="node3" class="node">
<title>Node3</title>
<g id="a_node3"><a xlink:href="redis__ipc_8c.html#a7b930ec420c7b4bf2df1469aca77f93d" target="_top" xlink:title=" ">
<polygon fill="white" stroke="black" points="380.5,-76.5 380.5,-94.5 475.5,-94.5 475.5,-76.5 380.5,-76.5"/>
<text text-anchor="middle" x="428" y="-83.3" font-family="Helvetica,sans-Serif" font-size="9.00">get_per_thread_info</text>
</a>
</g>
</g>
<!-- Node2&#45;&gt;Node3 -->
<g id="edge2" class="edge">
<title>Node2&#45;&gt;Node3</title>
<path fill="none" stroke="midnightblue" d="M173.08,-56.54C187.48,-65.91 211.72,-79.94 235,-85.5 279.49,-96.13 331.46,-95.36 370.1,-92.36"/>
<polygon fill="midnightblue" stroke="midnightblue" points="370.46,-95.84 380.13,-91.51 369.87,-88.87 370.46,-95.84"/>
</g>
<!-- Node2&#45;&gt;Node5 -->
<g id="edge4" class="edge">
<title>Node2&#45;&gt;Node5</title>
<path fill="none" stroke="midnightblue" d="M199.11,-44.72C240.85,-41.75 307.79,-36.98 358.34,-33.39"/>
<polygon fill="midnightblue" stroke="midnightblue" points="358.82,-36.86 368.54,-32.66 358.32,-29.88 358.82,-36.86"/>
</g>
<!-- Node6 -->
<g id="node6" class="node">
<title>Node6</title>
<g id="a_node6"><a xlink:href="redis__ipc_8c.html#a80ea8825dd17a3cff2530680c97d184a" target="_top" xlink:title=" ">
<polygon fill="white" stroke="black" points="235,-57.5 235,-75.5 333,-75.5 333,-57.5 235,-57.5"/>
<text text-anchor="middle" x="284" y="-64.3" font-family="Helvetica,sans-Serif" font-size="9.00">validate_redis_reply</text>
</a>
</g>
</g>
<!-- Node2&#45;&gt;Node6 -->
<g id="edge5" class="edge">
<title>Node2&#45;&gt;Node6</title>
<path fill="none" stroke="midnightblue" d="M199.26,-53.56C207.34,-54.81 216.02,-56.15 224.62,-57.48"/>
<polygon fill="midnightblue" stroke="midnightblue" points="224.21,-60.96 234.63,-59.03 225.28,-54.04 224.21,-60.96"/>
</g>
<!-- Node4 -->
<g id="node4" class="node">
<title>Node4</title>
<g id="a_node4"><a xlink:href="redis__ipc_8c.html#af0449193b7cded86e600f052d0aabd39" target="_top" xlink:title=" ">
<polygon fill="white" stroke="black" points="523,-76.5 523,-94.5 561,-94.5 561,-76.5 523,-76.5"/>
<text text-anchor="middle" x="542" y="-83.3" font-family="Helvetica,sans-Serif" font-size="9.00">gettid</text>
</a>
</g>
</g>
<!-- Node3&#45;&gt;Node4 -->
<g id="edge3" class="edge">
<title>Node3&#45;&gt;Node4</title>
<path fill="none" stroke="midnightblue" d="M475.53,-85.5C488.19,-85.5 501.51,-85.5 512.82,-85.5"/>
<polygon fill="midnightblue" stroke="midnightblue" points="512.94,-89 522.94,-85.5 512.94,-82 512.94,-89"/>
</g>
<!-- Node6&#45;&gt;Node3 -->
<g id="edge6" class="edge">
<title>Node6&#45;&gt;Node3</title>
<path fill="none" stroke="midnightblue" d="M333.07,-72.93C345.02,-74.53 357.93,-76.26 370.25,-77.91"/>
<polygon fill="midnightblue" stroke="midnightblue" points="370.04,-81.41 380.42,-79.27 370.97,-74.47 370.04,-81.41"/>
</g>
<!-- Node6&#45;&gt;Node5 -->
<g id="edge7" class="edge">
<title>Node6&#45;&gt;Node5</title>
<path fill="none" stroke="midnightblue" d="M318.65,-57.49C337.96,-52.33 362.43,-45.78 383.22,-40.21"/>
<polygon fill="midnightblue" stroke="midnightblue" points="384.34,-43.54 393.1,-37.57 382.53,-36.78 384.34,-43.54"/>
</g>
</g>
</svg>
