<?xml version="1.0" encoding="UTF-8" standalone="no"?>
<!DOCTYPE svg PUBLIC "-//W3C//DTD SVG 1.1//EN"
 "http://www.w3.org/Graphics/SVG/1.1/DTD/svg11.dtd">
<!-- Generated by graphviz version 2.50.0 (20220203.2022)
 -->
<!-- Title: redis_ipc_subscribe_debug Pages: 1 -->
<svg width="699pt" height="100pt"
 viewBox="0.00 0.00 699.00 99.97" xmlns="http://www.w3.org/2000/svg" xmlns:xlink="http://www.w3.org/1999/xlink">
<g id="graph0" class="graph" transform="scale(1 1) rotate(0) translate(4 95.97)">
<title>redis_ipc_subscribe_debug</title>
<polygon fill="white" stroke="transparent" points="-4,4 -4,-95.97 695,-95.97 695,4 -4,4"/>
<!-- Node1 -->
<g id="node1" class="node">
<title>Node1</title>
<g id="a_node1"><a xlink:title=" ">
<polygon fill="#bfbfbf" stroke="black" points="0,-52.5 0,-80.5 97,-80.5 97,-52.5 0,-52.5"/>
<text text-anchor="start" x="8" y="-69.3" font-family="Helvetica,sans-Serif" font-size="9.00">redis_ipc_subscribe</text>
<text text-anchor="middle" x="48.5" y="-59.3" font-family="Helvetica,sans-Serif" font-size="9.00">_debug</text>
</a>
</g>
</g>
<!-- Node2 -->
<g id="node2" class="node">
<title>Node2</title>
<g id="a_node2"><a xlink:href="redis__ipc_8c.html#a7b930ec420c7b4bf2df1469aca77f93d" target="_top" xlink:title=" ">
<polygon fill="white" stroke="black" points="510.5,-57.5 510.5,-75.5 605.5,-75.5 605.5,-57.5 510.5,-57.5"/>
<text text-anchor="middle" x="558" y="-64.3" font-family="Helvetica,sans-Serif" font-size="9.00">get_per_thread_info</text>
</a>
</g>
</g>
<!-- Node1&#45;&gt;Node2 -->
<g id="edge1" class="edge">
<title>Node1&#45;&gt;Node2</title>
<path fill="none" stroke="midnightblue" d="M97.31,-79.31C108.91,-81.88 121.33,-84.19 133,-85.5 263.96,-100.21 418.89,-85.09 500.37,-74.65"/>
<polygon fill="midnightblue" stroke="midnightblue" points="500.95,-78.1 510.41,-73.33 500.04,-71.16 500.95,-78.1"/>
</g>
<!-- Node4 -->
<g id="node4" class="node">
<title>Node4</title>
<g id="a_node4"><a xlink:href="redis__ipc_8c.html#a67c9dd84d2426ab58a759dbdfd223267" target="_top" xlink:title=" ">
<polygon fill="white" stroke="black" points="147.5,-57.5 147.5,-75.5 198.5,-75.5 198.5,-57.5 147.5,-57.5"/>
<text text-anchor="middle" x="173" y="-64.3" font-family="Helvetica,sans-Serif" font-size="9.00">ipc_path</text>
</a>
</g>
</g>
<!-- Node1&#45;&gt;Node4 -->
<g id="edge3" class="edge">
<title>Node1&#45;&gt;Node4</title>
<path fill="none" stroke="midnightblue" d="M97.21,-66.5C110.41,-66.5 124.49,-66.5 136.83,-66.5"/>
<polygon fill="midnightblue" stroke="midnightblue" points="137.17,-70 147.17,-66.5 137.17,-63 137.17,-70"/>
</g>
<!-- Node5 -->
<g id="node5" class="node">
<title>Node5</title>
<g id="a_node5"><a xlink:href="redis__ipc_8c.html#a420fcd64722043e4bc0bb7f61a29d588" target="_top" xlink:title=" ">
<polygon fill="white" stroke="black" points="133,-20.5 133,-38.5 213,-38.5 213,-20.5 133,-20.5"/>
<text text-anchor="middle" x="173" y="-27.3" font-family="Helvetica,sans-Serif" font-size="9.00">redis_subscribe</text>
</a>
</g>
</g>
<!-- Node1&#45;&gt;Node5 -->
<g id="edge4" class="edge">
<title>Node1&#45;&gt;Node5</title>
<path fill="none" stroke="midnightblue" d="M96.16,-52.41C108.08,-48.81 120.79,-44.97 132.33,-41.48"/>
<polygon fill="midnightblue" stroke="midnightblue" points="133.55,-44.77 142.11,-38.53 131.53,-38.07 133.55,-44.77"/>
</g>
<!-- Node3 -->
<g id="node3" class="node">
<title>Node3</title>
<g id="a_node3"><a xlink:href="redis__ipc_8c.html#af0449193b7cded86e600f052d0aabd39" target="_top" xlink:title=" ">
<polygon fill="white" stroke="black" points="653,-57.5 653,-75.5 691,-75.5 691,-57.5 653,-57.5"/>
<text text-anchor="middle" x="672" y="-64.3" font-family="Helvetica,sans-Serif" font-size="9.00">gettid</text>
</a>
</g>
</g>
<!-- Node2&#45;&gt;Node3 -->
<g id="edge2" class="edge">
<title>Node2&#45;&gt;Node3</title>
<path fill="none" stroke="midnightblue" d="M605.53,-66.5C618.19,-66.5 631.51,-66.5 642.82,-66.5"/>
<polygon fill="midnightblue" stroke="midnightblue" points="642.94,-70 652.94,-66.5 642.94,-63 642.94,-70"/>
</g>
<!-- Node6 -->
<g id="node6" class="node">
<title>Node6</title>
<g id="a_node6"><a xlink:href="redis__ipc_8c.html#afab35d4c40b4b1866fc0239bb885a39b" target="_top" xlink:title=" ">
<polygon fill="white" stroke="black" points="249,-19.5 249,-37.5 329,-37.5 329,-19.5 249,-19.5"/>
<text text-anchor="middle" x="289" y="-26.3" font-family="Helvetica,sans-Serif" font-size="9.00">redis_command</text>
</a>
</g>
</g>
<!-- Node5&#45;&gt;Node6 -->
<g id="edge5" class="edge">
<title>Node5&#45;&gt;Node6</title>
<path fill="none" stroke="midnightblue" d="M213.23,-29.16C221.38,-29.08 230.07,-29.01 238.54,-28.93"/>
<polygon fill="midnightblue" stroke="midnightblue" points="238.73,-32.43 248.7,-28.84 238.67,-25.43 238.73,-32.43"/>
</g>
<!-- Node6&#45;&gt;Node2 -->
<g id="edge6" class="edge">
<title>Node6&#45;&gt;Node2</title>
<path fill="none" stroke="midnightblue" d="M323.41,-37.51C336.32,-40.74 351.27,-44.15 365,-46.5 409.99,-54.21 461.45,-59.37 499.77,-62.52"/>
<polygon fill="midnightblue" stroke="midnightblue" points="499.96,-66.05 510.21,-63.36 500.52,-59.07 499.96,-66.05"/>
</g>
<!-- Node7 -->
<g id="node7" class="node">
<title>Node7</title>
<g id="a_node7"><a xlink:href="redis__ipc_8c.html#a5e81feac565f9476476c5f042b2a5c9d" target="_top" xlink:title=" ">
<polygon fill="white" stroke="black" points="499,-0.5 499,-18.5 617,-18.5 617,-0.5 499,-0.5"/>
<text text-anchor="middle" x="558" y="-7.3" font-family="Helvetica,sans-Serif" font-size="9.00">stderr_debug_is_enabled</text>
</a>
</g>
</g>
<!-- Node6&#45;&gt;Node7 -->
<g id="edge7" class="edge">
<title>Node6&#45;&gt;Node7</title>
<path fill="none" stroke="midnightblue" d="M318.53,-19.5C332.4,-15.58 349.41,-11.44 365,-9.5 405.82,-4.41 451.89,-4.23 488.68,-5.4"/>
<polygon fill="midnightblue" stroke="midnightblue" points="488.68,-8.91 498.79,-5.77 488.93,-1.91 488.68,-8.91"/>
</g>
<!-- Node8 -->
<g id="node8" class="node">
<title>Node8</title>
<g id="a_node8"><a xlink:href="redis__ipc_8c.html#a80ea8825dd17a3cff2530680c97d184a" target="_top" xlink:title=" ">
<polygon fill="white" stroke="black" points="365,-19.5 365,-37.5 463,-37.5 463,-19.5 365,-19.5"/>
<text text-anchor="middle" x="414" y="-26.3" font-family="Helvetica,sans-Serif" font-size="9.00">validate_redis_reply</text>
</a>
</g>
</g>
<!-- Node6&#45;&gt;Node8 -->
<g id="edge8" class="edge">
<title>Node6&#45;&gt;Node8</title>
<path fill="none" stroke="midnightblue" d="M329.26,-28.5C337.34,-28.5 346.02,-28.5 354.62,-28.5"/>
<polygon fill="midnightblue" stroke="midnightblue" points="354.63,-32 364.63,-28.5 354.63,-25 354.63,-32"/>
</g>
<!-- Node8&#45;&gt;Node2 -->
<g id="edge9" class="edge">
<title>Node8&#45;&gt;Node2</title>
<path fill="none" stroke="midnightblue" d="M448.65,-37.51C467.96,-42.67 492.43,-49.22 513.22,-54.79"/>
<polygon fill="midnightblue" stroke="midnightblue" points="512.53,-58.22 523.1,-57.43 514.34,-51.46 512.53,-58.22"/>
</g>
<!-- Node8&#45;&gt;Node7 -->
<g id="edge10" class="edge">
<title>Node8&#45;&gt;Node7</title>
<path fill="none" stroke="midnightblue" d="M463.07,-22.07C471.34,-20.96 480.08,-19.79 488.76,-18.63"/>
<polygon fill="midnightblue" stroke="midnightblue" points="489.44,-22.07 498.89,-17.28 488.52,-15.13 489.44,-22.07"/>
</g>
</g>
</svg>
