<?xml version="1.0" encoding="UTF-8" standalone="no"?>
<!DOCTYPE svg PUBLIC "-//W3C//DTD SVG 1.1//EN"
 "http://www.w3.org/Graphics/SVG/1.1/DTD/svg11.dtd">
<!-- Generated by graphviz version 3.0.0 (20220413.0106)
 -->
<!-- Title: redis_ipc_write_status Pages: 1 -->
<svg width="751pt" height="100pt"
 viewBox="0.00 0.00 751.00 100.37" xmlns="http://www.w3.org/2000/svg" xmlns:xlink="http://www.w3.org/1999/xlink">
<g id="graph0" class="graph" transform="scale(1 1) rotate(0) translate(4 96.37)">
<title>redis_ipc_write_status</title>
<polygon fill="white" stroke="transparent" points="-4,4 -4,-96.37 747,-96.37 747,4 -4,4"/>
<!-- Node1 -->
<g id="node1" class="node">
<title>Node1</title>
<g id="a_node1"><a xlink:title=" ">
<polygon fill="#bfbfbf" stroke="black" points="0,-57.5 0,-75.5 106,-75.5 106,-57.5 0,-57.5"/>
<text text-anchor="middle" x="53" y="-64.3" font-family="Helvetica,sans-Serif" font-size="9.00">redis_ipc_write_status</text>
</a>
</g>
</g>
<!-- Node2 -->
<g id="node2" class="node">
<title>Node2</title>
<g id="a_node2"><a xlink:href="redis__ipc_8c.html#a7b930ec420c7b4bf2df1469aca77f93d" target="_top" xlink:title=" ">
<polygon fill="white" stroke="black" points="562.5,-57.5 562.5,-75.5 657.5,-75.5 657.5,-57.5 562.5,-57.5"/>
<text text-anchor="middle" x="610" y="-64.3" font-family="Helvetica,sans-Serif" font-size="9.00">get_per_thread_info</text>
</a>
</g>
</g>
<!-- Node1&#45;&gt;Node2 -->
<g id="edge1" class="edge">
<title>Node1&#45;&gt;Node2</title>
<path fill="none" stroke="midnightblue" d="M87.58,-75.51C103.87,-79.42 123.82,-83.56 142,-85.5 289.46,-101.24 464.39,-84.82 552.41,-74.14"/>
<polygon fill="midnightblue" stroke="midnightblue" points="552.96,-77.6 562.45,-72.9 552.1,-70.65 552.96,-77.6"/>
</g>
<!-- Node4 -->
<g id="node4" class="node">
<title>Node4</title>
<g id="a_node4"><a xlink:href="redis__ipc_8c.html#a67c9dd84d2426ab58a759dbdfd223267" target="_top" xlink:title=" ">
<polygon fill="white" stroke="black" points="158.5,-57.5 158.5,-75.5 209.5,-75.5 209.5,-57.5 158.5,-57.5"/>
<text text-anchor="middle" x="184" y="-64.3" font-family="Helvetica,sans-Serif" font-size="9.00">ipc_path</text>
</a>
</g>
</g>
<!-- Node1&#45;&gt;Node4 -->
<g id="edge3" class="edge">
<title>Node1&#45;&gt;Node4</title>
<path fill="none" stroke="midnightblue" d="M106.1,-66.5C120.19,-66.5 135.11,-66.5 148.01,-66.5"/>
<polygon fill="midnightblue" stroke="midnightblue" points="148.32,-70 158.32,-66.5 148.32,-63 148.32,-70"/>
</g>
<!-- Node5 -->
<g id="node5" class="node">
<title>Node5</title>
<g id="a_node5"><a xlink:href="redis__ipc_8c.html#ab4f8e083ca57feea4be05c015b0eac9f" target="_top" xlink:title=" ">
<polygon fill="white" stroke="black" points="142,-20.5 142,-38.5 226,-38.5 226,-20.5 142,-20.5"/>
<text text-anchor="middle" x="184" y="-27.3" font-family="Helvetica,sans-Serif" font-size="9.00">redis_write_hash</text>
</a>
</g>
</g>
<!-- Node1&#45;&gt;Node5 -->
<g id="edge4" class="edge">
<title>Node1&#45;&gt;Node5</title>
<path fill="none" stroke="midnightblue" d="M85.56,-57.45C102.42,-52.61 123.4,-46.59 141.56,-41.38"/>
<polygon fill="midnightblue" stroke="midnightblue" points="142.67,-44.71 151.32,-38.59 140.74,-37.98 142.67,-44.71"/>
</g>
<!-- Node3 -->
<g id="node3" class="node">
<title>Node3</title>
<g id="a_node3"><a xlink:href="redis__ipc_8c.html#af0449193b7cded86e600f052d0aabd39" target="_top" xlink:title=" ">
<polygon fill="white" stroke="black" points="705,-57.5 705,-75.5 743,-75.5 743,-57.5 705,-57.5"/>
<text text-anchor="middle" x="724" y="-64.3" font-family="Helvetica,sans-Serif" font-size="9.00">gettid</text>
</a>
</g>
</g>
<!-- Node2&#45;&gt;Node3 -->
<g id="edge2" class="edge">
<title>Node2&#45;&gt;Node3</title>
<path fill="none" stroke="midnightblue" d="M657.53,-66.5C670.19,-66.5 683.51,-66.5 694.82,-66.5"/>
<polygon fill="midnightblue" stroke="midnightblue" points="694.94,-70 704.94,-66.5 694.94,-63 694.94,-70"/>
</g>
<!-- Node6 -->
<g id="node6" class="node">
<title>Node6</title>
<g id="a_node6"><a xlink:href="redis__ipc_8c.html#a1d8ea9a795de6bcac8f989d7770028c3" target="_top" xlink:title=" ">
<polygon fill="white" stroke="black" points="283.5,-56.5 283.5,-74.5 359.5,-74.5 359.5,-56.5 283.5,-56.5"/>
<text text-anchor="middle" x="321.5" y="-63.3" font-family="Helvetica,sans-Serif" font-size="9.00">get_field_count</text>
</a>
</g>
</g>
<!-- Node5&#45;&gt;Node6 -->
<g id="edge5" class="edge">
<title>Node5&#45;&gt;Node6</title>
<path fill="none" stroke="midnightblue" d="M219.19,-38.58C236.6,-43.21 257.97,-48.89 276.59,-53.83"/>
<polygon fill="midnightblue" stroke="midnightblue" points="275.76,-57.23 286.32,-56.42 277.55,-50.47 275.76,-57.23"/>
</g>
<!-- Node7 -->
<g id="node7" class="node">
<title>Node7</title>
<g id="a_node7"><a xlink:href="redis__ipc_8c.html#a75d72df468cbcb8c72d15ca3b0cd9996" target="_top" xlink:title=" ">
<polygon fill="white" stroke="black" points="262,-19.5 262,-37.5 381,-37.5 381,-19.5 262,-19.5"/>
<text text-anchor="middle" x="321.5" y="-26.3" font-family="Helvetica,sans-Serif" font-size="9.00">redis_command_from_list</text>
</a>
</g>
</g>
<!-- Node5&#45;&gt;Node7 -->
<g id="edge6" class="edge">
<title>Node5&#45;&gt;Node7</title>
<path fill="none" stroke="midnightblue" d="M226.02,-29.2C234.08,-29.14 242.75,-29.07 251.44,-29.01"/>
<polygon fill="midnightblue" stroke="midnightblue" points="251.65,-32.51 261.62,-28.93 251.6,-25.51 251.65,-32.51"/>
</g>
<!-- Node7&#45;&gt;Node2 -->
<g id="edge7" class="edge">
<title>Node7&#45;&gt;Node2</title>
<path fill="none" stroke="midnightblue" d="M365.65,-37.51C381.72,-40.66 400.15,-44.02 417,-46.5 462.16,-53.14 513.61,-58.38 551.88,-61.82"/>
<polygon fill="midnightblue" stroke="midnightblue" points="552.04,-65.35 562.31,-62.75 552.65,-58.38 552.04,-65.35"/>
</g>
<!-- Node8 -->
<g id="node8" class="node">
<title>Node8</title>
<g id="a_node8"><a xlink:href="redis__ipc_8c.html#a5e81feac565f9476476c5f042b2a5c9d" target="_top" xlink:title=" ">
<polygon fill="white" stroke="black" points="551,-0.5 551,-18.5 669,-18.5 669,-0.5 551,-0.5"/>
<text text-anchor="middle" x="610" y="-7.3" font-family="Helvetica,sans-Serif" font-size="9.00">stderr_debug_is_enabled</text>
</a>
</g>
</g>
<!-- Node7&#45;&gt;Node8 -->
<g id="edge8" class="edge">
<title>Node7&#45;&gt;Node8</title>
<path fill="none" stroke="midnightblue" d="M358.59,-19.49C376.1,-15.57 397.52,-11.44 417,-9.5 457.93,-5.43 504.01,-5.28 540.77,-6.22"/>
<polygon fill="midnightblue" stroke="midnightblue" points="540.78,-9.72 550.88,-6.51 540.98,-2.73 540.78,-9.72"/>
</g>
<!-- Node9 -->
<g id="node9" class="node">
<title>Node9</title>
<g id="a_node9"><a xlink:href="redis__ipc_8c.html#a80ea8825dd17a3cff2530680c97d184a" target="_top" xlink:title=" ">
<polygon fill="white" stroke="black" points="417,-19.5 417,-37.5 515,-37.5 515,-19.5 417,-19.5"/>
<text text-anchor="middle" x="466" y="-26.3" font-family="Helvetica,sans-Serif" font-size="9.00">validate_redis_reply</text>
</a>
</g>
</g>
<!-- Node7&#45;&gt;Node9 -->
<g id="edge9" class="edge">
<title>Node7&#45;&gt;Node9</title>
<path fill="none" stroke="midnightblue" d="M381.28,-28.5C389.68,-28.5 398.31,-28.5 406.69,-28.5"/>
<polygon fill="midnightblue" stroke="midnightblue" points="406.77,-32 416.77,-28.5 406.77,-25 406.77,-32"/>
</g>
<!-- Node9&#45;&gt;Node2 -->
<g id="edge10" class="edge">
<title>Node9&#45;&gt;Node2</title>
<path fill="none" stroke="midnightblue" d="M500.65,-37.51C519.96,-42.67 544.43,-49.22 565.22,-54.79"/>
<polygon fill="midnightblue" stroke="midnightblue" points="564.53,-58.22 575.1,-57.43 566.34,-51.46 564.53,-58.22"/>
</g>
<!-- Node9&#45;&gt;Node8 -->
<g id="edge11" class="edge">
<title>Node9&#45;&gt;Node8</title>
<path fill="none" stroke="midnightblue" d="M515.07,-22.07C523.34,-20.96 532.08,-19.79 540.76,-18.63"/>
<polygon fill="midnightblue" stroke="midnightblue" points="541.44,-22.07 550.89,-17.28 540.52,-15.13 541.44,-22.07"/>
</g>
</g>
</svg>
