<?xml version="1.0" encoding="UTF-8" standalone="no"?>
<!DOCTYPE svg PUBLIC "-//W3C//DTD SVG 1.1//EN"
 "http://www.w3.org/Graphics/SVG/1.1/DTD/svg11.dtd">
<!-- Generated by graphviz version 3.0.0 (20220413.0106)
 -->
<!-- Title: redis_pop Pages: 1 -->
<svg width="542pt" height="103pt"
 viewBox="0.00 0.00 542.00 103.00" xmlns="http://www.w3.org/2000/svg" xmlns:xlink="http://www.w3.org/1999/xlink">
<g id="graph0" class="graph" transform="scale(1 1) rotate(0) translate(4 99)">
<title>redis_pop</title>
<polygon fill="white" stroke="transparent" points="-4,4 -4,-99 538,-99 538,4 -4,4"/>
<!-- Node1 -->
<g id="node1" class="node">
<title>Node1</title>
<g id="a_node1"><a xlink:title=" ">
<polygon fill="#bfbfbf" stroke="black" points="0,-0.5 0,-18.5 56,-18.5 56,-0.5 0,-0.5"/>
<text text-anchor="middle" x="28" y="-7.3" font-family="Helvetica,sans-Serif" font-size="9.00">redis_pop</text>
</a>
</g>
</g>
<!-- Node2 -->
<g id="node2" class="node">
<title>Node2</title>
<g id="a_node2"><a xlink:href="redis__ipc_8c.html#afab35d4c40b4b1866fc0239bb885a39b" target="_top" xlink:title=" ">
<polygon fill="white" stroke="black" points="92,-38.5 92,-56.5 172,-56.5 172,-38.5 92,-38.5"/>
<text text-anchor="middle" x="132" y="-45.3" font-family="Helvetica,sans-Serif" font-size="9.00">redis_command</text>
</a>
</g>
</g>
<!-- Node1&#45;&gt;Node2 -->
<g id="edge1" class="edge">
<title>Node1&#45;&gt;Node2</title>
<path fill="none" stroke="midnightblue" d="M53.17,-18.51C66.29,-23.39 82.71,-29.51 97.09,-34.87"/>
<polygon fill="midnightblue" stroke="midnightblue" points="96.05,-38.22 106.65,-38.43 98.5,-31.66 96.05,-38.22"/>
</g>
<!-- Node5 -->
<g id="node5" class="node">
<title>Node5</title>
<g id="a_node5"><a xlink:href="redis__ipc_8c.html#a5e81feac565f9476476c5f042b2a5c9d" target="_top" xlink:title=" ">
<polygon fill="white" stroke="black" points="342,-19.5 342,-37.5 460,-37.5 460,-19.5 342,-19.5"/>
<text text-anchor="middle" x="401" y="-26.3" font-family="Helvetica,sans-Serif" font-size="9.00">stderr_debug_is_enabled</text>
</a>
</g>
</g>
<!-- Node1&#45;&gt;Node5 -->
<g id="edge8" class="edge">
<title>Node1&#45;&gt;Node5</title>
<path fill="none" stroke="midnightblue" d="M56.28,-10.9C113.79,-13.84 248.96,-20.76 331.62,-25"/>
<polygon fill="midnightblue" stroke="midnightblue" points="331.51,-28.5 341.68,-25.51 331.87,-21.51 331.51,-28.5"/>
</g>
<!-- Node3 -->
<g id="node3" class="node">
<title>Node3</title>
<g id="a_node3"><a xlink:href="redis__ipc_8c.html#a7b930ec420c7b4bf2df1469aca77f93d" target="_top" xlink:title=" ">
<polygon fill="white" stroke="black" points="353.5,-76.5 353.5,-94.5 448.5,-94.5 448.5,-76.5 353.5,-76.5"/>
<text text-anchor="middle" x="401" y="-83.3" font-family="Helvetica,sans-Serif" font-size="9.00">get_per_thread_info</text>
</a>
</g>
</g>
<!-- Node2&#45;&gt;Node3 -->
<g id="edge2" class="edge">
<title>Node2&#45;&gt;Node3</title>
<path fill="none" stroke="midnightblue" d="M146.08,-56.54C160.48,-65.91 184.72,-79.94 208,-85.5 252.49,-96.13 304.46,-95.36 343.1,-92.36"/>
<polygon fill="midnightblue" stroke="midnightblue" points="343.46,-95.84 353.13,-91.51 342.87,-88.87 343.46,-95.84"/>
</g>
<!-- Node2&#45;&gt;Node5 -->
<g id="edge4" class="edge">
<title>Node2&#45;&gt;Node5</title>
<path fill="none" stroke="midnightblue" d="M172.11,-44.72C213.85,-41.75 280.79,-36.98 331.34,-33.39"/>
<polygon fill="midnightblue" stroke="midnightblue" points="331.82,-36.86 341.54,-32.66 331.32,-29.88 331.82,-36.86"/>
</g>
<!-- Node6 -->
<g id="node6" class="node">
<title>Node6</title>
<g id="a_node6"><a xlink:href="redis__ipc_8c.html#a80ea8825dd17a3cff2530680c97d184a" target="_top" xlink:title=" ">
<polygon fill="white" stroke="black" points="208,-57.5 208,-75.5 306,-75.5 306,-57.5 208,-57.5"/>
<text text-anchor="middle" x="257" y="-64.3" font-family="Helvetica,sans-Serif" font-size="9.00">validate_redis_reply</text>
</a>
</g>
</g>
<!-- Node2&#45;&gt;Node6 -->
<g id="edge5" class="edge">
<title>Node2&#45;&gt;Node6</title>
<path fill="none" stroke="midnightblue" d="M172.26,-53.56C180.34,-54.81 189.02,-56.15 197.62,-57.48"/>
<polygon fill="midnightblue" stroke="midnightblue" points="197.21,-60.96 207.63,-59.03 198.28,-54.04 197.21,-60.96"/>
</g>
<!-- Node4 -->
<g id="node4" class="node">
<title>Node4</title>
<g id="a_node4"><a xlink:href="redis__ipc_8c.html#af0449193b7cded86e600f052d0aabd39" target="_top" xlink:title=" ">
<polygon fill="white" stroke="black" points="496,-76.5 496,-94.5 534,-94.5 534,-76.5 496,-76.5"/>
<text text-anchor="middle" x="515" y="-83.3" font-family="Helvetica,sans-Serif" font-size="9.00">gettid</text>
</a>
</g>
</g>
<!-- Node3&#45;&gt;Node4 -->
<g id="edge3" class="edge">
<title>Node3&#45;&gt;Node4</title>
<path fill="none" stroke="midnightblue" d="M448.53,-85.5C461.19,-85.5 474.51,-85.5 485.82,-85.5"/>
<polygon fill="midnightblue" stroke="midnightblue" points="485.94,-89 495.94,-85.5 485.94,-82 485.94,-89"/>
</g>
<!-- Node6&#45;&gt;Node3 -->
<g id="edge6" class="edge">
<title>Node6&#45;&gt;Node3</title>
<path fill="none" stroke="midnightblue" d="M306.07,-72.93C318.02,-74.53 330.93,-76.26 343.25,-77.91"/>
<polygon fill="midnightblue" stroke="midnightblue" points="343.04,-81.41 353.42,-79.27 343.97,-74.47 343.04,-81.41"/>
</g>
<!-- Node6&#45;&gt;Node5 -->
<g id="edge7" class="edge">
<title>Node6&#45;&gt;Node5</title>
<path fill="none" stroke="midnightblue" d="M291.65,-57.49C310.96,-52.33 335.43,-45.78 356.22,-40.21"/>
<polygon fill="midnightblue" stroke="midnightblue" points="357.34,-43.54 366.1,-37.57 355.53,-36.78 357.34,-43.54"/>
</g>
</g>
</svg>
