<?xml version="1.0" encoding="UTF-8" standalone="no"?>
<!DOCTYPE svg PUBLIC "-//W3C//DTD SVG 1.1//EN"
 "http://www.w3.org/Graphics/SVG/1.1/DTD/svg11.dtd">
<!-- Generated by graphviz version 3.0.0 (20220413.0106)
 -->
<!-- Title: redis_write_hash Pages: 1 -->
<svg width="609pt" height="83pt"
 viewBox="0.00 0.00 609.00 83.00" xmlns="http://www.w3.org/2000/svg" xmlns:xlink="http://www.w3.org/1999/xlink">
<g id="graph0" class="graph" transform="scale(1 1) rotate(0) translate(4 79)">
<title>redis_write_hash</title>
<polygon fill="white" stroke="transparent" points="-4,4 -4,-79 605,-79 605,4 -4,4"/>
<!-- Node1 -->
<g id="node1" class="node">
<title>Node1</title>
<g id="a_node1"><a xlink:title=" ">
<polygon fill="#bfbfbf" stroke="black" points="0,-37.5 0,-55.5 84,-55.5 84,-37.5 0,-37.5"/>
<text text-anchor="middle" x="42" y="-44.3" font-family="Helvetica,sans-Serif" font-size="9.00">redis_write_hash</text>
</a>
</g>
</g>
<!-- Node2 -->
<g id="node2" class="node">
<title>Node2</title>
<g id="a_node2"><a xlink:href="redis__ipc_8c.html#a1d8ea9a795de6bcac8f989d7770028c3" target="_top" xlink:title=" ">
<polygon fill="white" stroke="black" points="141.5,-56.5 141.5,-74.5 217.5,-74.5 217.5,-56.5 141.5,-56.5"/>
<text text-anchor="middle" x="179.5" y="-63.3" font-family="Helvetica,sans-Serif" font-size="9.00">get_field_count</text>
</a>
</g>
</g>
<!-- Node1&#45;&gt;Node2 -->
<g id="edge1" class="edge">
<title>Node1&#45;&gt;Node2</title>
<path fill="none" stroke="midnightblue" d="M84.02,-52.25C98.83,-54.33 115.67,-56.69 130.99,-58.84"/>
<polygon fill="midnightblue" stroke="midnightblue" points="130.92,-62.36 141.31,-60.28 131.89,-55.43 130.92,-62.36"/>
</g>
<!-- Node3 -->
<g id="node3" class="node">
<title>Node3</title>
<g id="a_node3"><a xlink:href="redis__ipc_8c.html#a75d72df468cbcb8c72d15ca3b0cd9996" target="_top" xlink:title=" ">
<polygon fill="white" stroke="black" points="120,-19.5 120,-37.5 239,-37.5 239,-19.5 120,-19.5"/>
<text text-anchor="middle" x="179.5" y="-26.3" font-family="Helvetica,sans-Serif" font-size="9.00">redis_command_from_list</text>
</a>
</g>
</g>
<!-- Node1&#45;&gt;Node3 -->
<g id="edge2" class="edge">
<title>Node1&#45;&gt;Node3</title>
<path fill="none" stroke="midnightblue" d="M84.02,-41.05C92.08,-39.98 100.75,-38.83 109.44,-37.67"/>
<polygon fill="midnightblue" stroke="midnightblue" points="110.17,-41.11 119.62,-36.32 109.25,-34.17 110.17,-41.11"/>
</g>
<!-- Node4 -->
<g id="node4" class="node">
<title>Node4</title>
<g id="a_node4"><a xlink:href="redis__ipc_8c.html#a7b930ec420c7b4bf2df1469aca77f93d" target="_top" xlink:title=" ">
<polygon fill="white" stroke="black" points="420.5,-37.5 420.5,-55.5 515.5,-55.5 515.5,-37.5 420.5,-37.5"/>
<text text-anchor="middle" x="468" y="-44.3" font-family="Helvetica,sans-Serif" font-size="9.00">get_per_thread_info</text>
</a>
</g>
</g>
<!-- Node3&#45;&gt;Node4 -->
<g id="edge3" class="edge">
<title>Node3&#45;&gt;Node4</title>
<path fill="none" stroke="midnightblue" d="M216.59,-37.51C234.1,-41.43 255.52,-45.56 275,-47.5 320.18,-52 371.63,-51.43 409.89,-49.91"/>
<polygon fill="midnightblue" stroke="midnightblue" points="410.48,-53.38 420.32,-49.46 410.17,-46.39 410.48,-53.38"/>
</g>
<!-- Node6 -->
<g id="node6" class="node">
<title>Node6</title>
<g id="a_node6"><a xlink:href="redis__ipc_8c.html#a5e81feac565f9476476c5f042b2a5c9d" target="_top" xlink:title=" ">
<polygon fill="white" stroke="black" points="409,-0.5 409,-18.5 527,-18.5 527,-0.5 409,-0.5"/>
<text text-anchor="middle" x="468" y="-7.3" font-family="Helvetica,sans-Serif" font-size="9.00">stderr_debug_is_enabled</text>
</a>
</g>
</g>
<!-- Node3&#45;&gt;Node6 -->
<g id="edge5" class="edge">
<title>Node3&#45;&gt;Node6</title>
<path fill="none" stroke="midnightblue" d="M216.59,-19.49C234.1,-15.57 255.52,-11.44 275,-9.5 315.93,-5.43 362.01,-5.28 398.77,-6.22"/>
<polygon fill="midnightblue" stroke="midnightblue" points="398.78,-9.72 408.88,-6.51 398.98,-2.73 398.78,-9.72"/>
</g>
<!-- Node7 -->
<g id="node7" class="node">
<title>Node7</title>
<g id="a_node7"><a xlink:href="redis__ipc_8c.html#a80ea8825dd17a3cff2530680c97d184a" target="_top" xlink:title=" ">
<polygon fill="white" stroke="black" points="275,-19.5 275,-37.5 373,-37.5 373,-19.5 275,-19.5"/>
<text text-anchor="middle" x="324" y="-26.3" font-family="Helvetica,sans-Serif" font-size="9.00">validate_redis_reply</text>
</a>
</g>
</g>
<!-- Node3&#45;&gt;Node7 -->
<g id="edge6" class="edge">
<title>Node3&#45;&gt;Node7</title>
<path fill="none" stroke="midnightblue" d="M239.28,-28.5C247.68,-28.5 256.31,-28.5 264.69,-28.5"/>
<polygon fill="midnightblue" stroke="midnightblue" points="264.77,-32 274.77,-28.5 264.77,-25 264.77,-32"/>
</g>
<!-- Node5 -->
<g id="node5" class="node">
<title>Node5</title>
<g id="a_node5"><a xlink:href="redis__ipc_8c.html#af0449193b7cded86e600f052d0aabd39" target="_top" xlink:title=" ">
<polygon fill="white" stroke="black" points="563,-37.5 563,-55.5 601,-55.5 601,-37.5 563,-37.5"/>
<text text-anchor="middle" x="582" y="-44.3" font-family="Helvetica,sans-Serif" font-size="9.00">gettid</text>
</a>
</g>
</g>
<!-- Node4&#45;&gt;Node5 -->
<g id="edge4" class="edge">
<title>Node4&#45;&gt;Node5</title>
<path fill="none" stroke="midnightblue" d="M515.53,-46.5C528.19,-46.5 541.51,-46.5 552.82,-46.5"/>
<polygon fill="midnightblue" stroke="midnightblue" points="552.94,-50 562.94,-46.5 552.94,-43 552.94,-50"/>
</g>
<!-- Node7&#45;&gt;Node4 -->
<g id="edge7" class="edge">
<title>Node7&#45;&gt;Node4</title>
<path fill="none" stroke="midnightblue" d="M373.07,-34.59C385.02,-36.11 397.93,-37.74 410.25,-39.31"/>
<polygon fill="midnightblue" stroke="midnightblue" points="410.06,-42.81 420.42,-40.6 410.94,-35.87 410.06,-42.81"/>
</g>
<!-- Node7&#45;&gt;Node6 -->
<g id="edge8" class="edge">
<title>Node7&#45;&gt;Node6</title>
<path fill="none" stroke="midnightblue" d="M373.07,-22.07C381.34,-20.96 390.08,-19.79 398.76,-18.63"/>
<polygon fill="midnightblue" stroke="midnightblue" points="399.44,-22.07 408.89,-17.28 398.52,-15.13 399.44,-22.07"/>
</g>
</g>
</svg>
