<?xml version="1.0" encoding="UTF-8" standalone="no"?>
<!DOCTYPE svg PUBLIC "-//W3C//DTD SVG 1.1//EN"
 "http://www.w3.org/Graphics/SVG/1.1/DTD/svg11.dtd">
<!-- Generated by graphviz version 2.47.1 (20210417.1919)
 -->
<!-- Title: redis_ipc_write_setting_field Pages: 1 -->
<svg width="790pt" height="170pt"
 viewBox="0.00 0.00 790.00 170.00" xmlns="http://www.w3.org/2000/svg" xmlns:xlink="http://www.w3.org/1999/xlink">
<g id="graph0" class="graph" transform="scale(1 1) rotate(0) translate(4 166)">
<title>redis_ipc_write_setting_field</title>
<polygon fill="white" stroke="transparent" points="-4,4 -4,-166 786,-166 786,4 -4,4"/>
<!-- Node1 -->
<g id="node1" class="node">
<title>Node1</title>
<g id="a_node1"><a xlink:title=" ">
<polygon fill="#bfbfbf" stroke="black" points="0,-71.5 0,-99.5 119,-99.5 119,-71.5 0,-71.5"/>
<text text-anchor="start" x="8" y="-88.3" font-family="Helvetica,sans-Serif" font-size="9.00">redis_ipc_write_setting</text>
<text text-anchor="middle" x="59.5" y="-78.3" font-family="Helvetica,sans-Serif" font-size="9.00">_field</text>
</a>
</g>
</g>
<!-- Node2 -->
<g id="node2" class="node">
<title>Node2</title>
<g id="a_node2"><a xlink:href="redis__ipc_8c.html#a67965ac8f6a5a98becff25267faf1a8c" target="_top" xlink:title=" ">
<polygon fill="white" stroke="black" points="155,-133.5 155,-161.5 271,-161.5 271,-133.5 155,-133.5"/>
<text text-anchor="start" x="163" y="-150.3" font-family="Helvetica,sans-Serif" font-size="9.00">component_can_write</text>
<text text-anchor="middle" x="213" y="-140.3" font-family="Helvetica,sans-Serif" font-size="9.00">_settings</text>
</a>
</g>
</g>
<!-- Node1&#45;&gt;Node2 -->
<g id="edge1" class="edge">
<title>Node1&#45;&gt;Node2</title>
<path fill="none" stroke="midnightblue" d="M94.88,-99.57C116.67,-108.49 145.05,-120.1 168.42,-129.66"/>
<polygon fill="midnightblue" stroke="midnightblue" points="167.18,-132.94 177.76,-133.49 169.83,-126.46 167.18,-132.94"/>
</g>
<!-- Node3 -->
<g id="node3" class="node">
<title>Node3</title>
<g id="a_node3"><a xlink:href="redis__ipc_8c.html#aa2a3ce97c0b6f3e83572446f3c92e541" target="_top" xlink:title=" ">
<polygon fill="white" stroke="black" points="584,-57.5 584,-75.5 691,-75.5 691,-57.5 584,-57.5"/>
<text text-anchor="middle" x="637.5" y="-64.3" font-family="Helvetica,sans-Serif" font-size="9.00">get_per_thread_info</text>
</a>
</g>
</g>
<!-- Node1&#45;&gt;Node3 -->
<g id="edge2" class="edge">
<title>Node1&#45;&gt;Node3</title>
<path fill="none" stroke="midnightblue" d="M119.04,-86.31C161.28,-86.7 219.67,-86.83 271,-85.5 377.25,-82.74 500.7,-75.47 573.51,-70.77"/>
<polygon fill="midnightblue" stroke="midnightblue" points="574.12,-74.24 583.88,-70.1 573.67,-67.25 574.12,-74.24"/>
</g>
<!-- Node5 -->
<g id="node5" class="node">
<title>Node5</title>
<g id="a_node5"><a xlink:href="redis__ipc_8c.html#a67c9dd84d2426ab58a759dbdfd223267" target="_top" xlink:title=" ">
<polygon fill="white" stroke="black" points="185,-57.5 185,-75.5 241,-75.5 241,-57.5 185,-57.5"/>
<text text-anchor="middle" x="213" y="-64.3" font-family="Helvetica,sans-Serif" font-size="9.00">ipc_path</text>
</a>
</g>
</g>
<!-- Node1&#45;&gt;Node5 -->
<g id="edge4" class="edge">
<title>Node1&#45;&gt;Node5</title>
<path fill="none" stroke="midnightblue" d="M119.07,-78.15C137.83,-75.8 158.07,-73.26 174.85,-71.16"/>
<polygon fill="midnightblue" stroke="midnightblue" points="175.33,-74.63 184.82,-69.91 174.46,-67.68 175.33,-74.63"/>
</g>
<!-- Node6 -->
<g id="node6" class="node">
<title>Node6</title>
<g id="a_node6"><a xlink:href="redis__ipc_8c.html#ad0c6708404743ef74dddacc617fb8b8e" target="_top" xlink:title=" ">
<polygon fill="white" stroke="black" points="155,-20.5 155,-38.5 271,-38.5 271,-20.5 155,-20.5"/>
<text text-anchor="middle" x="213" y="-27.3" font-family="Helvetica,sans-Serif" font-size="9.00">redis_write_hash_field</text>
</a>
</g>
</g>
<!-- Node1&#45;&gt;Node6 -->
<g id="edge5" class="edge">
<title>Node1&#45;&gt;Node6</title>
<path fill="none" stroke="midnightblue" d="M93.94,-71.33C111.91,-63.9 134.52,-54.84 155,-47.5 160.57,-45.5 166.49,-43.5 172.32,-41.6"/>
<polygon fill="midnightblue" stroke="midnightblue" points="173.52,-44.89 181.98,-38.51 171.39,-38.22 173.52,-44.89"/>
</g>
<!-- Node4 -->
<g id="node4" class="node">
<title>Node4</title>
<g id="a_node4"><a xlink:href="redis__ipc_8c.html#af0449193b7cded86e600f052d0aabd39" target="_top" xlink:title=" ">
<polygon fill="white" stroke="black" points="738,-57.5 738,-75.5 782,-75.5 782,-57.5 738,-57.5"/>
<text text-anchor="middle" x="760" y="-64.3" font-family="Helvetica,sans-Serif" font-size="9.00">gettid</text>
</a>
</g>
</g>
<!-- Node3&#45;&gt;Node4 -->
<g id="edge3" class="edge">
<title>Node3&#45;&gt;Node4</title>
<path fill="none" stroke="midnightblue" d="M691,-66.5C703.5,-66.5 716.45,-66.5 727.65,-66.5"/>
<polygon fill="midnightblue" stroke="midnightblue" points="727.78,-70 737.78,-66.5 727.78,-63 727.78,-70"/>
</g>
<!-- Node7 -->
<g id="node7" class="node">
<title>Node7</title>
<g id="a_node7"><a xlink:href="redis__ipc_8c.html#aefb4508c1883e7d4345b206076b19e5d" target="_top" xlink:title=" ">
<polygon fill="white" stroke="black" points="307,-19.5 307,-37.5 396,-37.5 396,-19.5 307,-19.5"/>
<text text-anchor="middle" x="351.5" y="-26.3" font-family="Helvetica,sans-Serif" font-size="9.00">redis_command</text>
</a>
</g>
</g>
<!-- Node6&#45;&gt;Node7 -->
<g id="edge6" class="edge">
<title>Node6&#45;&gt;Node7</title>
<path fill="none" stroke="midnightblue" d="M271.1,-29.08C279.62,-29.02 288.37,-28.96 296.82,-28.89"/>
<polygon fill="midnightblue" stroke="midnightblue" points="296.95,-32.39 306.92,-28.82 296.9,-25.39 296.95,-32.39"/>
</g>
<!-- Node7&#45;&gt;Node3 -->
<g id="edge7" class="edge">
<title>Node7&#45;&gt;Node3</title>
<path fill="none" stroke="midnightblue" d="M387.93,-37.52C401.63,-40.74 417.47,-44.15 432,-46.5 479.24,-54.13 533.12,-59.25 573.71,-62.4"/>
<polygon fill="midnightblue" stroke="midnightblue" points="573.49,-65.9 583.73,-63.16 574.02,-58.92 573.49,-65.9"/>
</g>
<!-- Node8 -->
<g id="node8" class="node">
<title>Node8</title>
<g id="a_node8"><a xlink:href="redis__ipc_8c.html#a5e81feac565f9476476c5f042b2a5c9d" target="_top" xlink:title=" ">
<polygon fill="white" stroke="black" points="573,-0.5 573,-18.5 702,-18.5 702,-0.5 573,-0.5"/>
<text text-anchor="middle" x="637.5" y="-7.3" font-family="Helvetica,sans-Serif" font-size="9.00">stderr_debug_is_enabled</text>
</a>
</g>
</g>
<!-- Node7&#45;&gt;Node8 -->
<g id="edge8" class="edge">
<title>Node7&#45;&gt;Node8</title>
<path fill="none" stroke="midnightblue" d="M382.78,-19.5C397.49,-15.58 415.51,-11.44 432,-9.5 475.05,-4.43 523.55,-4.19 562.51,-5.34"/>
<polygon fill="midnightblue" stroke="midnightblue" points="562.61,-8.84 572.72,-5.67 562.84,-1.84 562.61,-8.84"/>
</g>
<!-- Node9 -->
<g id="node9" class="node">
<title>Node9</title>
<g id="a_node9"><a xlink:href="redis__ipc_8c.html#ae88037651d88f63c62d32afd7e0fccf2" target="_top" xlink:title=" ">
<polygon fill="white" stroke="black" points="432,-19.5 432,-37.5 537,-37.5 537,-19.5 432,-19.5"/>
<text text-anchor="middle" x="484.5" y="-26.3" font-family="Helvetica,sans-Serif" font-size="9.00">validate_redis_reply</text>
</a>
</g>
</g>
<!-- Node7&#45;&gt;Node9 -->
<g id="edge9" class="edge">
<title>Node7&#45;&gt;Node9</title>
<path fill="none" stroke="midnightblue" d="M396.12,-28.5C404.36,-28.5 413.12,-28.5 421.79,-28.5"/>
<polygon fill="midnightblue" stroke="midnightblue" points="421.89,-32 431.89,-28.5 421.89,-25 421.89,-32"/>
</g>
<!-- Node9&#45;&gt;Node3 -->
<g id="edge10" class="edge">
<title>Node9&#45;&gt;Node3</title>
<path fill="none" stroke="midnightblue" d="M521.28,-37.51C542.08,-42.74 568.5,-49.39 590.79,-55"/>
<polygon fill="midnightblue" stroke="midnightblue" points="590.16,-58.45 600.71,-57.49 591.87,-51.66 590.16,-58.45"/>
</g>
<!-- Node9&#45;&gt;Node8 -->
<g id="edge11" class="edge">
<title>Node9&#45;&gt;Node8</title>
<path fill="none" stroke="midnightblue" d="M537.04,-22.01C545.33,-20.97 554.05,-19.87 562.74,-18.78"/>
<polygon fill="midnightblue" stroke="midnightblue" points="563.42,-22.22 572.9,-17.5 562.54,-15.28 563.42,-22.22"/>
</g>
</g>
</svg>
