<?xml version="1.0" encoding="UTF-8" standalone="no"?>
<!DOCTYPE svg PUBLIC "-//W3C//DTD SVG 1.1//EN"
 "http://www.w3.org/Graphics/SVG/1.1/DTD/svg11.dtd">
<!-- Generated by graphviz version 2.47.1 (20210417.1919)
 -->
<!-- Title: redis_read_hash_field Pages: 1 -->
<svg width="632pt" height="103pt"
 viewBox="0.00 0.00 632.00 103.00" xmlns="http://www.w3.org/2000/svg" xmlns:xlink="http://www.w3.org/1999/xlink">
<g id="graph0" class="graph" transform="scale(1 1) rotate(0) translate(4 99)">
<title>redis_read_hash_field</title>
<polygon fill="white" stroke="transparent" points="-4,4 -4,-99 628,-99 628,4 -4,4"/>
<!-- Node1 -->
<g id="node1" class="node">
<title>Node1</title>
<g id="a_node1"><a xlink:title=" ">
<polygon fill="#bfbfbf" stroke="black" points="0,-0.5 0,-18.5 113,-18.5 113,-0.5 0,-0.5"/>
<text text-anchor="middle" x="56.5" y="-7.3" font-family="Helvetica,sans-Serif" font-size="9.00">redis_read_hash_field</text>
</a>
</g>
</g>
<!-- Node2 -->
<g id="node2" class="node">
<title>Node2</title>
<g id="a_node2"><a xlink:href="redis__ipc_8c.html#aefb4508c1883e7d4345b206076b19e5d" target="_top" xlink:title=" ">
<polygon fill="white" stroke="black" points="149,-38.5 149,-56.5 238,-56.5 238,-38.5 149,-38.5"/>
<text text-anchor="middle" x="193.5" y="-45.3" font-family="Helvetica,sans-Serif" font-size="9.00">redis_command</text>
</a>
</g>
</g>
<!-- Node1&#45;&gt;Node2 -->
<g id="edge1" class="edge">
<title>Node1&#45;&gt;Node2</title>
<path fill="none" stroke="midnightblue" d="M89.49,-18.51C107.77,-23.65 130.9,-30.16 150.61,-35.71"/>
<polygon fill="midnightblue" stroke="midnightblue" points="149.69,-39.09 160.27,-38.43 151.59,-32.35 149.69,-39.09"/>
</g>
<!-- Node5 -->
<g id="node5" class="node">
<title>Node5</title>
<g id="a_node5"><a xlink:href="redis__ipc_8c.html#a5e81feac565f9476476c5f042b2a5c9d" target="_top" xlink:title=" ">
<polygon fill="white" stroke="black" points="415,-19.5 415,-37.5 544,-37.5 544,-19.5 415,-19.5"/>
<text text-anchor="middle" x="479.5" y="-26.3" font-family="Helvetica,sans-Serif" font-size="9.00">stderr_debug_is_enabled</text>
</a>
</g>
</g>
<!-- Node1&#45;&gt;Node5 -->
<g id="edge8" class="edge">
<title>Node1&#45;&gt;Node5</title>
<path fill="none" stroke="midnightblue" d="M113.41,-12.02C188.34,-15.4 321.53,-21.42 404.65,-25.17"/>
<polygon fill="midnightblue" stroke="midnightblue" points="404.64,-28.67 414.79,-25.62 404.95,-21.68 404.64,-28.67"/>
</g>
<!-- Node3 -->
<g id="node3" class="node">
<title>Node3</title>
<g id="a_node3"><a xlink:href="redis__ipc_8c.html#aa2a3ce97c0b6f3e83572446f3c92e541" target="_top" xlink:title=" ">
<polygon fill="white" stroke="black" points="426,-76.5 426,-94.5 533,-94.5 533,-76.5 426,-76.5"/>
<text text-anchor="middle" x="479.5" y="-83.3" font-family="Helvetica,sans-Serif" font-size="9.00">get_per_thread_info</text>
</a>
</g>
</g>
<!-- Node2&#45;&gt;Node3 -->
<g id="edge2" class="edge">
<title>Node2&#45;&gt;Node3</title>
<path fill="none" stroke="midnightblue" d="M208.44,-56.55C223.79,-65.92 249.53,-79.95 274,-85.5 320.6,-96.07 374.73,-95.52 415.59,-92.63"/>
<polygon fill="midnightblue" stroke="midnightblue" points="415.98,-96.11 425.68,-91.85 415.44,-89.13 415.98,-96.11"/>
</g>
<!-- Node2&#45;&gt;Node5 -->
<g id="edge4" class="edge">
<title>Node2&#45;&gt;Node5</title>
<path fill="none" stroke="midnightblue" d="M238.25,-44.57C282.62,-41.6 352.07,-36.96 404.92,-33.42"/>
<polygon fill="midnightblue" stroke="midnightblue" points="405.17,-36.91 414.92,-32.75 404.71,-29.93 405.17,-36.91"/>
</g>
<!-- Node6 -->
<g id="node6" class="node">
<title>Node6</title>
<g id="a_node6"><a xlink:href="redis__ipc_8c.html#ae88037651d88f63c62d32afd7e0fccf2" target="_top" xlink:title=" ">
<polygon fill="white" stroke="black" points="274,-57.5 274,-75.5 379,-75.5 379,-57.5 274,-57.5"/>
<text text-anchor="middle" x="326.5" y="-64.3" font-family="Helvetica,sans-Serif" font-size="9.00">validate_redis_reply</text>
</a>
</g>
</g>
<!-- Node2&#45;&gt;Node6 -->
<g id="edge5" class="edge">
<title>Node2&#45;&gt;Node6</title>
<path fill="none" stroke="midnightblue" d="M238.12,-53.83C246.36,-55.02 255.12,-56.29 263.79,-57.55"/>
<polygon fill="midnightblue" stroke="midnightblue" points="263.49,-61.04 273.89,-59.01 264.5,-54.12 263.49,-61.04"/>
</g>
<!-- Node4 -->
<g id="node4" class="node">
<title>Node4</title>
<g id="a_node4"><a xlink:href="redis__ipc_8c.html#af0449193b7cded86e600f052d0aabd39" target="_top" xlink:title=" ">
<polygon fill="white" stroke="black" points="580,-76.5 580,-94.5 624,-94.5 624,-76.5 580,-76.5"/>
<text text-anchor="middle" x="602" y="-83.3" font-family="Helvetica,sans-Serif" font-size="9.00">gettid</text>
</a>
</g>
</g>
<!-- Node3&#45;&gt;Node4 -->
<g id="edge3" class="edge">
<title>Node3&#45;&gt;Node4</title>
<path fill="none" stroke="midnightblue" d="M533,-85.5C545.5,-85.5 558.45,-85.5 569.65,-85.5"/>
<polygon fill="midnightblue" stroke="midnightblue" points="569.78,-89 579.78,-85.5 569.78,-82 569.78,-89"/>
</g>
<!-- Node6&#45;&gt;Node3 -->
<g id="edge6" class="edge">
<title>Node6&#45;&gt;Node3</title>
<path fill="none" stroke="midnightblue" d="M379.04,-72.99C390.86,-74.47 403.54,-76.07 415.77,-77.61"/>
<polygon fill="midnightblue" stroke="midnightblue" points="415.55,-81.11 425.91,-78.88 416.42,-74.16 415.55,-81.11"/>
</g>
<!-- Node6&#45;&gt;Node5 -->
<g id="edge7" class="edge">
<title>Node6&#45;&gt;Node5</title>
<path fill="none" stroke="midnightblue" d="M363.28,-57.49C384.08,-52.26 410.5,-45.61 432.79,-40"/>
<polygon fill="midnightblue" stroke="midnightblue" points="433.87,-43.34 442.71,-37.51 432.16,-36.55 433.87,-43.34"/>
</g>
</g>
</svg>
