<?xml version="1.0" encoding="UTF-8" standalone="no"?>
<!DOCTYPE svg PUBLIC "-//W3C//DTD SVG 1.1//EN"
 "http://www.w3.org/Graphics/SVG/1.1/DTD/svg11.dtd">
<!-- Generated by graphviz version 2.43.0 (0)
 -->
<!-- Title: component_can_write_settings Pages: 1 -->
<svg width="279pt" height="74pt"
 viewBox="0.00 0.00 279.00 74.00" xmlns="http://www.w3.org/2000/svg" xmlns:xlink="http://www.w3.org/1999/xlink">
<g id="graph0" class="graph" transform="scale(1 1) rotate(0) translate(4 70)">
<title>component_can_write_settings</title>
<polygon fill="white" stroke="transparent" points="-4,4 -4,-70 275,-70 275,4 -4,4"/>
<!-- Node1 -->
<g id="node1" class="node">
<title>Node1</title>
<g id="a_node1"><a xlink:title=" ">
<polygon fill="#bfbfbf" stroke="black" points="155,-21.5 155,-49.5 271,-49.5 271,-21.5 155,-21.5"/>
<text text-anchor="start" x="163" y="-38.3" font-family="Helvetica,sans-Serif" font-size="9.00">component_can_write</text>
<text text-anchor="middle" x="213" y="-28.3" font-family="Helvetica,sans-Serif" font-size="9.00">_settings</text>
</a>
</g>
</g>
<!-- Node2 -->
<g id="node2" class="node">
<title>Node2</title>
<g id="a_node2"><a xlink:href="redis__ipc_8h.html#a11db23f8f055e2d63fd8308c3d382da4" target="_top" xlink:title=" ">
<polygon fill="white" stroke="black" points="0,-47.5 0,-65.5 119,-65.5 119,-47.5 0,-47.5"/>
<text text-anchor="middle" x="59.5" y="-54.3" font-family="Helvetica,sans-Serif" font-size="9.00">redis_ipc_write_setting</text>
</a>
</g>
</g>
<!-- Node1&#45;&gt;Node2 -->
<g id="edge1" class="edge">
<title>Node1&#45;&gt;Node2</title>
<path fill="none" stroke="midnightblue" d="M144.78,-44.82C136.22,-46 127.52,-47.21 119.12,-48.37"/>
<polygon fill="midnightblue" stroke="midnightblue" points="145.3,-48.28 154.72,-43.44 144.34,-41.35 145.3,-48.28"/>
</g>
<!-- Node3 -->
<g id="node3" class="node">
<title>Node3</title>
<g id="a_node3"><a xlink:href="redis__ipc_8h.html#aef76ea4158d5075f2c2c0041ec62d1d5" target="_top" xlink:title=" ">
<polygon fill="white" stroke="black" points="0,-0.5 0,-28.5 119,-28.5 119,-0.5 0,-0.5"/>
<text text-anchor="start" x="8" y="-17.3" font-family="Helvetica,sans-Serif" font-size="9.00">redis_ipc_write_setting</text>
<text text-anchor="middle" x="59.5" y="-7.3" font-family="Helvetica,sans-Serif" font-size="9.00">_field</text>
</a>
</g>
</g>
<!-- Node1&#45;&gt;Node3 -->
<g id="edge2" class="edge">
<title>Node1&#45;&gt;Node3</title>
<path fill="none" stroke="midnightblue" d="M144.78,-26.18C136.22,-25 127.52,-23.79 119.12,-22.63"/>
<polygon fill="midnightblue" stroke="midnightblue" points="144.34,-29.65 154.72,-27.56 145.3,-22.72 144.34,-29.65"/>
</g>
</g>
</svg>
