<?xml version="1.0" encoding="UTF-8" standalone="no"?>
<!DOCTYPE svg PUBLIC "-//W3C//DTD SVG 1.1//EN"
 "http://www.w3.org/Graphics/SVG/1.1/DTD/svg11.dtd">
<!-- Generated by graphviz version 2.50.0 (20220203.2022)
 -->
<!-- Title: redis_ipc_send_command_blocking Pages: 1 -->
<svg width="906pt" height="318pt"
 viewBox="0.00 0.00 906.00 317.50" xmlns="http://www.w3.org/2000/svg" xmlns:xlink="http://www.w3.org/1999/xlink">
<g id="graph0" class="graph" transform="scale(1 1) rotate(0) translate(4 313.5)">
<title>redis_ipc_send_command_blocking</title>
<polygon fill="white" stroke="transparent" points="-4,4 -4,-313.5 902,-313.5 902,4 -4,4"/>
<!-- Node1 -->
<g id="node1" class="node">
<title>Node1</title>
<g id="a_node1"><a xlink:title=" ">
<polygon fill="#bfbfbf" stroke="black" points="0,-98 0,-126 122,-126 122,-98 0,-98"/>
<text text-anchor="start" x="8" y="-114.8" font-family="Helvetica,sans-Serif" font-size="9.00">redis_ipc_send_command</text>
<text text-anchor="middle" x="61" y="-104.8" font-family="Helvetica,sans-Serif" font-size="9.00">_blocking</text>
</a>
</g>
</g>
<!-- Node2 -->
<g id="node2" class="node">
<title>Node2</title>
<g id="a_node2"><a xlink:href="redis__ipc_8c.html#a7b930ec420c7b4bf2df1469aca77f93d" target="_top" xlink:title=" ">
<polygon fill="white" stroke="black" points="717.5,-177 717.5,-195 812.5,-195 812.5,-177 717.5,-177"/>
<text text-anchor="middle" x="765" y="-183.8" font-family="Helvetica,sans-Serif" font-size="9.00">get_per_thread_info</text>
</a>
</g>
</g>
<!-- Node1&#45;&gt;Node2 -->
<g id="edge1" class="edge">
<title>Node1&#45;&gt;Node2</title>
<path fill="none" stroke="midnightblue" d="M82.56,-97.82C128.3,-67.68 242.9,0 349.5,0 349.5,0 349.5,0 477,0 600.55,0 712.87,-122.89 750.59,-168.89"/>
<polygon fill="midnightblue" stroke="midnightblue" points="747.94,-171.18 756.93,-176.78 753.39,-166.79 747.94,-171.18"/>
</g>
<!-- Node4 -->
<g id="node4" class="node">
<title>Node4</title>
<g id="a_node4"><a xlink:href="redis__ipc_8c.html#a67c9dd84d2426ab58a759dbdfd223267" target="_top" xlink:title=" ">
<polygon fill="white" stroke="black" points="325,-29 325,-47 376,-47 376,-29 325,-29"/>
<text text-anchor="middle" x="350.5" y="-35.8" font-family="Helvetica,sans-Serif" font-size="9.00">ipc_path</text>
</a>
</g>
</g>
<!-- Node1&#45;&gt;Node4 -->
<g id="edge3" class="edge">
<title>Node1&#45;&gt;Node4</title>
<path fill="none" stroke="midnightblue" d="M116.41,-97.99C174.78,-82.97 265.68,-59.57 314.95,-46.89"/>
<polygon fill="midnightblue" stroke="midnightblue" points="315.99,-50.24 324.8,-44.36 314.24,-43.46 315.99,-50.24"/>
</g>
<!-- Node5 -->
<g id="node5" class="node">
<title>Node5</title>
<g id="a_node5"><a xlink:href="redis__ipc_8c.html#a66cdf2ae760d1acb487dd82c1392c12f" target="_top" xlink:title=" ">
<polygon fill="white" stroke="black" points="158,-103 158,-121 265,-121 265,-103 158,-103"/>
<text text-anchor="middle" x="211.5" y="-109.8" font-family="Helvetica,sans-Serif" font-size="9.00">redis_ipc_send_debug</text>
</a>
</g>
</g>
<!-- Node1&#45;&gt;Node5 -->
<g id="edge4" class="edge">
<title>Node1&#45;&gt;Node5</title>
<path fill="none" stroke="midnightblue" d="M122.4,-112C130.74,-112 139.31,-112 147.69,-112"/>
<polygon fill="midnightblue" stroke="midnightblue" points="147.78,-115.5 157.78,-112 147.78,-108.5 147.78,-115.5"/>
</g>
<!-- Node13 -->
<g id="node13" class="node">
<title>Node13</title>
<g id="a_node13"><a xlink:href="redis__ipc_8c.html#a51be0735eeaf88f636c16128647f11f7" target="_top" xlink:title=" ">
<polygon fill="white" stroke="black" points="322.5,-253 322.5,-271 378.5,-271 378.5,-253 322.5,-253"/>
<text text-anchor="middle" x="350.5" y="-259.8" font-family="Helvetica,sans-Serif" font-size="9.00">redis_pop</text>
</a>
</g>
</g>
<!-- Node1&#45;&gt;Node13 -->
<g id="edge19" class="edge">
<title>Node1&#45;&gt;Node13</title>
<path fill="none" stroke="midnightblue" d="M77.74,-126.03C96.06,-141.84 127.67,-167.6 158,-185 217.64,-219.2 236.98,-218.92 301,-244 305.47,-245.75 310.19,-247.55 314.85,-249.31"/>
<polygon fill="midnightblue" stroke="midnightblue" points="313.67,-252.61 324.26,-252.83 316.12,-246.05 313.67,-252.61"/>
</g>
<!-- Node14 -->
<g id="node14" class="node">
<title>Node14</title>
<g id="a_node14"><a xlink:href="redis__ipc_8c.html#ae826a119ee7ca11d9636c6f34b9a29e9" target="_top" xlink:title=" ">
<polygon fill="white" stroke="black" points="320.5,-216 320.5,-234 380.5,-234 380.5,-216 320.5,-216"/>
<text text-anchor="middle" x="350.5" y="-222.8" font-family="Helvetica,sans-Serif" font-size="9.00">redis_push</text>
</a>
</g>
</g>
<!-- Node1&#45;&gt;Node14 -->
<g id="edge22" class="edge">
<title>Node1&#45;&gt;Node14</title>
<path fill="none" stroke="midnightblue" d="M97.83,-126.08C154.23,-148.25 262.86,-190.95 317.07,-212.25"/>
<polygon fill="midnightblue" stroke="midnightblue" points="315.95,-215.57 326.54,-215.97 318.51,-209.06 315.95,-215.57"/>
</g>
<!-- Node3 -->
<g id="node3" class="node">
<title>Node3</title>
<g id="a_node3"><a xlink:href="redis__ipc_8c.html#af0449193b7cded86e600f052d0aabd39" target="_top" xlink:title=" ">
<polygon fill="white" stroke="black" points="860,-158 860,-176 898,-176 898,-158 860,-158"/>
<text text-anchor="middle" x="879" y="-164.8" font-family="Helvetica,sans-Serif" font-size="9.00">gettid</text>
</a>
</g>
</g>
<!-- Node2&#45;&gt;Node3 -->
<g id="edge2" class="edge">
<title>Node2&#45;&gt;Node3</title>
<path fill="none" stroke="midnightblue" d="M812.53,-178.11C825.19,-175.96 838.51,-173.7 849.82,-171.78"/>
<polygon fill="midnightblue" stroke="midnightblue" points="850.67,-175.19 859.94,-170.06 849.5,-168.29 850.67,-175.19"/>
</g>
<!-- Node5&#45;&gt;Node2 -->
<g id="edge7" class="edge">
<title>Node5&#45;&gt;Node2</title>
<path fill="none" stroke="midnightblue" d="M226.19,-121.22C248.94,-136.45 292.84,-165.46 301,-168 441.76,-211.77 618.23,-202.1 707.17,-193.07"/>
<polygon fill="midnightblue" stroke="midnightblue" points="707.74,-196.53 717.32,-192.01 707.01,-189.57 707.74,-196.53"/>
</g>
<!-- Node5&#45;&gt;Node4 -->
<g id="edge8" class="edge">
<title>Node5&#45;&gt;Node4</title>
<path fill="none" stroke="midnightblue" d="M224.91,-102.97C241.6,-91.1 272.49,-70.12 301,-56 305.61,-53.72 310.59,-51.55 315.53,-49.57"/>
<polygon fill="midnightblue" stroke="midnightblue" points="316.81,-52.83 324.9,-46 314.31,-46.29 316.81,-52.83"/>
</g>
<!-- Node6 -->
<g id="node6" class="node">
<title>Node6</title>
<g id="a_node6"><a xlink:href="redis__ipc_8c.html#a134fbfb58bceaeaad9c15dec14104a65" target="_top" xlink:title=" ">
<polygon fill="white" stroke="black" points="303.5,-103 303.5,-121 397.5,-121 397.5,-103 303.5,-103"/>
<text text-anchor="middle" x="350.5" y="-109.8" font-family="Helvetica,sans-Serif" font-size="9.00">format_debug_msg</text>
</a>
</g>
</g>
<!-- Node5&#45;&gt;Node6 -->
<g id="edge5" class="edge">
<title>Node5&#45;&gt;Node6</title>
<path fill="none" stroke="midnightblue" d="M265.08,-112C274.18,-112 283.67,-112 292.88,-112"/>
<polygon fill="midnightblue" stroke="midnightblue" points="293.11,-115.5 303.11,-112 293.11,-108.5 293.11,-115.5"/>
</g>
<!-- Node7 -->
<g id="node7" class="node">
<title>Node7</title>
<g id="a_node7"><a xlink:href="redis__ipc_8c.html#a69fe6204f8b392036b5faa4b9392aa8a" target="_top" xlink:title=" ">
<polygon fill="white" stroke="black" points="301,-140 301,-158 400,-158 400,-140 301,-140"/>
<text text-anchor="middle" x="350.5" y="-146.8" font-family="Helvetica,sans-Serif" font-size="9.00">get_debug_verbosity</text>
</a>
</g>
</g>
<!-- Node5&#45;&gt;Node7 -->
<g id="edge6" class="edge">
<title>Node5&#45;&gt;Node7</title>
<path fill="none" stroke="midnightblue" d="M246.01,-121.05C264.09,-125.93 286.62,-132.02 306.03,-137.26"/>
<polygon fill="midnightblue" stroke="midnightblue" points="305.29,-140.69 315.86,-139.91 307.12,-133.93 305.29,-140.69"/>
</g>
<!-- Node8 -->
<g id="node8" class="node">
<title>Node8</title>
<g id="a_node8"><a xlink:href="redis__ipc_8c.html#ab3dc5609833c201c4e9ebaa5e2e70a2f" target="_top" xlink:title=" ">
<polygon fill="white" stroke="black" points="315.5,-66 315.5,-84 385.5,-84 385.5,-66 315.5,-66"/>
<text text-anchor="middle" x="350.5" y="-72.8" font-family="Helvetica,sans-Serif" font-size="9.00">redis_publish</text>
</a>
</g>
</g>
<!-- Node5&#45;&gt;Node8 -->
<g id="edge9" class="edge">
<title>Node5&#45;&gt;Node8</title>
<path fill="none" stroke="midnightblue" d="M246.01,-102.95C264.09,-98.07 286.62,-91.98 306.03,-86.74"/>
<polygon fill="midnightblue" stroke="midnightblue" points="307.12,-90.07 315.86,-84.09 305.29,-83.31 307.12,-90.07"/>
</g>
<!-- Node9 -->
<g id="node9" class="node">
<title>Node9</title>
<g id="a_node9"><a xlink:href="redis__ipc_8c.html#a1ca0a131f083c0547523e40cae96936e" target="_top" xlink:title=" ">
<polygon fill="white" stroke="black" points="552,-139 552,-157 670,-157 670,-139 552,-139"/>
<text text-anchor="middle" x="611" y="-145.8" font-family="Helvetica,sans-Serif" font-size="9.00">json_add_common_fields</text>
</a>
</g>
</g>
<!-- Node8&#45;&gt;Node9 -->
<g id="edge10" class="edge">
<title>Node8&#45;&gt;Node9</title>
<path fill="none" stroke="midnightblue" d="M383.46,-84.02C430.06,-97.19 516.72,-121.66 568.29,-136.22"/>
<polygon fill="midnightblue" stroke="midnightblue" points="567.54,-139.65 578.12,-139 569.44,-132.91 567.54,-139.65"/>
</g>
<!-- Node10 -->
<g id="node10" class="node">
<title>Node10</title>
<g id="a_node10"><a xlink:href="redis__ipc_8c.html#afab35d4c40b4b1866fc0239bb885a39b" target="_top" xlink:title=" ">
<polygon fill="white" stroke="black" points="436,-253 436,-271 516,-271 516,-253 436,-253"/>
<text text-anchor="middle" x="476" y="-259.8" font-family="Helvetica,sans-Serif" font-size="9.00">redis_command</text>
</a>
</g>
</g>
<!-- Node8&#45;&gt;Node10 -->
<g id="edge13" class="edge">
<title>Node8&#45;&gt;Node10</title>
<path fill="none" stroke="midnightblue" d="M384.86,-84.05C390.37,-86.62 395.68,-89.88 400,-94 444.01,-136.01 464.05,-208.5 471.42,-242.87"/>
<polygon fill="midnightblue" stroke="midnightblue" points="468.05,-243.85 473.46,-252.96 474.91,-242.47 468.05,-243.85"/>
</g>
<!-- Node9&#45;&gt;Node2 -->
<g id="edge11" class="edge">
<title>Node9&#45;&gt;Node2</title>
<path fill="none" stroke="midnightblue" d="M648.02,-157.01C668.96,-162.24 695.55,-168.89 717.99,-174.5"/>
<polygon fill="midnightblue" stroke="midnightblue" points="717.42,-177.96 727.97,-176.99 719.12,-171.17 717.42,-177.96"/>
</g>
<!-- Node9&#45;&gt;Node3 -->
<g id="edge12" class="edge">
<title>Node9&#45;&gt;Node3</title>
<path fill="none" stroke="midnightblue" d="M670.05,-152.15C725.59,-156.11 807.04,-161.93 849.64,-164.97"/>
<polygon fill="midnightblue" stroke="midnightblue" points="849.62,-168.48 859.84,-165.7 850.12,-161.5 849.62,-168.48"/>
</g>
<!-- Node10&#45;&gt;Node2 -->
<g id="edge14" class="edge">
<title>Node10&#45;&gt;Node2</title>
<path fill="none" stroke="midnightblue" d="M511.05,-252.98C563.16,-239.18 662.67,-212.83 720.12,-197.62"/>
<polygon fill="midnightblue" stroke="midnightblue" points="721.22,-200.95 729.99,-195 719.43,-194.18 721.22,-200.95"/>
</g>
<!-- Node11 -->
<g id="node11" class="node">
<title>Node11</title>
<g id="a_node11"><a xlink:href="redis__ipc_8c.html#a5e81feac565f9476476c5f042b2a5c9d" target="_top" xlink:title=" ">
<polygon fill="white" stroke="black" points="706,-291 706,-309 824,-309 824,-291 706,-291"/>
<text text-anchor="middle" x="765" y="-297.8" font-family="Helvetica,sans-Serif" font-size="9.00">stderr_debug_is_enabled</text>
</a>
</g>
</g>
<!-- Node10&#45;&gt;Node11 -->
<g id="edge15" class="edge">
<title>Node10&#45;&gt;Node11</title>
<path fill="none" stroke="midnightblue" d="M508.15,-271.07C521.54,-274.66 537.43,-278.52 552,-281 599.62,-289.11 653.88,-293.89 695.59,-296.63"/>
<polygon fill="midnightblue" stroke="midnightblue" points="695.44,-300.13 705.64,-297.27 695.88,-293.14 695.44,-300.13"/>
</g>
<!-- Node12 -->
<g id="node12" class="node">
<title>Node12</title>
<g id="a_node12"><a xlink:href="redis__ipc_8c.html#a80ea8825dd17a3cff2530680c97d184a" target="_top" xlink:title=" ">
<polygon fill="white" stroke="black" points="562,-253 562,-271 660,-271 660,-253 562,-253"/>
<text text-anchor="middle" x="611" y="-259.8" font-family="Helvetica,sans-Serif" font-size="9.00">validate_redis_reply</text>
</a>
</g>
</g>
<!-- Node10&#45;&gt;Node12 -->
<g id="edge16" class="edge">
<title>Node10&#45;&gt;Node12</title>
<path fill="none" stroke="midnightblue" d="M516.19,-262C527.21,-262 539.44,-262 551.34,-262"/>
<polygon fill="midnightblue" stroke="midnightblue" points="551.67,-265.5 561.67,-262 551.67,-258.5 551.67,-265.5"/>
</g>
<!-- Node12&#45;&gt;Node2 -->
<g id="edge17" class="edge">
<title>Node12&#45;&gt;Node2</title>
<path fill="none" stroke="midnightblue" d="M635.69,-252.9C646.3,-248.65 658.91,-243.34 670,-238 694.44,-226.23 721.44,-211.05 740.22,-200.14"/>
<polygon fill="midnightblue" stroke="midnightblue" points="742.12,-203.08 748.97,-195 738.58,-197.04 742.12,-203.08"/>
</g>
<!-- Node12&#45;&gt;Node11 -->
<g id="edge18" class="edge">
<title>Node12&#45;&gt;Node11</title>
<path fill="none" stroke="midnightblue" d="M648.02,-271.01C668.96,-276.24 695.55,-282.89 717.99,-288.5"/>
<polygon fill="midnightblue" stroke="midnightblue" points="717.42,-291.96 727.97,-290.99 719.12,-285.17 717.42,-291.96"/>
</g>
<!-- Node13&#45;&gt;Node10 -->
<g id="edge20" class="edge">
<title>Node13&#45;&gt;Node10</title>
<path fill="none" stroke="midnightblue" d="M378.6,-262C392.35,-262 409.48,-262 425.47,-262"/>
<polygon fill="midnightblue" stroke="midnightblue" points="425.77,-265.5 435.77,-262 425.77,-258.5 425.77,-265.5"/>
</g>
<!-- Node13&#45;&gt;Node11 -->
<g id="edge21" class="edge">
<title>Node13&#45;&gt;Node11</title>
<path fill="none" stroke="midnightblue" d="M378.83,-268.51C395.34,-272.35 416.83,-277.19 436,-281 487.32,-291.19 499.87,-296.54 552,-301 604.25,-305.47 617.56,-301.28 670,-301 678.33,-300.96 687.07,-300.89 695.73,-300.81"/>
<polygon fill="midnightblue" stroke="midnightblue" points="695.87,-304.31 705.83,-300.72 695.8,-297.31 695.87,-304.31"/>
</g>
<!-- Node14&#45;&gt;Node9 -->
<g id="edge23" class="edge">
<title>Node14&#45;&gt;Node9</title>
<path fill="none" stroke="midnightblue" d="M380.65,-216.32C427.04,-202.5 517.77,-175.47 570.14,-159.87"/>
<polygon fill="midnightblue" stroke="midnightblue" points="571.17,-163.22 579.76,-157.01 569.18,-156.51 571.17,-163.22"/>
</g>
<!-- Node14&#45;&gt;Node10 -->
<g id="edge24" class="edge">
<title>Node14&#45;&gt;Node10</title>
<path fill="none" stroke="midnightblue" d="M380.77,-233.77C396.87,-238.59 417.08,-244.65 434.66,-249.91"/>
<polygon fill="midnightblue" stroke="midnightblue" points="434.07,-253.39 444.65,-252.91 436.08,-246.69 434.07,-253.39"/>
</g>
</g>
</svg>
