<?xml version="1.0" encoding="UTF-8" standalone="no"?>
<!DOCTYPE svg PUBLIC "-//W3C//DTD SVG 1.1//EN"
 "http://www.w3.org/Graphics/SVG/1.1/DTD/svg11.dtd">
<!-- Generated by graphviz version 2.50.0 (20220203.2022)
 -->
<!-- Title: redis_command Pages: 1 -->
<svg width="450pt" height="64pt"
 viewBox="0.00 0.00 450.00 64.00" xmlns="http://www.w3.org/2000/svg" xmlns:xlink="http://www.w3.org/1999/xlink">
<g id="graph0" class="graph" transform="scale(1 1) rotate(0) translate(4 60)">
<title>redis_command</title>
<polygon fill="white" stroke="transparent" points="-4,4 -4,-60 446,-60 446,4 -4,4"/>
<!-- Node1 -->
<g id="node1" class="node">
<title>Node1</title>
<g id="a_node1"><a xlink:title=" ">
<polygon fill="#bfbfbf" stroke="black" points="0,-19.5 0,-37.5 80,-37.5 80,-19.5 0,-19.5"/>
<text text-anchor="middle" x="40" y="-26.3" font-family="Helvetica,sans-Serif" font-size="9.00">redis_command</text>
</a>
</g>
</g>
<!-- Node2 -->
<g id="node2" class="node">
<title>Node2</title>
<g id="a_node2"><a xlink:href="redis__ipc_8c.html#a7b930ec420c7b4bf2df1469aca77f93d" target="_top" xlink:title=" ">
<polygon fill="white" stroke="black" points="261.5,-37.5 261.5,-55.5 356.5,-55.5 356.5,-37.5 261.5,-37.5"/>
<text text-anchor="middle" x="309" y="-44.3" font-family="Helvetica,sans-Serif" font-size="9.00">get_per_thread_info</text>
</a>
</g>
</g>
<!-- Node1&#45;&gt;Node2 -->
<g id="edge1" class="edge">
<title>Node1&#45;&gt;Node2</title>
<path fill="none" stroke="midnightblue" d="M69.53,-37.5C83.4,-41.42 100.41,-45.56 116,-47.5 161.05,-53.12 212.51,-52.47 250.81,-50.64"/>
<polygon fill="midnightblue" stroke="midnightblue" points="251.44,-54.11 261.24,-50.1 251.07,-47.12 251.44,-54.11"/>
</g>
<!-- Node4 -->
<g id="node4" class="node">
<title>Node4</title>
<g id="a_node4"><a xlink:href="redis__ipc_8c.html#a5e81feac565f9476476c5f042b2a5c9d" target="_top" xlink:title=" ">
<polygon fill="white" stroke="black" points="250,-0.5 250,-18.5 368,-18.5 368,-0.5 250,-0.5"/>
<text text-anchor="middle" x="309" y="-7.3" font-family="Helvetica,sans-Serif" font-size="9.00">stderr_debug_is_enabled</text>
</a>
</g>
</g>
<!-- Node1&#45;&gt;Node4 -->
<g id="edge3" class="edge">
<title>Node1&#45;&gt;Node4</title>
<path fill="none" stroke="midnightblue" d="M69.53,-19.5C83.4,-15.58 100.41,-11.44 116,-9.5 156.82,-4.41 202.89,-4.23 239.68,-5.4"/>
<polygon fill="midnightblue" stroke="midnightblue" points="239.68,-8.91 249.79,-5.77 239.93,-1.91 239.68,-8.91"/>
</g>
<!-- Node5 -->
<g id="node5" class="node">
<title>Node5</title>
<g id="a_node5"><a xlink:href="redis__ipc_8c.html#a80ea8825dd17a3cff2530680c97d184a" target="_top" xlink:title=" ">
<polygon fill="white" stroke="black" points="116,-19.5 116,-37.5 214,-37.5 214,-19.5 116,-19.5"/>
<text text-anchor="middle" x="165" y="-26.3" font-family="Helvetica,sans-Serif" font-size="9.00">validate_redis_reply</text>
</a>
</g>
</g>
<!-- Node1&#45;&gt;Node5 -->
<g id="edge4" class="edge">
<title>Node1&#45;&gt;Node5</title>
<path fill="none" stroke="midnightblue" d="M80.26,-28.5C88.34,-28.5 97.02,-28.5 105.62,-28.5"/>
<polygon fill="midnightblue" stroke="midnightblue" points="105.63,-32 115.63,-28.5 105.63,-25 105.63,-32"/>
</g>
<!-- Node3 -->
<g id="node3" class="node">
<title>Node3</title>
<g id="a_node3"><a xlink:href="redis__ipc_8c.html#af0449193b7cded86e600f052d0aabd39" target="_top" xlink:title=" ">
<polygon fill="white" stroke="black" points="404,-37.5 404,-55.5 442,-55.5 442,-37.5 404,-37.5"/>
<text text-anchor="middle" x="423" y="-44.3" font-family="Helvetica,sans-Serif" font-size="9.00">gettid</text>
</a>
</g>
</g>
<!-- Node2&#45;&gt;Node3 -->
<g id="edge2" class="edge">
<title>Node2&#45;&gt;Node3</title>
<path fill="none" stroke="midnightblue" d="M356.53,-46.5C369.19,-46.5 382.51,-46.5 393.82,-46.5"/>
<polygon fill="midnightblue" stroke="midnightblue" points="393.94,-50 403.94,-46.5 393.94,-43 393.94,-50"/>
</g>
<!-- Node5&#45;&gt;Node2 -->
<g id="edge5" class="edge">
<title>Node5&#45;&gt;Node2</title>
<path fill="none" stroke="midnightblue" d="M214.07,-34.59C226.02,-36.11 238.93,-37.74 251.25,-39.31"/>
<polygon fill="midnightblue" stroke="midnightblue" points="251.06,-42.81 261.42,-40.6 251.94,-35.87 251.06,-42.81"/>
</g>
<!-- Node5&#45;&gt;Node4 -->
<g id="edge6" class="edge">
<title>Node5&#45;&gt;Node4</title>
<path fill="none" stroke="midnightblue" d="M214.07,-22.07C222.34,-20.96 231.08,-19.79 239.76,-18.63"/>
<polygon fill="midnightblue" stroke="midnightblue" points="240.44,-22.07 249.89,-17.28 239.52,-15.13 240.44,-22.07"/>
</g>
</g>
</svg>
