<?xml version="1.0" encoding="UTF-8" standalone="no"?>
<!DOCTYPE svg PUBLIC "-//W3C//DTD SVG 1.1//EN"
 "http://www.w3.org/Graphics/SVG/1.1/DTD/svg11.dtd">
<!-- Generated by graphviz version 2.50.0 (20220203.2022)
 -->
<!-- Title: redis_write_hash_field Pages: 1 -->
<svg width="592pt" height="64pt"
 viewBox="0.00 0.00 592.00 64.00" xmlns="http://www.w3.org/2000/svg" xmlns:xlink="http://www.w3.org/1999/xlink">
<g id="graph0" class="graph" transform="scale(1 1) rotate(0) translate(4 60)">
<title>redis_write_hash_field</title>
<polygon fill="white" stroke="transparent" points="-4,4 -4,-60 588,-60 588,4 -4,4"/>
<!-- Node1 -->
<g id="node1" class="node">
<title>Node1</title>
<g id="a_node1"><a xlink:title=" ">
<polygon fill="#bfbfbf" stroke="black" points="0,-19.5 0,-37.5 106,-37.5 106,-19.5 0,-19.5"/>
<text text-anchor="middle" x="53" y="-26.3" font-family="Helvetica,sans-Serif" font-size="9.00">redis_write_hash_field</text>
</a>
</g>
</g>
<!-- Node2 -->
<g id="node2" class="node">
<title>Node2</title>
<g id="a_node2"><a xlink:href="redis__ipc_8c.html#afab35d4c40b4b1866fc0239bb885a39b" target="_top" xlink:title=" ">
<polygon fill="white" stroke="black" points="142,-19.5 142,-37.5 222,-37.5 222,-19.5 142,-19.5"/>
<text text-anchor="middle" x="182" y="-26.3" font-family="Helvetica,sans-Serif" font-size="9.00">redis_command</text>
</a>
</g>
</g>
<!-- Node1&#45;&gt;Node2 -->
<g id="edge1" class="edge">
<title>Node1&#45;&gt;Node2</title>
<path fill="none" stroke="midnightblue" d="M106.02,-28.5C114.5,-28.5 123.25,-28.5 131.66,-28.5"/>
<polygon fill="midnightblue" stroke="midnightblue" points="131.7,-32 141.7,-28.5 131.7,-25 131.7,-32"/>
</g>
<!-- Node3 -->
<g id="node3" class="node">
<title>Node3</title>
<g id="a_node3"><a xlink:href="redis__ipc_8c.html#a7b930ec420c7b4bf2df1469aca77f93d" target="_top" xlink:title=" ">
<polygon fill="white" stroke="black" points="403.5,-37.5 403.5,-55.5 498.5,-55.5 498.5,-37.5 403.5,-37.5"/>
<text text-anchor="middle" x="451" y="-44.3" font-family="Helvetica,sans-Serif" font-size="9.00">get_per_thread_info</text>
</a>
</g>
</g>
<!-- Node2&#45;&gt;Node3 -->
<g id="edge2" class="edge">
<title>Node2&#45;&gt;Node3</title>
<path fill="none" stroke="midnightblue" d="M211.53,-37.5C225.4,-41.42 242.41,-45.56 258,-47.5 303.05,-53.12 354.51,-52.47 392.81,-50.64"/>
<polygon fill="midnightblue" stroke="midnightblue" points="393.44,-54.11 403.24,-50.1 393.07,-47.12 393.44,-54.11"/>
</g>
<!-- Node5 -->
<g id="node5" class="node">
<title>Node5</title>
<g id="a_node5"><a xlink:href="redis__ipc_8c.html#a5e81feac565f9476476c5f042b2a5c9d" target="_top" xlink:title=" ">
<polygon fill="white" stroke="black" points="392,-0.5 392,-18.5 510,-18.5 510,-0.5 392,-0.5"/>
<text text-anchor="middle" x="451" y="-7.3" font-family="Helvetica,sans-Serif" font-size="9.00">stderr_debug_is_enabled</text>
</a>
</g>
</g>
<!-- Node2&#45;&gt;Node5 -->
<g id="edge4" class="edge">
<title>Node2&#45;&gt;Node5</title>
<path fill="none" stroke="midnightblue" d="M211.53,-19.5C225.4,-15.58 242.41,-11.44 258,-9.5 298.82,-4.41 344.89,-4.23 381.68,-5.4"/>
<polygon fill="midnightblue" stroke="midnightblue" points="381.68,-8.91 391.79,-5.77 381.93,-1.91 381.68,-8.91"/>
</g>
<!-- Node6 -->
<g id="node6" class="node">
<title>Node6</title>
<g id="a_node6"><a xlink:href="redis__ipc_8c.html#a80ea8825dd17a3cff2530680c97d184a" target="_top" xlink:title=" ">
<polygon fill="white" stroke="black" points="258,-19.5 258,-37.5 356,-37.5 356,-19.5 258,-19.5"/>
<text text-anchor="middle" x="307" y="-26.3" font-family="Helvetica,sans-Serif" font-size="9.00">validate_redis_reply</text>
</a>
</g>
</g>
<!-- Node2&#45;&gt;Node6 -->
<g id="edge5" class="edge">
<title>Node2&#45;&gt;Node6</title>
<path fill="none" stroke="midnightblue" d="M222.26,-28.5C230.34,-28.5 239.02,-28.5 247.62,-28.5"/>
<polygon fill="midnightblue" stroke="midnightblue" points="247.63,-32 257.63,-28.5 247.63,-25 247.63,-32"/>
</g>
<!-- Node4 -->
<g id="node4" class="node">
<title>Node4</title>
<g id="a_node4"><a xlink:href="redis__ipc_8c.html#af0449193b7cded86e600f052d0aabd39" target="_top" xlink:title=" ">
<polygon fill="white" stroke="black" points="546,-37.5 546,-55.5 584,-55.5 584,-37.5 546,-37.5"/>
<text text-anchor="middle" x="565" y="-44.3" font-family="Helvetica,sans-Serif" font-size="9.00">gettid</text>
</a>
</g>
</g>
<!-- Node3&#45;&gt;Node4 -->
<g id="edge3" class="edge">
<title>Node3&#45;&gt;Node4</title>
<path fill="none" stroke="midnightblue" d="M498.53,-46.5C511.19,-46.5 524.51,-46.5 535.82,-46.5"/>
<polygon fill="midnightblue" stroke="midnightblue" points="535.94,-50 545.94,-46.5 535.94,-43 535.94,-50"/>
</g>
<!-- Node6&#45;&gt;Node3 -->
<g id="edge6" class="edge">
<title>Node6&#45;&gt;Node3</title>
<path fill="none" stroke="midnightblue" d="M356.07,-34.59C368.02,-36.11 380.93,-37.74 393.25,-39.31"/>
<polygon fill="midnightblue" stroke="midnightblue" points="393.06,-42.81 403.42,-40.6 393.94,-35.87 393.06,-42.81"/>
</g>
<!-- Node6&#45;&gt;Node5 -->
<g id="edge7" class="edge">
<title>Node6&#45;&gt;Node5</title>
<path fill="none" stroke="midnightblue" d="M356.07,-22.07C364.34,-20.96 373.08,-19.79 381.76,-18.63"/>
<polygon fill="midnightblue" stroke="midnightblue" points="382.44,-22.07 391.89,-17.28 381.52,-15.13 382.44,-22.07"/>
</g>
</g>
</svg>
