<?xml version="1.0" encoding="UTF-8" standalone="no"?>
<!DOCTYPE svg PUBLIC "-//W3C//DTD SVG 1.1//EN"
 "http://www.w3.org/Graphics/SVG/1.1/DTD/svg11.dtd">
<!-- Generated by graphviz version 2.47.1 (20210417.1919)
 -->
<!-- Title: redis_ipc_write_setting Pages: 1 -->
<svg width="832pt" height="170pt"
 viewBox="0.00 0.00 832.00 170.00" xmlns="http://www.w3.org/2000/svg" xmlns:xlink="http://www.w3.org/1999/xlink">
<g id="graph0" class="graph" transform="scale(1 1) rotate(0) translate(4 166)">
<title>redis_ipc_write_setting</title>
<polygon fill="white" stroke="transparent" points="-4,4 -4,-166 828,-166 828,4 -4,4"/>
<!-- Node1 -->
<g id="node1" class="node">
<title>Node1</title>
<g id="a_node1"><a xlink:title=" ">
<polygon fill="#bfbfbf" stroke="black" points="0,-76.5 0,-94.5 119,-94.5 119,-76.5 0,-76.5"/>
<text text-anchor="middle" x="59.5" y="-83.3" font-family="Helvetica,sans-Serif" font-size="9.00">redis_ipc_write_setting</text>
</a>
</g>
</g>
<!-- Node2 -->
<g id="node2" class="node">
<title>Node2</title>
<g id="a_node2"><a xlink:href="redis__ipc_8c.html#a67965ac8f6a5a98becff25267faf1a8c" target="_top" xlink:title=" ">
<polygon fill="white" stroke="black" points="155,-133.5 155,-161.5 271,-161.5 271,-133.5 155,-133.5"/>
<text text-anchor="start" x="163" y="-150.3" font-family="Helvetica,sans-Serif" font-size="9.00">component_can_write</text>
<text text-anchor="middle" x="213" y="-140.3" font-family="Helvetica,sans-Serif" font-size="9.00">_settings</text>
</a>
</g>
</g>
<!-- Node1&#45;&gt;Node2 -->
<g id="edge1" class="edge">
<title>Node1&#45;&gt;Node2</title>
<path fill="none" stroke="midnightblue" d="M82.53,-94.52C104.85,-103.65 139.98,-118.03 168.02,-129.5"/>
<polygon fill="midnightblue" stroke="midnightblue" points="167.03,-132.88 177.61,-133.43 169.68,-126.4 167.03,-132.88"/>
</g>
<!-- Node3 -->
<g id="node3" class="node">
<title>Node3</title>
<g id="a_node3"><a xlink:href="redis__ipc_8c.html#aa2a3ce97c0b6f3e83572446f3c92e541" target="_top" xlink:title=" ">
<polygon fill="white" stroke="black" points="626,-57.5 626,-75.5 733,-75.5 733,-57.5 626,-57.5"/>
<text text-anchor="middle" x="679.5" y="-64.3" font-family="Helvetica,sans-Serif" font-size="9.00">get_per_thread_info</text>
</a>
</g>
</g>
<!-- Node1&#45;&gt;Node3 -->
<g id="edge2" class="edge">
<title>Node1&#45;&gt;Node3</title>
<path fill="none" stroke="midnightblue" d="M119.03,-85.59C161.26,-85.64 219.65,-85.65 271,-85.5 345.22,-85.28 363.84,-87.49 438,-84.5 498.34,-82.06 567.04,-76.66 615.52,-72.4"/>
<polygon fill="midnightblue" stroke="midnightblue" points="615.89,-75.88 625.54,-71.51 615.27,-68.91 615.89,-75.88"/>
</g>
<!-- Node5 -->
<g id="node5" class="node">
<title>Node5</title>
<g id="a_node5"><a xlink:href="redis__ipc_8c.html#a67c9dd84d2426ab58a759dbdfd223267" target="_top" xlink:title=" ">
<polygon fill="white" stroke="black" points="185,-57.5 185,-75.5 241,-75.5 241,-57.5 185,-57.5"/>
<text text-anchor="middle" x="213" y="-64.3" font-family="Helvetica,sans-Serif" font-size="9.00">ipc_path</text>
</a>
</g>
</g>
<!-- Node1&#45;&gt;Node5 -->
<g id="edge4" class="edge">
<title>Node1&#45;&gt;Node5</title>
<path fill="none" stroke="midnightblue" d="M119.07,-78.15C137.83,-75.8 158.07,-73.26 174.85,-71.16"/>
<polygon fill="midnightblue" stroke="midnightblue" points="175.33,-74.63 184.82,-69.91 174.46,-67.68 175.33,-74.63"/>
</g>
<!-- Node6 -->
<g id="node6" class="node">
<title>Node6</title>
<g id="a_node6"><a xlink:href="redis__ipc_8c.html#ab4f8e083ca57feea4be05c015b0eac9f" target="_top" xlink:title=" ">
<polygon fill="white" stroke="black" points="167,-20.5 167,-38.5 259,-38.5 259,-20.5 167,-20.5"/>
<text text-anchor="middle" x="213" y="-27.3" font-family="Helvetica,sans-Serif" font-size="9.00">redis_write_hash</text>
</a>
</g>
</g>
<!-- Node1&#45;&gt;Node6 -->
<g id="edge5" class="edge">
<title>Node1&#45;&gt;Node6</title>
<path fill="none" stroke="midnightblue" d="M81.71,-76.43C100.75,-68.42 129.53,-56.63 155,-47.5 160.57,-45.5 166.49,-43.5 172.32,-41.6"/>
<polygon fill="midnightblue" stroke="midnightblue" points="173.52,-44.89 181.98,-38.51 171.39,-38.22 173.52,-44.89"/>
</g>
<!-- Node4 -->
<g id="node4" class="node">
<title>Node4</title>
<g id="a_node4"><a xlink:href="redis__ipc_8c.html#af0449193b7cded86e600f052d0aabd39" target="_top" xlink:title=" ">
<polygon fill="white" stroke="black" points="780,-57.5 780,-75.5 824,-75.5 824,-57.5 780,-57.5"/>
<text text-anchor="middle" x="802" y="-64.3" font-family="Helvetica,sans-Serif" font-size="9.00">gettid</text>
</a>
</g>
</g>
<!-- Node3&#45;&gt;Node4 -->
<g id="edge3" class="edge">
<title>Node3&#45;&gt;Node4</title>
<path fill="none" stroke="midnightblue" d="M733,-66.5C745.5,-66.5 758.45,-66.5 769.65,-66.5"/>
<polygon fill="midnightblue" stroke="midnightblue" points="769.78,-70 779.78,-66.5 769.78,-63 769.78,-70"/>
</g>
<!-- Node7 -->
<g id="node7" class="node">
<title>Node7</title>
<g id="a_node7"><a xlink:href="redis__ipc_8c.html#a1d8ea9a795de6bcac8f989d7770028c3" target="_top" xlink:title=" ">
<polygon fill="white" stroke="black" points="329.5,-56.5 329.5,-74.5 415.5,-74.5 415.5,-56.5 329.5,-56.5"/>
<text text-anchor="middle" x="372.5" y="-63.3" font-family="Helvetica,sans-Serif" font-size="9.00">get_field_count</text>
</a>
</g>
</g>
<!-- Node6&#45;&gt;Node7 -->
<g id="edge6" class="edge">
<title>Node6&#45;&gt;Node7</title>
<path fill="none" stroke="midnightblue" d="M253.74,-38.58C274.53,-43.33 300.16,-49.19 322.2,-54.23"/>
<polygon fill="midnightblue" stroke="midnightblue" points="321.51,-57.66 332.04,-56.48 323.07,-50.84 321.51,-57.66"/>
</g>
<!-- Node8 -->
<g id="node8" class="node">
<title>Node8</title>
<g id="a_node8"><a xlink:href="redis__ipc_8c.html#a73fec3f4f77b193da7b8231788ee84f2" target="_top" xlink:title=" ">
<polygon fill="white" stroke="black" points="307,-19.5 307,-37.5 438,-37.5 438,-19.5 307,-19.5"/>
<text text-anchor="middle" x="372.5" y="-26.3" font-family="Helvetica,sans-Serif" font-size="9.00">redis_command_from_list</text>
</a>
</g>
</g>
<!-- Node6&#45;&gt;Node8 -->
<g id="edge7" class="edge">
<title>Node6&#45;&gt;Node8</title>
<path fill="none" stroke="midnightblue" d="M259.13,-29.21C270.9,-29.14 283.89,-29.06 296.74,-28.97"/>
<polygon fill="midnightblue" stroke="midnightblue" points="297.02,-32.47 306.99,-28.91 296.97,-25.47 297.02,-32.47"/>
</g>
<!-- Node8&#45;&gt;Node3 -->
<g id="edge8" class="edge">
<title>Node8&#45;&gt;Node3</title>
<path fill="none" stroke="midnightblue" d="M419.41,-37.52C436.5,-40.66 456.09,-44.02 474,-46.5 521.4,-53.05 575.27,-58.23 615.82,-61.67"/>
<polygon fill="midnightblue" stroke="midnightblue" points="615.57,-65.16 625.83,-62.51 616.15,-58.19 615.57,-65.16"/>
</g>
<!-- Node9 -->
<g id="node9" class="node">
<title>Node9</title>
<g id="a_node9"><a xlink:href="redis__ipc_8c.html#a5e81feac565f9476476c5f042b2a5c9d" target="_top" xlink:title=" ">
<polygon fill="white" stroke="black" points="615,-0.5 615,-18.5 744,-18.5 744,-0.5 615,-0.5"/>
<text text-anchor="middle" x="679.5" y="-7.3" font-family="Helvetica,sans-Serif" font-size="9.00">stderr_debug_is_enabled</text>
</a>
</g>
</g>
<!-- Node8&#45;&gt;Node9 -->
<g id="edge9" class="edge">
<title>Node8&#45;&gt;Node9</title>
<path fill="none" stroke="midnightblue" d="M411.92,-19.49C430.55,-15.57 453.31,-11.44 474,-9.5 517.16,-5.46 565.66,-5.27 604.6,-6.18"/>
<polygon fill="midnightblue" stroke="midnightblue" points="604.71,-9.68 614.8,-6.45 604.89,-2.69 604.71,-9.68"/>
</g>
<!-- Node10 -->
<g id="node10" class="node">
<title>Node10</title>
<g id="a_node10"><a xlink:href="redis__ipc_8c.html#ae88037651d88f63c62d32afd7e0fccf2" target="_top" xlink:title=" ">
<polygon fill="white" stroke="black" points="474,-19.5 474,-37.5 579,-37.5 579,-19.5 474,-19.5"/>
<text text-anchor="middle" x="526.5" y="-26.3" font-family="Helvetica,sans-Serif" font-size="9.00">validate_redis_reply</text>
</a>
</g>
</g>
<!-- Node8&#45;&gt;Node10 -->
<g id="edge10" class="edge">
<title>Node8&#45;&gt;Node10</title>
<path fill="none" stroke="midnightblue" d="M438.4,-28.5C446.78,-28.5 455.34,-28.5 463.66,-28.5"/>
<polygon fill="midnightblue" stroke="midnightblue" points="463.67,-32 473.67,-28.5 463.67,-25 463.67,-32"/>
</g>
<!-- Node10&#45;&gt;Node3 -->
<g id="edge11" class="edge">
<title>Node10&#45;&gt;Node3</title>
<path fill="none" stroke="midnightblue" d="M563.28,-37.51C584.08,-42.74 610.5,-49.39 632.79,-55"/>
<polygon fill="midnightblue" stroke="midnightblue" points="632.16,-58.45 642.71,-57.49 633.87,-51.66 632.16,-58.45"/>
</g>
<!-- Node10&#45;&gt;Node9 -->
<g id="edge12" class="edge">
<title>Node10&#45;&gt;Node9</title>
<path fill="none" stroke="midnightblue" d="M579.04,-22.01C587.33,-20.97 596.05,-19.87 604.74,-18.78"/>
<polygon fill="midnightblue" stroke="midnightblue" points="605.42,-22.22 614.9,-17.5 604.54,-15.28 605.42,-22.22"/>
</g>
</g>
</svg>
