<?xml version="1.0" encoding="UTF-8" standalone="no"?>
<!DOCTYPE svg PUBLIC "-//W3C//DTD SVG 1.1//EN"
 "http://www.w3.org/Graphics/SVG/1.1/DTD/svg11.dtd">
<!-- Generated by graphviz version 2.50.0 (20220203.2022)
 -->
<!-- Title: cleanup_per_thread_info Pages: 1 -->
<svg width="247pt" height="64pt"
 viewBox="0.00 0.00 247.00 64.00" xmlns="http://www.w3.org/2000/svg" xmlns:xlink="http://www.w3.org/1999/xlink">
<g id="graph0" class="graph" transform="scale(1 1) rotate(0) translate(4 60)">
<title>cleanup_per_thread_info</title>
<polygon fill="white" stroke="transparent" points="-4,4 -4,-60 243,-60 243,4 -4,4"/>
<!-- Node1 -->
<g id="node1" class="node">
<title>Node1</title>
<g id="a_node1"><a xlink:title=" ">
<polygon fill="#bfbfbf" stroke="black" points="125,-18.5 125,-36.5 239,-36.5 239,-18.5 125,-18.5"/>
<text text-anchor="middle" x="182" y="-25.3" font-family="Helvetica,sans-Serif" font-size="9.00">cleanup_per_thread_info</text>
</a>
</g>
</g>
<!-- Node2 -->
<g id="node2" class="node">
<title>Node2</title>
<g id="a_node2"><a xlink:href="redis__ipc_8c.html#a1e6896781e1374d1a1d906d97085a70c" target="_top" xlink:title=" ">
<polygon fill="white" stroke="black" points="0,-37.5 0,-55.5 89,-55.5 89,-37.5 0,-37.5"/>
<text text-anchor="middle" x="44.5" y="-44.3" font-family="Helvetica,sans-Serif" font-size="9.00">redis_ipc_cleanup</text>
</a>
</g>
</g>
<!-- Node1&#45;&gt;Node2 -->
<g id="edge1" class="edge">
<title>Node1&#45;&gt;Node2</title>
<path fill="none" stroke="midnightblue" d="M114.57,-36.81C105.89,-38.03 97.18,-39.25 89.01,-40.4"/>
<polygon fill="midnightblue" stroke="midnightblue" points="115.3,-40.25 124.71,-35.39 114.32,-33.32 115.3,-40.25"/>
</g>
<!-- Node3 -->
<g id="node3" class="node">
<title>Node3</title>
<g id="a_node3"><a xlink:href="redis__ipc_8c.html#ad761c2631d54b43ea0a5426813bc4dd1" target="_top" xlink:title=" ">
<polygon fill="white" stroke="black" points="9.5,-0.5 9.5,-18.5 79.5,-18.5 79.5,-0.5 9.5,-0.5"/>
<text text-anchor="middle" x="44.5" y="-7.3" font-family="Helvetica,sans-Serif" font-size="9.00">redis_ipc_init</text>
</a>
</g>
</g>
<!-- Node1&#45;&gt;Node3 -->
<g id="edge2" class="edge">
<title>Node1&#45;&gt;Node3</title>
<path fill="none" stroke="midnightblue" d="M114.61,-18.68C102.53,-17.08 90.39,-15.46 79.73,-14.05"/>
<polygon fill="midnightblue" stroke="midnightblue" points="114.34,-22.18 124.71,-20.02 115.26,-15.24 114.34,-22.18"/>
</g>
</g>
</svg>
