<?xml version="1.0" encoding="UTF-8" standalone="no"?>
<!DOCTYPE svg PUBLIC "-//W3C//DTD SVG 1.1//EN"
 "http://www.w3.org/Graphics/SVG/1.1/DTD/svg11.dtd">
<!-- Generated by graphviz version 2.47.1 (20210417.1919)
 -->
<!-- Title: validate_redis_reply Pages: 1 -->
<svg width="766pt" height="662pt"
 viewBox="0.00 0.00 766.00 662.00" xmlns="http://www.w3.org/2000/svg" xmlns:xlink="http://www.w3.org/1999/xlink">
<g id="graph0" class="graph" transform="scale(1 1) rotate(0) translate(4 658)">
<title>validate_redis_reply</title>
<polygon fill="white" stroke="transparent" points="-4,4 -4,-658 762,-658 762,4 -4,4"/>
<!-- Node1 -->
<g id="node1" class="node">
<title>Node1</title>
<g id="a_node1"><a xlink:title=" ">
<polygon fill="#bfbfbf" stroke="black" points="653,-184.5 653,-202.5 758,-202.5 758,-184.5 653,-184.5"/>
<text text-anchor="middle" x="705.5" y="-191.3" font-family="Helvetica,sans-Serif" font-size="9.00">validate_redis_reply</text>
</a>
</g>
</g>
<!-- Node2 -->
<g id="node2" class="node">
<title>Node2</title>
<g id="a_node2"><a xlink:href="redis__ipc_8c.html#aefb4508c1883e7d4345b206076b19e5d" target="_top" xlink:title=" ">
<polygon fill="white" stroke="black" points="507,-306.5 507,-324.5 596,-324.5 596,-306.5 507,-306.5"/>
<text text-anchor="middle" x="551.5" y="-313.3" font-family="Helvetica,sans-Serif" font-size="9.00">redis_command</text>
</a>
</g>
</g>
<!-- Node1&#45;&gt;Node2 -->
<g id="edge1" class="edge">
<title>Node1&#45;&gt;Node2</title>
<path fill="none" stroke="midnightblue" d="M684.89,-209.24C652.76,-235.02 589.93,-285.46 564.06,-306.22"/>
<polygon fill="midnightblue" stroke="midnightblue" points="687.47,-211.66 693.08,-202.67 683.09,-206.2 687.47,-211.66"/>
</g>
<!-- Node26 -->
<g id="node26" class="node">
<title>Node26</title>
<g id="a_node26"><a xlink:href="redis__ipc_8c.html#a73fec3f4f77b193da7b8231788ee84f2" target="_top" xlink:title=" ">
<polygon fill="white" stroke="black" points="486,-166.5 486,-184.5 617,-184.5 617,-166.5 486,-166.5"/>
<text text-anchor="middle" x="551.5" y="-173.3" font-family="Helvetica,sans-Serif" font-size="9.00">redis_command_from_list</text>
</a>
</g>
</g>
<!-- Node1&#45;&gt;Node26 -->
<g id="edge29" class="edge">
<title>Node1&#45;&gt;Node26</title>
<path fill="none" stroke="midnightblue" d="M642.52,-186.16C634.13,-185.17 625.49,-184.14 617.06,-183.14"/>
<polygon fill="midnightblue" stroke="midnightblue" points="642.27,-189.66 652.62,-187.36 643.1,-182.7 642.27,-189.66"/>
</g>
<!-- Node3 -->
<g id="node3" class="node">
<title>Node3</title>
<g id="a_node3"><a xlink:href="redis__ipc_8c.html#aad35a453c0c1dea3338257c3e6841afe" target="_top" xlink:title=" ">
<polygon fill="white" stroke="black" points="208.5,-353.5 208.5,-371.5 268.5,-371.5 268.5,-353.5 208.5,-353.5"/>
<text text-anchor="middle" x="238.5" y="-360.3" font-family="Helvetica,sans-Serif" font-size="9.00">redis_pop</text>
</a>
</g>
</g>
<!-- Node2&#45;&gt;Node3 -->
<g id="edge2" class="edge">
<title>Node2&#45;&gt;Node3</title>
<path fill="none" stroke="midnightblue" d="M496.42,-326.29C481.41,-329.13 465.1,-332.07 450,-334.5 385.39,-344.9 309.18,-354.34 268.52,-359.15"/>
<polygon fill="midnightblue" stroke="midnightblue" points="497.4,-329.66 506.56,-324.35 496.08,-322.79 497.4,-329.66"/>
</g>
<!-- Node6 -->
<g id="node6" class="node">
<title>Node6</title>
<g id="a_node6"><a xlink:href="redis__ipc_8c.html#ab3dc5609833c201c4e9ebaa5e2e70a2f" target="_top" xlink:title=" ">
<polygon fill="white" stroke="black" points="354,-306.5 354,-324.5 430,-324.5 430,-306.5 354,-306.5"/>
<text text-anchor="middle" x="392" y="-313.3" font-family="Helvetica,sans-Serif" font-size="9.00">redis_publish</text>
</a>
</g>
</g>
<!-- Node2&#45;&gt;Node6 -->
<g id="edge5" class="edge">
<title>Node2&#45;&gt;Node6</title>
<path fill="none" stroke="midnightblue" d="M496.5,-315.5C474.67,-315.5 450.01,-315.5 430.24,-315.5"/>
<polygon fill="midnightblue" stroke="midnightblue" points="496.63,-319 506.63,-315.5 496.63,-312 496.63,-319"/>
</g>
<!-- Node10 -->
<g id="node10" class="node">
<title>Node10</title>
<g id="a_node10"><a xlink:href="redis__ipc_8c.html#ae826a119ee7ca11d9636c6f34b9a29e9" target="_top" xlink:title=" ">
<polygon fill="white" stroke="black" points="206,-242.5 206,-260.5 271,-260.5 271,-242.5 206,-242.5"/>
<text text-anchor="middle" x="238.5" y="-249.3" font-family="Helvetica,sans-Serif" font-size="9.00">redis_push</text>
</a>
</g>
</g>
<!-- Node2&#45;&gt;Node10 -->
<g id="edge11" class="edge">
<title>Node2&#45;&gt;Node10</title>
<path fill="none" stroke="midnightblue" d="M496.88,-304.47C431.94,-291.1 324.63,-269.02 271.44,-258.07"/>
<polygon fill="midnightblue" stroke="midnightblue" points="496.43,-307.95 506.93,-306.53 497.84,-301.09 496.43,-307.95"/>
</g>
<!-- Node11 -->
<g id="node11" class="node">
<title>Node11</title>
<g id="a_node11"><a xlink:href="redis__ipc_8c.html#a94fc3b660886cc8cc8e69692e0f5ca78" target="_top" xlink:title=" ">
<polygon fill="white" stroke="black" points="347.5,-205.5 347.5,-223.5 436.5,-223.5 436.5,-205.5 347.5,-205.5"/>
<text text-anchor="middle" x="392" y="-212.3" font-family="Helvetica,sans-Serif" font-size="9.00">redis_read_hash</text>
</a>
</g>
</g>
<!-- Node2&#45;&gt;Node11 -->
<g id="edge14" class="edge">
<title>Node2&#45;&gt;Node11</title>
<path fill="none" stroke="midnightblue" d="M527.69,-300.87C494.64,-279.68 434.4,-241.05 407.11,-223.55"/>
<polygon fill="midnightblue" stroke="midnightblue" points="525.94,-303.91 536.25,-306.36 529.72,-298.01 525.94,-303.91"/>
</g>
<!-- Node14 -->
<g id="node14" class="node">
<title>Node14</title>
<g id="a_node14"><a xlink:href="redis__ipc_8c.html#abbcf0019b124792da8357b2fa972e11a" target="_top" xlink:title=" ">
<polygon fill="white" stroke="black" points="335.5,-126.5 335.5,-144.5 448.5,-144.5 448.5,-126.5 335.5,-126.5"/>
<text text-anchor="middle" x="392" y="-133.3" font-family="Helvetica,sans-Serif" font-size="9.00">redis_read_hash_field</text>
</a>
</g>
</g>
<!-- Node2&#45;&gt;Node14 -->
<g id="edge17" class="edge">
<title>Node2&#45;&gt;Node14</title>
<path fill="none" stroke="midnightblue" d="M536.67,-298.31C517.59,-274.75 481.92,-231.28 450,-195.5 433.55,-177.06 413.47,-156.31 402.07,-144.68"/>
<polygon fill="midnightblue" stroke="midnightblue" points="534.12,-300.72 543.13,-306.3 539.57,-296.32 534.12,-300.72"/>
</g>
<!-- Node17 -->
<g id="node17" class="node">
<title>Node17</title>
<g id="a_node17"><a xlink:href="redis__ipc_8c.html#a420fcd64722043e4bc0bb7f61a29d588" target="_top" xlink:title=" ">
<polygon fill="white" stroke="black" points="349,-583.5 349,-601.5 435,-601.5 435,-583.5 349,-583.5"/>
<text text-anchor="middle" x="392" y="-590.3" font-family="Helvetica,sans-Serif" font-size="9.00">redis_subscribe</text>
</a>
</g>
</g>
<!-- Node2&#45;&gt;Node17 -->
<g id="edge20" class="edge">
<title>Node2&#45;&gt;Node17</title>
<path fill="none" stroke="midnightblue" d="M542.69,-334.02C527.08,-370.34 490.06,-452.99 450,-517.5 434.47,-542.51 412.6,-569.43 400.98,-583.21"/>
<polygon fill="midnightblue" stroke="midnightblue" points="545.97,-335.26 546.67,-324.68 539.53,-332.51 545.97,-335.26"/>
</g>
<!-- Node20 -->
<g id="node20" class="node">
<title>Node20</title>
<g id="a_node20"><a xlink:href="redis__ipc_8c.html#a40d3af6ed926711313712685503a1c91" target="_top" xlink:title=" ">
<polygon fill="white" stroke="black" points="343,-489.5 343,-507.5 441,-507.5 441,-489.5 343,-489.5"/>
<text text-anchor="middle" x="392" y="-496.3" font-family="Helvetica,sans-Serif" font-size="9.00">redis_unsubscribe</text>
</a>
</g>
</g>
<!-- Node2&#45;&gt;Node20 -->
<g id="edge23" class="edge">
<title>Node2&#45;&gt;Node20</title>
<path fill="none" stroke="midnightblue" d="M535.76,-332.63C503.13,-370.54 425.75,-460.45 400.86,-489.37"/>
<polygon fill="midnightblue" stroke="midnightblue" points="538.82,-334.44 542.69,-324.57 533.51,-329.87 538.82,-334.44"/>
</g>
<!-- Node23 -->
<g id="node23" class="node">
<title>Node23</title>
<g id="a_node23"><a xlink:href="redis__ipc_8c.html#ad0c6708404743ef74dddacc617fb8b8e" target="_top" xlink:title=" ">
<polygon fill="white" stroke="black" points="334,-395.5 334,-413.5 450,-413.5 450,-395.5 334,-395.5"/>
<text text-anchor="middle" x="392" y="-402.3" font-family="Helvetica,sans-Serif" font-size="9.00">redis_write_hash_field</text>
</a>
</g>
</g>
<!-- Node2&#45;&gt;Node23 -->
<g id="edge26" class="edge">
<title>Node2&#45;&gt;Node23</title>
<path fill="none" stroke="midnightblue" d="M525.58,-329.67C505.25,-341.23 475.79,-357.95 450,-372.5 436.36,-380.2 420.86,-388.89 409.47,-395.28"/>
<polygon fill="midnightblue" stroke="midnightblue" points="527.53,-332.59 534.5,-324.6 524.08,-326.5 527.53,-332.59"/>
</g>
<!-- Node4 -->
<g id="node4" class="node">
<title>Node4</title>
<g id="a_node4"><a xlink:href="redis__ipc_8c.html#a6961dec4572f2b0b9f52ae09ae663728" target="_top" xlink:title=" ">
<polygon fill="white" stroke="black" points="0,-348.5 0,-376.5 143,-376.5 143,-348.5 0,-348.5"/>
<text text-anchor="start" x="8" y="-365.3" font-family="Helvetica,sans-Serif" font-size="9.00">redis_ipc_receive_command</text>
<text text-anchor="middle" x="71.5" y="-355.3" font-family="Helvetica,sans-Serif" font-size="9.00">_blocking</text>
</a>
</g>
</g>
<!-- Node3&#45;&gt;Node4 -->
<g id="edge3" class="edge">
<title>Node3&#45;&gt;Node4</title>
<path fill="none" stroke="midnightblue" d="M198.06,-362.5C181.6,-362.5 161.97,-362.5 143.17,-362.5"/>
<polygon fill="midnightblue" stroke="midnightblue" points="198.38,-366 208.38,-362.5 198.38,-359 198.38,-366"/>
</g>
<!-- Node5 -->
<g id="node5" class="node">
<title>Node5</title>
<g id="a_node5"><a xlink:href="redis__ipc_8c.html#a696ecebb5df3f171ed7b6adf682c83a2" target="_top" xlink:title=" ">
<polygon fill="white" stroke="black" points="5,-301.5 5,-329.5 138,-329.5 138,-301.5 5,-301.5"/>
<text text-anchor="start" x="13" y="-318.3" font-family="Helvetica,sans-Serif" font-size="9.00">redis_ipc_send_command</text>
<text text-anchor="middle" x="71.5" y="-308.3" font-family="Helvetica,sans-Serif" font-size="9.00">_blocking</text>
</a>
</g>
</g>
<!-- Node3&#45;&gt;Node5 -->
<g id="edge4" class="edge">
<title>Node3&#45;&gt;Node5</title>
<path fill="none" stroke="midnightblue" d="M198.63,-351.43C175.63,-344.88 146.29,-336.52 121.69,-329.51"/>
<polygon fill="midnightblue" stroke="midnightblue" points="197.8,-354.83 208.38,-354.21 199.72,-348.1 197.8,-354.83"/>
</g>
<!-- Node7 -->
<g id="node7" class="node">
<title>Node7</title>
<g id="a_node7"><a xlink:href="redis__ipc_8c.html#a66cdf2ae760d1acb487dd82c1392c12f" target="_top" xlink:title=" ">
<polygon fill="white" stroke="black" points="180.5,-316.5 180.5,-334.5 296.5,-334.5 296.5,-316.5 180.5,-316.5"/>
<text text-anchor="middle" x="238.5" y="-323.3" font-family="Helvetica,sans-Serif" font-size="9.00">redis_ipc_send_debug</text>
</a>
</g>
</g>
<!-- Node6&#45;&gt;Node7 -->
<g id="edge6" class="edge">
<title>Node6&#45;&gt;Node7</title>
<path fill="none" stroke="midnightblue" d="M343.88,-318.61C328.9,-319.6 312.16,-320.7 296.55,-321.73"/>
<polygon fill="midnightblue" stroke="midnightblue" points="344.19,-322.1 353.94,-317.95 343.73,-315.11 344.19,-322.1"/>
</g>
<!-- Node9 -->
<g id="node9" class="node">
<title>Node9</title>
<g id="a_node9"><a xlink:href="redis__ipc_8c.html#a9040f6af2f364ef8da41175eb6073693" target="_top" xlink:title=" ">
<polygon fill="white" stroke="black" points="182,-279.5 182,-297.5 295,-297.5 295,-279.5 182,-279.5"/>
<text text-anchor="middle" x="238.5" y="-286.3" font-family="Helvetica,sans-Serif" font-size="9.00">redis_ipc_send_event</text>
</a>
</g>
</g>
<!-- Node6&#45;&gt;Node9 -->
<g id="edge10" class="edge">
<title>Node6&#45;&gt;Node9</title>
<path fill="none" stroke="midnightblue" d="M343.68,-307.07C326.69,-304.04 307.46,-300.61 290.19,-297.53"/>
<polygon fill="midnightblue" stroke="midnightblue" points="343.48,-310.59 353.94,-308.9 344.71,-303.69 343.48,-310.59"/>
</g>
<!-- Node7&#45;&gt;Node4 -->
<g id="edge7" class="edge">
<title>Node7&#45;&gt;Node4</title>
<path fill="none" stroke="midnightblue" d="M187.17,-336.79C170.71,-340.48 152.21,-344.63 134.96,-348.49"/>
<polygon fill="midnightblue" stroke="midnightblue" points="188.14,-340.15 197.14,-334.55 186.61,-333.32 188.14,-340.15"/>
</g>
<!-- Node7&#45;&gt;Node5 -->
<g id="edge8" class="edge">
<title>Node7&#45;&gt;Node5</title>
<path fill="none" stroke="midnightblue" d="M170.23,-321.42C159.63,-320.78 148.69,-320.12 138.13,-319.48"/>
<polygon fill="midnightblue" stroke="midnightblue" points="170.06,-324.92 180.25,-322.03 170.48,-317.93 170.06,-324.92"/>
</g>
<!-- Node8 -->
<g id="node8" class="node">
<title>Node8</title>
<g id="a_node8"><a xlink:href="redis__ipc_8c.html#aecff1f4edcb2ebf0654d0fff21e334a5" target="_top" xlink:title=" ">
<polygon fill="white" stroke="black" points="15,-253.5 15,-271.5 128,-271.5 128,-253.5 15,-253.5"/>
<text text-anchor="middle" x="71.5" y="-260.3" font-family="Helvetica,sans-Serif" font-size="9.00">redis_ipc_send_result</text>
</a>
</g>
</g>
<!-- Node7&#45;&gt;Node8 -->
<g id="edge9" class="edge">
<title>Node7&#45;&gt;Node8</title>
<path fill="none" stroke="midnightblue" d="M196.33,-313.41C190.48,-311.52 184.57,-309.53 179,-307.5 174.76,-305.96 123.83,-284.34 93.96,-271.63"/>
<polygon fill="midnightblue" stroke="midnightblue" points="195.45,-316.8 206.03,-316.46 197.54,-310.12 195.45,-316.8"/>
</g>
<!-- Node10&#45;&gt;Node5 -->
<g id="edge12" class="edge">
<title>Node10&#45;&gt;Node5</title>
<path fill="none" stroke="midnightblue" d="M198.02,-263.81C191.63,-265.95 185.11,-268.22 179,-270.5 153.42,-280.04 124.96,-292.14 103.9,-301.39"/>
<polygon fill="midnightblue" stroke="midnightblue" points="199.46,-267.02 207.87,-260.58 197.28,-260.37 199.46,-267.02"/>
</g>
<!-- Node10&#45;&gt;Node8 -->
<g id="edge13" class="edge">
<title>Node10&#45;&gt;Node8</title>
<path fill="none" stroke="midnightblue" d="M195.45,-254.3C175.04,-255.66 150.24,-257.32 128.28,-258.78"/>
<polygon fill="midnightblue" stroke="midnightblue" points="195.94,-257.78 205.69,-253.62 195.48,-250.79 195.94,-257.78"/>
</g>
<!-- Node12 -->
<g id="node12" class="node">
<title>Node12</title>
<g id="a_node12"><a xlink:href="redis__ipc_8c.html#a3cfe2b5851e3cf7ef8acaafa0f409fae" target="_top" xlink:title=" ">
<polygon fill="white" stroke="black" points="180,-205.5 180,-223.5 297,-223.5 297,-205.5 180,-205.5"/>
<text text-anchor="middle" x="238.5" y="-212.3" font-family="Helvetica,sans-Serif" font-size="9.00">redis_ipc_read_setting</text>
</a>
</g>
</g>
<!-- Node11&#45;&gt;Node12 -->
<g id="edge15" class="edge">
<title>Node11&#45;&gt;Node12</title>
<path fill="none" stroke="midnightblue" d="M337.02,-214.5C324.06,-214.5 310.16,-214.5 297.05,-214.5"/>
<polygon fill="midnightblue" stroke="midnightblue" points="337.18,-218 347.18,-214.5 337.18,-211 337.18,-218"/>
</g>
<!-- Node13 -->
<g id="node13" class="node">
<title>Node13</title>
<g id="a_node13"><a xlink:href="redis__ipc_8c.html#ada50e7500b7b76526f3dbe186d330335" target="_top" xlink:title=" ">
<polygon fill="white" stroke="black" points="182,-168.5 182,-186.5 295,-186.5 295,-168.5 182,-168.5"/>
<text text-anchor="middle" x="238.5" y="-175.3" font-family="Helvetica,sans-Serif" font-size="9.00">redis_ipc_read_status</text>
</a>
</g>
</g>
<!-- Node11&#45;&gt;Node13 -->
<g id="edge16" class="edge">
<title>Node11&#45;&gt;Node13</title>
<path fill="none" stroke="midnightblue" d="M344.22,-203.08C322.42,-197.75 296.86,-191.51 276.44,-186.52"/>
<polygon fill="midnightblue" stroke="midnightblue" points="343.39,-206.48 353.94,-205.45 345.05,-199.68 343.39,-206.48"/>
</g>
<!-- Node15 -->
<g id="node15" class="node">
<title>Node15</title>
<g id="a_node15"><a xlink:href="redis__ipc_8c.html#a6afa8c8738fc3e50675c93724dfe2236" target="_top" xlink:title=" ">
<polygon fill="white" stroke="black" points="180,-121.5 180,-149.5 297,-149.5 297,-121.5 180,-121.5"/>
<text text-anchor="start" x="188" y="-138.3" font-family="Helvetica,sans-Serif" font-size="9.00">redis_ipc_read_setting</text>
<text text-anchor="middle" x="238.5" y="-128.3" font-family="Helvetica,sans-Serif" font-size="9.00">_field</text>
</a>
</g>
</g>
<!-- Node14&#45;&gt;Node15 -->
<g id="edge18" class="edge">
<title>Node14&#45;&gt;Node15</title>
<path fill="none" stroke="midnightblue" d="M325.35,-135.5C315.94,-135.5 306.32,-135.5 297.08,-135.5"/>
<polygon fill="midnightblue" stroke="midnightblue" points="325.45,-139 335.45,-135.5 325.45,-132 325.45,-139"/>
</g>
<!-- Node16 -->
<g id="node16" class="node">
<title>Node16</title>
<g id="a_node16"><a xlink:href="redis__ipc_8c.html#ad71c568720d1ca8e41c247516841eac4" target="_top" xlink:title=" ">
<polygon fill="white" stroke="black" points="182,-74.5 182,-102.5 295,-102.5 295,-74.5 182,-74.5"/>
<text text-anchor="start" x="190" y="-91.3" font-family="Helvetica,sans-Serif" font-size="9.00">redis_ipc_read_status</text>
<text text-anchor="middle" x="238.5" y="-81.3" font-family="Helvetica,sans-Serif" font-size="9.00">_field</text>
</a>
</g>
</g>
<!-- Node14&#45;&gt;Node16 -->
<g id="edge19" class="edge">
<title>Node14&#45;&gt;Node16</title>
<path fill="none" stroke="midnightblue" d="M352.11,-123.44C331.54,-117.05 306.17,-109.18 284.72,-102.53"/>
<polygon fill="midnightblue" stroke="midnightblue" points="351.2,-126.82 361.79,-126.44 353.28,-120.13 351.2,-126.82"/>
</g>
<!-- Node18 -->
<g id="node18" class="node">
<title>Node18</title>
<g id="a_node18"><a xlink:href="redis__ipc_8c.html#ac22692af167c24369831321eb5a1aa20" target="_top" xlink:title=" ">
<polygon fill="white" stroke="black" points="186.5,-625.5 186.5,-653.5 290.5,-653.5 290.5,-625.5 186.5,-625.5"/>
<text text-anchor="start" x="194.5" y="-642.3" font-family="Helvetica,sans-Serif" font-size="9.00">redis_ipc_subscribe</text>
<text text-anchor="middle" x="238.5" y="-632.3" font-family="Helvetica,sans-Serif" font-size="9.00">_debug</text>
</a>
</g>
</g>
<!-- Node17&#45;&gt;Node18 -->
<g id="edge21" class="edge">
<title>Node17&#45;&gt;Node18</title>
<path fill="none" stroke="midnightblue" d="M352.11,-604.56C331.54,-610.95 306.17,-618.82 284.72,-625.47"/>
<polygon fill="midnightblue" stroke="midnightblue" points="353.28,-607.87 361.79,-601.56 351.2,-601.18 353.28,-607.87"/>
</g>
<!-- Node19 -->
<g id="node19" class="node">
<title>Node19</title>
<g id="a_node19"><a xlink:href="redis__ipc_8c.html#a26390ed4efc19636cc62fc3adf9e3278" target="_top" xlink:title=" ">
<polygon fill="white" stroke="black" points="186.5,-578.5 186.5,-606.5 290.5,-606.5 290.5,-578.5 186.5,-578.5"/>
<text text-anchor="start" x="194.5" y="-595.3" font-family="Helvetica,sans-Serif" font-size="9.00">redis_ipc_subscribe</text>
<text text-anchor="middle" x="238.5" y="-585.3" font-family="Helvetica,sans-Serif" font-size="9.00">_events</text>
</a>
</g>
</g>
<!-- Node17&#45;&gt;Node19 -->
<g id="edge22" class="edge">
<title>Node17&#45;&gt;Node19</title>
<path fill="none" stroke="midnightblue" d="M338.35,-592.5C322.89,-592.5 306,-592.5 290.63,-592.5"/>
<polygon fill="midnightblue" stroke="midnightblue" points="338.8,-596 348.8,-592.5 338.8,-589 338.8,-596"/>
</g>
<!-- Node21 -->
<g id="node21" class="node">
<title>Node21</title>
<g id="a_node21"><a xlink:href="redis__ipc_8c.html#a55074bea4936100d8785f7ec9b5e83c9" target="_top" xlink:title=" ">
<polygon fill="white" stroke="black" points="180.5,-531.5 180.5,-559.5 296.5,-559.5 296.5,-531.5 180.5,-531.5"/>
<text text-anchor="start" x="188.5" y="-548.3" font-family="Helvetica,sans-Serif" font-size="9.00">redis_ipc_unsubscribe</text>
<text text-anchor="middle" x="238.5" y="-538.3" font-family="Helvetica,sans-Serif" font-size="9.00">_debug</text>
</a>
</g>
</g>
<!-- Node20&#45;&gt;Node21 -->
<g id="edge24" class="edge">
<title>Node20&#45;&gt;Node21</title>
<path fill="none" stroke="midnightblue" d="M352.11,-510.56C331.54,-516.95 306.17,-524.82 284.72,-531.47"/>
<polygon fill="midnightblue" stroke="midnightblue" points="353.28,-513.87 361.79,-507.56 351.2,-507.18 353.28,-513.87"/>
</g>
<!-- Node22 -->
<g id="node22" class="node">
<title>Node22</title>
<g id="a_node22"><a xlink:href="redis__ipc_8c.html#a88193bfef2bb1f36fa783c616d430c15" target="_top" xlink:title=" ">
<polygon fill="white" stroke="black" points="180.5,-484.5 180.5,-512.5 296.5,-512.5 296.5,-484.5 180.5,-484.5"/>
<text text-anchor="start" x="188.5" y="-501.3" font-family="Helvetica,sans-Serif" font-size="9.00">redis_ipc_unsubscribe</text>
<text text-anchor="middle" x="238.5" y="-491.3" font-family="Helvetica,sans-Serif" font-size="9.00">_events</text>
</a>
</g>
</g>
<!-- Node20&#45;&gt;Node22 -->
<g id="edge25" class="edge">
<title>Node20&#45;&gt;Node22</title>
<path fill="none" stroke="midnightblue" d="M332.49,-498.5C320.72,-498.5 308.37,-498.5 296.65,-498.5"/>
<polygon fill="midnightblue" stroke="midnightblue" points="332.65,-502 342.65,-498.5 332.65,-495 332.65,-502"/>
</g>
<!-- Node24 -->
<g id="node24" class="node">
<title>Node24</title>
<g id="a_node24"><a xlink:href="redis__ipc_8c.html#aef76ea4158d5075f2c2c0041ec62d1d5" target="_top" xlink:title=" ">
<polygon fill="white" stroke="black" points="179,-437.5 179,-465.5 298,-465.5 298,-437.5 179,-437.5"/>
<text text-anchor="start" x="187" y="-454.3" font-family="Helvetica,sans-Serif" font-size="9.00">redis_ipc_write_setting</text>
<text text-anchor="middle" x="238.5" y="-444.3" font-family="Helvetica,sans-Serif" font-size="9.00">_field</text>
</a>
</g>
</g>
<!-- Node23&#45;&gt;Node24 -->
<g id="edge27" class="edge">
<title>Node23&#45;&gt;Node24</title>
<path fill="none" stroke="midnightblue" d="M352.11,-416.56C331.54,-422.95 306.17,-430.82 284.72,-437.47"/>
<polygon fill="midnightblue" stroke="midnightblue" points="353.28,-419.87 361.79,-413.56 351.2,-413.18 353.28,-419.87"/>
</g>
<!-- Node25 -->
<g id="node25" class="node">
<title>Node25</title>
<g id="a_node25"><a xlink:href="redis__ipc_8c.html#a1ccd53107db1e7be09bb4e958975720e" target="_top" xlink:title=" ">
<polygon fill="white" stroke="black" points="180.5,-390.5 180.5,-418.5 296.5,-418.5 296.5,-390.5 180.5,-390.5"/>
<text text-anchor="start" x="188.5" y="-407.3" font-family="Helvetica,sans-Serif" font-size="9.00">redis_ipc_write_status</text>
<text text-anchor="middle" x="238.5" y="-397.3" font-family="Helvetica,sans-Serif" font-size="9.00">_field</text>
</a>
</g>
</g>
<!-- Node23&#45;&gt;Node25 -->
<g id="edge28" class="edge">
<title>Node23&#45;&gt;Node25</title>
<path fill="none" stroke="midnightblue" d="M323.63,-404.5C314.61,-404.5 305.43,-404.5 296.61,-404.5"/>
<polygon fill="midnightblue" stroke="midnightblue" points="323.72,-408 333.72,-404.5 323.72,-401 323.72,-408"/>
</g>
<!-- Node27 -->
<g id="node27" class="node">
<title>Node27</title>
<g id="a_node27"><a xlink:href="redis__ipc_8c.html#ab4f8e083ca57feea4be05c015b0eac9f" target="_top" xlink:title=" ">
<polygon fill="white" stroke="black" points="346,-37.5 346,-55.5 438,-55.5 438,-37.5 346,-37.5"/>
<text text-anchor="middle" x="392" y="-44.3" font-family="Helvetica,sans-Serif" font-size="9.00">redis_write_hash</text>
</a>
</g>
</g>
<!-- Node26&#45;&gt;Node27 -->
<g id="edge30" class="edge">
<title>Node26&#45;&gt;Node27</title>
<path fill="none" stroke="midnightblue" d="M531.4,-159.86C498.23,-132.69 430.96,-77.59 404.27,-55.73"/>
<polygon fill="midnightblue" stroke="midnightblue" points="529.47,-162.8 539.42,-166.43 533.91,-157.38 529.47,-162.8"/>
</g>
<!-- Node28 -->
<g id="node28" class="node">
<title>Node28</title>
<g id="a_node28"><a xlink:href="redis__ipc_8c.html#a11db23f8f055e2d63fd8308c3d382da4" target="_top" xlink:title=" ">
<polygon fill="white" stroke="black" points="179,-37.5 179,-55.5 298,-55.5 298,-37.5 179,-37.5"/>
<text text-anchor="middle" x="238.5" y="-44.3" font-family="Helvetica,sans-Serif" font-size="9.00">redis_ipc_write_setting</text>
</a>
</g>
</g>
<!-- Node27&#45;&gt;Node28 -->
<g id="edge31" class="edge">
<title>Node27&#45;&gt;Node28</title>
<path fill="none" stroke="midnightblue" d="M335.86,-46.5C323.59,-46.5 310.54,-46.5 298.14,-46.5"/>
<polygon fill="midnightblue" stroke="midnightblue" points="335.96,-50 345.96,-46.5 335.96,-43 335.96,-50"/>
</g>
<!-- Node29 -->
<g id="node29" class="node">
<title>Node29</title>
<g id="a_node29"><a xlink:href="redis__ipc_8c.html#ab7d4be95434367c1b7dd526ebbab77a1" target="_top" xlink:title=" ">
<polygon fill="white" stroke="black" points="180.5,-0.5 180.5,-18.5 296.5,-18.5 296.5,-0.5 180.5,-0.5"/>
<text text-anchor="middle" x="238.5" y="-7.3" font-family="Helvetica,sans-Serif" font-size="9.00">redis_ipc_write_status</text>
</a>
</g>
</g>
<!-- Node27&#45;&gt;Node29 -->
<g id="edge32" class="edge">
<title>Node27&#45;&gt;Node29</title>
<path fill="none" stroke="midnightblue" d="M344.22,-35.08C322.42,-29.75 296.86,-23.51 276.44,-18.52"/>
<polygon fill="midnightblue" stroke="midnightblue" points="343.39,-38.48 353.94,-37.45 345.05,-31.68 343.39,-38.48"/>
</g>
</g>
</svg>
