<?xml version="1.0" encoding="UTF-8" standalone="no"?>
<!DOCTYPE svg PUBLIC "-//W3C//DTD SVG 1.1//EN"
 "http://www.w3.org/Graphics/SVG/1.1/DTD/svg11.dtd">
<!-- Generated by graphviz version 2.50.0 (20220203.2022)
 -->
<!-- Title: redis_ipc_write_setting Pages: 1 -->
<svg width="771pt" height="170pt"
 viewBox="0.00 0.00 771.00 170.00" xmlns="http://www.w3.org/2000/svg" xmlns:xlink="http://www.w3.org/1999/xlink">
<g id="graph0" class="graph" transform="scale(1 1) rotate(0) translate(4 166)">
<title>redis_ipc_write_setting</title>
<polygon fill="white" stroke="transparent" points="-4,4 -4,-166 767,-166 767,4 -4,4"/>
<!-- Node1 -->
<g id="node1" class="node">
<title>Node1</title>
<g id="a_node1"><a xlink:title=" ">
<polygon fill="#bfbfbf" stroke="black" points="0,-76.5 0,-94.5 108,-94.5 108,-76.5 0,-76.5"/>
<text text-anchor="middle" x="54" y="-83.3" font-family="Helvetica,sans-Serif" font-size="9.00">redis_ipc_write_setting</text>
</a>
</g>
</g>
<!-- Node2 -->
<g id="node2" class="node">
<title>Node2</title>
<g id="a_node2"><a xlink:href="redis__ipc_8c.html#a67965ac8f6a5a98becff25267faf1a8c" target="_top" xlink:title=" ">
<polygon fill="white" stroke="black" points="144,-133.5 144,-161.5 246,-161.5 246,-133.5 144,-133.5"/>
<text text-anchor="start" x="152" y="-150.3" font-family="Helvetica,sans-Serif" font-size="9.00">component_can_write</text>
<text text-anchor="middle" x="195" y="-140.3" font-family="Helvetica,sans-Serif" font-size="9.00">_settings</text>
</a>
</g>
</g>
<!-- Node1&#45;&gt;Node2 -->
<g id="edge1" class="edge">
<title>Node1&#45;&gt;Node2</title>
<path fill="none" stroke="midnightblue" d="M75.21,-94.52C95.6,-103.61 127.64,-117.9 153.31,-129.35"/>
<polygon fill="midnightblue" stroke="midnightblue" points="151.89,-132.55 162.45,-133.43 154.74,-126.16 151.89,-132.55"/>
</g>
<!-- Node3 -->
<g id="node3" class="node">
<title>Node3</title>
<g id="a_node3"><a xlink:href="redis__ipc_8c.html#a7b930ec420c7b4bf2df1469aca77f93d" target="_top" xlink:title=" ">
<polygon fill="white" stroke="black" points="582.5,-57.5 582.5,-75.5 677.5,-75.5 677.5,-57.5 582.5,-57.5"/>
<text text-anchor="middle" x="630" y="-64.3" font-family="Helvetica,sans-Serif" font-size="9.00">get_per_thread_info</text>
</a>
</g>
</g>
<!-- Node1&#45;&gt;Node3 -->
<g id="edge2" class="edge">
<title>Node1&#45;&gt;Node3</title>
<path fill="none" stroke="midnightblue" d="M108.1,-85.59C146.43,-85.64 199.41,-85.65 246,-85.5 314.89,-85.28 332.17,-87.44 401,-84.5 459.46,-82.01 526.16,-76.42 572.25,-72.13"/>
<polygon fill="midnightblue" stroke="midnightblue" points="572.71,-75.6 582.34,-71.18 572.05,-68.63 572.71,-75.6"/>
</g>
<!-- Node5 -->
<g id="node5" class="node">
<title>Node5</title>
<g id="a_node5"><a xlink:href="redis__ipc_8c.html#a67c9dd84d2426ab58a759dbdfd223267" target="_top" xlink:title=" ">
<polygon fill="white" stroke="black" points="169.5,-57.5 169.5,-75.5 220.5,-75.5 220.5,-57.5 169.5,-57.5"/>
<text text-anchor="middle" x="195" y="-64.3" font-family="Helvetica,sans-Serif" font-size="9.00">ipc_path</text>
</a>
</g>
</g>
<!-- Node1&#45;&gt;Node5 -->
<g id="edge4" class="edge">
<title>Node1&#45;&gt;Node5</title>
<path fill="none" stroke="midnightblue" d="M108.34,-78.21C125.39,-75.88 143.8,-73.36 159.18,-71.26"/>
<polygon fill="midnightblue" stroke="midnightblue" points="159.85,-74.7 169.28,-69.88 158.9,-67.77 159.85,-74.7"/>
</g>
<!-- Node6 -->
<g id="node6" class="node">
<title>Node6</title>
<g id="a_node6"><a xlink:href="redis__ipc_8c.html#ab4f8e083ca57feea4be05c015b0eac9f" target="_top" xlink:title=" ">
<polygon fill="white" stroke="black" points="153,-20.5 153,-38.5 237,-38.5 237,-20.5 153,-20.5"/>
<text text-anchor="middle" x="195" y="-27.3" font-family="Helvetica,sans-Serif" font-size="9.00">redis_write_hash</text>
</a>
</g>
</g>
<!-- Node1&#45;&gt;Node6 -->
<g id="edge5" class="edge">
<title>Node1&#45;&gt;Node6</title>
<path fill="none" stroke="midnightblue" d="M75.36,-76.41C93.31,-68.49 120.23,-56.84 144,-47.5 148.59,-45.7 153.44,-43.86 158.24,-42.09"/>
<polygon fill="midnightblue" stroke="midnightblue" points="159.74,-45.27 167.94,-38.56 157.35,-38.69 159.74,-45.27"/>
</g>
<!-- Node4 -->
<g id="node4" class="node">
<title>Node4</title>
<g id="a_node4"><a xlink:href="redis__ipc_8c.html#af0449193b7cded86e600f052d0aabd39" target="_top" xlink:title=" ">
<polygon fill="white" stroke="black" points="725,-57.5 725,-75.5 763,-75.5 763,-57.5 725,-57.5"/>
<text text-anchor="middle" x="744" y="-64.3" font-family="Helvetica,sans-Serif" font-size="9.00">gettid</text>
</a>
</g>
</g>
<!-- Node3&#45;&gt;Node4 -->
<g id="edge3" class="edge">
<title>Node3&#45;&gt;Node4</title>
<path fill="none" stroke="midnightblue" d="M677.53,-66.5C690.19,-66.5 703.51,-66.5 714.82,-66.5"/>
<polygon fill="midnightblue" stroke="midnightblue" points="714.94,-70 724.94,-66.5 714.94,-63 714.94,-70"/>
</g>
<!-- Node7 -->
<g id="node7" class="node">
<title>Node7</title>
<g id="a_node7"><a xlink:href="redis__ipc_8c.html#a1d8ea9a795de6bcac8f989d7770028c3" target="_top" xlink:title=" ">
<polygon fill="white" stroke="black" points="303.5,-56.5 303.5,-74.5 379.5,-74.5 379.5,-56.5 303.5,-56.5"/>
<text text-anchor="middle" x="341.5" y="-63.3" font-family="Helvetica,sans-Serif" font-size="9.00">get_field_count</text>
</a>
</g>
</g>
<!-- Node6&#45;&gt;Node7 -->
<g id="edge6" class="edge">
<title>Node6&#45;&gt;Node7</title>
<path fill="none" stroke="midnightblue" d="M232.46,-38.58C251.27,-43.27 274.41,-49.04 294.45,-54.03"/>
<polygon fill="midnightblue" stroke="midnightblue" points="293.75,-57.46 304.3,-56.48 295.44,-50.67 293.75,-57.46"/>
</g>
<!-- Node8 -->
<g id="node8" class="node">
<title>Node8</title>
<g id="a_node8"><a xlink:href="redis__ipc_8c.html#a75d72df468cbcb8c72d15ca3b0cd9996" target="_top" xlink:title=" ">
<polygon fill="white" stroke="black" points="282,-19.5 282,-37.5 401,-37.5 401,-19.5 282,-19.5"/>
<text text-anchor="middle" x="341.5" y="-26.3" font-family="Helvetica,sans-Serif" font-size="9.00">redis_command_from_list</text>
</a>
</g>
</g>
<!-- Node6&#45;&gt;Node8 -->
<g id="edge7" class="edge">
<title>Node6&#45;&gt;Node8</title>
<path fill="none" stroke="midnightblue" d="M237.02,-29.22C247.8,-29.14 259.72,-29.06 271.53,-28.98"/>
<polygon fill="midnightblue" stroke="midnightblue" points="271.87,-32.48 281.85,-28.91 271.82,-25.48 271.87,-32.48"/>
</g>
<!-- Node8&#45;&gt;Node3 -->
<g id="edge8" class="edge">
<title>Node8&#45;&gt;Node3</title>
<path fill="none" stroke="midnightblue" d="M385.65,-37.51C401.72,-40.66 420.15,-44.02 437,-46.5 482.16,-53.14 533.61,-58.38 571.88,-61.82"/>
<polygon fill="midnightblue" stroke="midnightblue" points="572.04,-65.35 582.31,-62.75 572.65,-58.38 572.04,-65.35"/>
</g>
<!-- Node9 -->
<g id="node9" class="node">
<title>Node9</title>
<g id="a_node9"><a xlink:href="redis__ipc_8c.html#a5e81feac565f9476476c5f042b2a5c9d" target="_top" xlink:title=" ">
<polygon fill="white" stroke="black" points="571,-0.5 571,-18.5 689,-18.5 689,-0.5 571,-0.5"/>
<text text-anchor="middle" x="630" y="-7.3" font-family="Helvetica,sans-Serif" font-size="9.00">stderr_debug_is_enabled</text>
</a>
</g>
</g>
<!-- Node8&#45;&gt;Node9 -->
<g id="edge9" class="edge">
<title>Node8&#45;&gt;Node9</title>
<path fill="none" stroke="midnightblue" d="M378.59,-19.49C396.1,-15.57 417.52,-11.44 437,-9.5 477.93,-5.43 524.01,-5.28 560.77,-6.22"/>
<polygon fill="midnightblue" stroke="midnightblue" points="560.78,-9.72 570.88,-6.51 560.98,-2.73 560.78,-9.72"/>
</g>
<!-- Node10 -->
<g id="node10" class="node">
<title>Node10</title>
<g id="a_node10"><a xlink:href="redis__ipc_8c.html#a80ea8825dd17a3cff2530680c97d184a" target="_top" xlink:title=" ">
<polygon fill="white" stroke="black" points="437,-19.5 437,-37.5 535,-37.5 535,-19.5 437,-19.5"/>
<text text-anchor="middle" x="486" y="-26.3" font-family="Helvetica,sans-Serif" font-size="9.00">validate_redis_reply</text>
</a>
</g>
</g>
<!-- Node8&#45;&gt;Node10 -->
<g id="edge10" class="edge">
<title>Node8&#45;&gt;Node10</title>
<path fill="none" stroke="midnightblue" d="M401.28,-28.5C409.68,-28.5 418.31,-28.5 426.69,-28.5"/>
<polygon fill="midnightblue" stroke="midnightblue" points="426.77,-32 436.77,-28.5 426.77,-25 426.77,-32"/>
</g>
<!-- Node10&#45;&gt;Node3 -->
<g id="edge11" class="edge">
<title>Node10&#45;&gt;Node3</title>
<path fill="none" stroke="midnightblue" d="M520.65,-37.51C539.96,-42.67 564.43,-49.22 585.22,-54.79"/>
<polygon fill="midnightblue" stroke="midnightblue" points="584.53,-58.22 595.1,-57.43 586.34,-51.46 584.53,-58.22"/>
</g>
<!-- Node10&#45;&gt;Node9 -->
<g id="edge12" class="edge">
<title>Node10&#45;&gt;Node9</title>
<path fill="none" stroke="midnightblue" d="M535.07,-22.07C543.34,-20.96 552.08,-19.79 560.76,-18.63"/>
<polygon fill="midnightblue" stroke="midnightblue" points="561.44,-22.07 570.89,-17.28 560.52,-15.13 561.44,-22.07"/>
</g>
</g>
</svg>
