<?xml version="1.0" encoding="UTF-8" standalone="no"?>
<!DOCTYPE svg PUBLIC "-//W3C//DTD SVG 1.1//EN"
 "http://www.w3.org/Graphics/SVG/1.1/DTD/svg11.dtd">
<!-- Generated by graphviz version 2.43.0 (0)
 -->
<!-- Title: redis_write_hash_field Pages: 1 -->
<svg width="279pt" height="84pt"
 viewBox="0.00 0.00 279.00 84.00" xmlns="http://www.w3.org/2000/svg" xmlns:xlink="http://www.w3.org/1999/xlink">
<g id="graph0" class="graph" transform="scale(1 1) rotate(0) translate(4 80)">
<title>redis_write_hash_field</title>
<polygon fill="white" stroke="transparent" points="-4,4 -4,-80 275,-80 275,4 -4,4"/>
<!-- Node1 -->
<g id="node1" class="node">
<title>Node1</title>
<g id="a_node1"><a xlink:title=" ">
<polygon fill="#bfbfbf" stroke="black" points="155,-28.5 155,-46.5 271,-46.5 271,-28.5 155,-28.5"/>
<text text-anchor="middle" x="213" y="-35.3" font-family="Helvetica,sans-Serif" font-size="9.00">redis_write_hash_field</text>
</a>
</g>
</g>
<!-- Node2 -->
<g id="node2" class="node">
<title>Node2</title>
<g id="a_node2"><a xlink:href="redis__ipc_8h.html#aef76ea4158d5075f2c2c0041ec62d1d5" target="_top" xlink:title=" ">
<polygon fill="white" stroke="black" points="0,-47.5 0,-75.5 119,-75.5 119,-47.5 0,-47.5"/>
<text text-anchor="start" x="8" y="-64.3" font-family="Helvetica,sans-Serif" font-size="9.00">redis_ipc_write_setting</text>
<text text-anchor="middle" x="59.5" y="-54.3" font-family="Helvetica,sans-Serif" font-size="9.00">_field</text>
</a>
</g>
</g>
<!-- Node1&#45;&gt;Node2 -->
<g id="edge1" class="edge">
<title>Node1&#45;&gt;Node2</title>
<path fill="none" stroke="midnightblue" d="M145.11,-48.1C136.47,-49.47 127.67,-50.86 119.18,-52.2"/>
<polygon fill="midnightblue" stroke="midnightblue" points="145.83,-51.53 155.16,-46.5 144.73,-44.61 145.83,-51.53"/>
</g>
<!-- Node3 -->
<g id="node3" class="node">
<title>Node3</title>
<g id="a_node3"><a xlink:href="redis__ipc_8h.html#a1ccd53107db1e7be09bb4e958975720e" target="_top" xlink:title=" ">
<polygon fill="white" stroke="black" points="1.5,-0.5 1.5,-28.5 117.5,-28.5 117.5,-0.5 1.5,-0.5"/>
<text text-anchor="start" x="9.5" y="-17.3" font-family="Helvetica,sans-Serif" font-size="9.00">redis_ipc_write_status</text>
<text text-anchor="middle" x="59.5" y="-7.3" font-family="Helvetica,sans-Serif" font-size="9.00">_field</text>
</a>
</g>
</g>
<!-- Node1&#45;&gt;Node3 -->
<g id="edge2" class="edge">
<title>Node1&#45;&gt;Node3</title>
<path fill="none" stroke="midnightblue" d="M144.63,-27.27C135.61,-25.9 126.43,-24.51 117.61,-23.17"/>
<polygon fill="midnightblue" stroke="midnightblue" points="144.31,-30.76 154.72,-28.8 145.36,-23.84 144.31,-30.76"/>
</g>
</g>
</svg>
