<?xml version="1.0" encoding="UTF-8" standalone="no"?>
<!DOCTYPE svg PUBLIC "-//W3C//DTD SVG 1.1//EN"
 "http://www.w3.org/Graphics/SVG/1.1/DTD/svg11.dtd">
<!-- Generated by graphviz version 2.50.0 (20220203.2022)
 -->
<!-- Title: redis_ipc_get_message_blocking Pages: 1 -->
<svg width="348pt" height="64pt"
 viewBox="0.00 0.00 348.00 64.00" xmlns="http://www.w3.org/2000/svg" xmlns:xlink="http://www.w3.org/1999/xlink">
<g id="graph0" class="graph" transform="scale(1 1) rotate(0) translate(4 60)">
<title>redis_ipc_get_message_blocking</title>
<polygon fill="white" stroke="transparent" points="-4,4 -4,-60 344,-60 344,4 -4,4"/>
<!-- Node1 -->
<g id="node1" class="node">
<title>Node1</title>
<g id="a_node1"><a xlink:title=" ">
<polygon fill="#bfbfbf" stroke="black" points="0,-13.5 0,-41.5 112,-41.5 112,-13.5 0,-13.5"/>
<text text-anchor="start" x="8" y="-30.3" font-family="Helvetica,sans-Serif" font-size="9.00">redis_ipc_get_message</text>
<text text-anchor="middle" x="56" y="-20.3" font-family="Helvetica,sans-Serif" font-size="9.00">_blocking</text>
</a>
</g>
</g>
<!-- Node2 -->
<g id="node2" class="node">
<title>Node2</title>
<g id="a_node2"><a xlink:href="redis__ipc_8c.html#a7b930ec420c7b4bf2df1469aca77f93d" target="_top" xlink:title=" ">
<polygon fill="white" stroke="black" points="159.5,-37.5 159.5,-55.5 254.5,-55.5 254.5,-37.5 159.5,-37.5"/>
<text text-anchor="middle" x="207" y="-44.3" font-family="Helvetica,sans-Serif" font-size="9.00">get_per_thread_info</text>
</a>
</g>
</g>
<!-- Node1&#45;&gt;Node2 -->
<g id="edge1" class="edge">
<title>Node1&#45;&gt;Node2</title>
<path fill="none" stroke="midnightblue" d="M112.06,-34.52C124.23,-36.07 137.16,-37.72 149.39,-39.28"/>
<polygon fill="midnightblue" stroke="midnightblue" points="149.12,-42.77 159.48,-40.57 150,-35.83 149.12,-42.77"/>
</g>
<!-- Node4 -->
<g id="node4" class="node">
<title>Node4</title>
<g id="a_node4"><a xlink:href="redis__ipc_8c.html#a5e81feac565f9476476c5f042b2a5c9d" target="_top" xlink:title=" ">
<polygon fill="white" stroke="black" points="148,-0.5 148,-18.5 266,-18.5 266,-0.5 148,-0.5"/>
<text text-anchor="middle" x="207" y="-7.3" font-family="Helvetica,sans-Serif" font-size="9.00">stderr_debug_is_enabled</text>
</a>
</g>
</g>
<!-- Node1&#45;&gt;Node4 -->
<g id="edge3" class="edge">
<title>Node1&#45;&gt;Node4</title>
<path fill="none" stroke="midnightblue" d="M112.06,-20.85C120.46,-19.83 129.22,-18.78 137.86,-17.73"/>
<polygon fill="midnightblue" stroke="midnightblue" points="138.41,-21.19 147.92,-16.52 137.57,-14.24 138.41,-21.19"/>
</g>
<!-- Node3 -->
<g id="node3" class="node">
<title>Node3</title>
<g id="a_node3"><a xlink:href="redis__ipc_8c.html#af0449193b7cded86e600f052d0aabd39" target="_top" xlink:title=" ">
<polygon fill="white" stroke="black" points="302,-37.5 302,-55.5 340,-55.5 340,-37.5 302,-37.5"/>
<text text-anchor="middle" x="321" y="-44.3" font-family="Helvetica,sans-Serif" font-size="9.00">gettid</text>
</a>
</g>
</g>
<!-- Node2&#45;&gt;Node3 -->
<g id="edge2" class="edge">
<title>Node2&#45;&gt;Node3</title>
<path fill="none" stroke="midnightblue" d="M254.53,-46.5C267.19,-46.5 280.51,-46.5 291.82,-46.5"/>
<polygon fill="midnightblue" stroke="midnightblue" points="291.94,-50 301.94,-46.5 291.94,-43 291.94,-50"/>
</g>
</g>
</svg>
