<?xml version="1.0" encoding="UTF-8" standalone="no"?>
<!DOCTYPE svg PUBLIC "-//W3C//DTD SVG 1.1//EN"
 "http://www.w3.org/Graphics/SVG/1.1/DTD/svg11.dtd">
<!-- Generated by graphviz version 2.43.0 (0)
 -->
<!-- Title: format_debug_msg Pages: 1 -->
<svg width="443pt" height="121pt"
 viewBox="0.00 0.00 443.00 121.00" xmlns="http://www.w3.org/2000/svg" xmlns:xlink="http://www.w3.org/1999/xlink">
<g id="graph0" class="graph" transform="scale(1 1) rotate(0) translate(4 117)">
<title>format_debug_msg</title>
<polygon fill="white" stroke="transparent" points="-4,4 -4,-117 439,-117 439,4 -4,4"/>
<!-- Node1 -->
<g id="node1" class="node">
<title>Node1</title>
<g id="a_node1"><a xlink:title=" ">
<polygon fill="#bfbfbf" stroke="black" points="331,-42.5 331,-60.5 435,-60.5 435,-42.5 331,-42.5"/>
<text text-anchor="middle" x="383" y="-49.3" font-family="Helvetica,sans-Serif" font-size="9.00">format_debug_msg</text>
</a>
</g>
</g>
<!-- Node2 -->
<g id="node2" class="node">
<title>Node2</title>
<g id="a_node2"><a xlink:href="redis__ipc_8h.html#a66cdf2ae760d1acb487dd82c1392c12f" target="_top" xlink:title=" ">
<polygon fill="white" stroke="black" points="179,-42.5 179,-60.5 295,-60.5 295,-42.5 179,-42.5"/>
<text text-anchor="middle" x="237" y="-49.3" font-family="Helvetica,sans-Serif" font-size="9.00">redis_ipc_send_debug</text>
</a>
</g>
</g>
<!-- Node1&#45;&gt;Node2 -->
<g id="edge1" class="edge">
<title>Node1&#45;&gt;Node2</title>
<path fill="none" stroke="midnightblue" d="M320.71,-51.5C312.31,-51.5 303.71,-51.5 295.38,-51.5"/>
<polygon fill="midnightblue" stroke="midnightblue" points="320.83,-55 330.83,-51.5 320.83,-48 320.83,-55"/>
</g>
<!-- Node3 -->
<g id="node3" class="node">
<title>Node3</title>
<g id="a_node3"><a xlink:href="redis__ipc_8h.html#a6961dec4572f2b0b9f52ae09ae663728" target="_top" xlink:title=" ">
<polygon fill="white" stroke="black" points="0,-84.5 0,-112.5 143,-112.5 143,-84.5 0,-84.5"/>
<text text-anchor="start" x="8" y="-101.3" font-family="Helvetica,sans-Serif" font-size="9.00">redis_ipc_receive_command</text>
<text text-anchor="middle" x="71.5" y="-91.3" font-family="Helvetica,sans-Serif" font-size="9.00">_blocking</text>
</a>
</g>
</g>
<!-- Node2&#45;&gt;Node3 -->
<g id="edge2" class="edge">
<title>Node2&#45;&gt;Node3</title>
<path fill="none" stroke="midnightblue" d="M194.64,-63.39C172.33,-69.8 144.66,-77.76 121.31,-84.47"/>
<polygon fill="midnightblue" stroke="midnightblue" points="195.83,-66.69 204.48,-60.56 193.9,-59.96 195.83,-66.69"/>
</g>
<!-- Node4 -->
<g id="node4" class="node">
<title>Node4</title>
<g id="a_node4"><a xlink:href="redis__ipc_8h.html#a696ecebb5df3f171ed7b6adf682c83a2" target="_top" xlink:title=" ">
<polygon fill="white" stroke="black" points="5,-37.5 5,-65.5 138,-65.5 138,-37.5 5,-37.5"/>
<text text-anchor="start" x="13" y="-54.3" font-family="Helvetica,sans-Serif" font-size="9.00">redis_ipc_send_command</text>
<text text-anchor="middle" x="71.5" y="-44.3" font-family="Helvetica,sans-Serif" font-size="9.00">_blocking</text>
</a>
</g>
</g>
<!-- Node2&#45;&gt;Node4 -->
<g id="edge3" class="edge">
<title>Node2&#45;&gt;Node4</title>
<path fill="none" stroke="midnightblue" d="M168.79,-51.5C158.63,-51.5 148.17,-51.5 138.05,-51.5"/>
<polygon fill="midnightblue" stroke="midnightblue" points="168.82,-55 178.82,-51.5 168.82,-48 168.82,-55"/>
</g>
<!-- Node5 -->
<g id="node5" class="node">
<title>Node5</title>
<g id="a_node5"><a xlink:href="redis__ipc_8h.html#aecff1f4edcb2ebf0654d0fff21e334a5" target="_top" xlink:title=" ">
<polygon fill="white" stroke="black" points="15,-0.5 15,-18.5 128,-18.5 128,-0.5 15,-0.5"/>
<text text-anchor="middle" x="71.5" y="-7.3" font-family="Helvetica,sans-Serif" font-size="9.00">redis_ipc_send_result</text>
</a>
</g>
</g>
<!-- Node2&#45;&gt;Node5 -->
<g id="edge4" class="edge">
<title>Node2&#45;&gt;Node5</title>
<path fill="none" stroke="midnightblue" d="M191.2,-39.99C164.94,-33.25 132.23,-24.84 107.8,-18.57"/>
<polygon fill="midnightblue" stroke="midnightblue" points="190.37,-43.39 200.93,-42.49 192.11,-36.61 190.37,-43.39"/>
</g>
</g>
</svg>
