<?xml version="1.0" encoding="UTF-8" standalone="no"?>
<!DOCTYPE svg PUBLIC "-//W3C//DTD SVG 1.1//EN"
 "http://www.w3.org/Graphics/SVG/1.1/DTD/svg11.dtd">
<!-- Generated by graphviz version 2.47.1 (20210417.1919)
 -->
<!-- Title: src/redis_ipc.c Pages: 1 -->
<svg width="754pt" height="137pt"
 viewBox="0.00 0.00 754.17 137.00" xmlns="http://www.w3.org/2000/svg" xmlns:xlink="http://www.w3.org/1999/xlink">
<g id="graph0" class="graph" transform="scale(1 1) rotate(0) translate(4 133)">
<title>src/redis_ipc.c</title>
<polygon fill="white" stroke="transparent" points="-4,4 -4,-133 750.17,-133 750.17,4 -4,4"/>
<!-- Node1 -->
<g id="node1" class="node">
<title>Node1</title>
<g id="a_node1"><a xlink:title=" ">
<polygon fill="#bfbfbf" stroke="black" points="319.5,-110.5 319.5,-128.5 400.5,-128.5 400.5,-110.5 319.5,-110.5"/>
<text text-anchor="middle" x="360" y="-117.3" font-family="Helvetica,sans-Serif" font-size="9.00">src/redis_ipc.c</text>
</a>
</g>
</g>
<!-- Node2 -->
<g id="node2" class="node">
<title>Node2</title>
<g id="a_node2"><a xlink:title=" ">
<polygon fill="white" stroke="#bfbfbf" points="0,-55.5 0,-73.5 54,-73.5 54,-55.5 0,-55.5"/>
<text text-anchor="middle" x="27" y="-62.3" font-family="Helvetica,sans-Serif" font-size="9.00">unistd.h</text>
</a>
</g>
</g>
<!-- Node1&#45;&gt;Node2 -->
<g id="edge1" class="edge">
<title>Node1&#45;&gt;Node2</title>
<path fill="none" stroke="midnightblue" d="M319.47,-113.51C264.02,-106.45 161.25,-92.52 64.07,-74.06"/>
<polygon fill="midnightblue" stroke="midnightblue" points="64.56,-70.59 54.07,-72.15 63.24,-77.47 64.56,-70.59"/>
</g>
<!-- Node3 -->
<g id="node3" class="node">
<title>Node3</title>
<g id="a_node3"><a xlink:title=" ">
<polygon fill="white" stroke="#bfbfbf" points="72.5,-55.5 72.5,-73.5 119.5,-73.5 119.5,-55.5 72.5,-55.5"/>
<text text-anchor="middle" x="96" y="-62.3" font-family="Helvetica,sans-Serif" font-size="9.00">stdio.h</text>
</a>
</g>
</g>
<!-- Node1&#45;&gt;Node3 -->
<g id="edge2" class="edge">
<title>Node1&#45;&gt;Node3</title>
<path fill="none" stroke="midnightblue" d="M319.37,-111.46C275.18,-103.62 202.27,-90.2 129.95,-74.09"/>
<polygon fill="midnightblue" stroke="midnightblue" points="130.27,-70.58 119.75,-71.8 128.74,-77.41 130.27,-70.58"/>
</g>
<!-- Node4 -->
<g id="node4" class="node">
<title>Node4</title>
<g id="a_node4"><a xlink:title=" ">
<polygon fill="white" stroke="#bfbfbf" points="138,-55.5 138,-73.5 188,-73.5 188,-55.5 138,-55.5"/>
<text text-anchor="middle" x="163" y="-62.3" font-family="Helvetica,sans-Serif" font-size="9.00">stdlib.h</text>
</a>
</g>
</g>
<!-- Node1&#45;&gt;Node4 -->
<g id="edge3" class="edge">
<title>Node1&#45;&gt;Node4</title>
<path fill="none" stroke="midnightblue" d="M330.08,-110.45C294.66,-100.92 235.75,-85.07 198.18,-74.97"/>
<polygon fill="midnightblue" stroke="midnightblue" points="198.75,-71.49 188.19,-72.28 196.94,-78.25 198.75,-71.49"/>
</g>
<!-- Node5 -->
<g id="node5" class="node">
<title>Node5</title>
<g id="a_node5"><a xlink:title=" ">
<polygon fill="white" stroke="#bfbfbf" points="206.5,-55.5 206.5,-73.5 261.5,-73.5 261.5,-55.5 206.5,-55.5"/>
<text text-anchor="middle" x="234" y="-62.3" font-family="Helvetica,sans-Serif" font-size="9.00">stdarg.h</text>
</a>
</g>
</g>
<!-- Node1&#45;&gt;Node5 -->
<g id="edge4" class="edge">
<title>Node1&#45;&gt;Node5</title>
<path fill="none" stroke="midnightblue" d="M340.86,-110.45C320.05,-101.7 286.55,-87.61 262.61,-77.53"/>
<polygon fill="midnightblue" stroke="midnightblue" points="263.89,-74.28 253.32,-73.63 261.18,-80.73 263.89,-74.28"/>
</g>
<!-- Node6 -->
<g id="node6" class="node">
<title>Node6</title>
<g id="a_node6"><a xlink:title=" ">
<polygon fill="white" stroke="#bfbfbf" points="280,-55.5 280,-73.5 332,-73.5 332,-55.5 280,-55.5"/>
<text text-anchor="middle" x="306" y="-62.3" font-family="Helvetica,sans-Serif" font-size="9.00">string.h</text>
</a>
</g>
</g>
<!-- Node1&#45;&gt;Node6 -->
<g id="edge5" class="edge">
<title>Node1&#45;&gt;Node6</title>
<path fill="none" stroke="midnightblue" d="M351.56,-110.22C343.51,-102.32 331.19,-90.22 321.39,-80.61"/>
<polygon fill="midnightblue" stroke="midnightblue" points="323.79,-78.06 314.2,-73.55 318.89,-83.05 323.79,-78.06"/>
</g>
<!-- Node7 -->
<g id="node7" class="node">
<title>Node7</title>
<g id="a_node7"><a xlink:title=" ">
<polygon fill="white" stroke="#bfbfbf" points="478,-0.5 478,-18.5 546,-18.5 546,-0.5 478,-0.5"/>
<text text-anchor="middle" x="512" y="-7.3" font-family="Helvetica,sans-Serif" font-size="9.00">sys/types.h</text>
</a>
</g>
</g>
<!-- Node1&#45;&gt;Node7 -->
<g id="edge6" class="edge">
<title>Node1&#45;&gt;Node7</title>
<path fill="none" stroke="midnightblue" d="M360.15,-110.3C360.83,-96.93 364.11,-70.38 379,-55 402.33,-30.9 439.07,-19.86 468.02,-14.79"/>
<polygon fill="midnightblue" stroke="midnightblue" points="468.57,-18.25 477.91,-13.24 467.48,-11.33 468.57,-18.25"/>
</g>
<!-- Node8 -->
<g id="node8" class="node">
<title>Node8</title>
<g id="a_node8"><a xlink:title=" ">
<polygon fill="white" stroke="#bfbfbf" points="388,-55.5 388,-73.5 460,-73.5 460,-55.5 388,-55.5"/>
<text text-anchor="middle" x="424" y="-62.3" font-family="Helvetica,sans-Serif" font-size="9.00">sys/syscall.h</text>
</a>
</g>
</g>
<!-- Node1&#45;&gt;Node8 -->
<g id="edge7" class="edge">
<title>Node1&#45;&gt;Node8</title>
<path fill="none" stroke="midnightblue" d="M369.72,-110.45C379.4,-102.43 394.48,-89.95 406.29,-80.17"/>
<polygon fill="midnightblue" stroke="midnightblue" points="408.72,-82.7 414.19,-73.63 404.25,-77.31 408.72,-82.7"/>
</g>
<!-- Node9 -->
<g id="node9" class="node">
<title>Node9</title>
<g id="a_node9"><a xlink:title=" ">
<polygon fill="white" stroke="#bfbfbf" points="478.5,-55.5 478.5,-73.5 541.5,-73.5 541.5,-55.5 478.5,-55.5"/>
<text text-anchor="middle" x="510" y="-62.3" font-family="Helvetica,sans-Serif" font-size="9.00">sys/time.h</text>
</a>
</g>
</g>
<!-- Node1&#45;&gt;Node9 -->
<g id="edge8" class="edge">
<title>Node1&#45;&gt;Node9</title>
<path fill="none" stroke="midnightblue" d="M382.78,-110.45C408,-101.54 448.86,-87.1 477.45,-77"/>
<polygon fill="midnightblue" stroke="midnightblue" points="478.74,-80.26 487,-73.63 476.41,-73.66 478.74,-80.26"/>
</g>
<!-- Node10 -->
<g id="node10" class="node">
<title>Node10</title>
<g id="a_node10"><a xlink:title=" ">
<polygon fill="white" stroke="#bfbfbf" points="635.5,-0.5 635.5,-18.5 708.5,-18.5 708.5,-0.5 635.5,-0.5"/>
<text text-anchor="middle" x="672" y="-7.3" font-family="Helvetica,sans-Serif" font-size="9.00">json&#45;c/json.h</text>
</a>
</g>
</g>
<!-- Node1&#45;&gt;Node10 -->
<g id="edge9" class="edge">
<title>Node1&#45;&gt;Node10</title>
<path fill="none" stroke="midnightblue" d="M400.72,-116.75C494.35,-112.3 718.64,-99.12 741,-74 758.16,-54.72 727.61,-34.97 701.85,-22.72"/>
<polygon fill="midnightblue" stroke="midnightblue" points="703.23,-19.5 692.68,-18.56 700.34,-25.88 703.23,-19.5"/>
</g>
<!-- Node11 -->
<g id="node11" class="node">
<title>Node11</title>
<g id="a_node11"><a xlink:title=" ">
<polygon fill="white" stroke="#bfbfbf" points="642.5,-55.5 642.5,-73.5 731.5,-73.5 731.5,-55.5 642.5,-55.5"/>
<text text-anchor="middle" x="687" y="-62.3" font-family="Helvetica,sans-Serif" font-size="9.00">hiredis/hiredis.h</text>
</a>
</g>
</g>
<!-- Node1&#45;&gt;Node11 -->
<g id="edge10" class="edge">
<title>Node1&#45;&gt;Node11</title>
<path fill="none" stroke="midnightblue" d="M400.75,-111.89C459.18,-102.43 566.88,-84.97 632.22,-74.38"/>
<polygon fill="midnightblue" stroke="midnightblue" points="633.01,-77.8 642.33,-72.74 631.89,-70.89 633.01,-77.8"/>
</g>
<!-- Node12 -->
<g id="node12" class="node">
<title>Node12</title>
<g id="a_node12"><a xlink:href="redis__ipc_8h.html" target="_top" xlink:title=" ">
<polygon fill="white" stroke="black" points="559.5,-55.5 559.5,-73.5 624.5,-73.5 624.5,-55.5 559.5,-55.5"/>
<text text-anchor="middle" x="592" y="-62.3" font-family="Helvetica,sans-Serif" font-size="9.00">redis_ipc.h</text>
</a>
</g>
</g>
<!-- Node1&#45;&gt;Node12 -->
<g id="edge11" class="edge">
<title>Node1&#45;&gt;Node12</title>
<path fill="none" stroke="midnightblue" d="M395.24,-110.45C436.63,-100.99 505.27,-85.31 549.55,-75.2"/>
<polygon fill="midnightblue" stroke="midnightblue" points="550.47,-78.58 559.44,-72.94 548.91,-71.75 550.47,-78.58"/>
</g>
<!-- Node12&#45;&gt;Node7 -->
<g id="edge12" class="edge">
<title>Node12&#45;&gt;Node7</title>
<path fill="none" stroke="midnightblue" d="M579.85,-55.45C567.4,-47.2 547.8,-34.22 532.86,-24.32"/>
<polygon fill="midnightblue" stroke="midnightblue" points="534.53,-21.23 524.26,-18.63 530.67,-27.07 534.53,-21.23"/>
</g>
<!-- Node12&#45;&gt;Node10 -->
<g id="edge13" class="edge">
<title>Node12&#45;&gt;Node10</title>
<path fill="none" stroke="midnightblue" d="M604.15,-55.45C616.6,-47.2 636.2,-34.22 651.14,-24.32"/>
<polygon fill="midnightblue" stroke="midnightblue" points="653.33,-27.07 659.74,-18.63 649.47,-21.23 653.33,-27.07"/>
</g>
</g>
</svg>
