<?xml version="1.0" encoding="UTF-8" standalone="no"?>
<!DOCTYPE svg PUBLIC "-//W3C//DTD SVG 1.1//EN"
 "http://www.w3.org/Graphics/SVG/1.1/DTD/svg11.dtd">
<!-- Generated by graphviz version 2.43.0 (0)
 -->
<!-- Title: redis_command Pages: 1 -->
<svg width="483pt" height="64pt"
 viewBox="0.00 0.00 483.00 64.00" xmlns="http://www.w3.org/2000/svg" xmlns:xlink="http://www.w3.org/1999/xlink">
<g id="graph0" class="graph" transform="scale(1 1) rotate(0) translate(4 60)">
<title>redis_command</title>
<polygon fill="white" stroke="transparent" points="-4,4 -4,-60 479,-60 479,4 -4,4"/>
<!-- Node1 -->
<g id="node1" class="node">
<title>Node1</title>
<g id="a_node1"><a xlink:title=" ">
<polygon fill="#bfbfbf" stroke="black" points="0,-19.5 0,-37.5 89,-37.5 89,-19.5 0,-19.5"/>
<text text-anchor="middle" x="44.5" y="-26.3" font-family="Helvetica,sans-Serif" font-size="9.00">redis_command</text>
</a>
</g>
</g>
<!-- Node2 -->
<g id="node2" class="node">
<title>Node2</title>
<g id="a_node2"><a xlink:href="redis__ipc_8c.html#aa2a3ce97c0b6f3e83572446f3c92e541" target="_top" xlink:title=" ">
<polygon fill="white" stroke="black" points="277,-37.5 277,-55.5 384,-55.5 384,-37.5 277,-37.5"/>
<text text-anchor="middle" x="330.5" y="-44.3" font-family="Helvetica,sans-Serif" font-size="9.00">get_per_thread_info</text>
</a>
</g>
</g>
<!-- Node1&#45;&gt;Node2 -->
<g id="edge1" class="edge">
<title>Node1&#45;&gt;Node2</title>
<path fill="none" stroke="midnightblue" d="M75.78,-37.5C90.49,-41.42 108.51,-45.56 125,-47.5 172.3,-53.07 226.17,-52.53 266.75,-50.75"/>
<polygon fill="midnightblue" stroke="midnightblue" points="266.94,-54.25 276.76,-50.28 266.61,-47.26 266.94,-54.25"/>
</g>
<!-- Node4 -->
<g id="node4" class="node">
<title>Node4</title>
<g id="a_node4"><a xlink:href="redis__ipc_8c.html#a5e81feac565f9476476c5f042b2a5c9d" target="_top" xlink:title=" ">
<polygon fill="white" stroke="black" points="266,-0.5 266,-18.5 395,-18.5 395,-0.5 266,-0.5"/>
<text text-anchor="middle" x="330.5" y="-7.3" font-family="Helvetica,sans-Serif" font-size="9.00">stderr_debug_is_enabled</text>
</a>
</g>
</g>
<!-- Node1&#45;&gt;Node4 -->
<g id="edge3" class="edge">
<title>Node1&#45;&gt;Node4</title>
<path fill="none" stroke="midnightblue" d="M75.78,-19.5C90.49,-15.58 108.51,-11.44 125,-9.5 168.05,-4.43 216.55,-4.19 255.51,-5.34"/>
<polygon fill="midnightblue" stroke="midnightblue" points="255.61,-8.84 265.72,-5.67 255.84,-1.84 255.61,-8.84"/>
</g>
<!-- Node5 -->
<g id="node5" class="node">
<title>Node5</title>
<g id="a_node5"><a xlink:href="redis__ipc_8c.html#ae88037651d88f63c62d32afd7e0fccf2" target="_top" xlink:title=" ">
<polygon fill="white" stroke="black" points="125,-19.5 125,-37.5 230,-37.5 230,-19.5 125,-19.5"/>
<text text-anchor="middle" x="177.5" y="-26.3" font-family="Helvetica,sans-Serif" font-size="9.00">validate_redis_reply</text>
</a>
</g>
</g>
<!-- Node1&#45;&gt;Node5 -->
<g id="edge4" class="edge">
<title>Node1&#45;&gt;Node5</title>
<path fill="none" stroke="midnightblue" d="M89.12,-28.5C97.36,-28.5 106.12,-28.5 114.79,-28.5"/>
<polygon fill="midnightblue" stroke="midnightblue" points="114.89,-32 124.89,-28.5 114.89,-25 114.89,-32"/>
</g>
<!-- Node3 -->
<g id="node3" class="node">
<title>Node3</title>
<g id="a_node3"><a xlink:href="redis__ipc_8c.html#af0449193b7cded86e600f052d0aabd39" target="_top" xlink:title=" ">
<polygon fill="white" stroke="black" points="431,-37.5 431,-55.5 475,-55.5 475,-37.5 431,-37.5"/>
<text text-anchor="middle" x="453" y="-44.3" font-family="Helvetica,sans-Serif" font-size="9.00">gettid</text>
</a>
</g>
</g>
<!-- Node2&#45;&gt;Node3 -->
<g id="edge2" class="edge">
<title>Node2&#45;&gt;Node3</title>
<path fill="none" stroke="midnightblue" d="M384,-46.5C396.5,-46.5 409.45,-46.5 420.65,-46.5"/>
<polygon fill="midnightblue" stroke="midnightblue" points="420.78,-50 430.78,-46.5 420.78,-43 420.78,-50"/>
</g>
<!-- Node5&#45;&gt;Node2 -->
<g id="edge5" class="edge">
<title>Node5&#45;&gt;Node2</title>
<path fill="none" stroke="midnightblue" d="M230.04,-34.64C241.86,-36.05 254.54,-37.56 266.77,-39.02"/>
<polygon fill="midnightblue" stroke="midnightblue" points="266.56,-42.52 276.91,-40.23 267.39,-35.57 266.56,-42.52"/>
</g>
<!-- Node5&#45;&gt;Node4 -->
<g id="edge6" class="edge">
<title>Node5&#45;&gt;Node4</title>
<path fill="none" stroke="midnightblue" d="M230.04,-22.01C238.33,-20.97 247.05,-19.87 255.74,-18.78"/>
<polygon fill="midnightblue" stroke="midnightblue" points="256.42,-22.22 265.9,-17.5 255.54,-15.28 256.42,-22.22"/>
</g>
</g>
</svg>
