<?xml version="1.0" encoding="UTF-8" standalone="no"?>
<!DOCTYPE svg PUBLIC "-//W3C//DTD SVG 1.1//EN"
 "http://www.w3.org/Graphics/SVG/1.1/DTD/svg11.dtd">
<!-- Generated by graphviz version 2.43.0 (0)
 -->
<!-- Title: stderr_debug_is_enabled Pages: 1 -->
<svg width="946pt" height="702pt"
 viewBox="0.00 0.00 946.00 702.00" xmlns="http://www.w3.org/2000/svg" xmlns:xlink="http://www.w3.org/1999/xlink">
<g id="graph0" class="graph" transform="scale(1 1) rotate(0) translate(4 698)">
<title>stderr_debug_is_enabled</title>
<polygon fill="white" stroke="transparent" points="-4,4 -4,-698 942,-698 942,4 -4,4"/>
<!-- Node1 -->
<g id="node1" class="node">
<title>Node1</title>
<g id="a_node1"><a xlink:title=" ">
<polygon fill="#bfbfbf" stroke="black" points="809,-411.5 809,-429.5 938,-429.5 938,-411.5 809,-411.5"/>
<text text-anchor="middle" x="873.5" y="-418.3" font-family="Helvetica,sans-Serif" font-size="9.00">stderr_debug_is_enabled</text>
</a>
</g>
</g>
<!-- Node2 -->
<g id="node2" class="node">
<title>Node2</title>
<g id="a_node2"><a xlink:href="redis__ipc_8c.html#aefb4508c1883e7d4345b206076b19e5d" target="_top" xlink:title=" ">
<polygon fill="white" stroke="black" points="507,-392.5 507,-410.5 596,-410.5 596,-392.5 507,-392.5"/>
<text text-anchor="middle" x="551.5" y="-399.3" font-family="Helvetica,sans-Serif" font-size="9.00">redis_command</text>
</a>
</g>
</g>
<!-- Node1&#45;&gt;Node2 -->
<g id="edge1" class="edge">
<title>Node1&#45;&gt;Node2</title>
<path fill="none" stroke="midnightblue" d="M798.93,-423.92C756.23,-425.05 701.47,-425.04 653,-420.5 632.31,-418.56 609.55,-414.43 590.92,-410.51"/>
<polygon fill="midnightblue" stroke="midnightblue" points="799.06,-427.42 808.96,-423.63 798.86,-420.42 799.06,-427.42"/>
</g>
<!-- Node3 -->
<g id="node3" class="node">
<title>Node3</title>
<g id="a_node3"><a xlink:href="redis__ipc_8c.html#aad35a453c0c1dea3338257c3e6841afe" target="_top" xlink:title=" ">
<polygon fill="white" stroke="black" points="362,-468.5 362,-486.5 422,-486.5 422,-468.5 362,-468.5"/>
<text text-anchor="middle" x="392" y="-475.3" font-family="Helvetica,sans-Serif" font-size="9.00">redis_pop</text>
</a>
</g>
</g>
<!-- Node1&#45;&gt;Node3 -->
<g id="edge35" class="edge">
<title>Node1&#45;&gt;Node3</title>
<path fill="none" stroke="midnightblue" d="M809.6,-431.12C797.47,-433.03 784.85,-434.91 773,-436.5 642.46,-454.03 485.89,-469.02 422.14,-474.88"/>
<polygon fill="midnightblue" stroke="midnightblue" points="810.32,-434.55 819.65,-429.52 809.22,-427.64 810.32,-434.55"/>
</g>
<!-- Node11 -->
<g id="node11" class="node">
<title>Node11</title>
<g id="a_node11"><a xlink:href="redis__ipc_8c.html#a94fc3b660886cc8cc8e69692e0f5ca78" target="_top" xlink:title=" ">
<polygon fill="white" stroke="black" points="347.5,-589.5 347.5,-607.5 436.5,-607.5 436.5,-589.5 347.5,-589.5"/>
<text text-anchor="middle" x="392" y="-596.3" font-family="Helvetica,sans-Serif" font-size="9.00">redis_read_hash</text>
</a>
</g>
</g>
<!-- Node1&#45;&gt;Node11 -->
<g id="edge36" class="edge">
<title>Node1&#45;&gt;Node11</title>
<path fill="none" stroke="midnightblue" d="M853.59,-435.85C834.32,-450.84 803.09,-473.39 773,-487.5 657.25,-541.77 509.1,-575.77 436.74,-590.31"/>
<polygon fill="midnightblue" stroke="midnightblue" points="855.88,-438.51 861.55,-429.56 851.53,-433.02 855.88,-438.51"/>
</g>
<!-- Node14 -->
<g id="node14" class="node">
<title>Node14</title>
<g id="a_node14"><a xlink:href="redis__ipc_8c.html#abbcf0019b124792da8357b2fa972e11a" target="_top" xlink:title=" ">
<polygon fill="white" stroke="black" points="335.5,-541.5 335.5,-559.5 448.5,-559.5 448.5,-541.5 335.5,-541.5"/>
<text text-anchor="middle" x="392" y="-548.3" font-family="Helvetica,sans-Serif" font-size="9.00">redis_read_hash_field</text>
</a>
</g>
</g>
<!-- Node1&#45;&gt;Node14 -->
<g id="edge37" class="edge">
<title>Node1&#45;&gt;Node14</title>
<path fill="none" stroke="midnightblue" d="M840.69,-433.4C821.32,-440.99 795.95,-450.45 773,-457.5 653.05,-494.34 508.32,-526.45 437.05,-541.46"/>
<polygon fill="midnightblue" stroke="midnightblue" points="842.22,-436.56 850.23,-429.63 839.64,-430.05 842.22,-436.56"/>
</g>
<!-- Node26 -->
<g id="node26" class="node">
<title>Node26</title>
<g id="a_node26"><a xlink:href="redis__ipc_8c.html#a73fec3f4f77b193da7b8231788ee84f2" target="_top" xlink:title=" ">
<polygon fill="white" stroke="black" points="486,-270.5 486,-288.5 617,-288.5 617,-270.5 486,-270.5"/>
<text text-anchor="middle" x="551.5" y="-277.3" font-family="Helvetica,sans-Serif" font-size="9.00">redis_command_from_list</text>
</a>
</g>
</g>
<!-- Node1&#45;&gt;Node26 -->
<g id="edge29" class="edge">
<title>Node1&#45;&gt;Node26</title>
<path fill="none" stroke="midnightblue" d="M863.74,-402.31C849.23,-374.44 817.33,-321.94 773,-298.5 725.1,-273.18 663.08,-269.99 617.02,-272.23"/>
<polygon fill="midnightblue" stroke="midnightblue" points="860.67,-404.01 868.29,-411.37 866.93,-400.86 860.67,-404.01"/>
</g>
<!-- Node30 -->
<g id="node30" class="node">
<title>Node30</title>
<g id="a_node30"><a xlink:href="redis__ipc_8h.html#ac678ffdefda8e893d287e04d05e65347" target="_top" xlink:title=" ">
<polygon fill="white" stroke="black" points="653,-345.5 653,-373.5 773,-373.5 773,-345.5 653,-345.5"/>
<text text-anchor="start" x="661" y="-362.3" font-family="Helvetica,sans-Serif" font-size="9.00">redis_ipc_get_message</text>
<text text-anchor="middle" x="713" y="-352.3" font-family="Helvetica,sans-Serif" font-size="9.00">_blocking</text>
</a>
</g>
</g>
<!-- Node1&#45;&gt;Node30 -->
<g id="edge33" class="edge">
<title>Node1&#45;&gt;Node30</title>
<path fill="none" stroke="midnightblue" d="M839.69,-407.87C813.67,-397.86 777.33,-383.87 750.42,-373.52"/>
<polygon fill="midnightblue" stroke="midnightblue" points="838.52,-411.17 849.11,-411.5 841.04,-404.64 838.52,-411.17"/>
</g>
<!-- Node31 -->
<g id="node31" class="node">
<title>Node31</title>
<g id="a_node31"><a xlink:href="redis__ipc_8h.html#ad761c2631d54b43ea0a5426813bc4dd1" target="_top" xlink:title=" ">
<polygon fill="white" stroke="black" points="675.5,-308.5 675.5,-326.5 750.5,-326.5 750.5,-308.5 675.5,-308.5"/>
<text text-anchor="middle" x="713" y="-315.3" font-family="Helvetica,sans-Serif" font-size="9.00">redis_ipc_init</text>
</a>
</g>
</g>
<!-- Node1&#45;&gt;Node31 -->
<g id="edge34" class="edge">
<title>Node1&#45;&gt;Node31</title>
<path fill="none" stroke="midnightblue" d="M857.09,-404.08C838.69,-385.34 806.21,-354.92 773,-336.5 765.85,-332.53 757.74,-329.25 749.88,-326.59"/>
<polygon fill="midnightblue" stroke="midnightblue" points="854.61,-406.55 864.07,-411.32 859.65,-401.69 854.61,-406.55"/>
</g>
<!-- Node32 -->
<g id="node32" class="node">
<title>Node32</title>
<g id="a_node32"><a xlink:href="redis__ipc_8c.html#ae88037651d88f63c62d32afd7e0fccf2" target="_top" xlink:title=" ">
<polygon fill="white" stroke="black" points="660.5,-392.5 660.5,-410.5 765.5,-410.5 765.5,-392.5 660.5,-392.5"/>
<text text-anchor="middle" x="713" y="-399.3" font-family="Helvetica,sans-Serif" font-size="9.00">validate_redis_reply</text>
</a>
</g>
</g>
<!-- Node1&#45;&gt;Node32 -->
<g id="edge38" class="edge">
<title>Node1&#45;&gt;Node32</title>
<path fill="none" stroke="midnightblue" d="M798.8,-411.67C787.68,-410.33 776.42,-408.98 765.89,-407.72"/>
<polygon fill="midnightblue" stroke="midnightblue" points="798.6,-415.17 808.95,-412.88 799.43,-408.22 798.6,-415.17"/>
</g>
<!-- Node2&#45;&gt;Node3 -->
<g id="edge2" class="edge">
<title>Node2&#45;&gt;Node3</title>
<path fill="none" stroke="midnightblue" d="M522.57,-414.98C490.59,-430.41 439.12,-455.25 411.66,-468.5"/>
<polygon fill="midnightblue" stroke="midnightblue" points="524.33,-418.01 531.81,-410.52 521.29,-411.71 524.33,-418.01"/>
</g>
<!-- Node6 -->
<g id="node6" class="node">
<title>Node6</title>
<g id="a_node6"><a xlink:href="redis__ipc_8c.html#ab3dc5609833c201c4e9ebaa5e2e70a2f" target="_top" xlink:title=" ">
<polygon fill="white" stroke="black" points="354,-336.5 354,-354.5 430,-354.5 430,-336.5 354,-336.5"/>
<text text-anchor="middle" x="392" y="-343.3" font-family="Helvetica,sans-Serif" font-size="9.00">redis_publish</text>
</a>
</g>
</g>
<!-- Node2&#45;&gt;Node6 -->
<g id="edge5" class="edge">
<title>Node2&#45;&gt;Node6</title>
<path fill="none" stroke="midnightblue" d="M515.36,-389.01C485.95,-378.55 444.67,-363.87 418.38,-354.53"/>
<polygon fill="midnightblue" stroke="midnightblue" points="514.25,-392.33 524.84,-392.38 516.59,-385.73 514.25,-392.33"/>
</g>
<!-- Node10 -->
<g id="node10" class="node">
<title>Node10</title>
<g id="a_node10"><a xlink:href="redis__ipc_8c.html#ae826a119ee7ca11d9636c6f34b9a29e9" target="_top" xlink:title=" ">
<polygon fill="white" stroke="black" points="206,-168.5 206,-186.5 271,-186.5 271,-168.5 206,-168.5"/>
<text text-anchor="middle" x="238.5" y="-175.3" font-family="Helvetica,sans-Serif" font-size="9.00">redis_push</text>
</a>
</g>
</g>
<!-- Node2&#45;&gt;Node10 -->
<g id="edge11" class="edge">
<title>Node2&#45;&gt;Node10</title>
<path fill="none" stroke="midnightblue" d="M539.1,-383.35C514.12,-343.68 456.3,-252.4 450,-247.5 395.89,-205.41 315.26,-188.01 271.15,-181.31"/>
<polygon fill="midnightblue" stroke="midnightblue" points="536.4,-385.64 544.69,-392.24 542.33,-381.91 536.4,-385.64"/>
</g>
<!-- Node2&#45;&gt;Node11 -->
<g id="edge14" class="edge">
<title>Node2&#45;&gt;Node11</title>
<path fill="none" stroke="midnightblue" d="M543.4,-420.24C529.83,-453.94 497.3,-525.34 450,-569.5 440.83,-578.06 428.65,-584.72 417.9,-589.48"/>
<polygon fill="midnightblue" stroke="midnightblue" points="546.75,-421.3 547.13,-410.71 540.23,-418.75 546.75,-421.3"/>
</g>
<!-- Node2&#45;&gt;Node14 -->
<g id="edge17" class="edge">
<title>Node2&#45;&gt;Node14</title>
<path fill="none" stroke="midnightblue" d="M533.1,-417.96C499.99,-449.28 428.92,-516.52 402.85,-541.18"/>
<polygon fill="midnightblue" stroke="midnightblue" points="535.79,-420.24 540.65,-410.82 530.98,-415.15 535.79,-420.24"/>
</g>
<!-- Node17 -->
<g id="node17" class="node">
<title>Node17</title>
<g id="a_node17"><a xlink:href="redis__ipc_8c.html#a420fcd64722043e4bc0bb7f61a29d588" target="_top" xlink:title=" ">
<polygon fill="white" stroke="black" points="349,-392.5 349,-410.5 435,-410.5 435,-392.5 349,-392.5"/>
<text text-anchor="middle" x="392" y="-399.3" font-family="Helvetica,sans-Serif" font-size="9.00">redis_subscribe</text>
</a>
</g>
</g>
<!-- Node2&#45;&gt;Node17 -->
<g id="edge20" class="edge">
<title>Node2&#45;&gt;Node17</title>
<path fill="none" stroke="midnightblue" d="M496.38,-401.5C476.3,-401.5 453.85,-401.5 435.01,-401.5"/>
<polygon fill="midnightblue" stroke="midnightblue" points="496.63,-405 506.63,-401.5 496.63,-398 496.63,-405"/>
</g>
<!-- Node20 -->
<g id="node20" class="node">
<title>Node20</title>
<g id="a_node20"><a xlink:href="redis__ipc_8c.html#a40d3af6ed926711313712685503a1c91" target="_top" xlink:title=" ">
<polygon fill="white" stroke="black" points="343,-257.5 343,-275.5 441,-275.5 441,-257.5 343,-257.5"/>
<text text-anchor="middle" x="392" y="-264.3" font-family="Helvetica,sans-Serif" font-size="9.00">redis_unsubscribe</text>
</a>
</g>
</g>
<!-- Node2&#45;&gt;Node20 -->
<g id="edge23" class="edge">
<title>Node2&#45;&gt;Node20</title>
<path fill="none" stroke="midnightblue" d="M532.32,-385.92C499.18,-357.51 429.93,-298.16 403.53,-275.53"/>
<polygon fill="midnightblue" stroke="midnightblue" points="530.05,-388.58 539.92,-392.43 534.61,-383.27 530.05,-388.58"/>
</g>
<!-- Node23 -->
<g id="node23" class="node">
<title>Node23</title>
<g id="a_node23"><a xlink:href="redis__ipc_8c.html#ad0c6708404743ef74dddacc617fb8b8e" target="_top" xlink:title=" ">
<polygon fill="white" stroke="black" points="334,-126.5 334,-144.5 450,-144.5 450,-126.5 334,-126.5"/>
<text text-anchor="middle" x="392" y="-133.3" font-family="Helvetica,sans-Serif" font-size="9.00">redis_write_hash_field</text>
</a>
</g>
</g>
<!-- Node2&#45;&gt;Node23 -->
<g id="edge26" class="edge">
<title>Node2&#45;&gt;Node23</title>
<path fill="none" stroke="midnightblue" d="M537.9,-384.04C523.82,-363.93 501.03,-329.55 486,-297.5 464.52,-251.69 477.18,-232.18 450,-189.5 438.28,-171.1 418.95,-154.61 406.09,-144.82"/>
<polygon fill="midnightblue" stroke="midnightblue" points="535.22,-386.32 543.87,-392.45 540.93,-382.27 535.22,-386.32"/>
</g>
<!-- Node4 -->
<g id="node4" class="node">
<title>Node4</title>
<g id="a_node4"><a xlink:href="redis__ipc_8h.html#a6961dec4572f2b0b9f52ae09ae663728" target="_top" xlink:title=" ">
<polygon fill="white" stroke="black" points="0,-439.5 0,-467.5 143,-467.5 143,-439.5 0,-439.5"/>
<text text-anchor="start" x="8" y="-456.3" font-family="Helvetica,sans-Serif" font-size="9.00">redis_ipc_receive_command</text>
<text text-anchor="middle" x="71.5" y="-446.3" font-family="Helvetica,sans-Serif" font-size="9.00">_blocking</text>
</a>
</g>
</g>
<!-- Node3&#45;&gt;Node4 -->
<g id="edge3" class="edge">
<title>Node3&#45;&gt;Node4</title>
<path fill="none" stroke="midnightblue" d="M351.98,-485.56C309.23,-493.12 238.77,-501.84 179,-491.5 152.5,-486.91 123.86,-476.35 102.96,-467.53"/>
<polygon fill="midnightblue" stroke="midnightblue" points="352.77,-488.97 361.97,-483.73 351.5,-482.09 352.77,-488.97"/>
</g>
<!-- Node5 -->
<g id="node5" class="node">
<title>Node5</title>
<g id="a_node5"><a xlink:href="redis__ipc_8h.html#a696ecebb5df3f171ed7b6adf682c83a2" target="_top" xlink:title=" ">
<polygon fill="white" stroke="black" points="5,-331.5 5,-359.5 138,-359.5 138,-331.5 5,-331.5"/>
<text text-anchor="start" x="13" y="-348.3" font-family="Helvetica,sans-Serif" font-size="9.00">redis_ipc_send_command</text>
<text text-anchor="middle" x="71.5" y="-338.3" font-family="Helvetica,sans-Serif" font-size="9.00">_blocking</text>
</a>
</g>
</g>
<!-- Node3&#45;&gt;Node5 -->
<g id="edge4" class="edge">
<title>Node3&#45;&gt;Node5</title>
<path fill="none" stroke="midnightblue" d="M351.79,-482.01C307.5,-485.33 234.39,-485.41 179,-458.5 155.36,-447.02 105.94,-387.46 83.73,-359.73"/>
<polygon fill="midnightblue" stroke="midnightblue" points="352.19,-485.48 361.86,-481.16 351.6,-478.51 352.19,-485.48"/>
</g>
<!-- Node7 -->
<g id="node7" class="node">
<title>Node7</title>
<g id="a_node7"><a xlink:href="redis__ipc_8h.html#a66cdf2ae760d1acb487dd82c1392c12f" target="_top" xlink:title=" ">
<polygon fill="white" stroke="black" points="180.5,-336.5 180.5,-354.5 296.5,-354.5 296.5,-336.5 180.5,-336.5"/>
<text text-anchor="middle" x="238.5" y="-343.3" font-family="Helvetica,sans-Serif" font-size="9.00">redis_ipc_send_debug</text>
</a>
</g>
</g>
<!-- Node6&#45;&gt;Node7 -->
<g id="edge6" class="edge">
<title>Node6&#45;&gt;Node7</title>
<path fill="none" stroke="midnightblue" d="M343.88,-345.5C328.9,-345.5 312.16,-345.5 296.55,-345.5"/>
<polygon fill="midnightblue" stroke="midnightblue" points="343.94,-349 353.94,-345.5 343.94,-342 343.94,-349"/>
</g>
<!-- Node9 -->
<g id="node9" class="node">
<title>Node9</title>
<g id="a_node9"><a xlink:href="redis__ipc_8h.html#a9040f6af2f364ef8da41175eb6073693" target="_top" xlink:title=" ">
<polygon fill="white" stroke="black" points="182,-299.5 182,-317.5 295,-317.5 295,-299.5 182,-299.5"/>
<text text-anchor="middle" x="238.5" y="-306.3" font-family="Helvetica,sans-Serif" font-size="9.00">redis_ipc_send_event</text>
</a>
</g>
</g>
<!-- Node6&#45;&gt;Node9 -->
<g id="edge10" class="edge">
<title>Node6&#45;&gt;Node9</title>
<path fill="none" stroke="midnightblue" d="M344.22,-334.08C322.42,-328.75 296.86,-322.51 276.44,-317.52"/>
<polygon fill="midnightblue" stroke="midnightblue" points="343.39,-337.48 353.94,-336.45 345.05,-330.68 343.39,-337.48"/>
</g>
<!-- Node7&#45;&gt;Node4 -->
<g id="edge7" class="edge">
<title>Node7&#45;&gt;Node4</title>
<path fill="none" stroke="midnightblue" d="M192.58,-358.12C187.88,-360.01 183.27,-362.14 179,-364.5 141.68,-385.14 105.05,-419.78 86,-439.2"/>
<polygon fill="midnightblue" stroke="midnightblue" points="194.08,-361.29 202.25,-354.54 191.65,-354.73 194.08,-361.29"/>
</g>
<!-- Node7&#45;&gt;Node5 -->
<g id="edge8" class="edge">
<title>Node7&#45;&gt;Node5</title>
<path fill="none" stroke="midnightblue" d="M170.23,-345.5C159.63,-345.5 148.69,-345.5 138.13,-345.5"/>
<polygon fill="midnightblue" stroke="midnightblue" points="170.25,-349 180.25,-345.5 170.25,-342 170.25,-349"/>
</g>
<!-- Node8 -->
<g id="node8" class="node">
<title>Node8</title>
<g id="a_node8"><a xlink:href="redis__ipc_8h.html#aecff1f4edcb2ebf0654d0fff21e334a5" target="_top" xlink:title=" ">
<polygon fill="white" stroke="black" points="15,-231.5 15,-249.5 128,-249.5 128,-231.5 15,-231.5"/>
<text text-anchor="middle" x="71.5" y="-238.3" font-family="Helvetica,sans-Serif" font-size="9.00">redis_ipc_send_result</text>
</a>
</g>
</g>
<!-- Node7&#45;&gt;Node8 -->
<g id="edge9" class="edge">
<title>Node7&#45;&gt;Node8</title>
<path fill="none" stroke="midnightblue" d="M190.82,-332.96C186.74,-331.32 182.74,-329.5 179,-327.5 138.38,-305.74 98.48,-267.34 81.3,-249.76"/>
<polygon fill="midnightblue" stroke="midnightblue" points="189.83,-336.32 200.42,-336.47 192.23,-329.75 189.83,-336.32"/>
</g>
<!-- Node10&#45;&gt;Node5 -->
<g id="edge12" class="edge">
<title>Node10&#45;&gt;Node5</title>
<path fill="none" stroke="midnightblue" d="M196.2,-185.87C190.04,-188.3 184.06,-191.45 179,-195.5 153.82,-215.65 161.21,-231.89 143,-258.5 124.56,-285.45 99.96,-314.5 85.23,-331.28"/>
<polygon fill="midnightblue" stroke="midnightblue" points="197.57,-189.1 205.93,-182.59 195.34,-182.46 197.57,-189.1"/>
</g>
<!-- Node10&#45;&gt;Node8 -->
<g id="edge13" class="edge">
<title>Node10&#45;&gt;Node8</title>
<path fill="none" stroke="midnightblue" d="M196.33,-189.59C190.48,-191.48 184.57,-193.47 179,-195.5 148.26,-206.69 113.49,-221.88 92.28,-231.43"/>
<polygon fill="midnightblue" stroke="midnightblue" points="197.54,-192.88 206.03,-186.54 195.45,-186.2 197.54,-192.88"/>
</g>
<!-- Node12 -->
<g id="node12" class="node">
<title>Node12</title>
<g id="a_node12"><a xlink:href="redis__ipc_8h.html#a3cfe2b5851e3cf7ef8acaafa0f409fae" target="_top" xlink:title=" ">
<polygon fill="white" stroke="black" points="180,-638.5 180,-656.5 297,-656.5 297,-638.5 180,-638.5"/>
<text text-anchor="middle" x="238.5" y="-645.3" font-family="Helvetica,sans-Serif" font-size="9.00">redis_ipc_read_setting</text>
</a>
</g>
</g>
<!-- Node11&#45;&gt;Node12 -->
<g id="edge15" class="edge">
<title>Node11&#45;&gt;Node12</title>
<path fill="none" stroke="midnightblue" d="M354.56,-610.86C337.43,-616.62 316.7,-623.51 298,-629.5 288.69,-632.48 278.52,-635.65 269.3,-638.48"/>
<polygon fill="midnightblue" stroke="midnightblue" points="355.83,-614.13 364.19,-607.62 353.6,-607.49 355.83,-614.13"/>
</g>
<!-- Node13 -->
<g id="node13" class="node">
<title>Node13</title>
<g id="a_node13"><a xlink:href="redis__ipc_8h.html#ada50e7500b7b76526f3dbe186d330335" target="_top" xlink:title=" ">
<polygon fill="white" stroke="black" points="182,-675.5 182,-693.5 295,-693.5 295,-675.5 182,-675.5"/>
<text text-anchor="middle" x="238.5" y="-682.3" font-family="Helvetica,sans-Serif" font-size="9.00">redis_ipc_read_status</text>
</a>
</g>
</g>
<!-- Node11&#45;&gt;Node13 -->
<g id="edge16" class="edge">
<title>Node11&#45;&gt;Node13</title>
<path fill="none" stroke="midnightblue" d="M373.01,-614.5C355.1,-629.71 326.27,-652.32 298,-666.5 290.97,-670.03 283.12,-673.02 275.5,-675.49"/>
<polygon fill="midnightblue" stroke="midnightblue" points="375.6,-616.89 380.88,-607.7 371.02,-611.59 375.6,-616.89"/>
</g>
<!-- Node15 -->
<g id="node15" class="node">
<title>Node15</title>
<g id="a_node15"><a xlink:href="redis__ipc_8h.html#a6afa8c8738fc3e50675c93724dfe2236" target="_top" xlink:title=" ">
<polygon fill="white" stroke="black" points="180,-544.5 180,-572.5 297,-572.5 297,-544.5 180,-544.5"/>
<text text-anchor="start" x="188" y="-561.3" font-family="Helvetica,sans-Serif" font-size="9.00">redis_ipc_read_setting</text>
<text text-anchor="middle" x="238.5" y="-551.3" font-family="Helvetica,sans-Serif" font-size="9.00">_field</text>
</a>
</g>
</g>
<!-- Node14&#45;&gt;Node15 -->
<g id="edge18" class="edge">
<title>Node14&#45;&gt;Node15</title>
<path fill="none" stroke="midnightblue" d="M325.35,-553.97C315.94,-554.46 306.32,-554.97 297.08,-555.46"/>
<polygon fill="midnightblue" stroke="midnightblue" points="325.65,-557.46 335.45,-553.43 325.28,-550.47 325.65,-557.46"/>
</g>
<!-- Node16 -->
<g id="node16" class="node">
<title>Node16</title>
<g id="a_node16"><a xlink:href="redis__ipc_8h.html#ad71c568720d1ca8e41c247516841eac4" target="_top" xlink:title=" ">
<polygon fill="white" stroke="black" points="182,-591.5 182,-619.5 295,-619.5 295,-591.5 182,-591.5"/>
<text text-anchor="start" x="190" y="-608.3" font-family="Helvetica,sans-Serif" font-size="9.00">redis_ipc_read_status</text>
<text text-anchor="middle" x="238.5" y="-598.3" font-family="Helvetica,sans-Serif" font-size="9.00">_field</text>
</a>
</g>
</g>
<!-- Node14&#45;&gt;Node16 -->
<g id="edge19" class="edge">
<title>Node14&#45;&gt;Node16</title>
<path fill="none" stroke="midnightblue" d="M356.49,-563.03C333.17,-571.49 302.36,-582.68 278.21,-591.45"/>
<polygon fill="midnightblue" stroke="midnightblue" points="357.78,-566.28 365.98,-559.58 355.39,-559.7 357.78,-566.28"/>
</g>
<!-- Node18 -->
<g id="node18" class="node">
<title>Node18</title>
<g id="a_node18"><a xlink:href="redis__ipc_8h.html#ac22692af167c24369831321eb5a1aa20" target="_top" xlink:title=" ">
<polygon fill="white" stroke="black" points="186.5,-373.5 186.5,-401.5 290.5,-401.5 290.5,-373.5 186.5,-373.5"/>
<text text-anchor="start" x="194.5" y="-390.3" font-family="Helvetica,sans-Serif" font-size="9.00">redis_ipc_subscribe</text>
<text text-anchor="middle" x="238.5" y="-380.3" font-family="Helvetica,sans-Serif" font-size="9.00">_debug</text>
</a>
</g>
</g>
<!-- Node17&#45;&gt;Node18 -->
<g id="edge21" class="edge">
<title>Node17&#45;&gt;Node18</title>
<path fill="none" stroke="midnightblue" d="M338.8,-396.68C323.21,-395.24 306.15,-393.66 290.63,-392.22"/>
<polygon fill="midnightblue" stroke="midnightblue" points="338.52,-400.17 348.8,-397.6 339.16,-393.19 338.52,-400.17"/>
</g>
<!-- Node19 -->
<g id="node19" class="node">
<title>Node19</title>
<g id="a_node19"><a xlink:href="redis__ipc_8h.html#a26390ed4efc19636cc62fc3adf9e3278" target="_top" xlink:title=" ">
<polygon fill="white" stroke="black" points="186.5,-420.5 186.5,-448.5 290.5,-448.5 290.5,-420.5 186.5,-420.5"/>
<text text-anchor="start" x="194.5" y="-437.3" font-family="Helvetica,sans-Serif" font-size="9.00">redis_ipc_subscribe</text>
<text text-anchor="middle" x="238.5" y="-427.3" font-family="Helvetica,sans-Serif" font-size="9.00">_events</text>
</a>
</g>
</g>
<!-- Node17&#45;&gt;Node19 -->
<g id="edge22" class="edge">
<title>Node17&#45;&gt;Node19</title>
<path fill="none" stroke="midnightblue" d="M339.49,-412.72C323.7,-416.16 306.34,-419.94 290.58,-423.37"/>
<polygon fill="midnightblue" stroke="midnightblue" points="340.58,-416.07 349.6,-410.52 339.09,-409.23 340.58,-416.07"/>
</g>
<!-- Node21 -->
<g id="node21" class="node">
<title>Node21</title>
<g id="a_node21"><a xlink:href="redis__ipc_8h.html#a526138f5c01d96f3174e41a8aaa4d8fa" target="_top" xlink:title=" ">
<polygon fill="white" stroke="black" points="180.5,-205.5 180.5,-233.5 296.5,-233.5 296.5,-205.5 180.5,-205.5"/>
<text text-anchor="start" x="188.5" y="-222.3" font-family="Helvetica,sans-Serif" font-size="9.00">redis_ipc_unsubscribe</text>
<text text-anchor="middle" x="238.5" y="-212.3" font-family="Helvetica,sans-Serif" font-size="9.00">_debug</text>
</a>
</g>
</g>
<!-- Node20&#45;&gt;Node21 -->
<g id="edge24" class="edge">
<title>Node20&#45;&gt;Node21</title>
<path fill="none" stroke="midnightblue" d="M352.11,-254.44C331.54,-248.05 306.17,-240.18 284.72,-233.53"/>
<polygon fill="midnightblue" stroke="midnightblue" points="351.2,-257.82 361.79,-257.44 353.28,-251.13 351.2,-257.82"/>
</g>
<!-- Node22 -->
<g id="node22" class="node">
<title>Node22</title>
<g id="a_node22"><a xlink:href="redis__ipc_8h.html#ab0de58de598a36be8c674c2f44a62c60" target="_top" xlink:title=" ">
<polygon fill="white" stroke="black" points="180.5,-252.5 180.5,-280.5 296.5,-280.5 296.5,-252.5 180.5,-252.5"/>
<text text-anchor="start" x="188.5" y="-269.3" font-family="Helvetica,sans-Serif" font-size="9.00">redis_ipc_unsubscribe</text>
<text text-anchor="middle" x="238.5" y="-259.3" font-family="Helvetica,sans-Serif" font-size="9.00">_events</text>
</a>
</g>
</g>
<!-- Node20&#45;&gt;Node22 -->
<g id="edge25" class="edge">
<title>Node20&#45;&gt;Node22</title>
<path fill="none" stroke="midnightblue" d="M332.49,-266.5C320.72,-266.5 308.37,-266.5 296.65,-266.5"/>
<polygon fill="midnightblue" stroke="midnightblue" points="332.65,-270 342.65,-266.5 332.65,-263 332.65,-270"/>
</g>
<!-- Node24 -->
<g id="node24" class="node">
<title>Node24</title>
<g id="a_node24"><a xlink:href="redis__ipc_8h.html#aef76ea4158d5075f2c2c0041ec62d1d5" target="_top" xlink:title=" ">
<polygon fill="white" stroke="black" points="179,-121.5 179,-149.5 298,-149.5 298,-121.5 179,-121.5"/>
<text text-anchor="start" x="187" y="-138.3" font-family="Helvetica,sans-Serif" font-size="9.00">redis_ipc_write_setting</text>
<text text-anchor="middle" x="238.5" y="-128.3" font-family="Helvetica,sans-Serif" font-size="9.00">_field</text>
</a>
</g>
</g>
<!-- Node23&#45;&gt;Node24 -->
<g id="edge27" class="edge">
<title>Node23&#45;&gt;Node24</title>
<path fill="none" stroke="midnightblue" d="M323.5,-135.5C315.03,-135.5 306.43,-135.5 298.12,-135.5"/>
<polygon fill="midnightblue" stroke="midnightblue" points="323.72,-139 333.72,-135.5 323.72,-132 323.72,-139"/>
</g>
<!-- Node25 -->
<g id="node25" class="node">
<title>Node25</title>
<g id="a_node25"><a xlink:href="redis__ipc_8h.html#a1ccd53107db1e7be09bb4e958975720e" target="_top" xlink:title=" ">
<polygon fill="white" stroke="black" points="180.5,-74.5 180.5,-102.5 296.5,-102.5 296.5,-74.5 180.5,-74.5"/>
<text text-anchor="start" x="188.5" y="-91.3" font-family="Helvetica,sans-Serif" font-size="9.00">redis_ipc_write_status</text>
<text text-anchor="middle" x="238.5" y="-81.3" font-family="Helvetica,sans-Serif" font-size="9.00">_field</text>
</a>
</g>
</g>
<!-- Node23&#45;&gt;Node25 -->
<g id="edge28" class="edge">
<title>Node23&#45;&gt;Node25</title>
<path fill="none" stroke="midnightblue" d="M352.11,-123.44C331.54,-117.05 306.17,-109.18 284.72,-102.53"/>
<polygon fill="midnightblue" stroke="midnightblue" points="351.2,-126.82 361.79,-126.44 353.28,-120.13 351.2,-126.82"/>
</g>
<!-- Node27 -->
<g id="node27" class="node">
<title>Node27</title>
<g id="a_node27"><a xlink:href="redis__ipc_8c.html#ab4f8e083ca57feea4be05c015b0eac9f" target="_top" xlink:title=" ">
<polygon fill="white" stroke="black" points="346,-37.5 346,-55.5 438,-55.5 438,-37.5 346,-37.5"/>
<text text-anchor="middle" x="392" y="-44.3" font-family="Helvetica,sans-Serif" font-size="9.00">redis_write_hash</text>
</a>
</g>
</g>
<!-- Node26&#45;&gt;Node27 -->
<g id="edge30" class="edge">
<title>Node26&#45;&gt;Node27</title>
<path fill="none" stroke="midnightblue" d="M540.35,-261.34C522.99,-230.7 485.99,-167.14 450,-116.5 433.84,-93.76 412.59,-68.8 401.15,-55.7"/>
<polygon fill="midnightblue" stroke="midnightblue" points="537.49,-263.41 545.45,-270.4 543.59,-259.97 537.49,-263.41"/>
</g>
<!-- Node28 -->
<g id="node28" class="node">
<title>Node28</title>
<g id="a_node28"><a xlink:href="redis__ipc_8h.html#a11db23f8f055e2d63fd8308c3d382da4" target="_top" xlink:title=" ">
<polygon fill="white" stroke="black" points="179,-0.5 179,-18.5 298,-18.5 298,-0.5 179,-0.5"/>
<text text-anchor="middle" x="238.5" y="-7.3" font-family="Helvetica,sans-Serif" font-size="9.00">redis_ipc_write_setting</text>
</a>
</g>
</g>
<!-- Node27&#45;&gt;Node28 -->
<g id="edge31" class="edge">
<title>Node27&#45;&gt;Node28</title>
<path fill="none" stroke="midnightblue" d="M344.22,-35.08C322.42,-29.75 296.86,-23.51 276.44,-18.52"/>
<polygon fill="midnightblue" stroke="midnightblue" points="343.39,-38.48 353.94,-37.45 345.05,-31.68 343.39,-38.48"/>
</g>
<!-- Node29 -->
<g id="node29" class="node">
<title>Node29</title>
<g id="a_node29"><a xlink:href="redis__ipc_8h.html#ab7d4be95434367c1b7dd526ebbab77a1" target="_top" xlink:title=" ">
<polygon fill="white" stroke="black" points="180.5,-37.5 180.5,-55.5 296.5,-55.5 296.5,-37.5 180.5,-37.5"/>
<text text-anchor="middle" x="238.5" y="-44.3" font-family="Helvetica,sans-Serif" font-size="9.00">redis_ipc_write_status</text>
</a>
</g>
</g>
<!-- Node27&#45;&gt;Node29 -->
<g id="edge32" class="edge">
<title>Node27&#45;&gt;Node29</title>
<path fill="none" stroke="midnightblue" d="M335.94,-46.5C323.19,-46.5 309.6,-46.5 296.76,-46.5"/>
<polygon fill="midnightblue" stroke="midnightblue" points="335.96,-50 345.96,-46.5 335.96,-43 335.96,-50"/>
</g>
<!-- Node32&#45;&gt;Node2 -->
<g id="edge39" class="edge">
<title>Node32&#45;&gt;Node2</title>
<path fill="none" stroke="midnightblue" d="M650.06,-401.5C632,-401.5 612.67,-401.5 596.01,-401.5"/>
<polygon fill="midnightblue" stroke="midnightblue" points="650.21,-405 660.21,-401.5 650.21,-398 650.21,-405"/>
</g>
<!-- Node32&#45;&gt;Node26 -->
<g id="edge40" class="edge">
<title>Node32&#45;&gt;Node26</title>
<path fill="none" stroke="midnightblue" d="M663.01,-388.73C659.53,-387.17 656.15,-385.43 653,-383.5 610.39,-357.41 573.29,-309.04 558.89,-288.79"/>
<polygon fill="midnightblue" stroke="midnightblue" points="661.81,-392.02 672.39,-392.46 664.4,-385.51 661.81,-392.02"/>
</g>
</g>
</svg>
