<?xml version="1.0" encoding="UTF-8" standalone="no"?>
<!DOCTYPE svg PUBLIC "-//W3C//DTD SVG 1.1//EN"
 "http://www.w3.org/Graphics/SVG/1.1/DTD/svg11.dtd">
<!-- Generated by graphviz version 2.50.0 (20220203.2022)
 -->
<!-- Title: validate_redis_reply Pages: 1 -->
<svg width="334pt" height="64pt"
 viewBox="0.00 0.00 334.00 64.00" xmlns="http://www.w3.org/2000/svg" xmlns:xlink="http://www.w3.org/1999/xlink">
<g id="graph0" class="graph" transform="scale(1 1) rotate(0) translate(4 60)">
<title>validate_redis_reply</title>
<polygon fill="white" stroke="transparent" points="-4,4 -4,-60 330,-60 330,4 -4,4"/>
<!-- Node1 -->
<g id="node1" class="node">
<title>Node1</title>
<g id="a_node1"><a xlink:title=" ">
<polygon fill="#bfbfbf" stroke="black" points="0,-18.5 0,-36.5 98,-36.5 98,-18.5 0,-18.5"/>
<text text-anchor="middle" x="49" y="-25.3" font-family="Helvetica,sans-Serif" font-size="9.00">validate_redis_reply</text>
</a>
</g>
</g>
<!-- Node2 -->
<g id="node2" class="node">
<title>Node2</title>
<g id="a_node2"><a xlink:href="redis__ipc_8c.html#a7b930ec420c7b4bf2df1469aca77f93d" target="_top" xlink:title=" ">
<polygon fill="white" stroke="black" points="145.5,-37.5 145.5,-55.5 240.5,-55.5 240.5,-37.5 145.5,-37.5"/>
<text text-anchor="middle" x="193" y="-44.3" font-family="Helvetica,sans-Serif" font-size="9.00">get_per_thread_info</text>
</a>
</g>
</g>
<!-- Node1&#45;&gt;Node2 -->
<g id="edge1" class="edge">
<title>Node1&#45;&gt;Node2</title>
<path fill="none" stroke="midnightblue" d="M98.07,-33.93C110.02,-35.53 122.93,-37.26 135.25,-38.91"/>
<polygon fill="midnightblue" stroke="midnightblue" points="135.04,-42.41 145.42,-40.27 135.97,-35.47 135.04,-42.41"/>
</g>
<!-- Node4 -->
<g id="node4" class="node">
<title>Node4</title>
<g id="a_node4"><a xlink:href="redis__ipc_8c.html#a5e81feac565f9476476c5f042b2a5c9d" target="_top" xlink:title=" ">
<polygon fill="white" stroke="black" points="134,-0.5 134,-18.5 252,-18.5 252,-0.5 134,-0.5"/>
<text text-anchor="middle" x="193" y="-7.3" font-family="Helvetica,sans-Serif" font-size="9.00">stderr_debug_is_enabled</text>
</a>
</g>
</g>
<!-- Node1&#45;&gt;Node4 -->
<g id="edge3" class="edge">
<title>Node1&#45;&gt;Node4</title>
<path fill="none" stroke="midnightblue" d="M98.07,-21.41C106.34,-20.36 115.08,-19.25 123.76,-18.15"/>
<polygon fill="midnightblue" stroke="midnightblue" points="124.41,-21.6 133.89,-16.87 123.53,-14.65 124.41,-21.6"/>
</g>
<!-- Node3 -->
<g id="node3" class="node">
<title>Node3</title>
<g id="a_node3"><a xlink:href="redis__ipc_8c.html#af0449193b7cded86e600f052d0aabd39" target="_top" xlink:title=" ">
<polygon fill="white" stroke="black" points="288,-37.5 288,-55.5 326,-55.5 326,-37.5 288,-37.5"/>
<text text-anchor="middle" x="307" y="-44.3" font-family="Helvetica,sans-Serif" font-size="9.00">gettid</text>
</a>
</g>
</g>
<!-- Node2&#45;&gt;Node3 -->
<g id="edge2" class="edge">
<title>Node2&#45;&gt;Node3</title>
<path fill="none" stroke="midnightblue" d="M240.53,-46.5C253.19,-46.5 266.51,-46.5 277.82,-46.5"/>
<polygon fill="midnightblue" stroke="midnightblue" points="277.94,-50 287.94,-46.5 277.94,-43 277.94,-50"/>
</g>
</g>
</svg>
