<?xml version="1.0" encoding="UTF-8" standalone="no"?>
<!DOCTYPE svg PUBLIC "-//W3C//DTD SVG 1.1//EN"
 "http://www.w3.org/Graphics/SVG/1.1/DTD/svg11.dtd">
<!-- Generated by graphviz version 2.43.0 (0)
 -->
<!-- Title: redis_command_from_list Pages: 1 -->
<svg width="525pt" height="64pt"
 viewBox="0.00 0.00 525.00 64.00" xmlns="http://www.w3.org/2000/svg" xmlns:xlink="http://www.w3.org/1999/xlink">
<g id="graph0" class="graph" transform="scale(1 1) rotate(0) translate(4 60)">
<title>redis_command_from_list</title>
<polygon fill="white" stroke="transparent" points="-4,4 -4,-60 521,-60 521,4 -4,4"/>
<!-- Node1 -->
<g id="node1" class="node">
<title>Node1</title>
<g id="a_node1"><a xlink:title=" ">
<polygon fill="#bfbfbf" stroke="black" points="0,-19.5 0,-37.5 131,-37.5 131,-19.5 0,-19.5"/>
<text text-anchor="middle" x="65.5" y="-26.3" font-family="Helvetica,sans-Serif" font-size="9.00">redis_command_from_list</text>
</a>
</g>
</g>
<!-- Node2 -->
<g id="node2" class="node">
<title>Node2</title>
<g id="a_node2"><a xlink:href="redis__ipc_8c.html#aa2a3ce97c0b6f3e83572446f3c92e541" target="_top" xlink:title=" ">
<polygon fill="white" stroke="black" points="319,-37.5 319,-55.5 426,-55.5 426,-37.5 319,-37.5"/>
<text text-anchor="middle" x="372.5" y="-44.3" font-family="Helvetica,sans-Serif" font-size="9.00">get_per_thread_info</text>
</a>
</g>
</g>
<!-- Node1&#45;&gt;Node2 -->
<g id="edge1" class="edge">
<title>Node1&#45;&gt;Node2</title>
<path fill="none" stroke="midnightblue" d="M104.92,-37.51C123.55,-41.43 146.31,-45.56 167,-47.5 214.41,-51.94 268.28,-51.46 308.83,-49.98"/>
<polygon fill="midnightblue" stroke="midnightblue" points="308.98,-53.48 318.84,-49.59 308.71,-46.49 308.98,-53.48"/>
</g>
<!-- Node4 -->
<g id="node4" class="node">
<title>Node4</title>
<g id="a_node4"><a xlink:href="redis__ipc_8c.html#a5e81feac565f9476476c5f042b2a5c9d" target="_top" xlink:title=" ">
<polygon fill="white" stroke="black" points="308,-0.5 308,-18.5 437,-18.5 437,-0.5 308,-0.5"/>
<text text-anchor="middle" x="372.5" y="-7.3" font-family="Helvetica,sans-Serif" font-size="9.00">stderr_debug_is_enabled</text>
</a>
</g>
</g>
<!-- Node1&#45;&gt;Node4 -->
<g id="edge3" class="edge">
<title>Node1&#45;&gt;Node4</title>
<path fill="none" stroke="midnightblue" d="M104.92,-19.49C123.55,-15.57 146.31,-11.44 167,-9.5 210.16,-5.46 258.66,-5.27 297.6,-6.18"/>
<polygon fill="midnightblue" stroke="midnightblue" points="297.71,-9.68 307.8,-6.45 297.89,-2.69 297.71,-9.68"/>
</g>
<!-- Node5 -->
<g id="node5" class="node">
<title>Node5</title>
<g id="a_node5"><a xlink:href="redis__ipc_8c.html#ae88037651d88f63c62d32afd7e0fccf2" target="_top" xlink:title=" ">
<polygon fill="white" stroke="black" points="167,-19.5 167,-37.5 272,-37.5 272,-19.5 167,-19.5"/>
<text text-anchor="middle" x="219.5" y="-26.3" font-family="Helvetica,sans-Serif" font-size="9.00">validate_redis_reply</text>
</a>
</g>
</g>
<!-- Node1&#45;&gt;Node5 -->
<g id="edge4" class="edge">
<title>Node1&#45;&gt;Node5</title>
<path fill="none" stroke="midnightblue" d="M131.4,-28.5C139.78,-28.5 148.34,-28.5 156.66,-28.5"/>
<polygon fill="midnightblue" stroke="midnightblue" points="156.67,-32 166.67,-28.5 156.67,-25 156.67,-32"/>
</g>
<!-- Node3 -->
<g id="node3" class="node">
<title>Node3</title>
<g id="a_node3"><a xlink:href="redis__ipc_8c.html#af0449193b7cded86e600f052d0aabd39" target="_top" xlink:title=" ">
<polygon fill="white" stroke="black" points="473,-37.5 473,-55.5 517,-55.5 517,-37.5 473,-37.5"/>
<text text-anchor="middle" x="495" y="-44.3" font-family="Helvetica,sans-Serif" font-size="9.00">gettid</text>
</a>
</g>
</g>
<!-- Node2&#45;&gt;Node3 -->
<g id="edge2" class="edge">
<title>Node2&#45;&gt;Node3</title>
<path fill="none" stroke="midnightblue" d="M426,-46.5C438.5,-46.5 451.45,-46.5 462.65,-46.5"/>
<polygon fill="midnightblue" stroke="midnightblue" points="462.78,-50 472.78,-46.5 462.78,-43 462.78,-50"/>
</g>
<!-- Node5&#45;&gt;Node2 -->
<g id="edge5" class="edge">
<title>Node5&#45;&gt;Node2</title>
<path fill="none" stroke="midnightblue" d="M272.04,-34.64C283.86,-36.05 296.54,-37.56 308.77,-39.02"/>
<polygon fill="midnightblue" stroke="midnightblue" points="308.56,-42.52 318.91,-40.23 309.39,-35.57 308.56,-42.52"/>
</g>
<!-- Node5&#45;&gt;Node4 -->
<g id="edge6" class="edge">
<title>Node5&#45;&gt;Node4</title>
<path fill="none" stroke="midnightblue" d="M272.04,-22.01C280.33,-20.97 289.05,-19.87 297.74,-18.78"/>
<polygon fill="midnightblue" stroke="midnightblue" points="298.42,-22.22 307.9,-17.5 297.54,-15.28 298.42,-22.22"/>
</g>
</g>
</svg>
