<?xml version="1.0" encoding="UTF-8" standalone="no"?>
<!DOCTYPE svg PUBLIC "-//W3C//DTD SVG 1.1//EN"
 "http://www.w3.org/Graphics/SVG/1.1/DTD/svg11.dtd">
<!-- Generated by graphviz version 2.43.0 (0)
 -->
<!-- Title: redis_ipc_write_status_field Pages: 1 -->
<svg width="787pt" height="100pt"
 viewBox="0.00 0.00 787.00 100.17" xmlns="http://www.w3.org/2000/svg" xmlns:xlink="http://www.w3.org/1999/xlink">
<g id="graph0" class="graph" transform="scale(1 1) rotate(0) translate(4 96.17)">
<title>redis_ipc_write_status_field</title>
<polygon fill="white" stroke="transparent" points="-4,4 -4,-96.17 783,-96.17 783,4 -4,4"/>
<!-- Node1 -->
<g id="node1" class="node">
<title>Node1</title>
<g id="a_node1"><a xlink:title=" ">
<polygon fill="#bfbfbf" stroke="black" points="0,-52.5 0,-80.5 116,-80.5 116,-52.5 0,-52.5"/>
<text text-anchor="start" x="8" y="-69.3" font-family="Helvetica,sans-Serif" font-size="9.00">redis_ipc_write_status</text>
<text text-anchor="middle" x="58" y="-59.3" font-family="Helvetica,sans-Serif" font-size="9.00">_field</text>
</a>
</g>
</g>
<!-- Node2 -->
<g id="node2" class="node">
<title>Node2</title>
<g id="a_node2"><a xlink:href="redis__ipc_8c.html#aa2a3ce97c0b6f3e83572446f3c92e541" target="_top" xlink:title=" ">
<polygon fill="white" stroke="black" points="581,-57.5 581,-75.5 688,-75.5 688,-57.5 581,-57.5"/>
<text text-anchor="middle" x="634.5" y="-64.3" font-family="Helvetica,sans-Serif" font-size="9.00">get_per_thread_info</text>
</a>
</g>
</g>
<!-- Node1&#45;&gt;Node2 -->
<g id="edge1" class="edge">
<title>Node1&#45;&gt;Node2</title>
<path fill="none" stroke="midnightblue" d="M116.27,-80.08C128.02,-82.34 140.36,-84.32 152,-85.5 301.82,-100.65 479.01,-85.1 571,-74.53"/>
<polygon fill="midnightblue" stroke="midnightblue" points="571.46,-78.01 580.98,-73.37 570.65,-71.05 571.46,-78.01"/>
</g>
<!-- Node4 -->
<g id="node4" class="node">
<title>Node4</title>
<g id="a_node4"><a xlink:href="redis__ipc_8c.html#a67c9dd84d2426ab58a759dbdfd223267" target="_top" xlink:title=" ">
<polygon fill="white" stroke="black" points="182,-57.5 182,-75.5 238,-75.5 238,-57.5 182,-57.5"/>
<text text-anchor="middle" x="210" y="-64.3" font-family="Helvetica,sans-Serif" font-size="9.00">ipc_path</text>
</a>
</g>
</g>
<!-- Node1&#45;&gt;Node4 -->
<g id="edge3" class="edge">
<title>Node1&#45;&gt;Node4</title>
<path fill="none" stroke="midnightblue" d="M116.14,-66.5C134.61,-66.5 154.62,-66.5 171.32,-66.5"/>
<polygon fill="midnightblue" stroke="midnightblue" points="171.76,-70 181.76,-66.5 171.76,-63 171.76,-70"/>
</g>
<!-- Node5 -->
<g id="node5" class="node">
<title>Node5</title>
<g id="a_node5"><a xlink:href="redis__ipc_8c.html#ad0c6708404743ef74dddacc617fb8b8e" target="_top" xlink:title=" ">
<polygon fill="white" stroke="black" points="152,-20.5 152,-38.5 268,-38.5 268,-20.5 152,-20.5"/>
<text text-anchor="middle" x="210" y="-27.3" font-family="Helvetica,sans-Serif" font-size="9.00">redis_write_hash_field</text>
</a>
</g>
</g>
<!-- Node1&#45;&gt;Node5 -->
<g id="edge4" class="edge">
<title>Node1&#45;&gt;Node5</title>
<path fill="none" stroke="midnightblue" d="M116.14,-52.41C131.47,-48.62 147.87,-44.58 162.55,-40.96"/>
<polygon fill="midnightblue" stroke="midnightblue" points="163.53,-44.32 172.4,-38.53 161.86,-37.52 163.53,-44.32"/>
</g>
<!-- Node3 -->
<g id="node3" class="node">
<title>Node3</title>
<g id="a_node3"><a xlink:href="redis__ipc_8c.html#af0449193b7cded86e600f052d0aabd39" target="_top" xlink:title=" ">
<polygon fill="white" stroke="black" points="735,-57.5 735,-75.5 779,-75.5 779,-57.5 735,-57.5"/>
<text text-anchor="middle" x="757" y="-64.3" font-family="Helvetica,sans-Serif" font-size="9.00">gettid</text>
</a>
</g>
</g>
<!-- Node2&#45;&gt;Node3 -->
<g id="edge2" class="edge">
<title>Node2&#45;&gt;Node3</title>
<path fill="none" stroke="midnightblue" d="M688,-66.5C700.5,-66.5 713.45,-66.5 724.65,-66.5"/>
<polygon fill="midnightblue" stroke="midnightblue" points="724.78,-70 734.78,-66.5 724.78,-63 724.78,-70"/>
</g>
<!-- Node6 -->
<g id="node6" class="node">
<title>Node6</title>
<g id="a_node6"><a xlink:href="redis__ipc_8c.html#aefb4508c1883e7d4345b206076b19e5d" target="_top" xlink:title=" ">
<polygon fill="white" stroke="black" points="304,-19.5 304,-37.5 393,-37.5 393,-19.5 304,-19.5"/>
<text text-anchor="middle" x="348.5" y="-26.3" font-family="Helvetica,sans-Serif" font-size="9.00">redis_command</text>
</a>
</g>
</g>
<!-- Node5&#45;&gt;Node6 -->
<g id="edge5" class="edge">
<title>Node5&#45;&gt;Node6</title>
<path fill="none" stroke="midnightblue" d="M268.1,-29.08C276.62,-29.02 285.37,-28.96 293.82,-28.89"/>
<polygon fill="midnightblue" stroke="midnightblue" points="293.95,-32.39 303.92,-28.82 293.9,-25.39 293.95,-32.39"/>
</g>
<!-- Node6&#45;&gt;Node2 -->
<g id="edge6" class="edge">
<title>Node6&#45;&gt;Node2</title>
<path fill="none" stroke="midnightblue" d="M384.93,-37.52C398.63,-40.74 414.47,-44.15 429,-46.5 476.24,-54.13 530.12,-59.25 570.71,-62.4"/>
<polygon fill="midnightblue" stroke="midnightblue" points="570.49,-65.9 580.73,-63.16 571.02,-58.92 570.49,-65.9"/>
</g>
<!-- Node7 -->
<g id="node7" class="node">
<title>Node7</title>
<g id="a_node7"><a xlink:href="redis__ipc_8c.html#a5e81feac565f9476476c5f042b2a5c9d" target="_top" xlink:title=" ">
<polygon fill="white" stroke="black" points="570,-0.5 570,-18.5 699,-18.5 699,-0.5 570,-0.5"/>
<text text-anchor="middle" x="634.5" y="-7.3" font-family="Helvetica,sans-Serif" font-size="9.00">stderr_debug_is_enabled</text>
</a>
</g>
</g>
<!-- Node6&#45;&gt;Node7 -->
<g id="edge7" class="edge">
<title>Node6&#45;&gt;Node7</title>
<path fill="none" stroke="midnightblue" d="M379.78,-19.5C394.49,-15.58 412.51,-11.44 429,-9.5 472.05,-4.43 520.55,-4.19 559.51,-5.34"/>
<polygon fill="midnightblue" stroke="midnightblue" points="559.61,-8.84 569.72,-5.67 559.84,-1.84 559.61,-8.84"/>
</g>
<!-- Node8 -->
<g id="node8" class="node">
<title>Node8</title>
<g id="a_node8"><a xlink:href="redis__ipc_8c.html#ae88037651d88f63c62d32afd7e0fccf2" target="_top" xlink:title=" ">
<polygon fill="white" stroke="black" points="429,-19.5 429,-37.5 534,-37.5 534,-19.5 429,-19.5"/>
<text text-anchor="middle" x="481.5" y="-26.3" font-family="Helvetica,sans-Serif" font-size="9.00">validate_redis_reply</text>
</a>
</g>
</g>
<!-- Node6&#45;&gt;Node8 -->
<g id="edge8" class="edge">
<title>Node6&#45;&gt;Node8</title>
<path fill="none" stroke="midnightblue" d="M393.12,-28.5C401.36,-28.5 410.12,-28.5 418.79,-28.5"/>
<polygon fill="midnightblue" stroke="midnightblue" points="418.89,-32 428.89,-28.5 418.89,-25 418.89,-32"/>
</g>
<!-- Node8&#45;&gt;Node2 -->
<g id="edge9" class="edge">
<title>Node8&#45;&gt;Node2</title>
<path fill="none" stroke="midnightblue" d="M518.28,-37.51C539.08,-42.74 565.5,-49.39 587.79,-55"/>
<polygon fill="midnightblue" stroke="midnightblue" points="587.16,-58.45 597.71,-57.49 588.87,-51.66 587.16,-58.45"/>
</g>
<!-- Node8&#45;&gt;Node7 -->
<g id="edge10" class="edge">
<title>Node8&#45;&gt;Node7</title>
<path fill="none" stroke="midnightblue" d="M534.04,-22.01C542.33,-20.97 551.05,-19.87 559.74,-18.78"/>
<polygon fill="midnightblue" stroke="midnightblue" points="560.42,-22.22 569.9,-17.5 559.54,-15.28 560.42,-22.22"/>
</g>
</g>
</svg>
