<?xml version="1.0" encoding="UTF-8" standalone="no"?>
<!DOCTYPE svg PUBLIC "-//W3C//DTD SVG 1.1//EN"
 "http://www.w3.org/Graphics/SVG/1.1/DTD/svg11.dtd">
<!-- Generated by graphviz version 2.43.0 (0)
 -->
<!-- Title: redis_ipc_send_event Pages: 1 -->
<svg width="768pt" height="198pt"
 viewBox="0.00 0.00 768.00 198.04" xmlns="http://www.w3.org/2000/svg" xmlns:xlink="http://www.w3.org/1999/xlink">
<g id="graph0" class="graph" transform="scale(1 1) rotate(0) translate(4 194.04)">
<title>redis_ipc_send_event</title>
<polygon fill="white" stroke="transparent" points="-4,4 -4,-194.04 764,-194.04 764,4 -4,4"/>
<!-- Node1 -->
<g id="node1" class="node">
<title>Node1</title>
<g id="a_node1"><a xlink:title=" ">
<polygon fill="#bfbfbf" stroke="black" points="0,-37.5 0,-55.5 113,-55.5 113,-37.5 0,-37.5"/>
<text text-anchor="middle" x="56.5" y="-44.3" font-family="Helvetica,sans-Serif" font-size="9.00">redis_ipc_send_event</text>
</a>
</g>
</g>
<!-- Node2 -->
<g id="node2" class="node">
<title>Node2</title>
<g id="a_node2"><a xlink:href="redis__ipc_8c.html#aa2a3ce97c0b6f3e83572446f3c92e541" target="_top" xlink:title=" ">
<polygon fill="white" stroke="black" points="562,-75.5 562,-93.5 669,-93.5 669,-75.5 562,-75.5"/>
<text text-anchor="middle" x="615.5" y="-82.3" font-family="Helvetica,sans-Serif" font-size="9.00">get_per_thread_info</text>
</a>
</g>
</g>
<!-- Node1&#45;&gt;Node2 -->
<g id="edge1" class="edge">
<title>Node1&#45;&gt;Node2</title>
<path fill="none" stroke="midnightblue" d="M96.48,-55.52C112.64,-58.9 131.64,-62.43 149,-64.5 292.32,-81.58 462,-84.56 551.67,-84.81"/>
<polygon fill="midnightblue" stroke="midnightblue" points="551.93,-88.31 561.93,-84.82 551.94,-81.31 551.93,-88.31"/>
</g>
<!-- Node4 -->
<g id="node4" class="node">
<title>Node4</title>
<g id="a_node4"><a xlink:href="redis__ipc_8c.html#a67c9dd84d2426ab58a759dbdfd223267" target="_top" xlink:title=" ">
<polygon fill="white" stroke="black" points="159,-0.5 159,-18.5 215,-18.5 215,-0.5 159,-0.5"/>
<text text-anchor="middle" x="187" y="-7.3" font-family="Helvetica,sans-Serif" font-size="9.00">ipc_path</text>
</a>
</g>
</g>
<!-- Node1&#45;&gt;Node4 -->
<g id="edge3" class="edge">
<title>Node1&#45;&gt;Node4</title>
<path fill="none" stroke="midnightblue" d="M88.93,-37.45C107.07,-32.23 129.98,-25.63 148.99,-20.16"/>
<polygon fill="midnightblue" stroke="midnightblue" points="150.17,-23.46 158.81,-17.33 148.23,-16.73 150.17,-23.46"/>
</g>
<!-- Node5 -->
<g id="node5" class="node">
<title>Node5</title>
<g id="a_node5"><a xlink:href="redis__ipc_8c.html#ab3dc5609833c201c4e9ebaa5e2e70a2f" target="_top" xlink:title=" ">
<polygon fill="white" stroke="black" points="149,-37.5 149,-55.5 225,-55.5 225,-37.5 149,-37.5"/>
<text text-anchor="middle" x="187" y="-44.3" font-family="Helvetica,sans-Serif" font-size="9.00">redis_publish</text>
</a>
</g>
</g>
<!-- Node1&#45;&gt;Node5 -->
<g id="edge4" class="edge">
<title>Node1&#45;&gt;Node5</title>
<path fill="none" stroke="midnightblue" d="M113.11,-46.5C121.6,-46.5 130.3,-46.5 138.59,-46.5"/>
<polygon fill="midnightblue" stroke="midnightblue" points="138.83,-50 148.83,-46.5 138.83,-43 138.83,-50"/>
</g>
<!-- Node3 -->
<g id="node3" class="node">
<title>Node3</title>
<g id="a_node3"><a xlink:href="redis__ipc_8c.html#af0449193b7cded86e600f052d0aabd39" target="_top" xlink:title=" ">
<polygon fill="white" stroke="black" points="716,-56.5 716,-74.5 760,-74.5 760,-56.5 716,-56.5"/>
<text text-anchor="middle" x="738" y="-63.3" font-family="Helvetica,sans-Serif" font-size="9.00">gettid</text>
</a>
</g>
</g>
<!-- Node2&#45;&gt;Node3 -->
<g id="edge2" class="edge">
<title>Node2&#45;&gt;Node3</title>
<path fill="none" stroke="midnightblue" d="M669,-76.22C681.5,-74.25 694.45,-72.21 705.65,-70.44"/>
<polygon fill="midnightblue" stroke="midnightblue" points="706.45,-73.86 715.78,-68.85 705.36,-66.95 706.45,-73.86"/>
</g>
<!-- Node6 -->
<g id="node6" class="node">
<title>Node6</title>
<g id="a_node6"><a xlink:href="redis__ipc_8c.html#a1ca0a131f083c0547523e40cae96936e" target="_top" xlink:title=" ">
<polygon fill="white" stroke="black" points="386,-37.5 386,-55.5 515,-55.5 515,-37.5 386,-37.5"/>
<text text-anchor="middle" x="450.5" y="-44.3" font-family="Helvetica,sans-Serif" font-size="9.00">json_add_common_fields</text>
</a>
</g>
</g>
<!-- Node5&#45;&gt;Node6 -->
<g id="edge5" class="edge">
<title>Node5&#45;&gt;Node6</title>
<path fill="none" stroke="midnightblue" d="M225.19,-46.5C264.22,-46.5 326.61,-46.5 375.7,-46.5"/>
<polygon fill="midnightblue" stroke="midnightblue" points="375.96,-50 385.96,-46.5 375.96,-43 375.96,-50"/>
</g>
<!-- Node7 -->
<g id="node7" class="node">
<title>Node7</title>
<g id="a_node7"><a xlink:href="redis__ipc_8c.html#aefb4508c1883e7d4345b206076b19e5d" target="_top" xlink:title=" ">
<polygon fill="white" stroke="black" points="261,-132.5 261,-150.5 350,-150.5 350,-132.5 261,-132.5"/>
<text text-anchor="middle" x="305.5" y="-139.3" font-family="Helvetica,sans-Serif" font-size="9.00">redis_command</text>
</a>
</g>
</g>
<!-- Node5&#45;&gt;Node7 -->
<g id="edge8" class="edge">
<title>Node5&#45;&gt;Node7</title>
<path fill="none" stroke="midnightblue" d="M199.17,-55.61C219.04,-71.81 260.73,-105.81 285.29,-125.83"/>
<polygon fill="midnightblue" stroke="midnightblue" points="283.23,-128.67 293.19,-132.28 287.65,-123.25 283.23,-128.67"/>
</g>
<!-- Node6&#45;&gt;Node2 -->
<g id="edge6" class="edge">
<title>Node6&#45;&gt;Node2</title>
<path fill="none" stroke="midnightblue" d="M490.13,-55.51C512.78,-60.79 541.61,-67.51 565.81,-73.15"/>
<polygon fill="midnightblue" stroke="midnightblue" points="565.33,-76.63 575.87,-75.49 566.92,-69.81 565.33,-76.63"/>
</g>
<!-- Node6&#45;&gt;Node3 -->
<g id="edge7" class="edge">
<title>Node6&#45;&gt;Node3</title>
<path fill="none" stroke="midnightblue" d="M515.22,-50.74C574.4,-54.68 660.05,-60.38 705.66,-63.41"/>
<polygon fill="midnightblue" stroke="midnightblue" points="705.61,-66.92 715.82,-64.09 706.07,-59.93 705.61,-66.92"/>
</g>
<!-- Node7&#45;&gt;Node2 -->
<g id="edge9" class="edge">
<title>Node7&#45;&gt;Node2</title>
<path fill="none" stroke="midnightblue" d="M350.3,-133.39C404.15,-123.43 495.75,-106.48 555.7,-95.38"/>
<polygon fill="midnightblue" stroke="midnightblue" points="556.57,-98.78 565.77,-93.52 555.3,-91.9 556.57,-98.78"/>
</g>
<!-- Node8 -->
<g id="node8" class="node">
<title>Node8</title>
<g id="a_node8"><a xlink:href="redis__ipc_8c.html#a5e81feac565f9476476c5f042b2a5c9d" target="_top" xlink:title=" ">
<polygon fill="white" stroke="black" points="551,-170.5 551,-188.5 680,-188.5 680,-170.5 551,-170.5"/>
<text text-anchor="middle" x="615.5" y="-177.3" font-family="Helvetica,sans-Serif" font-size="9.00">stderr_debug_is_enabled</text>
</a>
</g>
</g>
<!-- Node7&#45;&gt;Node8 -->
<g id="edge10" class="edge">
<title>Node7&#45;&gt;Node8</title>
<path fill="none" stroke="midnightblue" d="M320.44,-150.55C335.79,-159.92 361.53,-173.95 386,-179.5 436.71,-191 495.4,-190.72 540.61,-187.71"/>
<polygon fill="midnightblue" stroke="midnightblue" points="540.9,-191.2 550.62,-186.99 540.39,-184.22 540.9,-191.2"/>
</g>
<!-- Node9 -->
<g id="node9" class="node">
<title>Node9</title>
<g id="a_node9"><a xlink:href="redis__ipc_8c.html#ae88037651d88f63c62d32afd7e0fccf2" target="_top" xlink:title=" ">
<polygon fill="white" stroke="black" points="398,-151.5 398,-169.5 503,-169.5 503,-151.5 398,-151.5"/>
<text text-anchor="middle" x="450.5" y="-158.3" font-family="Helvetica,sans-Serif" font-size="9.00">validate_redis_reply</text>
</a>
</g>
</g>
<!-- Node7&#45;&gt;Node9 -->
<g id="edge11" class="edge">
<title>Node7&#45;&gt;Node9</title>
<path fill="none" stroke="midnightblue" d="M350.18,-147.3C362.04,-148.88 375.11,-150.62 387.77,-152.3"/>
<polygon fill="midnightblue" stroke="midnightblue" points="387.42,-155.78 397.79,-153.63 388.34,-148.84 387.42,-155.78"/>
</g>
<!-- Node9&#45;&gt;Node2 -->
<g id="edge12" class="edge">
<title>Node9&#45;&gt;Node2</title>
<path fill="none" stroke="midnightblue" d="M477.74,-151.39C489.3,-147.17 502.96,-141.9 515,-136.5 540.98,-124.85 569.72,-109.56 589.6,-98.58"/>
<polygon fill="midnightblue" stroke="midnightblue" points="591.56,-101.5 598.59,-93.57 588.15,-95.38 591.56,-101.5"/>
</g>
<!-- Node9&#45;&gt;Node8 -->
<g id="edge13" class="edge">
<title>Node9&#45;&gt;Node8</title>
<path fill="none" stroke="midnightblue" d="M503.07,-166.51C515.07,-167.91 528.07,-169.43 540.81,-170.91"/>
<polygon fill="midnightblue" stroke="midnightblue" points="540.62,-174.41 550.95,-172.09 541.43,-167.46 540.62,-174.41"/>
</g>
</g>
</svg>
