<?xml version="1.0" encoding="UTF-8" standalone="no"?>
<!DOCTYPE svg PUBLIC "-//W3C//DTD SVG 1.1//EN"
 "http://www.w3.org/Graphics/SVG/1.1/DTD/svg11.dtd">
<!-- Generated by graphviz version 2.50.0 (20220203.2022)
 -->
<!-- Title: redis_ipc_read_setting Pages: 1 -->
<svg width="712pt" height="118pt"
 viewBox="0.00 0.00 712.00 117.67" xmlns="http://www.w3.org/2000/svg" xmlns:xlink="http://www.w3.org/1999/xlink">
<g id="graph0" class="graph" transform="scale(1 1) rotate(0) translate(4 113.67)">
<title>redis_ipc_read_setting</title>
<polygon fill="white" stroke="transparent" points="-4,4 -4,-113.67 708,-113.67 708,4 -4,4"/>
<!-- Node1 -->
<g id="node1" class="node">
<title>Node1</title>
<g id="a_node1"><a xlink:title=" ">
<polygon fill="#bfbfbf" stroke="black" points="0,-75.5 0,-93.5 107,-93.5 107,-75.5 0,-75.5"/>
<text text-anchor="middle" x="53.5" y="-82.3" font-family="Helvetica,sans-Serif" font-size="9.00">redis_ipc_read_setting</text>
</a>
</g>
</g>
<!-- Node2 -->
<g id="node2" class="node">
<title>Node2</title>
<g id="a_node2"><a xlink:href="redis__ipc_8c.html#a7b930ec420c7b4bf2df1469aca77f93d" target="_top" xlink:title=" ">
<polygon fill="white" stroke="black" points="523.5,-76.5 523.5,-94.5 618.5,-94.5 618.5,-76.5 523.5,-76.5"/>
<text text-anchor="middle" x="571" y="-83.3" font-family="Helvetica,sans-Serif" font-size="9.00">get_per_thread_info</text>
</a>
</g>
</g>
<!-- Node1&#45;&gt;Node2 -->
<g id="edge1" class="edge">
<title>Node1&#45;&gt;Node2</title>
<path fill="none" stroke="midnightblue" d="M88.27,-93.51C104.66,-97.42 124.72,-101.56 143,-103.5 275.14,-117.52 431.37,-103.12 513.32,-93.2"/>
<polygon fill="midnightblue" stroke="midnightblue" points="513.92,-96.65 523.42,-91.95 513.06,-89.7 513.92,-96.65"/>
</g>
<!-- Node4 -->
<g id="node4" class="node">
<title>Node4</title>
<g id="a_node4"><a xlink:href="redis__ipc_8c.html#a67c9dd84d2426ab58a759dbdfd223267" target="_top" xlink:title=" ">
<polygon fill="white" stroke="black" points="159,-75.5 159,-93.5 210,-93.5 210,-75.5 159,-75.5"/>
<text text-anchor="middle" x="184.5" y="-82.3" font-family="Helvetica,sans-Serif" font-size="9.00">ipc_path</text>
</a>
</g>
</g>
<!-- Node1&#45;&gt;Node4 -->
<g id="edge3" class="edge">
<title>Node1&#45;&gt;Node4</title>
<path fill="none" stroke="midnightblue" d="M107.34,-84.5C121.26,-84.5 135.92,-84.5 148.63,-84.5"/>
<polygon fill="midnightblue" stroke="midnightblue" points="148.78,-88 158.78,-84.5 148.78,-81 148.78,-88"/>
</g>
<!-- Node5 -->
<g id="node5" class="node">
<title>Node5</title>
<g id="a_node5"><a xlink:href="redis__ipc_8c.html#a9f1ecd3f095bb4358ae2b26347b2b822" target="_top" xlink:title=" ">
<polygon fill="white" stroke="black" points="143,-38.5 143,-56.5 226,-56.5 226,-38.5 143,-38.5"/>
<text text-anchor="middle" x="184.5" y="-45.3" font-family="Helvetica,sans-Serif" font-size="9.00">redis_read_hash</text>
</a>
</g>
</g>
<!-- Node1&#45;&gt;Node5 -->
<g id="edge4" class="edge">
<title>Node1&#45;&gt;Node5</title>
<path fill="none" stroke="midnightblue" d="M86.06,-75.45C102.92,-70.61 123.9,-64.59 142.06,-59.38"/>
<polygon fill="midnightblue" stroke="midnightblue" points="143.17,-62.71 151.82,-56.59 141.24,-55.98 143.17,-62.71"/>
</g>
<!-- Node3 -->
<g id="node3" class="node">
<title>Node3</title>
<g id="a_node3"><a xlink:href="redis__ipc_8c.html#af0449193b7cded86e600f052d0aabd39" target="_top" xlink:title=" ">
<polygon fill="white" stroke="black" points="666,-76.5 666,-94.5 704,-94.5 704,-76.5 666,-76.5"/>
<text text-anchor="middle" x="685" y="-83.3" font-family="Helvetica,sans-Serif" font-size="9.00">gettid</text>
</a>
</g>
</g>
<!-- Node2&#45;&gt;Node3 -->
<g id="edge2" class="edge">
<title>Node2&#45;&gt;Node3</title>
<path fill="none" stroke="midnightblue" d="M618.53,-85.5C631.19,-85.5 644.51,-85.5 655.82,-85.5"/>
<polygon fill="midnightblue" stroke="midnightblue" points="655.94,-89 665.94,-85.5 655.94,-82 655.94,-89"/>
</g>
<!-- Node6 -->
<g id="node6" class="node">
<title>Node6</title>
<g id="a_node6"><a xlink:href="redis__ipc_8c.html#afab35d4c40b4b1866fc0239bb885a39b" target="_top" xlink:title=" ">
<polygon fill="white" stroke="black" points="262,-38.5 262,-56.5 342,-56.5 342,-38.5 262,-38.5"/>
<text text-anchor="middle" x="302" y="-45.3" font-family="Helvetica,sans-Serif" font-size="9.00">redis_command</text>
</a>
</g>
</g>
<!-- Node5&#45;&gt;Node6 -->
<g id="edge5" class="edge">
<title>Node5&#45;&gt;Node6</title>
<path fill="none" stroke="midnightblue" d="M226.22,-47.5C234.44,-47.5 243.16,-47.5 251.64,-47.5"/>
<polygon fill="midnightblue" stroke="midnightblue" points="251.81,-51 261.81,-47.5 251.81,-44 251.81,-51"/>
</g>
<!-- Node7 -->
<g id="node7" class="node">
<title>Node7</title>
<g id="a_node7"><a xlink:href="redis__ipc_8c.html#a5e81feac565f9476476c5f042b2a5c9d" target="_top" xlink:title=" ">
<polygon fill="white" stroke="black" points="512,-0.5 512,-18.5 630,-18.5 630,-0.5 512,-0.5"/>
<text text-anchor="middle" x="571" y="-7.3" font-family="Helvetica,sans-Serif" font-size="9.00">stderr_debug_is_enabled</text>
</a>
</g>
</g>
<!-- Node5&#45;&gt;Node7 -->
<g id="edge11" class="edge">
<title>Node5&#45;&gt;Node7</title>
<path fill="none" stroke="midnightblue" d="M218.47,-38.5C231.9,-35.04 247.62,-31.27 262,-28.5 313.1,-18.66 326.11,-16.47 378,-12.5 419.02,-9.36 465.1,-8.55 501.84,-8.56"/>
<polygon fill="midnightblue" stroke="midnightblue" points="501.94,-12.06 511.94,-8.58 501.95,-5.06 501.94,-12.06"/>
</g>
<!-- Node6&#45;&gt;Node2 -->
<g id="edge6" class="edge">
<title>Node6&#45;&gt;Node2</title>
<path fill="none" stroke="midnightblue" d="M334.16,-56.5C347.55,-60.08 363.45,-63.95 378,-66.5 422.94,-74.37 474.4,-79.24 512.73,-82.08"/>
<polygon fill="midnightblue" stroke="midnightblue" points="512.95,-85.61 523.18,-82.83 513.45,-78.62 512.95,-85.61"/>
</g>
<!-- Node6&#45;&gt;Node7 -->
<g id="edge7" class="edge">
<title>Node6&#45;&gt;Node7</title>
<path fill="none" stroke="midnightblue" d="M334.16,-38.5C347.55,-34.92 363.45,-31.05 378,-28.5 418.71,-21.37 464.79,-16.7 501.6,-13.77"/>
<polygon fill="midnightblue" stroke="midnightblue" points="502.02,-17.25 511.72,-12.99 501.48,-10.27 502.02,-17.25"/>
</g>
<!-- Node8 -->
<g id="node8" class="node">
<title>Node8</title>
<g id="a_node8"><a xlink:href="redis__ipc_8c.html#a80ea8825dd17a3cff2530680c97d184a" target="_top" xlink:title=" ">
<polygon fill="white" stroke="black" points="378,-38.5 378,-56.5 476,-56.5 476,-38.5 378,-38.5"/>
<text text-anchor="middle" x="427" y="-45.3" font-family="Helvetica,sans-Serif" font-size="9.00">validate_redis_reply</text>
</a>
</g>
</g>
<!-- Node6&#45;&gt;Node8 -->
<g id="edge8" class="edge">
<title>Node6&#45;&gt;Node8</title>
<path fill="none" stroke="midnightblue" d="M342.26,-47.5C350.34,-47.5 359.02,-47.5 367.62,-47.5"/>
<polygon fill="midnightblue" stroke="midnightblue" points="367.63,-51 377.63,-47.5 367.63,-44 367.63,-51"/>
</g>
<!-- Node8&#45;&gt;Node2 -->
<g id="edge9" class="edge">
<title>Node8&#45;&gt;Node2</title>
<path fill="none" stroke="midnightblue" d="M461.65,-56.51C480.96,-61.67 505.43,-68.22 526.22,-73.79"/>
<polygon fill="midnightblue" stroke="midnightblue" points="525.53,-77.22 536.1,-76.43 527.34,-70.46 525.53,-77.22"/>
</g>
<!-- Node8&#45;&gt;Node7 -->
<g id="edge10" class="edge">
<title>Node8&#45;&gt;Node7</title>
<path fill="none" stroke="midnightblue" d="M461.65,-38.49C480.96,-33.33 505.43,-26.78 526.22,-21.21"/>
<polygon fill="midnightblue" stroke="midnightblue" points="527.34,-24.54 536.1,-18.57 525.53,-17.78 527.34,-24.54"/>
</g>
</g>
</svg>
