<?xml version="1.0" encoding="UTF-8" standalone="no"?>
<!DOCTYPE svg PUBLIC "-//W3C//DTD SVG 1.1//EN"
 "http://www.w3.org/Graphics/SVG/1.1/DTD/svg11.dtd">
<!-- Generated by graphviz version 2.50.0 (20220203.2022)
 -->
<!-- Title: redis_read_hash_field Pages: 1 -->
<svg width="256pt" height="84pt"
 viewBox="0.00 0.00 256.00 84.00" xmlns="http://www.w3.org/2000/svg" xmlns:xlink="http://www.w3.org/1999/xlink">
<g id="graph0" class="graph" transform="scale(1 1) rotate(0) translate(4 80)">
<title>redis_read_hash_field</title>
<polygon fill="white" stroke="transparent" points="-4,4 -4,-80 252,-80 252,4 -4,4"/>
<!-- Node1 -->
<g id="node1" class="node">
<title>Node1</title>
<g id="a_node1"><a xlink:title=" ">
<polygon fill="#bfbfbf" stroke="black" points="143,-28.5 143,-46.5 248,-46.5 248,-28.5 143,-28.5"/>
<text text-anchor="middle" x="195.5" y="-35.3" font-family="Helvetica,sans-Serif" font-size="9.00">redis_read_hash_field</text>
</a>
</g>
</g>
<!-- Node2 -->
<g id="node2" class="node">
<title>Node2</title>
<g id="a_node2"><a xlink:href="redis__ipc_8c.html#a4d32bc83ac8b8c46384c6c69a3a4e4a3" target="_top" xlink:title=" ">
<polygon fill="white" stroke="black" points="0,-47.5 0,-75.5 107,-75.5 107,-47.5 0,-47.5"/>
<text text-anchor="start" x="8" y="-64.3" font-family="Helvetica,sans-Serif" font-size="9.00">redis_ipc_read_setting</text>
<text text-anchor="middle" x="53.5" y="-54.3" font-family="Helvetica,sans-Serif" font-size="9.00">_field</text>
</a>
</g>
</g>
<!-- Node1&#45;&gt;Node2 -->
<g id="edge1" class="edge">
<title>Node1&#45;&gt;Node2</title>
<path fill="none" stroke="midnightblue" d="M132.9,-48.06C124.41,-49.52 115.74,-51 107.42,-52.43"/>
<polygon fill="midnightblue" stroke="midnightblue" points="133.5,-51.51 142.77,-46.37 132.32,-44.61 133.5,-51.51"/>
</g>
<!-- Node3 -->
<g id="node3" class="node">
<title>Node3</title>
<g id="a_node3"><a xlink:href="redis__ipc_8c.html#ac0d91847e135883a9dc48b57bdf463d7" target="_top" xlink:title=" ">
<polygon fill="white" stroke="black" points="1,-0.5 1,-28.5 106,-28.5 106,-0.5 1,-0.5"/>
<text text-anchor="start" x="9" y="-17.3" font-family="Helvetica,sans-Serif" font-size="9.00">redis_ipc_read_status</text>
<text text-anchor="middle" x="53.5" y="-7.3" font-family="Helvetica,sans-Serif" font-size="9.00">_field</text>
</a>
</g>
</g>
<!-- Node1&#45;&gt;Node3 -->
<g id="edge2" class="edge">
<title>Node1&#45;&gt;Node3</title>
<path fill="none" stroke="midnightblue" d="M132.79,-27.36C123.85,-25.89 114.73,-24.39 106.02,-22.96"/>
<polygon fill="midnightblue" stroke="midnightblue" points="132.33,-30.83 142.77,-29 133.47,-23.93 132.33,-30.83"/>
</g>
</g>
</svg>
