<?xml version="1.0" encoding="UTF-8" standalone="no"?>
<!DOCTYPE svg PUBLIC "-//W3C//DTD SVG 1.1//EN"
 "http://www.w3.org/Graphics/SVG/1.1/DTD/svg11.dtd">
<!-- Generated by graphviz version 2.43.0 (0)
 -->
<!-- Title: redis_read_hash Pages: 1 -->
<svg width="250pt" height="64pt"
 viewBox="0.00 0.00 250.00 64.00" xmlns="http://www.w3.org/2000/svg" xmlns:xlink="http://www.w3.org/1999/xlink">
<g id="graph0" class="graph" transform="scale(1 1) rotate(0) translate(4 60)">
<title>redis_read_hash</title>
<polygon fill="white" stroke="transparent" points="-4,4 -4,-60 246,-60 246,4 -4,4"/>
<!-- Node1 -->
<g id="node1" class="node">
<title>Node1</title>
<g id="a_node1"><a xlink:title=" ">
<polygon fill="#bfbfbf" stroke="black" points="153,-18.5 153,-36.5 242,-36.5 242,-18.5 153,-18.5"/>
<text text-anchor="middle" x="197.5" y="-25.3" font-family="Helvetica,sans-Serif" font-size="9.00">redis_read_hash</text>
</a>
</g>
</g>
<!-- Node2 -->
<g id="node2" class="node">
<title>Node2</title>
<g id="a_node2"><a xlink:href="redis__ipc_8h.html#a3cfe2b5851e3cf7ef8acaafa0f409fae" target="_top" xlink:title=" ">
<polygon fill="white" stroke="black" points="0,-37.5 0,-55.5 117,-55.5 117,-37.5 0,-37.5"/>
<text text-anchor="middle" x="58.5" y="-44.3" font-family="Helvetica,sans-Serif" font-size="9.00">redis_ipc_read_setting</text>
</a>
</g>
</g>
<!-- Node1&#45;&gt;Node2 -->
<g id="edge1" class="edge">
<title>Node1&#45;&gt;Node2</title>
<path fill="none" stroke="midnightblue" d="M142.77,-34.95C134.42,-36.11 125.76,-37.31 117.31,-38.48"/>
<polygon fill="midnightblue" stroke="midnightblue" points="143.35,-38.4 152.78,-33.56 142.39,-31.47 143.35,-38.4"/>
</g>
<!-- Node3 -->
<g id="node3" class="node">
<title>Node3</title>
<g id="a_node3"><a xlink:href="redis__ipc_8h.html#ada50e7500b7b76526f3dbe186d330335" target="_top" xlink:title=" ">
<polygon fill="white" stroke="black" points="2,-0.5 2,-18.5 115,-18.5 115,-0.5 2,-0.5"/>
<text text-anchor="middle" x="58.5" y="-7.3" font-family="Helvetica,sans-Serif" font-size="9.00">redis_ipc_read_status</text>
</a>
</g>
</g>
<!-- Node1&#45;&gt;Node3 -->
<g id="edge2" class="edge">
<title>Node1&#45;&gt;Node3</title>
<path fill="none" stroke="midnightblue" d="M142.79,-20.44C133.78,-19.26 124.4,-18.03 115.34,-16.84"/>
<polygon fill="midnightblue" stroke="midnightblue" points="142.4,-23.92 152.78,-21.76 143.32,-16.98 142.4,-23.92"/>
</g>
</g>
</svg>
