<?xml version="1.0" encoding="UTF-8" standalone="no"?>
<!DOCTYPE svg PUBLIC "-//W3C//DTD SVG 1.1//EN"
 "http://www.w3.org/Graphics/SVG/1.1/DTD/svg11.dtd">
<!-- Generated by graphviz version 2.43.0 (0)
 -->
<!-- Title: redis_ipc_get_message_blocking Pages: 1 -->
<svg width="373pt" height="64pt"
 viewBox="0.00 0.00 373.00 64.00" xmlns="http://www.w3.org/2000/svg" xmlns:xlink="http://www.w3.org/1999/xlink">
<g id="graph0" class="graph" transform="scale(1 1) rotate(0) translate(4 60)">
<title>redis_ipc_get_message_blocking</title>
<polygon fill="white" stroke="transparent" points="-4,4 -4,-60 369,-60 369,4 -4,4"/>
<!-- Node1 -->
<g id="node1" class="node">
<title>Node1</title>
<g id="a_node1"><a xlink:title=" ">
<polygon fill="#bfbfbf" stroke="black" points="0,-13.5 0,-41.5 120,-41.5 120,-13.5 0,-13.5"/>
<text text-anchor="start" x="8" y="-30.3" font-family="Helvetica,sans-Serif" font-size="9.00">redis_ipc_get_message</text>
<text text-anchor="middle" x="60" y="-20.3" font-family="Helvetica,sans-Serif" font-size="9.00">_blocking</text>
</a>
</g>
</g>
<!-- Node2 -->
<g id="node2" class="node">
<title>Node2</title>
<g id="a_node2"><a xlink:href="redis__ipc_8c.html#aa2a3ce97c0b6f3e83572446f3c92e541" target="_top" xlink:title=" ">
<polygon fill="white" stroke="black" points="167,-37.5 167,-55.5 274,-55.5 274,-37.5 167,-37.5"/>
<text text-anchor="middle" x="220.5" y="-44.3" font-family="Helvetica,sans-Serif" font-size="9.00">get_per_thread_info</text>
</a>
</g>
</g>
<!-- Node1&#45;&gt;Node2 -->
<g id="edge1" class="edge">
<title>Node1&#45;&gt;Node2</title>
<path fill="none" stroke="midnightblue" d="M120.02,-34.57C132.05,-36.02 144.75,-37.54 156.91,-39"/>
<polygon fill="midnightblue" stroke="midnightblue" points="156.61,-42.49 166.96,-40.2 157.45,-35.54 156.61,-42.49"/>
</g>
<!-- Node4 -->
<g id="node4" class="node">
<title>Node4</title>
<g id="a_node4"><a xlink:href="redis__ipc_8c.html#a5e81feac565f9476476c5f042b2a5c9d" target="_top" xlink:title=" ">
<polygon fill="white" stroke="black" points="156,-0.5 156,-18.5 285,-18.5 285,-0.5 156,-0.5"/>
<text text-anchor="middle" x="220.5" y="-7.3" font-family="Helvetica,sans-Serif" font-size="9.00">stderr_debug_is_enabled</text>
</a>
</g>
</g>
<!-- Node1&#45;&gt;Node4 -->
<g id="edge3" class="edge">
<title>Node1&#45;&gt;Node4</title>
<path fill="none" stroke="midnightblue" d="M120.02,-20.8C128.43,-19.84 137.17,-18.85 145.82,-17.87"/>
<polygon fill="midnightblue" stroke="midnightblue" points="146.37,-21.33 155.91,-16.72 145.58,-14.37 146.37,-21.33"/>
</g>
<!-- Node3 -->
<g id="node3" class="node">
<title>Node3</title>
<g id="a_node3"><a xlink:href="redis__ipc_8c.html#af0449193b7cded86e600f052d0aabd39" target="_top" xlink:title=" ">
<polygon fill="white" stroke="black" points="321,-37.5 321,-55.5 365,-55.5 365,-37.5 321,-37.5"/>
<text text-anchor="middle" x="343" y="-44.3" font-family="Helvetica,sans-Serif" font-size="9.00">gettid</text>
</a>
</g>
</g>
<!-- Node2&#45;&gt;Node3 -->
<g id="edge2" class="edge">
<title>Node2&#45;&gt;Node3</title>
<path fill="none" stroke="midnightblue" d="M274,-46.5C286.5,-46.5 299.45,-46.5 310.65,-46.5"/>
<polygon fill="midnightblue" stroke="midnightblue" points="310.78,-50 320.78,-46.5 310.78,-43 310.78,-50"/>
</g>
</g>
</svg>
