<?xml version="1.0" encoding="UTF-8" standalone="no"?>
<!DOCTYPE svg PUBLIC "-//W3C//DTD SVG 1.1//EN"
 "http://www.w3.org/Graphics/SVG/1.1/DTD/svg11.dtd">
<!-- Generated by graphviz version 3.0.0 (20220413.0106)
 -->
<!-- Title: redis_unsubscribe Pages: 1 -->
<svg width="575pt" height="64pt"
 viewBox="0.00 0.00 575.00 64.00" xmlns="http://www.w3.org/2000/svg" xmlns:xlink="http://www.w3.org/1999/xlink">
<g id="graph0" class="graph" transform="scale(1 1) rotate(0) translate(4 60)">
<title>redis_unsubscribe</title>
<polygon fill="white" stroke="transparent" points="-4,4 -4,-60 571,-60 571,4 -4,4"/>
<!-- Node1 -->
<g id="node1" class="node">
<title>Node1</title>
<g id="a_node1"><a xlink:title=" ">
<polygon fill="#bfbfbf" stroke="black" points="0,-19.5 0,-37.5 89,-37.5 89,-19.5 0,-19.5"/>
<text text-anchor="middle" x="44.5" y="-26.3" font-family="Helvetica,sans-Serif" font-size="9.00">redis_unsubscribe</text>
</a>
</g>
</g>
<!-- Node2 -->
<g id="node2" class="node">
<title>Node2</title>
<g id="a_node2"><a xlink:href="redis__ipc_8c.html#afab35d4c40b4b1866fc0239bb885a39b" target="_top" xlink:title=" ">
<polygon fill="white" stroke="black" points="125,-19.5 125,-37.5 205,-37.5 205,-19.5 125,-19.5"/>
<text text-anchor="middle" x="165" y="-26.3" font-family="Helvetica,sans-Serif" font-size="9.00">redis_command</text>
</a>
</g>
</g>
<!-- Node1&#45;&gt;Node2 -->
<g id="edge1" class="edge">
<title>Node1&#45;&gt;Node2</title>
<path fill="none" stroke="midnightblue" d="M89.29,-28.5C97.54,-28.5 106.22,-28.5 114.62,-28.5"/>
<polygon fill="midnightblue" stroke="midnightblue" points="114.7,-32 124.7,-28.5 114.7,-25 114.7,-32"/>
</g>
<!-- Node3 -->
<g id="node3" class="node">
<title>Node3</title>
<g id="a_node3"><a xlink:href="redis__ipc_8c.html#a7b930ec420c7b4bf2df1469aca77f93d" target="_top" xlink:title=" ">
<polygon fill="white" stroke="black" points="386.5,-37.5 386.5,-55.5 481.5,-55.5 481.5,-37.5 386.5,-37.5"/>
<text text-anchor="middle" x="434" y="-44.3" font-family="Helvetica,sans-Serif" font-size="9.00">get_per_thread_info</text>
</a>
</g>
</g>
<!-- Node2&#45;&gt;Node3 -->
<g id="edge2" class="edge">
<title>Node2&#45;&gt;Node3</title>
<path fill="none" stroke="midnightblue" d="M194.53,-37.5C208.4,-41.42 225.41,-45.56 241,-47.5 286.05,-53.12 337.51,-52.47 375.81,-50.64"/>
<polygon fill="midnightblue" stroke="midnightblue" points="376.44,-54.11 386.24,-50.1 376.07,-47.12 376.44,-54.11"/>
</g>
<!-- Node5 -->
<g id="node5" class="node">
<title>Node5</title>
<g id="a_node5"><a xlink:href="redis__ipc_8c.html#a5e81feac565f9476476c5f042b2a5c9d" target="_top" xlink:title=" ">
<polygon fill="white" stroke="black" points="375,-0.5 375,-18.5 493,-18.5 493,-0.5 375,-0.5"/>
<text text-anchor="middle" x="434" y="-7.3" font-family="Helvetica,sans-Serif" font-size="9.00">stderr_debug_is_enabled</text>
</a>
</g>
</g>
<!-- Node2&#45;&gt;Node5 -->
<g id="edge4" class="edge">
<title>Node2&#45;&gt;Node5</title>
<path fill="none" stroke="midnightblue" d="M194.53,-19.5C208.4,-15.58 225.41,-11.44 241,-9.5 281.82,-4.41 327.89,-4.23 364.68,-5.4"/>
<polygon fill="midnightblue" stroke="midnightblue" points="364.68,-8.91 374.79,-5.77 364.93,-1.91 364.68,-8.91"/>
</g>
<!-- Node6 -->
<g id="node6" class="node">
<title>Node6</title>
<g id="a_node6"><a xlink:href="redis__ipc_8c.html#a80ea8825dd17a3cff2530680c97d184a" target="_top" xlink:title=" ">
<polygon fill="white" stroke="black" points="241,-19.5 241,-37.5 339,-37.5 339,-19.5 241,-19.5"/>
<text text-anchor="middle" x="290" y="-26.3" font-family="Helvetica,sans-Serif" font-size="9.00">validate_redis_reply</text>
</a>
</g>
</g>
<!-- Node2&#45;&gt;Node6 -->
<g id="edge5" class="edge">
<title>Node2&#45;&gt;Node6</title>
<path fill="none" stroke="midnightblue" d="M205.26,-28.5C213.34,-28.5 222.02,-28.5 230.62,-28.5"/>
<polygon fill="midnightblue" stroke="midnightblue" points="230.63,-32 240.63,-28.5 230.63,-25 230.63,-32"/>
</g>
<!-- Node4 -->
<g id="node4" class="node">
<title>Node4</title>
<g id="a_node4"><a xlink:href="redis__ipc_8c.html#af0449193b7cded86e600f052d0aabd39" target="_top" xlink:title=" ">
<polygon fill="white" stroke="black" points="529,-37.5 529,-55.5 567,-55.5 567,-37.5 529,-37.5"/>
<text text-anchor="middle" x="548" y="-44.3" font-family="Helvetica,sans-Serif" font-size="9.00">gettid</text>
</a>
</g>
</g>
<!-- Node3&#45;&gt;Node4 -->
<g id="edge3" class="edge">
<title>Node3&#45;&gt;Node4</title>
<path fill="none" stroke="midnightblue" d="M481.53,-46.5C494.19,-46.5 507.51,-46.5 518.82,-46.5"/>
<polygon fill="midnightblue" stroke="midnightblue" points="518.94,-50 528.94,-46.5 518.94,-43 518.94,-50"/>
</g>
<!-- Node6&#45;&gt;Node3 -->
<g id="edge6" class="edge">
<title>Node6&#45;&gt;Node3</title>
<path fill="none" stroke="midnightblue" d="M339.07,-34.59C351.02,-36.11 363.93,-37.74 376.25,-39.31"/>
<polygon fill="midnightblue" stroke="midnightblue" points="376.06,-42.81 386.42,-40.6 376.94,-35.87 376.06,-42.81"/>
</g>
<!-- Node6&#45;&gt;Node5 -->
<g id="edge7" class="edge">
<title>Node6&#45;&gt;Node5</title>
<path fill="none" stroke="midnightblue" d="M339.07,-22.07C347.34,-20.96 356.08,-19.79 364.76,-18.63"/>
<polygon fill="midnightblue" stroke="midnightblue" points="365.44,-22.07 374.89,-17.28 364.52,-15.13 365.44,-22.07"/>
</g>
</g>
</svg>
