<?xml version="1.0" encoding="UTF-8" standalone="no"?>
<!DOCTYPE svg PUBLIC "-//W3C//DTD SVG 1.1//EN"
 "http://www.w3.org/Graphics/SVG/1.1/DTD/svg11.dtd">
<!-- Generated by graphviz version 2.43.0 (0)
 -->
<!-- Title: redis_ipc_init Pages: 1 -->
<svg width="248pt" height="138pt"
 viewBox="0.00 0.00 248.00 138.00" xmlns="http://www.w3.org/2000/svg" xmlns:xlink="http://www.w3.org/1999/xlink">
<g id="graph0" class="graph" transform="scale(1 1) rotate(0) translate(4 134)">
<title>redis_ipc_init</title>
<polygon fill="white" stroke="transparent" points="-4,4 -4,-134 244,-134 244,4 -4,4"/>
<!-- Node1 -->
<g id="node1" class="node">
<title>Node1</title>
<g id="a_node1"><a xlink:title=" ">
<polygon fill="#bfbfbf" stroke="black" points="0,-55.5 0,-73.5 75,-73.5 75,-55.5 0,-55.5"/>
<text text-anchor="middle" x="37.5" y="-62.3" font-family="Helvetica,sans-Serif" font-size="9.00">redis_ipc_init</text>
</a>
</g>
</g>
<!-- Node2 -->
<g id="node2" class="node">
<title>Node2</title>
<g id="a_node2"><a xlink:href="redis__ipc_8c.html#a04a4c0f6793b33cc37b42c4719fb539c" target="_top" xlink:title=" ">
<polygon fill="white" stroke="black" points="111.5,-111.5 111.5,-129.5 239.5,-129.5 239.5,-111.5 111.5,-111.5"/>
<text text-anchor="middle" x="175.5" y="-118.3" font-family="Helvetica,sans-Serif" font-size="9.00">cleanup_per_thread_info</text>
</a>
</g>
</g>
<!-- Node1&#45;&gt;Node2 -->
<g id="edge1" class="edge">
<title>Node1&#45;&gt;Node2</title>
<path fill="none" stroke="midnightblue" d="M53.62,-73.61C67.99,-81.97 90.41,-94.29 111,-102.5 116.45,-104.68 122.27,-106.7 128.08,-108.55"/>
<polygon fill="midnightblue" stroke="midnightblue" points="127.22,-111.94 137.8,-111.49 129.24,-105.24 127.22,-111.94"/>
</g>
<!-- Node3 -->
<g id="node3" class="node">
<title>Node3</title>
<g id="a_node3"><a xlink:href="redis__ipc_8c.html#af0449193b7cded86e600f052d0aabd39" target="_top" xlink:title=" ">
<polygon fill="white" stroke="black" points="153.5,-74.5 153.5,-92.5 197.5,-92.5 197.5,-74.5 153.5,-74.5"/>
<text text-anchor="middle" x="175.5" y="-81.3" font-family="Helvetica,sans-Serif" font-size="9.00">gettid</text>
</a>
</g>
</g>
<!-- Node1&#45;&gt;Node3 -->
<g id="edge2" class="edge">
<title>Node1&#45;&gt;Node3</title>
<path fill="none" stroke="midnightblue" d="M75.3,-69.64C96.61,-72.62 123.12,-76.32 143.38,-79.15"/>
<polygon fill="midnightblue" stroke="midnightblue" points="142.95,-82.63 153.34,-80.54 143.92,-75.69 142.95,-82.63"/>
</g>
<!-- Node4 -->
<g id="node4" class="node">
<title>Node4</title>
<g id="a_node4"><a xlink:href="redis__ipc_8c.html#a67c9dd84d2426ab58a759dbdfd223267" target="_top" xlink:title=" ">
<polygon fill="white" stroke="black" points="147.5,-37.5 147.5,-55.5 203.5,-55.5 203.5,-37.5 147.5,-37.5"/>
<text text-anchor="middle" x="175.5" y="-44.3" font-family="Helvetica,sans-Serif" font-size="9.00">ipc_path</text>
</a>
</g>
</g>
<!-- Node1&#45;&gt;Node4 -->
<g id="edge3" class="edge">
<title>Node1&#45;&gt;Node4</title>
<path fill="none" stroke="midnightblue" d="M75.3,-59.63C94.51,-57.09 117.95,-53.98 137.22,-51.43"/>
<polygon fill="midnightblue" stroke="midnightblue" points="137.71,-54.9 147.16,-50.12 136.79,-47.96 137.71,-54.9"/>
</g>
<!-- Node5 -->
<g id="node5" class="node">
<title>Node5</title>
<g id="a_node5"><a xlink:href="redis__ipc_8c.html#a5e81feac565f9476476c5f042b2a5c9d" target="_top" xlink:title=" ">
<polygon fill="white" stroke="black" points="111,-0.5 111,-18.5 240,-18.5 240,-0.5 111,-0.5"/>
<text text-anchor="middle" x="175.5" y="-7.3" font-family="Helvetica,sans-Serif" font-size="9.00">stderr_debug_is_enabled</text>
</a>
</g>
</g>
<!-- Node1&#45;&gt;Node5 -->
<g id="edge4" class="edge">
<title>Node1&#45;&gt;Node5</title>
<path fill="none" stroke="midnightblue" d="M54.84,-55.38C69.3,-47.56 91.13,-36.34 111,-28.5 117.33,-26 124.12,-23.65 130.83,-21.5"/>
<polygon fill="midnightblue" stroke="midnightblue" points="132,-24.8 140.52,-18.51 129.93,-18.11 132,-24.8"/>
</g>
</g>
</svg>
