<?xml version="1.0" encoding="UTF-8" standalone="no"?>
<!DOCTYPE svg PUBLIC "-//W3C//DTD SVG 1.1//EN"
 "http://www.w3.org/Graphics/SVG/1.1/DTD/svg11.dtd">
<!-- Generated by graphviz version 2.47.1 (20210417.1919)
 -->
<!-- Title: cleanup_per_thread_info Pages: 1 -->
<svg width="269pt" height="64pt"
 viewBox="0.00 0.00 269.00 64.00" xmlns="http://www.w3.org/2000/svg" xmlns:xlink="http://www.w3.org/1999/xlink">
<g id="graph0" class="graph" transform="scale(1 1) rotate(0) translate(4 60)">
<title>cleanup_per_thread_info</title>
<polygon fill="white" stroke="transparent" points="-4,4 -4,-60 265,-60 265,4 -4,4"/>
<!-- Node1 -->
<g id="node1" class="node">
<title>Node1</title>
<g id="a_node1"><a xlink:title=" ">
<polygon fill="#bfbfbf" stroke="black" points="133,-18.5 133,-36.5 261,-36.5 261,-18.5 133,-18.5"/>
<text text-anchor="middle" x="197" y="-25.3" font-family="Helvetica,sans-Serif" font-size="9.00">cleanup_per_thread_info</text>
</a>
</g>
</g>
<!-- Node2 -->
<g id="node2" class="node">
<title>Node2</title>
<g id="a_node2"><a xlink:href="redis__ipc_8c.html#a1e6896781e1374d1a1d906d97085a70c" target="_top" xlink:title=" ">
<polygon fill="white" stroke="black" points="0,-37.5 0,-55.5 97,-55.5 97,-37.5 0,-37.5"/>
<text text-anchor="middle" x="48.5" y="-44.3" font-family="Helvetica,sans-Serif" font-size="9.00">redis_ipc_cleanup</text>
</a>
</g>
</g>
<!-- Node1&#45;&gt;Node2 -->
<g id="edge1" class="edge">
<title>Node1&#45;&gt;Node2</title>
<path fill="none" stroke="midnightblue" d="M122.49,-37.03C113.86,-38.15 105.24,-39.27 97.1,-40.33"/>
<polygon fill="midnightblue" stroke="midnightblue" points="123.13,-40.48 132.6,-35.72 122.23,-33.54 123.13,-40.48"/>
</g>
<!-- Node3 -->
<g id="node3" class="node">
<title>Node3</title>
<g id="a_node3"><a xlink:href="redis__ipc_8c.html#ad761c2631d54b43ea0a5426813bc4dd1" target="_top" xlink:title=" ">
<polygon fill="white" stroke="black" points="11,-0.5 11,-18.5 86,-18.5 86,-0.5 11,-0.5"/>
<text text-anchor="middle" x="48.5" y="-7.3" font-family="Helvetica,sans-Serif" font-size="9.00">redis_ipc_init</text>
</a>
</g>
</g>
<!-- Node1&#45;&gt;Node3 -->
<g id="edge2" class="edge">
<title>Node1&#45;&gt;Node3</title>
<path fill="none" stroke="midnightblue" d="M122.56,-18.48C110.01,-16.93 97.47,-15.39 86.41,-14.03"/>
<polygon fill="midnightblue" stroke="midnightblue" points="122.24,-21.96 132.6,-19.71 123.1,-15.02 122.24,-21.96"/>
</g>
</g>
</svg>
