<?xml version="1.0" encoding="UTF-8" standalone="no"?>
<!DOCTYPE svg PUBLIC "-//W3C//DTD SVG 1.1//EN"
 "http://www.w3.org/Graphics/SVG/1.1/DTD/svg11.dtd">
<!-- Generated by graphviz version 2.43.0 (0)
 -->
<!-- Title: json_add_common_fields Pages: 1 -->
<svg width="580pt" height="121pt"
 viewBox="0.00 0.00 580.00 121.00" xmlns="http://www.w3.org/2000/svg" xmlns:xlink="http://www.w3.org/1999/xlink">
<g id="graph0" class="graph" transform="scale(1 1) rotate(0) translate(4 117)">
<title>json_add_common_fields</title>
<polygon fill="white" stroke="transparent" points="-4,4 -4,-117 576,-117 576,4 -4,4"/>
<!-- Node1 -->
<g id="node1" class="node">
<title>Node1</title>
<g id="a_node1"><a xlink:title=" ">
<polygon fill="#bfbfbf" stroke="black" points="443,-29.5 443,-47.5 572,-47.5 572,-29.5 443,-29.5"/>
<text text-anchor="middle" x="507.5" y="-36.3" font-family="Helvetica,sans-Serif" font-size="9.00">json_add_common_fields</text>
</a>
</g>
</g>
<!-- Node2 -->
<g id="node2" class="node">
<title>Node2</title>
<g id="a_node2"><a xlink:href="redis__ipc_8c.html#ab3dc5609833c201c4e9ebaa5e2e70a2f" target="_top" xlink:title=" ">
<polygon fill="white" stroke="black" points="331,-48.5 331,-66.5 407,-66.5 407,-48.5 331,-48.5"/>
<text text-anchor="middle" x="369" y="-55.3" font-family="Helvetica,sans-Serif" font-size="9.00">redis_publish</text>
</a>
</g>
</g>
<!-- Node1&#45;&gt;Node2 -->
<g id="edge1" class="edge">
<title>Node1&#45;&gt;Node2</title>
<path fill="none" stroke="midnightblue" d="M432.62,-48.78C423.76,-50.02 415.02,-51.23 407.02,-52.35"/>
<polygon fill="midnightblue" stroke="midnightblue" points="433.22,-52.23 442.65,-47.39 432.26,-45.3 433.22,-52.23"/>
</g>
<!-- Node8 -->
<g id="node8" class="node">
<title>Node8</title>
<g id="a_node8"><a xlink:href="redis__ipc_8c.html#ae826a119ee7ca11d9636c6f34b9a29e9" target="_top" xlink:title=" ">
<polygon fill="white" stroke="black" points="204.5,-10.5 204.5,-28.5 269.5,-28.5 269.5,-10.5 204.5,-10.5"/>
<text text-anchor="middle" x="237" y="-17.3" font-family="Helvetica,sans-Serif" font-size="9.00">redis_push</text>
</a>
</g>
</g>
<!-- Node1&#45;&gt;Node8 -->
<g id="edge7" class="edge">
<title>Node1&#45;&gt;Node8</title>
<path fill="none" stroke="midnightblue" d="M432.73,-33.28C379.16,-29.49 309.35,-24.55 269.52,-21.73"/>
<polygon fill="midnightblue" stroke="midnightblue" points="432.65,-36.78 442.87,-34 433.14,-29.8 432.65,-36.78"/>
</g>
<!-- Node3 -->
<g id="node3" class="node">
<title>Node3</title>
<g id="a_node3"><a xlink:href="redis__ipc_8h.html#a66cdf2ae760d1acb487dd82c1392c12f" target="_top" xlink:title=" ">
<polygon fill="white" stroke="black" points="179,-47.5 179,-65.5 295,-65.5 295,-47.5 179,-47.5"/>
<text text-anchor="middle" x="237" y="-54.3" font-family="Helvetica,sans-Serif" font-size="9.00">redis_ipc_send_debug</text>
</a>
</g>
</g>
<!-- Node2&#45;&gt;Node3 -->
<g id="edge2" class="edge">
<title>Node2&#45;&gt;Node3</title>
<path fill="none" stroke="midnightblue" d="M320.55,-57.14C312.29,-57.07 303.63,-57 295.14,-56.94"/>
<polygon fill="midnightblue" stroke="midnightblue" points="320.72,-60.64 330.75,-57.21 320.77,-53.64 320.72,-60.64"/>
</g>
<!-- Node7 -->
<g id="node7" class="node">
<title>Node7</title>
<g id="a_node7"><a xlink:href="redis__ipc_8h.html#a9040f6af2f364ef8da41175eb6073693" target="_top" xlink:title=" ">
<polygon fill="white" stroke="black" points="180.5,-84.5 180.5,-102.5 293.5,-102.5 293.5,-84.5 180.5,-84.5"/>
<text text-anchor="middle" x="237" y="-91.3" font-family="Helvetica,sans-Serif" font-size="9.00">redis_ipc_send_event</text>
</a>
</g>
</g>
<!-- Node2&#45;&gt;Node7 -->
<g id="edge6" class="edge">
<title>Node2&#45;&gt;Node7</title>
<path fill="none" stroke="midnightblue" d="M325.12,-69.38C307.43,-74.27 287.27,-79.86 270.79,-84.42"/>
<polygon fill="midnightblue" stroke="midnightblue" points="326.49,-72.63 335.2,-66.58 324.62,-65.88 326.49,-72.63"/>
</g>
<!-- Node4 -->
<g id="node4" class="node">
<title>Node4</title>
<g id="a_node4"><a xlink:href="redis__ipc_8h.html#a6961dec4572f2b0b9f52ae09ae663728" target="_top" xlink:title=" ">
<polygon fill="white" stroke="black" points="0,-84.5 0,-112.5 143,-112.5 143,-84.5 0,-84.5"/>
<text text-anchor="start" x="8" y="-101.3" font-family="Helvetica,sans-Serif" font-size="9.00">redis_ipc_receive_command</text>
<text text-anchor="middle" x="71.5" y="-91.3" font-family="Helvetica,sans-Serif" font-size="9.00">_blocking</text>
</a>
</g>
</g>
<!-- Node3&#45;&gt;Node4 -->
<g id="edge3" class="edge">
<title>Node3&#45;&gt;Node4</title>
<path fill="none" stroke="midnightblue" d="M191.23,-68C171.43,-73.09 147.96,-79.12 127.14,-84.46"/>
<polygon fill="midnightblue" stroke="midnightblue" points="192.11,-71.39 200.93,-65.51 190.37,-64.61 192.11,-71.39"/>
</g>
<!-- Node5 -->
<g id="node5" class="node">
<title>Node5</title>
<g id="a_node5"><a xlink:href="redis__ipc_8h.html#a696ecebb5df3f171ed7b6adf682c83a2" target="_top" xlink:title=" ">
<polygon fill="white" stroke="black" points="5,-0.5 5,-28.5 138,-28.5 138,-0.5 5,-0.5"/>
<text text-anchor="start" x="13" y="-17.3" font-family="Helvetica,sans-Serif" font-size="9.00">redis_ipc_send_command</text>
<text text-anchor="middle" x="71.5" y="-7.3" font-family="Helvetica,sans-Serif" font-size="9.00">_blocking</text>
</a>
</g>
</g>
<!-- Node3&#45;&gt;Node5 -->
<g id="edge4" class="edge">
<title>Node3&#45;&gt;Node5</title>
<path fill="none" stroke="midnightblue" d="M191.23,-45C171.43,-39.91 147.96,-33.88 127.14,-28.54"/>
<polygon fill="midnightblue" stroke="midnightblue" points="190.37,-48.39 200.93,-47.49 192.11,-41.61 190.37,-48.39"/>
</g>
<!-- Node6 -->
<g id="node6" class="node">
<title>Node6</title>
<g id="a_node6"><a xlink:href="redis__ipc_8h.html#aecff1f4edcb2ebf0654d0fff21e334a5" target="_top" xlink:title=" ">
<polygon fill="white" stroke="black" points="15,-47.5 15,-65.5 128,-65.5 128,-47.5 15,-47.5"/>
<text text-anchor="middle" x="71.5" y="-54.3" font-family="Helvetica,sans-Serif" font-size="9.00">redis_ipc_send_result</text>
</a>
</g>
</g>
<!-- Node3&#45;&gt;Node6 -->
<g id="edge5" class="edge">
<title>Node3&#45;&gt;Node6</title>
<path fill="none" stroke="midnightblue" d="M168.67,-56.5C155.24,-56.5 141.27,-56.5 128.27,-56.5"/>
<polygon fill="midnightblue" stroke="midnightblue" points="168.82,-60 178.82,-56.5 168.82,-53 168.82,-60"/>
</g>
<!-- Node8&#45;&gt;Node5 -->
<g id="edge8" class="edge">
<title>Node8&#45;&gt;Node5</title>
<path fill="none" stroke="midnightblue" d="M194.29,-18.22C177.22,-17.7 157.06,-17.09 138.1,-16.51"/>
<polygon fill="midnightblue" stroke="midnightblue" points="194.37,-21.73 204.48,-18.54 194.59,-14.73 194.37,-21.73"/>
</g>
<!-- Node8&#45;&gt;Node6 -->
<g id="edge9" class="edge">
<title>Node8&#45;&gt;Node6</title>
<path fill="none" stroke="midnightblue" d="M194.48,-28.9C169.26,-34.6 137.23,-41.85 112.33,-47.49"/>
<polygon fill="midnightblue" stroke="midnightblue" points="195.49,-32.25 204.48,-26.63 193.95,-25.43 195.49,-32.25"/>
</g>
</g>
</svg>
