<?xml version="1.0" encoding="UTF-8" standalone="no"?>
<!DOCTYPE svg PUBLIC "-//W3C//DTD SVG 1.1//EN"
 "http://www.w3.org/Graphics/SVG/1.1/DTD/svg11.dtd">
<!-- Generated by graphviz version 2.50.0 (20220203.2022)
 -->
<!-- Title: component_can_write_settings Pages: 1 -->
<svg width="254pt" height="74pt"
 viewBox="0.00 0.00 254.00 74.00" xmlns="http://www.w3.org/2000/svg" xmlns:xlink="http://www.w3.org/1999/xlink">
<g id="graph0" class="graph" transform="scale(1 1) rotate(0) translate(4 70)">
<title>component_can_write_settings</title>
<polygon fill="white" stroke="transparent" points="-4,4 -4,-70 250,-70 250,4 -4,4"/>
<!-- Node1 -->
<g id="node1" class="node">
<title>Node1</title>
<g id="a_node1"><a xlink:title=" ">
<polygon fill="#bfbfbf" stroke="black" points="144,-21.5 144,-49.5 246,-49.5 246,-21.5 144,-21.5"/>
<text text-anchor="start" x="152" y="-38.3" font-family="Helvetica,sans-Serif" font-size="9.00">component_can_write</text>
<text text-anchor="middle" x="195" y="-28.3" font-family="Helvetica,sans-Serif" font-size="9.00">_settings</text>
</a>
</g>
</g>
<!-- Node2 -->
<g id="node2" class="node">
<title>Node2</title>
<g id="a_node2"><a xlink:href="redis__ipc_8c.html#a11db23f8f055e2d63fd8308c3d382da4" target="_top" xlink:title=" ">
<polygon fill="white" stroke="black" points="0,-47.5 0,-65.5 108,-65.5 108,-47.5 0,-47.5"/>
<text text-anchor="middle" x="54" y="-54.3" font-family="Helvetica,sans-Serif" font-size="9.00">redis_ipc_write_setting</text>
</a>
</g>
</g>
<!-- Node1&#45;&gt;Node2 -->
<g id="edge1" class="edge">
<title>Node1&#45;&gt;Node2</title>
<path fill="none" stroke="midnightblue" d="M133.68,-44.61C125.26,-45.88 116.67,-47.18 108.39,-48.43"/>
<polygon fill="midnightblue" stroke="midnightblue" points="134.45,-48.04 143.82,-43.08 133.41,-41.11 134.45,-48.04"/>
</g>
<!-- Node3 -->
<g id="node3" class="node">
<title>Node3</title>
<g id="a_node3"><a xlink:href="redis__ipc_8c.html#aef76ea4158d5075f2c2c0041ec62d1d5" target="_top" xlink:title=" ">
<polygon fill="white" stroke="black" points="0,-0.5 0,-28.5 108,-28.5 108,-0.5 0,-0.5"/>
<text text-anchor="start" x="8" y="-17.3" font-family="Helvetica,sans-Serif" font-size="9.00">redis_ipc_write_setting</text>
<text text-anchor="middle" x="54" y="-7.3" font-family="Helvetica,sans-Serif" font-size="9.00">_field</text>
</a>
</g>
</g>
<!-- Node1&#45;&gt;Node3 -->
<g id="edge2" class="edge">
<title>Node1&#45;&gt;Node3</title>
<path fill="none" stroke="midnightblue" d="M133.68,-26.39C125.26,-25.12 116.67,-23.82 108.39,-22.57"/>
<polygon fill="midnightblue" stroke="midnightblue" points="133.41,-29.89 143.82,-27.92 134.45,-22.96 133.41,-29.89"/>
</g>
</g>
</svg>
