<?xml version="1.0" encoding="UTF-8" standalone="no"?>
<!DOCTYPE svg PUBLIC "-//W3C//DTD SVG 1.1//EN"
 "http://www.w3.org/Graphics/SVG/1.1/DTD/svg11.dtd">
<!-- Generated by graphviz version 2.50.0 (20220203.2022)
 -->
<!-- Title: redis_ipc_write_setting_field Pages: 1 -->
<svg width="736pt" height="170pt"
 viewBox="0.00 0.00 736.00 170.00" xmlns="http://www.w3.org/2000/svg" xmlns:xlink="http://www.w3.org/1999/xlink">
<g id="graph0" class="graph" transform="scale(1 1) rotate(0) translate(4 166)">
<title>redis_ipc_write_setting_field</title>
<polygon fill="white" stroke="transparent" points="-4,4 -4,-166 732,-166 732,4 -4,4"/>
<!-- Node1 -->
<g id="node1" class="node">
<title>Node1</title>
<g id="a_node1"><a xlink:title=" ">
<polygon fill="#bfbfbf" stroke="black" points="0,-71.5 0,-99.5 108,-99.5 108,-71.5 0,-71.5"/>
<text text-anchor="start" x="8" y="-88.3" font-family="Helvetica,sans-Serif" font-size="9.00">redis_ipc_write_setting</text>
<text text-anchor="middle" x="54" y="-78.3" font-family="Helvetica,sans-Serif" font-size="9.00">_field</text>
</a>
</g>
</g>
<!-- Node2 -->
<g id="node2" class="node">
<title>Node2</title>
<g id="a_node2"><a xlink:href="redis__ipc_8c.html#a67965ac8f6a5a98becff25267faf1a8c" target="_top" xlink:title=" ">
<polygon fill="white" stroke="black" points="146,-133.5 146,-161.5 248,-161.5 248,-133.5 146,-133.5"/>
<text text-anchor="start" x="154" y="-150.3" font-family="Helvetica,sans-Serif" font-size="9.00">component_can_write</text>
<text text-anchor="middle" x="197" y="-140.3" font-family="Helvetica,sans-Serif" font-size="9.00">_settings</text>
</a>
</g>
</g>
<!-- Node1&#45;&gt;Node2 -->
<g id="edge1" class="edge">
<title>Node1&#45;&gt;Node2</title>
<path fill="none" stroke="midnightblue" d="M87,-99.57C107.1,-108.41 133.22,-119.9 154.86,-129.41"/>
<polygon fill="midnightblue" stroke="midnightblue" points="153.57,-132.67 164.13,-133.49 156.39,-126.26 153.57,-132.67"/>
</g>
<!-- Node3 -->
<g id="node3" class="node">
<title>Node3</title>
<g id="a_node3"><a xlink:href="redis__ipc_8c.html#a7b930ec420c7b4bf2df1469aca77f93d" target="_top" xlink:title=" ">
<polygon fill="white" stroke="black" points="547.5,-57.5 547.5,-75.5 642.5,-75.5 642.5,-57.5 547.5,-57.5"/>
<text text-anchor="middle" x="595" y="-64.3" font-family="Helvetica,sans-Serif" font-size="9.00">get_per_thread_info</text>
</a>
</g>
</g>
<!-- Node1&#45;&gt;Node3 -->
<g id="edge2" class="edge">
<title>Node1&#45;&gt;Node3</title>
<path fill="none" stroke="midnightblue" d="M108.39,-86.29C147.59,-86.68 202.11,-86.82 250,-85.5 351.23,-82.71 469.03,-75.3 537.2,-70.6"/>
<polygon fill="midnightblue" stroke="midnightblue" points="537.56,-74.08 547.3,-69.9 537.08,-67.1 537.56,-74.08"/>
</g>
<!-- Node5 -->
<g id="node5" class="node">
<title>Node5</title>
<g id="a_node5"><a xlink:href="redis__ipc_8c.html#a67c9dd84d2426ab58a759dbdfd223267" target="_top" xlink:title=" ">
<polygon fill="white" stroke="black" points="171.5,-57.5 171.5,-75.5 222.5,-75.5 222.5,-57.5 171.5,-57.5"/>
<text text-anchor="middle" x="197" y="-64.3" font-family="Helvetica,sans-Serif" font-size="9.00">ipc_path</text>
</a>
</g>
</g>
<!-- Node1&#45;&gt;Node5 -->
<g id="edge4" class="edge">
<title>Node1&#45;&gt;Node5</title>
<path fill="none" stroke="midnightblue" d="M108.31,-78.32C126.09,-75.92 145.43,-73.31 161.41,-71.16"/>
<polygon fill="midnightblue" stroke="midnightblue" points="161.93,-74.62 171.38,-69.82 161,-67.68 161.93,-74.62"/>
</g>
<!-- Node6 -->
<g id="node6" class="node">
<title>Node6</title>
<g id="a_node6"><a xlink:href="redis__ipc_8c.html#ad0c6708404743ef74dddacc617fb8b8e" target="_top" xlink:title=" ">
<polygon fill="white" stroke="black" points="144,-20.5 144,-38.5 250,-38.5 250,-20.5 144,-20.5"/>
<text text-anchor="middle" x="197" y="-27.3" font-family="Helvetica,sans-Serif" font-size="9.00">redis_write_hash_field</text>
</a>
</g>
</g>
<!-- Node1&#45;&gt;Node6 -->
<g id="edge5" class="edge">
<title>Node1&#45;&gt;Node6</title>
<path fill="none" stroke="midnightblue" d="M86.5,-71.41C103.42,-64 124.72,-54.94 144,-47.5 148.83,-45.63 153.95,-43.75 159.02,-41.94"/>
<polygon fill="midnightblue" stroke="midnightblue" points="160.33,-45.19 168.61,-38.58 158.02,-38.58 160.33,-45.19"/>
</g>
<!-- Node4 -->
<g id="node4" class="node">
<title>Node4</title>
<g id="a_node4"><a xlink:href="redis__ipc_8c.html#af0449193b7cded86e600f052d0aabd39" target="_top" xlink:title=" ">
<polygon fill="white" stroke="black" points="690,-57.5 690,-75.5 728,-75.5 728,-57.5 690,-57.5"/>
<text text-anchor="middle" x="709" y="-64.3" font-family="Helvetica,sans-Serif" font-size="9.00">gettid</text>
</a>
</g>
</g>
<!-- Node3&#45;&gt;Node4 -->
<g id="edge3" class="edge">
<title>Node3&#45;&gt;Node4</title>
<path fill="none" stroke="midnightblue" d="M642.53,-66.5C655.19,-66.5 668.51,-66.5 679.82,-66.5"/>
<polygon fill="midnightblue" stroke="midnightblue" points="679.94,-70 689.94,-66.5 679.94,-63 679.94,-70"/>
</g>
<!-- Node7 -->
<g id="node7" class="node">
<title>Node7</title>
<g id="a_node7"><a xlink:href="redis__ipc_8c.html#afab35d4c40b4b1866fc0239bb885a39b" target="_top" xlink:title=" ">
<polygon fill="white" stroke="black" points="286,-19.5 286,-37.5 366,-37.5 366,-19.5 286,-19.5"/>
<text text-anchor="middle" x="326" y="-26.3" font-family="Helvetica,sans-Serif" font-size="9.00">redis_command</text>
</a>
</g>
</g>
<!-- Node6&#45;&gt;Node7 -->
<g id="edge6" class="edge">
<title>Node6&#45;&gt;Node7</title>
<path fill="none" stroke="midnightblue" d="M250.02,-29.09C258.5,-29.02 267.25,-28.95 275.66,-28.89"/>
<polygon fill="midnightblue" stroke="midnightblue" points="275.73,-32.39 285.7,-28.81 275.67,-25.39 275.73,-32.39"/>
</g>
<!-- Node7&#45;&gt;Node3 -->
<g id="edge7" class="edge">
<title>Node7&#45;&gt;Node3</title>
<path fill="none" stroke="midnightblue" d="M360.41,-37.51C373.32,-40.74 388.27,-44.15 402,-46.5 446.99,-54.21 498.45,-59.37 536.77,-62.52"/>
<polygon fill="midnightblue" stroke="midnightblue" points="536.96,-66.05 547.21,-63.36 537.52,-59.07 536.96,-66.05"/>
</g>
<!-- Node8 -->
<g id="node8" class="node">
<title>Node8</title>
<g id="a_node8"><a xlink:href="redis__ipc_8c.html#a5e81feac565f9476476c5f042b2a5c9d" target="_top" xlink:title=" ">
<polygon fill="white" stroke="black" points="536,-0.5 536,-18.5 654,-18.5 654,-0.5 536,-0.5"/>
<text text-anchor="middle" x="595" y="-7.3" font-family="Helvetica,sans-Serif" font-size="9.00">stderr_debug_is_enabled</text>
</a>
</g>
</g>
<!-- Node7&#45;&gt;Node8 -->
<g id="edge8" class="edge">
<title>Node7&#45;&gt;Node8</title>
<path fill="none" stroke="midnightblue" d="M355.53,-19.5C369.4,-15.58 386.41,-11.44 402,-9.5 442.82,-4.41 488.89,-4.23 525.68,-5.4"/>
<polygon fill="midnightblue" stroke="midnightblue" points="525.68,-8.91 535.79,-5.77 525.93,-1.91 525.68,-8.91"/>
</g>
<!-- Node9 -->
<g id="node9" class="node">
<title>Node9</title>
<g id="a_node9"><a xlink:href="redis__ipc_8c.html#a80ea8825dd17a3cff2530680c97d184a" target="_top" xlink:title=" ">
<polygon fill="white" stroke="black" points="402,-19.5 402,-37.5 500,-37.5 500,-19.5 402,-19.5"/>
<text text-anchor="middle" x="451" y="-26.3" font-family="Helvetica,sans-Serif" font-size="9.00">validate_redis_reply</text>
</a>
</g>
</g>
<!-- Node7&#45;&gt;Node9 -->
<g id="edge9" class="edge">
<title>Node7&#45;&gt;Node9</title>
<path fill="none" stroke="midnightblue" d="M366.26,-28.5C374.34,-28.5 383.02,-28.5 391.62,-28.5"/>
<polygon fill="midnightblue" stroke="midnightblue" points="391.63,-32 401.63,-28.5 391.63,-25 391.63,-32"/>
</g>
<!-- Node9&#45;&gt;Node3 -->
<g id="edge10" class="edge">
<title>Node9&#45;&gt;Node3</title>
<path fill="none" stroke="midnightblue" d="M485.65,-37.51C504.96,-42.67 529.43,-49.22 550.22,-54.79"/>
<polygon fill="midnightblue" stroke="midnightblue" points="549.53,-58.22 560.1,-57.43 551.34,-51.46 549.53,-58.22"/>
</g>
<!-- Node9&#45;&gt;Node8 -->
<g id="edge11" class="edge">
<title>Node9&#45;&gt;Node8</title>
<path fill="none" stroke="midnightblue" d="M500.07,-22.07C508.34,-20.96 517.08,-19.79 525.76,-18.63"/>
<polygon fill="midnightblue" stroke="midnightblue" points="526.44,-22.07 535.89,-17.28 525.52,-15.13 526.44,-22.07"/>
</g>
</g>
</svg>
