<?xml version="1.0" encoding="UTF-8" standalone="no"?>
<!DOCTYPE svg PUBLIC "-//W3C//DTD SVG 1.1//EN"
 "http://www.w3.org/Graphics/SVG/1.1/DTD/svg11.dtd">
<!-- Generated by graphviz version 2.43.0 (0)
 -->
<!-- Title: redis_ipc_read_status_field Pages: 1 -->
<svg width="781pt" height="118pt"
 viewBox="0.00 0.00 781.00 118.39" xmlns="http://www.w3.org/2000/svg" xmlns:xlink="http://www.w3.org/1999/xlink">
<g id="graph0" class="graph" transform="scale(1 1) rotate(0) translate(4 114.39)">
<title>redis_ipc_read_status_field</title>
<polygon fill="white" stroke="transparent" points="-4,4 -4,-114.39 777,-114.39 777,4 -4,4"/>
<!-- Node1 -->
<g id="node1" class="node">
<title>Node1</title>
<g id="a_node1"><a xlink:title=" ">
<polygon fill="#bfbfbf" stroke="black" points="0,-70.5 0,-98.5 113,-98.5 113,-70.5 0,-70.5"/>
<text text-anchor="start" x="8" y="-87.3" font-family="Helvetica,sans-Serif" font-size="9.00">redis_ipc_read_status</text>
<text text-anchor="middle" x="56.5" y="-77.3" font-family="Helvetica,sans-Serif" font-size="9.00">_field</text>
</a>
</g>
</g>
<!-- Node2 -->
<g id="node2" class="node">
<title>Node2</title>
<g id="a_node2"><a xlink:href="redis__ipc_8c.html#aa2a3ce97c0b6f3e83572446f3c92e541" target="_top" xlink:title=" ">
<polygon fill="white" stroke="black" points="575,-76.5 575,-94.5 682,-94.5 682,-76.5 575,-76.5"/>
<text text-anchor="middle" x="628.5" y="-83.3" font-family="Helvetica,sans-Serif" font-size="9.00">get_per_thread_info</text>
</a>
</g>
</g>
<!-- Node1&#45;&gt;Node2 -->
<g id="edge1" class="edge">
<title>Node1&#45;&gt;Node2</title>
<path fill="none" stroke="midnightblue" d="M113.35,-97.99C125.06,-100.28 137.38,-102.31 149,-103.5 297.51,-118.76 473.12,-103.75 564.74,-93.43"/>
<polygon fill="midnightblue" stroke="midnightblue" points="565.41,-96.88 574.95,-92.26 564.62,-89.92 565.41,-96.88"/>
</g>
<!-- Node4 -->
<g id="node4" class="node">
<title>Node4</title>
<g id="a_node4"><a xlink:href="redis__ipc_8c.html#a67c9dd84d2426ab58a759dbdfd223267" target="_top" xlink:title=" ">
<polygon fill="white" stroke="black" points="177.5,-75.5 177.5,-93.5 233.5,-93.5 233.5,-75.5 177.5,-75.5"/>
<text text-anchor="middle" x="205.5" y="-82.3" font-family="Helvetica,sans-Serif" font-size="9.00">ipc_path</text>
</a>
</g>
</g>
<!-- Node1&#45;&gt;Node4 -->
<g id="edge3" class="edge">
<title>Node1&#45;&gt;Node4</title>
<path fill="none" stroke="midnightblue" d="M113.07,-84.5C131.08,-84.5 150.62,-84.5 166.99,-84.5"/>
<polygon fill="midnightblue" stroke="midnightblue" points="167.25,-88 177.25,-84.5 167.25,-81 167.25,-88"/>
</g>
<!-- Node5 -->
<g id="node5" class="node">
<title>Node5</title>
<g id="a_node5"><a xlink:href="redis__ipc_8c.html#abbcf0019b124792da8357b2fa972e11a" target="_top" xlink:title=" ">
<polygon fill="white" stroke="black" points="149,-38.5 149,-56.5 262,-56.5 262,-38.5 149,-38.5"/>
<text text-anchor="middle" x="205.5" y="-45.3" font-family="Helvetica,sans-Serif" font-size="9.00">redis_read_hash_field</text>
</a>
</g>
</g>
<!-- Node1&#45;&gt;Node5 -->
<g id="edge4" class="edge">
<title>Node1&#45;&gt;Node5</title>
<path fill="none" stroke="midnightblue" d="M113.07,-70.51C128.14,-66.72 144.27,-62.66 158.72,-59.02"/>
<polygon fill="midnightblue" stroke="midnightblue" points="159.58,-62.41 168.43,-56.58 157.88,-55.63 159.58,-62.41"/>
</g>
<!-- Node3 -->
<g id="node3" class="node">
<title>Node3</title>
<g id="a_node3"><a xlink:href="redis__ipc_8c.html#af0449193b7cded86e600f052d0aabd39" target="_top" xlink:title=" ">
<polygon fill="white" stroke="black" points="729,-76.5 729,-94.5 773,-94.5 773,-76.5 729,-76.5"/>
<text text-anchor="middle" x="751" y="-83.3" font-family="Helvetica,sans-Serif" font-size="9.00">gettid</text>
</a>
</g>
</g>
<!-- Node2&#45;&gt;Node3 -->
<g id="edge2" class="edge">
<title>Node2&#45;&gt;Node3</title>
<path fill="none" stroke="midnightblue" d="M682,-85.5C694.5,-85.5 707.45,-85.5 718.65,-85.5"/>
<polygon fill="midnightblue" stroke="midnightblue" points="718.78,-89 728.78,-85.5 718.78,-82 718.78,-89"/>
</g>
<!-- Node6 -->
<g id="node6" class="node">
<title>Node6</title>
<g id="a_node6"><a xlink:href="redis__ipc_8c.html#aefb4508c1883e7d4345b206076b19e5d" target="_top" xlink:title=" ">
<polygon fill="white" stroke="black" points="298,-38.5 298,-56.5 387,-56.5 387,-38.5 298,-38.5"/>
<text text-anchor="middle" x="342.5" y="-45.3" font-family="Helvetica,sans-Serif" font-size="9.00">redis_command</text>
</a>
</g>
</g>
<!-- Node5&#45;&gt;Node6 -->
<g id="edge5" class="edge">
<title>Node5&#45;&gt;Node6</title>
<path fill="none" stroke="midnightblue" d="M262.19,-47.5C270.66,-47.5 279.38,-47.5 287.81,-47.5"/>
<polygon fill="midnightblue" stroke="midnightblue" points="287.9,-51 297.9,-47.5 287.9,-44 287.9,-51"/>
</g>
<!-- Node7 -->
<g id="node7" class="node">
<title>Node7</title>
<g id="a_node7"><a xlink:href="redis__ipc_8c.html#a5e81feac565f9476476c5f042b2a5c9d" target="_top" xlink:title=" ">
<polygon fill="white" stroke="black" points="564,-0.5 564,-18.5 693,-18.5 693,-0.5 564,-0.5"/>
<text text-anchor="middle" x="628.5" y="-7.3" font-family="Helvetica,sans-Serif" font-size="9.00">stderr_debug_is_enabled</text>
</a>
</g>
</g>
<!-- Node5&#45;&gt;Node7 -->
<g id="edge11" class="edge">
<title>Node5&#45;&gt;Node7</title>
<path fill="none" stroke="midnightblue" d="M246.91,-38.41C262.79,-35.02 281.2,-31.32 298,-28.5 353.24,-19.24 367.13,-16.47 423,-12.5 466.24,-9.43 514.75,-8.6 553.67,-8.58"/>
<polygon fill="midnightblue" stroke="midnightblue" points="553.86,-12.08 563.86,-8.59 553.87,-5.08 553.86,-12.08"/>
</g>
<!-- Node6&#45;&gt;Node2 -->
<g id="edge6" class="edge">
<title>Node6&#45;&gt;Node2</title>
<path fill="none" stroke="midnightblue" d="M376.55,-56.51C390.75,-60.09 407.6,-63.96 423,-66.5 470.19,-74.29 524.07,-79.13 564.67,-81.98"/>
<polygon fill="midnightblue" stroke="midnightblue" points="564.48,-85.47 574.7,-82.66 564.96,-78.49 564.48,-85.47"/>
</g>
<!-- Node6&#45;&gt;Node7 -->
<g id="edge7" class="edge">
<title>Node6&#45;&gt;Node7</title>
<path fill="none" stroke="midnightblue" d="M376.55,-38.49C390.75,-34.91 407.6,-31.04 423,-28.5 465.95,-21.41 514.45,-16.76 553.43,-13.84"/>
<polygon fill="midnightblue" stroke="midnightblue" points="553.92,-17.31 563.64,-13.09 553.41,-10.33 553.92,-17.31"/>
</g>
<!-- Node8 -->
<g id="node8" class="node">
<title>Node8</title>
<g id="a_node8"><a xlink:href="redis__ipc_8c.html#ae88037651d88f63c62d32afd7e0fccf2" target="_top" xlink:title=" ">
<polygon fill="white" stroke="black" points="423,-38.5 423,-56.5 528,-56.5 528,-38.5 423,-38.5"/>
<text text-anchor="middle" x="475.5" y="-45.3" font-family="Helvetica,sans-Serif" font-size="9.00">validate_redis_reply</text>
</a>
</g>
</g>
<!-- Node6&#45;&gt;Node8 -->
<g id="edge8" class="edge">
<title>Node6&#45;&gt;Node8</title>
<path fill="none" stroke="midnightblue" d="M387.12,-47.5C395.36,-47.5 404.12,-47.5 412.79,-47.5"/>
<polygon fill="midnightblue" stroke="midnightblue" points="412.89,-51 422.89,-47.5 412.89,-44 412.89,-51"/>
</g>
<!-- Node8&#45;&gt;Node2 -->
<g id="edge9" class="edge">
<title>Node8&#45;&gt;Node2</title>
<path fill="none" stroke="midnightblue" d="M512.28,-56.51C533.08,-61.74 559.5,-68.39 581.79,-74"/>
<polygon fill="midnightblue" stroke="midnightblue" points="581.16,-77.45 591.71,-76.49 582.87,-70.66 581.16,-77.45"/>
</g>
<!-- Node8&#45;&gt;Node7 -->
<g id="edge10" class="edge">
<title>Node8&#45;&gt;Node7</title>
<path fill="none" stroke="midnightblue" d="M512.28,-38.49C533.08,-33.26 559.5,-26.61 581.79,-21"/>
<polygon fill="midnightblue" stroke="midnightblue" points="582.87,-24.34 591.71,-18.51 581.16,-17.55 582.87,-24.34"/>
</g>
</g>
</svg>
