<?xml version="1.0" encoding="UTF-8" standalone="no"?>
<!DOCTYPE svg PUBLIC "-//W3C//DTD SVG 1.1//EN"
 "http://www.w3.org/Graphics/SVG/1.1/DTD/svg11.dtd">
<!-- Generated by graphviz version 2.47.1 (20210417.1919)
 -->
<!-- Title: redis_ipc_read_setting_field Pages: 1 -->
<svg width="785pt" height="118pt"
 viewBox="0.00 0.00 785.00 118.20" xmlns="http://www.w3.org/2000/svg" xmlns:xlink="http://www.w3.org/1999/xlink">
<g id="graph0" class="graph" transform="scale(1 1) rotate(0) translate(4 114.2)">
<title>redis_ipc_read_setting_field</title>
<polygon fill="white" stroke="transparent" points="-4,4 -4,-114.2 781,-114.2 781,4 -4,4"/>
<!-- Node1 -->
<g id="node1" class="node">
<title>Node1</title>
<g id="a_node1"><a xlink:title=" ">
<polygon fill="#bfbfbf" stroke="black" points="0,-70.5 0,-98.5 117,-98.5 117,-70.5 0,-70.5"/>
<text text-anchor="start" x="8" y="-87.3" font-family="Helvetica,sans-Serif" font-size="9.00">redis_ipc_read_setting</text>
<text text-anchor="middle" x="58.5" y="-77.3" font-family="Helvetica,sans-Serif" font-size="9.00">_field</text>
</a>
</g>
</g>
<!-- Node2 -->
<g id="node2" class="node">
<title>Node2</title>
<g id="a_node2"><a xlink:href="redis__ipc_8c.html#aa2a3ce97c0b6f3e83572446f3c92e541" target="_top" xlink:title=" ">
<polygon fill="white" stroke="black" points="579,-76.5 579,-94.5 686,-94.5 686,-76.5 579,-76.5"/>
<text text-anchor="middle" x="632.5" y="-83.3" font-family="Helvetica,sans-Serif" font-size="9.00">get_per_thread_info</text>
</a>
</g>
</g>
<!-- Node1&#45;&gt;Node2 -->
<g id="edge1" class="edge">
<title>Node1&#45;&gt;Node2</title>
<path fill="none" stroke="midnightblue" d="M117.08,-98.08C128.9,-100.34 141.3,-102.32 153,-103.5 301.54,-118.44 477.14,-103.56 568.75,-93.35"/>
<polygon fill="midnightblue" stroke="midnightblue" points="569.41,-96.8 578.96,-92.19 568.63,-89.84 569.41,-96.8"/>
</g>
<!-- Node4 -->
<g id="node4" class="node">
<title>Node4</title>
<g id="a_node4"><a xlink:href="redis__ipc_8c.html#a67c9dd84d2426ab58a759dbdfd223267" target="_top" xlink:title=" ">
<polygon fill="white" stroke="black" points="181.5,-75.5 181.5,-93.5 237.5,-93.5 237.5,-75.5 181.5,-75.5"/>
<text text-anchor="middle" x="209.5" y="-82.3" font-family="Helvetica,sans-Serif" font-size="9.00">ipc_path</text>
</a>
</g>
</g>
<!-- Node1&#45;&gt;Node4 -->
<g id="edge3" class="edge">
<title>Node1&#45;&gt;Node4</title>
<path fill="none" stroke="midnightblue" d="M117.11,-84.5C135.25,-84.5 154.79,-84.5 171.14,-84.5"/>
<polygon fill="midnightblue" stroke="midnightblue" points="171.37,-88 181.37,-84.5 171.37,-81 171.37,-88"/>
</g>
<!-- Node5 -->
<g id="node5" class="node">
<title>Node5</title>
<g id="a_node5"><a xlink:href="redis__ipc_8c.html#abbcf0019b124792da8357b2fa972e11a" target="_top" xlink:title=" ">
<polygon fill="white" stroke="black" points="153,-38.5 153,-56.5 266,-56.5 266,-38.5 153,-38.5"/>
<text text-anchor="middle" x="209.5" y="-45.3" font-family="Helvetica,sans-Serif" font-size="9.00">redis_read_hash_field</text>
</a>
</g>
</g>
<!-- Node1&#45;&gt;Node5 -->
<g id="edge4" class="edge">
<title>Node1&#45;&gt;Node5</title>
<path fill="none" stroke="midnightblue" d="M116.26,-70.41C131.49,-66.62 147.78,-62.58 162.36,-58.96"/>
<polygon fill="midnightblue" stroke="midnightblue" points="163.29,-62.33 172.15,-56.53 161.6,-55.54 163.29,-62.33"/>
</g>
<!-- Node3 -->
<g id="node3" class="node">
<title>Node3</title>
<g id="a_node3"><a xlink:href="redis__ipc_8c.html#af0449193b7cded86e600f052d0aabd39" target="_top" xlink:title=" ">
<polygon fill="white" stroke="black" points="733,-76.5 733,-94.5 777,-94.5 777,-76.5 733,-76.5"/>
<text text-anchor="middle" x="755" y="-83.3" font-family="Helvetica,sans-Serif" font-size="9.00">gettid</text>
</a>
</g>
</g>
<!-- Node2&#45;&gt;Node3 -->
<g id="edge2" class="edge">
<title>Node2&#45;&gt;Node3</title>
<path fill="none" stroke="midnightblue" d="M686,-85.5C698.5,-85.5 711.45,-85.5 722.65,-85.5"/>
<polygon fill="midnightblue" stroke="midnightblue" points="722.78,-89 732.78,-85.5 722.78,-82 722.78,-89"/>
</g>
<!-- Node6 -->
<g id="node6" class="node">
<title>Node6</title>
<g id="a_node6"><a xlink:href="redis__ipc_8c.html#aefb4508c1883e7d4345b206076b19e5d" target="_top" xlink:title=" ">
<polygon fill="white" stroke="black" points="302,-38.5 302,-56.5 391,-56.5 391,-38.5 302,-38.5"/>
<text text-anchor="middle" x="346.5" y="-45.3" font-family="Helvetica,sans-Serif" font-size="9.00">redis_command</text>
</a>
</g>
</g>
<!-- Node5&#45;&gt;Node6 -->
<g id="edge5" class="edge">
<title>Node5&#45;&gt;Node6</title>
<path fill="none" stroke="midnightblue" d="M266.19,-47.5C274.66,-47.5 283.38,-47.5 291.81,-47.5"/>
<polygon fill="midnightblue" stroke="midnightblue" points="291.9,-51 301.9,-47.5 291.9,-44 291.9,-51"/>
</g>
<!-- Node7 -->
<g id="node7" class="node">
<title>Node7</title>
<g id="a_node7"><a xlink:href="redis__ipc_8c.html#a5e81feac565f9476476c5f042b2a5c9d" target="_top" xlink:title=" ">
<polygon fill="white" stroke="black" points="568,-0.5 568,-18.5 697,-18.5 697,-0.5 568,-0.5"/>
<text text-anchor="middle" x="632.5" y="-7.3" font-family="Helvetica,sans-Serif" font-size="9.00">stderr_debug_is_enabled</text>
</a>
</g>
</g>
<!-- Node5&#45;&gt;Node7 -->
<g id="edge11" class="edge">
<title>Node5&#45;&gt;Node7</title>
<path fill="none" stroke="midnightblue" d="M250.91,-38.41C266.79,-35.02 285.2,-31.32 302,-28.5 357.24,-19.24 371.13,-16.47 427,-12.5 470.24,-9.43 518.75,-8.6 557.67,-8.58"/>
<polygon fill="midnightblue" stroke="midnightblue" points="557.86,-12.08 567.86,-8.59 557.87,-5.08 557.86,-12.08"/>
</g>
<!-- Node6&#45;&gt;Node2 -->
<g id="edge6" class="edge">
<title>Node6&#45;&gt;Node2</title>
<path fill="none" stroke="midnightblue" d="M380.55,-56.51C394.75,-60.09 411.6,-63.96 427,-66.5 474.19,-74.29 528.07,-79.13 568.67,-81.98"/>
<polygon fill="midnightblue" stroke="midnightblue" points="568.48,-85.47 578.7,-82.66 568.96,-78.49 568.48,-85.47"/>
</g>
<!-- Node6&#45;&gt;Node7 -->
<g id="edge7" class="edge">
<title>Node6&#45;&gt;Node7</title>
<path fill="none" stroke="midnightblue" d="M380.55,-38.49C394.75,-34.91 411.6,-31.04 427,-28.5 469.95,-21.41 518.45,-16.76 557.43,-13.84"/>
<polygon fill="midnightblue" stroke="midnightblue" points="557.92,-17.31 567.64,-13.09 557.41,-10.33 557.92,-17.31"/>
</g>
<!-- Node8 -->
<g id="node8" class="node">
<title>Node8</title>
<g id="a_node8"><a xlink:href="redis__ipc_8c.html#ae88037651d88f63c62d32afd7e0fccf2" target="_top" xlink:title=" ">
<polygon fill="white" stroke="black" points="427,-38.5 427,-56.5 532,-56.5 532,-38.5 427,-38.5"/>
<text text-anchor="middle" x="479.5" y="-45.3" font-family="Helvetica,sans-Serif" font-size="9.00">validate_redis_reply</text>
</a>
</g>
</g>
<!-- Node6&#45;&gt;Node8 -->
<g id="edge8" class="edge">
<title>Node6&#45;&gt;Node8</title>
<path fill="none" stroke="midnightblue" d="M391.12,-47.5C399.36,-47.5 408.12,-47.5 416.79,-47.5"/>
<polygon fill="midnightblue" stroke="midnightblue" points="416.89,-51 426.89,-47.5 416.89,-44 416.89,-51"/>
</g>
<!-- Node8&#45;&gt;Node2 -->
<g id="edge9" class="edge">
<title>Node8&#45;&gt;Node2</title>
<path fill="none" stroke="midnightblue" d="M516.28,-56.51C537.08,-61.74 563.5,-68.39 585.79,-74"/>
<polygon fill="midnightblue" stroke="midnightblue" points="585.16,-77.45 595.71,-76.49 586.87,-70.66 585.16,-77.45"/>
</g>
<!-- Node8&#45;&gt;Node7 -->
<g id="edge10" class="edge">
<title>Node8&#45;&gt;Node7</title>
<path fill="none" stroke="midnightblue" d="M516.28,-38.49C537.08,-33.26 563.5,-26.61 585.79,-21"/>
<polygon fill="midnightblue" stroke="midnightblue" points="586.87,-24.34 595.71,-18.51 585.16,-17.55 586.87,-24.34"/>
</g>
</g>
</svg>
