<?xml version="1.0" encoding="UTF-8" standalone="no"?>
<!DOCTYPE svg PUBLIC "-//W3C//DTD SVG 1.1//EN"
 "http://www.w3.org/Graphics/SVG/1.1/DTD/svg11.dtd">
<!-- Generated by graphviz version 2.43.0 (0)
 -->
<!-- Title: redis_ipc_send_result Pages: 1 -->
<svg width="955pt" height="301pt"
 viewBox="0.00 0.00 955.00 300.50" xmlns="http://www.w3.org/2000/svg" xmlns:xlink="http://www.w3.org/1999/xlink">
<g id="graph0" class="graph" transform="scale(1 1) rotate(0) translate(4 296.5)">
<title>redis_ipc_send_result</title>
<polygon fill="white" stroke="transparent" points="-4,4 -4,-296.5 951,-296.5 951,4 -4,4"/>
<!-- Node1 -->
<g id="node1" class="node">
<title>Node1</title>
<g id="a_node1"><a xlink:title=" ">
<polygon fill="#bfbfbf" stroke="black" points="0,-103 0,-121 113,-121 113,-103 0,-103"/>
<text text-anchor="middle" x="56.5" y="-109.8" font-family="Helvetica,sans-Serif" font-size="9.00">redis_ipc_send_result</text>
</a>
</g>
</g>
<!-- Node2 -->
<g id="node2" class="node">
<title>Node2</title>
<g id="a_node2"><a xlink:href="redis__ipc_8c.html#aa2a3ce97c0b6f3e83572446f3c92e541" target="_top" xlink:title=" ">
<polygon fill="white" stroke="black" points="749,-160 749,-178 856,-178 856,-160 749,-160"/>
<text text-anchor="middle" x="802.5" y="-166.8" font-family="Helvetica,sans-Serif" font-size="9.00">get_per_thread_info</text>
</a>
</g>
</g>
<!-- Node1&#45;&gt;Node2 -->
<g id="edge1" class="edge">
<title>Node1&#45;&gt;Node2</title>
<path fill="none" stroke="midnightblue" d="M71.08,-102.83C112.06,-76.09 238.88,0 355.5,0 355.5,0 355.5,0 493.5,0 619.56,0 742.83,-110.15 785.65,-152.6"/>
<polygon fill="midnightblue" stroke="midnightblue" points="783.37,-155.28 792.9,-159.91 788.34,-150.35 783.37,-155.28"/>
</g>
<!-- Node4 -->
<g id="node4" class="node">
<title>Node4</title>
<g id="a_node4"><a xlink:href="redis__ipc_8c.html#a66cdf2ae760d1acb487dd82c1392c12f" target="_top" xlink:title=" ">
<polygon fill="white" stroke="black" points="149,-103 149,-121 265,-121 265,-103 149,-103"/>
<text text-anchor="middle" x="207" y="-109.8" font-family="Helvetica,sans-Serif" font-size="9.00">redis_ipc_send_debug</text>
</a>
</g>
</g>
<!-- Node1&#45;&gt;Node4 -->
<g id="edge3" class="edge">
<title>Node1&#45;&gt;Node4</title>
<path fill="none" stroke="midnightblue" d="M113.22,-112C121.62,-112 130.36,-112 138.96,-112"/>
<polygon fill="midnightblue" stroke="midnightblue" points="138.98,-115.5 148.98,-112 138.98,-108.5 138.98,-115.5"/>
</g>
<!-- Node13 -->
<g id="node13" class="node">
<title>Node13</title>
<g id="a_node13"><a xlink:href="redis__ipc_8c.html#ae826a119ee7ca11d9636c6f34b9a29e9" target="_top" xlink:title=" ">
<polygon fill="white" stroke="black" points="324,-217 324,-235 389,-235 389,-217 324,-217"/>
<text text-anchor="middle" x="356.5" y="-223.8" font-family="Helvetica,sans-Serif" font-size="9.00">redis_push</text>
</a>
</g>
</g>
<!-- Node1&#45;&gt;Node13 -->
<g id="edge18" class="edge">
<title>Node1&#45;&gt;Node13</title>
<path fill="none" stroke="midnightblue" d="M79.89,-121.05C122.66,-138.27 219.06,-176.74 301,-207 306.92,-209.19 313.23,-211.45 319.38,-213.61"/>
<polygon fill="midnightblue" stroke="midnightblue" points="318.22,-216.92 328.82,-216.92 320.53,-210.31 318.22,-216.92"/>
</g>
<!-- Node3 -->
<g id="node3" class="node">
<title>Node3</title>
<g id="a_node3"><a xlink:href="redis__ipc_8c.html#af0449193b7cded86e600f052d0aabd39" target="_top" xlink:title=" ">
<polygon fill="white" stroke="black" points="903,-179 903,-197 947,-197 947,-179 903,-179"/>
<text text-anchor="middle" x="925" y="-185.8" font-family="Helvetica,sans-Serif" font-size="9.00">gettid</text>
</a>
</g>
</g>
<!-- Node2&#45;&gt;Node3 -->
<g id="edge2" class="edge">
<title>Node2&#45;&gt;Node3</title>
<path fill="none" stroke="midnightblue" d="M856,-177.28C868.5,-179.25 881.45,-181.29 892.65,-183.06"/>
<polygon fill="midnightblue" stroke="midnightblue" points="892.36,-186.55 902.78,-184.65 893.45,-179.64 892.36,-186.55"/>
</g>
<!-- Node4&#45;&gt;Node2 -->
<g id="edge6" class="edge">
<title>Node4&#45;&gt;Node2</title>
<path fill="none" stroke="midnightblue" d="M249.5,-121.08C265.52,-124.31 284.05,-127.71 301,-130 457.67,-151.2 643.6,-161.93 738.66,-166.39"/>
<polygon fill="midnightblue" stroke="midnightblue" points="738.54,-169.89 748.69,-166.86 738.86,-162.9 738.54,-169.89"/>
</g>
<!-- Node5 -->
<g id="node5" class="node">
<title>Node5</title>
<g id="a_node5"><a xlink:href="redis__ipc_8c.html#a134fbfb58bceaeaad9c15dec14104a65" target="_top" xlink:title=" ">
<polygon fill="white" stroke="black" points="304.5,-103 304.5,-121 408.5,-121 408.5,-103 304.5,-103"/>
<text text-anchor="middle" x="356.5" y="-109.8" font-family="Helvetica,sans-Serif" font-size="9.00">format_debug_msg</text>
</a>
</g>
</g>
<!-- Node4&#45;&gt;Node5 -->
<g id="edge4" class="edge">
<title>Node4&#45;&gt;Node5</title>
<path fill="none" stroke="midnightblue" d="M265.03,-112C274.55,-112 284.47,-112 294.1,-112"/>
<polygon fill="midnightblue" stroke="midnightblue" points="294.4,-115.5 304.4,-112 294.4,-108.5 294.4,-115.5"/>
</g>
<!-- Node6 -->
<g id="node6" class="node">
<title>Node6</title>
<g id="a_node6"><a xlink:href="redis__ipc_8c.html#a69fe6204f8b392036b5faa4b9392aa8a" target="_top" xlink:title=" ">
<polygon fill="white" stroke="black" points="301,-66 301,-84 412,-84 412,-66 301,-66"/>
<text text-anchor="middle" x="356.5" y="-72.8" font-family="Helvetica,sans-Serif" font-size="9.00">get_debug_verbosity</text>
</a>
</g>
</g>
<!-- Node4&#45;&gt;Node6 -->
<g id="edge5" class="edge">
<title>Node4&#45;&gt;Node6</title>
<path fill="none" stroke="midnightblue" d="M244.08,-102.95C263.89,-97.98 288.65,-91.77 309.79,-86.47"/>
<polygon fill="midnightblue" stroke="midnightblue" points="310.69,-89.85 319.53,-84.02 308.98,-83.06 310.69,-89.85"/>
</g>
<!-- Node7 -->
<g id="node7" class="node">
<title>Node7</title>
<g id="a_node7"><a xlink:href="redis__ipc_8c.html#a67c9dd84d2426ab58a759dbdfd223267" target="_top" xlink:title=" ">
<polygon fill="white" stroke="black" points="328.5,-29 328.5,-47 384.5,-47 384.5,-29 328.5,-29"/>
<text text-anchor="middle" x="356.5" y="-35.8" font-family="Helvetica,sans-Serif" font-size="9.00">ipc_path</text>
</a>
</g>
</g>
<!-- Node4&#45;&gt;Node7 -->
<g id="edge7" class="edge">
<title>Node4&#45;&gt;Node7</title>
<path fill="none" stroke="midnightblue" d="M221.04,-102.86C238.57,-90.88 271.03,-69.76 301,-56 306.57,-53.44 312.61,-51.08 318.57,-48.95"/>
<polygon fill="midnightblue" stroke="midnightblue" points="320.07,-52.14 328.43,-45.63 317.84,-45.51 320.07,-52.14"/>
</g>
<!-- Node8 -->
<g id="node8" class="node">
<title>Node8</title>
<g id="a_node8"><a xlink:href="redis__ipc_8c.html#ab3dc5609833c201c4e9ebaa5e2e70a2f" target="_top" xlink:title=" ">
<polygon fill="white" stroke="black" points="318.5,-179 318.5,-197 394.5,-197 394.5,-179 318.5,-179"/>
<text text-anchor="middle" x="356.5" y="-185.8" font-family="Helvetica,sans-Serif" font-size="9.00">redis_publish</text>
</a>
</g>
</g>
<!-- Node4&#45;&gt;Node8 -->
<g id="edge8" class="edge">
<title>Node4&#45;&gt;Node8</title>
<path fill="none" stroke="midnightblue" d="M223.23,-121.1C241.45,-131.86 273.02,-150.06 301,-164 308.42,-167.7 316.53,-171.43 324.18,-174.82"/>
<polygon fill="midnightblue" stroke="midnightblue" points="322.97,-178.11 333.53,-178.89 325.76,-171.69 322.97,-178.11"/>
</g>
<!-- Node9 -->
<g id="node9" class="node">
<title>Node9</title>
<g id="a_node9"><a xlink:href="redis__ipc_8c.html#a1ca0a131f083c0547523e40cae96936e" target="_top" xlink:title=" ">
<polygon fill="white" stroke="black" points="573,-179 573,-197 702,-197 702,-179 573,-179"/>
<text text-anchor="middle" x="637.5" y="-185.8" font-family="Helvetica,sans-Serif" font-size="9.00">json_add_common_fields</text>
</a>
</g>
</g>
<!-- Node8&#45;&gt;Node9 -->
<g id="edge9" class="edge">
<title>Node8&#45;&gt;Node9</title>
<path fill="none" stroke="midnightblue" d="M394.55,-188C437.23,-188 508.43,-188 562.57,-188"/>
<polygon fill="midnightblue" stroke="midnightblue" points="562.81,-191.5 572.81,-188 562.81,-184.5 562.81,-191.5"/>
</g>
<!-- Node10 -->
<g id="node10" class="node">
<title>Node10</title>
<g id="a_node10"><a xlink:href="redis__ipc_8c.html#aefb4508c1883e7d4345b206076b19e5d" target="_top" xlink:title=" ">
<polygon fill="white" stroke="black" points="448,-255 448,-273 537,-273 537,-255 448,-255"/>
<text text-anchor="middle" x="492.5" y="-261.8" font-family="Helvetica,sans-Serif" font-size="9.00">redis_command</text>
</a>
</g>
</g>
<!-- Node8&#45;&gt;Node10 -->
<g id="edge12" class="edge">
<title>Node8&#45;&gt;Node10</title>
<path fill="none" stroke="midnightblue" d="M386.39,-197.01C394.84,-200.07 403.97,-203.79 412,-208 433.88,-219.46 456.71,-236.11 472.26,-248.28"/>
<polygon fill="midnightblue" stroke="midnightblue" points="470.52,-251.36 480.52,-254.85 474.88,-245.88 470.52,-251.36"/>
</g>
<!-- Node9&#45;&gt;Node2 -->
<g id="edge10" class="edge">
<title>Node9&#45;&gt;Node2</title>
<path fill="none" stroke="midnightblue" d="M702.45,-180.55C714.32,-179.16 726.71,-177.72 738.54,-176.34"/>
<polygon fill="midnightblue" stroke="midnightblue" points="739.24,-179.78 748.77,-175.15 738.43,-172.83 739.24,-179.78"/>
</g>
<!-- Node9&#45;&gt;Node3 -->
<g id="edge11" class="edge">
<title>Node9&#45;&gt;Node3</title>
<path fill="none" stroke="midnightblue" d="M702.22,-188C761.4,-188 847.05,-188 892.66,-188"/>
<polygon fill="midnightblue" stroke="midnightblue" points="892.82,-191.5 902.82,-188 892.82,-184.5 892.82,-191.5"/>
</g>
<!-- Node10&#45;&gt;Node2 -->
<g id="edge13" class="edge">
<title>Node10&#45;&gt;Node2</title>
<path fill="none" stroke="midnightblue" d="M530.73,-254.99C572.7,-244.57 642.79,-226.35 702,-207 725.16,-199.43 750.83,-189.59 770.3,-181.82"/>
<polygon fill="midnightblue" stroke="midnightblue" points="771.62,-185.06 779.59,-178.08 769.01,-178.57 771.62,-185.06"/>
</g>
<!-- Node11 -->
<g id="node11" class="node">
<title>Node11</title>
<g id="a_node11"><a xlink:href="redis__ipc_8c.html#a5e81feac565f9476476c5f042b2a5c9d" target="_top" xlink:title=" ">
<polygon fill="white" stroke="black" points="738,-274 738,-292 867,-292 867,-274 738,-274"/>
<text text-anchor="middle" x="802.5" y="-280.8" font-family="Helvetica,sans-Serif" font-size="9.00">stderr_debug_is_enabled</text>
</a>
</g>
</g>
<!-- Node10&#45;&gt;Node11 -->
<g id="edge14" class="edge">
<title>Node10&#45;&gt;Node11</title>
<path fill="none" stroke="midnightblue" d="M523.78,-273C538.49,-276.92 556.51,-281.06 573,-283 624.35,-289.05 682.65,-288.94 727.51,-287.37"/>
<polygon fill="midnightblue" stroke="midnightblue" points="727.88,-290.86 737.74,-286.98 727.61,-283.87 727.88,-290.86"/>
</g>
<!-- Node12 -->
<g id="node12" class="node">
<title>Node12</title>
<g id="a_node12"><a xlink:href="redis__ipc_8c.html#ae88037651d88f63c62d32afd7e0fccf2" target="_top" xlink:title=" ">
<polygon fill="white" stroke="black" points="585,-255 585,-273 690,-273 690,-255 585,-255"/>
<text text-anchor="middle" x="637.5" y="-261.8" font-family="Helvetica,sans-Serif" font-size="9.00">validate_redis_reply</text>
</a>
</g>
</g>
<!-- Node10&#45;&gt;Node12 -->
<g id="edge15" class="edge">
<title>Node10&#45;&gt;Node12</title>
<path fill="none" stroke="midnightblue" d="M537.18,-264C549.04,-264 562.11,-264 574.77,-264"/>
<polygon fill="midnightblue" stroke="midnightblue" points="574.79,-267.5 584.79,-264 574.79,-260.5 574.79,-267.5"/>
</g>
<!-- Node12&#45;&gt;Node2 -->
<g id="edge16" class="edge">
<title>Node12&#45;&gt;Node2</title>
<path fill="none" stroke="midnightblue" d="M667.01,-255C678.2,-251.01 690.98,-245.89 702,-240 732.03,-223.96 763.5,-200.14 782.81,-184.59"/>
<polygon fill="midnightblue" stroke="midnightblue" points="785.24,-187.12 790.78,-178.09 780.82,-181.7 785.24,-187.12"/>
</g>
<!-- Node12&#45;&gt;Node11 -->
<g id="edge17" class="edge">
<title>Node12&#45;&gt;Node11</title>
<path fill="none" stroke="midnightblue" d="M690.07,-270.01C702.07,-271.41 715.07,-272.93 727.81,-274.41"/>
<polygon fill="midnightblue" stroke="midnightblue" points="727.62,-277.91 737.95,-275.59 728.43,-270.96 727.62,-277.91"/>
</g>
<!-- Node13&#45;&gt;Node9 -->
<g id="edge19" class="edge">
<title>Node13&#45;&gt;Node9</title>
<path fill="none" stroke="midnightblue" d="M389.29,-221.82C425.17,-217.08 485.29,-209.09 537,-202 545.32,-200.86 554.03,-199.65 562.7,-198.44"/>
<polygon fill="midnightblue" stroke="midnightblue" points="563.39,-201.88 572.81,-197.03 562.42,-194.95 563.39,-201.88"/>
</g>
<!-- Node13&#45;&gt;Node10 -->
<g id="edge20" class="edge">
<title>Node13&#45;&gt;Node10</title>
<path fill="none" stroke="midnightblue" d="M389.26,-235.01C407.31,-240.13 430.15,-246.6 449.65,-252.13"/>
<polygon fill="midnightblue" stroke="midnightblue" points="448.93,-255.57 459.51,-254.93 450.84,-248.83 448.93,-255.57"/>
</g>
</g>
</svg>
