<?xml version="1.0" encoding="UTF-8" standalone="no"?>
<!DOCTYPE svg PUBLIC "-//W3C//DTD SVG 1.1//EN"
 "http://www.w3.org/Graphics/SVG/1.1/DTD/svg11.dtd">
<!-- Generated by graphviz version 2.50.0 (20220203.2022)
 -->
<!-- Title: redis_subscribe Pages: 1 -->
<svg width="566pt" height="64pt"
 viewBox="0.00 0.00 566.00 64.00" xmlns="http://www.w3.org/2000/svg" xmlns:xlink="http://www.w3.org/1999/xlink">
<g id="graph0" class="graph" transform="scale(1 1) rotate(0) translate(4 60)">
<title>redis_subscribe</title>
<polygon fill="white" stroke="transparent" points="-4,4 -4,-60 562,-60 562,4 -4,4"/>
<!-- Node1 -->
<g id="node1" class="node">
<title>Node1</title>
<g id="a_node1"><a xlink:title=" ">
<polygon fill="#bfbfbf" stroke="black" points="0,-19.5 0,-37.5 80,-37.5 80,-19.5 0,-19.5"/>
<text text-anchor="middle" x="40" y="-26.3" font-family="Helvetica,sans-Serif" font-size="9.00">redis_subscribe</text>
</a>
</g>
</g>
<!-- Node2 -->
<g id="node2" class="node">
<title>Node2</title>
<g id="a_node2"><a xlink:href="redis__ipc_8c.html#afab35d4c40b4b1866fc0239bb885a39b" target="_top" xlink:title=" ">
<polygon fill="white" stroke="black" points="116,-19.5 116,-37.5 196,-37.5 196,-19.5 116,-19.5"/>
<text text-anchor="middle" x="156" y="-26.3" font-family="Helvetica,sans-Serif" font-size="9.00">redis_command</text>
</a>
</g>
</g>
<!-- Node1&#45;&gt;Node2 -->
<g id="edge1" class="edge">
<title>Node1&#45;&gt;Node2</title>
<path fill="none" stroke="midnightblue" d="M80.23,-28.5C88.38,-28.5 97.07,-28.5 105.54,-28.5"/>
<polygon fill="midnightblue" stroke="midnightblue" points="105.7,-32 115.7,-28.5 105.7,-25 105.7,-32"/>
</g>
<!-- Node3 -->
<g id="node3" class="node">
<title>Node3</title>
<g id="a_node3"><a xlink:href="redis__ipc_8c.html#a7b930ec420c7b4bf2df1469aca77f93d" target="_top" xlink:title=" ">
<polygon fill="white" stroke="black" points="377.5,-37.5 377.5,-55.5 472.5,-55.5 472.5,-37.5 377.5,-37.5"/>
<text text-anchor="middle" x="425" y="-44.3" font-family="Helvetica,sans-Serif" font-size="9.00">get_per_thread_info</text>
</a>
</g>
</g>
<!-- Node2&#45;&gt;Node3 -->
<g id="edge2" class="edge">
<title>Node2&#45;&gt;Node3</title>
<path fill="none" stroke="midnightblue" d="M185.53,-37.5C199.4,-41.42 216.41,-45.56 232,-47.5 277.05,-53.12 328.51,-52.47 366.81,-50.64"/>
<polygon fill="midnightblue" stroke="midnightblue" points="367.44,-54.11 377.24,-50.1 367.07,-47.12 367.44,-54.11"/>
</g>
<!-- Node5 -->
<g id="node5" class="node">
<title>Node5</title>
<g id="a_node5"><a xlink:href="redis__ipc_8c.html#a5e81feac565f9476476c5f042b2a5c9d" target="_top" xlink:title=" ">
<polygon fill="white" stroke="black" points="366,-0.5 366,-18.5 484,-18.5 484,-0.5 366,-0.5"/>
<text text-anchor="middle" x="425" y="-7.3" font-family="Helvetica,sans-Serif" font-size="9.00">stderr_debug_is_enabled</text>
</a>
</g>
</g>
<!-- Node2&#45;&gt;Node5 -->
<g id="edge4" class="edge">
<title>Node2&#45;&gt;Node5</title>
<path fill="none" stroke="midnightblue" d="M185.53,-19.5C199.4,-15.58 216.41,-11.44 232,-9.5 272.82,-4.41 318.89,-4.23 355.68,-5.4"/>
<polygon fill="midnightblue" stroke="midnightblue" points="355.68,-8.91 365.79,-5.77 355.93,-1.91 355.68,-8.91"/>
</g>
<!-- Node6 -->
<g id="node6" class="node">
<title>Node6</title>
<g id="a_node6"><a xlink:href="redis__ipc_8c.html#a80ea8825dd17a3cff2530680c97d184a" target="_top" xlink:title=" ">
<polygon fill="white" stroke="black" points="232,-19.5 232,-37.5 330,-37.5 330,-19.5 232,-19.5"/>
<text text-anchor="middle" x="281" y="-26.3" font-family="Helvetica,sans-Serif" font-size="9.00">validate_redis_reply</text>
</a>
</g>
</g>
<!-- Node2&#45;&gt;Node6 -->
<g id="edge5" class="edge">
<title>Node2&#45;&gt;Node6</title>
<path fill="none" stroke="midnightblue" d="M196.26,-28.5C204.34,-28.5 213.02,-28.5 221.62,-28.5"/>
<polygon fill="midnightblue" stroke="midnightblue" points="221.63,-32 231.63,-28.5 221.63,-25 221.63,-32"/>
</g>
<!-- Node4 -->
<g id="node4" class="node">
<title>Node4</title>
<g id="a_node4"><a xlink:href="redis__ipc_8c.html#af0449193b7cded86e600f052d0aabd39" target="_top" xlink:title=" ">
<polygon fill="white" stroke="black" points="520,-37.5 520,-55.5 558,-55.5 558,-37.5 520,-37.5"/>
<text text-anchor="middle" x="539" y="-44.3" font-family="Helvetica,sans-Serif" font-size="9.00">gettid</text>
</a>
</g>
</g>
<!-- Node3&#45;&gt;Node4 -->
<g id="edge3" class="edge">
<title>Node3&#45;&gt;Node4</title>
<path fill="none" stroke="midnightblue" d="M472.53,-46.5C485.19,-46.5 498.51,-46.5 509.82,-46.5"/>
<polygon fill="midnightblue" stroke="midnightblue" points="509.94,-50 519.94,-46.5 509.94,-43 509.94,-50"/>
</g>
<!-- Node6&#45;&gt;Node3 -->
<g id="edge6" class="edge">
<title>Node6&#45;&gt;Node3</title>
<path fill="none" stroke="midnightblue" d="M330.07,-34.59C342.02,-36.11 354.93,-37.74 367.25,-39.31"/>
<polygon fill="midnightblue" stroke="midnightblue" points="367.06,-42.81 377.42,-40.6 367.94,-35.87 367.06,-42.81"/>
</g>
<!-- Node6&#45;&gt;Node5 -->
<g id="edge7" class="edge">
<title>Node6&#45;&gt;Node5</title>
<path fill="none" stroke="midnightblue" d="M330.07,-22.07C338.34,-20.96 347.08,-19.79 355.76,-18.63"/>
<polygon fill="midnightblue" stroke="midnightblue" points="356.44,-22.07 365.89,-17.28 355.52,-15.13 356.44,-22.07"/>
</g>
</g>
</svg>
