<?xml version="1.0" encoding="UTF-8" standalone="no"?>
<!DOCTYPE svg PUBLIC "-//W3C//DTD SVG 1.1//EN"
 "http://www.w3.org/Graphics/SVG/1.1/DTD/svg11.dtd">
<!-- Generated by graphviz version 2.43.0 (0)
 -->
<!-- Title: redis_ipc_send_command_blocking Pages: 1 -->
<svg width="975pt" height="318pt"
 viewBox="0.00 0.00 975.00 317.50" xmlns="http://www.w3.org/2000/svg" xmlns:xlink="http://www.w3.org/1999/xlink">
<g id="graph0" class="graph" transform="scale(1 1) rotate(0) translate(4 313.5)">
<title>redis_ipc_send_command_blocking</title>
<polygon fill="white" stroke="transparent" points="-4,4 -4,-313.5 971,-313.5 971,4 -4,4"/>
<!-- Node1 -->
<g id="node1" class="node">
<title>Node1</title>
<g id="a_node1"><a xlink:title=" ">
<polygon fill="#bfbfbf" stroke="black" points="0,-98 0,-126 133,-126 133,-98 0,-98"/>
<text text-anchor="start" x="8" y="-114.8" font-family="Helvetica,sans-Serif" font-size="9.00">redis_ipc_send_command</text>
<text text-anchor="middle" x="66.5" y="-104.8" font-family="Helvetica,sans-Serif" font-size="9.00">_blocking</text>
</a>
</g>
</g>
<!-- Node2 -->
<g id="node2" class="node">
<title>Node2</title>
<g id="a_node2"><a xlink:href="redis__ipc_8c.html#aa2a3ce97c0b6f3e83572446f3c92e541" target="_top" xlink:title=" ">
<polygon fill="white" stroke="black" points="769,-177 769,-195 876,-195 876,-177 769,-177"/>
<text text-anchor="middle" x="822.5" y="-183.8" font-family="Helvetica,sans-Serif" font-size="9.00">get_per_thread_info</text>
</a>
</g>
</g>
<!-- Node1&#45;&gt;Node2 -->
<g id="edge1" class="edge">
<title>Node1&#45;&gt;Node2</title>
<path fill="none" stroke="midnightblue" d="M89.67,-97.82C138.97,-67.68 262.27,0 375.5,0 375.5,0 375.5,0 513.5,0 643.76,0 766.16,-123.41 807.09,-169.18"/>
<polygon fill="midnightblue" stroke="midnightblue" points="804.53,-171.58 813.76,-176.78 809.79,-166.95 804.53,-171.58"/>
</g>
<!-- Node4 -->
<g id="node4" class="node">
<title>Node4</title>
<g id="a_node4"><a xlink:href="redis__ipc_8c.html#a67c9dd84d2426ab58a759dbdfd223267" target="_top" xlink:title=" ">
<polygon fill="white" stroke="black" points="348.5,-29 348.5,-47 404.5,-47 404.5,-29 348.5,-29"/>
<text text-anchor="middle" x="376.5" y="-35.8" font-family="Helvetica,sans-Serif" font-size="9.00">ipc_path</text>
</a>
</g>
</g>
<!-- Node1&#45;&gt;Node4 -->
<g id="edge3" class="edge">
<title>Node1&#45;&gt;Node4</title>
<path fill="none" stroke="midnightblue" d="M125.79,-97.99C188.25,-82.99 285.5,-59.62 338.32,-46.93"/>
<polygon fill="midnightblue" stroke="midnightblue" points="339.36,-50.28 348.27,-44.54 337.72,-43.48 339.36,-50.28"/>
</g>
<!-- Node5 -->
<g id="node5" class="node">
<title>Node5</title>
<g id="a_node5"><a xlink:href="redis__ipc_8c.html#a66cdf2ae760d1acb487dd82c1392c12f" target="_top" xlink:title=" ">
<polygon fill="white" stroke="black" points="169,-103 169,-121 285,-121 285,-103 169,-103"/>
<text text-anchor="middle" x="227" y="-109.8" font-family="Helvetica,sans-Serif" font-size="9.00">redis_ipc_send_debug</text>
</a>
</g>
</g>
<!-- Node1&#45;&gt;Node5 -->
<g id="edge4" class="edge">
<title>Node1&#45;&gt;Node5</title>
<path fill="none" stroke="midnightblue" d="M133.34,-112C141.69,-112 150.23,-112 158.6,-112"/>
<polygon fill="midnightblue" stroke="midnightblue" points="158.7,-115.5 168.7,-112 158.7,-108.5 158.7,-115.5"/>
</g>
<!-- Node13 -->
<g id="node13" class="node">
<title>Node13</title>
<g id="a_node13"><a xlink:href="redis__ipc_8c.html#aad35a453c0c1dea3338257c3e6841afe" target="_top" xlink:title=" ">
<polygon fill="white" stroke="black" points="346.5,-253 346.5,-271 406.5,-271 406.5,-253 346.5,-253"/>
<text text-anchor="middle" x="376.5" y="-259.8" font-family="Helvetica,sans-Serif" font-size="9.00">redis_pop</text>
</a>
</g>
</g>
<!-- Node1&#45;&gt;Node13 -->
<g id="edge19" class="edge">
<title>Node1&#45;&gt;Node13</title>
<path fill="none" stroke="midnightblue" d="M84.22,-126.07C103.65,-141.92 137.13,-167.72 169,-185 232.7,-219.54 252.79,-219.52 321,-244 326.28,-245.89 331.86,-247.82 337.37,-249.68"/>
<polygon fill="midnightblue" stroke="midnightblue" points="336.53,-253.09 347.12,-252.93 338.74,-246.45 336.53,-253.09"/>
</g>
<!-- Node14 -->
<g id="node14" class="node">
<title>Node14</title>
<g id="a_node14"><a xlink:href="redis__ipc_8c.html#ae826a119ee7ca11d9636c6f34b9a29e9" target="_top" xlink:title=" ">
<polygon fill="white" stroke="black" points="344,-216 344,-234 409,-234 409,-216 344,-216"/>
<text text-anchor="middle" x="376.5" y="-222.8" font-family="Helvetica,sans-Serif" font-size="9.00">redis_push</text>
</a>
</g>
</g>
<!-- Node1&#45;&gt;Node14 -->
<g id="edge22" class="edge">
<title>Node1&#45;&gt;Node14</title>
<path fill="none" stroke="midnightblue" d="M105.89,-126.08C166.56,-148.34 283.65,-191.3 341.48,-212.52"/>
<polygon fill="midnightblue" stroke="midnightblue" points="340.31,-215.82 350.9,-215.97 342.72,-209.24 340.31,-215.82"/>
</g>
<!-- Node3 -->
<g id="node3" class="node">
<title>Node3</title>
<g id="a_node3"><a xlink:href="redis__ipc_8c.html#af0449193b7cded86e600f052d0aabd39" target="_top" xlink:title=" ">
<polygon fill="white" stroke="black" points="923,-158 923,-176 967,-176 967,-158 923,-158"/>
<text text-anchor="middle" x="945" y="-164.8" font-family="Helvetica,sans-Serif" font-size="9.00">gettid</text>
</a>
</g>
</g>
<!-- Node2&#45;&gt;Node3 -->
<g id="edge2" class="edge">
<title>Node2&#45;&gt;Node3</title>
<path fill="none" stroke="midnightblue" d="M876,-177.72C888.5,-175.75 901.45,-173.71 912.65,-171.94"/>
<polygon fill="midnightblue" stroke="midnightblue" points="913.45,-175.36 922.78,-170.35 912.36,-168.45 913.45,-175.36"/>
</g>
<!-- Node5&#45;&gt;Node2 -->
<g id="edge7" class="edge">
<title>Node5&#45;&gt;Node2</title>
<path fill="none" stroke="midnightblue" d="M242.93,-121.12C268.67,-136.82 318.85,-167.36 321,-168 472.98,-213.18 662.4,-203.13 758.8,-193.61"/>
<polygon fill="midnightblue" stroke="midnightblue" points="759.37,-197.07 768.97,-192.57 758.66,-190.1 759.37,-197.07"/>
</g>
<!-- Node5&#45;&gt;Node4 -->
<g id="edge8" class="edge">
<title>Node5&#45;&gt;Node4</title>
<path fill="none" stroke="midnightblue" d="M241.04,-102.86C258.57,-90.88 291.03,-69.76 321,-56 326.57,-53.44 332.61,-51.08 338.57,-48.95"/>
<polygon fill="midnightblue" stroke="midnightblue" points="340.07,-52.14 348.43,-45.63 337.84,-45.51 340.07,-52.14"/>
</g>
<!-- Node6 -->
<g id="node6" class="node">
<title>Node6</title>
<g id="a_node6"><a xlink:href="redis__ipc_8c.html#a134fbfb58bceaeaad9c15dec14104a65" target="_top" xlink:title=" ">
<polygon fill="white" stroke="black" points="324.5,-103 324.5,-121 428.5,-121 428.5,-103 324.5,-103"/>
<text text-anchor="middle" x="376.5" y="-109.8" font-family="Helvetica,sans-Serif" font-size="9.00">format_debug_msg</text>
</a>
</g>
</g>
<!-- Node5&#45;&gt;Node6 -->
<g id="edge5" class="edge">
<title>Node5&#45;&gt;Node6</title>
<path fill="none" stroke="midnightblue" d="M285.03,-112C294.55,-112 304.47,-112 314.1,-112"/>
<polygon fill="midnightblue" stroke="midnightblue" points="314.4,-115.5 324.4,-112 314.4,-108.5 314.4,-115.5"/>
</g>
<!-- Node7 -->
<g id="node7" class="node">
<title>Node7</title>
<g id="a_node7"><a xlink:href="redis__ipc_8c.html#a69fe6204f8b392036b5faa4b9392aa8a" target="_top" xlink:title=" ">
<polygon fill="white" stroke="black" points="321,-140 321,-158 432,-158 432,-140 321,-140"/>
<text text-anchor="middle" x="376.5" y="-146.8" font-family="Helvetica,sans-Serif" font-size="9.00">get_debug_verbosity</text>
</a>
</g>
</g>
<!-- Node5&#45;&gt;Node7 -->
<g id="edge6" class="edge">
<title>Node5&#45;&gt;Node7</title>
<path fill="none" stroke="midnightblue" d="M264.08,-121.05C283.89,-126.02 308.65,-132.23 329.79,-137.53"/>
<polygon fill="midnightblue" stroke="midnightblue" points="328.98,-140.94 339.53,-139.98 330.69,-134.15 328.98,-140.94"/>
</g>
<!-- Node8 -->
<g id="node8" class="node">
<title>Node8</title>
<g id="a_node8"><a xlink:href="redis__ipc_8c.html#ab3dc5609833c201c4e9ebaa5e2e70a2f" target="_top" xlink:title=" ">
<polygon fill="white" stroke="black" points="338.5,-66 338.5,-84 414.5,-84 414.5,-66 338.5,-66"/>
<text text-anchor="middle" x="376.5" y="-72.8" font-family="Helvetica,sans-Serif" font-size="9.00">redis_publish</text>
</a>
</g>
</g>
<!-- Node5&#45;&gt;Node8 -->
<g id="edge9" class="edge">
<title>Node5&#45;&gt;Node8</title>
<path fill="none" stroke="midnightblue" d="M264.08,-102.95C283.89,-97.98 308.65,-91.77 329.79,-86.47"/>
<polygon fill="midnightblue" stroke="midnightblue" points="330.69,-89.85 339.53,-84.02 328.98,-83.06 330.69,-89.85"/>
</g>
<!-- Node9 -->
<g id="node9" class="node">
<title>Node9</title>
<g id="a_node9"><a xlink:href="redis__ipc_8c.html#a1ca0a131f083c0547523e40cae96936e" target="_top" xlink:title=" ">
<polygon fill="white" stroke="black" points="593,-139 593,-157 722,-157 722,-139 593,-139"/>
<text text-anchor="middle" x="657.5" y="-145.8" font-family="Helvetica,sans-Serif" font-size="9.00">json_add_common_fields</text>
</a>
</g>
</g>
<!-- Node8&#45;&gt;Node9 -->
<g id="edge10" class="edge">
<title>Node8&#45;&gt;Node9</title>
<path fill="none" stroke="midnightblue" d="M411.99,-84.02C462.5,-97.24 556.6,-121.86 612.18,-136.4"/>
<polygon fill="midnightblue" stroke="midnightblue" points="611.53,-139.85 622.09,-139 613.3,-133.08 611.53,-139.85"/>
</g>
<!-- Node10 -->
<g id="node10" class="node">
<title>Node10</title>
<g id="a_node10"><a xlink:href="redis__ipc_8c.html#aefb4508c1883e7d4345b206076b19e5d" target="_top" xlink:title=" ">
<polygon fill="white" stroke="black" points="468,-253 468,-271 557,-271 557,-253 468,-253"/>
<text text-anchor="middle" x="512.5" y="-259.8" font-family="Helvetica,sans-Serif" font-size="9.00">redis_command</text>
</a>
</g>
</g>
<!-- Node8&#45;&gt;Node10 -->
<g id="edge13" class="edge">
<title>Node8&#45;&gt;Node10</title>
<path fill="none" stroke="midnightblue" d="M414.59,-83.44C420.89,-86.07 427.01,-89.51 432,-94 477.71,-135.08 499.41,-208.03 507.52,-242.69"/>
<polygon fill="midnightblue" stroke="midnightblue" points="504.2,-243.86 509.77,-252.87 511.03,-242.35 504.2,-243.86"/>
</g>
<!-- Node9&#45;&gt;Node2 -->
<g id="edge11" class="edge">
<title>Node9&#45;&gt;Node2</title>
<path fill="none" stroke="midnightblue" d="M697.13,-157.01C719.78,-162.29 748.61,-169.01 772.81,-174.65"/>
<polygon fill="midnightblue" stroke="midnightblue" points="772.33,-178.13 782.87,-176.99 773.92,-171.31 772.33,-178.13"/>
</g>
<!-- Node9&#45;&gt;Node3 -->
<g id="edge12" class="edge">
<title>Node9&#45;&gt;Node3</title>
<path fill="none" stroke="midnightblue" d="M722.22,-152.24C781.4,-156.18 867.05,-161.88 912.66,-164.91"/>
<polygon fill="midnightblue" stroke="midnightblue" points="912.61,-168.42 922.82,-165.59 913.07,-161.43 912.61,-168.42"/>
</g>
<!-- Node10&#45;&gt;Node2 -->
<g id="edge14" class="edge">
<title>Node10&#45;&gt;Node2</title>
<path fill="none" stroke="midnightblue" d="M550.04,-252.98C606.19,-239.13 713.64,-212.62 775.17,-197.43"/>
<polygon fill="midnightblue" stroke="midnightblue" points="776.14,-200.8 785.01,-195 774.46,-194 776.14,-200.8"/>
</g>
<!-- Node11 -->
<g id="node11" class="node">
<title>Node11</title>
<g id="a_node11"><a xlink:href="redis__ipc_8c.html#a5e81feac565f9476476c5f042b2a5c9d" target="_top" xlink:title=" ">
<polygon fill="white" stroke="black" points="758,-291 758,-309 887,-309 887,-291 758,-291"/>
<text text-anchor="middle" x="822.5" y="-297.8" font-family="Helvetica,sans-Serif" font-size="9.00">stderr_debug_is_enabled</text>
</a>
</g>
</g>
<!-- Node10&#45;&gt;Node11 -->
<g id="edge15" class="edge">
<title>Node10&#45;&gt;Node11</title>
<path fill="none" stroke="midnightblue" d="M546.54,-271.08C560.74,-274.68 577.59,-278.53 593,-281 644.23,-289.2 702.53,-293.98 747.42,-296.69"/>
<polygon fill="midnightblue" stroke="midnightblue" points="747.47,-300.2 757.66,-297.29 747.88,-293.21 747.47,-300.2"/>
</g>
<!-- Node12 -->
<g id="node12" class="node">
<title>Node12</title>
<g id="a_node12"><a xlink:href="redis__ipc_8c.html#ae88037651d88f63c62d32afd7e0fccf2" target="_top" xlink:title=" ">
<polygon fill="white" stroke="black" points="605,-253 605,-271 710,-271 710,-253 605,-253"/>
<text text-anchor="middle" x="657.5" y="-259.8" font-family="Helvetica,sans-Serif" font-size="9.00">validate_redis_reply</text>
</a>
</g>
</g>
<!-- Node10&#45;&gt;Node12 -->
<g id="edge16" class="edge">
<title>Node10&#45;&gt;Node12</title>
<path fill="none" stroke="midnightblue" d="M557.18,-262C569.04,-262 582.11,-262 594.77,-262"/>
<polygon fill="midnightblue" stroke="midnightblue" points="594.79,-265.5 604.79,-262 594.79,-258.5 594.79,-265.5"/>
</g>
<!-- Node12&#45;&gt;Node2 -->
<g id="edge17" class="edge">
<title>Node12&#45;&gt;Node2</title>
<path fill="none" stroke="midnightblue" d="M684.74,-252.89C696.3,-248.67 709.96,-243.4 722,-238 747.98,-226.35 776.72,-211.06 796.6,-200.08"/>
<polygon fill="midnightblue" stroke="midnightblue" points="798.56,-203 805.59,-195.07 795.15,-196.88 798.56,-203"/>
</g>
<!-- Node12&#45;&gt;Node11 -->
<g id="edge18" class="edge">
<title>Node12&#45;&gt;Node11</title>
<path fill="none" stroke="midnightblue" d="M697.13,-271.01C719.78,-276.29 748.61,-283.01 772.81,-288.65"/>
<polygon fill="midnightblue" stroke="midnightblue" points="772.33,-292.13 782.87,-290.99 773.92,-285.31 772.33,-292.13"/>
</g>
<!-- Node13&#45;&gt;Node10 -->
<g id="edge20" class="edge">
<title>Node13&#45;&gt;Node10</title>
<path fill="none" stroke="midnightblue" d="M406.58,-262C421.57,-262 440.34,-262 457.84,-262"/>
<polygon fill="midnightblue" stroke="midnightblue" points="457.96,-265.5 467.96,-262 457.96,-258.5 457.96,-265.5"/>
</g>
<!-- Node13&#45;&gt;Node11 -->
<g id="edge21" class="edge">
<title>Node13&#45;&gt;Node11</title>
<path fill="none" stroke="midnightblue" d="M406.77,-268.52C424.46,-272.37 447.48,-277.21 468,-281 523.32,-291.23 536.91,-296.54 593,-301 650.15,-305.54 664.67,-301.29 722,-301 730.32,-300.96 739.03,-300.9 747.69,-300.82"/>
<polygon fill="midnightblue" stroke="midnightblue" points="747.84,-304.32 757.8,-300.74 747.77,-297.32 747.84,-304.32"/>
</g>
<!-- Node14&#45;&gt;Node9 -->
<g id="edge23" class="edge">
<title>Node14&#45;&gt;Node9</title>
<path fill="none" stroke="midnightblue" d="M409.23,-216.24C459.49,-202.37 557.46,-175.33 613.82,-159.78"/>
<polygon fill="midnightblue" stroke="midnightblue" points="614.79,-163.14 623.5,-157.11 612.93,-156.39 614.79,-163.14"/>
</g>
<!-- Node14&#45;&gt;Node10 -->
<g id="edge24" class="edge">
<title>Node14&#45;&gt;Node10</title>
<path fill="none" stroke="midnightblue" d="M409.26,-233.77C427.05,-238.68 449.48,-244.88 468.8,-250.21"/>
<polygon fill="midnightblue" stroke="midnightblue" points="468,-253.62 478.57,-252.91 469.86,-246.87 468,-253.62"/>
</g>
</g>
</svg>
