<?xml version="1.0" encoding="UTF-8" standalone="no"?>
<!DOCTYPE svg PUBLIC "-//W3C//DTD SVG 1.1//EN"
 "http://www.w3.org/Graphics/SVG/1.1/DTD/svg11.dtd">
<!-- Generated by graphviz version 2.43.0 (0)
 -->
<!-- Title: redis_unsubscribe Pages: 1 -->
<svg width="617pt" height="64pt"
 viewBox="0.00 0.00 617.00 64.00" xmlns="http://www.w3.org/2000/svg" xmlns:xlink="http://www.w3.org/1999/xlink">
<g id="graph0" class="graph" transform="scale(1 1) rotate(0) translate(4 60)">
<title>redis_unsubscribe</title>
<polygon fill="white" stroke="transparent" points="-4,4 -4,-60 613,-60 613,4 -4,4"/>
<!-- Node1 -->
<g id="node1" class="node">
<title>Node1</title>
<g id="a_node1"><a xlink:title=" ">
<polygon fill="#bfbfbf" stroke="black" points="0,-19.5 0,-37.5 98,-37.5 98,-19.5 0,-19.5"/>
<text text-anchor="middle" x="49" y="-26.3" font-family="Helvetica,sans-Serif" font-size="9.00">redis_unsubscribe</text>
</a>
</g>
</g>
<!-- Node2 -->
<g id="node2" class="node">
<title>Node2</title>
<g id="a_node2"><a xlink:href="redis__ipc_8c.html#aefb4508c1883e7d4345b206076b19e5d" target="_top" xlink:title=" ">
<polygon fill="white" stroke="black" points="134,-19.5 134,-37.5 223,-37.5 223,-19.5 134,-19.5"/>
<text text-anchor="middle" x="178.5" y="-26.3" font-family="Helvetica,sans-Serif" font-size="9.00">redis_command</text>
</a>
</g>
</g>
<!-- Node1&#45;&gt;Node2 -->
<g id="edge1" class="edge">
<title>Node1&#45;&gt;Node2</title>
<path fill="none" stroke="midnightblue" d="M98.2,-28.5C106.52,-28.5 115.22,-28.5 123.68,-28.5"/>
<polygon fill="midnightblue" stroke="midnightblue" points="123.84,-32 133.84,-28.5 123.84,-25 123.84,-32"/>
</g>
<!-- Node3 -->
<g id="node3" class="node">
<title>Node3</title>
<g id="a_node3"><a xlink:href="redis__ipc_8c.html#aa2a3ce97c0b6f3e83572446f3c92e541" target="_top" xlink:title=" ">
<polygon fill="white" stroke="black" points="411,-37.5 411,-55.5 518,-55.5 518,-37.5 411,-37.5"/>
<text text-anchor="middle" x="464.5" y="-44.3" font-family="Helvetica,sans-Serif" font-size="9.00">get_per_thread_info</text>
</a>
</g>
</g>
<!-- Node2&#45;&gt;Node3 -->
<g id="edge2" class="edge">
<title>Node2&#45;&gt;Node3</title>
<path fill="none" stroke="midnightblue" d="M209.78,-37.5C224.49,-41.42 242.51,-45.56 259,-47.5 306.3,-53.07 360.17,-52.53 400.75,-50.75"/>
<polygon fill="midnightblue" stroke="midnightblue" points="400.94,-54.25 410.76,-50.28 400.61,-47.26 400.94,-54.25"/>
</g>
<!-- Node5 -->
<g id="node5" class="node">
<title>Node5</title>
<g id="a_node5"><a xlink:href="redis__ipc_8c.html#a5e81feac565f9476476c5f042b2a5c9d" target="_top" xlink:title=" ">
<polygon fill="white" stroke="black" points="400,-0.5 400,-18.5 529,-18.5 529,-0.5 400,-0.5"/>
<text text-anchor="middle" x="464.5" y="-7.3" font-family="Helvetica,sans-Serif" font-size="9.00">stderr_debug_is_enabled</text>
</a>
</g>
</g>
<!-- Node2&#45;&gt;Node5 -->
<g id="edge4" class="edge">
<title>Node2&#45;&gt;Node5</title>
<path fill="none" stroke="midnightblue" d="M209.78,-19.5C224.49,-15.58 242.51,-11.44 259,-9.5 302.05,-4.43 350.55,-4.19 389.51,-5.34"/>
<polygon fill="midnightblue" stroke="midnightblue" points="389.61,-8.84 399.72,-5.67 389.84,-1.84 389.61,-8.84"/>
</g>
<!-- Node6 -->
<g id="node6" class="node">
<title>Node6</title>
<g id="a_node6"><a xlink:href="redis__ipc_8c.html#ae88037651d88f63c62d32afd7e0fccf2" target="_top" xlink:title=" ">
<polygon fill="white" stroke="black" points="259,-19.5 259,-37.5 364,-37.5 364,-19.5 259,-19.5"/>
<text text-anchor="middle" x="311.5" y="-26.3" font-family="Helvetica,sans-Serif" font-size="9.00">validate_redis_reply</text>
</a>
</g>
</g>
<!-- Node2&#45;&gt;Node6 -->
<g id="edge5" class="edge">
<title>Node2&#45;&gt;Node6</title>
<path fill="none" stroke="midnightblue" d="M223.12,-28.5C231.36,-28.5 240.12,-28.5 248.79,-28.5"/>
<polygon fill="midnightblue" stroke="midnightblue" points="248.89,-32 258.89,-28.5 248.89,-25 248.89,-32"/>
</g>
<!-- Node4 -->
<g id="node4" class="node">
<title>Node4</title>
<g id="a_node4"><a xlink:href="redis__ipc_8c.html#af0449193b7cded86e600f052d0aabd39" target="_top" xlink:title=" ">
<polygon fill="white" stroke="black" points="565,-37.5 565,-55.5 609,-55.5 609,-37.5 565,-37.5"/>
<text text-anchor="middle" x="587" y="-44.3" font-family="Helvetica,sans-Serif" font-size="9.00">gettid</text>
</a>
</g>
</g>
<!-- Node3&#45;&gt;Node4 -->
<g id="edge3" class="edge">
<title>Node3&#45;&gt;Node4</title>
<path fill="none" stroke="midnightblue" d="M518,-46.5C530.5,-46.5 543.45,-46.5 554.65,-46.5"/>
<polygon fill="midnightblue" stroke="midnightblue" points="554.78,-50 564.78,-46.5 554.78,-43 554.78,-50"/>
</g>
<!-- Node6&#45;&gt;Node3 -->
<g id="edge6" class="edge">
<title>Node6&#45;&gt;Node3</title>
<path fill="none" stroke="midnightblue" d="M364.04,-34.64C375.86,-36.05 388.54,-37.56 400.77,-39.02"/>
<polygon fill="midnightblue" stroke="midnightblue" points="400.56,-42.52 410.91,-40.23 401.39,-35.57 400.56,-42.52"/>
</g>
<!-- Node6&#45;&gt;Node5 -->
<g id="edge7" class="edge">
<title>Node6&#45;&gt;Node5</title>
<path fill="none" stroke="midnightblue" d="M364.04,-22.01C372.33,-20.97 381.05,-19.87 389.74,-18.78"/>
<polygon fill="midnightblue" stroke="midnightblue" points="390.42,-22.22 399.9,-17.5 389.54,-15.28 390.42,-22.22"/>
</g>
</g>
</svg>
