<?xml version="1.0" encoding="UTF-8" standalone="no"?>
<!DOCTYPE svg PUBLIC "-//W3C//DTD SVG 1.1//EN"
 "http://www.w3.org/Graphics/SVG/1.1/DTD/svg11.dtd">
<!-- Generated by graphviz version 2.50.0 (20220203.2022)
 -->
<!-- Title: src/redis_ipc.h Pages: 1 -->
<svg width="152pt" height="82pt"
 viewBox="0.00 0.00 151.50 82.00" xmlns="http://www.w3.org/2000/svg" xmlns:xlink="http://www.w3.org/1999/xlink">
<g id="graph0" class="graph" transform="scale(1 1) rotate(0) translate(4 78)">
<title>src/redis_ipc.h</title>
<polygon fill="white" stroke="transparent" points="-4,4 -4,-78 147.5,-78 147.5,4 -4,4"/>
<!-- Node1 -->
<g id="node1" class="node">
<title>Node1</title>
<g id="a_node1"><a xlink:title=" ">
<polygon fill="#bfbfbf" stroke="black" points="33,-55.5 33,-73.5 107,-73.5 107,-55.5 33,-55.5"/>
<text text-anchor="middle" x="70" y="-62.3" font-family="Helvetica,sans-Serif" font-size="9.00">src/redis_ipc.h</text>
</a>
</g>
</g>
<!-- Node2 -->
<g id="node2" class="node">
<title>Node2</title>
<g id="a_node2"><a xlink:title=" ">
<polygon fill="white" stroke="#bfbfbf" points="0,-0.5 0,-18.5 60,-18.5 60,-0.5 0,-0.5"/>
<text text-anchor="middle" x="30" y="-7.3" font-family="Helvetica,sans-Serif" font-size="9.00">sys/types.h</text>
</a>
</g>
</g>
<!-- Node1&#45;&gt;Node2 -->
<g id="edge1" class="edge">
<title>Node1&#45;&gt;Node2</title>
<path fill="none" stroke="midnightblue" d="M63.75,-55.22C58.02,-47.63 49.38,-36.18 42.27,-26.76"/>
<polygon fill="midnightblue" stroke="midnightblue" points="44.89,-24.42 36.08,-18.55 39.31,-28.64 44.89,-24.42"/>
</g>
<!-- Node3 -->
<g id="node3" class="node">
<title>Node3</title>
<g id="a_node3"><a xlink:title=" ">
<polygon fill="white" stroke="#bfbfbf" points="78.5,-0.5 78.5,-18.5 143.5,-18.5 143.5,-0.5 78.5,-0.5"/>
<text text-anchor="middle" x="111" y="-7.3" font-family="Helvetica,sans-Serif" font-size="9.00">json&#45;c/json.h</text>
</a>
</g>
</g>
<!-- Node1&#45;&gt;Node3 -->
<g id="edge2" class="edge">
<title>Node1&#45;&gt;Node3</title>
<path fill="none" stroke="midnightblue" d="M76.41,-55.22C82.34,-47.55 91.32,-35.94 98.65,-26.47"/>
<polygon fill="midnightblue" stroke="midnightblue" points="101.42,-28.6 104.77,-18.55 95.89,-24.32 101.42,-28.6"/>
</g>
</g>
</svg>
