<?xml version="1.0" encoding="UTF-8" standalone="no"?>
<!DOCTYPE svg PUBLIC "-//W3C//DTD SVG 1.1//EN"
 "http://www.w3.org/Graphics/SVG/1.1/DTD/svg11.dtd">
<!-- Generated by graphviz version 3.0.0 (20220413.0106)
 -->
<!-- Title: redis_ipc_read_status_field Pages: 1 -->
<svg width="732pt" height="118pt"
 viewBox="0.00 0.00 732.00 118.20" xmlns="http://www.w3.org/2000/svg" xmlns:xlink="http://www.w3.org/1999/xlink">
<g id="graph0" class="graph" transform="scale(1 1) rotate(0) translate(4 114.2)">
<title>redis_ipc_read_status_field</title>
<polygon fill="white" stroke="transparent" points="-4,4 -4,-114.2 728,-114.2 728,4 -4,4"/>
<!-- Node1 -->
<g id="node1" class="node">
<title>Node1</title>
<g id="a_node1"><a xlink:title=" ">
<polygon fill="#bfbfbf" stroke="black" points="0,-70.5 0,-98.5 105,-98.5 105,-70.5 0,-70.5"/>
<text text-anchor="start" x="8" y="-87.3" font-family="Helvetica,sans-Serif" font-size="9.00">redis_ipc_read_status</text>
<text text-anchor="middle" x="52.5" y="-77.3" font-family="Helvetica,sans-Serif" font-size="9.00">_field</text>
</a>
</g>
</g>
<!-- Node2 -->
<g id="node2" class="node">
<title>Node2</title>
<g id="a_node2"><a xlink:href="redis__ipc_8c.html#a7b930ec420c7b4bf2df1469aca77f93d" target="_top" xlink:title=" ">
<polygon fill="white" stroke="black" points="543.5,-76.5 543.5,-94.5 638.5,-94.5 638.5,-76.5 543.5,-76.5"/>
<text text-anchor="middle" x="591" y="-83.3" font-family="Helvetica,sans-Serif" font-size="9.00">get_per_thread_info</text>
</a>
</g>
</g>
<!-- Node1&#45;&gt;Node2 -->
<g id="edge1" class="edge">
<title>Node1&#45;&gt;Node2</title>
<path fill="none" stroke="midnightblue" d="M105.02,-97.6C116.77,-100.05 129.25,-102.24 141,-103.5 281.51,-118.58 447.97,-103.31 533.31,-93.09"/>
<polygon fill="midnightblue" stroke="midnightblue" points="533.81,-96.55 543.31,-91.87 532.96,-89.6 533.81,-96.55"/>
</g>
<!-- Node4 -->
<g id="node4" class="node">
<title>Node4</title>
<g id="a_node4"><a xlink:href="redis__ipc_8c.html#a67c9dd84d2426ab58a759dbdfd223267" target="_top" xlink:title=" ">
<polygon fill="white" stroke="black" points="168,-75.5 168,-93.5 219,-93.5 219,-75.5 168,-75.5"/>
<text text-anchor="middle" x="193.5" y="-82.3" font-family="Helvetica,sans-Serif" font-size="9.00">ipc_path</text>
</a>
</g>
</g>
<!-- Node1&#45;&gt;Node4 -->
<g id="edge3" class="edge">
<title>Node1&#45;&gt;Node4</title>
<path fill="none" stroke="midnightblue" d="M105.26,-84.5C122.69,-84.5 141.72,-84.5 157.55,-84.5"/>
<polygon fill="midnightblue" stroke="midnightblue" points="157.93,-88 167.93,-84.5 157.93,-81 157.93,-88"/>
</g>
<!-- Node5 -->
<g id="node5" class="node">
<title>Node5</title>
<g id="a_node5"><a xlink:href="redis__ipc_8c.html#a4f935a08f52bbc4ef3c81532488f9a80" target="_top" xlink:title=" ">
<polygon fill="white" stroke="black" points="141,-38.5 141,-56.5 246,-56.5 246,-38.5 141,-38.5"/>
<text text-anchor="middle" x="193.5" y="-45.3" font-family="Helvetica,sans-Serif" font-size="9.00">redis_read_hash_field</text>
</a>
</g>
</g>
<!-- Node1&#45;&gt;Node5 -->
<g id="edge4" class="edge">
<title>Node1&#45;&gt;Node5</title>
<path fill="none" stroke="midnightblue" d="M105.26,-70.72C119.54,-66.92 134.9,-62.83 148.69,-59.16"/>
<polygon fill="midnightblue" stroke="midnightblue" points="149.65,-62.53 158.41,-56.57 147.85,-55.76 149.65,-62.53"/>
</g>
<!-- Node3 -->
<g id="node3" class="node">
<title>Node3</title>
<g id="a_node3"><a xlink:href="redis__ipc_8c.html#af0449193b7cded86e600f052d0aabd39" target="_top" xlink:title=" ">
<polygon fill="white" stroke="black" points="686,-76.5 686,-94.5 724,-94.5 724,-76.5 686,-76.5"/>
<text text-anchor="middle" x="705" y="-83.3" font-family="Helvetica,sans-Serif" font-size="9.00">gettid</text>
</a>
</g>
</g>
<!-- Node2&#45;&gt;Node3 -->
<g id="edge2" class="edge">
<title>Node2&#45;&gt;Node3</title>
<path fill="none" stroke="midnightblue" d="M638.53,-85.5C651.19,-85.5 664.51,-85.5 675.82,-85.5"/>
<polygon fill="midnightblue" stroke="midnightblue" points="675.94,-89 685.94,-85.5 675.94,-82 675.94,-89"/>
</g>
<!-- Node6 -->
<g id="node6" class="node">
<title>Node6</title>
<g id="a_node6"><a xlink:href="redis__ipc_8c.html#afab35d4c40b4b1866fc0239bb885a39b" target="_top" xlink:title=" ">
<polygon fill="white" stroke="black" points="282,-38.5 282,-56.5 362,-56.5 362,-38.5 282,-38.5"/>
<text text-anchor="middle" x="322" y="-45.3" font-family="Helvetica,sans-Serif" font-size="9.00">redis_command</text>
</a>
</g>
</g>
<!-- Node5&#45;&gt;Node6 -->
<g id="edge5" class="edge">
<title>Node5&#45;&gt;Node6</title>
<path fill="none" stroke="midnightblue" d="M246.32,-47.5C254.67,-47.5 263.29,-47.5 271.58,-47.5"/>
<polygon fill="midnightblue" stroke="midnightblue" points="271.85,-51 281.85,-47.5 271.85,-44 271.85,-51"/>
</g>
<!-- Node7 -->
<g id="node7" class="node">
<title>Node7</title>
<g id="a_node7"><a xlink:href="redis__ipc_8c.html#a5e81feac565f9476476c5f042b2a5c9d" target="_top" xlink:title=" ">
<polygon fill="white" stroke="black" points="532,-0.5 532,-18.5 650,-18.5 650,-0.5 532,-0.5"/>
<text text-anchor="middle" x="591" y="-7.3" font-family="Helvetica,sans-Serif" font-size="9.00">stderr_debug_is_enabled</text>
</a>
</g>
</g>
<!-- Node5&#45;&gt;Node7 -->
<g id="edge11" class="edge">
<title>Node5&#45;&gt;Node7</title>
<path fill="none" stroke="midnightblue" d="M233.14,-38.44C248.32,-35.06 265.93,-31.35 282,-28.5 333.24,-19.42 346.11,-16.47 398,-12.5 439.02,-9.36 485.1,-8.55 521.84,-8.56"/>
<polygon fill="midnightblue" stroke="midnightblue" points="521.94,-12.06 531.94,-8.58 521.95,-5.06 521.94,-12.06"/>
</g>
<!-- Node6&#45;&gt;Node2 -->
<g id="edge6" class="edge">
<title>Node6&#45;&gt;Node2</title>
<path fill="none" stroke="midnightblue" d="M354.16,-56.5C367.55,-60.08 383.45,-63.95 398,-66.5 442.94,-74.37 494.4,-79.24 532.73,-82.08"/>
<polygon fill="midnightblue" stroke="midnightblue" points="532.95,-85.61 543.18,-82.83 533.45,-78.62 532.95,-85.61"/>
</g>
<!-- Node6&#45;&gt;Node7 -->
<g id="edge7" class="edge">
<title>Node6&#45;&gt;Node7</title>
<path fill="none" stroke="midnightblue" d="M354.16,-38.5C367.55,-34.92 383.45,-31.05 398,-28.5 438.71,-21.37 484.79,-16.7 521.6,-13.77"/>
<polygon fill="midnightblue" stroke="midnightblue" points="522.02,-17.25 531.72,-12.99 521.48,-10.27 522.02,-17.25"/>
</g>
<!-- Node8 -->
<g id="node8" class="node">
<title>Node8</title>
<g id="a_node8"><a xlink:href="redis__ipc_8c.html#a80ea8825dd17a3cff2530680c97d184a" target="_top" xlink:title=" ">
<polygon fill="white" stroke="black" points="398,-38.5 398,-56.5 496,-56.5 496,-38.5 398,-38.5"/>
<text text-anchor="middle" x="447" y="-45.3" font-family="Helvetica,sans-Serif" font-size="9.00">validate_redis_reply</text>
</a>
</g>
</g>
<!-- Node6&#45;&gt;Node8 -->
<g id="edge8" class="edge">
<title>Node6&#45;&gt;Node8</title>
<path fill="none" stroke="midnightblue" d="M362.26,-47.5C370.34,-47.5 379.02,-47.5 387.62,-47.5"/>
<polygon fill="midnightblue" stroke="midnightblue" points="387.63,-51 397.63,-47.5 387.63,-44 387.63,-51"/>
</g>
<!-- Node8&#45;&gt;Node2 -->
<g id="edge9" class="edge">
<title>Node8&#45;&gt;Node2</title>
<path fill="none" stroke="midnightblue" d="M481.65,-56.51C500.96,-61.67 525.43,-68.22 546.22,-73.79"/>
<polygon fill="midnightblue" stroke="midnightblue" points="545.53,-77.22 556.1,-76.43 547.34,-70.46 545.53,-77.22"/>
</g>
<!-- Node8&#45;&gt;Node7 -->
<g id="edge10" class="edge">
<title>Node8&#45;&gt;Node7</title>
<path fill="none" stroke="midnightblue" d="M481.65,-38.49C500.96,-33.33 525.43,-26.78 546.22,-21.21"/>
<polygon fill="midnightblue" stroke="midnightblue" points="547.34,-24.54 556.1,-18.57 545.53,-17.78 547.34,-24.54"/>
</g>
</g>
</svg>
