<?xml version="1.0" encoding="UTF-8" standalone="no"?>
<!DOCTYPE svg PUBLIC "-//W3C//DTD SVG 1.1//EN"
 "http://www.w3.org/Graphics/SVG/1.1/DTD/svg11.dtd">
<!-- Generated by graphviz version 2.43.0 (0)
 -->
<!-- Title: redis_ipc_unsubscribe_events Pages: 1 -->
<svg width="769pt" height="100pt"
 viewBox="0.00 0.00 769.00 99.83" xmlns="http://www.w3.org/2000/svg" xmlns:xlink="http://www.w3.org/1999/xlink">
<g id="graph0" class="graph" transform="scale(1 1) rotate(0) translate(4 95.83)">
<title>redis_ipc_unsubscribe_events</title>
<polygon fill="white" stroke="transparent" points="-4,4 -4,-95.83 765,-95.83 765,4 -4,4"/>
<!-- Node1 -->
<g id="node1" class="node">
<title>Node1</title>
<g id="a_node1"><a xlink:title=" ">
<polygon fill="#bfbfbf" stroke="black" points="0,-52.5 0,-80.5 116,-80.5 116,-52.5 0,-52.5"/>
<text text-anchor="start" x="8" y="-69.3" font-family="Helvetica,sans-Serif" font-size="9.00">redis_ipc_unsubscribe</text>
<text text-anchor="middle" x="58" y="-59.3" font-family="Helvetica,sans-Serif" font-size="9.00">_events</text>
</a>
</g>
</g>
<!-- Node2 -->
<g id="node2" class="node">
<title>Node2</title>
<g id="a_node2"><a xlink:href="redis__ipc_8c.html#aa2a3ce97c0b6f3e83572446f3c92e541" target="_top" xlink:title=" ">
<polygon fill="white" stroke="black" points="563,-57.5 563,-75.5 670,-75.5 670,-57.5 563,-57.5"/>
<text text-anchor="middle" x="616.5" y="-64.3" font-family="Helvetica,sans-Serif" font-size="9.00">get_per_thread_info</text>
</a>
</g>
</g>
<!-- Node1&#45;&gt;Node2 -->
<g id="edge1" class="edge">
<title>Node1&#45;&gt;Node2</title>
<path fill="none" stroke="midnightblue" d="M116.27,-80.08C128.02,-82.34 140.36,-84.32 152,-85.5 294.93,-99.95 463.71,-85.04 552.92,-74.67"/>
<polygon fill="midnightblue" stroke="midnightblue" points="553.36,-78.14 562.88,-73.49 552.53,-71.19 553.36,-78.14"/>
</g>
<!-- Node4 -->
<g id="node4" class="node">
<title>Node4</title>
<g id="a_node4"><a xlink:href="redis__ipc_8c.html#a67c9dd84d2426ab58a759dbdfd223267" target="_top" xlink:title=" ">
<polygon fill="white" stroke="black" points="173,-57.5 173,-75.5 229,-75.5 229,-57.5 173,-57.5"/>
<text text-anchor="middle" x="201" y="-64.3" font-family="Helvetica,sans-Serif" font-size="9.00">ipc_path</text>
</a>
</g>
</g>
<!-- Node1&#45;&gt;Node4 -->
<g id="edge3" class="edge">
<title>Node1&#45;&gt;Node4</title>
<path fill="none" stroke="midnightblue" d="M116.35,-66.5C131.9,-66.5 148.34,-66.5 162.49,-66.5"/>
<polygon fill="midnightblue" stroke="midnightblue" points="162.81,-70 172.81,-66.5 162.81,-63 162.81,-70"/>
</g>
<!-- Node5 -->
<g id="node5" class="node">
<title>Node5</title>
<g id="a_node5"><a xlink:href="redis__ipc_8c.html#a40d3af6ed926711313712685503a1c91" target="_top" xlink:title=" ">
<polygon fill="white" stroke="black" points="152,-20.5 152,-38.5 250,-38.5 250,-20.5 152,-20.5"/>
<text text-anchor="middle" x="201" y="-27.3" font-family="Helvetica,sans-Serif" font-size="9.00">redis_unsubscribe</text>
</a>
</g>
</g>
<!-- Node1&#45;&gt;Node5 -->
<g id="edge4" class="edge">
<title>Node1&#45;&gt;Node5</title>
<path fill="none" stroke="midnightblue" d="M112.71,-52.41C126.85,-48.7 141.94,-44.73 155.54,-41.17"/>
<polygon fill="midnightblue" stroke="midnightblue" points="156.82,-44.45 165.6,-38.53 155.04,-37.68 156.82,-44.45"/>
</g>
<!-- Node3 -->
<g id="node3" class="node">
<title>Node3</title>
<g id="a_node3"><a xlink:href="redis__ipc_8c.html#af0449193b7cded86e600f052d0aabd39" target="_top" xlink:title=" ">
<polygon fill="white" stroke="black" points="717,-57.5 717,-75.5 761,-75.5 761,-57.5 717,-57.5"/>
<text text-anchor="middle" x="739" y="-64.3" font-family="Helvetica,sans-Serif" font-size="9.00">gettid</text>
</a>
</g>
</g>
<!-- Node2&#45;&gt;Node3 -->
<g id="edge2" class="edge">
<title>Node2&#45;&gt;Node3</title>
<path fill="none" stroke="midnightblue" d="M670,-66.5C682.5,-66.5 695.45,-66.5 706.65,-66.5"/>
<polygon fill="midnightblue" stroke="midnightblue" points="706.78,-70 716.78,-66.5 706.78,-63 706.78,-70"/>
</g>
<!-- Node6 -->
<g id="node6" class="node">
<title>Node6</title>
<g id="a_node6"><a xlink:href="redis__ipc_8c.html#aefb4508c1883e7d4345b206076b19e5d" target="_top" xlink:title=" ">
<polygon fill="white" stroke="black" points="286,-19.5 286,-37.5 375,-37.5 375,-19.5 286,-19.5"/>
<text text-anchor="middle" x="330.5" y="-26.3" font-family="Helvetica,sans-Serif" font-size="9.00">redis_command</text>
</a>
</g>
</g>
<!-- Node5&#45;&gt;Node6 -->
<g id="edge5" class="edge">
<title>Node5&#45;&gt;Node6</title>
<path fill="none" stroke="midnightblue" d="M250.2,-29.12C258.52,-29.06 267.22,-28.99 275.68,-28.92"/>
<polygon fill="midnightblue" stroke="midnightblue" points="275.87,-32.42 285.84,-28.84 275.81,-25.42 275.87,-32.42"/>
</g>
<!-- Node6&#45;&gt;Node2 -->
<g id="edge6" class="edge">
<title>Node6&#45;&gt;Node2</title>
<path fill="none" stroke="midnightblue" d="M366.93,-37.52C380.63,-40.74 396.47,-44.15 411,-46.5 458.24,-54.13 512.12,-59.25 552.71,-62.4"/>
<polygon fill="midnightblue" stroke="midnightblue" points="552.49,-65.9 562.73,-63.16 553.02,-58.92 552.49,-65.9"/>
</g>
<!-- Node7 -->
<g id="node7" class="node">
<title>Node7</title>
<g id="a_node7"><a xlink:href="redis__ipc_8c.html#a5e81feac565f9476476c5f042b2a5c9d" target="_top" xlink:title=" ">
<polygon fill="white" stroke="black" points="552,-0.5 552,-18.5 681,-18.5 681,-0.5 552,-0.5"/>
<text text-anchor="middle" x="616.5" y="-7.3" font-family="Helvetica,sans-Serif" font-size="9.00">stderr_debug_is_enabled</text>
</a>
</g>
</g>
<!-- Node6&#45;&gt;Node7 -->
<g id="edge7" class="edge">
<title>Node6&#45;&gt;Node7</title>
<path fill="none" stroke="midnightblue" d="M361.78,-19.5C376.49,-15.58 394.51,-11.44 411,-9.5 454.05,-4.43 502.55,-4.19 541.51,-5.34"/>
<polygon fill="midnightblue" stroke="midnightblue" points="541.61,-8.84 551.72,-5.67 541.84,-1.84 541.61,-8.84"/>
</g>
<!-- Node8 -->
<g id="node8" class="node">
<title>Node8</title>
<g id="a_node8"><a xlink:href="redis__ipc_8c.html#ae88037651d88f63c62d32afd7e0fccf2" target="_top" xlink:title=" ">
<polygon fill="white" stroke="black" points="411,-19.5 411,-37.5 516,-37.5 516,-19.5 411,-19.5"/>
<text text-anchor="middle" x="463.5" y="-26.3" font-family="Helvetica,sans-Serif" font-size="9.00">validate_redis_reply</text>
</a>
</g>
</g>
<!-- Node6&#45;&gt;Node8 -->
<g id="edge8" class="edge">
<title>Node6&#45;&gt;Node8</title>
<path fill="none" stroke="midnightblue" d="M375.12,-28.5C383.36,-28.5 392.12,-28.5 400.79,-28.5"/>
<polygon fill="midnightblue" stroke="midnightblue" points="400.89,-32 410.89,-28.5 400.89,-25 400.89,-32"/>
</g>
<!-- Node8&#45;&gt;Node2 -->
<g id="edge9" class="edge">
<title>Node8&#45;&gt;Node2</title>
<path fill="none" stroke="midnightblue" d="M500.28,-37.51C521.08,-42.74 547.5,-49.39 569.79,-55"/>
<polygon fill="midnightblue" stroke="midnightblue" points="569.16,-58.45 579.71,-57.49 570.87,-51.66 569.16,-58.45"/>
</g>
<!-- Node8&#45;&gt;Node7 -->
<g id="edge10" class="edge">
<title>Node8&#45;&gt;Node7</title>
<path fill="none" stroke="midnightblue" d="M516.04,-22.01C524.33,-20.97 533.05,-19.87 541.74,-18.78"/>
<polygon fill="midnightblue" stroke="midnightblue" points="542.42,-22.22 551.9,-17.5 541.54,-15.28 542.42,-22.22"/>
</g>
</g>
</svg>
