<?xml version="1.0" encoding="UTF-8" standalone="no"?>
<!DOCTYPE svg PUBLIC "-//W3C//DTD SVG 1.1//EN"
 "http://www.w3.org/Graphics/SVG/1.1/DTD/svg11.dtd">
<!-- Generated by graphviz version 3.0.0 (20220413.0106)
 -->
<!-- Title: validate_redis_reply Pages: 1 -->
<svg width="714pt" height="662pt"
 viewBox="0.00 0.00 714.00 662.00" xmlns="http://www.w3.org/2000/svg" xmlns:xlink="http://www.w3.org/1999/xlink">
<g id="graph0" class="graph" transform="scale(1 1) rotate(0) translate(4 658)">
<title>validate_redis_reply</title>
<polygon fill="white" stroke="transparent" points="-4,4 -4,-658 710,-658 710,4 -4,4"/>
<!-- Node1 -->
<g id="node1" class="node">
<title>Node1</title>
<g id="a_node1"><a xlink:title=" ">
<polygon fill="#bfbfbf" stroke="black" points="608,-184.5 608,-202.5 706,-202.5 706,-184.5 608,-184.5"/>
<text text-anchor="middle" x="657" y="-191.3" font-family="Helvetica,sans-Serif" font-size="9.00">validate_redis_reply</text>
</a>
</g>
</g>
<!-- Node2 -->
<g id="node2" class="node">
<title>Node2</title>
<g id="a_node2"><a xlink:href="redis__ipc_8c.html#afab35d4c40b4b1866fc0239bb885a39b" target="_top" xlink:title=" ">
<polygon fill="white" stroke="black" points="472.5,-306.5 472.5,-324.5 552.5,-324.5 552.5,-306.5 472.5,-306.5"/>
<text text-anchor="middle" x="512.5" y="-313.3" font-family="Helvetica,sans-Serif" font-size="9.00">redis_command</text>
</a>
</g>
</g>
<!-- Node1&#45;&gt;Node2 -->
<g id="edge1" class="edge">
<title>Node1&#45;&gt;Node2</title>
<path fill="none" stroke="midnightblue" d="M637.61,-209.24C607.5,-235.02 548.59,-285.46 524.33,-306.22"/>
<polygon fill="midnightblue" stroke="midnightblue" points="639.97,-211.83 645.29,-202.67 635.42,-206.51 639.97,-211.83"/>
</g>
<!-- Node26 -->
<g id="node26" class="node">
<title>Node26</title>
<g id="a_node26"><a xlink:href="redis__ipc_8c.html#a75d72df468cbcb8c72d15ca3b0cd9996" target="_top" xlink:title=" ">
<polygon fill="white" stroke="black" points="453,-166.5 453,-184.5 572,-184.5 572,-166.5 453,-166.5"/>
<text text-anchor="middle" x="512.5" y="-173.3" font-family="Helvetica,sans-Serif" font-size="9.00">redis_command_from_list</text>
</a>
</g>
</g>
<!-- Node1&#45;&gt;Node26 -->
<g id="edge29" class="edge">
<title>Node1&#45;&gt;Node26</title>
<path fill="none" stroke="midnightblue" d="M597.62,-186.13C589.19,-185.06 580.5,-183.96 572.06,-182.9"/>
<polygon fill="midnightblue" stroke="midnightblue" points="597.4,-189.63 607.76,-187.41 598.27,-182.68 597.4,-189.63"/>
</g>
<!-- Node3 -->
<g id="node3" class="node">
<title>Node3</title>
<g id="a_node3"><a xlink:href="redis__ipc_8c.html#a51be0735eeaf88f636c16128647f11f7" target="_top" xlink:title=" ">
<polygon fill="white" stroke="black" points="193,-353.5 193,-371.5 249,-371.5 249,-353.5 193,-353.5"/>
<text text-anchor="middle" x="221" y="-360.3" font-family="Helvetica,sans-Serif" font-size="9.00">redis_pop</text>
</a>
</g>
</g>
<!-- Node2&#45;&gt;Node3 -->
<g id="edge2" class="edge">
<title>Node2&#45;&gt;Node3</title>
<path fill="none" stroke="midnightblue" d="M462.25,-325.94C447.71,-328.88 431.74,-331.96 417,-334.5 357.34,-344.77 286.96,-354.23 249.2,-359.08"/>
<polygon fill="midnightblue" stroke="midnightblue" points="462.95,-329.37 472.05,-323.94 461.55,-322.51 462.95,-329.37"/>
</g>
<!-- Node6 -->
<g id="node6" class="node">
<title>Node6</title>
<g id="a_node6"><a xlink:href="redis__ipc_8c.html#ab3dc5609833c201c4e9ebaa5e2e70a2f" target="_top" xlink:title=" ">
<polygon fill="white" stroke="black" points="329,-306.5 329,-324.5 399,-324.5 399,-306.5 329,-306.5"/>
<text text-anchor="middle" x="364" y="-313.3" font-family="Helvetica,sans-Serif" font-size="9.00">redis_publish</text>
</a>
</g>
</g>
<!-- Node2&#45;&gt;Node6 -->
<g id="edge5" class="edge">
<title>Node2&#45;&gt;Node6</title>
<path fill="none" stroke="midnightblue" d="M462.08,-315.5C441.48,-315.5 418.05,-315.5 399.38,-315.5"/>
<polygon fill="midnightblue" stroke="midnightblue" points="462.24,-319 472.24,-315.5 462.24,-312 462.24,-319"/>
</g>
<!-- Node10 -->
<g id="node10" class="node">
<title>Node10</title>
<g id="a_node10"><a xlink:href="redis__ipc_8c.html#ae826a119ee7ca11d9636c6f34b9a29e9" target="_top" xlink:title=" ">
<polygon fill="white" stroke="black" points="191,-242.5 191,-260.5 251,-260.5 251,-242.5 191,-242.5"/>
<text text-anchor="middle" x="221" y="-249.3" font-family="Helvetica,sans-Serif" font-size="9.00">redis_push</text>
</a>
</g>
</g>
<!-- Node2&#45;&gt;Node10 -->
<g id="edge11" class="edge">
<title>Node2&#45;&gt;Node10</title>
<path fill="none" stroke="midnightblue" d="M462.37,-304.64C401.8,-291.25 300.81,-268.92 251.25,-257.97"/>
<polygon fill="midnightblue" stroke="midnightblue" points="461.94,-308.13 472.46,-306.87 463.45,-301.29 461.94,-308.13"/>
</g>
<!-- Node11 -->
<g id="node11" class="node">
<title>Node11</title>
<g id="a_node11"><a xlink:href="redis__ipc_8c.html#a9f1ecd3f095bb4358ae2b26347b2b822" target="_top" xlink:title=" ">
<polygon fill="white" stroke="black" points="322.5,-205.5 322.5,-223.5 405.5,-223.5 405.5,-205.5 322.5,-205.5"/>
<text text-anchor="middle" x="364" y="-212.3" font-family="Helvetica,sans-Serif" font-size="9.00">redis_read_hash</text>
</a>
</g>
</g>
<!-- Node2&#45;&gt;Node11 -->
<g id="edge14" class="edge">
<title>Node2&#45;&gt;Node11</title>
<path fill="none" stroke="midnightblue" d="M489.89,-300.6C459.06,-279.35 403.4,-240.97 378.12,-223.55"/>
<polygon fill="midnightblue" stroke="midnightblue" points="488.02,-303.56 498.24,-306.36 491.99,-297.8 488.02,-303.56"/>
</g>
<!-- Node14 -->
<g id="node14" class="node">
<title>Node14</title>
<g id="a_node14"><a xlink:href="redis__ipc_8c.html#a4f935a08f52bbc4ef3c81532488f9a80" target="_top" xlink:title=" ">
<polygon fill="white" stroke="black" points="311.5,-126.5 311.5,-144.5 416.5,-144.5 416.5,-126.5 311.5,-126.5"/>
<text text-anchor="middle" x="364" y="-133.3" font-family="Helvetica,sans-Serif" font-size="9.00">redis_read_hash_field</text>
</a>
</g>
</g>
<!-- Node2&#45;&gt;Node14 -->
<g id="edge17" class="edge">
<title>Node2&#45;&gt;Node14</title>
<path fill="none" stroke="midnightblue" d="M498.43,-298.39C480.42,-274.93 446.81,-231.57 417,-195.5 401.9,-177.22 383.62,-156.42 373.24,-144.74"/>
<polygon fill="midnightblue" stroke="midnightblue" points="495.67,-300.54 504.53,-306.35 501.23,-296.29 495.67,-300.54"/>
</g>
<!-- Node17 -->
<g id="node17" class="node">
<title>Node17</title>
<g id="a_node17"><a xlink:href="redis__ipc_8c.html#a420fcd64722043e4bc0bb7f61a29d588" target="_top" xlink:title=" ">
<polygon fill="white" stroke="black" points="324,-583.5 324,-601.5 404,-601.5 404,-583.5 324,-583.5"/>
<text text-anchor="middle" x="364" y="-590.3" font-family="Helvetica,sans-Serif" font-size="9.00">redis_subscribe</text>
</a>
</g>
</g>
<!-- Node2&#45;&gt;Node17 -->
<g id="edge20" class="edge">
<title>Node2&#45;&gt;Node17</title>
<path fill="none" stroke="midnightblue" d="M504.11,-333.92C489.36,-370.07 454.42,-452.43 417,-517.5 402.78,-542.22 382.85,-569.26 372.27,-583.13"/>
<polygon fill="midnightblue" stroke="midnightblue" points="507.37,-335.21 507.88,-324.63 500.88,-332.59 507.37,-335.21"/>
</g>
<!-- Node20 -->
<g id="node20" class="node">
<title>Node20</title>
<g id="a_node20"><a xlink:href="redis__ipc_8c.html#a40d3af6ed926711313712685503a1c91" target="_top" xlink:title=" ">
<polygon fill="white" stroke="black" points="319.5,-489.5 319.5,-507.5 408.5,-507.5 408.5,-489.5 319.5,-489.5"/>
<text text-anchor="middle" x="364" y="-496.3" font-family="Helvetica,sans-Serif" font-size="9.00">redis_unsubscribe</text>
</a>
</g>
</g>
<!-- Node2&#45;&gt;Node20 -->
<g id="edge23" class="edge">
<title>Node2&#45;&gt;Node20</title>
<path fill="none" stroke="midnightblue" d="M497.79,-332.63C467.44,-370.54 395.46,-460.45 372.31,-489.37"/>
<polygon fill="midnightblue" stroke="midnightblue" points="500.72,-334.57 504.24,-324.57 495.25,-330.19 500.72,-334.57"/>
</g>
<!-- Node23 -->
<g id="node23" class="node">
<title>Node23</title>
<g id="a_node23"><a xlink:href="redis__ipc_8c.html#ad0c6708404743ef74dddacc617fb8b8e" target="_top" xlink:title=" ">
<polygon fill="white" stroke="black" points="311,-395.5 311,-413.5 417,-413.5 417,-395.5 311,-395.5"/>
<text text-anchor="middle" x="364" y="-402.3" font-family="Helvetica,sans-Serif" font-size="9.00">redis_write_hash_field</text>
</a>
</g>
</g>
<!-- Node2&#45;&gt;Node23 -->
<g id="edge26" class="edge">
<title>Node2&#45;&gt;Node23</title>
<path fill="none" stroke="midnightblue" d="M487.95,-329.81C457.5,-348.31 405.37,-379.98 379.89,-395.45"/>
<polygon fill="midnightblue" stroke="midnightblue" points="489.92,-332.71 496.65,-324.52 486.28,-326.72 489.92,-332.71"/>
</g>
<!-- Node4 -->
<g id="node4" class="node">
<title>Node4</title>
<g id="a_node4"><a xlink:href="redis__ipc_8c.html#a69a016ee903b3d8873ada802806e615d" target="_top" xlink:title=" ">
<polygon fill="white" stroke="black" points="0,-348.5 0,-376.5 131,-376.5 131,-348.5 0,-348.5"/>
<text text-anchor="start" x="8" y="-365.3" font-family="Helvetica,sans-Serif" font-size="9.00">redis_ipc_receive_command</text>
<text text-anchor="middle" x="65.5" y="-355.3" font-family="Helvetica,sans-Serif" font-size="9.00">_blocking</text>
</a>
</g>
</g>
<!-- Node3&#45;&gt;Node4 -->
<g id="edge3" class="edge">
<title>Node3&#45;&gt;Node4</title>
<path fill="none" stroke="midnightblue" d="M182.71,-362.5C167.24,-362.5 148.82,-362.5 131.26,-362.5"/>
<polygon fill="midnightblue" stroke="midnightblue" points="182.91,-366 192.91,-362.5 182.91,-359 182.91,-366"/>
</g>
<!-- Node5 -->
<g id="node5" class="node">
<title>Node5</title>
<g id="a_node5"><a xlink:href="redis__ipc_8c.html#afef4b2a08b3597ca1f62b7ead9490ef4" target="_top" xlink:title=" ">
<polygon fill="white" stroke="black" points="4.5,-301.5 4.5,-329.5 126.5,-329.5 126.5,-301.5 4.5,-301.5"/>
<text text-anchor="start" x="12.5" y="-318.3" font-family="Helvetica,sans-Serif" font-size="9.00">redis_ipc_send_command</text>
<text text-anchor="middle" x="65.5" y="-308.3" font-family="Helvetica,sans-Serif" font-size="9.00">_blocking</text>
</a>
</g>
</g>
<!-- Node3&#45;&gt;Node5 -->
<g id="edge4" class="edge">
<title>Node3&#45;&gt;Node5</title>
<path fill="none" stroke="midnightblue" d="M183.26,-351.25C161.95,-344.73 134.94,-336.46 112.27,-329.51"/>
<polygon fill="midnightblue" stroke="midnightblue" points="182.32,-354.62 192.91,-354.21 184.37,-347.93 182.32,-354.62"/>
</g>
<!-- Node7 -->
<g id="node7" class="node">
<title>Node7</title>
<g id="a_node7"><a xlink:href="redis__ipc_8c.html#a66cdf2ae760d1acb487dd82c1392c12f" target="_top" xlink:title=" ">
<polygon fill="white" stroke="black" points="167.5,-316.5 167.5,-334.5 274.5,-334.5 274.5,-316.5 167.5,-316.5"/>
<text text-anchor="middle" x="221" y="-323.3" font-family="Helvetica,sans-Serif" font-size="9.00">redis_ipc_send_debug</text>
</a>
</g>
</g>
<!-- Node6&#45;&gt;Node7 -->
<g id="edge6" class="edge">
<title>Node6&#45;&gt;Node7</title>
<path fill="none" stroke="midnightblue" d="M318.54,-318.65C304.56,-319.64 289,-320.75 274.53,-321.77"/>
<polygon fill="midnightblue" stroke="midnightblue" points="319.14,-322.12 328.87,-317.92 318.65,-315.14 319.14,-322.12"/>
</g>
<!-- Node9 -->
<g id="node9" class="node">
<title>Node9</title>
<g id="a_node9"><a xlink:href="redis__ipc_8c.html#a9040f6af2f364ef8da41175eb6073693" target="_top" xlink:title=" ">
<polygon fill="white" stroke="black" points="169.5,-279.5 169.5,-297.5 272.5,-297.5 272.5,-279.5 169.5,-279.5"/>
<text text-anchor="middle" x="221" y="-286.3" font-family="Helvetica,sans-Serif" font-size="9.00">redis_ipc_send_event</text>
</a>
</g>
</g>
<!-- Node6&#45;&gt;Node9 -->
<g id="edge10" class="edge">
<title>Node6&#45;&gt;Node9</title>
<path fill="none" stroke="midnightblue" d="M318.82,-307.04C303.03,-304.02 285.17,-300.6 269.13,-297.53"/>
<polygon fill="midnightblue" stroke="midnightblue" points="318.39,-310.52 328.87,-308.96 319.7,-303.65 318.39,-310.52"/>
</g>
<!-- Node7&#45;&gt;Node4 -->
<g id="edge7" class="edge">
<title>Node7&#45;&gt;Node4</title>
<path fill="none" stroke="midnightblue" d="M172.31,-336.99C157.21,-340.63 140.35,-344.7 124.6,-348.49"/>
<polygon fill="midnightblue" stroke="midnightblue" points="173.55,-340.3 182.45,-334.55 171.91,-333.49 173.55,-340.3"/>
</g>
<!-- Node7&#45;&gt;Node5 -->
<g id="edge8" class="edge">
<title>Node7&#45;&gt;Node5</title>
<path fill="none" stroke="midnightblue" d="M157.19,-321.41C147.06,-320.75 136.6,-320.07 126.54,-319.41"/>
<polygon fill="midnightblue" stroke="midnightblue" points="156.97,-324.9 167.17,-322.06 157.42,-317.92 156.97,-324.9"/>
</g>
<!-- Node8 -->
<g id="node8" class="node">
<title>Node8</title>
<g id="a_node8"><a xlink:href="redis__ipc_8c.html#aecff1f4edcb2ebf0654d0fff21e334a5" target="_top" xlink:title=" ">
<polygon fill="white" stroke="black" points="13.5,-253.5 13.5,-271.5 117.5,-271.5 117.5,-253.5 13.5,-253.5"/>
<text text-anchor="middle" x="65.5" y="-260.3" font-family="Helvetica,sans-Serif" font-size="9.00">redis_ipc_send_result</text>
</a>
</g>
</g>
<!-- Node7&#45;&gt;Node8 -->
<g id="edge9" class="edge">
<title>Node7&#45;&gt;Node8</title>
<path fill="none" stroke="midnightblue" d="M182.1,-313.11C176.99,-311.3 171.85,-309.4 167,-307.5 138.17,-296.18 105.58,-281.17 85.54,-271.67"/>
<polygon fill="midnightblue" stroke="midnightblue" points="181.17,-316.49 191.77,-316.46 183.46,-309.88 181.17,-316.49"/>
</g>
<!-- Node10&#45;&gt;Node5 -->
<g id="edge12" class="edge">
<title>Node10&#45;&gt;Node5</title>
<path fill="none" stroke="midnightblue" d="M184,-263.98C178.28,-266.09 172.46,-268.3 167,-270.5 143.06,-280.14 116.42,-292.12 96.59,-301.3"/>
<polygon fill="midnightblue" stroke="midnightblue" points="185.22,-267.27 193.43,-260.58 182.84,-260.68 185.22,-267.27"/>
</g>
<!-- Node10&#45;&gt;Node8 -->
<g id="edge13" class="edge">
<title>Node10&#45;&gt;Node8</title>
<path fill="none" stroke="midnightblue" d="M180.59,-254.32C161.45,-255.7 138.2,-257.36 117.7,-258.83"/>
<polygon fill="midnightblue" stroke="midnightblue" points="181.04,-257.8 190.77,-253.59 180.54,-250.82 181.04,-257.8"/>
</g>
<!-- Node12 -->
<g id="node12" class="node">
<title>Node12</title>
<g id="a_node12"><a xlink:href="redis__ipc_8c.html#a9da7fba1b0bb29372229c5c3a0fcb432" target="_top" xlink:title=" ">
<polygon fill="white" stroke="black" points="167.5,-205.5 167.5,-223.5 274.5,-223.5 274.5,-205.5 167.5,-205.5"/>
<text text-anchor="middle" x="221" y="-212.3" font-family="Helvetica,sans-Serif" font-size="9.00">redis_ipc_read_setting</text>
</a>
</g>
</g>
<!-- Node11&#45;&gt;Node12 -->
<g id="edge15" class="edge">
<title>Node11&#45;&gt;Node12</title>
<path fill="none" stroke="midnightblue" d="M312.17,-214.5C299.94,-214.5 286.84,-214.5 274.52,-214.5"/>
<polygon fill="midnightblue" stroke="midnightblue" points="312.22,-218 322.22,-214.5 312.22,-211 312.22,-218"/>
</g>
<!-- Node13 -->
<g id="node13" class="node">
<title>Node13</title>
<g id="a_node13"><a xlink:href="redis__ipc_8c.html#af379c19188b781eb8837ff97de173c41" target="_top" xlink:title=" ">
<polygon fill="white" stroke="black" points="168.5,-168.5 168.5,-186.5 273.5,-186.5 273.5,-168.5 168.5,-168.5"/>
<text text-anchor="middle" x="221" y="-175.3" font-family="Helvetica,sans-Serif" font-size="9.00">redis_ipc_read_status</text>
</a>
</g>
</g>
<!-- Node11&#45;&gt;Node13 -->
<g id="edge16" class="edge">
<title>Node11&#45;&gt;Node13</title>
<path fill="none" stroke="midnightblue" d="M318.68,-202.87C298.65,-197.61 275.34,-191.5 256.63,-186.59"/>
<polygon fill="midnightblue" stroke="midnightblue" points="317.95,-206.3 328.51,-205.45 319.72,-199.53 317.95,-206.3"/>
</g>
<!-- Node15 -->
<g id="node15" class="node">
<title>Node15</title>
<g id="a_node15"><a xlink:href="redis__ipc_8c.html#a4d32bc83ac8b8c46384c6c69a3a4e4a3" target="_top" xlink:title=" ">
<polygon fill="white" stroke="black" points="167.5,-121.5 167.5,-149.5 274.5,-149.5 274.5,-121.5 167.5,-121.5"/>
<text text-anchor="start" x="175.5" y="-138.3" font-family="Helvetica,sans-Serif" font-size="9.00">redis_ipc_read_setting</text>
<text text-anchor="middle" x="221" y="-128.3" font-family="Helvetica,sans-Serif" font-size="9.00">_field</text>
</a>
</g>
</g>
<!-- Node14&#45;&gt;Node15 -->
<g id="edge18" class="edge">
<title>Node14&#45;&gt;Node15</title>
<path fill="none" stroke="midnightblue" d="M301.07,-135.5C292.25,-135.5 283.26,-135.5 274.64,-135.5"/>
<polygon fill="midnightblue" stroke="midnightblue" points="301.3,-139 311.3,-135.5 301.3,-132 301.3,-139"/>
</g>
<!-- Node16 -->
<g id="node16" class="node">
<title>Node16</title>
<g id="a_node16"><a xlink:href="redis__ipc_8c.html#ac0d91847e135883a9dc48b57bdf463d7" target="_top" xlink:title=" ">
<polygon fill="white" stroke="black" points="168.5,-74.5 168.5,-102.5 273.5,-102.5 273.5,-74.5 168.5,-74.5"/>
<text text-anchor="start" x="176.5" y="-91.3" font-family="Helvetica,sans-Serif" font-size="9.00">redis_ipc_read_status</text>
<text text-anchor="middle" x="221" y="-81.3" font-family="Helvetica,sans-Serif" font-size="9.00">_field</text>
</a>
</g>
</g>
<!-- Node14&#45;&gt;Node16 -->
<g id="edge19" class="edge">
<title>Node14&#45;&gt;Node16</title>
<path fill="none" stroke="midnightblue" d="M326.29,-123.26C307.23,-116.91 283.87,-109.12 264.09,-102.53"/>
<polygon fill="midnightblue" stroke="midnightblue" points="325.22,-126.6 335.81,-126.44 327.43,-119.96 325.22,-126.6"/>
</g>
<!-- Node18 -->
<g id="node18" class="node">
<title>Node18</title>
<g id="a_node18"><a xlink:href="redis__ipc_8c.html#ac22692af167c24369831321eb5a1aa20" target="_top" xlink:title=" ">
<polygon fill="white" stroke="black" points="172.5,-625.5 172.5,-653.5 269.5,-653.5 269.5,-625.5 172.5,-625.5"/>
<text text-anchor="start" x="180.5" y="-642.3" font-family="Helvetica,sans-Serif" font-size="9.00">redis_ipc_subscribe</text>
<text text-anchor="middle" x="221" y="-632.3" font-family="Helvetica,sans-Serif" font-size="9.00">_debug</text>
</a>
</g>
</g>
<!-- Node17&#45;&gt;Node18 -->
<g id="edge21" class="edge">
<title>Node17&#45;&gt;Node18</title>
<path fill="none" stroke="midnightblue" d="M326.29,-604.74C307.23,-611.09 283.87,-618.88 264.09,-625.47"/>
<polygon fill="midnightblue" stroke="midnightblue" points="327.43,-608.04 335.81,-601.56 325.22,-601.4 327.43,-608.04"/>
</g>
<!-- Node19 -->
<g id="node19" class="node">
<title>Node19</title>
<g id="a_node19"><a xlink:href="redis__ipc_8c.html#a26390ed4efc19636cc62fc3adf9e3278" target="_top" xlink:title=" ">
<polygon fill="white" stroke="black" points="172.5,-578.5 172.5,-606.5 269.5,-606.5 269.5,-578.5 172.5,-578.5"/>
<text text-anchor="start" x="180.5" y="-595.3" font-family="Helvetica,sans-Serif" font-size="9.00">redis_ipc_subscribe</text>
<text text-anchor="middle" x="221" y="-585.3" font-family="Helvetica,sans-Serif" font-size="9.00">_events</text>
</a>
</g>
</g>
<!-- Node17&#45;&gt;Node19 -->
<g id="edge22" class="edge">
<title>Node17&#45;&gt;Node19</title>
<path fill="none" stroke="midnightblue" d="M313.59,-592.5C299.31,-592.5 283.75,-592.5 269.59,-592.5"/>
<polygon fill="midnightblue" stroke="midnightblue" points="313.72,-596 323.72,-592.5 313.72,-589 313.72,-596"/>
</g>
<!-- Node21 -->
<g id="node21" class="node">
<title>Node21</title>
<g id="a_node21"><a xlink:href="redis__ipc_8c.html#a55074bea4936100d8785f7ec9b5e83c9" target="_top" xlink:title=" ">
<polygon fill="white" stroke="black" points="168,-531.5 168,-559.5 274,-559.5 274,-531.5 168,-531.5"/>
<text text-anchor="start" x="176" y="-548.3" font-family="Helvetica,sans-Serif" font-size="9.00">redis_ipc_unsubscribe</text>
<text text-anchor="middle" x="221" y="-538.3" font-family="Helvetica,sans-Serif" font-size="9.00">_debug</text>
</a>
</g>
</g>
<!-- Node20&#45;&gt;Node21 -->
<g id="edge24" class="edge">
<title>Node20&#45;&gt;Node21</title>
<path fill="none" stroke="midnightblue" d="M326.29,-510.74C307.23,-517.09 283.87,-524.88 264.09,-531.47"/>
<polygon fill="midnightblue" stroke="midnightblue" points="327.43,-514.04 335.81,-507.56 325.22,-507.4 327.43,-514.04"/>
</g>
<!-- Node22 -->
<g id="node22" class="node">
<title>Node22</title>
<g id="a_node22"><a xlink:href="redis__ipc_8c.html#a88193bfef2bb1f36fa783c616d430c15" target="_top" xlink:title=" ">
<polygon fill="white" stroke="black" points="168,-484.5 168,-512.5 274,-512.5 274,-484.5 168,-484.5"/>
<text text-anchor="start" x="176" y="-501.3" font-family="Helvetica,sans-Serif" font-size="9.00">redis_ipc_unsubscribe</text>
<text text-anchor="middle" x="221" y="-491.3" font-family="Helvetica,sans-Serif" font-size="9.00">_events</text>
</a>
</g>
</g>
<!-- Node20&#45;&gt;Node22 -->
<g id="edge25" class="edge">
<title>Node20&#45;&gt;Node22</title>
<path fill="none" stroke="midnightblue" d="M308.91,-498.5C297.53,-498.5 285.54,-498.5 274.23,-498.5"/>
<polygon fill="midnightblue" stroke="midnightblue" points="309.16,-502 319.16,-498.5 309.16,-495 309.16,-502"/>
</g>
<!-- Node24 -->
<g id="node24" class="node">
<title>Node24</title>
<g id="a_node24"><a xlink:href="redis__ipc_8c.html#aef76ea4158d5075f2c2c0041ec62d1d5" target="_top" xlink:title=" ">
<polygon fill="white" stroke="black" points="167,-437.5 167,-465.5 275,-465.5 275,-437.5 167,-437.5"/>
<text text-anchor="start" x="175" y="-454.3" font-family="Helvetica,sans-Serif" font-size="9.00">redis_ipc_write_setting</text>
<text text-anchor="middle" x="221" y="-444.3" font-family="Helvetica,sans-Serif" font-size="9.00">_field</text>
</a>
</g>
</g>
<!-- Node23&#45;&gt;Node24 -->
<g id="edge27" class="edge">
<title>Node23&#45;&gt;Node24</title>
<path fill="none" stroke="midnightblue" d="M326.29,-416.74C307.23,-423.09 283.87,-430.88 264.09,-437.47"/>
<polygon fill="midnightblue" stroke="midnightblue" points="327.43,-420.04 335.81,-413.56 325.22,-413.4 327.43,-420.04"/>
</g>
<!-- Node25 -->
<g id="node25" class="node">
<title>Node25</title>
<g id="a_node25"><a xlink:href="redis__ipc_8c.html#a1ccd53107db1e7be09bb4e958975720e" target="_top" xlink:title=" ">
<polygon fill="white" stroke="black" points="168,-390.5 168,-418.5 274,-418.5 274,-390.5 168,-390.5"/>
<text text-anchor="start" x="176" y="-407.3" font-family="Helvetica,sans-Serif" font-size="9.00">redis_ipc_write_status</text>
<text text-anchor="middle" x="221" y="-397.3" font-family="Helvetica,sans-Serif" font-size="9.00">_field</text>
</a>
</g>
</g>
<!-- Node23&#45;&gt;Node25 -->
<g id="edge28" class="edge">
<title>Node23&#45;&gt;Node25</title>
<path fill="none" stroke="midnightblue" d="M300.69,-404.5C291.9,-404.5 282.94,-404.5 274.36,-404.5"/>
<polygon fill="midnightblue" stroke="midnightblue" points="300.9,-408 310.9,-404.5 300.9,-401 300.9,-408"/>
</g>
<!-- Node27 -->
<g id="node27" class="node">
<title>Node27</title>
<g id="a_node27"><a xlink:href="redis__ipc_8c.html#ab4f8e083ca57feea4be05c015b0eac9f" target="_top" xlink:title=" ">
<polygon fill="white" stroke="black" points="322,-37.5 322,-55.5 406,-55.5 406,-37.5 322,-37.5"/>
<text text-anchor="middle" x="364" y="-44.3" font-family="Helvetica,sans-Serif" font-size="9.00">redis_write_hash</text>
</a>
</g>
</g>
<!-- Node26&#45;&gt;Node27 -->
<g id="edge30" class="edge">
<title>Node26&#45;&gt;Node27</title>
<path fill="none" stroke="midnightblue" d="M493.07,-159.27C461.96,-131.88 400.05,-77.36 375.44,-55.69"/>
<polygon fill="midnightblue" stroke="midnightblue" points="491.15,-162.24 500.96,-166.22 495.77,-156.99 491.15,-162.24"/>
</g>
<!-- Node28 -->
<g id="node28" class="node">
<title>Node28</title>
<g id="a_node28"><a xlink:href="redis__ipc_8c.html#a11db23f8f055e2d63fd8308c3d382da4" target="_top" xlink:title=" ">
<polygon fill="white" stroke="black" points="167,-37.5 167,-55.5 275,-55.5 275,-37.5 167,-37.5"/>
<text text-anchor="middle" x="221" y="-44.3" font-family="Helvetica,sans-Serif" font-size="9.00">redis_ipc_write_setting</text>
</a>
</g>
</g>
<!-- Node27&#45;&gt;Node28 -->
<g id="edge31" class="edge">
<title>Node27&#45;&gt;Node28</title>
<path fill="none" stroke="midnightblue" d="M311.62,-46.5C299.71,-46.5 287.02,-46.5 275.04,-46.5"/>
<polygon fill="midnightblue" stroke="midnightblue" points="311.84,-50 321.84,-46.5 311.84,-43 311.84,-50"/>
</g>
<!-- Node29 -->
<g id="node29" class="node">
<title>Node29</title>
<g id="a_node29"><a xlink:href="redis__ipc_8c.html#ab7d4be95434367c1b7dd526ebbab77a1" target="_top" xlink:title=" ">
<polygon fill="white" stroke="black" points="168,-0.5 168,-18.5 274,-18.5 274,-0.5 168,-0.5"/>
<text text-anchor="middle" x="221" y="-7.3" font-family="Helvetica,sans-Serif" font-size="9.00">redis_ipc_write_status</text>
</a>
</g>
</g>
<!-- Node27&#45;&gt;Node29 -->
<g id="edge32" class="edge">
<title>Node27&#45;&gt;Node29</title>
<path fill="none" stroke="midnightblue" d="M318.68,-34.87C298.65,-29.61 275.34,-23.5 256.63,-18.59"/>
<polygon fill="midnightblue" stroke="midnightblue" points="317.95,-38.3 328.51,-37.45 319.72,-31.53 317.95,-38.3"/>
</g>
</g>
</svg>
