<?xml version="1.0" encoding="UTF-8" standalone="no"?>
<!DOCTYPE svg PUBLIC "-//W3C//DTD SVG 1.1//EN"
 "http://www.w3.org/Graphics/SVG/1.1/DTD/svg11.dtd">
<!-- Generated by graphviz version 2.50.0 (20220203.2022)
 -->
<!-- Title: redis_subscribe Pages: 1 -->
<svg width="221pt" height="84pt"
 viewBox="0.00 0.00 221.00 84.00" xmlns="http://www.w3.org/2000/svg" xmlns:xlink="http://www.w3.org/1999/xlink">
<g id="graph0" class="graph" transform="scale(1 1) rotate(0) translate(4 80)">
<title>redis_subscribe</title>
<polygon fill="white" stroke="transparent" points="-4,4 -4,-80 217,-80 217,4 -4,4"/>
<!-- Node1 -->
<g id="node1" class="node">
<title>Node1</title>
<g id="a_node1"><a xlink:title=" ">
<polygon fill="#bfbfbf" stroke="black" points="133,-28.5 133,-46.5 213,-46.5 213,-28.5 133,-28.5"/>
<text text-anchor="middle" x="173" y="-35.3" font-family="Helvetica,sans-Serif" font-size="9.00">redis_subscribe</text>
</a>
</g>
</g>
<!-- Node2 -->
<g id="node2" class="node">
<title>Node2</title>
<g id="a_node2"><a xlink:href="redis__ipc_8c.html#ac22692af167c24369831321eb5a1aa20" target="_top" xlink:title=" ">
<polygon fill="white" stroke="black" points="0,-47.5 0,-75.5 97,-75.5 97,-47.5 0,-47.5"/>
<text text-anchor="start" x="8" y="-64.3" font-family="Helvetica,sans-Serif" font-size="9.00">redis_ipc_subscribe</text>
<text text-anchor="middle" x="48.5" y="-54.3" font-family="Helvetica,sans-Serif" font-size="9.00">_debug</text>
</a>
</g>
</g>
<!-- Node1&#45;&gt;Node2 -->
<g id="edge1" class="edge">
<title>Node1&#45;&gt;Node2</title>
<path fill="none" stroke="midnightblue" d="M122.82,-47.14C114.38,-48.79 105.63,-50.5 97.24,-52.15"/>
<polygon fill="midnightblue" stroke="midnightblue" points="123.76,-50.52 132.9,-45.16 122.42,-43.65 123.76,-50.52"/>
</g>
<!-- Node3 -->
<g id="node3" class="node">
<title>Node3</title>
<g id="a_node3"><a xlink:href="redis__ipc_8c.html#a26390ed4efc19636cc62fc3adf9e3278" target="_top" xlink:title=" ">
<polygon fill="white" stroke="black" points="0,-0.5 0,-28.5 97,-28.5 97,-0.5 0,-0.5"/>
<text text-anchor="start" x="8" y="-17.3" font-family="Helvetica,sans-Serif" font-size="9.00">redis_ipc_subscribe</text>
<text text-anchor="middle" x="48.5" y="-7.3" font-family="Helvetica,sans-Serif" font-size="9.00">_events</text>
</a>
</g>
</g>
<!-- Node1&#45;&gt;Node3 -->
<g id="edge2" class="edge">
<title>Node1&#45;&gt;Node3</title>
<path fill="none" stroke="midnightblue" d="M122.82,-28.27C114.38,-26.68 105.63,-25.04 97.24,-23.46"/>
<polygon fill="midnightblue" stroke="midnightblue" points="122.43,-31.75 132.9,-30.16 123.72,-24.87 122.43,-31.75"/>
</g>
</g>
</svg>
