<?xml version="1.0" encoding="UTF-8" standalone="no"?>
<!DOCTYPE svg PUBLIC "-//W3C//DTD SVG 1.1//EN"
 "http://www.w3.org/Graphics/SVG/1.1/DTD/svg11.dtd">
<!-- Generated by graphviz version 3.0.0 (20220413.0106)
 -->
<!-- Title: redis_ipc_send_debug Pages: 1 -->
<svg width="748pt" height="198pt"
 viewBox="0.00 0.00 748.00 197.77" xmlns="http://www.w3.org/2000/svg" xmlns:xlink="http://www.w3.org/1999/xlink">
<g id="graph0" class="graph" transform="scale(1 1) rotate(0) translate(4 193.77)">
<title>redis_ipc_send_debug</title>
<polygon fill="white" stroke="transparent" points="-4,4 -4,-193.77 744,-193.77 744,4 -4,4"/>
<!-- Node1 -->
<g id="node1" class="node">
<title>Node1</title>
<g id="a_node1"><a xlink:title=" ">
<polygon fill="#bfbfbf" stroke="black" points="0,-75.5 0,-93.5 107,-93.5 107,-75.5 0,-75.5"/>
<text text-anchor="middle" x="53.5" y="-82.3" font-family="Helvetica,sans-Serif" font-size="9.00">redis_ipc_send_debug</text>
</a>
</g>
</g>
<!-- Node2 -->
<g id="node2" class="node">
<title>Node2</title>
<g id="a_node2"><a xlink:href="redis__ipc_8c.html#a134fbfb58bceaeaad9c15dec14104a65" target="_top" xlink:title=" ">
<polygon fill="white" stroke="black" points="145.5,-150.5 145.5,-168.5 239.5,-168.5 239.5,-150.5 145.5,-150.5"/>
<text text-anchor="middle" x="192.5" y="-157.3" font-family="Helvetica,sans-Serif" font-size="9.00">format_debug_msg</text>
</a>
</g>
</g>
<!-- Node1&#45;&gt;Node2 -->
<g id="edge1" class="edge">
<title>Node1&#45;&gt;Node2</title>
<path fill="none" stroke="midnightblue" d="M66.6,-93.5C83.19,-105.57 114.23,-127.11 143,-141.5 146.6,-143.3 150.43,-145.02 154.3,-146.64"/>
<polygon fill="midnightblue" stroke="midnightblue" points="153.28,-150 163.87,-150.42 155.85,-143.49 153.28,-150"/>
</g>
<!-- Node3 -->
<g id="node3" class="node">
<title>Node3</title>
<g id="a_node3"><a xlink:href="redis__ipc_8c.html#a69fe6204f8b392036b5faa4b9392aa8a" target="_top" xlink:title=" ">
<polygon fill="white" stroke="black" points="143,-113.5 143,-131.5 242,-131.5 242,-113.5 143,-113.5"/>
<text text-anchor="middle" x="192.5" y="-120.3" font-family="Helvetica,sans-Serif" font-size="9.00">get_debug_verbosity</text>
</a>
</g>
</g>
<!-- Node1&#45;&gt;Node3 -->
<g id="edge2" class="edge">
<title>Node1&#45;&gt;Node3</title>
<path fill="none" stroke="midnightblue" d="M86.97,-93.51C105.51,-98.65 128.99,-105.16 148.99,-110.71"/>
<polygon fill="midnightblue" stroke="midnightblue" points="148.22,-114.13 158.79,-113.43 150.09,-107.38 148.22,-114.13"/>
</g>
<!-- Node4 -->
<g id="node4" class="node">
<title>Node4</title>
<g id="a_node4"><a xlink:href="redis__ipc_8c.html#a7b930ec420c7b4bf2df1469aca77f93d" target="_top" xlink:title=" ">
<polygon fill="white" stroke="black" points="559.5,-75.5 559.5,-93.5 654.5,-93.5 654.5,-75.5 559.5,-75.5"/>
<text text-anchor="middle" x="607" y="-82.3" font-family="Helvetica,sans-Serif" font-size="9.00">get_per_thread_info</text>
</a>
</g>
</g>
<!-- Node1&#45;&gt;Node4 -->
<g id="edge3" class="edge">
<title>Node1&#45;&gt;Node4</title>
<path fill="none" stroke="midnightblue" d="M107.38,-84.5C211.35,-84.5 441.59,-84.5 548.89,-84.5"/>
<polygon fill="midnightblue" stroke="midnightblue" points="549.19,-88 559.19,-84.5 549.19,-81 549.19,-88"/>
</g>
<!-- Node6 -->
<g id="node6" class="node">
<title>Node6</title>
<g id="a_node6"><a xlink:href="redis__ipc_8c.html#a67c9dd84d2426ab58a759dbdfd223267" target="_top" xlink:title=" ">
<polygon fill="white" stroke="black" points="167,-0.5 167,-18.5 218,-18.5 218,-0.5 167,-0.5"/>
<text text-anchor="middle" x="192.5" y="-7.3" font-family="Helvetica,sans-Serif" font-size="9.00">ipc_path</text>
</a>
</g>
</g>
<!-- Node1&#45;&gt;Node6 -->
<g id="edge5" class="edge">
<title>Node1&#45;&gt;Node6</title>
<path fill="none" stroke="midnightblue" d="M66.6,-75.5C83.19,-63.43 114.23,-41.89 143,-27.5 147.6,-25.2 152.57,-23.03 157.52,-21.04"/>
<polygon fill="midnightblue" stroke="midnightblue" points="158.79,-24.3 166.89,-17.46 156.3,-17.76 158.79,-24.3"/>
</g>
<!-- Node7 -->
<g id="node7" class="node">
<title>Node7</title>
<g id="a_node7"><a xlink:href="redis__ipc_8c.html#ab3dc5609833c201c4e9ebaa5e2e70a2f" target="_top" xlink:title=" ">
<polygon fill="white" stroke="black" points="157.5,-37.5 157.5,-55.5 227.5,-55.5 227.5,-37.5 157.5,-37.5"/>
<text text-anchor="middle" x="192.5" y="-44.3" font-family="Helvetica,sans-Serif" font-size="9.00">redis_publish</text>
</a>
</g>
</g>
<!-- Node1&#45;&gt;Node7 -->
<g id="edge6" class="edge">
<title>Node1&#45;&gt;Node7</title>
<path fill="none" stroke="midnightblue" d="M86.97,-75.49C105.51,-70.35 128.99,-63.84 148.99,-58.29"/>
<polygon fill="midnightblue" stroke="midnightblue" points="150.09,-61.62 158.79,-55.57 148.22,-54.87 150.09,-61.62"/>
</g>
<!-- Node5 -->
<g id="node5" class="node">
<title>Node5</title>
<g id="a_node5"><a xlink:href="redis__ipc_8c.html#af0449193b7cded86e600f052d0aabd39" target="_top" xlink:title=" ">
<polygon fill="white" stroke="black" points="702,-56.5 702,-74.5 740,-74.5 740,-56.5 702,-56.5"/>
<text text-anchor="middle" x="721" y="-63.3" font-family="Helvetica,sans-Serif" font-size="9.00">gettid</text>
</a>
</g>
</g>
<!-- Node4&#45;&gt;Node5 -->
<g id="edge4" class="edge">
<title>Node4&#45;&gt;Node5</title>
<path fill="none" stroke="midnightblue" d="M654.53,-76.61C667.19,-74.46 680.51,-72.2 691.82,-70.28"/>
<polygon fill="midnightblue" stroke="midnightblue" points="692.67,-73.69 701.94,-68.56 691.5,-66.79 692.67,-73.69"/>
</g>
<!-- Node8 -->
<g id="node8" class="node">
<title>Node8</title>
<g id="a_node8"><a xlink:href="redis__ipc_8c.html#a1ca0a131f083c0547523e40cae96936e" target="_top" xlink:title=" ">
<polygon fill="white" stroke="black" points="394,-37.5 394,-55.5 512,-55.5 512,-37.5 394,-37.5"/>
<text text-anchor="middle" x="453" y="-44.3" font-family="Helvetica,sans-Serif" font-size="9.00">json_add_common_fields</text>
</a>
</g>
</g>
<!-- Node7&#45;&gt;Node8 -->
<g id="edge7" class="edge">
<title>Node7&#45;&gt;Node8</title>
<path fill="none" stroke="midnightblue" d="M227.56,-46.5C267.06,-46.5 333.19,-46.5 383.46,-46.5"/>
<polygon fill="midnightblue" stroke="midnightblue" points="383.61,-50 393.61,-46.5 383.61,-43 383.61,-50"/>
</g>
<!-- Node9 -->
<g id="node9" class="node">
<title>Node9</title>
<g id="a_node9"><a xlink:href="redis__ipc_8c.html#afab35d4c40b4b1866fc0239bb885a39b" target="_top" xlink:title=" ">
<polygon fill="white" stroke="black" points="278,-132.5 278,-150.5 358,-150.5 358,-132.5 278,-132.5"/>
<text text-anchor="middle" x="318" y="-139.3" font-family="Helvetica,sans-Serif" font-size="9.00">redis_command</text>
</a>
</g>
</g>
<!-- Node7&#45;&gt;Node9 -->
<g id="edge10" class="edge">
<title>Node7&#45;&gt;Node9</title>
<path fill="none" stroke="midnightblue" d="M205.34,-55.61C226.5,-71.88 270.99,-106.11 296.97,-126.09"/>
<polygon fill="midnightblue" stroke="midnightblue" points="294.95,-128.96 305.01,-132.28 299.22,-123.41 294.95,-128.96"/>
</g>
<!-- Node8&#45;&gt;Node4 -->
<g id="edge8" class="edge">
<title>Node8&#45;&gt;Node4</title>
<path fill="none" stroke="midnightblue" d="M490.02,-55.51C510.96,-60.74 537.55,-67.39 559.99,-73"/>
<polygon fill="midnightblue" stroke="midnightblue" points="559.42,-76.46 569.97,-75.49 561.12,-69.67 559.42,-76.46"/>
</g>
<!-- Node8&#45;&gt;Node5 -->
<g id="edge9" class="edge">
<title>Node8&#45;&gt;Node5</title>
<path fill="none" stroke="midnightblue" d="M512.05,-50.65C567.59,-54.61 649.04,-60.43 691.64,-63.47"/>
<polygon fill="midnightblue" stroke="midnightblue" points="691.62,-66.98 701.84,-64.2 692.12,-60 691.62,-66.98"/>
</g>
<!-- Node9&#45;&gt;Node4 -->
<g id="edge11" class="edge">
<title>Node9&#45;&gt;Node4</title>
<path fill="none" stroke="midnightblue" d="M358,-133.75C407.74,-123.88 494.06,-106.73 550.6,-95.5"/>
<polygon fill="midnightblue" stroke="midnightblue" points="551.32,-98.93 560.45,-93.55 549.96,-92.06 551.32,-98.93"/>
</g>
<!-- Node10 -->
<g id="node10" class="node">
<title>Node10</title>
<g id="a_node10"><a xlink:href="redis__ipc_8c.html#a5e81feac565f9476476c5f042b2a5c9d" target="_top" xlink:title=" ">
<polygon fill="white" stroke="black" points="548,-170.5 548,-188.5 666,-188.5 666,-170.5 548,-170.5"/>
<text text-anchor="middle" x="607" y="-177.3" font-family="Helvetica,sans-Serif" font-size="9.00">stderr_debug_is_enabled</text>
</a>
</g>
</g>
<!-- Node9&#45;&gt;Node10 -->
<g id="edge12" class="edge">
<title>Node9&#45;&gt;Node10</title>
<path fill="none" stroke="midnightblue" d="M332.08,-150.54C346.48,-159.91 370.72,-173.94 394,-179.5 440.96,-190.72 495.46,-190.44 537.44,-187.5"/>
<polygon fill="midnightblue" stroke="midnightblue" points="537.86,-190.98 547.56,-186.72 537.32,-184 537.86,-190.98"/>
</g>
<!-- Node11 -->
<g id="node11" class="node">
<title>Node11</title>
<g id="a_node11"><a xlink:href="redis__ipc_8c.html#a80ea8825dd17a3cff2530680c97d184a" target="_top" xlink:title=" ">
<polygon fill="white" stroke="black" points="404,-151.5 404,-169.5 502,-169.5 502,-151.5 404,-151.5"/>
<text text-anchor="middle" x="453" y="-158.3" font-family="Helvetica,sans-Serif" font-size="9.00">validate_redis_reply</text>
</a>
</g>
</g>
<!-- Node9&#45;&gt;Node11 -->
<g id="edge13" class="edge">
<title>Node9&#45;&gt;Node11</title>
<path fill="none" stroke="midnightblue" d="M358.19,-147.1C369.32,-148.69 381.69,-150.46 393.7,-152.17"/>
<polygon fill="midnightblue" stroke="midnightblue" points="393.27,-155.65 403.67,-153.6 394.26,-148.72 393.27,-155.65"/>
</g>
<!-- Node11&#45;&gt;Node4 -->
<g id="edge14" class="edge">
<title>Node11&#45;&gt;Node4</title>
<path fill="none" stroke="midnightblue" d="M477.69,-151.4C488.3,-147.15 500.91,-141.84 512,-136.5 536.44,-124.73 563.44,-109.55 582.22,-98.64"/>
<polygon fill="midnightblue" stroke="midnightblue" points="584.12,-101.58 590.97,-93.5 580.58,-95.54 584.12,-101.58"/>
</g>
<!-- Node11&#45;&gt;Node10 -->
<g id="edge15" class="edge">
<title>Node11&#45;&gt;Node10</title>
<path fill="none" stroke="midnightblue" d="M502.09,-166.51C513.44,-167.93 525.75,-169.47 537.8,-170.97"/>
<polygon fill="midnightblue" stroke="midnightblue" points="537.47,-174.46 547.83,-172.23 538.34,-167.52 537.47,-174.46"/>
</g>
</g>
</svg>
