<?xml version="1.0" encoding="UTF-8" standalone="no"?>
<!DOCTYPE svg PUBLIC "-//W3C//DTD SVG 1.1//EN"
 "http://www.w3.org/Graphics/SVG/1.1/DTD/svg11.dtd">
<!-- Generated by graphviz version 2.50.0 (20220203.2022)
 -->
<!-- Title: redis_push Pages: 1 -->
<svg width="566pt" height="123pt"
 viewBox="0.00 0.00 566.00 122.77" xmlns="http://www.w3.org/2000/svg" xmlns:xlink="http://www.w3.org/1999/xlink">
<g id="graph0" class="graph" transform="scale(1 1) rotate(0) translate(4 118.77)">
<title>redis_push</title>
<polygon fill="white" stroke="transparent" points="-4,4 -4,-118.77 562,-118.77 562,4 -4,4"/>
<!-- Node1 -->
<g id="node1" class="node">
<title>Node1</title>
<g id="a_node1"><a xlink:title=" ">
<polygon fill="#bfbfbf" stroke="black" points="0,-58.27 0,-76.27 60,-76.27 60,-58.27 0,-58.27"/>
<text text-anchor="middle" x="30" y="-65.07" font-family="Helvetica,sans-Serif" font-size="9.00">redis_push</text>
</a>
</g>
</g>
<!-- Node2 -->
<g id="node2" class="node">
<title>Node2</title>
<g id="a_node2"><a xlink:href="redis__ipc_8c.html#a1ca0a131f083c0547523e40cae96936e" target="_top" xlink:title=" ">
<polygon fill="white" stroke="black" points="212,-96.27 212,-114.27 330,-114.27 330,-96.27 212,-96.27"/>
<text text-anchor="middle" x="271" y="-103.07" font-family="Helvetica,sans-Serif" font-size="9.00">json_add_common_fields</text>
</a>
</g>
</g>
<!-- Node1&#45;&gt;Node2 -->
<g id="edge1" class="edge">
<title>Node1&#45;&gt;Node2</title>
<path fill="none" stroke="midnightblue" d="M60.31,-71.93C95.61,-77.55 156.02,-87.15 202.96,-94.61"/>
<polygon fill="midnightblue" stroke="midnightblue" points="202.63,-98.11 213.06,-96.22 203.73,-91.19 202.63,-98.11"/>
</g>
<!-- Node5 -->
<g id="node5" class="node">
<title>Node5</title>
<g id="a_node5"><a xlink:href="redis__ipc_8c.html#afab35d4c40b4b1866fc0239bb885a39b" target="_top" xlink:title=" ">
<polygon fill="white" stroke="black" points="96,-39.27 96,-57.27 176,-57.27 176,-39.27 96,-39.27"/>
<text text-anchor="middle" x="136" y="-46.07" font-family="Helvetica,sans-Serif" font-size="9.00">redis_command</text>
</a>
</g>
</g>
<!-- Node1&#45;&gt;Node5 -->
<g id="edge5" class="edge">
<title>Node1&#45;&gt;Node5</title>
<path fill="none" stroke="midnightblue" d="M60.25,-61.93C68.28,-60.46 77.21,-58.83 86.03,-57.22"/>
<polygon fill="midnightblue" stroke="midnightblue" points="86.67,-60.66 95.88,-55.42 85.41,-53.78 86.67,-60.66"/>
</g>
<!-- Node3 -->
<g id="node3" class="node">
<title>Node3</title>
<g id="a_node3"><a xlink:href="redis__ipc_8c.html#a7b930ec420c7b4bf2df1469aca77f93d" target="_top" xlink:title=" ">
<polygon fill="white" stroke="black" points="377.5,-58.27 377.5,-76.27 472.5,-76.27 472.5,-58.27 377.5,-58.27"/>
<text text-anchor="middle" x="425" y="-65.07" font-family="Helvetica,sans-Serif" font-size="9.00">get_per_thread_info</text>
</a>
</g>
</g>
<!-- Node2&#45;&gt;Node3 -->
<g id="edge2" class="edge">
<title>Node2&#45;&gt;Node3</title>
<path fill="none" stroke="midnightblue" d="M308.02,-96.27C328.96,-91.03 355.55,-84.39 377.99,-78.78"/>
<polygon fill="midnightblue" stroke="midnightblue" points="379.12,-82.1 387.97,-76.28 377.42,-75.31 379.12,-82.1"/>
</g>
<!-- Node4 -->
<g id="node4" class="node">
<title>Node4</title>
<g id="a_node4"><a xlink:href="redis__ipc_8c.html#af0449193b7cded86e600f052d0aabd39" target="_top" xlink:title=" ">
<polygon fill="white" stroke="black" points="520,-77.27 520,-95.27 558,-95.27 558,-77.27 520,-77.27"/>
<text text-anchor="middle" x="539" y="-84.07" font-family="Helvetica,sans-Serif" font-size="9.00">gettid</text>
</a>
</g>
</g>
<!-- Node2&#45;&gt;Node4 -->
<g id="edge4" class="edge">
<title>Node2&#45;&gt;Node4</title>
<path fill="none" stroke="midnightblue" d="M330.05,-101.13C385.59,-97.16 467.04,-91.34 509.64,-88.3"/>
<polygon fill="midnightblue" stroke="midnightblue" points="510.12,-91.77 519.84,-87.57 509.62,-84.79 510.12,-91.77"/>
</g>
<!-- Node3&#45;&gt;Node4 -->
<g id="edge3" class="edge">
<title>Node3&#45;&gt;Node4</title>
<path fill="none" stroke="midnightblue" d="M472.53,-75.17C485.19,-77.31 498.51,-79.58 509.82,-81.49"/>
<polygon fill="midnightblue" stroke="midnightblue" points="509.5,-84.99 519.94,-83.21 510.67,-78.09 509.5,-84.99"/>
</g>
<!-- Node5&#45;&gt;Node3 -->
<g id="edge6" class="edge">
<title>Node5&#45;&gt;Node3</title>
<path fill="none" stroke="midnightblue" d="M176,-50.86C225.35,-54.12 310.7,-59.77 367.26,-63.52"/>
<polygon fill="midnightblue" stroke="midnightblue" points="367.26,-67.03 377.47,-64.19 367.72,-60.04 367.26,-67.03"/>
</g>
<!-- Node6 -->
<g id="node6" class="node">
<title>Node6</title>
<g id="a_node6"><a xlink:href="redis__ipc_8c.html#a5e81feac565f9476476c5f042b2a5c9d" target="_top" xlink:title=" ">
<polygon fill="white" stroke="black" points="366,-1.27 366,-19.27 484,-19.27 484,-1.27 366,-1.27"/>
<text text-anchor="middle" x="425" y="-8.07" font-family="Helvetica,sans-Serif" font-size="9.00">stderr_debug_is_enabled</text>
</a>
</g>
</g>
<!-- Node5&#45;&gt;Node6 -->
<g id="edge7" class="edge">
<title>Node5&#45;&gt;Node6</title>
<path fill="none" stroke="midnightblue" d="M150.08,-39.23C164.48,-29.87 188.72,-15.84 212,-10.27 258.96,0.94 313.46,0.66 355.44,-2.27"/>
<polygon fill="midnightblue" stroke="midnightblue" points="355.32,-5.77 365.56,-3.05 355.86,1.2 355.32,-5.77"/>
</g>
<!-- Node7 -->
<g id="node7" class="node">
<title>Node7</title>
<g id="a_node7"><a xlink:href="redis__ipc_8c.html#a80ea8825dd17a3cff2530680c97d184a" target="_top" xlink:title=" ">
<polygon fill="white" stroke="black" points="222,-20.27 222,-38.27 320,-38.27 320,-20.27 222,-20.27"/>
<text text-anchor="middle" x="271" y="-27.07" font-family="Helvetica,sans-Serif" font-size="9.00">validate_redis_reply</text>
</a>
</g>
</g>
<!-- Node5&#45;&gt;Node7 -->
<g id="edge8" class="edge">
<title>Node5&#45;&gt;Node7</title>
<path fill="none" stroke="midnightblue" d="M176.19,-42.68C187.32,-41.09 199.69,-39.32 211.7,-37.6"/>
<polygon fill="midnightblue" stroke="midnightblue" points="212.26,-41.06 221.67,-36.18 211.27,-34.13 212.26,-41.06"/>
</g>
<!-- Node7&#45;&gt;Node3 -->
<g id="edge9" class="edge">
<title>Node7&#45;&gt;Node3</title>
<path fill="none" stroke="midnightblue" d="M308.02,-38.28C328.96,-43.51 355.55,-50.16 377.99,-55.77"/>
<polygon fill="midnightblue" stroke="midnightblue" points="377.42,-59.24 387.97,-58.27 379.12,-52.45 377.42,-59.24"/>
</g>
<!-- Node7&#45;&gt;Node6 -->
<g id="edge10" class="edge">
<title>Node7&#45;&gt;Node6</title>
<path fill="none" stroke="midnightblue" d="M320.09,-23.26C331.44,-21.84 343.75,-20.31 355.8,-18.8"/>
<polygon fill="midnightblue" stroke="midnightblue" points="356.34,-22.26 365.83,-17.55 355.47,-15.31 356.34,-22.26"/>
</g>
</g>
</svg>
