<?xml version="1.0" encoding="UTF-8" standalone="no"?>
<!DOCTYPE svg PUBLIC "-//W3C//DTD SVG 1.1//EN"
 "http://www.w3.org/Graphics/SVG/1.1/DTD/svg11.dtd">
<!-- Generated by graphviz version 2.43.0 (0)
 -->
<!-- Title: redis_ipc_write_status Pages: 1 -->
<svg width="805pt" height="101pt"
 viewBox="0.00 0.00 805.00 100.51" xmlns="http://www.w3.org/2000/svg" xmlns:xlink="http://www.w3.org/1999/xlink">
<g id="graph0" class="graph" transform="scale(1 1) rotate(0) translate(4 96.51)">
<title>redis_ipc_write_status</title>
<polygon fill="white" stroke="transparent" points="-4,4 -4,-96.51 801,-96.51 801,4 -4,4"/>
<!-- Node1 -->
<g id="node1" class="node">
<title>Node1</title>
<g id="a_node1"><a xlink:title=" ">
<polygon fill="#bfbfbf" stroke="black" points="0,-57.5 0,-75.5 116,-75.5 116,-57.5 0,-57.5"/>
<text text-anchor="middle" x="58" y="-64.3" font-family="Helvetica,sans-Serif" font-size="9.00">redis_ipc_write_status</text>
</a>
</g>
</g>
<!-- Node2 -->
<g id="node2" class="node">
<title>Node2</title>
<g id="a_node2"><a xlink:href="redis__ipc_8c.html#aa2a3ce97c0b6f3e83572446f3c92e541" target="_top" xlink:title=" ">
<polygon fill="white" stroke="black" points="599,-57.5 599,-75.5 706,-75.5 706,-57.5 599,-57.5"/>
<text text-anchor="middle" x="652.5" y="-64.3" font-family="Helvetica,sans-Serif" font-size="9.00">get_per_thread_info</text>
</a>
</g>
</g>
<!-- Node1&#45;&gt;Node2 -->
<g id="edge1" class="edge">
<title>Node1&#45;&gt;Node2</title>
<path fill="none" stroke="midnightblue" d="M94.51,-75.51C111.74,-79.43 132.82,-83.56 152,-85.5 308.61,-101.33 494.06,-85.19 588.86,-74.44"/>
<polygon fill="midnightblue" stroke="midnightblue" points="589.32,-77.91 598.85,-73.28 588.52,-70.95 589.32,-77.91"/>
</g>
<!-- Node4 -->
<g id="node4" class="node">
<title>Node4</title>
<g id="a_node4"><a xlink:href="redis__ipc_8c.html#a67c9dd84d2426ab58a759dbdfd223267" target="_top" xlink:title=" ">
<polygon fill="white" stroke="black" points="170,-57.5 170,-75.5 226,-75.5 226,-57.5 170,-57.5"/>
<text text-anchor="middle" x="198" y="-64.3" font-family="Helvetica,sans-Serif" font-size="9.00">ipc_path</text>
</a>
</g>
</g>
<!-- Node1&#45;&gt;Node4 -->
<g id="edge3" class="edge">
<title>Node1&#45;&gt;Node4</title>
<path fill="none" stroke="midnightblue" d="M116.33,-66.5C130.93,-66.5 146.26,-66.5 159.58,-66.5"/>
<polygon fill="midnightblue" stroke="midnightblue" points="159.79,-70 169.79,-66.5 159.79,-63 159.79,-70"/>
</g>
<!-- Node5 -->
<g id="node5" class="node">
<title>Node5</title>
<g id="a_node5"><a xlink:href="redis__ipc_8c.html#ab4f8e083ca57feea4be05c015b0eac9f" target="_top" xlink:title=" ">
<polygon fill="white" stroke="black" points="152,-20.5 152,-38.5 244,-38.5 244,-20.5 152,-20.5"/>
<text text-anchor="middle" x="198" y="-27.3" font-family="Helvetica,sans-Serif" font-size="9.00">redis_write_hash</text>
</a>
</g>
</g>
<!-- Node1&#45;&gt;Node5 -->
<g id="edge4" class="edge">
<title>Node1&#45;&gt;Node5</title>
<path fill="none" stroke="midnightblue" d="M92.76,-57.45C110.97,-52.57 133.66,-46.48 153.21,-41.24"/>
<polygon fill="midnightblue" stroke="midnightblue" points="154.36,-44.56 163.11,-38.59 152.55,-37.8 154.36,-44.56"/>
</g>
<!-- Node3 -->
<g id="node3" class="node">
<title>Node3</title>
<g id="a_node3"><a xlink:href="redis__ipc_8c.html#af0449193b7cded86e600f052d0aabd39" target="_top" xlink:title=" ">
<polygon fill="white" stroke="black" points="753,-57.5 753,-75.5 797,-75.5 797,-57.5 753,-57.5"/>
<text text-anchor="middle" x="775" y="-64.3" font-family="Helvetica,sans-Serif" font-size="9.00">gettid</text>
</a>
</g>
</g>
<!-- Node2&#45;&gt;Node3 -->
<g id="edge2" class="edge">
<title>Node2&#45;&gt;Node3</title>
<path fill="none" stroke="midnightblue" d="M706,-66.5C718.5,-66.5 731.45,-66.5 742.65,-66.5"/>
<polygon fill="midnightblue" stroke="midnightblue" points="742.78,-70 752.78,-66.5 742.78,-63 742.78,-70"/>
</g>
<!-- Node6 -->
<g id="node6" class="node">
<title>Node6</title>
<g id="a_node6"><a xlink:href="redis__ipc_8c.html#a1d8ea9a795de6bcac8f989d7770028c3" target="_top" xlink:title=" ">
<polygon fill="white" stroke="black" points="302.5,-56.5 302.5,-74.5 388.5,-74.5 388.5,-56.5 302.5,-56.5"/>
<text text-anchor="middle" x="345.5" y="-63.3" font-family="Helvetica,sans-Serif" font-size="9.00">get_field_count</text>
</a>
</g>
</g>
<!-- Node5&#45;&gt;Node6 -->
<g id="edge5" class="edge">
<title>Node5&#45;&gt;Node6</title>
<path fill="none" stroke="midnightblue" d="M235.72,-38.58C254.66,-43.27 277.96,-49.04 298.13,-54.03"/>
<polygon fill="midnightblue" stroke="midnightblue" points="297.5,-57.48 308.05,-56.48 299.18,-50.68 297.5,-57.48"/>
</g>
<!-- Node7 -->
<g id="node7" class="node">
<title>Node7</title>
<g id="a_node7"><a xlink:href="redis__ipc_8c.html#a73fec3f4f77b193da7b8231788ee84f2" target="_top" xlink:title=" ">
<polygon fill="white" stroke="black" points="280,-19.5 280,-37.5 411,-37.5 411,-19.5 280,-19.5"/>
<text text-anchor="middle" x="345.5" y="-26.3" font-family="Helvetica,sans-Serif" font-size="9.00">redis_command_from_list</text>
</a>
</g>
</g>
<!-- Node5&#45;&gt;Node7 -->
<g id="edge6" class="edge">
<title>Node5&#45;&gt;Node7</title>
<path fill="none" stroke="midnightblue" d="M244.24,-29.19C252.33,-29.13 260.96,-29.07 269.63,-29.01"/>
<polygon fill="midnightblue" stroke="midnightblue" points="269.82,-32.51 279.79,-28.94 269.77,-25.51 269.82,-32.51"/>
</g>
<!-- Node7&#45;&gt;Node2 -->
<g id="edge7" class="edge">
<title>Node7&#45;&gt;Node2</title>
<path fill="none" stroke="midnightblue" d="M392.41,-37.52C409.5,-40.66 429.09,-44.02 447,-46.5 494.4,-53.05 548.27,-58.23 588.82,-61.67"/>
<polygon fill="midnightblue" stroke="midnightblue" points="588.57,-65.16 598.83,-62.51 589.15,-58.19 588.57,-65.16"/>
</g>
<!-- Node8 -->
<g id="node8" class="node">
<title>Node8</title>
<g id="a_node8"><a xlink:href="redis__ipc_8c.html#a5e81feac565f9476476c5f042b2a5c9d" target="_top" xlink:title=" ">
<polygon fill="white" stroke="black" points="588,-0.5 588,-18.5 717,-18.5 717,-0.5 588,-0.5"/>
<text text-anchor="middle" x="652.5" y="-7.3" font-family="Helvetica,sans-Serif" font-size="9.00">stderr_debug_is_enabled</text>
</a>
</g>
</g>
<!-- Node7&#45;&gt;Node8 -->
<g id="edge8" class="edge">
<title>Node7&#45;&gt;Node8</title>
<path fill="none" stroke="midnightblue" d="M384.92,-19.49C403.55,-15.57 426.31,-11.44 447,-9.5 490.16,-5.46 538.66,-5.27 577.6,-6.18"/>
<polygon fill="midnightblue" stroke="midnightblue" points="577.71,-9.68 587.8,-6.45 577.89,-2.69 577.71,-9.68"/>
</g>
<!-- Node9 -->
<g id="node9" class="node">
<title>Node9</title>
<g id="a_node9"><a xlink:href="redis__ipc_8c.html#ae88037651d88f63c62d32afd7e0fccf2" target="_top" xlink:title=" ">
<polygon fill="white" stroke="black" points="447,-19.5 447,-37.5 552,-37.5 552,-19.5 447,-19.5"/>
<text text-anchor="middle" x="499.5" y="-26.3" font-family="Helvetica,sans-Serif" font-size="9.00">validate_redis_reply</text>
</a>
</g>
</g>
<!-- Node7&#45;&gt;Node9 -->
<g id="edge9" class="edge">
<title>Node7&#45;&gt;Node9</title>
<path fill="none" stroke="midnightblue" d="M411.4,-28.5C419.78,-28.5 428.34,-28.5 436.66,-28.5"/>
<polygon fill="midnightblue" stroke="midnightblue" points="436.67,-32 446.67,-28.5 436.67,-25 436.67,-32"/>
</g>
<!-- Node9&#45;&gt;Node2 -->
<g id="edge10" class="edge">
<title>Node9&#45;&gt;Node2</title>
<path fill="none" stroke="midnightblue" d="M536.28,-37.51C557.08,-42.74 583.5,-49.39 605.79,-55"/>
<polygon fill="midnightblue" stroke="midnightblue" points="605.16,-58.45 615.71,-57.49 606.87,-51.66 605.16,-58.45"/>
</g>
<!-- Node9&#45;&gt;Node8 -->
<g id="edge11" class="edge">
<title>Node9&#45;&gt;Node8</title>
<path fill="none" stroke="midnightblue" d="M552.04,-22.01C560.33,-20.97 569.05,-19.87 577.74,-18.78"/>
<polygon fill="midnightblue" stroke="midnightblue" points="578.42,-22.22 587.9,-17.5 577.54,-15.28 578.42,-22.22"/>
</g>
</g>
</svg>
