<?xml version="1.0" encoding="UTF-8" standalone="no"?>
<!DOCTYPE svg PUBLIC "-//W3C//DTD SVG 1.1//EN"
 "http://www.w3.org/Graphics/SVG/1.1/DTD/svg11.dtd">
<!-- Generated by graphviz version 2.47.1 (20210417.1919)
 -->
<!-- Title: redis_write_hash_field Pages: 1 -->
<svg width="635pt" height="64pt"
 viewBox="0.00 0.00 635.00 64.00" xmlns="http://www.w3.org/2000/svg" xmlns:xlink="http://www.w3.org/1999/xlink">
<g id="graph0" class="graph" transform="scale(1 1) rotate(0) translate(4 60)">
<title>redis_write_hash_field</title>
<polygon fill="white" stroke="transparent" points="-4,4 -4,-60 631,-60 631,4 -4,4"/>
<!-- Node1 -->
<g id="node1" class="node">
<title>Node1</title>
<g id="a_node1"><a xlink:title=" ">
<polygon fill="#bfbfbf" stroke="black" points="0,-19.5 0,-37.5 116,-37.5 116,-19.5 0,-19.5"/>
<text text-anchor="middle" x="58" y="-26.3" font-family="Helvetica,sans-Serif" font-size="9.00">redis_write_hash_field</text>
</a>
</g>
</g>
<!-- Node2 -->
<g id="node2" class="node">
<title>Node2</title>
<g id="a_node2"><a xlink:href="redis__ipc_8c.html#aefb4508c1883e7d4345b206076b19e5d" target="_top" xlink:title=" ">
<polygon fill="white" stroke="black" points="152,-19.5 152,-37.5 241,-37.5 241,-19.5 152,-19.5"/>
<text text-anchor="middle" x="196.5" y="-26.3" font-family="Helvetica,sans-Serif" font-size="9.00">redis_command</text>
</a>
</g>
</g>
<!-- Node1&#45;&gt;Node2 -->
<g id="edge1" class="edge">
<title>Node1&#45;&gt;Node2</title>
<path fill="none" stroke="midnightblue" d="M116.1,-28.5C124.62,-28.5 133.37,-28.5 141.82,-28.5"/>
<polygon fill="midnightblue" stroke="midnightblue" points="141.92,-32 151.92,-28.5 141.92,-25 141.92,-32"/>
</g>
<!-- Node3 -->
<g id="node3" class="node">
<title>Node3</title>
<g id="a_node3"><a xlink:href="redis__ipc_8c.html#aa2a3ce97c0b6f3e83572446f3c92e541" target="_top" xlink:title=" ">
<polygon fill="white" stroke="black" points="429,-37.5 429,-55.5 536,-55.5 536,-37.5 429,-37.5"/>
<text text-anchor="middle" x="482.5" y="-44.3" font-family="Helvetica,sans-Serif" font-size="9.00">get_per_thread_info</text>
</a>
</g>
</g>
<!-- Node2&#45;&gt;Node3 -->
<g id="edge2" class="edge">
<title>Node2&#45;&gt;Node3</title>
<path fill="none" stroke="midnightblue" d="M227.78,-37.5C242.49,-41.42 260.51,-45.56 277,-47.5 324.3,-53.07 378.17,-52.53 418.75,-50.75"/>
<polygon fill="midnightblue" stroke="midnightblue" points="418.94,-54.25 428.76,-50.28 418.61,-47.26 418.94,-54.25"/>
</g>
<!-- Node5 -->
<g id="node5" class="node">
<title>Node5</title>
<g id="a_node5"><a xlink:href="redis__ipc_8c.html#a5e81feac565f9476476c5f042b2a5c9d" target="_top" xlink:title=" ">
<polygon fill="white" stroke="black" points="418,-0.5 418,-18.5 547,-18.5 547,-0.5 418,-0.5"/>
<text text-anchor="middle" x="482.5" y="-7.3" font-family="Helvetica,sans-Serif" font-size="9.00">stderr_debug_is_enabled</text>
</a>
</g>
</g>
<!-- Node2&#45;&gt;Node5 -->
<g id="edge4" class="edge">
<title>Node2&#45;&gt;Node5</title>
<path fill="none" stroke="midnightblue" d="M227.78,-19.5C242.49,-15.58 260.51,-11.44 277,-9.5 320.05,-4.43 368.55,-4.19 407.51,-5.34"/>
<polygon fill="midnightblue" stroke="midnightblue" points="407.61,-8.84 417.72,-5.67 407.84,-1.84 407.61,-8.84"/>
</g>
<!-- Node6 -->
<g id="node6" class="node">
<title>Node6</title>
<g id="a_node6"><a xlink:href="redis__ipc_8c.html#ae88037651d88f63c62d32afd7e0fccf2" target="_top" xlink:title=" ">
<polygon fill="white" stroke="black" points="277,-19.5 277,-37.5 382,-37.5 382,-19.5 277,-19.5"/>
<text text-anchor="middle" x="329.5" y="-26.3" font-family="Helvetica,sans-Serif" font-size="9.00">validate_redis_reply</text>
</a>
</g>
</g>
<!-- Node2&#45;&gt;Node6 -->
<g id="edge5" class="edge">
<title>Node2&#45;&gt;Node6</title>
<path fill="none" stroke="midnightblue" d="M241.12,-28.5C249.36,-28.5 258.12,-28.5 266.79,-28.5"/>
<polygon fill="midnightblue" stroke="midnightblue" points="266.89,-32 276.89,-28.5 266.89,-25 266.89,-32"/>
</g>
<!-- Node4 -->
<g id="node4" class="node">
<title>Node4</title>
<g id="a_node4"><a xlink:href="redis__ipc_8c.html#af0449193b7cded86e600f052d0aabd39" target="_top" xlink:title=" ">
<polygon fill="white" stroke="black" points="583,-37.5 583,-55.5 627,-55.5 627,-37.5 583,-37.5"/>
<text text-anchor="middle" x="605" y="-44.3" font-family="Helvetica,sans-Serif" font-size="9.00">gettid</text>
</a>
</g>
</g>
<!-- Node3&#45;&gt;Node4 -->
<g id="edge3" class="edge">
<title>Node3&#45;&gt;Node4</title>
<path fill="none" stroke="midnightblue" d="M536,-46.5C548.5,-46.5 561.45,-46.5 572.65,-46.5"/>
<polygon fill="midnightblue" stroke="midnightblue" points="572.78,-50 582.78,-46.5 572.78,-43 572.78,-50"/>
</g>
<!-- Node6&#45;&gt;Node3 -->
<g id="edge6" class="edge">
<title>Node6&#45;&gt;Node3</title>
<path fill="none" stroke="midnightblue" d="M382.04,-34.64C393.86,-36.05 406.54,-37.56 418.77,-39.02"/>
<polygon fill="midnightblue" stroke="midnightblue" points="418.56,-42.52 428.91,-40.23 419.39,-35.57 418.56,-42.52"/>
</g>
<!-- Node6&#45;&gt;Node5 -->
<g id="edge7" class="edge">
<title>Node6&#45;&gt;Node5</title>
<path fill="none" stroke="midnightblue" d="M382.04,-22.01C390.33,-20.97 399.05,-19.87 407.74,-18.78"/>
<polygon fill="midnightblue" stroke="midnightblue" points="408.42,-22.22 417.9,-17.5 407.54,-15.28 408.42,-22.22"/>
</g>
</g>
</svg>
