<?xml version="1.0" encoding="UTF-8" standalone="no"?>
<!DOCTYPE svg PUBLIC "-//W3C//DTD SVG 1.1//EN"
 "http://www.w3.org/Graphics/SVG/1.1/DTD/svg11.dtd">
<!-- Generated by graphviz version 2.50.0 (20220203.2022)
 -->
<!-- Title: src/redis_ipc.c Pages: 1 -->
<svg width="695pt" height="137pt"
 viewBox="0.00 0.00 695.48 137.00" xmlns="http://www.w3.org/2000/svg" xmlns:xlink="http://www.w3.org/1999/xlink">
<g id="graph0" class="graph" transform="scale(1 1) rotate(0) translate(4 133)">
<title>src/redis_ipc.c</title>
<polygon fill="white" stroke="transparent" points="-4,4 -4,-133 691.48,-133 691.48,4 -4,4"/>
<!-- Node1 -->
<g id="node1" class="node">
<title>Node1</title>
<g id="a_node1"><a xlink:title=" ">
<polygon fill="#bfbfbf" stroke="black" points="292.5,-110.5 292.5,-128.5 366.5,-128.5 366.5,-110.5 292.5,-110.5"/>
<text text-anchor="middle" x="329.5" y="-117.3" font-family="Helvetica,sans-Serif" font-size="9.00">src/redis_ipc.c</text>
</a>
</g>
</g>
<!-- Node2 -->
<g id="node2" class="node">
<title>Node2</title>
<g id="a_node2"><a xlink:title=" ">
<polygon fill="white" stroke="#bfbfbf" points="0,-55.5 0,-73.5 47,-73.5 47,-55.5 0,-55.5"/>
<text text-anchor="middle" x="23.5" y="-62.3" font-family="Helvetica,sans-Serif" font-size="9.00">unistd.h</text>
</a>
</g>
</g>
<!-- Node1&#45;&gt;Node2 -->
<g id="edge1" class="edge">
<title>Node1&#45;&gt;Node2</title>
<path fill="none" stroke="midnightblue" d="M292.21,-113.51C241.32,-106.47 147.08,-92.58 57.05,-73.94"/>
<polygon fill="midnightblue" stroke="midnightblue" points="57.74,-70.51 47.23,-71.89 56.3,-77.36 57.74,-70.51"/>
</g>
<!-- Node3 -->
<g id="node3" class="node">
<title>Node3</title>
<g id="a_node3"><a xlink:title=" ">
<polygon fill="white" stroke="#bfbfbf" points="65.5,-55.5 65.5,-73.5 107.5,-73.5 107.5,-55.5 65.5,-55.5"/>
<text text-anchor="middle" x="86.5" y="-62.3" font-family="Helvetica,sans-Serif" font-size="9.00">stdio.h</text>
</a>
</g>
</g>
<!-- Node1&#45;&gt;Node3 -->
<g id="edge2" class="edge">
<title>Node1&#45;&gt;Node3</title>
<path fill="none" stroke="midnightblue" d="M292.38,-111.56C251.74,-103.79 184.45,-90.39 117.61,-74.14"/>
<polygon fill="midnightblue" stroke="midnightblue" points="118.3,-70.71 107.76,-71.72 116.63,-77.5 118.3,-70.71"/>
</g>
<!-- Node4 -->
<g id="node4" class="node">
<title>Node4</title>
<g id="a_node4"><a xlink:title=" ">
<polygon fill="white" stroke="#bfbfbf" points="126,-55.5 126,-73.5 171,-73.5 171,-55.5 126,-55.5"/>
<text text-anchor="middle" x="148.5" y="-62.3" font-family="Helvetica,sans-Serif" font-size="9.00">stdlib.h</text>
</a>
</g>
</g>
<!-- Node1&#45;&gt;Node4 -->
<g id="edge3" class="edge">
<title>Node1&#45;&gt;Node4</title>
<path fill="none" stroke="midnightblue" d="M302.01,-110.45C269.43,-100.91 215.21,-85.03 180.69,-74.93"/>
<polygon fill="midnightblue" stroke="midnightblue" points="181.67,-71.57 171.09,-72.11 179.7,-78.28 181.67,-71.57"/>
</g>
<!-- Node5 -->
<g id="node5" class="node">
<title>Node5</title>
<g id="a_node5"><a xlink:title=" ">
<polygon fill="white" stroke="#bfbfbf" points="189,-55.5 189,-73.5 238,-73.5 238,-55.5 189,-55.5"/>
<text text-anchor="middle" x="213.5" y="-62.3" font-family="Helvetica,sans-Serif" font-size="9.00">stdarg.h</text>
</a>
</g>
</g>
<!-- Node1&#45;&gt;Node5 -->
<g id="edge4" class="edge">
<title>Node1&#45;&gt;Node5</title>
<path fill="none" stroke="midnightblue" d="M311.88,-110.45C292.89,-101.77 262.43,-87.86 240.43,-77.8"/>
<polygon fill="midnightblue" stroke="midnightblue" points="241.83,-74.6 231.28,-73.63 238.92,-80.96 241.83,-74.6"/>
</g>
<!-- Node6 -->
<g id="node6" class="node">
<title>Node6</title>
<g id="a_node6"><a xlink:title=" ">
<polygon fill="white" stroke="#bfbfbf" points="256,-55.5 256,-73.5 301,-73.5 301,-55.5 256,-55.5"/>
<text text-anchor="middle" x="278.5" y="-62.3" font-family="Helvetica,sans-Serif" font-size="9.00">string.h</text>
</a>
</g>
</g>
<!-- Node1&#45;&gt;Node6 -->
<g id="edge5" class="edge">
<title>Node1&#45;&gt;Node6</title>
<path fill="none" stroke="midnightblue" d="M321.53,-110.22C314,-102.39 302.52,-90.46 293.31,-80.89"/>
<polygon fill="midnightblue" stroke="midnightblue" points="295.7,-78.33 286.25,-73.55 290.66,-83.18 295.7,-78.33"/>
</g>
<!-- Node7 -->
<g id="node7" class="node">
<title>Node7</title>
<g id="a_node7"><a xlink:title=" ">
<polygon fill="white" stroke="#bfbfbf" points="442.5,-0.5 442.5,-18.5 502.5,-18.5 502.5,-0.5 442.5,-0.5"/>
<text text-anchor="middle" x="472.5" y="-7.3" font-family="Helvetica,sans-Serif" font-size="9.00">sys/types.h</text>
</a>
</g>
</g>
<!-- Node1&#45;&gt;Node7 -->
<g id="edge6" class="edge">
<title>Node1&#45;&gt;Node7</title>
<path fill="none" stroke="midnightblue" d="M329.68,-110.34C330.42,-97.02 333.78,-70.54 348.5,-55 370.4,-31.89 405.15,-20.75 432.3,-15.4"/>
<polygon fill="midnightblue" stroke="midnightblue" points="433.06,-18.82 442.29,-13.62 431.83,-11.93 433.06,-18.82"/>
</g>
<!-- Node8 -->
<g id="node8" class="node">
<title>Node8</title>
<g id="a_node8"><a xlink:title=" ">
<polygon fill="white" stroke="#bfbfbf" points="358,-55.5 358,-73.5 425,-73.5 425,-55.5 358,-55.5"/>
<text text-anchor="middle" x="391.5" y="-62.3" font-family="Helvetica,sans-Serif" font-size="9.00">sys/syscall.h</text>
</a>
</g>
</g>
<!-- Node1&#45;&gt;Node8 -->
<g id="edge7" class="edge">
<title>Node1&#45;&gt;Node8</title>
<path fill="none" stroke="midnightblue" d="M338.92,-110.45C348.29,-102.43 362.9,-89.95 374.34,-80.17"/>
<polygon fill="midnightblue" stroke="midnightblue" points="376.67,-82.78 381.99,-73.63 372.12,-77.46 376.67,-82.78"/>
</g>
<!-- Node9 -->
<g id="node9" class="node">
<title>Node9</title>
<g id="a_node9"><a xlink:title=" ">
<polygon fill="white" stroke="#bfbfbf" points="443.5,-55.5 443.5,-73.5 499.5,-73.5 499.5,-55.5 443.5,-55.5"/>
<text text-anchor="middle" x="471.5" y="-62.3" font-family="Helvetica,sans-Serif" font-size="9.00">sys/time.h</text>
</a>
</g>
</g>
<!-- Node1&#45;&gt;Node9 -->
<g id="edge8" class="edge">
<title>Node1&#45;&gt;Node9</title>
<path fill="none" stroke="midnightblue" d="M351.07,-110.45C374.84,-101.58 413.28,-87.23 440.33,-77.13"/>
<polygon fill="midnightblue" stroke="midnightblue" points="441.59,-80.4 449.73,-73.63 439.14,-73.84 441.59,-80.4"/>
</g>
<!-- Node10 -->
<g id="node10" class="node">
<title>Node10</title>
<g id="a_node10"><a xlink:title=" ">
<polygon fill="white" stroke="#bfbfbf" points="589,-0.5 589,-18.5 654,-18.5 654,-0.5 589,-0.5"/>
<text text-anchor="middle" x="621.5" y="-7.3" font-family="Helvetica,sans-Serif" font-size="9.00">json&#45;c/json.h</text>
</a>
</g>
</g>
<!-- Node1&#45;&gt;Node10 -->
<g id="edge9" class="edge">
<title>Node1&#45;&gt;Node10</title>
<path fill="none" stroke="midnightblue" d="M366.6,-116.55C452.98,-111.65 661.82,-97.45 682.5,-74 698.5,-55.86 671.43,-35.89 648.41,-23.28"/>
<polygon fill="midnightblue" stroke="midnightblue" points="649.73,-20.02 639.25,-18.51 646.5,-26.23 649.73,-20.02"/>
</g>
<!-- Node11 -->
<g id="node11" class="node">
<title>Node11</title>
<g id="a_node11"><a xlink:title=" ">
<polygon fill="white" stroke="#bfbfbf" points="595.5,-55.5 595.5,-73.5 673.5,-73.5 673.5,-55.5 595.5,-55.5"/>
<text text-anchor="middle" x="634.5" y="-62.3" font-family="Helvetica,sans-Serif" font-size="9.00">hiredis/hiredis.h</text>
</a>
</g>
</g>
<!-- Node1&#45;&gt;Node11 -->
<g id="edge10" class="edge">
<title>Node1&#45;&gt;Node11</title>
<path fill="none" stroke="midnightblue" d="M366.53,-112.13C414.58,-103.86 501.29,-88.9 585.48,-74.17"/>
<polygon fill="midnightblue" stroke="midnightblue" points="586.22,-77.6 595.47,-72.42 585.02,-70.7 586.22,-77.6"/>
</g>
<!-- Node12 -->
<g id="node12" class="node">
<title>Node12</title>
<g id="a_node12"><a xlink:href="redis__ipc_8h.html" target="_top" xlink:title=" ">
<polygon fill="white" stroke="black" points="517.5,-55.5 517.5,-73.5 577.5,-73.5 577.5,-55.5 517.5,-55.5"/>
<text text-anchor="middle" x="547.5" y="-62.3" font-family="Helvetica,sans-Serif" font-size="9.00">redis_ipc.h</text>
</a>
</g>
</g>
<!-- Node1&#45;&gt;Node12 -->
<g id="edge11" class="edge">
<title>Node1&#45;&gt;Node12</title>
<path fill="none" stroke="midnightblue" d="M362.61,-110.45C401.45,-101.01 465.82,-85.36 507.44,-75.24"/>
<polygon fill="midnightblue" stroke="midnightblue" points="508.36,-78.62 517.25,-72.86 506.7,-71.82 508.36,-78.62"/>
</g>
<!-- Node12&#45;&gt;Node7 -->
<g id="edge12" class="edge">
<title>Node12&#45;&gt;Node7</title>
<path fill="none" stroke="midnightblue" d="M536.11,-55.45C524.55,-47.28 506.41,-34.46 492.45,-24.6"/>
<polygon fill="midnightblue" stroke="midnightblue" points="494.18,-21.54 484,-18.63 490.14,-27.25 494.18,-21.54"/>
</g>
<!-- Node12&#45;&gt;Node10 -->
<g id="edge13" class="edge">
<title>Node12&#45;&gt;Node10</title>
<path fill="none" stroke="midnightblue" d="M558.74,-55.45C570.15,-47.28 588.05,-34.46 601.81,-24.6"/>
<polygon fill="midnightblue" stroke="midnightblue" points="604.06,-27.29 610.16,-18.63 599.99,-21.6 604.06,-27.29"/>
</g>
</g>
</svg>
