<?xml version="1.0" encoding="UTF-8" standalone="no"?>
<!DOCTYPE svg PUBLIC "-//W3C//DTD SVG 1.1//EN"
 "http://www.w3.org/Graphics/SVG/1.1/DTD/svg11.dtd">
<!-- Generated by graphviz version 2.47.1 (20210417.1919)
 -->
<!-- Title: redis_subscribe Pages: 1 -->
<svg width="605pt" height="64pt"
 viewBox="0.00 0.00 605.00 64.00" xmlns="http://www.w3.org/2000/svg" xmlns:xlink="http://www.w3.org/1999/xlink">
<g id="graph0" class="graph" transform="scale(1 1) rotate(0) translate(4 60)">
<title>redis_subscribe</title>
<polygon fill="white" stroke="transparent" points="-4,4 -4,-60 601,-60 601,4 -4,4"/>
<!-- Node1 -->
<g id="node1" class="node">
<title>Node1</title>
<g id="a_node1"><a xlink:title=" ">
<polygon fill="#bfbfbf" stroke="black" points="0,-19.5 0,-37.5 86,-37.5 86,-19.5 0,-19.5"/>
<text text-anchor="middle" x="43" y="-26.3" font-family="Helvetica,sans-Serif" font-size="9.00">redis_subscribe</text>
</a>
</g>
</g>
<!-- Node2 -->
<g id="node2" class="node">
<title>Node2</title>
<g id="a_node2"><a xlink:href="redis__ipc_8c.html#aefb4508c1883e7d4345b206076b19e5d" target="_top" xlink:title=" ">
<polygon fill="white" stroke="black" points="122,-19.5 122,-37.5 211,-37.5 211,-19.5 122,-19.5"/>
<text text-anchor="middle" x="166.5" y="-26.3" font-family="Helvetica,sans-Serif" font-size="9.00">redis_command</text>
</a>
</g>
</g>
<!-- Node1&#45;&gt;Node2 -->
<g id="edge1" class="edge">
<title>Node1&#45;&gt;Node2</title>
<path fill="none" stroke="midnightblue" d="M86.15,-28.5C94.34,-28.5 103.02,-28.5 111.53,-28.5"/>
<polygon fill="midnightblue" stroke="midnightblue" points="111.77,-32 121.77,-28.5 111.77,-25 111.77,-32"/>
</g>
<!-- Node3 -->
<g id="node3" class="node">
<title>Node3</title>
<g id="a_node3"><a xlink:href="redis__ipc_8c.html#aa2a3ce97c0b6f3e83572446f3c92e541" target="_top" xlink:title=" ">
<polygon fill="white" stroke="black" points="399,-37.5 399,-55.5 506,-55.5 506,-37.5 399,-37.5"/>
<text text-anchor="middle" x="452.5" y="-44.3" font-family="Helvetica,sans-Serif" font-size="9.00">get_per_thread_info</text>
</a>
</g>
</g>
<!-- Node2&#45;&gt;Node3 -->
<g id="edge2" class="edge">
<title>Node2&#45;&gt;Node3</title>
<path fill="none" stroke="midnightblue" d="M197.78,-37.5C212.49,-41.42 230.51,-45.56 247,-47.5 294.3,-53.07 348.17,-52.53 388.75,-50.75"/>
<polygon fill="midnightblue" stroke="midnightblue" points="388.94,-54.25 398.76,-50.28 388.61,-47.26 388.94,-54.25"/>
</g>
<!-- Node5 -->
<g id="node5" class="node">
<title>Node5</title>
<g id="a_node5"><a xlink:href="redis__ipc_8c.html#a5e81feac565f9476476c5f042b2a5c9d" target="_top" xlink:title=" ">
<polygon fill="white" stroke="black" points="388,-0.5 388,-18.5 517,-18.5 517,-0.5 388,-0.5"/>
<text text-anchor="middle" x="452.5" y="-7.3" font-family="Helvetica,sans-Serif" font-size="9.00">stderr_debug_is_enabled</text>
</a>
</g>
</g>
<!-- Node2&#45;&gt;Node5 -->
<g id="edge4" class="edge">
<title>Node2&#45;&gt;Node5</title>
<path fill="none" stroke="midnightblue" d="M197.78,-19.5C212.49,-15.58 230.51,-11.44 247,-9.5 290.05,-4.43 338.55,-4.19 377.51,-5.34"/>
<polygon fill="midnightblue" stroke="midnightblue" points="377.61,-8.84 387.72,-5.67 377.84,-1.84 377.61,-8.84"/>
</g>
<!-- Node6 -->
<g id="node6" class="node">
<title>Node6</title>
<g id="a_node6"><a xlink:href="redis__ipc_8c.html#ae88037651d88f63c62d32afd7e0fccf2" target="_top" xlink:title=" ">
<polygon fill="white" stroke="black" points="247,-19.5 247,-37.5 352,-37.5 352,-19.5 247,-19.5"/>
<text text-anchor="middle" x="299.5" y="-26.3" font-family="Helvetica,sans-Serif" font-size="9.00">validate_redis_reply</text>
</a>
</g>
</g>
<!-- Node2&#45;&gt;Node6 -->
<g id="edge5" class="edge">
<title>Node2&#45;&gt;Node6</title>
<path fill="none" stroke="midnightblue" d="M211.12,-28.5C219.36,-28.5 228.12,-28.5 236.79,-28.5"/>
<polygon fill="midnightblue" stroke="midnightblue" points="236.89,-32 246.89,-28.5 236.89,-25 236.89,-32"/>
</g>
<!-- Node4 -->
<g id="node4" class="node">
<title>Node4</title>
<g id="a_node4"><a xlink:href="redis__ipc_8c.html#af0449193b7cded86e600f052d0aabd39" target="_top" xlink:title=" ">
<polygon fill="white" stroke="black" points="553,-37.5 553,-55.5 597,-55.5 597,-37.5 553,-37.5"/>
<text text-anchor="middle" x="575" y="-44.3" font-family="Helvetica,sans-Serif" font-size="9.00">gettid</text>
</a>
</g>
</g>
<!-- Node3&#45;&gt;Node4 -->
<g id="edge3" class="edge">
<title>Node3&#45;&gt;Node4</title>
<path fill="none" stroke="midnightblue" d="M506,-46.5C518.5,-46.5 531.45,-46.5 542.65,-46.5"/>
<polygon fill="midnightblue" stroke="midnightblue" points="542.78,-50 552.78,-46.5 542.78,-43 542.78,-50"/>
</g>
<!-- Node6&#45;&gt;Node3 -->
<g id="edge6" class="edge">
<title>Node6&#45;&gt;Node3</title>
<path fill="none" stroke="midnightblue" d="M352.04,-34.64C363.86,-36.05 376.54,-37.56 388.77,-39.02"/>
<polygon fill="midnightblue" stroke="midnightblue" points="388.56,-42.52 398.91,-40.23 389.39,-35.57 388.56,-42.52"/>
</g>
<!-- Node6&#45;&gt;Node5 -->
<g id="edge7" class="edge">
<title>Node6&#45;&gt;Node5</title>
<path fill="none" stroke="midnightblue" d="M352.04,-22.01C360.33,-20.97 369.05,-19.87 377.74,-18.78"/>
<polygon fill="midnightblue" stroke="midnightblue" points="378.42,-22.22 387.9,-17.5 377.54,-15.28 378.42,-22.22"/>
</g>
</g>
</svg>
