<?xml version="1.0" encoding="UTF-8" standalone="no"?>
<!DOCTYPE svg PUBLIC "-//W3C//DTD SVG 1.1//EN"
 "http://www.w3.org/Graphics/SVG/1.1/DTD/svg11.dtd">
<!-- Generated by graphviz version 2.47.1 (20210417.1919)
 -->
<!-- Title: redis_ipc_read_status Pages: 1 -->
<svg width="757pt" height="118pt"
 viewBox="0.00 0.00 757.00 117.93" xmlns="http://www.w3.org/2000/svg" xmlns:xlink="http://www.w3.org/1999/xlink">
<g id="graph0" class="graph" transform="scale(1 1) rotate(0) translate(4 113.93)">
<title>redis_ipc_read_status</title>
<polygon fill="white" stroke="transparent" points="-4,4 -4,-113.93 753,-113.93 753,4 -4,4"/>
<!-- Node1 -->
<g id="node1" class="node">
<title>Node1</title>
<g id="a_node1"><a xlink:title=" ">
<polygon fill="#bfbfbf" stroke="black" points="0,-75.5 0,-93.5 113,-93.5 113,-75.5 0,-75.5"/>
<text text-anchor="middle" x="56.5" y="-82.3" font-family="Helvetica,sans-Serif" font-size="9.00">redis_ipc_read_status</text>
</a>
</g>
</g>
<!-- Node2 -->
<g id="node2" class="node">
<title>Node2</title>
<g id="a_node2"><a xlink:href="redis__ipc_8c.html#aa2a3ce97c0b6f3e83572446f3c92e541" target="_top" xlink:title=" ">
<polygon fill="white" stroke="black" points="551,-76.5 551,-94.5 658,-94.5 658,-76.5 551,-76.5"/>
<text text-anchor="middle" x="604.5" y="-83.3" font-family="Helvetica,sans-Serif" font-size="9.00">get_per_thread_info</text>
</a>
</g>
</g>
<!-- Node1&#45;&gt;Node2 -->
<g id="edge1" class="edge">
<title>Node1&#45;&gt;Node2</title>
<path fill="none" stroke="midnightblue" d="M92.43,-93.51C109.38,-97.42 130.12,-101.56 149,-103.5 288.41,-117.82 452.96,-103.64 540.79,-93.58"/>
<polygon fill="midnightblue" stroke="midnightblue" points="541.33,-97.05 550.86,-92.41 540.52,-90.09 541.33,-97.05"/>
</g>
<!-- Node4 -->
<g id="node4" class="node">
<title>Node4</title>
<g id="a_node4"><a xlink:href="redis__ipc_8c.html#a67c9dd84d2426ab58a759dbdfd223267" target="_top" xlink:title=" ">
<polygon fill="white" stroke="black" points="165.5,-75.5 165.5,-93.5 221.5,-93.5 221.5,-75.5 165.5,-75.5"/>
<text text-anchor="middle" x="193.5" y="-82.3" font-family="Helvetica,sans-Serif" font-size="9.00">ipc_path</text>
</a>
</g>
</g>
<!-- Node1&#45;&gt;Node4 -->
<g id="edge3" class="edge">
<title>Node1&#45;&gt;Node4</title>
<path fill="none" stroke="midnightblue" d="M113.19,-84.5C127.26,-84.5 142.04,-84.5 154.98,-84.5"/>
<polygon fill="midnightblue" stroke="midnightblue" points="155.35,-88 165.35,-84.5 155.35,-81 155.35,-88"/>
</g>
<!-- Node5 -->
<g id="node5" class="node">
<title>Node5</title>
<g id="a_node5"><a xlink:href="redis__ipc_8c.html#a94fc3b660886cc8cc8e69692e0f5ca78" target="_top" xlink:title=" ">
<polygon fill="white" stroke="black" points="149,-38.5 149,-56.5 238,-56.5 238,-38.5 149,-38.5"/>
<text text-anchor="middle" x="193.5" y="-45.3" font-family="Helvetica,sans-Serif" font-size="9.00">redis_read_hash</text>
</a>
</g>
</g>
<!-- Node1&#45;&gt;Node5 -->
<g id="edge4" class="edge">
<title>Node1&#45;&gt;Node5</title>
<path fill="none" stroke="midnightblue" d="M90.52,-75.45C108.34,-70.57 130.53,-64.48 149.66,-59.24"/>
<polygon fill="midnightblue" stroke="midnightblue" points="150.63,-62.6 159.35,-56.59 148.78,-55.85 150.63,-62.6"/>
</g>
<!-- Node3 -->
<g id="node3" class="node">
<title>Node3</title>
<g id="a_node3"><a xlink:href="redis__ipc_8c.html#af0449193b7cded86e600f052d0aabd39" target="_top" xlink:title=" ">
<polygon fill="white" stroke="black" points="705,-76.5 705,-94.5 749,-94.5 749,-76.5 705,-76.5"/>
<text text-anchor="middle" x="727" y="-83.3" font-family="Helvetica,sans-Serif" font-size="9.00">gettid</text>
</a>
</g>
</g>
<!-- Node2&#45;&gt;Node3 -->
<g id="edge2" class="edge">
<title>Node2&#45;&gt;Node3</title>
<path fill="none" stroke="midnightblue" d="M658,-85.5C670.5,-85.5 683.45,-85.5 694.65,-85.5"/>
<polygon fill="midnightblue" stroke="midnightblue" points="694.78,-89 704.78,-85.5 694.78,-82 694.78,-89"/>
</g>
<!-- Node6 -->
<g id="node6" class="node">
<title>Node6</title>
<g id="a_node6"><a xlink:href="redis__ipc_8c.html#aefb4508c1883e7d4345b206076b19e5d" target="_top" xlink:title=" ">
<polygon fill="white" stroke="black" points="274,-38.5 274,-56.5 363,-56.5 363,-38.5 274,-38.5"/>
<text text-anchor="middle" x="318.5" y="-45.3" font-family="Helvetica,sans-Serif" font-size="9.00">redis_command</text>
</a>
</g>
</g>
<!-- Node5&#45;&gt;Node6 -->
<g id="edge5" class="edge">
<title>Node5&#45;&gt;Node6</title>
<path fill="none" stroke="midnightblue" d="M238.21,-47.5C246.46,-47.5 255.17,-47.5 263.69,-47.5"/>
<polygon fill="midnightblue" stroke="midnightblue" points="263.93,-51 273.93,-47.5 263.93,-44 263.93,-51"/>
</g>
<!-- Node7 -->
<g id="node7" class="node">
<title>Node7</title>
<g id="a_node7"><a xlink:href="redis__ipc_8c.html#a5e81feac565f9476476c5f042b2a5c9d" target="_top" xlink:title=" ">
<polygon fill="white" stroke="black" points="540,-0.5 540,-18.5 669,-18.5 669,-0.5 540,-0.5"/>
<text text-anchor="middle" x="604.5" y="-7.3" font-family="Helvetica,sans-Serif" font-size="9.00">stderr_debug_is_enabled</text>
</a>
</g>
</g>
<!-- Node5&#45;&gt;Node7 -->
<g id="edge11" class="edge">
<title>Node5&#45;&gt;Node7</title>
<path fill="none" stroke="midnightblue" d="M228.77,-38.46C242.72,-35 259.06,-31.23 274,-28.5 329.09,-18.42 343.13,-16.47 399,-12.5 442.24,-9.43 490.75,-8.6 529.67,-8.58"/>
<polygon fill="midnightblue" stroke="midnightblue" points="529.86,-12.08 539.86,-8.59 529.87,-5.08 529.86,-12.08"/>
</g>
<!-- Node6&#45;&gt;Node2 -->
<g id="edge6" class="edge">
<title>Node6&#45;&gt;Node2</title>
<path fill="none" stroke="midnightblue" d="M352.55,-56.51C366.75,-60.09 383.6,-63.96 399,-66.5 446.19,-74.29 500.07,-79.13 540.67,-81.98"/>
<polygon fill="midnightblue" stroke="midnightblue" points="540.48,-85.47 550.7,-82.66 540.96,-78.49 540.48,-85.47"/>
</g>
<!-- Node6&#45;&gt;Node7 -->
<g id="edge7" class="edge">
<title>Node6&#45;&gt;Node7</title>
<path fill="none" stroke="midnightblue" d="M352.55,-38.49C366.75,-34.91 383.6,-31.04 399,-28.5 441.95,-21.41 490.45,-16.76 529.43,-13.84"/>
<polygon fill="midnightblue" stroke="midnightblue" points="529.92,-17.31 539.64,-13.09 529.41,-10.33 529.92,-17.31"/>
</g>
<!-- Node8 -->
<g id="node8" class="node">
<title>Node8</title>
<g id="a_node8"><a xlink:href="redis__ipc_8c.html#ae88037651d88f63c62d32afd7e0fccf2" target="_top" xlink:title=" ">
<polygon fill="white" stroke="black" points="399,-38.5 399,-56.5 504,-56.5 504,-38.5 399,-38.5"/>
<text text-anchor="middle" x="451.5" y="-45.3" font-family="Helvetica,sans-Serif" font-size="9.00">validate_redis_reply</text>
</a>
</g>
</g>
<!-- Node6&#45;&gt;Node8 -->
<g id="edge8" class="edge">
<title>Node6&#45;&gt;Node8</title>
<path fill="none" stroke="midnightblue" d="M363.12,-47.5C371.36,-47.5 380.12,-47.5 388.79,-47.5"/>
<polygon fill="midnightblue" stroke="midnightblue" points="388.89,-51 398.89,-47.5 388.89,-44 388.89,-51"/>
</g>
<!-- Node8&#45;&gt;Node2 -->
<g id="edge9" class="edge">
<title>Node8&#45;&gt;Node2</title>
<path fill="none" stroke="midnightblue" d="M488.28,-56.51C509.08,-61.74 535.5,-68.39 557.79,-74"/>
<polygon fill="midnightblue" stroke="midnightblue" points="557.16,-77.45 567.71,-76.49 558.87,-70.66 557.16,-77.45"/>
</g>
<!-- Node8&#45;&gt;Node7 -->
<g id="edge10" class="edge">
<title>Node8&#45;&gt;Node7</title>
<path fill="none" stroke="midnightblue" d="M488.28,-38.49C509.08,-33.26 535.5,-26.61 557.79,-21"/>
<polygon fill="midnightblue" stroke="midnightblue" points="558.87,-24.34 567.71,-18.51 557.16,-17.55 558.87,-24.34"/>
</g>
</g>
</svg>
