<?xml version="1.0" encoding="UTF-8" standalone="no"?>
<!DOCTYPE svg PUBLIC "-//W3C//DTD SVG 1.1//EN"
 "http://www.w3.org/Graphics/SVG/1.1/DTD/svg11.dtd">
<!-- Generated by graphviz version 2.50.0 (20220203.2022)
 -->
<!-- Title: get_debug_verbosity Pages: 1 -->
<svg width="417pt" height="121pt"
 viewBox="0.00 0.00 417.00 121.00" xmlns="http://www.w3.org/2000/svg" xmlns:xlink="http://www.w3.org/1999/xlink">
<g id="graph0" class="graph" transform="scale(1 1) rotate(0) translate(4 117)">
<title>get_debug_verbosity</title>
<polygon fill="white" stroke="transparent" points="-4,4 -4,-117 413,-117 413,4 -4,4"/>
<!-- Node1 -->
<g id="node1" class="node">
<title>Node1</title>
<g id="a_node1"><a xlink:title=" ">
<polygon fill="#bfbfbf" stroke="black" points="310,-42.5 310,-60.5 409,-60.5 409,-42.5 310,-42.5"/>
<text text-anchor="middle" x="359.5" y="-49.3" font-family="Helvetica,sans-Serif" font-size="9.00">get_debug_verbosity</text>
</a>
</g>
</g>
<!-- Node2 -->
<g id="node2" class="node">
<title>Node2</title>
<g id="a_node2"><a xlink:href="redis__ipc_8c.html#a66cdf2ae760d1acb487dd82c1392c12f" target="_top" xlink:title=" ">
<polygon fill="white" stroke="black" points="167,-42.5 167,-60.5 274,-60.5 274,-42.5 167,-42.5"/>
<text text-anchor="middle" x="220.5" y="-49.3" font-family="Helvetica,sans-Serif" font-size="9.00">redis_ipc_send_debug</text>
</a>
</g>
</g>
<!-- Node1&#45;&gt;Node2 -->
<g id="edge1" class="edge">
<title>Node1&#45;&gt;Node2</title>
<path fill="none" stroke="midnightblue" d="M299.64,-51.5C291.19,-51.5 282.54,-51.5 274.21,-51.5"/>
<polygon fill="midnightblue" stroke="midnightblue" points="299.81,-55 309.81,-51.5 299.81,-48 299.81,-55"/>
</g>
<!-- Node3 -->
<g id="node3" class="node">
<title>Node3</title>
<g id="a_node3"><a xlink:href="redis__ipc_8c.html#a69a016ee903b3d8873ada802806e615d" target="_top" xlink:title=" ">
<polygon fill="white" stroke="black" points="0,-84.5 0,-112.5 131,-112.5 131,-84.5 0,-84.5"/>
<text text-anchor="start" x="8" y="-101.3" font-family="Helvetica,sans-Serif" font-size="9.00">redis_ipc_receive_command</text>
<text text-anchor="middle" x="65.5" y="-91.3" font-family="Helvetica,sans-Serif" font-size="9.00">_blocking</text>
</a>
</g>
</g>
<!-- Node2&#45;&gt;Node3 -->
<g id="edge2" class="edge">
<title>Node2&#45;&gt;Node3</title>
<path fill="none" stroke="midnightblue" d="M180.23,-63.56C159.45,-69.95 133.83,-77.82 112.17,-84.47"/>
<polygon fill="midnightblue" stroke="midnightblue" points="181.47,-66.84 190,-60.56 179.41,-60.15 181.47,-66.84"/>
</g>
<!-- Node4 -->
<g id="node4" class="node">
<title>Node4</title>
<g id="a_node4"><a xlink:href="redis__ipc_8c.html#afef4b2a08b3597ca1f62b7ead9490ef4" target="_top" xlink:title=" ">
<polygon fill="white" stroke="black" points="4.5,-37.5 4.5,-65.5 126.5,-65.5 126.5,-37.5 4.5,-37.5"/>
<text text-anchor="start" x="12.5" y="-54.3" font-family="Helvetica,sans-Serif" font-size="9.00">redis_ipc_send_command</text>
<text text-anchor="middle" x="65.5" y="-44.3" font-family="Helvetica,sans-Serif" font-size="9.00">_blocking</text>
</a>
</g>
</g>
<!-- Node2&#45;&gt;Node4 -->
<g id="edge3" class="edge">
<title>Node2&#45;&gt;Node4</title>
<path fill="none" stroke="midnightblue" d="M156.64,-51.5C146.72,-51.5 136.47,-51.5 126.61,-51.5"/>
<polygon fill="midnightblue" stroke="midnightblue" points="156.85,-55 166.85,-51.5 156.85,-48 156.85,-55"/>
</g>
<!-- Node5 -->
<g id="node5" class="node">
<title>Node5</title>
<g id="a_node5"><a xlink:href="redis__ipc_8c.html#aecff1f4edcb2ebf0654d0fff21e334a5" target="_top" xlink:title=" ">
<polygon fill="white" stroke="black" points="13.5,-0.5 13.5,-18.5 117.5,-18.5 117.5,-0.5 13.5,-0.5"/>
<text text-anchor="middle" x="65.5" y="-7.3" font-family="Helvetica,sans-Serif" font-size="9.00">redis_ipc_send_result</text>
</a>
</g>
</g>
<!-- Node2&#45;&gt;Node5 -->
<g id="edge4" class="edge">
<title>Node2&#45;&gt;Node5</title>
<path fill="none" stroke="midnightblue" d="M176.93,-39.81C152.46,-33.1 122.19,-24.79 99.53,-18.57"/>
<polygon fill="midnightblue" stroke="midnightblue" points="176.11,-43.22 186.68,-42.49 177.96,-36.47 176.11,-43.22"/>
</g>
</g>
</svg>
