<?xml version="1.0" encoding="UTF-8" standalone="no"?>
<!DOCTYPE svg PUBLIC "-//W3C//DTD SVG 1.1//EN"
 "http://www.w3.org/Graphics/SVG/1.1/DTD/svg11.dtd">
<!-- Generated by graphviz version 2.43.0 (0)
 -->
<!-- Title: src/redis_ipc.h Pages: 1 -->
<svg width="168pt" height="82pt"
 viewBox="0.00 0.00 167.50 82.00" xmlns="http://www.w3.org/2000/svg" xmlns:xlink="http://www.w3.org/1999/xlink">
<g id="graph0" class="graph" transform="scale(1 1) rotate(0) translate(4 78)">
<title>src/redis_ipc.h</title>
<polygon fill="white" stroke="transparent" points="-4,4 -4,-78 163.5,-78 163.5,4 -4,4"/>
<!-- Node1 -->
<g id="node1" class="node">
<title>Node1</title>
<g id="a_node1"><a xlink:title=" ">
<polygon fill="#bfbfbf" stroke="black" points="37,-55.5 37,-73.5 119,-73.5 119,-55.5 37,-55.5"/>
<text text-anchor="middle" x="78" y="-62.3" font-family="Helvetica,sans-Serif" font-size="9.00">src/redis_ipc.h</text>
</a>
</g>
</g>
<!-- Node2 -->
<g id="node2" class="node">
<title>Node2</title>
<g id="a_node2"><a xlink:title=" ">
<polygon fill="white" stroke="#bfbfbf" points="0,-0.5 0,-18.5 68,-18.5 68,-0.5 0,-0.5"/>
<text text-anchor="middle" x="34" y="-7.3" font-family="Helvetica,sans-Serif" font-size="9.00">sys/types.h</text>
</a>
</g>
</g>
<!-- Node1&#45;&gt;Node2 -->
<g id="edge1" class="edge">
<title>Node1&#45;&gt;Node2</title>
<path fill="none" stroke="midnightblue" d="M71.12,-55.22C64.76,-47.55 55.12,-35.94 47.26,-26.47"/>
<polygon fill="midnightblue" stroke="midnightblue" points="49.76,-24.01 40.68,-18.55 44.38,-28.48 49.76,-24.01"/>
</g>
<!-- Node3 -->
<g id="node3" class="node">
<title>Node3</title>
<g id="a_node3"><a xlink:title=" ">
<polygon fill="white" stroke="#bfbfbf" points="86.5,-0.5 86.5,-18.5 159.5,-18.5 159.5,-0.5 86.5,-0.5"/>
<text text-anchor="middle" x="123" y="-7.3" font-family="Helvetica,sans-Serif" font-size="9.00">json&#45;c/json.h</text>
</a>
</g>
</g>
<!-- Node1&#45;&gt;Node3 -->
<g id="edge2" class="edge">
<title>Node1&#45;&gt;Node3</title>
<path fill="none" stroke="midnightblue" d="M85.03,-55.22C91.61,-47.47 101.6,-35.7 109.69,-26.18"/>
<polygon fill="midnightblue" stroke="midnightblue" points="112.36,-28.44 116.17,-18.55 107.03,-23.91 112.36,-28.44"/>
</g>
</g>
</svg>
