<?xml version="1.0" encoding="UTF-8" standalone="no"?>
<!DOCTYPE svg PUBLIC "-//W3C//DTD SVG 1.1//EN"
 "http://www.w3.org/Graphics/SVG/1.1/DTD/svg11.dtd">
<!-- Generated by graphviz version 2.47.1 (20210417.1919)
 -->
<!-- Title: redis_read_hash Pages: 1 -->
<svg width="608pt" height="103pt"
 viewBox="0.00 0.00 608.00 103.00" xmlns="http://www.w3.org/2000/svg" xmlns:xlink="http://www.w3.org/1999/xlink">
<g id="graph0" class="graph" transform="scale(1 1) rotate(0) translate(4 99)">
<title>redis_read_hash</title>
<polygon fill="white" stroke="transparent" points="-4,4 -4,-99 604,-99 604,4 -4,4"/>
<!-- Node1 -->
<g id="node1" class="node">
<title>Node1</title>
<g id="a_node1"><a xlink:title=" ">
<polygon fill="#bfbfbf" stroke="black" points="0,-0.5 0,-18.5 89,-18.5 89,-0.5 0,-0.5"/>
<text text-anchor="middle" x="44.5" y="-7.3" font-family="Helvetica,sans-Serif" font-size="9.00">redis_read_hash</text>
</a>
</g>
</g>
<!-- Node2 -->
<g id="node2" class="node">
<title>Node2</title>
<g id="a_node2"><a xlink:href="redis__ipc_8c.html#aefb4508c1883e7d4345b206076b19e5d" target="_top" xlink:title=" ">
<polygon fill="white" stroke="black" points="125,-38.5 125,-56.5 214,-56.5 214,-38.5 125,-38.5"/>
<text text-anchor="middle" x="169.5" y="-45.3" font-family="Helvetica,sans-Serif" font-size="9.00">redis_command</text>
</a>
</g>
</g>
<!-- Node1&#45;&gt;Node2 -->
<g id="edge1" class="edge">
<title>Node1&#45;&gt;Node2</title>
<path fill="none" stroke="midnightblue" d="M74.65,-18.51C90.92,-23.53 111.42,-29.86 129.1,-35.33"/>
<polygon fill="midnightblue" stroke="midnightblue" points="128.55,-38.82 139.13,-38.43 130.61,-32.13 128.55,-38.82"/>
</g>
<!-- Node5 -->
<g id="node5" class="node">
<title>Node5</title>
<g id="a_node5"><a xlink:href="redis__ipc_8c.html#a5e81feac565f9476476c5f042b2a5c9d" target="_top" xlink:title=" ">
<polygon fill="white" stroke="black" points="391,-19.5 391,-37.5 520,-37.5 520,-19.5 391,-19.5"/>
<text text-anchor="middle" x="455.5" y="-26.3" font-family="Helvetica,sans-Serif" font-size="9.00">stderr_debug_is_enabled</text>
</a>
</g>
</g>
<!-- Node1&#45;&gt;Node5 -->
<g id="edge8" class="edge">
<title>Node1&#45;&gt;Node5</title>
<path fill="none" stroke="midnightblue" d="M89.27,-11.53C158.88,-14.77 295.6,-21.12 380.58,-25.07"/>
<polygon fill="midnightblue" stroke="midnightblue" points="380.53,-28.57 390.68,-25.54 380.86,-21.58 380.53,-28.57"/>
</g>
<!-- Node3 -->
<g id="node3" class="node">
<title>Node3</title>
<g id="a_node3"><a xlink:href="redis__ipc_8c.html#aa2a3ce97c0b6f3e83572446f3c92e541" target="_top" xlink:title=" ">
<polygon fill="white" stroke="black" points="402,-76.5 402,-94.5 509,-94.5 509,-76.5 402,-76.5"/>
<text text-anchor="middle" x="455.5" y="-83.3" font-family="Helvetica,sans-Serif" font-size="9.00">get_per_thread_info</text>
</a>
</g>
</g>
<!-- Node2&#45;&gt;Node3 -->
<g id="edge2" class="edge">
<title>Node2&#45;&gt;Node3</title>
<path fill="none" stroke="midnightblue" d="M184.44,-56.55C199.79,-65.92 225.53,-79.95 250,-85.5 296.6,-96.07 350.73,-95.52 391.59,-92.63"/>
<polygon fill="midnightblue" stroke="midnightblue" points="391.98,-96.11 401.68,-91.85 391.44,-89.13 391.98,-96.11"/>
</g>
<!-- Node2&#45;&gt;Node5 -->
<g id="edge4" class="edge">
<title>Node2&#45;&gt;Node5</title>
<path fill="none" stroke="midnightblue" d="M214.25,-44.57C258.62,-41.6 328.07,-36.96 380.92,-33.42"/>
<polygon fill="midnightblue" stroke="midnightblue" points="381.17,-36.91 390.92,-32.75 380.71,-29.93 381.17,-36.91"/>
</g>
<!-- Node6 -->
<g id="node6" class="node">
<title>Node6</title>
<g id="a_node6"><a xlink:href="redis__ipc_8c.html#ae88037651d88f63c62d32afd7e0fccf2" target="_top" xlink:title=" ">
<polygon fill="white" stroke="black" points="250,-57.5 250,-75.5 355,-75.5 355,-57.5 250,-57.5"/>
<text text-anchor="middle" x="302.5" y="-64.3" font-family="Helvetica,sans-Serif" font-size="9.00">validate_redis_reply</text>
</a>
</g>
</g>
<!-- Node2&#45;&gt;Node6 -->
<g id="edge5" class="edge">
<title>Node2&#45;&gt;Node6</title>
<path fill="none" stroke="midnightblue" d="M214.12,-53.83C222.36,-55.02 231.12,-56.29 239.79,-57.55"/>
<polygon fill="midnightblue" stroke="midnightblue" points="239.49,-61.04 249.89,-59.01 240.5,-54.12 239.49,-61.04"/>
</g>
<!-- Node4 -->
<g id="node4" class="node">
<title>Node4</title>
<g id="a_node4"><a xlink:href="redis__ipc_8c.html#af0449193b7cded86e600f052d0aabd39" target="_top" xlink:title=" ">
<polygon fill="white" stroke="black" points="556,-76.5 556,-94.5 600,-94.5 600,-76.5 556,-76.5"/>
<text text-anchor="middle" x="578" y="-83.3" font-family="Helvetica,sans-Serif" font-size="9.00">gettid</text>
</a>
</g>
</g>
<!-- Node3&#45;&gt;Node4 -->
<g id="edge3" class="edge">
<title>Node3&#45;&gt;Node4</title>
<path fill="none" stroke="midnightblue" d="M509,-85.5C521.5,-85.5 534.45,-85.5 545.65,-85.5"/>
<polygon fill="midnightblue" stroke="midnightblue" points="545.78,-89 555.78,-85.5 545.78,-82 545.78,-89"/>
</g>
<!-- Node6&#45;&gt;Node3 -->
<g id="edge6" class="edge">
<title>Node6&#45;&gt;Node3</title>
<path fill="none" stroke="midnightblue" d="M355.04,-72.99C366.86,-74.47 379.54,-76.07 391.77,-77.61"/>
<polygon fill="midnightblue" stroke="midnightblue" points="391.55,-81.11 401.91,-78.88 392.42,-74.16 391.55,-81.11"/>
</g>
<!-- Node6&#45;&gt;Node5 -->
<g id="edge7" class="edge">
<title>Node6&#45;&gt;Node5</title>
<path fill="none" stroke="midnightblue" d="M339.28,-57.49C360.08,-52.26 386.5,-45.61 408.79,-40"/>
<polygon fill="midnightblue" stroke="midnightblue" points="409.87,-43.34 418.71,-37.51 408.16,-36.55 409.87,-43.34"/>
</g>
</g>
</svg>
