<?xml version="1.0" encoding="UTF-8" standalone="no"?>
<!DOCTYPE svg PUBLIC "-//W3C//DTD SVG 1.1//EN"
 "http://www.w3.org/Graphics/SVG/1.1/DTD/svg11.dtd">
<!-- Generated by graphviz version 2.47.1 (20210417.1919)
 -->
<!-- Title: redis_command_from_list Pages: 1 -->
<svg width="422pt" height="64pt"
 viewBox="0.00 0.00 422.00 64.00" xmlns="http://www.w3.org/2000/svg" xmlns:xlink="http://www.w3.org/1999/xlink">
<g id="graph0" class="graph" transform="scale(1 1) rotate(0) translate(4 60)">
<title>redis_command_from_list</title>
<polygon fill="white" stroke="transparent" points="-4,4 -4,-60 418,-60 418,4 -4,4"/>
<!-- Node1 -->
<g id="node1" class="node">
<title>Node1</title>
<g id="a_node1"><a xlink:title=" ">
<polygon fill="#bfbfbf" stroke="black" points="283,-18.5 283,-36.5 414,-36.5 414,-18.5 283,-18.5"/>
<text text-anchor="middle" x="348.5" y="-25.3" font-family="Helvetica,sans-Serif" font-size="9.00">redis_command_from_list</text>
</a>
</g>
</g>
<!-- Node2 -->
<g id="node2" class="node">
<title>Node2</title>
<g id="a_node2"><a xlink:href="redis__ipc_8c.html#ab4f8e083ca57feea4be05c015b0eac9f" target="_top" xlink:title=" ">
<polygon fill="white" stroke="black" points="155,-18.5 155,-36.5 247,-36.5 247,-18.5 155,-18.5"/>
<text text-anchor="middle" x="201" y="-25.3" font-family="Helvetica,sans-Serif" font-size="9.00">redis_write_hash</text>
</a>
</g>
</g>
<!-- Node1&#45;&gt;Node2 -->
<g id="edge1" class="edge">
<title>Node1&#45;&gt;Node2</title>
<path fill="none" stroke="midnightblue" d="M272.68,-27.5C264.01,-27.5 255.39,-27.5 247.29,-27.5"/>
<polygon fill="midnightblue" stroke="midnightblue" points="272.83,-31 282.83,-27.5 272.83,-24 272.83,-31"/>
</g>
<!-- Node3 -->
<g id="node3" class="node">
<title>Node3</title>
<g id="a_node3"><a xlink:href="redis__ipc_8c.html#a11db23f8f055e2d63fd8308c3d382da4" target="_top" xlink:title=" ">
<polygon fill="white" stroke="black" points="0,-37.5 0,-55.5 119,-55.5 119,-37.5 0,-37.5"/>
<text text-anchor="middle" x="59.5" y="-44.3" font-family="Helvetica,sans-Serif" font-size="9.00">redis_ipc_write_setting</text>
</a>
</g>
</g>
<!-- Node2&#45;&gt;Node3 -->
<g id="edge2" class="edge">
<title>Node2&#45;&gt;Node3</title>
<path fill="none" stroke="midnightblue" d="M144.63,-35.04C136.22,-36.19 127.51,-37.37 119.04,-38.53"/>
<polygon fill="midnightblue" stroke="midnightblue" points="145.27,-38.49 154.71,-33.67 144.33,-31.55 145.27,-38.49"/>
</g>
<!-- Node4 -->
<g id="node4" class="node">
<title>Node4</title>
<g id="a_node4"><a xlink:href="redis__ipc_8c.html#ab7d4be95434367c1b7dd526ebbab77a1" target="_top" xlink:title=" ">
<polygon fill="white" stroke="black" points="1.5,-0.5 1.5,-18.5 117.5,-18.5 117.5,-0.5 1.5,-0.5"/>
<text text-anchor="middle" x="59.5" y="-7.3" font-family="Helvetica,sans-Serif" font-size="9.00">redis_ipc_write_status</text>
</a>
</g>
</g>
<!-- Node2&#45;&gt;Node4 -->
<g id="edge3" class="edge">
<title>Node2&#45;&gt;Node4</title>
<path fill="none" stroke="midnightblue" d="M144.56,-20.35C135.75,-19.21 126.63,-18.03 117.79,-16.89"/>
<polygon fill="midnightblue" stroke="midnightblue" points="144.34,-23.85 154.71,-21.66 145.24,-16.9 144.34,-23.85"/>
</g>
</g>
</svg>
