<?xml version="1.0" encoding="UTF-8" standalone="no"?>
<!DOCTYPE svg PUBLIC "-//W3C//DTD SVG 1.1//EN"
 "http://www.w3.org/Graphics/SVG/1.1/DTD/svg11.dtd">
<!-- Generated by graphviz version 2.43.0 (0)
 -->
<!-- Title: redis_pop Pages: 1 -->
<svg width="247pt" height="84pt"
 viewBox="0.00 0.00 247.00 84.00" xmlns="http://www.w3.org/2000/svg" xmlns:xlink="http://www.w3.org/1999/xlink">
<g id="graph0" class="graph" transform="scale(1 1) rotate(0) translate(4 80)">
<title>redis_pop</title>
<polygon fill="white" stroke="transparent" points="-4,4 -4,-80 243,-80 243,4 -4,4"/>
<!-- Node1 -->
<g id="node1" class="node">
<title>Node1</title>
<g id="a_node1"><a xlink:title=" ">
<polygon fill="#bfbfbf" stroke="black" points="179,-28.5 179,-46.5 239,-46.5 239,-28.5 179,-28.5"/>
<text text-anchor="middle" x="209" y="-35.3" font-family="Helvetica,sans-Serif" font-size="9.00">redis_pop</text>
</a>
</g>
</g>
<!-- Node2 -->
<g id="node2" class="node">
<title>Node2</title>
<g id="a_node2"><a xlink:href="redis__ipc_8h.html#a6961dec4572f2b0b9f52ae09ae663728" target="_top" xlink:title=" ">
<polygon fill="white" stroke="black" points="0,-47.5 0,-75.5 143,-75.5 143,-47.5 0,-47.5"/>
<text text-anchor="start" x="8" y="-64.3" font-family="Helvetica,sans-Serif" font-size="9.00">redis_ipc_receive_command</text>
<text text-anchor="middle" x="71.5" y="-54.3" font-family="Helvetica,sans-Serif" font-size="9.00">_blocking</text>
</a>
</g>
</g>
<!-- Node1&#45;&gt;Node2 -->
<g id="edge1" class="edge">
<title>Node1&#45;&gt;Node2</title>
<path fill="none" stroke="midnightblue" d="M168.98,-44.41C160.8,-45.86 151.94,-47.43 143,-49.01"/>
<polygon fill="midnightblue" stroke="midnightblue" points="169.7,-47.84 178.93,-42.65 168.47,-40.95 169.7,-47.84"/>
</g>
<!-- Node3 -->
<g id="node3" class="node">
<title>Node3</title>
<g id="a_node3"><a xlink:href="redis__ipc_8h.html#a696ecebb5df3f171ed7b6adf682c83a2" target="_top" xlink:title=" ">
<polygon fill="white" stroke="black" points="5,-0.5 5,-28.5 138,-28.5 138,-0.5 5,-0.5"/>
<text text-anchor="start" x="13" y="-17.3" font-family="Helvetica,sans-Serif" font-size="9.00">redis_ipc_send_command</text>
<text text-anchor="middle" x="71.5" y="-7.3" font-family="Helvetica,sans-Serif" font-size="9.00">_blocking</text>
</a>
</g>
</g>
<!-- Node1&#45;&gt;Node3 -->
<g id="edge2" class="edge">
<title>Node1&#45;&gt;Node3</title>
<path fill="none" stroke="midnightblue" d="M168.92,-30.87C159.31,-29.24 148.76,-27.44 138.27,-25.66"/>
<polygon fill="midnightblue" stroke="midnightblue" points="168.49,-34.34 178.93,-32.57 169.66,-27.44 168.49,-34.34"/>
</g>
</g>
</svg>
