<?xml version="1.0" encoding="UTF-8" standalone="no"?>
<!DOCTYPE svg PUBLIC "-//W3C//DTD SVG 1.1//EN"
 "http://www.w3.org/Graphics/SVG/1.1/DTD/svg11.dtd">
<!-- Generated by graphviz version 2.50.0 (20220203.2022)
 -->
<!-- Title: stderr_debug_is_enabled Pages: 1 -->
<svg width="882pt" height="702pt"
 viewBox="0.00 0.00 882.00 702.00" xmlns="http://www.w3.org/2000/svg" xmlns:xlink="http://www.w3.org/1999/xlink">
<g id="graph0" class="graph" transform="scale(1 1) rotate(0) translate(4 698)">
<title>stderr_debug_is_enabled</title>
<polygon fill="white" stroke="transparent" points="-4,4 -4,-698 878,-698 878,4 -4,4"/>
<!-- Node1 -->
<g id="node1" class="node">
<title>Node1</title>
<g id="a_node1"><a xlink:title=" ">
<polygon fill="#bfbfbf" stroke="black" points="756,-411.5 756,-429.5 874,-429.5 874,-411.5 756,-411.5"/>
<text text-anchor="middle" x="815" y="-418.3" font-family="Helvetica,sans-Serif" font-size="9.00">stderr_debug_is_enabled</text>
</a>
</g>
</g>
<!-- Node2 -->
<g id="node2" class="node">
<title>Node2</title>
<g id="a_node2"><a xlink:href="redis__ipc_8c.html#afab35d4c40b4b1866fc0239bb885a39b" target="_top" xlink:title=" ">
<polygon fill="white" stroke="black" points="472.5,-392.5 472.5,-410.5 552.5,-410.5 552.5,-392.5 472.5,-392.5"/>
<text text-anchor="middle" x="512.5" y="-399.3" font-family="Helvetica,sans-Serif" font-size="9.00">redis_command</text>
</a>
</g>
</g>
<!-- Node1&#45;&gt;Node2 -->
<g id="edge1" class="edge">
<title>Node1&#45;&gt;Node2</title>
<path fill="none" stroke="midnightblue" d="M745.47,-423.89C705.32,-425.03 653.67,-425.05 608,-420.5 588.52,-418.56 567.1,-414.43 549.59,-410.51"/>
<polygon fill="midnightblue" stroke="midnightblue" points="745.8,-427.38 755.69,-423.57 745.58,-420.39 745.8,-427.38"/>
</g>
<!-- Node3 -->
<g id="node3" class="node">
<title>Node3</title>
<g id="a_node3"><a xlink:href="redis__ipc_8c.html#a51be0735eeaf88f636c16128647f11f7" target="_top" xlink:title=" ">
<polygon fill="white" stroke="black" points="336,-468.5 336,-486.5 392,-486.5 392,-468.5 336,-468.5"/>
<text text-anchor="middle" x="364" y="-475.3" font-family="Helvetica,sans-Serif" font-size="9.00">redis_pop</text>
</a>
</g>
</g>
<!-- Node1&#45;&gt;Node3 -->
<g id="edge35" class="edge">
<title>Node1&#45;&gt;Node3</title>
<path fill="none" stroke="midnightblue" d="M753.7,-431.26C742.52,-433.11 730.92,-434.94 720,-436.5 598.08,-453.9 451.8,-468.97 392.23,-474.86"/>
<polygon fill="midnightblue" stroke="midnightblue" points="754.55,-434.66 763.83,-429.55 753.39,-427.76 754.55,-434.66"/>
</g>
<!-- Node11 -->
<g id="node11" class="node">
<title>Node11</title>
<g id="a_node11"><a xlink:href="redis__ipc_8c.html#a9f1ecd3f095bb4358ae2b26347b2b822" target="_top" xlink:title=" ">
<polygon fill="white" stroke="black" points="322.5,-589.5 322.5,-607.5 405.5,-607.5 405.5,-589.5 322.5,-589.5"/>
<text text-anchor="middle" x="364" y="-596.3" font-family="Helvetica,sans-Serif" font-size="9.00">redis_read_hash</text>
</a>
</g>
</g>
<!-- Node1&#45;&gt;Node11 -->
<g id="edge36" class="edge">
<title>Node1&#45;&gt;Node11</title>
<path fill="none" stroke="midnightblue" d="M795.73,-436.21C777.56,-451.16 748.38,-473.4 720,-487.5 612.29,-541.02 473.4,-575.42 405.71,-590.19"/>
<polygon fill="midnightblue" stroke="midnightblue" points="798.29,-438.63 803.71,-429.52 793.8,-433.26 798.29,-438.63"/>
</g>
<!-- Node14 -->
<g id="node14" class="node">
<title>Node14</title>
<g id="a_node14"><a xlink:href="redis__ipc_8c.html#a4f935a08f52bbc4ef3c81532488f9a80" target="_top" xlink:title=" ">
<polygon fill="white" stroke="black" points="311.5,-541.5 311.5,-559.5 416.5,-559.5 416.5,-541.5 311.5,-541.5"/>
<text text-anchor="middle" x="364" y="-548.3" font-family="Helvetica,sans-Serif" font-size="9.00">redis_read_hash_field</text>
</a>
</g>
</g>
<!-- Node1&#45;&gt;Node14 -->
<g id="edge37" class="edge">
<title>Node1&#45;&gt;Node14</title>
<path fill="none" stroke="midnightblue" d="M783.72,-433.48C765.46,-441.04 741.62,-450.44 720,-457.5 607.95,-494.08 472.46,-526.36 405.92,-541.45"/>
<polygon fill="midnightblue" stroke="midnightblue" points="785.11,-436.69 792.98,-429.6 782.41,-430.23 785.11,-436.69"/>
</g>
<!-- Node26 -->
<g id="node26" class="node">
<title>Node26</title>
<g id="a_node26"><a xlink:href="redis__ipc_8c.html#a75d72df468cbcb8c72d15ca3b0cd9996" target="_top" xlink:title=" ">
<polygon fill="white" stroke="black" points="453,-270.5 453,-288.5 572,-288.5 572,-270.5 453,-270.5"/>
<text text-anchor="middle" x="512.5" y="-277.3" font-family="Helvetica,sans-Serif" font-size="9.00">redis_command_from_list</text>
</a>
</g>
</g>
<!-- Node1&#45;&gt;Node26 -->
<g id="edge29" class="edge">
<title>Node1&#45;&gt;Node26</title>
<path fill="none" stroke="midnightblue" d="M805.81,-402C792.37,-374.1 762.79,-322.05 720,-298.5 674.89,-273.68 615.75,-270.66 572.32,-272.83"/>
<polygon fill="midnightblue" stroke="midnightblue" points="802.79,-403.79 810.17,-411.39 809.14,-400.85 802.79,-403.79"/>
</g>
<!-- Node30 -->
<g id="node30" class="node">
<title>Node30</title>
<g id="a_node30"><a xlink:href="redis__ipc_8c.html#a8d1d26b38b731bc77309f58295716f8f" target="_top" xlink:title=" ">
<polygon fill="white" stroke="black" points="608,-345.5 608,-373.5 720,-373.5 720,-345.5 608,-345.5"/>
<text text-anchor="start" x="616" y="-362.3" font-family="Helvetica,sans-Serif" font-size="9.00">redis_ipc_get_message</text>
<text text-anchor="middle" x="664" y="-352.3" font-family="Helvetica,sans-Serif" font-size="9.00">_blocking</text>
</a>
</g>
</g>
<!-- Node1&#45;&gt;Node30 -->
<g id="edge33" class="edge">
<title>Node1&#45;&gt;Node30</title>
<path fill="none" stroke="midnightblue" d="M782.51,-407.61C758.09,-397.61 724.31,-383.78 699.24,-373.52"/>
<polygon fill="midnightblue" stroke="midnightblue" points="781.43,-410.95 792.01,-411.5 784.09,-404.47 781.43,-410.95"/>
</g>
<!-- Node31 -->
<g id="node31" class="node">
<title>Node31</title>
<g id="a_node31"><a xlink:href="redis__ipc_8c.html#ad761c2631d54b43ea0a5426813bc4dd1" target="_top" xlink:title=" ">
<polygon fill="white" stroke="black" points="629,-308.5 629,-326.5 699,-326.5 699,-308.5 629,-308.5"/>
<text text-anchor="middle" x="664" y="-315.3" font-family="Helvetica,sans-Serif" font-size="9.00">redis_ipc_init</text>
</a>
</g>
</g>
<!-- Node1&#45;&gt;Node31 -->
<g id="edge34" class="edge">
<title>Node1&#45;&gt;Node31</title>
<path fill="none" stroke="midnightblue" d="M799.32,-403.9C782.01,-385.2 751.56,-355.03 720,-336.5 713.29,-332.56 705.64,-329.27 698.23,-326.6"/>
<polygon fill="midnightblue" stroke="midnightblue" points="796.79,-406.32 806.11,-411.36 801.97,-401.61 796.79,-406.32"/>
</g>
<!-- Node32 -->
<g id="node32" class="node">
<title>Node32</title>
<g id="a_node32"><a xlink:href="redis__ipc_8c.html#a80ea8825dd17a3cff2530680c97d184a" target="_top" xlink:title=" ">
<polygon fill="white" stroke="black" points="615,-392.5 615,-410.5 713,-410.5 713,-392.5 615,-392.5"/>
<text text-anchor="middle" x="664" y="-399.3" font-family="Helvetica,sans-Serif" font-size="9.00">validate_redis_reply</text>
</a>
</g>
</g>
<!-- Node1&#45;&gt;Node32 -->
<g id="edge38" class="edge">
<title>Node1&#45;&gt;Node32</title>
<path fill="none" stroke="midnightblue" d="M745.86,-411.81C734.76,-410.4 723.48,-408.96 713,-407.62"/>
<polygon fill="midnightblue" stroke="midnightblue" points="745.6,-415.31 755.97,-413.1 746.49,-408.36 745.6,-415.31"/>
</g>
<!-- Node2&#45;&gt;Node3 -->
<g id="edge2" class="edge">
<title>Node2&#45;&gt;Node3</title>
<path fill="none" stroke="midnightblue" d="M485.13,-415.18C455.37,-430.62 407.79,-455.3 382.36,-468.5"/>
<polygon fill="midnightblue" stroke="midnightblue" points="486.85,-418.23 494.12,-410.52 483.63,-412.01 486.85,-418.23"/>
</g>
<!-- Node6 -->
<g id="node6" class="node">
<title>Node6</title>
<g id="a_node6"><a xlink:href="redis__ipc_8c.html#ab3dc5609833c201c4e9ebaa5e2e70a2f" target="_top" xlink:title=" ">
<polygon fill="white" stroke="black" points="329,-336.5 329,-354.5 399,-354.5 399,-336.5 329,-336.5"/>
<text text-anchor="middle" x="364" y="-343.3" font-family="Helvetica,sans-Serif" font-size="9.00">redis_publish</text>
</a>
</g>
</g>
<!-- Node2&#45;&gt;Node6 -->
<g id="edge5" class="edge">
<title>Node2&#45;&gt;Node6</title>
<path fill="none" stroke="midnightblue" d="M478.13,-388.74C450.91,-378.34 413.11,-363.89 388.85,-354.62"/>
<polygon fill="midnightblue" stroke="midnightblue" points="477.05,-392.08 487.64,-392.38 479.55,-385.54 477.05,-392.08"/>
</g>
<!-- Node10 -->
<g id="node10" class="node">
<title>Node10</title>
<g id="a_node10"><a xlink:href="redis__ipc_8c.html#ae826a119ee7ca11d9636c6f34b9a29e9" target="_top" xlink:title=" ">
<polygon fill="white" stroke="black" points="191,-168.5 191,-186.5 251,-186.5 251,-168.5 191,-168.5"/>
<text text-anchor="middle" x="221" y="-175.3" font-family="Helvetica,sans-Serif" font-size="9.00">redis_push</text>
</a>
</g>
</g>
<!-- Node2&#45;&gt;Node10 -->
<g id="edge11" class="edge">
<title>Node2&#45;&gt;Node10</title>
<path fill="none" stroke="midnightblue" d="M501.09,-383.05C479.12,-344.33 429.03,-257.35 417,-247.5 367.31,-206.84 292.11,-188.85 251.13,-181.68"/>
<polygon fill="midnightblue" stroke="midnightblue" points="498.29,-385.2 506.26,-392.18 504.38,-381.75 498.29,-385.2"/>
</g>
<!-- Node2&#45;&gt;Node11 -->
<g id="edge14" class="edge">
<title>Node2&#45;&gt;Node11</title>
<path fill="none" stroke="midnightblue" d="M504.95,-420.08C492.4,-453.52 462.14,-524.53 417,-569.5 408.58,-577.89 397.23,-584.59 387.28,-589.43"/>
<polygon fill="midnightblue" stroke="midnightblue" points="508.27,-421.22 508.4,-410.63 501.69,-418.82 508.27,-421.22"/>
</g>
<!-- Node2&#45;&gt;Node14 -->
<g id="edge17" class="edge">
<title>Node2&#45;&gt;Node14</title>
<path fill="none" stroke="midnightblue" d="M495.31,-417.96C464.52,-449.28 398.41,-516.52 374.16,-541.18"/>
<polygon fill="midnightblue" stroke="midnightblue" points="497.82,-420.41 502.34,-410.82 492.83,-415.5 497.82,-420.41"/>
</g>
<!-- Node17 -->
<g id="node17" class="node">
<title>Node17</title>
<g id="a_node17"><a xlink:href="redis__ipc_8c.html#a420fcd64722043e4bc0bb7f61a29d588" target="_top" xlink:title=" ">
<polygon fill="white" stroke="black" points="324,-392.5 324,-410.5 404,-410.5 404,-392.5 324,-392.5"/>
<text text-anchor="middle" x="364" y="-399.3" font-family="Helvetica,sans-Serif" font-size="9.00">redis_subscribe</text>
</a>
</g>
</g>
<!-- Node2&#45;&gt;Node17 -->
<g id="edge20" class="edge">
<title>Node2&#45;&gt;Node17</title>
<path fill="none" stroke="midnightblue" d="M462.03,-401.5C443.15,-401.5 421.9,-401.5 404.11,-401.5"/>
<polygon fill="midnightblue" stroke="midnightblue" points="462.24,-405 472.24,-401.5 462.24,-398 462.24,-405"/>
</g>
<!-- Node20 -->
<g id="node20" class="node">
<title>Node20</title>
<g id="a_node20"><a xlink:href="redis__ipc_8c.html#a40d3af6ed926711313712685503a1c91" target="_top" xlink:title=" ">
<polygon fill="white" stroke="black" points="319.5,-257.5 319.5,-275.5 408.5,-275.5 408.5,-257.5 319.5,-257.5"/>
<text text-anchor="middle" x="364" y="-264.3" font-family="Helvetica,sans-Serif" font-size="9.00">redis_unsubscribe</text>
</a>
</g>
</g>
<!-- Node2&#45;&gt;Node20 -->
<g id="edge23" class="edge">
<title>Node2&#45;&gt;Node20</title>
<path fill="none" stroke="midnightblue" d="M493.97,-385.34C463.05,-356.85 399.78,-298.55 375.14,-275.84"/>
<polygon fill="midnightblue" stroke="midnightblue" points="491.7,-388.02 501.43,-392.22 496.45,-382.87 491.7,-388.02"/>
</g>
<!-- Node23 -->
<g id="node23" class="node">
<title>Node23</title>
<g id="a_node23"><a xlink:href="redis__ipc_8c.html#ad0c6708404743ef74dddacc617fb8b8e" target="_top" xlink:title=" ">
<polygon fill="white" stroke="black" points="311,-126.5 311,-144.5 417,-144.5 417,-126.5 311,-126.5"/>
<text text-anchor="middle" x="364" y="-133.3" font-family="Helvetica,sans-Serif" font-size="9.00">redis_write_hash_field</text>
</a>
</g>
</g>
<!-- Node2&#45;&gt;Node23 -->
<g id="edge26" class="edge">
<title>Node2&#45;&gt;Node23</title>
<path fill="none" stroke="midnightblue" d="M500.2,-383.86C487.54,-363.59 466.98,-329.06 453,-297.5 432.5,-251.24 443.19,-232.79 417,-189.5 406.08,-171.46 388.16,-154.63 376.47,-144.7"/>
<polygon fill="midnightblue" stroke="midnightblue" points="497.26,-385.76 505.56,-392.35 503.18,-382.02 497.26,-385.76"/>
</g>
<!-- Node4 -->
<g id="node4" class="node">
<title>Node4</title>
<g id="a_node4"><a xlink:href="redis__ipc_8c.html#a69a016ee903b3d8873ada802806e615d" target="_top" xlink:title=" ">
<polygon fill="white" stroke="black" points="0,-439.5 0,-467.5 131,-467.5 131,-439.5 0,-439.5"/>
<text text-anchor="start" x="8" y="-456.3" font-family="Helvetica,sans-Serif" font-size="9.00">redis_ipc_receive_command</text>
<text text-anchor="middle" x="65.5" y="-446.3" font-family="Helvetica,sans-Serif" font-size="9.00">_blocking</text>
</a>
</g>
</g>
<!-- Node3&#45;&gt;Node4 -->
<g id="edge3" class="edge">
<title>Node3&#45;&gt;Node4</title>
<path fill="none" stroke="midnightblue" d="M325.81,-485.67C286.16,-493.09 221.68,-501.49 167,-491.5 141.86,-486.91 114.85,-476.35 95.16,-467.52"/>
<polygon fill="midnightblue" stroke="midnightblue" points="326.67,-489.06 335.82,-483.71 325.33,-482.19 326.67,-489.06"/>
</g>
<!-- Node5 -->
<g id="node5" class="node">
<title>Node5</title>
<g id="a_node5"><a xlink:href="redis__ipc_8c.html#afef4b2a08b3597ca1f62b7ead9490ef4" target="_top" xlink:title=" ">
<polygon fill="white" stroke="black" points="4.5,-331.5 4.5,-359.5 126.5,-359.5 126.5,-331.5 4.5,-331.5"/>
<text text-anchor="start" x="12.5" y="-348.3" font-family="Helvetica,sans-Serif" font-size="9.00">redis_ipc_send_command</text>
<text text-anchor="middle" x="65.5" y="-338.3" font-family="Helvetica,sans-Serif" font-size="9.00">_blocking</text>
</a>
</g>
</g>
<!-- Node3&#45;&gt;Node5 -->
<g id="edge4" class="edge">
<title>Node3&#45;&gt;Node5</title>
<path fill="none" stroke="midnightblue" d="M325.81,-481.66C284.65,-484.57 217.46,-484.15 167,-458.5 144.18,-446.9 97.81,-387.41 77.01,-359.71"/>
<polygon fill="midnightblue" stroke="midnightblue" points="326.25,-485.14 335.94,-480.84 325.69,-478.16 326.25,-485.14"/>
</g>
<!-- Node7 -->
<g id="node7" class="node">
<title>Node7</title>
<g id="a_node7"><a xlink:href="redis__ipc_8c.html#a66cdf2ae760d1acb487dd82c1392c12f" target="_top" xlink:title=" ">
<polygon fill="white" stroke="black" points="167.5,-336.5 167.5,-354.5 274.5,-354.5 274.5,-336.5 167.5,-336.5"/>
<text text-anchor="middle" x="221" y="-343.3" font-family="Helvetica,sans-Serif" font-size="9.00">redis_ipc_send_debug</text>
</a>
</g>
</g>
<!-- Node6&#45;&gt;Node7 -->
<g id="edge6" class="edge">
<title>Node6&#45;&gt;Node7</title>
<path fill="none" stroke="midnightblue" d="M318.54,-345.5C304.56,-345.5 289,-345.5 274.53,-345.5"/>
<polygon fill="midnightblue" stroke="midnightblue" points="318.87,-349 328.87,-345.5 318.87,-342 318.87,-349"/>
</g>
<!-- Node9 -->
<g id="node9" class="node">
<title>Node9</title>
<g id="a_node9"><a xlink:href="redis__ipc_8c.html#a9040f6af2f364ef8da41175eb6073693" target="_top" xlink:title=" ">
<polygon fill="white" stroke="black" points="169.5,-299.5 169.5,-317.5 272.5,-317.5 272.5,-299.5 169.5,-299.5"/>
<text text-anchor="middle" x="221" y="-306.3" font-family="Helvetica,sans-Serif" font-size="9.00">redis_ipc_send_event</text>
</a>
</g>
</g>
<!-- Node6&#45;&gt;Node9 -->
<g id="edge10" class="edge">
<title>Node6&#45;&gt;Node9</title>
<path fill="none" stroke="midnightblue" d="M318.96,-333.94C298.75,-328.64 275.16,-322.45 256.31,-317.5"/>
<polygon fill="midnightblue" stroke="midnightblue" points="318.31,-337.39 328.87,-336.54 320.08,-330.62 318.31,-337.39"/>
</g>
<!-- Node7&#45;&gt;Node4 -->
<g id="edge7" class="edge">
<title>Node7&#45;&gt;Node4</title>
<path fill="none" stroke="midnightblue" d="M179.24,-358.3C175,-360.16 170.84,-362.23 167,-364.5 131.5,-385.51 97.05,-420.02 79.16,-439.31"/>
<polygon fill="midnightblue" stroke="midnightblue" points="180.59,-361.53 188.56,-354.55 177.97,-355.03 180.59,-361.53"/>
</g>
<!-- Node7&#45;&gt;Node5 -->
<g id="edge8" class="edge">
<title>Node7&#45;&gt;Node5</title>
<path fill="none" stroke="midnightblue" d="M156.87,-345.5C146.84,-345.5 136.49,-345.5 126.54,-345.5"/>
<polygon fill="midnightblue" stroke="midnightblue" points="157.17,-349 167.17,-345.5 157.17,-342 157.17,-349"/>
</g>
<!-- Node8 -->
<g id="node8" class="node">
<title>Node8</title>
<g id="a_node8"><a xlink:href="redis__ipc_8c.html#aecff1f4edcb2ebf0654d0fff21e334a5" target="_top" xlink:title=" ">
<polygon fill="white" stroke="black" points="13.5,-231.5 13.5,-249.5 117.5,-249.5 117.5,-231.5 13.5,-231.5"/>
<text text-anchor="middle" x="65.5" y="-238.3" font-family="Helvetica,sans-Serif" font-size="9.00">redis_ipc_send_result</text>
</a>
</g>
</g>
<!-- Node7&#45;&gt;Node8 -->
<g id="edge9" class="edge">
<title>Node7&#45;&gt;Node8</title>
<path fill="none" stroke="midnightblue" d="M177.34,-332.66C173.76,-331.09 170.27,-329.37 167,-327.5 128.36,-305.35 90.86,-267.15 74.74,-249.69"/>
<polygon fill="midnightblue" stroke="midnightblue" points="176.32,-336.02 186.91,-336.46 178.91,-329.52 176.32,-336.02"/>
</g>
<!-- Node10&#45;&gt;Node5 -->
<g id="edge12" class="edge">
<title>Node10&#45;&gt;Node5</title>
<path fill="none" stroke="midnightblue" d="M181.43,-186.85C176.25,-189.14 171.26,-191.98 167,-195.5 142.12,-216.02 148.63,-231.5 131,-258.5 113.62,-285.1 91.08,-314.5 77.76,-331.4"/>
<polygon fill="midnightblue" stroke="midnightblue" points="182.72,-190.1 190.83,-183.28 180.24,-183.55 182.72,-190.1"/>
</g>
<!-- Node10&#45;&gt;Node8 -->
<g id="edge13" class="edge">
<title>Node10&#45;&gt;Node8</title>
<path fill="none" stroke="midnightblue" d="M182.1,-189.89C176.99,-191.7 171.85,-193.6 167,-195.5 138.17,-206.82 105.58,-221.83 85.54,-231.33"/>
<polygon fill="midnightblue" stroke="midnightblue" points="183.46,-193.12 191.77,-186.54 181.17,-186.51 183.46,-193.12"/>
</g>
<!-- Node12 -->
<g id="node12" class="node">
<title>Node12</title>
<g id="a_node12"><a xlink:href="redis__ipc_8c.html#a9da7fba1b0bb29372229c5c3a0fcb432" target="_top" xlink:title=" ">
<polygon fill="white" stroke="black" points="167.5,-638.5 167.5,-656.5 274.5,-656.5 274.5,-638.5 167.5,-638.5"/>
<text text-anchor="middle" x="221" y="-645.3" font-family="Helvetica,sans-Serif" font-size="9.00">redis_ipc_read_setting</text>
</a>
</g>
</g>
<!-- Node11&#45;&gt;Node12 -->
<g id="edge15" class="edge">
<title>Node11&#45;&gt;Node12</title>
<path fill="none" stroke="midnightblue" d="M328.04,-610.92C311.91,-616.62 292.49,-623.45 275,-629.5 266.46,-632.45 257.13,-635.64 248.71,-638.49"/>
<polygon fill="midnightblue" stroke="midnightblue" points="329.35,-614.17 337.61,-607.53 327.02,-607.57 329.35,-614.17"/>
</g>
<!-- Node13 -->
<g id="node13" class="node">
<title>Node13</title>
<g id="a_node13"><a xlink:href="redis__ipc_8c.html#af379c19188b781eb8837ff97de173c41" target="_top" xlink:title=" ">
<polygon fill="white" stroke="black" points="168.5,-675.5 168.5,-693.5 273.5,-693.5 273.5,-675.5 168.5,-675.5"/>
<text text-anchor="middle" x="221" y="-682.3" font-family="Helvetica,sans-Serif" font-size="9.00">redis_ipc_read_status</text>
</a>
</g>
</g>
<!-- Node11&#45;&gt;Node13 -->
<g id="edge16" class="edge">
<title>Node11&#45;&gt;Node13</title>
<path fill="none" stroke="midnightblue" d="M346.04,-614.39C329.14,-629.52 301.9,-652.06 275,-666.5 268.49,-669.99 261.18,-673 254.11,-675.5"/>
<polygon fill="midnightblue" stroke="midnightblue" points="348.43,-616.95 353.46,-607.62 343.71,-611.77 348.43,-616.95"/>
</g>
<!-- Node15 -->
<g id="node15" class="node">
<title>Node15</title>
<g id="a_node15"><a xlink:href="redis__ipc_8c.html#a4d32bc83ac8b8c46384c6c69a3a4e4a3" target="_top" xlink:title=" ">
<polygon fill="white" stroke="black" points="167.5,-544.5 167.5,-572.5 274.5,-572.5 274.5,-544.5 167.5,-544.5"/>
<text text-anchor="start" x="175.5" y="-561.3" font-family="Helvetica,sans-Serif" font-size="9.00">redis_ipc_read_setting</text>
<text text-anchor="middle" x="221" y="-551.3" font-family="Helvetica,sans-Serif" font-size="9.00">_field</text>
</a>
</g>
</g>
<!-- Node14&#45;&gt;Node15 -->
<g id="edge18" class="edge">
<title>Node14&#45;&gt;Node15</title>
<path fill="none" stroke="midnightblue" d="M301.07,-554.01C292.25,-554.51 283.26,-555.02 274.64,-555.51"/>
<polygon fill="midnightblue" stroke="midnightblue" points="301.51,-557.49 311.3,-553.43 301.12,-550.51 301.51,-557.49"/>
</g>
<!-- Node16 -->
<g id="node16" class="node">
<title>Node16</title>
<g id="a_node16"><a xlink:href="redis__ipc_8c.html#ac0d91847e135883a9dc48b57bdf463d7" target="_top" xlink:title=" ">
<polygon fill="white" stroke="black" points="168.5,-591.5 168.5,-619.5 273.5,-619.5 273.5,-591.5 168.5,-591.5"/>
<text text-anchor="start" x="176.5" y="-608.3" font-family="Helvetica,sans-Serif" font-size="9.00">redis_ipc_read_status</text>
<text text-anchor="middle" x="221" y="-598.3" font-family="Helvetica,sans-Serif" font-size="9.00">_field</text>
</a>
</g>
</g>
<!-- Node14&#45;&gt;Node16 -->
<g id="edge19" class="edge">
<title>Node14&#45;&gt;Node16</title>
<path fill="none" stroke="midnightblue" d="M330.3,-563.26C308.67,-571.69 280.3,-582.76 258.03,-591.45"/>
<polygon fill="midnightblue" stroke="midnightblue" points="331.67,-566.48 339.72,-559.58 329.13,-559.96 331.67,-566.48"/>
</g>
<!-- Node18 -->
<g id="node18" class="node">
<title>Node18</title>
<g id="a_node18"><a xlink:href="redis__ipc_8c.html#ac22692af167c24369831321eb5a1aa20" target="_top" xlink:title=" ">
<polygon fill="white" stroke="black" points="172.5,-373.5 172.5,-401.5 269.5,-401.5 269.5,-373.5 172.5,-373.5"/>
<text text-anchor="start" x="180.5" y="-390.3" font-family="Helvetica,sans-Serif" font-size="9.00">redis_ipc_subscribe</text>
<text text-anchor="middle" x="221" y="-380.3" font-family="Helvetica,sans-Serif" font-size="9.00">_debug</text>
</a>
</g>
</g>
<!-- Node17&#45;&gt;Node18 -->
<g id="edge21" class="edge">
<title>Node17&#45;&gt;Node18</title>
<path fill="none" stroke="midnightblue" d="M313.59,-396.59C299.31,-395.18 283.75,-393.63 269.59,-392.22"/>
<polygon fill="midnightblue" stroke="midnightblue" points="313.43,-400.09 323.72,-397.6 314.12,-393.13 313.43,-400.09"/>
</g>
<!-- Node19 -->
<g id="node19" class="node">
<title>Node19</title>
<g id="a_node19"><a xlink:href="redis__ipc_8c.html#a26390ed4efc19636cc62fc3adf9e3278" target="_top" xlink:title=" ">
<polygon fill="white" stroke="black" points="172.5,-420.5 172.5,-448.5 269.5,-448.5 269.5,-420.5 172.5,-420.5"/>
<text text-anchor="start" x="180.5" y="-437.3" font-family="Helvetica,sans-Serif" font-size="9.00">redis_ipc_subscribe</text>
<text text-anchor="middle" x="221" y="-427.3" font-family="Helvetica,sans-Serif" font-size="9.00">_events</text>
</a>
</g>
</g>
<!-- Node17&#45;&gt;Node19 -->
<g id="edge22" class="edge">
<title>Node17&#45;&gt;Node19</title>
<path fill="none" stroke="midnightblue" d="M314.64,-412.82C300.05,-416.23 284.07,-419.97 269.54,-423.37"/>
<polygon fill="midnightblue" stroke="midnightblue" points="315.53,-416.2 324.47,-410.52 313.94,-409.39 315.53,-416.2"/>
</g>
<!-- Node21 -->
<g id="node21" class="node">
<title>Node21</title>
<g id="a_node21"><a xlink:href="redis__ipc_8c.html#a55074bea4936100d8785f7ec9b5e83c9" target="_top" xlink:title=" ">
<polygon fill="white" stroke="black" points="168,-205.5 168,-233.5 274,-233.5 274,-205.5 168,-205.5"/>
<text text-anchor="start" x="176" y="-222.3" font-family="Helvetica,sans-Serif" font-size="9.00">redis_ipc_unsubscribe</text>
<text text-anchor="middle" x="221" y="-212.3" font-family="Helvetica,sans-Serif" font-size="9.00">_debug</text>
</a>
</g>
</g>
<!-- Node20&#45;&gt;Node21 -->
<g id="edge24" class="edge">
<title>Node20&#45;&gt;Node21</title>
<path fill="none" stroke="midnightblue" d="M326.29,-254.26C307.23,-247.91 283.87,-240.12 264.09,-233.53"/>
<polygon fill="midnightblue" stroke="midnightblue" points="325.22,-257.6 335.81,-257.44 327.43,-250.96 325.22,-257.6"/>
</g>
<!-- Node22 -->
<g id="node22" class="node">
<title>Node22</title>
<g id="a_node22"><a xlink:href="redis__ipc_8c.html#a88193bfef2bb1f36fa783c616d430c15" target="_top" xlink:title=" ">
<polygon fill="white" stroke="black" points="168,-252.5 168,-280.5 274,-280.5 274,-252.5 168,-252.5"/>
<text text-anchor="start" x="176" y="-269.3" font-family="Helvetica,sans-Serif" font-size="9.00">redis_ipc_unsubscribe</text>
<text text-anchor="middle" x="221" y="-259.3" font-family="Helvetica,sans-Serif" font-size="9.00">_events</text>
</a>
</g>
</g>
<!-- Node20&#45;&gt;Node22 -->
<g id="edge25" class="edge">
<title>Node20&#45;&gt;Node22</title>
<path fill="none" stroke="midnightblue" d="M308.91,-266.5C297.53,-266.5 285.54,-266.5 274.23,-266.5"/>
<polygon fill="midnightblue" stroke="midnightblue" points="309.16,-270 319.16,-266.5 309.16,-263 309.16,-270"/>
</g>
<!-- Node24 -->
<g id="node24" class="node">
<title>Node24</title>
<g id="a_node24"><a xlink:href="redis__ipc_8c.html#aef76ea4158d5075f2c2c0041ec62d1d5" target="_top" xlink:title=" ">
<polygon fill="white" stroke="black" points="167,-121.5 167,-149.5 275,-149.5 275,-121.5 167,-121.5"/>
<text text-anchor="start" x="175" y="-138.3" font-family="Helvetica,sans-Serif" font-size="9.00">redis_ipc_write_setting</text>
<text text-anchor="middle" x="221" y="-128.3" font-family="Helvetica,sans-Serif" font-size="9.00">_field</text>
</a>
</g>
</g>
<!-- Node23&#45;&gt;Node24 -->
<g id="edge27" class="edge">
<title>Node23&#45;&gt;Node24</title>
<path fill="none" stroke="midnightblue" d="M300.68,-135.5C292.22,-135.5 283.59,-135.5 275.3,-135.5"/>
<polygon fill="midnightblue" stroke="midnightblue" points="300.9,-139 310.9,-135.5 300.9,-132 300.9,-139"/>
</g>
<!-- Node25 -->
<g id="node25" class="node">
<title>Node25</title>
<g id="a_node25"><a xlink:href="redis__ipc_8c.html#a1ccd53107db1e7be09bb4e958975720e" target="_top" xlink:title=" ">
<polygon fill="white" stroke="black" points="168,-74.5 168,-102.5 274,-102.5 274,-74.5 168,-74.5"/>
<text text-anchor="start" x="176" y="-91.3" font-family="Helvetica,sans-Serif" font-size="9.00">redis_ipc_write_status</text>
<text text-anchor="middle" x="221" y="-81.3" font-family="Helvetica,sans-Serif" font-size="9.00">_field</text>
</a>
</g>
</g>
<!-- Node23&#45;&gt;Node25 -->
<g id="edge28" class="edge">
<title>Node23&#45;&gt;Node25</title>
<path fill="none" stroke="midnightblue" d="M326.29,-123.26C307.23,-116.91 283.87,-109.12 264.09,-102.53"/>
<polygon fill="midnightblue" stroke="midnightblue" points="325.22,-126.6 335.81,-126.44 327.43,-119.96 325.22,-126.6"/>
</g>
<!-- Node27 -->
<g id="node27" class="node">
<title>Node27</title>
<g id="a_node27"><a xlink:href="redis__ipc_8c.html#ab4f8e083ca57feea4be05c015b0eac9f" target="_top" xlink:title=" ">
<polygon fill="white" stroke="black" points="322,-37.5 322,-55.5 406,-55.5 406,-37.5 322,-37.5"/>
<text text-anchor="middle" x="364" y="-44.3" font-family="Helvetica,sans-Serif" font-size="9.00">redis_write_hash</text>
</a>
</g>
</g>
<!-- Node26&#45;&gt;Node27 -->
<g id="edge30" class="edge">
<title>Node26&#45;&gt;Node27</title>
<path fill="none" stroke="midnightblue" d="M501.9,-261.43C485.51,-230.93 450.61,-167.56 417,-116.5 402.18,-93.99 382.83,-68.94 372.41,-55.77"/>
<polygon fill="midnightblue" stroke="midnightblue" points="498.92,-263.28 506.72,-270.45 505.1,-259.98 498.92,-263.28"/>
</g>
<!-- Node28 -->
<g id="node28" class="node">
<title>Node28</title>
<g id="a_node28"><a xlink:href="redis__ipc_8c.html#a11db23f8f055e2d63fd8308c3d382da4" target="_top" xlink:title=" ">
<polygon fill="white" stroke="black" points="167,-0.5 167,-18.5 275,-18.5 275,-0.5 167,-0.5"/>
<text text-anchor="middle" x="221" y="-7.3" font-family="Helvetica,sans-Serif" font-size="9.00">redis_ipc_write_setting</text>
</a>
</g>
</g>
<!-- Node27&#45;&gt;Node28 -->
<g id="edge31" class="edge">
<title>Node27&#45;&gt;Node28</title>
<path fill="none" stroke="midnightblue" d="M318.68,-34.87C298.65,-29.61 275.34,-23.5 256.63,-18.59"/>
<polygon fill="midnightblue" stroke="midnightblue" points="317.95,-38.3 328.51,-37.45 319.72,-31.53 317.95,-38.3"/>
</g>
<!-- Node29 -->
<g id="node29" class="node">
<title>Node29</title>
<g id="a_node29"><a xlink:href="redis__ipc_8c.html#ab7d4be95434367c1b7dd526ebbab77a1" target="_top" xlink:title=" ">
<polygon fill="white" stroke="black" points="168,-37.5 168,-55.5 274,-55.5 274,-37.5 168,-37.5"/>
<text text-anchor="middle" x="221" y="-44.3" font-family="Helvetica,sans-Serif" font-size="9.00">redis_ipc_write_status</text>
</a>
</g>
</g>
<!-- Node27&#45;&gt;Node29 -->
<g id="edge32" class="edge">
<title>Node27&#45;&gt;Node29</title>
<path fill="none" stroke="midnightblue" d="M311.75,-46.5C299.46,-46.5 286.33,-46.5 274.01,-46.5"/>
<polygon fill="midnightblue" stroke="midnightblue" points="311.84,-50 321.84,-46.5 311.84,-43 311.84,-50"/>
</g>
<!-- Node32&#45;&gt;Node2 -->
<g id="edge39" class="edge">
<title>Node32&#45;&gt;Node2</title>
<path fill="none" stroke="midnightblue" d="M604.75,-401.5C587.26,-401.5 568.49,-401.5 552.55,-401.5"/>
<polygon fill="midnightblue" stroke="midnightblue" points="604.87,-405 614.87,-401.5 604.87,-398 604.87,-405"/>
</g>
<!-- Node32&#45;&gt;Node26 -->
<g id="edge40" class="edge">
<title>Node32&#45;&gt;Node26</title>
<path fill="none" stroke="midnightblue" d="M616.84,-388.42C613.76,-386.94 610.78,-385.3 608,-383.5 567.25,-357.11 532.75,-308.9 519.41,-288.75"/>
<polygon fill="midnightblue" stroke="midnightblue" points="615.71,-391.74 626.28,-392.43 618.44,-385.3 615.71,-391.74"/>
</g>
</g>
</svg>
