<?xml version="1.0" encoding="UTF-8" standalone="no"?>
<!DOCTYPE svg PUBLIC "-//W3C//DTD SVG 1.1//EN"
 "http://www.w3.org/Graphics/SVG/1.1/DTD/svg11.dtd">
<!-- Generated by graphviz version 2.43.0 (0)
 -->
<!-- Title: json_add_common_fields Pages: 1 -->
<svg width="360pt" height="46pt"
 viewBox="0.00 0.00 360.00 46.00" xmlns="http://www.w3.org/2000/svg" xmlns:xlink="http://www.w3.org/1999/xlink">
<g id="graph0" class="graph" transform="scale(1 1) rotate(0) translate(4 42)">
<title>json_add_common_fields</title>
<polygon fill="white" stroke="transparent" points="-4,4 -4,-42 356,-42 356,4 -4,4"/>
<!-- Node1 -->
<g id="node1" class="node">
<title>Node1</title>
<g id="a_node1"><a xlink:title=" ">
<polygon fill="#bfbfbf" stroke="black" points="0,-0.5 0,-18.5 129,-18.5 129,-0.5 0,-0.5"/>
<text text-anchor="middle" x="64.5" y="-7.3" font-family="Helvetica,sans-Serif" font-size="9.00">json_add_common_fields</text>
</a>
</g>
</g>
<!-- Node2 -->
<g id="node2" class="node">
<title>Node2</title>
<g id="a_node2"><a xlink:href="redis__ipc_8c.html#aa2a3ce97c0b6f3e83572446f3c92e541" target="_top" xlink:title=" ">
<polygon fill="white" stroke="black" points="165,-19.5 165,-37.5 272,-37.5 272,-19.5 165,-19.5"/>
<text text-anchor="middle" x="218.5" y="-26.3" font-family="Helvetica,sans-Serif" font-size="9.00">get_per_thread_info</text>
</a>
</g>
</g>
<!-- Node1&#45;&gt;Node2 -->
<g id="edge1" class="edge">
<title>Node1&#45;&gt;Node2</title>
<path fill="none" stroke="midnightblue" d="M129.08,-17.45C137.52,-18.5 146.18,-19.58 154.61,-20.64"/>
<polygon fill="midnightblue" stroke="midnightblue" points="154.4,-24.14 164.76,-21.91 155.27,-17.19 154.4,-24.14"/>
</g>
<!-- Node3 -->
<g id="node3" class="node">
<title>Node3</title>
<g id="a_node3"><a xlink:href="redis__ipc_8c.html#af0449193b7cded86e600f052d0aabd39" target="_top" xlink:title=" ">
<polygon fill="white" stroke="black" points="308,-0.5 308,-18.5 352,-18.5 352,-0.5 308,-0.5"/>
<text text-anchor="middle" x="330" y="-7.3" font-family="Helvetica,sans-Serif" font-size="9.00">gettid</text>
</a>
</g>
</g>
<!-- Node1&#45;&gt;Node3 -->
<g id="edge3" class="edge">
<title>Node1&#45;&gt;Node3</title>
<path fill="none" stroke="midnightblue" d="M129.29,-9.5C182.67,-9.5 256.55,-9.5 297.85,-9.5"/>
<polygon fill="midnightblue" stroke="midnightblue" points="297.86,-13 307.86,-9.5 297.86,-6 297.86,-13"/>
</g>
<!-- Node2&#45;&gt;Node3 -->
<g id="edge2" class="edge">
<title>Node2&#45;&gt;Node3</title>
<path fill="none" stroke="midnightblue" d="M271.68,-19.45C280.57,-17.9 289.55,-16.35 297.67,-14.94"/>
<polygon fill="midnightblue" stroke="midnightblue" points="298.54,-18.34 307.79,-13.18 297.34,-11.44 298.54,-18.34"/>
</g>
</g>
</svg>
