<?xml version="1.0" encoding="UTF-8" standalone="no"?>
<!DOCTYPE svg PUBLIC "-//W3C//DTD SVG 1.1//EN"
 "http://www.w3.org/Graphics/SVG/1.1/DTD/svg11.dtd">
<!-- Generated by graphviz version 2.43.0 (0)
 -->
<!-- Title: redis_push Pages: 1 -->
<svg width="608pt" height="123pt"
 viewBox="0.00 0.00 608.00 123.04" xmlns="http://www.w3.org/2000/svg" xmlns:xlink="http://www.w3.org/1999/xlink">
<g id="graph0" class="graph" transform="scale(1 1) rotate(0) translate(4 119.04)">
<title>redis_push</title>
<polygon fill="white" stroke="transparent" points="-4,4 -4,-119.04 604,-119.04 604,4 -4,4"/>
<!-- Node1 -->
<g id="node1" class="node">
<title>Node1</title>
<g id="a_node1"><a xlink:title=" ">
<polygon fill="#bfbfbf" stroke="black" points="0,-58.54 0,-76.54 65,-76.54 65,-58.54 0,-58.54"/>
<text text-anchor="middle" x="32.5" y="-65.34" font-family="Helvetica,sans-Serif" font-size="9.00">redis_push</text>
</a>
</g>
</g>
<!-- Node2 -->
<g id="node2" class="node">
<title>Node2</title>
<g id="a_node2"><a xlink:href="redis__ipc_8c.html#a1ca0a131f083c0547523e40cae96936e" target="_top" xlink:title=" ">
<polygon fill="white" stroke="black" points="226,-96.54 226,-114.54 355,-114.54 355,-96.54 226,-96.54"/>
<text text-anchor="middle" x="290.5" y="-103.34" font-family="Helvetica,sans-Serif" font-size="9.00">json_add_common_fields</text>
</a>
</g>
</g>
<!-- Node1&#45;&gt;Node2 -->
<g id="edge1" class="edge">
<title>Node1&#45;&gt;Node2</title>
<path fill="none" stroke="midnightblue" d="M65.15,-72.24C103.19,-77.88 168.2,-87.53 218.47,-94.99"/>
<polygon fill="midnightblue" stroke="midnightblue" points="218.23,-98.5 228.64,-96.5 219.26,-91.57 218.23,-98.5"/>
</g>
<!-- Node5 -->
<g id="node5" class="node">
<title>Node5</title>
<g id="a_node5"><a xlink:href="redis__ipc_8c.html#aefb4508c1883e7d4345b206076b19e5d" target="_top" xlink:title=" ">
<polygon fill="white" stroke="black" points="101,-39.54 101,-57.54 190,-57.54 190,-39.54 101,-39.54"/>
<text text-anchor="middle" x="145.5" y="-46.34" font-family="Helvetica,sans-Serif" font-size="9.00">redis_command</text>
</a>
</g>
</g>
<!-- Node1&#45;&gt;Node5 -->
<g id="edge5" class="edge">
<title>Node1&#45;&gt;Node5</title>
<path fill="none" stroke="midnightblue" d="M65.01,-62.14C73.11,-60.76 82.06,-59.23 90.94,-57.71"/>
<polygon fill="midnightblue" stroke="midnightblue" points="91.63,-61.14 100.89,-56 90.45,-54.24 91.63,-61.14"/>
</g>
<!-- Node3 -->
<g id="node3" class="node">
<title>Node3</title>
<g id="a_node3"><a xlink:href="redis__ipc_8c.html#aa2a3ce97c0b6f3e83572446f3c92e541" target="_top" xlink:title=" ">
<polygon fill="white" stroke="black" points="402,-58.54 402,-76.54 509,-76.54 509,-58.54 402,-58.54"/>
<text text-anchor="middle" x="455.5" y="-65.34" font-family="Helvetica,sans-Serif" font-size="9.00">get_per_thread_info</text>
</a>
</g>
</g>
<!-- Node2&#45;&gt;Node3 -->
<g id="edge2" class="edge">
<title>Node2&#45;&gt;Node3</title>
<path fill="none" stroke="midnightblue" d="M330.13,-96.53C352.78,-91.25 381.61,-84.53 405.81,-78.89"/>
<polygon fill="midnightblue" stroke="midnightblue" points="406.92,-82.22 415.87,-76.54 405.33,-75.41 406.92,-82.22"/>
</g>
<!-- Node4 -->
<g id="node4" class="node">
<title>Node4</title>
<g id="a_node4"><a xlink:href="redis__ipc_8c.html#af0449193b7cded86e600f052d0aabd39" target="_top" xlink:title=" ">
<polygon fill="white" stroke="black" points="556,-77.54 556,-95.54 600,-95.54 600,-77.54 556,-77.54"/>
<text text-anchor="middle" x="578" y="-84.34" font-family="Helvetica,sans-Serif" font-size="9.00">gettid</text>
</a>
</g>
</g>
<!-- Node2&#45;&gt;Node4 -->
<g id="edge4" class="edge">
<title>Node2&#45;&gt;Node4</title>
<path fill="none" stroke="midnightblue" d="M355.22,-101.3C414.4,-97.36 500.05,-91.66 545.66,-88.62"/>
<polygon fill="midnightblue" stroke="midnightblue" points="546.07,-92.1 555.82,-87.95 545.61,-85.12 546.07,-92.1"/>
</g>
<!-- Node3&#45;&gt;Node4 -->
<g id="edge3" class="edge">
<title>Node3&#45;&gt;Node4</title>
<path fill="none" stroke="midnightblue" d="M509,-75.82C521.5,-77.79 534.45,-79.83 545.65,-81.59"/>
<polygon fill="midnightblue" stroke="midnightblue" points="545.36,-85.09 555.78,-83.19 546.45,-78.18 545.36,-85.09"/>
</g>
<!-- Node5&#45;&gt;Node3 -->
<g id="edge6" class="edge">
<title>Node5&#45;&gt;Node3</title>
<path fill="none" stroke="midnightblue" d="M190.3,-51.24C242.97,-54.49 331.77,-59.97 391.72,-63.66"/>
<polygon fill="midnightblue" stroke="midnightblue" points="391.63,-67.17 401.82,-64.29 392.06,-60.18 391.63,-67.17"/>
</g>
<!-- Node6 -->
<g id="node6" class="node">
<title>Node6</title>
<g id="a_node6"><a xlink:href="redis__ipc_8c.html#a5e81feac565f9476476c5f042b2a5c9d" target="_top" xlink:title=" ">
<polygon fill="white" stroke="black" points="391,-1.54 391,-19.54 520,-19.54 520,-1.54 391,-1.54"/>
<text text-anchor="middle" x="455.5" y="-8.34" font-family="Helvetica,sans-Serif" font-size="9.00">stderr_debug_is_enabled</text>
</a>
</g>
</g>
<!-- Node5&#45;&gt;Node6 -->
<g id="edge7" class="edge">
<title>Node5&#45;&gt;Node6</title>
<path fill="none" stroke="midnightblue" d="M160.44,-39.49C175.79,-30.12 201.53,-16.08 226,-10.54 276.71,0.96 335.4,0.68 380.61,-2.33"/>
<polygon fill="midnightblue" stroke="midnightblue" points="380.39,-5.82 390.62,-3.05 380.9,1.16 380.39,-5.82"/>
</g>
<!-- Node7 -->
<g id="node7" class="node">
<title>Node7</title>
<g id="a_node7"><a xlink:href="redis__ipc_8c.html#ae88037651d88f63c62d32afd7e0fccf2" target="_top" xlink:title=" ">
<polygon fill="white" stroke="black" points="238,-20.54 238,-38.54 343,-38.54 343,-20.54 238,-20.54"/>
<text text-anchor="middle" x="290.5" y="-27.34" font-family="Helvetica,sans-Serif" font-size="9.00">validate_redis_reply</text>
</a>
</g>
</g>
<!-- Node5&#45;&gt;Node7 -->
<g id="edge8" class="edge">
<title>Node5&#45;&gt;Node7</title>
<path fill="none" stroke="midnightblue" d="M190.18,-42.73C202.04,-41.16 215.11,-39.42 227.77,-37.74"/>
<polygon fill="midnightblue" stroke="midnightblue" points="228.34,-41.19 237.79,-36.41 227.42,-34.26 228.34,-41.19"/>
</g>
<!-- Node7&#45;&gt;Node3 -->
<g id="edge9" class="edge">
<title>Node7&#45;&gt;Node3</title>
<path fill="none" stroke="midnightblue" d="M330.13,-38.54C352.78,-43.82 381.61,-50.55 405.81,-56.19"/>
<polygon fill="midnightblue" stroke="midnightblue" points="405.33,-59.67 415.87,-58.53 406.92,-52.85 405.33,-59.67"/>
</g>
<!-- Node7&#45;&gt;Node6 -->
<g id="edge10" class="edge">
<title>Node7&#45;&gt;Node6</title>
<path fill="none" stroke="midnightblue" d="M343.07,-23.53C355.07,-22.13 368.07,-20.61 380.81,-19.13"/>
<polygon fill="midnightblue" stroke="midnightblue" points="381.43,-22.58 390.95,-17.94 380.62,-15.63 381.43,-22.58"/>
</g>
</g>
</svg>
