<?xml version="1.0" encoding="UTF-8" standalone="no"?>
<!DOCTYPE svg PUBLIC "-//W3C//DTD SVG 1.1//EN"
 "http://www.w3.org/Graphics/SVG/1.1/DTD/svg11.dtd">
<!-- Generated by graphviz version 3.0.0 (20220413.0106)
 -->
<!-- Title: redis_ipc_unsubscribe_debug Pages: 1 -->
<svg width="717pt" height="100pt"
 viewBox="0.00 0.00 717.00 99.70" xmlns="http://www.w3.org/2000/svg" xmlns:xlink="http://www.w3.org/1999/xlink">
<g id="graph0" class="graph" transform="scale(1 1) rotate(0) translate(4 95.7)">
<title>redis_ipc_unsubscribe_debug</title>
<polygon fill="white" stroke="transparent" points="-4,4 -4,-95.7 713,-95.7 713,4 -4,4"/>
<!-- Node1 -->
<g id="node1" class="node">
<title>Node1</title>
<g id="a_node1"><a xlink:title=" ">
<polygon fill="#bfbfbf" stroke="black" points="0,-52.5 0,-80.5 106,-80.5 106,-52.5 0,-52.5"/>
<text text-anchor="start" x="8" y="-69.3" font-family="Helvetica,sans-Serif" font-size="9.00">redis_ipc_unsubscribe</text>
<text text-anchor="middle" x="53" y="-59.3" font-family="Helvetica,sans-Serif" font-size="9.00">_debug</text>
</a>
</g>
</g>
<!-- Node2 -->
<g id="node2" class="node">
<title>Node2</title>
<g id="a_node2"><a xlink:href="redis__ipc_8c.html#a7b930ec420c7b4bf2df1469aca77f93d" target="_top" xlink:title=" ">
<polygon fill="white" stroke="black" points="528.5,-57.5 528.5,-75.5 623.5,-75.5 623.5,-57.5 528.5,-57.5"/>
<text text-anchor="middle" x="576" y="-64.3" font-family="Helvetica,sans-Serif" font-size="9.00">get_per_thread_info</text>
</a>
</g>
</g>
<!-- Node1&#45;&gt;Node2 -->
<g id="edge1" class="edge">
<title>Node1&#45;&gt;Node2</title>
<path fill="none" stroke="midnightblue" d="M106.29,-79.7C117.96,-82.11 130.34,-84.26 142,-85.5 276.49,-99.85 435.6,-84.68 518.44,-74.37"/>
<polygon fill="midnightblue" stroke="midnightblue" points="518.92,-77.84 528.4,-73.11 518.04,-70.9 518.92,-77.84"/>
</g>
<!-- Node4 -->
<g id="node4" class="node">
<title>Node4</title>
<g id="a_node4"><a xlink:href="redis__ipc_8c.html#a67c9dd84d2426ab58a759dbdfd223267" target="_top" xlink:title=" ">
<polygon fill="white" stroke="black" points="161,-57.5 161,-75.5 212,-75.5 212,-57.5 161,-57.5"/>
<text text-anchor="middle" x="186.5" y="-64.3" font-family="Helvetica,sans-Serif" font-size="9.00">ipc_path</text>
</a>
</g>
</g>
<!-- Node1&#45;&gt;Node4 -->
<g id="edge3" class="edge">
<title>Node1&#45;&gt;Node4</title>
<path fill="none" stroke="midnightblue" d="M106.35,-66.5C121.16,-66.5 136.91,-66.5 150.43,-66.5"/>
<polygon fill="midnightblue" stroke="midnightblue" points="150.74,-70 160.74,-66.5 150.74,-63 150.74,-70"/>
</g>
<!-- Node5 -->
<g id="node5" class="node">
<title>Node5</title>
<g id="a_node5"><a xlink:href="redis__ipc_8c.html#a40d3af6ed926711313712685503a1c91" target="_top" xlink:title=" ">
<polygon fill="white" stroke="black" points="142,-20.5 142,-38.5 231,-38.5 231,-20.5 142,-20.5"/>
<text text-anchor="middle" x="186.5" y="-27.3" font-family="Helvetica,sans-Serif" font-size="9.00">redis_unsubscribe</text>
</a>
</g>
</g>
<!-- Node1&#45;&gt;Node5 -->
<g id="edge4" class="edge">
<title>Node1&#45;&gt;Node5</title>
<path fill="none" stroke="midnightblue" d="M104.09,-52.41C117.15,-48.73 131.08,-44.81 143.66,-41.27"/>
<polygon fill="midnightblue" stroke="midnightblue" points="144.74,-44.6 153.42,-38.53 142.84,-37.87 144.74,-44.6"/>
</g>
<!-- Node3 -->
<g id="node3" class="node">
<title>Node3</title>
<g id="a_node3"><a xlink:href="redis__ipc_8c.html#af0449193b7cded86e600f052d0aabd39" target="_top" xlink:title=" ">
<polygon fill="white" stroke="black" points="671,-57.5 671,-75.5 709,-75.5 709,-57.5 671,-57.5"/>
<text text-anchor="middle" x="690" y="-64.3" font-family="Helvetica,sans-Serif" font-size="9.00">gettid</text>
</a>
</g>
</g>
<!-- Node2&#45;&gt;Node3 -->
<g id="edge2" class="edge">
<title>Node2&#45;&gt;Node3</title>
<path fill="none" stroke="midnightblue" d="M623.53,-66.5C636.19,-66.5 649.51,-66.5 660.82,-66.5"/>
<polygon fill="midnightblue" stroke="midnightblue" points="660.94,-70 670.94,-66.5 660.94,-63 660.94,-70"/>
</g>
<!-- Node6 -->
<g id="node6" class="node">
<title>Node6</title>
<g id="a_node6"><a xlink:href="redis__ipc_8c.html#afab35d4c40b4b1866fc0239bb885a39b" target="_top" xlink:title=" ">
<polygon fill="white" stroke="black" points="267,-19.5 267,-37.5 347,-37.5 347,-19.5 267,-19.5"/>
<text text-anchor="middle" x="307" y="-26.3" font-family="Helvetica,sans-Serif" font-size="9.00">redis_command</text>
</a>
</g>
</g>
<!-- Node5&#45;&gt;Node6 -->
<g id="edge5" class="edge">
<title>Node5&#45;&gt;Node6</title>
<path fill="none" stroke="midnightblue" d="M231.29,-29.13C239.54,-29.06 248.22,-28.99 256.62,-28.92"/>
<polygon fill="midnightblue" stroke="midnightblue" points="256.73,-32.42 266.7,-28.83 256.67,-25.42 256.73,-32.42"/>
</g>
<!-- Node6&#45;&gt;Node2 -->
<g id="edge6" class="edge">
<title>Node6&#45;&gt;Node2</title>
<path fill="none" stroke="midnightblue" d="M341.41,-37.51C354.32,-40.74 369.27,-44.15 383,-46.5 427.99,-54.21 479.45,-59.37 517.77,-62.52"/>
<polygon fill="midnightblue" stroke="midnightblue" points="517.96,-66.05 528.21,-63.36 518.52,-59.07 517.96,-66.05"/>
</g>
<!-- Node7 -->
<g id="node7" class="node">
<title>Node7</title>
<g id="a_node7"><a xlink:href="redis__ipc_8c.html#a5e81feac565f9476476c5f042b2a5c9d" target="_top" xlink:title=" ">
<polygon fill="white" stroke="black" points="517,-0.5 517,-18.5 635,-18.5 635,-0.5 517,-0.5"/>
<text text-anchor="middle" x="576" y="-7.3" font-family="Helvetica,sans-Serif" font-size="9.00">stderr_debug_is_enabled</text>
</a>
</g>
</g>
<!-- Node6&#45;&gt;Node7 -->
<g id="edge7" class="edge">
<title>Node6&#45;&gt;Node7</title>
<path fill="none" stroke="midnightblue" d="M336.53,-19.5C350.4,-15.58 367.41,-11.44 383,-9.5 423.82,-4.41 469.89,-4.23 506.68,-5.4"/>
<polygon fill="midnightblue" stroke="midnightblue" points="506.68,-8.91 516.79,-5.77 506.93,-1.91 506.68,-8.91"/>
</g>
<!-- Node8 -->
<g id="node8" class="node">
<title>Node8</title>
<g id="a_node8"><a xlink:href="redis__ipc_8c.html#a80ea8825dd17a3cff2530680c97d184a" target="_top" xlink:title=" ">
<polygon fill="white" stroke="black" points="383,-19.5 383,-37.5 481,-37.5 481,-19.5 383,-19.5"/>
<text text-anchor="middle" x="432" y="-26.3" font-family="Helvetica,sans-Serif" font-size="9.00">validate_redis_reply</text>
</a>
</g>
</g>
<!-- Node6&#45;&gt;Node8 -->
<g id="edge8" class="edge">
<title>Node6&#45;&gt;Node8</title>
<path fill="none" stroke="midnightblue" d="M347.26,-28.5C355.34,-28.5 364.02,-28.5 372.62,-28.5"/>
<polygon fill="midnightblue" stroke="midnightblue" points="372.63,-32 382.63,-28.5 372.63,-25 372.63,-32"/>
</g>
<!-- Node8&#45;&gt;Node2 -->
<g id="edge9" class="edge">
<title>Node8&#45;&gt;Node2</title>
<path fill="none" stroke="midnightblue" d="M466.65,-37.51C485.96,-42.67 510.43,-49.22 531.22,-54.79"/>
<polygon fill="midnightblue" stroke="midnightblue" points="530.53,-58.22 541.1,-57.43 532.34,-51.46 530.53,-58.22"/>
</g>
<!-- Node8&#45;&gt;Node7 -->
<g id="edge10" class="edge">
<title>Node8&#45;&gt;Node7</title>
<path fill="none" stroke="midnightblue" d="M481.07,-22.07C489.34,-20.96 498.08,-19.79 506.76,-18.63"/>
<polygon fill="midnightblue" stroke="midnightblue" points="507.44,-22.07 516.89,-17.28 506.52,-15.13 507.44,-22.07"/>
</g>
</g>
</svg>
