<?xml version="1.0" encoding="UTF-8" standalone="no"?>
<!DOCTYPE svg PUBLIC "-//W3C//DTD SVG 1.1//EN"
 "http://www.w3.org/Graphics/SVG/1.1/DTD/svg11.dtd">
<!-- Generated by graphviz version 3.0.0 (20220413.0106)
 -->
<!-- Title: redis_ipc_write_status_field Pages: 1 -->
<svg width="734pt" height="100pt"
 viewBox="0.00 0.00 734.00 100.04" xmlns="http://www.w3.org/2000/svg" xmlns:xlink="http://www.w3.org/1999/xlink">
<g id="graph0" class="graph" transform="scale(1 1) rotate(0) translate(4 96.04)">
<title>redis_ipc_write_status_field</title>
<polygon fill="white" stroke="transparent" points="-4,4 -4,-96.04 730,-96.04 730,4 -4,4"/>
<!-- Node1 -->
<g id="node1" class="node">
<title>Node1</title>
<g id="a_node1"><a xlink:title=" ">
<polygon fill="#bfbfbf" stroke="black" points="0,-52.5 0,-80.5 106,-80.5 106,-52.5 0,-52.5"/>
<text text-anchor="start" x="8" y="-69.3" font-family="Helvetica,sans-Serif" font-size="9.00">redis_ipc_write_status</text>
<text text-anchor="middle" x="53" y="-59.3" font-family="Helvetica,sans-Serif" font-size="9.00">_field</text>
</a>
</g>
</g>
<!-- Node2 -->
<g id="node2" class="node">
<title>Node2</title>
<g id="a_node2"><a xlink:href="redis__ipc_8c.html#a7b930ec420c7b4bf2df1469aca77f93d" target="_top" xlink:title=" ">
<polygon fill="white" stroke="black" points="545.5,-57.5 545.5,-75.5 640.5,-75.5 640.5,-57.5 545.5,-57.5"/>
<text text-anchor="middle" x="593" y="-64.3" font-family="Helvetica,sans-Serif" font-size="9.00">get_per_thread_info</text>
</a>
</g>
</g>
<!-- Node1&#45;&gt;Node2 -->
<g id="edge1" class="edge">
<title>Node1&#45;&gt;Node2</title>
<path fill="none" stroke="midnightblue" d="M106.29,-79.7C117.96,-82.11 130.34,-84.26 142,-85.5 282.84,-100.53 449.66,-84.78 535.19,-74.28"/>
<polygon fill="midnightblue" stroke="midnightblue" points="535.72,-77.74 545.21,-73.03 534.85,-70.8 535.72,-77.74"/>
</g>
<!-- Node4 -->
<g id="node4" class="node">
<title>Node4</title>
<g id="a_node4"><a xlink:href="redis__ipc_8c.html#a67c9dd84d2426ab58a759dbdfd223267" target="_top" xlink:title=" ">
<polygon fill="white" stroke="black" points="169.5,-57.5 169.5,-75.5 220.5,-75.5 220.5,-57.5 169.5,-57.5"/>
<text text-anchor="middle" x="195" y="-64.3" font-family="Helvetica,sans-Serif" font-size="9.00">ipc_path</text>
</a>
</g>
</g>
<!-- Node1&#45;&gt;Node4 -->
<g id="edge3" class="edge">
<title>Node1&#45;&gt;Node4</title>
<path fill="none" stroke="midnightblue" d="M106.13,-66.5C123.86,-66.5 143.23,-66.5 159.26,-66.5"/>
<polygon fill="midnightblue" stroke="midnightblue" points="159.26,-70 169.26,-66.5 159.26,-63 159.26,-70"/>
</g>
<!-- Node5 -->
<g id="node5" class="node">
<title>Node5</title>
<g id="a_node5"><a xlink:href="redis__ipc_8c.html#ad0c6708404743ef74dddacc617fb8b8e" target="_top" xlink:title=" ">
<polygon fill="white" stroke="black" points="142,-20.5 142,-38.5 248,-38.5 248,-20.5 142,-20.5"/>
<text text-anchor="middle" x="195" y="-27.3" font-family="Helvetica,sans-Serif" font-size="9.00">redis_write_hash_field</text>
</a>
</g>
</g>
<!-- Node1&#45;&gt;Node5 -->
<g id="edge4" class="edge">
<title>Node1&#45;&gt;Node5</title>
<path fill="none" stroke="midnightblue" d="M106.13,-52.72C120.52,-48.92 135.99,-44.83 149.87,-41.16"/>
<polygon fill="midnightblue" stroke="midnightblue" points="150.89,-44.51 159.67,-38.57 149.11,-37.74 150.89,-44.51"/>
</g>
<!-- Node3 -->
<g id="node3" class="node">
<title>Node3</title>
<g id="a_node3"><a xlink:href="redis__ipc_8c.html#af0449193b7cded86e600f052d0aabd39" target="_top" xlink:title=" ">
<polygon fill="white" stroke="black" points="688,-57.5 688,-75.5 726,-75.5 726,-57.5 688,-57.5"/>
<text text-anchor="middle" x="707" y="-64.3" font-family="Helvetica,sans-Serif" font-size="9.00">gettid</text>
</a>
</g>
</g>
<!-- Node2&#45;&gt;Node3 -->
<g id="edge2" class="edge">
<title>Node2&#45;&gt;Node3</title>
<path fill="none" stroke="midnightblue" d="M640.53,-66.5C653.19,-66.5 666.51,-66.5 677.82,-66.5"/>
<polygon fill="midnightblue" stroke="midnightblue" points="677.94,-70 687.94,-66.5 677.94,-63 677.94,-70"/>
</g>
<!-- Node6 -->
<g id="node6" class="node">
<title>Node6</title>
<g id="a_node6"><a xlink:href="redis__ipc_8c.html#afab35d4c40b4b1866fc0239bb885a39b" target="_top" xlink:title=" ">
<polygon fill="white" stroke="black" points="284,-19.5 284,-37.5 364,-37.5 364,-19.5 284,-19.5"/>
<text text-anchor="middle" x="324" y="-26.3" font-family="Helvetica,sans-Serif" font-size="9.00">redis_command</text>
</a>
</g>
</g>
<!-- Node5&#45;&gt;Node6 -->
<g id="edge5" class="edge">
<title>Node5&#45;&gt;Node6</title>
<path fill="none" stroke="midnightblue" d="M248.02,-29.09C256.5,-29.02 265.25,-28.95 273.66,-28.89"/>
<polygon fill="midnightblue" stroke="midnightblue" points="273.73,-32.39 283.7,-28.81 273.67,-25.39 273.73,-32.39"/>
</g>
<!-- Node6&#45;&gt;Node2 -->
<g id="edge6" class="edge">
<title>Node6&#45;&gt;Node2</title>
<path fill="none" stroke="midnightblue" d="M358.41,-37.51C371.32,-40.74 386.27,-44.15 400,-46.5 444.99,-54.21 496.45,-59.37 534.77,-62.52"/>
<polygon fill="midnightblue" stroke="midnightblue" points="534.96,-66.05 545.21,-63.36 535.52,-59.07 534.96,-66.05"/>
</g>
<!-- Node7 -->
<g id="node7" class="node">
<title>Node7</title>
<g id="a_node7"><a xlink:href="redis__ipc_8c.html#a5e81feac565f9476476c5f042b2a5c9d" target="_top" xlink:title=" ">
<polygon fill="white" stroke="black" points="534,-0.5 534,-18.5 652,-18.5 652,-0.5 534,-0.5"/>
<text text-anchor="middle" x="593" y="-7.3" font-family="Helvetica,sans-Serif" font-size="9.00">stderr_debug_is_enabled</text>
</a>
</g>
</g>
<!-- Node6&#45;&gt;Node7 -->
<g id="edge7" class="edge">
<title>Node6&#45;&gt;Node7</title>
<path fill="none" stroke="midnightblue" d="M353.53,-19.5C367.4,-15.58 384.41,-11.44 400,-9.5 440.82,-4.41 486.89,-4.23 523.68,-5.4"/>
<polygon fill="midnightblue" stroke="midnightblue" points="523.68,-8.91 533.79,-5.77 523.93,-1.91 523.68,-8.91"/>
</g>
<!-- Node8 -->
<g id="node8" class="node">
<title>Node8</title>
<g id="a_node8"><a xlink:href="redis__ipc_8c.html#a80ea8825dd17a3cff2530680c97d184a" target="_top" xlink:title=" ">
<polygon fill="white" stroke="black" points="400,-19.5 400,-37.5 498,-37.5 498,-19.5 400,-19.5"/>
<text text-anchor="middle" x="449" y="-26.3" font-family="Helvetica,sans-Serif" font-size="9.00">validate_redis_reply</text>
</a>
</g>
</g>
<!-- Node6&#45;&gt;Node8 -->
<g id="edge8" class="edge">
<title>Node6&#45;&gt;Node8</title>
<path fill="none" stroke="midnightblue" d="M364.26,-28.5C372.34,-28.5 381.02,-28.5 389.62,-28.5"/>
<polygon fill="midnightblue" stroke="midnightblue" points="389.63,-32 399.63,-28.5 389.63,-25 389.63,-32"/>
</g>
<!-- Node8&#45;&gt;Node2 -->
<g id="edge9" class="edge">
<title>Node8&#45;&gt;Node2</title>
<path fill="none" stroke="midnightblue" d="M483.65,-37.51C502.96,-42.67 527.43,-49.22 548.22,-54.79"/>
<polygon fill="midnightblue" stroke="midnightblue" points="547.53,-58.22 558.1,-57.43 549.34,-51.46 547.53,-58.22"/>
</g>
<!-- Node8&#45;&gt;Node7 -->
<g id="edge10" class="edge">
<title>Node8&#45;&gt;Node7</title>
<path fill="none" stroke="midnightblue" d="M498.07,-22.07C506.34,-20.96 515.08,-19.79 523.76,-18.63"/>
<polygon fill="midnightblue" stroke="midnightblue" points="524.44,-22.07 533.89,-17.28 523.52,-15.13 524.44,-22.07"/>
</g>
</g>
</svg>
