<?xml version="1.0" encoding="UTF-8" standalone="no"?>
<!DOCTYPE svg PUBLIC "-//W3C//DTD SVG 1.1//EN"
 "http://www.w3.org/Graphics/SVG/1.1/DTD/svg11.dtd">
<!-- Generated by graphviz version 3.0.0 (20220413.0106)
 -->
<!-- Title: gettid Pages: 1 -->
<svg width="933pt" height="1042pt"
 viewBox="0.00 0.00 933.00 1042.22" xmlns="http://www.w3.org/2000/svg" xmlns:xlink="http://www.w3.org/1999/xlink">
<g id="graph0" class="graph" transform="scale(1 1) rotate(0) translate(4 1038.22)">
<title>gettid</title>
<polygon fill="white" stroke="transparent" points="-4,4 -4,-1038.22 929,-1038.22 929,4 -4,4"/>
<!-- Node1 -->
<g id="node1" class="node">
<title>Node1</title>
<g id="a_node1"><a xlink:title=" ">
<polygon fill="#bfbfbf" stroke="black" points="887,-532.22 887,-550.22 925,-550.22 925,-532.22 887,-532.22"/>
<text text-anchor="middle" x="906" y="-539.02" font-family="Helvetica,sans-Serif" font-size="9.00">gettid</text>
</a>
</g>
</g>
<!-- Node2 -->
<g id="node2" class="node">
<title>Node2</title>
<g id="a_node2"><a xlink:href="redis__ipc_8c.html#a7b930ec420c7b4bf2df1469aca77f93d" target="_top" xlink:title=" ">
<polygon fill="white" stroke="black" points="756,-532.22 756,-550.22 851,-550.22 851,-532.22 756,-532.22"/>
<text text-anchor="middle" x="803.5" y="-539.02" font-family="Helvetica,sans-Serif" font-size="9.00">get_per_thread_info</text>
</a>
</g>
</g>
<!-- Node1&#45;&gt;Node2 -->
<g id="edge1" class="edge">
<title>Node1&#45;&gt;Node2</title>
<path fill="none" stroke="midnightblue" d="M876.48,-541.22C868.61,-541.22 859.87,-541.22 851.26,-541.22"/>
<polygon fill="midnightblue" stroke="midnightblue" points="876.57,-544.72 886.57,-541.22 876.57,-537.72 876.57,-544.72"/>
</g>
<!-- Node3 -->
<g id="node3" class="node">
<title>Node3</title>
<g id="a_node3"><a xlink:href="redis__ipc_8c.html#a1ca0a131f083c0547523e40cae96936e" target="_top" xlink:title=" ">
<polygon fill="white" stroke="black" points="453.5,-811.22 453.5,-829.22 571.5,-829.22 571.5,-811.22 453.5,-811.22"/>
<text text-anchor="middle" x="512.5" y="-818.02" font-family="Helvetica,sans-Serif" font-size="9.00">json_add_common_fields</text>
</a>
</g>
</g>
<!-- Node1&#45;&gt;Node3 -->
<g id="edge58" class="edge">
<title>Node1&#45;&gt;Node3</title>
<path fill="none" stroke="midnightblue" d="M900.92,-560.46C887.4,-618.83 838,-794.03 720,-862.22 655.38,-899.56 562.62,-850.72 527.6,-829.33"/>
<polygon fill="midnightblue" stroke="midnightblue" points="904.4,-560.93 903.16,-550.41 897.57,-559.41 904.4,-560.93"/>
</g>
<!-- Node34 -->
<g id="node34" class="node">
<title>Node34</title>
<g id="a_node34"><a xlink:href="redis__ipc_8c.html#ad761c2631d54b43ea0a5426813bc4dd1" target="_top" xlink:title=" ">
<polygon fill="white" stroke="black" points="768.5,-495.22 768.5,-513.22 838.5,-513.22 838.5,-495.22 768.5,-495.22"/>
<text text-anchor="middle" x="803.5" y="-502.02" font-family="Helvetica,sans-Serif" font-size="9.00">redis_ipc_init</text>
</a>
</g>
</g>
<!-- Node1&#45;&gt;Node34 -->
<g id="edge59" class="edge">
<title>Node1&#45;&gt;Node34</title>
<path fill="none" stroke="midnightblue" d="M876.82,-530.84C861.87,-525.34 843.66,-518.63 829.25,-513.33"/>
<polygon fill="midnightblue" stroke="midnightblue" points="875.97,-534.26 886.57,-534.43 878.39,-527.69 875.97,-534.26"/>
</g>
<!-- Node2&#45;&gt;Node3 -->
<g id="edge2" class="edge">
<title>Node2&#45;&gt;Node3</title>
<path fill="none" stroke="midnightblue" d="M801.58,-560.43C798.38,-604.83 784.04,-715.13 720,-772.22 698.3,-791.57 624.72,-805.32 571.57,-813.01"/>
<polygon fill="midnightblue" stroke="midnightblue" points="805.08,-560.6 802.19,-550.41 798.09,-560.18 805.08,-560.6"/>
</g>
<!-- Node5 -->
<g id="node5" class="node">
<title>Node5</title>
<g id="a_node5"><a xlink:href="redis__ipc_8c.html#a66cdf2ae760d1acb487dd82c1392c12f" target="_top" xlink:title=" ">
<polygon fill="white" stroke="black" points="167.5,-835.22 167.5,-853.22 274.5,-853.22 274.5,-835.22 167.5,-835.22"/>
<text text-anchor="middle" x="221" y="-842.02" font-family="Helvetica,sans-Serif" font-size="9.00">redis_ipc_send_debug</text>
</a>
</g>
</g>
<!-- Node2&#45;&gt;Node5 -->
<g id="edge44" class="edge">
<title>Node2&#45;&gt;Node5</title>
<path fill="none" stroke="midnightblue" d="M800.56,-560.68C793.76,-624.33 768.8,-824.37 720,-862.22 648.18,-917.91 401.44,-871.27 311,-862.22 293.43,-860.46 274.2,-856.79 258.12,-853.23"/>
<polygon fill="midnightblue" stroke="midnightblue" points="804.07,-560.76 801.62,-550.45 797.1,-560.04 804.07,-560.76"/>
</g>
<!-- Node6 -->
<g id="node6" class="node">
<title>Node6</title>
<g id="a_node6"><a xlink:href="redis__ipc_8c.html#a69a016ee903b3d8873ada802806e615d" target="_top" xlink:title=" ">
<polygon fill="white" stroke="black" points="0,-877.22 0,-905.22 131,-905.22 131,-877.22 0,-877.22"/>
<text text-anchor="start" x="8" y="-894.02" font-family="Helvetica,sans-Serif" font-size="9.00">redis_ipc_receive_command</text>
<text text-anchor="middle" x="65.5" y="-884.02" font-family="Helvetica,sans-Serif" font-size="9.00">_blocking</text>
</a>
</g>
</g>
<!-- Node2&#45;&gt;Node6 -->
<g id="edge42" class="edge">
<title>Node2&#45;&gt;Node6</title>
<path fill="none" stroke="midnightblue" d="M800.64,-560.68C793.56,-631.23 766.34,-872.51 720,-932.22 657.24,-1013.08 615.86,-1034.22 513.5,-1034.22 513.5,-1034.22 513.5,-1034.22 363,-1034.22 245.27,-1034.22 125.02,-941.62 82.54,-905.45"/>
<polygon fill="midnightblue" stroke="midnightblue" points="804.14,-560.84 801.63,-550.55 797.17,-560.16 804.14,-560.84"/>
</g>
<!-- Node7 -->
<g id="node7" class="node">
<title>Node7</title>
<g id="a_node7"><a xlink:href="redis__ipc_8c.html#afef4b2a08b3597ca1f62b7ead9490ef4" target="_top" xlink:title=" ">
<polygon fill="white" stroke="black" points="4.5,-830.22 4.5,-858.22 126.5,-858.22 126.5,-830.22 4.5,-830.22"/>
<text text-anchor="start" x="12.5" y="-847.02" font-family="Helvetica,sans-Serif" font-size="9.00">redis_ipc_send_command</text>
<text text-anchor="middle" x="65.5" y="-837.02" font-family="Helvetica,sans-Serif" font-size="9.00">_blocking</text>
</a>
</g>
</g>
<!-- Node2&#45;&gt;Node7 -->
<g id="edge43" class="edge">
<title>Node2&#45;&gt;Node7</title>
<path fill="none" stroke="midnightblue" d="M800.79,-560.83C794.51,-627.81 770.47,-845.77 720,-890.22 627.44,-971.72 272.28,-1001.46 167,-937.22 137.14,-918.99 157.32,-890.26 131,-867.22 127.06,-863.77 122.58,-860.83 117.84,-858.32"/>
<polygon fill="midnightblue" stroke="midnightblue" points="804.31,-560.75 801.73,-550.47 797.34,-560.12 804.31,-560.75"/>
</g>
<!-- Node8 -->
<g id="node8" class="node">
<title>Node8</title>
<g id="a_node8"><a xlink:href="redis__ipc_8c.html#aecff1f4edcb2ebf0654d0fff21e334a5" target="_top" xlink:title=" ">
<polygon fill="white" stroke="black" points="13.5,-645.22 13.5,-663.22 117.5,-663.22 117.5,-645.22 13.5,-645.22"/>
<text text-anchor="middle" x="65.5" y="-652.02" font-family="Helvetica,sans-Serif" font-size="9.00">redis_ipc_send_result</text>
</a>
</g>
</g>
<!-- Node2&#45;&gt;Node8 -->
<g id="edge46" class="edge">
<title>Node2&#45;&gt;Node8</title>
<path fill="none" stroke="midnightblue" d="M759.12,-525.76C758,-524.66 756.95,-523.48 756,-522.22 710.12,-461.1 774.39,-233.9 720,-180.22 654.4,-115.48 605.67,-161.22 513.5,-161.22 513.5,-161.22 513.5,-161.22 363,-161.22 274.94,-161.22 231.3,-130.05 167,-190.22 97.04,-255.68 71.26,-584.96 67.12,-644.86"/>
<polygon fill="midnightblue" stroke="midnightblue" points="757.4,-528.84 767.53,-531.96 761.56,-523.21 757.4,-528.84"/>
</g>
<!-- Node9 -->
<g id="node9" class="node">
<title>Node9</title>
<g id="a_node9"><a xlink:href="redis__ipc_8c.html#a9040f6af2f364ef8da41175eb6073693" target="_top" xlink:title=" ">
<polygon fill="white" stroke="black" points="169.5,-910.22 169.5,-928.22 272.5,-928.22 272.5,-910.22 169.5,-910.22"/>
<text text-anchor="middle" x="221" y="-917.02" font-family="Helvetica,sans-Serif" font-size="9.00">redis_ipc_send_event</text>
</a>
</g>
</g>
<!-- Node2&#45;&gt;Node9 -->
<g id="edge45" class="edge">
<title>Node2&#45;&gt;Node9</title>
<path fill="none" stroke="midnightblue" d="M800.89,-560.5C794.91,-627.26 771.56,-846.82 720,-890.22 581.19,-1007.06 336.06,-952.09 251.58,-928.26"/>
<polygon fill="midnightblue" stroke="midnightblue" points="804.38,-560.78 801.76,-550.51 797.41,-560.17 804.38,-560.78"/>
</g>
<!-- Node11 -->
<g id="node11" class="node">
<title>Node11</title>
<g id="a_node11"><a xlink:href="redis__ipc_8c.html#afab35d4c40b4b1866fc0239bb885a39b" target="_top" xlink:title=" ">
<polygon fill="white" stroke="black" points="472.5,-570.22 472.5,-588.22 552.5,-588.22 552.5,-570.22 472.5,-570.22"/>
<text text-anchor="middle" x="512.5" y="-577.02" font-family="Helvetica,sans-Serif" font-size="9.00">redis_command</text>
</a>
</g>
</g>
<!-- Node2&#45;&gt;Node11 -->
<g id="edge12" class="edge">
<title>Node2&#45;&gt;Node11</title>
<path fill="none" stroke="midnightblue" d="M745.85,-551.23C737.2,-552.64 728.37,-554.02 720,-555.22 661.94,-563.51 594.38,-570.95 552.78,-575.27"/>
<polygon fill="midnightblue" stroke="midnightblue" points="746.59,-554.66 755.88,-549.57 745.44,-547.75 746.59,-554.66"/>
</g>
<!-- Node14 -->
<g id="node14" class="node">
<title>Node14</title>
<g id="a_node14"><a xlink:href="redis__ipc_8c.html#a9da7fba1b0bb29372229c5c3a0fcb432" target="_top" xlink:title=" ">
<polygon fill="white" stroke="black" points="167.5,-759.22 167.5,-777.22 274.5,-777.22 274.5,-759.22 167.5,-759.22"/>
<text text-anchor="middle" x="221" y="-766.02" font-family="Helvetica,sans-Serif" font-size="9.00">redis_ipc_read_setting</text>
</a>
</g>
</g>
<!-- Node2&#45;&gt;Node14 -->
<g id="edge38" class="edge">
<title>Node2&#45;&gt;Node14</title>
<path fill="none" stroke="midnightblue" d="M792.03,-559.32C778.17,-581.83 751.76,-620.1 720,-643.22 581.98,-743.67 371.78,-763.78 274.63,-767.54"/>
<polygon fill="midnightblue" stroke="midnightblue" points="795.2,-560.84 797.33,-550.47 789.19,-557.25 795.2,-560.84"/>
</g>
<!-- Node15 -->
<g id="node15" class="node">
<title>Node15</title>
<g id="a_node15"><a xlink:href="redis__ipc_8c.html#af379c19188b781eb8837ff97de173c41" target="_top" xlink:title=" ">
<polygon fill="white" stroke="black" points="168.5,-721.22 168.5,-739.22 273.5,-739.22 273.5,-721.22 168.5,-721.22"/>
<text text-anchor="middle" x="221" y="-728.02" font-family="Helvetica,sans-Serif" font-size="9.00">redis_ipc_read_status</text>
</a>
</g>
</g>
<!-- Node2&#45;&gt;Node15 -->
<g id="edge40" class="edge">
<title>Node2&#45;&gt;Node15</title>
<path fill="none" stroke="midnightblue" d="M784.24,-557.19C768.19,-570.61 743.74,-589.57 720,-602.22 593.83,-669.44 556.45,-678.7 417,-710.22 369.2,-721.02 313.48,-726 273.87,-728.29"/>
<polygon fill="midnightblue" stroke="midnightblue" points="786.89,-559.53 792.24,-550.38 782.35,-554.2 786.89,-559.53"/>
</g>
<!-- Node17 -->
<g id="node17" class="node">
<title>Node17</title>
<g id="a_node17"><a xlink:href="redis__ipc_8c.html#a4d32bc83ac8b8c46384c6c69a3a4e4a3" target="_top" xlink:title=" ">
<polygon fill="white" stroke="black" points="167.5,-476.22 167.5,-504.22 274.5,-504.22 274.5,-476.22 167.5,-476.22"/>
<text text-anchor="start" x="175.5" y="-493.02" font-family="Helvetica,sans-Serif" font-size="9.00">redis_ipc_read_setting</text>
<text text-anchor="middle" x="221" y="-483.02" font-family="Helvetica,sans-Serif" font-size="9.00">_field</text>
</a>
</g>
</g>
<!-- Node2&#45;&gt;Node17 -->
<g id="edge39" class="edge">
<title>Node2&#45;&gt;Node17</title>
<path fill="none" stroke="midnightblue" d="M745.86,-536.24C633.43,-526.36 383.55,-504.41 274.55,-494.83"/>
<polygon fill="midnightblue" stroke="midnightblue" points="745.71,-539.74 755.98,-537.13 746.32,-532.77 745.71,-539.74"/>
</g>
<!-- Node18 -->
<g id="node18" class="node">
<title>Node18</title>
<g id="a_node18"><a xlink:href="redis__ipc_8c.html#ac0d91847e135883a9dc48b57bdf463d7" target="_top" xlink:title=" ">
<polygon fill="white" stroke="black" points="168.5,-418.22 168.5,-446.22 273.5,-446.22 273.5,-418.22 168.5,-418.22"/>
<text text-anchor="start" x="176.5" y="-435.02" font-family="Helvetica,sans-Serif" font-size="9.00">redis_ipc_read_status</text>
<text text-anchor="middle" x="221" y="-425.02" font-family="Helvetica,sans-Serif" font-size="9.00">_field</text>
</a>
</g>
</g>
<!-- Node2&#45;&gt;Node18 -->
<g id="edge41" class="edge">
<title>Node2&#45;&gt;Node18</title>
<path fill="none" stroke="midnightblue" d="M763.24,-529.19C694.03,-508.51 545.49,-466.51 417,-446.22 368.72,-438.59 313.06,-435.12 273.59,-433.53"/>
<polygon fill="midnightblue" stroke="midnightblue" points="762.28,-532.55 772.86,-532.08 764.29,-525.85 762.28,-532.55"/>
</g>
<!-- Node20 -->
<g id="node20" class="node">
<title>Node20</title>
<g id="a_node20"><a xlink:href="redis__ipc_8c.html#ac22692af167c24369831321eb5a1aa20" target="_top" xlink:title=" ">
<polygon fill="white" stroke="black" points="172.5,-254.22 172.5,-282.22 269.5,-282.22 269.5,-254.22 172.5,-254.22"/>
<text text-anchor="start" x="180.5" y="-271.02" font-family="Helvetica,sans-Serif" font-size="9.00">redis_ipc_subscribe</text>
<text text-anchor="middle" x="221" y="-261.02" font-family="Helvetica,sans-Serif" font-size="9.00">_debug</text>
</a>
</g>
</g>
<!-- Node2&#45;&gt;Node20 -->
<g id="edge47" class="edge">
<title>Node2&#45;&gt;Node20</title>
<path fill="none" stroke="midnightblue" d="M760.29,-526.53C758.74,-525.21 757.29,-523.78 756,-522.22 705.03,-460.76 773.95,-405.07 720,-346.22 603.21,-218.81 370.22,-241.56 269.84,-258.61"/>
<polygon fill="midnightblue" stroke="midnightblue" points="758.54,-529.57 768.81,-532.19 762.42,-523.74 758.54,-529.57"/>
</g>
<!-- Node21 -->
<g id="node21" class="node">
<title>Node21</title>
<g id="a_node21"><a xlink:href="redis__ipc_8c.html#a26390ed4efc19636cc62fc3adf9e3278" target="_top" xlink:title=" ">
<polygon fill="white" stroke="black" points="172.5,-200.22 172.5,-228.22 269.5,-228.22 269.5,-200.22 172.5,-200.22"/>
<text text-anchor="start" x="180.5" y="-217.02" font-family="Helvetica,sans-Serif" font-size="9.00">redis_ipc_subscribe</text>
<text text-anchor="middle" x="221" y="-207.02" font-family="Helvetica,sans-Serif" font-size="9.00">_events</text>
</a>
</g>
</g>
<!-- Node2&#45;&gt;Node21 -->
<g id="edge48" class="edge">
<title>Node2&#45;&gt;Node21</title>
<path fill="none" stroke="midnightblue" d="M759.66,-526.16C758.34,-524.95 757.11,-523.63 756,-522.22 686.67,-433.37 797.63,-352.91 720,-271.22 659.23,-207.26 382.35,-208.86 269.79,-212.29"/>
<polygon fill="midnightblue" stroke="midnightblue" points="757.93,-529.23 768.13,-532.11 761.96,-523.5 757.93,-529.23"/>
</g>
<!-- Node23 -->
<g id="node23" class="node">
<title>Node23</title>
<g id="a_node23"><a xlink:href="redis__ipc_8c.html#a55074bea4936100d8785f7ec9b5e83c9" target="_top" xlink:title=" ">
<polygon fill="white" stroke="black" points="168,-586.22 168,-614.22 274,-614.22 274,-586.22 168,-586.22"/>
<text text-anchor="start" x="176" y="-603.02" font-family="Helvetica,sans-Serif" font-size="9.00">redis_ipc_unsubscribe</text>
<text text-anchor="middle" x="221" y="-593.02" font-family="Helvetica,sans-Serif" font-size="9.00">_debug</text>
</a>
</g>
</g>
<!-- Node2&#45;&gt;Node23 -->
<g id="edge49" class="edge">
<title>Node2&#45;&gt;Node23</title>
<path fill="none" stroke="midnightblue" d="M775.77,-554.65C759.93,-562.08 739.24,-570.87 720,-576.22 562.38,-620.02 366.06,-612.23 274.09,-605.15"/>
<polygon fill="midnightblue" stroke="midnightblue" points="777.46,-557.73 784.96,-550.25 774.43,-551.42 777.46,-557.73"/>
</g>
<!-- Node24 -->
<g id="node24" class="node">
<title>Node24</title>
<g id="a_node24"><a xlink:href="redis__ipc_8c.html#a88193bfef2bb1f36fa783c616d430c15" target="_top" xlink:title=" ">
<polygon fill="white" stroke="black" points="168,-533.22 168,-561.22 274,-561.22 274,-533.22 168,-533.22"/>
<text text-anchor="start" x="176" y="-550.02" font-family="Helvetica,sans-Serif" font-size="9.00">redis_ipc_unsubscribe</text>
<text text-anchor="middle" x="221" y="-540.02" font-family="Helvetica,sans-Serif" font-size="9.00">_events</text>
</a>
</g>
</g>
<!-- Node2&#45;&gt;Node24 -->
<g id="edge50" class="edge">
<title>Node2&#45;&gt;Node24</title>
<path fill="none" stroke="midnightblue" d="M745.84,-541.8C633.26,-542.97 382.9,-545.55 274.13,-546.68"/>
<polygon fill="midnightblue" stroke="midnightblue" points="746.01,-545.3 755.98,-541.7 745.94,-538.3 746.01,-545.3"/>
</g>
<!-- Node26 -->
<g id="node26" class="node">
<title>Node26</title>
<g id="a_node26"><a xlink:href="redis__ipc_8c.html#aef76ea4158d5075f2c2c0041ec62d1d5" target="_top" xlink:title=" ">
<polygon fill="white" stroke="black" points="167,-361.22 167,-389.22 275,-389.22 275,-361.22 167,-361.22"/>
<text text-anchor="start" x="175" y="-378.02" font-family="Helvetica,sans-Serif" font-size="9.00">redis_ipc_write_setting</text>
<text text-anchor="middle" x="221" y="-368.02" font-family="Helvetica,sans-Serif" font-size="9.00">_field</text>
</a>
</g>
</g>
<!-- Node2&#45;&gt;Node26 -->
<g id="edge52" class="edge">
<title>Node2&#45;&gt;Node26</title>
<path fill="none" stroke="midnightblue" d="M765.8,-527.98C762.38,-526.23 759.06,-524.31 756,-522.22 736.8,-509.08 739.38,-497.09 720,-484.22 600.13,-404.63 558.56,-395.97 417,-370.22 369.52,-361.58 314.48,-364.11 275,-368.05"/>
<polygon fill="midnightblue" stroke="midnightblue" points="764.4,-531.19 774.95,-532.21 767.34,-524.84 764.4,-531.19"/>
</g>
<!-- Node27 -->
<g id="node27" class="node">
<title>Node27</title>
<g id="a_node27"><a xlink:href="redis__ipc_8c.html#a1ccd53107db1e7be09bb4e958975720e" target="_top" xlink:title=" ">
<polygon fill="white" stroke="black" points="168,-305.22 168,-333.22 274,-333.22 274,-305.22 168,-305.22"/>
<text text-anchor="start" x="176" y="-322.02" font-family="Helvetica,sans-Serif" font-size="9.00">redis_ipc_write_status</text>
<text text-anchor="middle" x="221" y="-312.02" font-family="Helvetica,sans-Serif" font-size="9.00">_field</text>
</a>
</g>
</g>
<!-- Node2&#45;&gt;Node27 -->
<g id="edge54" class="edge">
<title>Node2&#45;&gt;Node27</title>
<path fill="none" stroke="midnightblue" d="M761.1,-526.76C759.27,-525.38 757.55,-523.87 756,-522.22 721.9,-485.99 756.07,-450.49 720,-416.22 596.29,-298.65 374.58,-303.48 274.07,-312.78"/>
<polygon fill="midnightblue" stroke="midnightblue" points="759.37,-529.8 769.72,-532.04 763.02,-523.83 759.37,-529.8"/>
</g>
<!-- Node28 -->
<g id="node28" class="node">
<title>Node28</title>
<g id="a_node28"><a xlink:href="redis__ipc_8c.html#a75d72df468cbcb8c72d15ca3b0cd9996" target="_top" xlink:title=" ">
<polygon fill="white" stroke="black" points="453,-76.22 453,-94.22 572,-94.22 572,-76.22 453,-76.22"/>
<text text-anchor="middle" x="512.5" y="-83.02" font-family="Helvetica,sans-Serif" font-size="9.00">redis_command_from_list</text>
</a>
</g>
</g>
<!-- Node2&#45;&gt;Node28 -->
<g id="edge33" class="edge">
<title>Node2&#45;&gt;Node28</title>
<path fill="none" stroke="midnightblue" d="M759.09,-525.79C757.98,-524.68 756.94,-523.49 756,-522.22 701.36,-448.04 784.2,-175.29 720,-109.22 678.12,-66.12 603.37,-68.93 556.22,-76.16"/>
<polygon fill="midnightblue" stroke="midnightblue" points="757.35,-528.85 767.46,-532.01 761.53,-523.23 757.35,-528.85"/>
</g>
<!-- Node30 -->
<g id="node30" class="node">
<title>Node30</title>
<g id="a_node30"><a xlink:href="redis__ipc_8c.html#a11db23f8f055e2d63fd8308c3d382da4" target="_top" xlink:title=" ">
<polygon fill="white" stroke="black" points="167,-57.22 167,-75.22 275,-75.22 275,-57.22 167,-57.22"/>
<text text-anchor="middle" x="221" y="-64.02" font-family="Helvetica,sans-Serif" font-size="9.00">redis_ipc_write_setting</text>
</a>
</g>
</g>
<!-- Node2&#45;&gt;Node30 -->
<g id="edge51" class="edge">
<title>Node2&#45;&gt;Node30</title>
<path fill="none" stroke="midnightblue" d="M759.08,-525.79C757.97,-524.68 756.93,-523.49 756,-522.22 696.29,-440.5 793.87,-137.39 720,-68.22 583.37,59.73 321.66,-27.3 244.15,-57.21"/>
<polygon fill="midnightblue" stroke="midnightblue" points="757.33,-528.85 767.43,-532.03 761.51,-523.24 757.33,-528.85"/>
</g>
<!-- Node31 -->
<g id="node31" class="node">
<title>Node31</title>
<g id="a_node31"><a xlink:href="redis__ipc_8c.html#ab7d4be95434367c1b7dd526ebbab77a1" target="_top" xlink:title=" ">
<polygon fill="white" stroke="black" points="168,-114.22 168,-132.22 274,-132.22 274,-114.22 168,-114.22"/>
<text text-anchor="middle" x="221" y="-121.02" font-family="Helvetica,sans-Serif" font-size="9.00">redis_ipc_write_status</text>
</a>
</g>
</g>
<!-- Node2&#45;&gt;Node31 -->
<g id="edge53" class="edge">
<title>Node2&#45;&gt;Node31</title>
<path fill="none" stroke="midnightblue" d="M759.11,-525.77C757.99,-524.67 756.94,-523.49 756,-522.22 706.05,-455.03 780.59,-204.99 720,-147.22 657.36,-87.48 388.64,-106.43 274.07,-117.58"/>
<polygon fill="midnightblue" stroke="midnightblue" points="757.38,-528.85 767.49,-531.99 761.54,-523.22 757.38,-528.85"/>
</g>
<!-- Node32 -->
<g id="node32" class="node">
<title>Node32</title>
<g id="a_node32"><a xlink:href="redis__ipc_8c.html#a8d1d26b38b731bc77309f58295716f8f" target="_top" xlink:title=" ">
<polygon fill="white" stroke="black" points="608,-825.22 608,-853.22 720,-853.22 720,-825.22 608,-825.22"/>
<text text-anchor="start" x="616" y="-842.02" font-family="Helvetica,sans-Serif" font-size="9.00">redis_ipc_get_message</text>
<text text-anchor="middle" x="664" y="-832.02" font-family="Helvetica,sans-Serif" font-size="9.00">_blocking</text>
</a>
</g>
</g>
<!-- Node2&#45;&gt;Node32 -->
<g id="edge37" class="edge">
<title>Node2&#45;&gt;Node32</title>
<path fill="none" stroke="midnightblue" d="M801.55,-560.39C798.23,-608.01 783.6,-733.4 720,-810.22 715.04,-816.2 708.52,-821.12 701.71,-825.09"/>
<polygon fill="midnightblue" stroke="midnightblue" points="805.05,-560.46 802.16,-550.26 798.06,-560.03 805.05,-560.46"/>
</g>
<!-- Node33 -->
<g id="node33" class="node">
<title>Node33</title>
<g id="a_node33"><a xlink:href="redis__ipc_8c.html#a80ea8825dd17a3cff2530680c97d184a" target="_top" xlink:title=" ">
<polygon fill="white" stroke="black" points="615,-190.22 615,-208.22 713,-208.22 713,-190.22 615,-190.22"/>
<text text-anchor="middle" x="664" y="-197.02" font-family="Helvetica,sans-Serif" font-size="9.00">validate_redis_reply</text>
</a>
</g>
</g>
<!-- Node2&#45;&gt;Node33 -->
<g id="edge55" class="edge">
<title>Node2&#45;&gt;Node33</title>
<path fill="none" stroke="midnightblue" d="M759.62,-526.19C758.31,-524.97 757.09,-523.65 756,-522.22 674.85,-415.77 799.89,-330.61 720,-223.22 715.09,-216.61 707.97,-211.8 700.47,-208.3"/>
<polygon fill="midnightblue" stroke="midnightblue" points="757.86,-529.24 768.04,-532.18 761.92,-523.53 757.86,-529.24"/>
</g>
<!-- Node4 -->
<g id="node4" class="node">
<title>Node4</title>
<g id="a_node4"><a xlink:href="redis__ipc_8c.html#ab3dc5609833c201c4e9ebaa5e2e70a2f" target="_top" xlink:title=" ">
<polygon fill="white" stroke="black" points="329,-835.22 329,-853.22 399,-853.22 399,-835.22 329,-835.22"/>
<text text-anchor="middle" x="364" y="-842.02" font-family="Helvetica,sans-Serif" font-size="9.00">redis_publish</text>
</a>
</g>
</g>
<!-- Node3&#45;&gt;Node4 -->
<g id="edge3" class="edge">
<title>Node3&#45;&gt;Node4</title>
<path fill="none" stroke="midnightblue" d="M446.52,-830.86C430.29,-833.52 413.5,-836.27 399.41,-838.58"/>
<polygon fill="midnightblue" stroke="midnightblue" points="447.23,-834.29 456.53,-829.22 446.1,-827.38 447.23,-834.29"/>
</g>
<!-- Node10 -->
<g id="node10" class="node">
<title>Node10</title>
<g id="a_node10"><a xlink:href="redis__ipc_8c.html#ae826a119ee7ca11d9636c6f34b9a29e9" target="_top" xlink:title=" ">
<polygon fill="white" stroke="black" points="334,-646.22 334,-664.22 394,-664.22 394,-646.22 334,-646.22"/>
<text text-anchor="middle" x="364" y="-653.02" font-family="Helvetica,sans-Serif" font-size="9.00">redis_push</text>
</a>
</g>
</g>
<!-- Node3&#45;&gt;Node10 -->
<g id="edge9" class="edge">
<title>Node3&#45;&gt;Node10</title>
<path fill="none" stroke="midnightblue" d="M504.32,-801.56C491.45,-770.53 461.59,-708.28 417,-673.22 410.39,-668.02 402.18,-664.27 394.25,-661.58"/>
<polygon fill="midnightblue" stroke="midnightblue" points="501.19,-803.15 508.15,-811.13 507.68,-800.55 501.19,-803.15"/>
</g>
<!-- Node4&#45;&gt;Node5 -->
<g id="edge4" class="edge">
<title>Node4&#45;&gt;Node5</title>
<path fill="none" stroke="midnightblue" d="M318.54,-844.22C304.56,-844.22 289,-844.22 274.53,-844.22"/>
<polygon fill="midnightblue" stroke="midnightblue" points="318.87,-847.72 328.87,-844.22 318.87,-840.72 318.87,-847.72"/>
</g>
<!-- Node4&#45;&gt;Node9 -->
<g id="edge8" class="edge">
<title>Node4&#45;&gt;Node9</title>
<path fill="none" stroke="midnightblue" d="M342.05,-858.97C324.63,-870.81 298.92,-887.37 275,-899.22 266.8,-903.28 257.57,-907.02 249.13,-910.15"/>
<polygon fill="midnightblue" stroke="midnightblue" points="344.1,-861.81 350.34,-853.25 340.12,-856.04 344.1,-861.81"/>
</g>
<!-- Node5&#45;&gt;Node6 -->
<g id="edge5" class="edge">
<title>Node5&#45;&gt;Node6</title>
<path fill="none" stroke="midnightblue" d="M180.6,-856.28C159.76,-862.66 134.05,-870.53 112.32,-877.19"/>
<polygon fill="midnightblue" stroke="midnightblue" points="181.87,-859.55 190.4,-853.28 179.82,-852.86 181.87,-859.55"/>
</g>
<!-- Node5&#45;&gt;Node7 -->
<g id="edge6" class="edge">
<title>Node5&#45;&gt;Node7</title>
<path fill="none" stroke="midnightblue" d="M156.87,-844.22C146.84,-844.22 136.49,-844.22 126.54,-844.22"/>
<polygon fill="midnightblue" stroke="midnightblue" points="157.17,-847.72 167.17,-844.22 157.17,-840.72 157.17,-847.72"/>
</g>
<!-- Node5&#45;&gt;Node8 -->
<g id="edge7" class="edge">
<title>Node5&#45;&gt;Node8</title>
<path fill="none" stroke="midnightblue" d="M204.01,-827.52C193.27,-816.12 178.96,-800.54 167,-786.22 129.72,-741.55 88.7,-685.19 73.05,-663.4"/>
<polygon fill="midnightblue" stroke="midnightblue" points="201.68,-830.16 211.11,-835.01 206.76,-825.34 201.68,-830.16"/>
</g>
<!-- Node10&#45;&gt;Node7 -->
<g id="edge10" class="edge">
<title>Node10&#45;&gt;Node7</title>
<path fill="none" stroke="midnightblue" d="M323.87,-663.31C274.36,-674.06 192.48,-693.75 167,-711.22 120.69,-742.97 86.85,-802.97 73.18,-830.18"/>
<polygon fill="midnightblue" stroke="midnightblue" points="324.86,-666.67 333.91,-661.15 323.4,-659.83 324.86,-666.67"/>
</g>
<!-- Node10&#45;&gt;Node8 -->
<g id="edge11" class="edge">
<title>Node10&#45;&gt;Node8</title>
<path fill="none" stroke="midnightblue" d="M323.74,-655.08C270.74,-654.91 176.23,-654.59 117.71,-654.39"/>
<polygon fill="midnightblue" stroke="midnightblue" points="323.75,-658.58 333.76,-655.12 323.77,-651.58 323.75,-658.58"/>
</g>
<!-- Node11&#45;&gt;Node4 -->
<g id="edge16" class="edge">
<title>Node11&#45;&gt;Node4</title>
<path fill="none" stroke="midnightblue" d="M508.92,-598.4C501.99,-642.9 479.12,-754.34 417,-820.22 410.93,-826.66 402.79,-831.52 394.76,-835.12"/>
<polygon fill="midnightblue" stroke="midnightblue" points="512.4,-598.78 510.38,-588.38 505.47,-597.77 512.4,-598.78"/>
</g>
<!-- Node11&#45;&gt;Node10 -->
<g id="edge17" class="edge">
<title>Node11&#45;&gt;Node10</title>
<path fill="none" stroke="midnightblue" d="M485.13,-592.9C455.37,-608.34 407.79,-633.02 382.36,-646.21"/>
<polygon fill="midnightblue" stroke="midnightblue" points="486.85,-595.95 494.12,-588.23 483.63,-589.73 486.85,-595.95"/>
</g>
<!-- Node12 -->
<g id="node12" class="node">
<title>Node12</title>
<g id="a_node12"><a xlink:href="redis__ipc_8c.html#a51be0735eeaf88f636c16128647f11f7" target="_top" xlink:title=" ">
<polygon fill="white" stroke="black" points="193,-872.22 193,-890.22 249,-890.22 249,-872.22 193,-872.22"/>
<text text-anchor="middle" x="221" y="-879.02" font-family="Helvetica,sans-Serif" font-size="9.00">redis_pop</text>
</a>
</g>
</g>
<!-- Node11&#45;&gt;Node12 -->
<g id="edge13" class="edge">
<title>Node11&#45;&gt;Node12</title>
<path fill="none" stroke="midnightblue" d="M499.91,-596.73C482.72,-622.35 449.04,-671.25 417,-710.22 413.33,-714.68 279.83,-859.04 275,-862.22 267.16,-867.37 257.75,-871.33 249.04,-874.27"/>
<polygon fill="midnightblue" stroke="midnightblue" points="502.82,-598.67 505.46,-588.4 497,-594.78 502.82,-598.67"/>
</g>
<!-- Node13 -->
<g id="node13" class="node">
<title>Node13</title>
<g id="a_node13"><a xlink:href="redis__ipc_8c.html#a9f1ecd3f095bb4358ae2b26347b2b822" target="_top" xlink:title=" ">
<polygon fill="white" stroke="black" points="322.5,-683.22 322.5,-701.22 405.5,-701.22 405.5,-683.22 322.5,-683.22"/>
<text text-anchor="middle" x="364" y="-690.02" font-family="Helvetica,sans-Serif" font-size="9.00">redis_read_hash</text>
</a>
</g>
</g>
<!-- Node11&#45;&gt;Node13 -->
<g id="edge18" class="edge">
<title>Node11&#45;&gt;Node13</title>
<path fill="none" stroke="midnightblue" d="M498.35,-596.22C481.52,-616.97 450.49,-651.92 417,-673.22 410.76,-677.19 403.56,-680.49 396.56,-683.17"/>
<polygon fill="midnightblue" stroke="midnightblue" points="501.18,-598.28 504.67,-588.28 495.7,-593.93 501.18,-598.28"/>
</g>
<!-- Node16 -->
<g id="node16" class="node">
<title>Node16</title>
<g id="a_node16"><a xlink:href="redis__ipc_8c.html#a4f935a08f52bbc4ef3c81532488f9a80" target="_top" xlink:title=" ">
<polygon fill="white" stroke="black" points="311.5,-456.22 311.5,-474.22 416.5,-474.22 416.5,-456.22 311.5,-456.22"/>
<text text-anchor="middle" x="364" y="-463.02" font-family="Helvetica,sans-Serif" font-size="9.00">redis_read_hash_field</text>
</a>
</g>
</g>
<!-- Node11&#45;&gt;Node16 -->
<g id="edge21" class="edge">
<title>Node11&#45;&gt;Node16</title>
<path fill="none" stroke="midnightblue" d="M491.84,-563.92C460.93,-539.87 401.92,-493.95 376.8,-474.4"/>
<polygon fill="midnightblue" stroke="midnightblue" points="489.72,-566.7 499.76,-570.08 494.02,-561.18 489.72,-566.7"/>
</g>
<!-- Node19 -->
<g id="node19" class="node">
<title>Node19</title>
<g id="a_node19"><a xlink:href="redis__ipc_8c.html#a420fcd64722043e4bc0bb7f61a29d588" target="_top" xlink:title=" ">
<polygon fill="white" stroke="black" points="324,-266.22 324,-284.22 404,-284.22 404,-266.22 324,-266.22"/>
<text text-anchor="middle" x="364" y="-273.02" font-family="Helvetica,sans-Serif" font-size="9.00">redis_subscribe</text>
</a>
</g>
</g>
<!-- Node11&#45;&gt;Node19 -->
<g id="edge24" class="edge">
<title>Node11&#45;&gt;Node19</title>
<path fill="none" stroke="midnightblue" d="M503.59,-560.46C487.92,-523.61 451.46,-439.3 417,-370.22 400.97,-338.08 379.91,-301.02 370.25,-284.27"/>
<polygon fill="midnightblue" stroke="midnightblue" points="500.48,-562.09 507.6,-569.93 506.92,-559.36 500.48,-562.09"/>
</g>
<!-- Node22 -->
<g id="node22" class="node">
<title>Node22</title>
<g id="a_node22"><a xlink:href="redis__ipc_8c.html#a40d3af6ed926711313712685503a1c91" target="_top" xlink:title=" ">
<polygon fill="white" stroke="black" points="319.5,-570.22 319.5,-588.22 408.5,-588.22 408.5,-570.22 319.5,-570.22"/>
<text text-anchor="middle" x="364" y="-577.02" font-family="Helvetica,sans-Serif" font-size="9.00">redis_unsubscribe</text>
</a>
</g>
</g>
<!-- Node11&#45;&gt;Node22 -->
<g id="edge27" class="edge">
<title>Node11&#45;&gt;Node22</title>
<path fill="none" stroke="midnightblue" d="M461.82,-579.22C444.61,-579.22 425.46,-579.22 408.76,-579.22"/>
<polygon fill="midnightblue" stroke="midnightblue" points="462.24,-582.72 472.24,-579.22 462.24,-575.72 462.24,-582.72"/>
</g>
<!-- Node25 -->
<g id="node25" class="node">
<title>Node25</title>
<g id="a_node25"><a xlink:href="redis__ipc_8c.html#ad0c6708404743ef74dddacc617fb8b8e" target="_top" xlink:title=" ">
<polygon fill="white" stroke="black" points="311,-380.22 311,-398.22 417,-398.22 417,-380.22 311,-380.22"/>
<text text-anchor="middle" x="364" y="-387.02" font-family="Helvetica,sans-Serif" font-size="9.00">redis_write_hash_field</text>
</a>
</g>
</g>
<!-- Node11&#45;&gt;Node25 -->
<g id="edge30" class="edge">
<title>Node11&#45;&gt;Node25</title>
<path fill="none" stroke="midnightblue" d="M499.89,-561.46C482.69,-535.48 448.99,-485.88 417,-446.22 402.87,-428.7 384.89,-409.63 374.2,-398.58"/>
<polygon fill="midnightblue" stroke="midnightblue" points="497.03,-563.48 505.45,-569.91 502.88,-559.63 497.03,-563.48"/>
</g>
<!-- Node12&#45;&gt;Node6 -->
<g id="edge14" class="edge">
<title>Node12&#45;&gt;Node6</title>
<path fill="none" stroke="midnightblue" d="M182.71,-883.65C167.24,-884.65 148.82,-885.85 131.26,-887"/>
<polygon fill="midnightblue" stroke="midnightblue" points="183.16,-887.12 192.91,-882.98 182.7,-880.14 183.16,-887.12"/>
</g>
<!-- Node12&#45;&gt;Node7 -->
<g id="edge15" class="edge">
<title>Node12&#45;&gt;Node7</title>
<path fill="none" stroke="midnightblue" d="M183.11,-872.32C165.64,-868.11 144.37,-862.99 124.79,-858.27"/>
<polygon fill="midnightblue" stroke="midnightblue" points="182.37,-875.75 192.91,-874.69 184.01,-868.94 182.37,-875.75"/>
</g>
<!-- Node13&#45;&gt;Node14 -->
<g id="edge19" class="edge">
<title>Node13&#45;&gt;Node14</title>
<path fill="none" stroke="midnightblue" d="M342.39,-707.06C324.99,-719.15 299.14,-736.14 275,-748.22 266.82,-752.31 257.59,-756.07 249.15,-759.19"/>
<polygon fill="midnightblue" stroke="midnightblue" points="344.5,-709.85 350.66,-701.23 340.47,-704.13 344.5,-709.85"/>
</g>
<!-- Node13&#45;&gt;Node15 -->
<g id="edge20" class="edge">
<title>Node13&#45;&gt;Node15</title>
<path fill="none" stroke="midnightblue" d="M319.8,-703.86C299.18,-709.42 274.88,-715.96 255.66,-721.14"/>
<polygon fill="midnightblue" stroke="midnightblue" points="320.84,-707.2 329.58,-701.22 319.02,-700.45 320.84,-707.2"/>
</g>
<!-- Node16&#45;&gt;Node17 -->
<g id="edge22" class="edge">
<title>Node16&#45;&gt;Node17</title>
<path fill="none" stroke="midnightblue" d="M301.97,-476.04C292.9,-477.65 283.61,-479.29 274.73,-480.87"/>
<polygon fill="midnightblue" stroke="midnightblue" points="302.86,-479.43 312.1,-474.24 301.64,-472.54 302.86,-479.43"/>
</g>
<!-- Node16&#45;&gt;Node18 -->
<g id="edge23" class="edge">
<title>Node16&#45;&gt;Node18</title>
<path fill="none" stroke="midnightblue" d="M314.64,-453.9C301.44,-450.81 287.08,-447.45 273.7,-444.32"/>
<polygon fill="midnightblue" stroke="midnightblue" points="313.94,-457.33 324.47,-456.2 315.53,-450.51 313.94,-457.33"/>
</g>
<!-- Node19&#45;&gt;Node20 -->
<g id="edge25" class="edge">
<title>Node19&#45;&gt;Node20</title>
<path fill="none" stroke="midnightblue" d="M313.59,-272.76C299.31,-272.05 283.75,-271.28 269.59,-270.58"/>
<polygon fill="midnightblue" stroke="midnightblue" points="313.56,-276.27 323.72,-273.27 313.91,-269.28 313.56,-276.27"/>
</g>
<!-- Node19&#45;&gt;Node21 -->
<g id="edge26" class="edge">
<title>Node19&#45;&gt;Node21</title>
<path fill="none" stroke="midnightblue" d="M332.89,-262.19C309.81,-252.21 278.02,-238.45 254.4,-228.23"/>
<polygon fill="midnightblue" stroke="midnightblue" points="331.63,-265.46 342.19,-266.22 334.41,-259.03 331.63,-265.46"/>
</g>
<!-- Node22&#45;&gt;Node23 -->
<g id="edge28" class="edge">
<title>Node22&#45;&gt;Node23</title>
<path fill="none" stroke="midnightblue" d="M309.26,-587.22C297.77,-588.93 285.66,-590.74 274.23,-592.44"/>
<polygon fill="midnightblue" stroke="midnightblue" points="309.78,-590.68 319.16,-585.75 308.75,-583.76 309.78,-590.68"/>
</g>
<!-- Node22&#45;&gt;Node24 -->
<g id="edge29" class="edge">
<title>Node22&#45;&gt;Node24</title>
<path fill="none" stroke="midnightblue" d="M313.11,-567.9C300.52,-565.04 286.97,-561.96 274.26,-559.08"/>
<polygon fill="midnightblue" stroke="midnightblue" points="312.45,-571.33 322.97,-570.13 313.99,-564.51 312.45,-571.33"/>
</g>
<!-- Node25&#45;&gt;Node26 -->
<g id="edge31" class="edge">
<title>Node25&#45;&gt;Node26</title>
<path fill="none" stroke="midnightblue" d="M300.68,-383.03C292.22,-382.19 283.59,-381.33 275.3,-380.51"/>
<polygon fill="midnightblue" stroke="midnightblue" points="300.6,-386.54 310.9,-384.04 301.29,-379.57 300.6,-386.54"/>
</g>
<!-- Node25&#45;&gt;Node27 -->
<g id="edge32" class="edge">
<title>Node25&#45;&gt;Node27</title>
<path fill="none" stroke="midnightblue" d="M335.73,-375.68C311.16,-363.48 275.19,-345.62 250.3,-333.27"/>
<polygon fill="midnightblue" stroke="midnightblue" points="334.34,-378.9 344.86,-380.21 337.45,-372.63 334.34,-378.9"/>
</g>
<!-- Node29 -->
<g id="node29" class="node">
<title>Node29</title>
<g id="a_node29"><a xlink:href="redis__ipc_8c.html#ab4f8e083ca57feea4be05c015b0eac9f" target="_top" xlink:title=" ">
<polygon fill="white" stroke="black" points="322,-76.22 322,-94.22 406,-94.22 406,-76.22 322,-76.22"/>
<text text-anchor="middle" x="364" y="-83.02" font-family="Helvetica,sans-Serif" font-size="9.00">redis_write_hash</text>
</a>
</g>
</g>
<!-- Node28&#45;&gt;Node29 -->
<g id="edge34" class="edge">
<title>Node28&#45;&gt;Node29</title>
<path fill="none" stroke="midnightblue" d="M442.42,-85.22C430.03,-85.22 417.48,-85.22 406.19,-85.22"/>
<polygon fill="midnightblue" stroke="midnightblue" points="442.76,-88.72 452.76,-85.22 442.76,-81.72 442.76,-88.72"/>
</g>
<!-- Node29&#45;&gt;Node30 -->
<g id="edge35" class="edge">
<title>Node29&#45;&gt;Node30</title>
<path fill="none" stroke="midnightblue" d="M311.62,-78.29C299.71,-76.69 287.02,-74.98 275.04,-73.36"/>
<polygon fill="midnightblue" stroke="midnightblue" points="311.46,-81.8 321.84,-79.67 312.39,-74.87 311.46,-81.8"/>
</g>
<!-- Node29&#45;&gt;Node31 -->
<g id="edge36" class="edge">
<title>Node29&#45;&gt;Node31</title>
<path fill="none" stroke="midnightblue" d="M319.8,-96.86C299.18,-102.42 274.88,-108.96 255.66,-114.14"/>
<polygon fill="midnightblue" stroke="midnightblue" points="320.84,-100.2 329.58,-94.22 319.02,-93.45 320.84,-100.2"/>
</g>
<!-- Node33&#45;&gt;Node11 -->
<g id="edge56" class="edge">
<title>Node33&#45;&gt;Node11</title>
<path fill="none" stroke="midnightblue" d="M655.75,-217.66C629,-285.63 536.47,-520.83 517.08,-570.11"/>
<polygon fill="midnightblue" stroke="midnightblue" points="659.05,-218.82 659.45,-208.24 652.53,-216.26 659.05,-218.82"/>
</g>
<!-- Node33&#45;&gt;Node28 -->
<g id="edge57" class="edge">
<title>Node33&#45;&gt;Node28</title>
<path fill="none" stroke="midnightblue" d="M642.94,-183.92C611.4,-159.87 551.18,-113.95 525.54,-94.4"/>
<polygon fill="midnightblue" stroke="midnightblue" points="640.94,-186.8 651.02,-190.08 645.19,-181.23 640.94,-186.8"/>
</g>
</g>
</svg>
