<?xml version="1.0" encoding="UTF-8" standalone="no"?>
<!DOCTYPE svg PUBLIC "-//W3C//DTD SVG 1.1//EN"
 "http://www.w3.org/Graphics/SVG/1.1/DTD/svg11.dtd">
<!-- Generated by graphviz version 3.0.0 (20220413.0106)
 -->
<!-- Title: redis_command Pages: 1 -->
<svg width="541pt" height="593pt"
 viewBox="0.00 0.00 541.00 593.00" xmlns="http://www.w3.org/2000/svg" xmlns:xlink="http://www.w3.org/1999/xlink">
<g id="graph0" class="graph" transform="scale(1 1) rotate(0) translate(4 589)">
<title>redis_command</title>
<polygon fill="white" stroke="transparent" points="-4,4 -4,-589 537,-589 537,4 -4,4"/>
<!-- Node1 -->
<g id="node1" class="node">
<title>Node1</title>
<g id="a_node1"><a xlink:title=" ">
<polygon fill="#bfbfbf" stroke="black" points="453,-355.5 453,-373.5 533,-373.5 533,-355.5 453,-355.5"/>
<text text-anchor="middle" x="493" y="-362.3" font-family="Helvetica,sans-Serif" font-size="9.00">redis_command</text>
</a>
</g>
</g>
<!-- Node2 -->
<g id="node2" class="node">
<title>Node2</title>
<g id="a_node2"><a xlink:href="redis__ipc_8c.html#a51be0735eeaf88f636c16128647f11f7" target="_top" xlink:title=" ">
<polygon fill="white" stroke="black" points="193,-561.5 193,-579.5 249,-579.5 249,-561.5 193,-561.5"/>
<text text-anchor="middle" x="221" y="-568.3" font-family="Helvetica,sans-Serif" font-size="9.00">redis_pop</text>
</a>
</g>
</g>
<!-- Node1&#45;&gt;Node2 -->
<g id="edge1" class="edge">
<title>Node1&#45;&gt;Node2</title>
<path fill="none" stroke="midnightblue" d="M487.88,-383.44C479.92,-415.51 459.32,-480.4 417,-515.5 367.72,-556.37 289.95,-566.92 249.11,-569.61"/>
<polygon fill="midnightblue" stroke="midnightblue" points="491.32,-384.11 490.19,-373.57 484.51,-382.52 491.32,-384.11"/>
</g>
<!-- Node5 -->
<g id="node5" class="node">
<title>Node5</title>
<g id="a_node5"><a xlink:href="redis__ipc_8c.html#ab3dc5609833c201c4e9ebaa5e2e70a2f" target="_top" xlink:title=" ">
<polygon fill="white" stroke="black" points="329,-487.5 329,-505.5 399,-505.5 399,-487.5 329,-487.5"/>
<text text-anchor="middle" x="364" y="-494.3" font-family="Helvetica,sans-Serif" font-size="9.00">redis_publish</text>
</a>
</g>
</g>
<!-- Node1&#45;&gt;Node5 -->
<g id="edge4" class="edge">
<title>Node1&#45;&gt;Node5</title>
<path fill="none" stroke="midnightblue" d="M479.46,-381.86C465.32,-400.9 441.14,-431.87 417,-455.5 404.67,-467.56 388.94,-479.56 378.02,-487.44"/>
<polygon fill="midnightblue" stroke="midnightblue" points="482.46,-383.7 485.55,-373.56 476.81,-379.56 482.46,-383.7"/>
</g>
<!-- Node9 -->
<g id="node9" class="node">
<title>Node9</title>
<g id="a_node9"><a xlink:href="redis__ipc_8c.html#ae826a119ee7ca11d9636c6f34b9a29e9" target="_top" xlink:title=" ">
<polygon fill="white" stroke="black" points="191,-450.5 191,-468.5 251,-468.5 251,-450.5 191,-450.5"/>
<text text-anchor="middle" x="221" y="-457.3" font-family="Helvetica,sans-Serif" font-size="9.00">redis_push</text>
</a>
</g>
</g>
<!-- Node1&#45;&gt;Node9 -->
<g id="edge10" class="edge">
<title>Node1&#45;&gt;Node9</title>
<path fill="none" stroke="midnightblue" d="M468.46,-378.75C453.99,-387.07 434.86,-397.32 417,-404.5 359.89,-427.47 289.74,-444.74 251.06,-453.37"/>
<polygon fill="midnightblue" stroke="midnightblue" points="470.37,-381.68 477.23,-373.61 466.83,-375.64 470.37,-381.68"/>
</g>
<!-- Node10 -->
<g id="node10" class="node">
<title>Node10</title>
<g id="a_node10"><a xlink:href="redis__ipc_8c.html#a9f1ecd3f095bb4358ae2b26347b2b822" target="_top" xlink:title=" ">
<polygon fill="white" stroke="black" points="322.5,-376.5 322.5,-394.5 405.5,-394.5 405.5,-376.5 322.5,-376.5"/>
<text text-anchor="middle" x="364" y="-383.3" font-family="Helvetica,sans-Serif" font-size="9.00">redis_read_hash</text>
</a>
</g>
</g>
<!-- Node1&#45;&gt;Node10 -->
<g id="edge13" class="edge">
<title>Node1&#45;&gt;Node10</title>
<path fill="none" stroke="midnightblue" d="M442.74,-372.64C430.44,-374.68 417.38,-376.84 405.55,-378.8"/>
<polygon fill="midnightblue" stroke="midnightblue" points="443.56,-376.06 452.86,-370.97 442.42,-369.15 443.56,-376.06"/>
</g>
<!-- Node13 -->
<g id="node13" class="node">
<title>Node13</title>
<g id="a_node13"><a xlink:href="redis__ipc_8c.html#a4f935a08f52bbc4ef3c81532488f9a80" target="_top" xlink:title=" ">
<polygon fill="white" stroke="black" points="311.5,-334.5 311.5,-352.5 416.5,-352.5 416.5,-334.5 311.5,-334.5"/>
<text text-anchor="middle" x="364" y="-341.3" font-family="Helvetica,sans-Serif" font-size="9.00">redis_read_hash_field</text>
</a>
</g>
</g>
<!-- Node1&#45;&gt;Node13 -->
<g id="edge16" class="edge">
<title>Node1&#45;&gt;Node13</title>
<path fill="none" stroke="midnightblue" d="M442.74,-356.35C434.26,-354.95 425.42,-353.49 416.87,-352.08"/>
<polygon fill="midnightblue" stroke="midnightblue" points="442.42,-359.85 452.86,-358.03 443.56,-352.94 442.42,-359.85"/>
</g>
<!-- Node16 -->
<g id="node16" class="node">
<title>Node16</title>
<g id="a_node16"><a xlink:href="redis__ipc_8c.html#a420fcd64722043e4bc0bb7f61a29d588" target="_top" xlink:title=" ">
<polygon fill="white" stroke="black" points="324,-240.5 324,-258.5 404,-258.5 404,-240.5 324,-240.5"/>
<text text-anchor="middle" x="364" y="-247.3" font-family="Helvetica,sans-Serif" font-size="9.00">redis_subscribe</text>
</a>
</g>
</g>
<!-- Node1&#45;&gt;Node16 -->
<g id="edge19" class="edge">
<title>Node1&#45;&gt;Node16</title>
<path fill="none" stroke="midnightblue" d="M474.51,-348.66C447.62,-324.31 396.96,-278.44 375.27,-258.8"/>
<polygon fill="midnightblue" stroke="midnightblue" points="472.27,-351.36 482.03,-355.48 476.97,-346.17 472.27,-351.36"/>
</g>
<!-- Node19 -->
<g id="node19" class="node">
<title>Node19</title>
<g id="a_node19"><a xlink:href="redis__ipc_8c.html#a40d3af6ed926711313712685503a1c91" target="_top" xlink:title=" ">
<polygon fill="white" stroke="black" points="319.5,-146.5 319.5,-164.5 408.5,-164.5 408.5,-146.5 319.5,-146.5"/>
<text text-anchor="middle" x="364" y="-153.3" font-family="Helvetica,sans-Serif" font-size="9.00">redis_unsubscribe</text>
</a>
</g>
</g>
<!-- Node1&#45;&gt;Node19 -->
<g id="edge22" class="edge">
<title>Node1&#45;&gt;Node19</title>
<path fill="none" stroke="midnightblue" d="M482.38,-346.28C468.55,-320.39 441.98,-271.63 417,-231.5 401.62,-206.8 381.83,-178.81 371.67,-164.69"/>
<polygon fill="midnightblue" stroke="midnightblue" points="479.39,-348.12 487.17,-355.31 485.57,-344.84 479.39,-348.12"/>
</g>
<!-- Node22 -->
<g id="node22" class="node">
<title>Node22</title>
<g id="a_node22"><a xlink:href="redis__ipc_8c.html#ad0c6708404743ef74dddacc617fb8b8e" target="_top" xlink:title=" ">
<polygon fill="white" stroke="black" points="311,-52.5 311,-70.5 417,-70.5 417,-52.5 311,-52.5"/>
<text text-anchor="middle" x="364" y="-59.3" font-family="Helvetica,sans-Serif" font-size="9.00">redis_write_hash_field</text>
</a>
</g>
</g>
<!-- Node1&#45;&gt;Node22 -->
<g id="edge25" class="edge">
<title>Node1&#45;&gt;Node22</title>
<path fill="none" stroke="midnightblue" d="M487.67,-345.57C478.13,-305.72 453.27,-210.79 417,-137.5 404.24,-111.71 383.71,-84.61 372.65,-70.8"/>
<polygon fill="midnightblue" stroke="midnightblue" points="484.3,-346.55 489.99,-355.49 491.12,-344.96 484.3,-346.55"/>
</g>
<!-- Node3 -->
<g id="node3" class="node">
<title>Node3</title>
<g id="a_node3"><a xlink:href="redis__ipc_8c.html#a69a016ee903b3d8873ada802806e615d" target="_top" xlink:title=" ">
<polygon fill="white" stroke="black" points="0,-556.5 0,-584.5 131,-584.5 131,-556.5 0,-556.5"/>
<text text-anchor="start" x="8" y="-573.3" font-family="Helvetica,sans-Serif" font-size="9.00">redis_ipc_receive_command</text>
<text text-anchor="middle" x="65.5" y="-563.3" font-family="Helvetica,sans-Serif" font-size="9.00">_blocking</text>
</a>
</g>
</g>
<!-- Node2&#45;&gt;Node3 -->
<g id="edge2" class="edge">
<title>Node2&#45;&gt;Node3</title>
<path fill="none" stroke="midnightblue" d="M182.71,-570.5C167.24,-570.5 148.82,-570.5 131.26,-570.5"/>
<polygon fill="midnightblue" stroke="midnightblue" points="182.91,-574 192.91,-570.5 182.91,-567 182.91,-574"/>
</g>
<!-- Node4 -->
<g id="node4" class="node">
<title>Node4</title>
<g id="a_node4"><a xlink:href="redis__ipc_8c.html#afef4b2a08b3597ca1f62b7ead9490ef4" target="_top" xlink:title=" ">
<polygon fill="white" stroke="black" points="4.5,-509.5 4.5,-537.5 126.5,-537.5 126.5,-509.5 4.5,-509.5"/>
<text text-anchor="start" x="12.5" y="-526.3" font-family="Helvetica,sans-Serif" font-size="9.00">redis_ipc_send_command</text>
<text text-anchor="middle" x="65.5" y="-516.3" font-family="Helvetica,sans-Serif" font-size="9.00">_blocking</text>
</a>
</g>
</g>
<!-- Node2&#45;&gt;Node4 -->
<g id="edge3" class="edge">
<title>Node2&#45;&gt;Node4</title>
<path fill="none" stroke="midnightblue" d="M183.26,-559.25C161.95,-552.73 134.94,-544.46 112.27,-537.51"/>
<polygon fill="midnightblue" stroke="midnightblue" points="182.32,-562.62 192.91,-562.21 184.37,-555.93 182.32,-562.62"/>
</g>
<!-- Node6 -->
<g id="node6" class="node">
<title>Node6</title>
<g id="a_node6"><a xlink:href="redis__ipc_8c.html#a66cdf2ae760d1acb487dd82c1392c12f" target="_top" xlink:title=" ">
<polygon fill="white" stroke="black" points="167.5,-524.5 167.5,-542.5 274.5,-542.5 274.5,-524.5 167.5,-524.5"/>
<text text-anchor="middle" x="221" y="-531.3" font-family="Helvetica,sans-Serif" font-size="9.00">redis_ipc_send_debug</text>
</a>
</g>
</g>
<!-- Node5&#45;&gt;Node6 -->
<g id="edge5" class="edge">
<title>Node5&#45;&gt;Node6</title>
<path fill="none" stroke="midnightblue" d="M318.96,-508.06C298.75,-513.36 275.16,-519.55 256.31,-524.5"/>
<polygon fill="midnightblue" stroke="midnightblue" points="320.08,-511.38 328.87,-505.46 318.31,-504.61 320.08,-511.38"/>
</g>
<!-- Node8 -->
<g id="node8" class="node">
<title>Node8</title>
<g id="a_node8"><a xlink:href="redis__ipc_8c.html#a9040f6af2f364ef8da41175eb6073693" target="_top" xlink:title=" ">
<polygon fill="white" stroke="black" points="169.5,-487.5 169.5,-505.5 272.5,-505.5 272.5,-487.5 169.5,-487.5"/>
<text text-anchor="middle" x="221" y="-494.3" font-family="Helvetica,sans-Serif" font-size="9.00">redis_ipc_send_event</text>
</a>
</g>
</g>
<!-- Node5&#45;&gt;Node8 -->
<g id="edge9" class="edge">
<title>Node5&#45;&gt;Node8</title>
<path fill="none" stroke="midnightblue" d="M318.59,-496.5C303.99,-496.5 287.65,-496.5 272.63,-496.5"/>
<polygon fill="midnightblue" stroke="midnightblue" points="318.87,-500 328.87,-496.5 318.87,-493 318.87,-500"/>
</g>
<!-- Node6&#45;&gt;Node3 -->
<g id="edge6" class="edge">
<title>Node6&#45;&gt;Node3</title>
<path fill="none" stroke="midnightblue" d="M172.31,-544.99C157.21,-548.63 140.35,-552.7 124.6,-556.49"/>
<polygon fill="midnightblue" stroke="midnightblue" points="173.55,-548.3 182.45,-542.55 171.91,-541.49 173.55,-548.3"/>
</g>
<!-- Node6&#45;&gt;Node4 -->
<g id="edge7" class="edge">
<title>Node6&#45;&gt;Node4</title>
<path fill="none" stroke="midnightblue" d="M157.19,-529.41C147.06,-528.75 136.6,-528.07 126.54,-527.41"/>
<polygon fill="midnightblue" stroke="midnightblue" points="156.97,-532.9 167.17,-530.06 157.42,-525.92 156.97,-532.9"/>
</g>
<!-- Node7 -->
<g id="node7" class="node">
<title>Node7</title>
<g id="a_node7"><a xlink:href="redis__ipc_8c.html#aecff1f4edcb2ebf0654d0fff21e334a5" target="_top" xlink:title=" ">
<polygon fill="white" stroke="black" points="13.5,-461.5 13.5,-479.5 117.5,-479.5 117.5,-461.5 13.5,-461.5"/>
<text text-anchor="middle" x="65.5" y="-468.3" font-family="Helvetica,sans-Serif" font-size="9.00">redis_ipc_send_result</text>
</a>
</g>
</g>
<!-- Node6&#45;&gt;Node7 -->
<g id="edge8" class="edge">
<title>Node6&#45;&gt;Node7</title>
<path fill="none" stroke="midnightblue" d="M182.1,-521.11C176.99,-519.3 171.85,-517.4 167,-515.5 138.17,-504.18 105.58,-489.17 85.54,-479.67"/>
<polygon fill="midnightblue" stroke="midnightblue" points="181.17,-524.49 191.77,-524.46 183.46,-517.88 181.17,-524.49"/>
</g>
<!-- Node9&#45;&gt;Node4 -->
<g id="edge11" class="edge">
<title>Node9&#45;&gt;Node4</title>
<path fill="none" stroke="midnightblue" d="M184,-471.98C178.28,-474.09 172.46,-476.3 167,-478.5 143.06,-488.14 116.42,-500.12 96.59,-509.3"/>
<polygon fill="midnightblue" stroke="midnightblue" points="185.22,-475.27 193.43,-468.58 182.84,-468.68 185.22,-475.27"/>
</g>
<!-- Node9&#45;&gt;Node7 -->
<g id="edge12" class="edge">
<title>Node9&#45;&gt;Node7</title>
<path fill="none" stroke="midnightblue" d="M180.59,-462.32C161.45,-463.7 138.2,-465.36 117.7,-466.83"/>
<polygon fill="midnightblue" stroke="midnightblue" points="181.04,-465.8 190.77,-461.59 180.54,-458.82 181.04,-465.8"/>
</g>
<!-- Node11 -->
<g id="node11" class="node">
<title>Node11</title>
<g id="a_node11"><a xlink:href="redis__ipc_8c.html#a9da7fba1b0bb29372229c5c3a0fcb432" target="_top" xlink:title=" ">
<polygon fill="white" stroke="black" points="167.5,-413.5 167.5,-431.5 274.5,-431.5 274.5,-413.5 167.5,-413.5"/>
<text text-anchor="middle" x="221" y="-420.3" font-family="Helvetica,sans-Serif" font-size="9.00">redis_ipc_read_setting</text>
</a>
</g>
</g>
<!-- Node10&#45;&gt;Node11 -->
<g id="edge14" class="edge">
<title>Node10&#45;&gt;Node11</title>
<path fill="none" stroke="midnightblue" d="M318.68,-397.13C298.65,-402.39 275.34,-408.5 256.63,-413.41"/>
<polygon fill="midnightblue" stroke="midnightblue" points="319.72,-400.47 328.51,-394.55 317.95,-393.7 319.72,-400.47"/>
</g>
<!-- Node12 -->
<g id="node12" class="node">
<title>Node12</title>
<g id="a_node12"><a xlink:href="redis__ipc_8c.html#af379c19188b781eb8837ff97de173c41" target="_top" xlink:title=" ">
<polygon fill="white" stroke="black" points="168.5,-376.5 168.5,-394.5 273.5,-394.5 273.5,-376.5 168.5,-376.5"/>
<text text-anchor="middle" x="221" y="-383.3" font-family="Helvetica,sans-Serif" font-size="9.00">redis_ipc_read_status</text>
</a>
</g>
</g>
<!-- Node10&#45;&gt;Node12 -->
<g id="edge15" class="edge">
<title>Node10&#45;&gt;Node12</title>
<path fill="none" stroke="midnightblue" d="M312.01,-385.5C299.56,-385.5 286.23,-385.5 273.75,-385.5"/>
<polygon fill="midnightblue" stroke="midnightblue" points="312.22,-389 322.22,-385.5 312.22,-382 312.22,-389"/>
</g>
<!-- Node14 -->
<g id="node14" class="node">
<title>Node14</title>
<g id="a_node14"><a xlink:href="redis__ipc_8c.html#a4d32bc83ac8b8c46384c6c69a3a4e4a3" target="_top" xlink:title=" ">
<polygon fill="white" stroke="black" points="167.5,-329.5 167.5,-357.5 274.5,-357.5 274.5,-329.5 167.5,-329.5"/>
<text text-anchor="start" x="175.5" y="-346.3" font-family="Helvetica,sans-Serif" font-size="9.00">redis_ipc_read_setting</text>
<text text-anchor="middle" x="221" y="-336.3" font-family="Helvetica,sans-Serif" font-size="9.00">_field</text>
</a>
</g>
</g>
<!-- Node13&#45;&gt;Node14 -->
<g id="edge17" class="edge">
<title>Node13&#45;&gt;Node14</title>
<path fill="none" stroke="midnightblue" d="M301.07,-343.5C292.25,-343.5 283.26,-343.5 274.64,-343.5"/>
<polygon fill="midnightblue" stroke="midnightblue" points="301.3,-347 311.3,-343.5 301.3,-340 301.3,-347"/>
</g>
<!-- Node15 -->
<g id="node15" class="node">
<title>Node15</title>
<g id="a_node15"><a xlink:href="redis__ipc_8c.html#ac0d91847e135883a9dc48b57bdf463d7" target="_top" xlink:title=" ">
<polygon fill="white" stroke="black" points="168.5,-282.5 168.5,-310.5 273.5,-310.5 273.5,-282.5 168.5,-282.5"/>
<text text-anchor="start" x="176.5" y="-299.3" font-family="Helvetica,sans-Serif" font-size="9.00">redis_ipc_read_status</text>
<text text-anchor="middle" x="221" y="-289.3" font-family="Helvetica,sans-Serif" font-size="9.00">_field</text>
</a>
</g>
</g>
<!-- Node13&#45;&gt;Node15 -->
<g id="edge18" class="edge">
<title>Node13&#45;&gt;Node15</title>
<path fill="none" stroke="midnightblue" d="M326.29,-331.26C307.23,-324.91 283.87,-317.12 264.09,-310.53"/>
<polygon fill="midnightblue" stroke="midnightblue" points="325.22,-334.6 335.81,-334.44 327.43,-327.96 325.22,-334.6"/>
</g>
<!-- Node17 -->
<g id="node17" class="node">
<title>Node17</title>
<g id="a_node17"><a xlink:href="redis__ipc_8c.html#ac22692af167c24369831321eb5a1aa20" target="_top" xlink:title=" ">
<polygon fill="white" stroke="black" points="172.5,-235.5 172.5,-263.5 269.5,-263.5 269.5,-235.5 172.5,-235.5"/>
<text text-anchor="start" x="180.5" y="-252.3" font-family="Helvetica,sans-Serif" font-size="9.00">redis_ipc_subscribe</text>
<text text-anchor="middle" x="221" y="-242.3" font-family="Helvetica,sans-Serif" font-size="9.00">_debug</text>
</a>
</g>
</g>
<!-- Node16&#45;&gt;Node17 -->
<g id="edge20" class="edge">
<title>Node16&#45;&gt;Node17</title>
<path fill="none" stroke="midnightblue" d="M313.59,-249.5C299.31,-249.5 283.75,-249.5 269.59,-249.5"/>
<polygon fill="midnightblue" stroke="midnightblue" points="313.72,-253 323.72,-249.5 313.72,-246 313.72,-253"/>
</g>
<!-- Node18 -->
<g id="node18" class="node">
<title>Node18</title>
<g id="a_node18"><a xlink:href="redis__ipc_8c.html#a26390ed4efc19636cc62fc3adf9e3278" target="_top" xlink:title=" ">
<polygon fill="white" stroke="black" points="172.5,-188.5 172.5,-216.5 269.5,-216.5 269.5,-188.5 172.5,-188.5"/>
<text text-anchor="start" x="180.5" y="-205.3" font-family="Helvetica,sans-Serif" font-size="9.00">redis_ipc_subscribe</text>
<text text-anchor="middle" x="221" y="-195.3" font-family="Helvetica,sans-Serif" font-size="9.00">_events</text>
</a>
</g>
</g>
<!-- Node16&#45;&gt;Node18 -->
<g id="edge21" class="edge">
<title>Node16&#45;&gt;Node18</title>
<path fill="none" stroke="midnightblue" d="M326.29,-237.26C307.23,-230.91 283.87,-223.12 264.09,-216.53"/>
<polygon fill="midnightblue" stroke="midnightblue" points="325.22,-240.6 335.81,-240.44 327.43,-233.96 325.22,-240.6"/>
</g>
<!-- Node20 -->
<g id="node20" class="node">
<title>Node20</title>
<g id="a_node20"><a xlink:href="redis__ipc_8c.html#a55074bea4936100d8785f7ec9b5e83c9" target="_top" xlink:title=" ">
<polygon fill="white" stroke="black" points="168,-141.5 168,-169.5 274,-169.5 274,-141.5 168,-141.5"/>
<text text-anchor="start" x="176" y="-158.3" font-family="Helvetica,sans-Serif" font-size="9.00">redis_ipc_unsubscribe</text>
<text text-anchor="middle" x="221" y="-148.3" font-family="Helvetica,sans-Serif" font-size="9.00">_debug</text>
</a>
</g>
</g>
<!-- Node19&#45;&gt;Node20 -->
<g id="edge23" class="edge">
<title>Node19&#45;&gt;Node20</title>
<path fill="none" stroke="midnightblue" d="M308.91,-155.5C297.53,-155.5 285.54,-155.5 274.23,-155.5"/>
<polygon fill="midnightblue" stroke="midnightblue" points="309.16,-159 319.16,-155.5 309.16,-152 309.16,-159"/>
</g>
<!-- Node21 -->
<g id="node21" class="node">
<title>Node21</title>
<g id="a_node21"><a xlink:href="redis__ipc_8c.html#a88193bfef2bb1f36fa783c616d430c15" target="_top" xlink:title=" ">
<polygon fill="white" stroke="black" points="168,-94.5 168,-122.5 274,-122.5 274,-94.5 168,-94.5"/>
<text text-anchor="start" x="176" y="-111.3" font-family="Helvetica,sans-Serif" font-size="9.00">redis_ipc_unsubscribe</text>
<text text-anchor="middle" x="221" y="-101.3" font-family="Helvetica,sans-Serif" font-size="9.00">_events</text>
</a>
</g>
</g>
<!-- Node19&#45;&gt;Node21 -->
<g id="edge24" class="edge">
<title>Node19&#45;&gt;Node21</title>
<path fill="none" stroke="midnightblue" d="M326.29,-143.26C307.23,-136.91 283.87,-129.12 264.09,-122.53"/>
<polygon fill="midnightblue" stroke="midnightblue" points="325.22,-146.6 335.81,-146.44 327.43,-139.96 325.22,-146.6"/>
</g>
<!-- Node23 -->
<g id="node23" class="node">
<title>Node23</title>
<g id="a_node23"><a xlink:href="redis__ipc_8c.html#aef76ea4158d5075f2c2c0041ec62d1d5" target="_top" xlink:title=" ">
<polygon fill="white" stroke="black" points="167,-47.5 167,-75.5 275,-75.5 275,-47.5 167,-47.5"/>
<text text-anchor="start" x="175" y="-64.3" font-family="Helvetica,sans-Serif" font-size="9.00">redis_ipc_write_setting</text>
<text text-anchor="middle" x="221" y="-54.3" font-family="Helvetica,sans-Serif" font-size="9.00">_field</text>
</a>
</g>
</g>
<!-- Node22&#45;&gt;Node23 -->
<g id="edge26" class="edge">
<title>Node22&#45;&gt;Node23</title>
<path fill="none" stroke="midnightblue" d="M300.68,-61.5C292.22,-61.5 283.59,-61.5 275.3,-61.5"/>
<polygon fill="midnightblue" stroke="midnightblue" points="300.9,-65 310.9,-61.5 300.9,-58 300.9,-65"/>
</g>
<!-- Node24 -->
<g id="node24" class="node">
<title>Node24</title>
<g id="a_node24"><a xlink:href="redis__ipc_8c.html#a1ccd53107db1e7be09bb4e958975720e" target="_top" xlink:title=" ">
<polygon fill="white" stroke="black" points="168,-0.5 168,-28.5 274,-28.5 274,-0.5 168,-0.5"/>
<text text-anchor="start" x="176" y="-17.3" font-family="Helvetica,sans-Serif" font-size="9.00">redis_ipc_write_status</text>
<text text-anchor="middle" x="221" y="-7.3" font-family="Helvetica,sans-Serif" font-size="9.00">_field</text>
</a>
</g>
</g>
<!-- Node22&#45;&gt;Node24 -->
<g id="edge27" class="edge">
<title>Node22&#45;&gt;Node24</title>
<path fill="none" stroke="midnightblue" d="M326.29,-49.26C307.23,-42.91 283.87,-35.12 264.09,-28.53"/>
<polygon fill="midnightblue" stroke="midnightblue" points="325.22,-52.6 335.81,-52.44 327.43,-45.96 325.22,-52.6"/>
</g>
</g>
</svg>
