<?xml version="1.0" encoding="UTF-8" standalone="no"?>
<!DOCTYPE svg PUBLIC "-//W3C//DTD SVG 1.1//EN"
 "http://www.w3.org/Graphics/SVG/1.1/DTD/svg11.dtd">
<!-- Generated by graphviz version 2.47.1 (20210417.1919)
 -->
<!-- Title: redis_command Pages: 1 -->
<svg width="583pt" height="593pt"
 viewBox="0.00 0.00 583.00 593.00" xmlns="http://www.w3.org/2000/svg" xmlns:xlink="http://www.w3.org/1999/xlink">
<g id="graph0" class="graph" transform="scale(1 1) rotate(0) translate(4 589)">
<title>redis_command</title>
<polygon fill="white" stroke="transparent" points="-4,4 -4,-589 579,-589 579,4 -4,4"/>
<!-- Node1 -->
<g id="node1" class="node">
<title>Node1</title>
<g id="a_node1"><a xlink:title=" ">
<polygon fill="#bfbfbf" stroke="black" points="486,-355.5 486,-373.5 575,-373.5 575,-355.5 486,-355.5"/>
<text text-anchor="middle" x="530.5" y="-362.3" font-family="Helvetica,sans-Serif" font-size="9.00">redis_command</text>
</a>
</g>
</g>
<!-- Node2 -->
<g id="node2" class="node">
<title>Node2</title>
<g id="a_node2"><a xlink:href="redis__ipc_8c.html#aad35a453c0c1dea3338257c3e6841afe" target="_top" xlink:title=" ">
<polygon fill="white" stroke="black" points="208.5,-561.5 208.5,-579.5 268.5,-579.5 268.5,-561.5 208.5,-561.5"/>
<text text-anchor="middle" x="238.5" y="-568.3" font-family="Helvetica,sans-Serif" font-size="9.00">redis_pop</text>
</a>
</g>
</g>
<!-- Node1&#45;&gt;Node2 -->
<g id="edge1" class="edge">
<title>Node1&#45;&gt;Node2</title>
<path fill="none" stroke="midnightblue" d="M524.87,-383.55C516.02,-415.77 493.59,-480.9 450,-515.5 396.15,-558.24 312.48,-568.01 268.6,-570.08"/>
<polygon fill="midnightblue" stroke="midnightblue" points="528.32,-384.19 527.44,-373.63 521.54,-382.43 528.32,-384.19"/>
</g>
<!-- Node5 -->
<g id="node5" class="node">
<title>Node5</title>
<g id="a_node5"><a xlink:href="redis__ipc_8c.html#ab3dc5609833c201c4e9ebaa5e2e70a2f" target="_top" xlink:title=" ">
<polygon fill="white" stroke="black" points="354,-487.5 354,-505.5 430,-505.5 430,-487.5 354,-487.5"/>
<text text-anchor="middle" x="392" y="-494.3" font-family="Helvetica,sans-Serif" font-size="9.00">redis_publish</text>
</a>
</g>
</g>
<!-- Node1&#45;&gt;Node5 -->
<g id="edge4" class="edge">
<title>Node1&#45;&gt;Node5</title>
<path fill="none" stroke="midnightblue" d="M516.42,-381.73C501.46,-400.85 475.72,-432.1 450,-455.5 436.65,-467.64 419.69,-479.45 407.75,-487.25"/>
<polygon fill="midnightblue" stroke="midnightblue" points="519.32,-383.69 522.66,-373.64 513.78,-379.41 519.32,-383.69"/>
</g>
<!-- Node9 -->
<g id="node9" class="node">
<title>Node9</title>
<g id="a_node9"><a xlink:href="redis__ipc_8c.html#ae826a119ee7ca11d9636c6f34b9a29e9" target="_top" xlink:title=" ">
<polygon fill="white" stroke="black" points="206,-450.5 206,-468.5 271,-468.5 271,-450.5 206,-450.5"/>
<text text-anchor="middle" x="238.5" y="-457.3" font-family="Helvetica,sans-Serif" font-size="9.00">redis_push</text>
</a>
</g>
</g>
<!-- Node1&#45;&gt;Node9 -->
<g id="edge10" class="edge">
<title>Node1&#45;&gt;Node9</title>
<path fill="none" stroke="midnightblue" d="M504.93,-378.56C489.52,-386.94 469.03,-397.32 450,-404.5 388.33,-427.77 312.93,-444.87 271.17,-453.4"/>
<polygon fill="midnightblue" stroke="midnightblue" points="506.75,-381.55 513.81,-373.64 503.36,-375.42 506.75,-381.55"/>
</g>
<!-- Node10 -->
<g id="node10" class="node">
<title>Node10</title>
<g id="a_node10"><a xlink:href="redis__ipc_8c.html#a94fc3b660886cc8cc8e69692e0f5ca78" target="_top" xlink:title=" ">
<polygon fill="white" stroke="black" points="347.5,-376.5 347.5,-394.5 436.5,-394.5 436.5,-376.5 347.5,-376.5"/>
<text text-anchor="middle" x="392" y="-383.3" font-family="Helvetica,sans-Serif" font-size="9.00">redis_read_hash</text>
</a>
</g>
</g>
<!-- Node1&#45;&gt;Node10 -->
<g id="edge13" class="edge">
<title>Node1&#45;&gt;Node10</title>
<path fill="none" stroke="midnightblue" d="M475.73,-372.77C462.76,-374.77 449.06,-376.88 436.62,-378.79"/>
<polygon fill="midnightblue" stroke="midnightblue" points="476.58,-376.18 485.94,-371.2 475.52,-369.26 476.58,-376.18"/>
</g>
<!-- Node13 -->
<g id="node13" class="node">
<title>Node13</title>
<g id="a_node13"><a xlink:href="redis__ipc_8c.html#abbcf0019b124792da8357b2fa972e11a" target="_top" xlink:title=" ">
<polygon fill="white" stroke="black" points="335.5,-334.5 335.5,-352.5 448.5,-352.5 448.5,-334.5 335.5,-334.5"/>
<text text-anchor="middle" x="392" y="-341.3" font-family="Helvetica,sans-Serif" font-size="9.00">redis_read_hash_field</text>
</a>
</g>
</g>
<!-- Node1&#45;&gt;Node13 -->
<g id="edge16" class="edge">
<title>Node1&#45;&gt;Node13</title>
<path fill="none" stroke="midnightblue" d="M475.98,-356.27C467,-354.89 457.67,-353.45 448.64,-352.06"/>
<polygon fill="midnightblue" stroke="midnightblue" points="475.52,-359.74 485.94,-357.8 476.58,-352.82 475.52,-359.74"/>
</g>
<!-- Node16 -->
<g id="node16" class="node">
<title>Node16</title>
<g id="a_node16"><a xlink:href="redis__ipc_8c.html#a420fcd64722043e4bc0bb7f61a29d588" target="_top" xlink:title=" ">
<polygon fill="white" stroke="black" points="349,-240.5 349,-258.5 435,-258.5 435,-240.5 349,-240.5"/>
<text text-anchor="middle" x="392" y="-247.3" font-family="Helvetica,sans-Serif" font-size="9.00">redis_subscribe</text>
</a>
</g>
</g>
<!-- Node1&#45;&gt;Node16 -->
<g id="edge19" class="edge">
<title>Node1&#45;&gt;Node16</title>
<path fill="none" stroke="midnightblue" d="M511.07,-348.98C482.27,-324.71 427.45,-278.52 404.04,-258.8"/>
<polygon fill="midnightblue" stroke="midnightblue" points="508.89,-351.71 518.79,-355.48 513.4,-346.36 508.89,-351.71"/>
</g>
<!-- Node19 -->
<g id="node19" class="node">
<title>Node19</title>
<g id="a_node19"><a xlink:href="redis__ipc_8c.html#a40d3af6ed926711313712685503a1c91" target="_top" xlink:title=" ">
<polygon fill="white" stroke="black" points="343,-146.5 343,-164.5 441,-164.5 441,-146.5 343,-146.5"/>
<text text-anchor="middle" x="392" y="-153.3" font-family="Helvetica,sans-Serif" font-size="9.00">redis_unsubscribe</text>
</a>
</g>
</g>
<!-- Node1&#45;&gt;Node19 -->
<g id="edge22" class="edge">
<title>Node1&#45;&gt;Node19</title>
<path fill="none" stroke="midnightblue" d="M519.37,-346.2C504.8,-320.21 476.73,-271.33 450,-231.5 433.27,-206.58 411.52,-178.68 400.34,-164.63"/>
<polygon fill="midnightblue" stroke="midnightblue" points="516.5,-348.24 524.42,-355.27 522.61,-344.83 516.5,-348.24"/>
</g>
<!-- Node22 -->
<g id="node22" class="node">
<title>Node22</title>
<g id="a_node22"><a xlink:href="redis__ipc_8c.html#ad0c6708404743ef74dddacc617fb8b8e" target="_top" xlink:title=" ">
<polygon fill="white" stroke="black" points="334,-52.5 334,-70.5 450,-70.5 450,-52.5 334,-52.5"/>
<text text-anchor="middle" x="392" y="-59.3" font-family="Helvetica,sans-Serif" font-size="9.00">redis_write_hash_field</text>
</a>
</g>
</g>
<!-- Node1&#45;&gt;Node22 -->
<g id="edge25" class="edge">
<title>Node1&#45;&gt;Node22</title>
<path fill="none" stroke="midnightblue" d="M525.02,-345.72C515.05,-305.8 488.81,-210.24 450,-137.5 436.02,-111.31 413.52,-84.38 401.39,-70.69"/>
<polygon fill="midnightblue" stroke="midnightblue" points="521.62,-346.55 527.39,-355.43 528.42,-344.89 521.62,-346.55"/>
</g>
<!-- Node3 -->
<g id="node3" class="node">
<title>Node3</title>
<g id="a_node3"><a xlink:href="redis__ipc_8c.html#a6961dec4572f2b0b9f52ae09ae663728" target="_top" xlink:title=" ">
<polygon fill="white" stroke="black" points="0,-556.5 0,-584.5 143,-584.5 143,-556.5 0,-556.5"/>
<text text-anchor="start" x="8" y="-573.3" font-family="Helvetica,sans-Serif" font-size="9.00">redis_ipc_receive_command</text>
<text text-anchor="middle" x="71.5" y="-563.3" font-family="Helvetica,sans-Serif" font-size="9.00">_blocking</text>
</a>
</g>
</g>
<!-- Node2&#45;&gt;Node3 -->
<g id="edge2" class="edge">
<title>Node2&#45;&gt;Node3</title>
<path fill="none" stroke="midnightblue" d="M198.06,-570.5C181.6,-570.5 161.97,-570.5 143.17,-570.5"/>
<polygon fill="midnightblue" stroke="midnightblue" points="198.38,-574 208.38,-570.5 198.38,-567 198.38,-574"/>
</g>
<!-- Node4 -->
<g id="node4" class="node">
<title>Node4</title>
<g id="a_node4"><a xlink:href="redis__ipc_8c.html#a696ecebb5df3f171ed7b6adf682c83a2" target="_top" xlink:title=" ">
<polygon fill="white" stroke="black" points="5,-509.5 5,-537.5 138,-537.5 138,-509.5 5,-509.5"/>
<text text-anchor="start" x="13" y="-526.3" font-family="Helvetica,sans-Serif" font-size="9.00">redis_ipc_send_command</text>
<text text-anchor="middle" x="71.5" y="-516.3" font-family="Helvetica,sans-Serif" font-size="9.00">_blocking</text>
</a>
</g>
</g>
<!-- Node2&#45;&gt;Node4 -->
<g id="edge3" class="edge">
<title>Node2&#45;&gt;Node4</title>
<path fill="none" stroke="midnightblue" d="M198.63,-559.43C175.63,-552.88 146.29,-544.52 121.69,-537.51"/>
<polygon fill="midnightblue" stroke="midnightblue" points="197.8,-562.83 208.38,-562.21 199.72,-556.1 197.8,-562.83"/>
</g>
<!-- Node6 -->
<g id="node6" class="node">
<title>Node6</title>
<g id="a_node6"><a xlink:href="redis__ipc_8c.html#a66cdf2ae760d1acb487dd82c1392c12f" target="_top" xlink:title=" ">
<polygon fill="white" stroke="black" points="180.5,-524.5 180.5,-542.5 296.5,-542.5 296.5,-524.5 180.5,-524.5"/>
<text text-anchor="middle" x="238.5" y="-531.3" font-family="Helvetica,sans-Serif" font-size="9.00">redis_ipc_send_debug</text>
</a>
</g>
</g>
<!-- Node5&#45;&gt;Node6 -->
<g id="edge5" class="edge">
<title>Node5&#45;&gt;Node6</title>
<path fill="none" stroke="midnightblue" d="M344.22,-507.92C322.42,-513.25 296.86,-519.49 276.44,-524.48"/>
<polygon fill="midnightblue" stroke="midnightblue" points="345.05,-511.32 353.94,-505.55 343.39,-504.52 345.05,-511.32"/>
</g>
<!-- Node8 -->
<g id="node8" class="node">
<title>Node8</title>
<g id="a_node8"><a xlink:href="redis__ipc_8c.html#a9040f6af2f364ef8da41175eb6073693" target="_top" xlink:title=" ">
<polygon fill="white" stroke="black" points="182,-487.5 182,-505.5 295,-505.5 295,-487.5 182,-487.5"/>
<text text-anchor="middle" x="238.5" y="-494.3" font-family="Helvetica,sans-Serif" font-size="9.00">redis_ipc_send_event</text>
</a>
</g>
</g>
<!-- Node5&#45;&gt;Node8 -->
<g id="edge9" class="edge">
<title>Node5&#45;&gt;Node8</title>
<path fill="none" stroke="midnightblue" d="M343.62,-496.5C328.23,-496.5 311.02,-496.5 295.09,-496.5"/>
<polygon fill="midnightblue" stroke="midnightblue" points="343.94,-500 353.94,-496.5 343.94,-493 343.94,-500"/>
</g>
<!-- Node6&#45;&gt;Node3 -->
<g id="edge6" class="edge">
<title>Node6&#45;&gt;Node3</title>
<path fill="none" stroke="midnightblue" d="M187.17,-544.79C170.71,-548.48 152.21,-552.63 134.96,-556.49"/>
<polygon fill="midnightblue" stroke="midnightblue" points="188.14,-548.15 197.14,-542.55 186.61,-541.32 188.14,-548.15"/>
</g>
<!-- Node6&#45;&gt;Node4 -->
<g id="edge7" class="edge">
<title>Node6&#45;&gt;Node4</title>
<path fill="none" stroke="midnightblue" d="M170.23,-529.42C159.63,-528.78 148.69,-528.12 138.13,-527.48"/>
<polygon fill="midnightblue" stroke="midnightblue" points="170.06,-532.92 180.25,-530.03 170.48,-525.93 170.06,-532.92"/>
</g>
<!-- Node7 -->
<g id="node7" class="node">
<title>Node7</title>
<g id="a_node7"><a xlink:href="redis__ipc_8c.html#aecff1f4edcb2ebf0654d0fff21e334a5" target="_top" xlink:title=" ">
<polygon fill="white" stroke="black" points="15,-461.5 15,-479.5 128,-479.5 128,-461.5 15,-461.5"/>
<text text-anchor="middle" x="71.5" y="-468.3" font-family="Helvetica,sans-Serif" font-size="9.00">redis_ipc_send_result</text>
</a>
</g>
</g>
<!-- Node6&#45;&gt;Node7 -->
<g id="edge8" class="edge">
<title>Node6&#45;&gt;Node7</title>
<path fill="none" stroke="midnightblue" d="M196.33,-521.41C190.48,-519.52 184.57,-517.53 179,-515.5 174.76,-513.96 123.83,-492.34 93.96,-479.63"/>
<polygon fill="midnightblue" stroke="midnightblue" points="195.45,-524.8 206.03,-524.46 197.54,-518.12 195.45,-524.8"/>
</g>
<!-- Node9&#45;&gt;Node4 -->
<g id="edge11" class="edge">
<title>Node9&#45;&gt;Node4</title>
<path fill="none" stroke="midnightblue" d="M198.02,-471.81C191.63,-473.95 185.11,-476.22 179,-478.5 153.42,-488.04 124.96,-500.14 103.9,-509.39"/>
<polygon fill="midnightblue" stroke="midnightblue" points="199.46,-475.02 207.87,-468.58 197.28,-468.37 199.46,-475.02"/>
</g>
<!-- Node9&#45;&gt;Node7 -->
<g id="edge12" class="edge">
<title>Node9&#45;&gt;Node7</title>
<path fill="none" stroke="midnightblue" d="M195.45,-462.3C175.04,-463.66 150.24,-465.32 128.28,-466.78"/>
<polygon fill="midnightblue" stroke="midnightblue" points="195.94,-465.78 205.69,-461.62 195.48,-458.79 195.94,-465.78"/>
</g>
<!-- Node11 -->
<g id="node11" class="node">
<title>Node11</title>
<g id="a_node11"><a xlink:href="redis__ipc_8c.html#a3cfe2b5851e3cf7ef8acaafa0f409fae" target="_top" xlink:title=" ">
<polygon fill="white" stroke="black" points="180,-413.5 180,-431.5 297,-431.5 297,-413.5 180,-413.5"/>
<text text-anchor="middle" x="238.5" y="-420.3" font-family="Helvetica,sans-Serif" font-size="9.00">redis_ipc_read_setting</text>
</a>
</g>
</g>
<!-- Node10&#45;&gt;Node11 -->
<g id="edge14" class="edge">
<title>Node10&#45;&gt;Node11</title>
<path fill="none" stroke="midnightblue" d="M344.22,-396.92C322.42,-402.25 296.86,-408.49 276.44,-413.48"/>
<polygon fill="midnightblue" stroke="midnightblue" points="345.05,-400.32 353.94,-394.55 343.39,-393.52 345.05,-400.32"/>
</g>
<!-- Node12 -->
<g id="node12" class="node">
<title>Node12</title>
<g id="a_node12"><a xlink:href="redis__ipc_8c.html#ada50e7500b7b76526f3dbe186d330335" target="_top" xlink:title=" ">
<polygon fill="white" stroke="black" points="182,-376.5 182,-394.5 295,-394.5 295,-376.5 182,-376.5"/>
<text text-anchor="middle" x="238.5" y="-383.3" font-family="Helvetica,sans-Serif" font-size="9.00">redis_ipc_read_status</text>
</a>
</g>
</g>
<!-- Node10&#45;&gt;Node12 -->
<g id="edge15" class="edge">
<title>Node10&#45;&gt;Node12</title>
<path fill="none" stroke="midnightblue" d="M337.01,-385.5C323.41,-385.5 308.78,-385.5 295.1,-385.5"/>
<polygon fill="midnightblue" stroke="midnightblue" points="337.18,-389 347.18,-385.5 337.18,-382 337.18,-389"/>
</g>
<!-- Node14 -->
<g id="node14" class="node">
<title>Node14</title>
<g id="a_node14"><a xlink:href="redis__ipc_8c.html#a6afa8c8738fc3e50675c93724dfe2236" target="_top" xlink:title=" ">
<polygon fill="white" stroke="black" points="180,-329.5 180,-357.5 297,-357.5 297,-329.5 180,-329.5"/>
<text text-anchor="start" x="188" y="-346.3" font-family="Helvetica,sans-Serif" font-size="9.00">redis_ipc_read_setting</text>
<text text-anchor="middle" x="238.5" y="-336.3" font-family="Helvetica,sans-Serif" font-size="9.00">_field</text>
</a>
</g>
</g>
<!-- Node13&#45;&gt;Node14 -->
<g id="edge17" class="edge">
<title>Node13&#45;&gt;Node14</title>
<path fill="none" stroke="midnightblue" d="M325.35,-343.5C315.94,-343.5 306.32,-343.5 297.08,-343.5"/>
<polygon fill="midnightblue" stroke="midnightblue" points="325.45,-347 335.45,-343.5 325.45,-340 325.45,-347"/>
</g>
<!-- Node15 -->
<g id="node15" class="node">
<title>Node15</title>
<g id="a_node15"><a xlink:href="redis__ipc_8c.html#ad71c568720d1ca8e41c247516841eac4" target="_top" xlink:title=" ">
<polygon fill="white" stroke="black" points="182,-282.5 182,-310.5 295,-310.5 295,-282.5 182,-282.5"/>
<text text-anchor="start" x="190" y="-299.3" font-family="Helvetica,sans-Serif" font-size="9.00">redis_ipc_read_status</text>
<text text-anchor="middle" x="238.5" y="-289.3" font-family="Helvetica,sans-Serif" font-size="9.00">_field</text>
</a>
</g>
</g>
<!-- Node13&#45;&gt;Node15 -->
<g id="edge18" class="edge">
<title>Node13&#45;&gt;Node15</title>
<path fill="none" stroke="midnightblue" d="M352.11,-331.44C331.54,-325.05 306.17,-317.18 284.72,-310.53"/>
<polygon fill="midnightblue" stroke="midnightblue" points="351.2,-334.82 361.79,-334.44 353.28,-328.13 351.2,-334.82"/>
</g>
<!-- Node17 -->
<g id="node17" class="node">
<title>Node17</title>
<g id="a_node17"><a xlink:href="redis__ipc_8c.html#ac22692af167c24369831321eb5a1aa20" target="_top" xlink:title=" ">
<polygon fill="white" stroke="black" points="186.5,-235.5 186.5,-263.5 290.5,-263.5 290.5,-235.5 186.5,-235.5"/>
<text text-anchor="start" x="194.5" y="-252.3" font-family="Helvetica,sans-Serif" font-size="9.00">redis_ipc_subscribe</text>
<text text-anchor="middle" x="238.5" y="-242.3" font-family="Helvetica,sans-Serif" font-size="9.00">_debug</text>
</a>
</g>
</g>
<!-- Node16&#45;&gt;Node17 -->
<g id="edge20" class="edge">
<title>Node16&#45;&gt;Node17</title>
<path fill="none" stroke="midnightblue" d="M338.35,-249.5C322.89,-249.5 306,-249.5 290.63,-249.5"/>
<polygon fill="midnightblue" stroke="midnightblue" points="338.8,-253 348.8,-249.5 338.8,-246 338.8,-253"/>
</g>
<!-- Node18 -->
<g id="node18" class="node">
<title>Node18</title>
<g id="a_node18"><a xlink:href="redis__ipc_8c.html#a26390ed4efc19636cc62fc3adf9e3278" target="_top" xlink:title=" ">
<polygon fill="white" stroke="black" points="186.5,-188.5 186.5,-216.5 290.5,-216.5 290.5,-188.5 186.5,-188.5"/>
<text text-anchor="start" x="194.5" y="-205.3" font-family="Helvetica,sans-Serif" font-size="9.00">redis_ipc_subscribe</text>
<text text-anchor="middle" x="238.5" y="-195.3" font-family="Helvetica,sans-Serif" font-size="9.00">_events</text>
</a>
</g>
</g>
<!-- Node16&#45;&gt;Node18 -->
<g id="edge21" class="edge">
<title>Node16&#45;&gt;Node18</title>
<path fill="none" stroke="midnightblue" d="M352.11,-237.44C331.54,-231.05 306.17,-223.18 284.72,-216.53"/>
<polygon fill="midnightblue" stroke="midnightblue" points="351.2,-240.82 361.79,-240.44 353.28,-234.13 351.2,-240.82"/>
</g>
<!-- Node20 -->
<g id="node20" class="node">
<title>Node20</title>
<g id="a_node20"><a xlink:href="redis__ipc_8c.html#a55074bea4936100d8785f7ec9b5e83c9" target="_top" xlink:title=" ">
<polygon fill="white" stroke="black" points="180.5,-141.5 180.5,-169.5 296.5,-169.5 296.5,-141.5 180.5,-141.5"/>
<text text-anchor="start" x="188.5" y="-158.3" font-family="Helvetica,sans-Serif" font-size="9.00">redis_ipc_unsubscribe</text>
<text text-anchor="middle" x="238.5" y="-148.3" font-family="Helvetica,sans-Serif" font-size="9.00">_debug</text>
</a>
</g>
</g>
<!-- Node19&#45;&gt;Node20 -->
<g id="edge23" class="edge">
<title>Node19&#45;&gt;Node20</title>
<path fill="none" stroke="midnightblue" d="M332.49,-155.5C320.72,-155.5 308.37,-155.5 296.65,-155.5"/>
<polygon fill="midnightblue" stroke="midnightblue" points="332.65,-159 342.65,-155.5 332.65,-152 332.65,-159"/>
</g>
<!-- Node21 -->
<g id="node21" class="node">
<title>Node21</title>
<g id="a_node21"><a xlink:href="redis__ipc_8c.html#a88193bfef2bb1f36fa783c616d430c15" target="_top" xlink:title=" ">
<polygon fill="white" stroke="black" points="180.5,-94.5 180.5,-122.5 296.5,-122.5 296.5,-94.5 180.5,-94.5"/>
<text text-anchor="start" x="188.5" y="-111.3" font-family="Helvetica,sans-Serif" font-size="9.00">redis_ipc_unsubscribe</text>
<text text-anchor="middle" x="238.5" y="-101.3" font-family="Helvetica,sans-Serif" font-size="9.00">_events</text>
</a>
</g>
</g>
<!-- Node19&#45;&gt;Node21 -->
<g id="edge24" class="edge">
<title>Node19&#45;&gt;Node21</title>
<path fill="none" stroke="midnightblue" d="M352.11,-143.44C331.54,-137.05 306.17,-129.18 284.72,-122.53"/>
<polygon fill="midnightblue" stroke="midnightblue" points="351.2,-146.82 361.79,-146.44 353.28,-140.13 351.2,-146.82"/>
</g>
<!-- Node23 -->
<g id="node23" class="node">
<title>Node23</title>
<g id="a_node23"><a xlink:href="redis__ipc_8c.html#aef76ea4158d5075f2c2c0041ec62d1d5" target="_top" xlink:title=" ">
<polygon fill="white" stroke="black" points="179,-47.5 179,-75.5 298,-75.5 298,-47.5 179,-47.5"/>
<text text-anchor="start" x="187" y="-64.3" font-family="Helvetica,sans-Serif" font-size="9.00">redis_ipc_write_setting</text>
<text text-anchor="middle" x="238.5" y="-54.3" font-family="Helvetica,sans-Serif" font-size="9.00">_field</text>
</a>
</g>
</g>
<!-- Node22&#45;&gt;Node23 -->
<g id="edge26" class="edge">
<title>Node22&#45;&gt;Node23</title>
<path fill="none" stroke="midnightblue" d="M323.5,-61.5C315.03,-61.5 306.43,-61.5 298.12,-61.5"/>
<polygon fill="midnightblue" stroke="midnightblue" points="323.72,-65 333.72,-61.5 323.72,-58 323.72,-65"/>
</g>
<!-- Node24 -->
<g id="node24" class="node">
<title>Node24</title>
<g id="a_node24"><a xlink:href="redis__ipc_8c.html#a1ccd53107db1e7be09bb4e958975720e" target="_top" xlink:title=" ">
<polygon fill="white" stroke="black" points="180.5,-0.5 180.5,-28.5 296.5,-28.5 296.5,-0.5 180.5,-0.5"/>
<text text-anchor="start" x="188.5" y="-17.3" font-family="Helvetica,sans-Serif" font-size="9.00">redis_ipc_write_status</text>
<text text-anchor="middle" x="238.5" y="-7.3" font-family="Helvetica,sans-Serif" font-size="9.00">_field</text>
</a>
</g>
</g>
<!-- Node22&#45;&gt;Node24 -->
<g id="edge27" class="edge">
<title>Node22&#45;&gt;Node24</title>
<path fill="none" stroke="midnightblue" d="M352.11,-49.44C331.54,-43.05 306.17,-35.18 284.72,-28.53"/>
<polygon fill="midnightblue" stroke="midnightblue" points="351.2,-52.82 361.79,-52.44 353.28,-46.13 351.2,-52.82"/>
</g>
</g>
</svg>
