<?xml version="1.0" encoding="UTF-8" standalone="no"?>
<!DOCTYPE svg PUBLIC "-//W3C//DTD SVG 1.1//EN"
 "http://www.w3.org/Graphics/SVG/1.1/DTD/svg11.dtd">
<!-- Generated by graphviz version 3.0.0 (20220413.0106)
 -->
<!-- Title: redis_ipc_read_setting_field Pages: 1 -->
<svg width="734pt" height="118pt"
 viewBox="0.00 0.00 734.00 118.10" xmlns="http://www.w3.org/2000/svg" xmlns:xlink="http://www.w3.org/1999/xlink">
<g id="graph0" class="graph" transform="scale(1 1) rotate(0) translate(4 114.1)">
<title>redis_ipc_read_setting_field</title>
<polygon fill="white" stroke="transparent" points="-4,4 -4,-114.1 730,-114.1 730,4 -4,4"/>
<!-- Node1 -->
<g id="node1" class="node">
<title>Node1</title>
<g id="a_node1"><a xlink:title=" ">
<polygon fill="#bfbfbf" stroke="black" points="0,-70.5 0,-98.5 107,-98.5 107,-70.5 0,-70.5"/>
<text text-anchor="start" x="8" y="-87.3" font-family="Helvetica,sans-Serif" font-size="9.00">redis_ipc_read_setting</text>
<text text-anchor="middle" x="53.5" y="-77.3" font-family="Helvetica,sans-Serif" font-size="9.00">_field</text>
</a>
</g>
</g>
<!-- Node2 -->
<g id="node2" class="node">
<title>Node2</title>
<g id="a_node2"><a xlink:href="redis__ipc_8c.html#a7b930ec420c7b4bf2df1469aca77f93d" target="_top" xlink:title=" ">
<polygon fill="white" stroke="black" points="545.5,-76.5 545.5,-94.5 640.5,-94.5 640.5,-76.5 545.5,-76.5"/>
<text text-anchor="middle" x="593" y="-83.3" font-family="Helvetica,sans-Serif" font-size="9.00">get_per_thread_info</text>
</a>
</g>
</g>
<!-- Node1&#45;&gt;Node2 -->
<g id="edge1" class="edge">
<title>Node1&#45;&gt;Node2</title>
<path fill="none" stroke="midnightblue" d="M107.09,-97.7C118.83,-100.11 131.28,-102.26 143,-103.5 283.52,-118.41 449.98,-103.21 535.32,-93.04"/>
<polygon fill="midnightblue" stroke="midnightblue" points="535.81,-96.51 545.31,-91.83 534.97,-89.56 535.81,-96.51"/>
</g>
<!-- Node4 -->
<g id="node4" class="node">
<title>Node4</title>
<g id="a_node4"><a xlink:href="redis__ipc_8c.html#a67c9dd84d2426ab58a759dbdfd223267" target="_top" xlink:title=" ">
<polygon fill="white" stroke="black" points="170,-75.5 170,-93.5 221,-93.5 221,-75.5 170,-75.5"/>
<text text-anchor="middle" x="195.5" y="-82.3" font-family="Helvetica,sans-Serif" font-size="9.00">ipc_path</text>
</a>
</g>
</g>
<!-- Node1&#45;&gt;Node4 -->
<g id="edge3" class="edge">
<title>Node1&#45;&gt;Node4</title>
<path fill="none" stroke="midnightblue" d="M107.03,-84.5C124.55,-84.5 143.64,-84.5 159.5,-84.5"/>
<polygon fill="midnightblue" stroke="midnightblue" points="159.9,-88 169.9,-84.5 159.9,-81 159.9,-88"/>
</g>
<!-- Node5 -->
<g id="node5" class="node">
<title>Node5</title>
<g id="a_node5"><a xlink:href="redis__ipc_8c.html#a4f935a08f52bbc4ef3c81532488f9a80" target="_top" xlink:title=" ">
<polygon fill="white" stroke="black" points="143,-38.5 143,-56.5 248,-56.5 248,-38.5 143,-38.5"/>
<text text-anchor="middle" x="195.5" y="-45.3" font-family="Helvetica,sans-Serif" font-size="9.00">redis_read_hash_field</text>
</a>
</g>
</g>
<!-- Node1&#45;&gt;Node5 -->
<g id="edge4" class="edge">
<title>Node1&#45;&gt;Node5</title>
<path fill="none" stroke="midnightblue" d="M107.03,-70.62C121.39,-66.82 136.8,-62.75 150.62,-59.1"/>
<polygon fill="midnightblue" stroke="midnightblue" points="151.59,-62.46 160.37,-56.52 149.8,-55.69 151.59,-62.46"/>
</g>
<!-- Node3 -->
<g id="node3" class="node">
<title>Node3</title>
<g id="a_node3"><a xlink:href="redis__ipc_8c.html#af0449193b7cded86e600f052d0aabd39" target="_top" xlink:title=" ">
<polygon fill="white" stroke="black" points="688,-76.5 688,-94.5 726,-94.5 726,-76.5 688,-76.5"/>
<text text-anchor="middle" x="707" y="-83.3" font-family="Helvetica,sans-Serif" font-size="9.00">gettid</text>
</a>
</g>
</g>
<!-- Node2&#45;&gt;Node3 -->
<g id="edge2" class="edge">
<title>Node2&#45;&gt;Node3</title>
<path fill="none" stroke="midnightblue" d="M640.53,-85.5C653.19,-85.5 666.51,-85.5 677.82,-85.5"/>
<polygon fill="midnightblue" stroke="midnightblue" points="677.94,-89 687.94,-85.5 677.94,-82 677.94,-89"/>
</g>
<!-- Node6 -->
<g id="node6" class="node">
<title>Node6</title>
<g id="a_node6"><a xlink:href="redis__ipc_8c.html#afab35d4c40b4b1866fc0239bb885a39b" target="_top" xlink:title=" ">
<polygon fill="white" stroke="black" points="284,-38.5 284,-56.5 364,-56.5 364,-38.5 284,-38.5"/>
<text text-anchor="middle" x="324" y="-45.3" font-family="Helvetica,sans-Serif" font-size="9.00">redis_command</text>
</a>
</g>
</g>
<!-- Node5&#45;&gt;Node6 -->
<g id="edge5" class="edge">
<title>Node5&#45;&gt;Node6</title>
<path fill="none" stroke="midnightblue" d="M248.32,-47.5C256.67,-47.5 265.29,-47.5 273.58,-47.5"/>
<polygon fill="midnightblue" stroke="midnightblue" points="273.85,-51 283.85,-47.5 273.85,-44 273.85,-51"/>
</g>
<!-- Node7 -->
<g id="node7" class="node">
<title>Node7</title>
<g id="a_node7"><a xlink:href="redis__ipc_8c.html#a5e81feac565f9476476c5f042b2a5c9d" target="_top" xlink:title=" ">
<polygon fill="white" stroke="black" points="534,-0.5 534,-18.5 652,-18.5 652,-0.5 534,-0.5"/>
<text text-anchor="middle" x="593" y="-7.3" font-family="Helvetica,sans-Serif" font-size="9.00">stderr_debug_is_enabled</text>
</a>
</g>
</g>
<!-- Node5&#45;&gt;Node7 -->
<g id="edge11" class="edge">
<title>Node5&#45;&gt;Node7</title>
<path fill="none" stroke="midnightblue" d="M235.14,-38.44C250.32,-35.06 267.93,-31.35 284,-28.5 335.24,-19.42 348.11,-16.47 400,-12.5 441.02,-9.36 487.1,-8.55 523.84,-8.56"/>
<polygon fill="midnightblue" stroke="midnightblue" points="523.94,-12.06 533.94,-8.58 523.95,-5.06 523.94,-12.06"/>
</g>
<!-- Node6&#45;&gt;Node2 -->
<g id="edge6" class="edge">
<title>Node6&#45;&gt;Node2</title>
<path fill="none" stroke="midnightblue" d="M356.16,-56.5C369.55,-60.08 385.45,-63.95 400,-66.5 444.94,-74.37 496.4,-79.24 534.73,-82.08"/>
<polygon fill="midnightblue" stroke="midnightblue" points="534.95,-85.61 545.18,-82.83 535.45,-78.62 534.95,-85.61"/>
</g>
<!-- Node6&#45;&gt;Node7 -->
<g id="edge7" class="edge">
<title>Node6&#45;&gt;Node7</title>
<path fill="none" stroke="midnightblue" d="M356.16,-38.5C369.55,-34.92 385.45,-31.05 400,-28.5 440.71,-21.37 486.79,-16.7 523.6,-13.77"/>
<polygon fill="midnightblue" stroke="midnightblue" points="524.02,-17.25 533.72,-12.99 523.48,-10.27 524.02,-17.25"/>
</g>
<!-- Node8 -->
<g id="node8" class="node">
<title>Node8</title>
<g id="a_node8"><a xlink:href="redis__ipc_8c.html#a80ea8825dd17a3cff2530680c97d184a" target="_top" xlink:title=" ">
<polygon fill="white" stroke="black" points="400,-38.5 400,-56.5 498,-56.5 498,-38.5 400,-38.5"/>
<text text-anchor="middle" x="449" y="-45.3" font-family="Helvetica,sans-Serif" font-size="9.00">validate_redis_reply</text>
</a>
</g>
</g>
<!-- Node6&#45;&gt;Node8 -->
<g id="edge8" class="edge">
<title>Node6&#45;&gt;Node8</title>
<path fill="none" stroke="midnightblue" d="M364.26,-47.5C372.34,-47.5 381.02,-47.5 389.62,-47.5"/>
<polygon fill="midnightblue" stroke="midnightblue" points="389.63,-51 399.63,-47.5 389.63,-44 389.63,-51"/>
</g>
<!-- Node8&#45;&gt;Node2 -->
<g id="edge9" class="edge">
<title>Node8&#45;&gt;Node2</title>
<path fill="none" stroke="midnightblue" d="M483.65,-56.51C502.96,-61.67 527.43,-68.22 548.22,-73.79"/>
<polygon fill="midnightblue" stroke="midnightblue" points="547.53,-77.22 558.1,-76.43 549.34,-70.46 547.53,-77.22"/>
</g>
<!-- Node8&#45;&gt;Node7 -->
<g id="edge10" class="edge">
<title>Node8&#45;&gt;Node7</title>
<path fill="none" stroke="midnightblue" d="M483.65,-38.49C502.96,-33.33 527.43,-26.78 548.22,-21.21"/>
<polygon fill="midnightblue" stroke="midnightblue" points="549.34,-24.54 558.1,-18.57 547.53,-17.78 549.34,-24.54"/>
</g>
</g>
</svg>
