<?xml version="1.0" encoding="UTF-8" standalone="no"?>
<!DOCTYPE svg PUBLIC "-//W3C//DTD SVG 1.1//EN"
 "http://www.w3.org/Graphics/SVG/1.1/DTD/svg11.dtd">
<!-- Generated by graphviz version 2.50.0 (20220203.2022)
 -->
<!-- Title: json_add_common_fields Pages: 1 -->
<svg width="542pt" height="121pt"
 viewBox="0.00 0.00 542.00 121.00" xmlns="http://www.w3.org/2000/svg" xmlns:xlink="http://www.w3.org/1999/xlink">
<g id="graph0" class="graph" transform="scale(1 1) rotate(0) translate(4 117)">
<title>json_add_common_fields</title>
<polygon fill="white" stroke="transparent" points="-4,4 -4,-117 538,-117 538,4 -4,4"/>
<!-- Node1 -->
<g id="node1" class="node">
<title>Node1</title>
<g id="a_node1"><a xlink:title=" ">
<polygon fill="#bfbfbf" stroke="black" points="416,-29.5 416,-47.5 534,-47.5 534,-29.5 416,-29.5"/>
<text text-anchor="middle" x="475" y="-36.3" font-family="Helvetica,sans-Serif" font-size="9.00">json_add_common_fields</text>
</a>
</g>
</g>
<!-- Node2 -->
<g id="node2" class="node">
<title>Node2</title>
<g id="a_node2"><a xlink:href="redis__ipc_8c.html#ab3dc5609833c201c4e9ebaa5e2e70a2f" target="_top" xlink:title=" ">
<polygon fill="white" stroke="black" points="310,-48.5 310,-66.5 380,-66.5 380,-48.5 310,-48.5"/>
<text text-anchor="middle" x="345" y="-55.3" font-family="Helvetica,sans-Serif" font-size="9.00">redis_publish</text>
</a>
</g>
</g>
<!-- Node1&#45;&gt;Node2 -->
<g id="edge1" class="edge">
<title>Node1&#45;&gt;Node2</title>
<path fill="none" stroke="midnightblue" d="M405.87,-48.61C396.91,-49.94 388.06,-51.26 380.03,-52.45"/>
<polygon fill="midnightblue" stroke="midnightblue" points="406.61,-52.04 415.99,-47.11 405.59,-45.12 406.61,-52.04"/>
</g>
<!-- Node8 -->
<g id="node8" class="node">
<title>Node8</title>
<g id="a_node8"><a xlink:href="redis__ipc_8c.html#ae826a119ee7ca11d9636c6f34b9a29e9" target="_top" xlink:title=" ">
<polygon fill="white" stroke="black" points="190.5,-10.5 190.5,-28.5 250.5,-28.5 250.5,-10.5 190.5,-10.5"/>
<text text-anchor="middle" x="220.5" y="-17.3" font-family="Helvetica,sans-Serif" font-size="9.00">redis_push</text>
</a>
</g>
</g>
<!-- Node1&#45;&gt;Node8 -->
<g id="edge7" class="edge">
<title>Node1&#45;&gt;Node8</title>
<path fill="none" stroke="midnightblue" d="M405.5,-33.35C354.73,-29.53 288.07,-24.51 250.51,-21.68"/>
<polygon fill="midnightblue" stroke="midnightblue" points="405.52,-36.86 415.75,-34.12 406.05,-29.88 405.52,-36.86"/>
</g>
<!-- Node3 -->
<g id="node3" class="node">
<title>Node3</title>
<g id="a_node3"><a xlink:href="redis__ipc_8c.html#a66cdf2ae760d1acb487dd82c1392c12f" target="_top" xlink:title=" ">
<polygon fill="white" stroke="black" points="167,-47.5 167,-65.5 274,-65.5 274,-47.5 167,-47.5"/>
<text text-anchor="middle" x="220.5" y="-54.3" font-family="Helvetica,sans-Serif" font-size="9.00">redis_ipc_send_debug</text>
</a>
</g>
</g>
<!-- Node2&#45;&gt;Node3 -->
<g id="edge2" class="edge">
<title>Node2&#45;&gt;Node3</title>
<path fill="none" stroke="midnightblue" d="M299.7,-57.14C291.44,-57.07 282.73,-57 274.25,-56.93"/>
<polygon fill="midnightblue" stroke="midnightblue" points="299.85,-60.64 309.88,-57.22 299.91,-53.64 299.85,-60.64"/>
</g>
<!-- Node7 -->
<g id="node7" class="node">
<title>Node7</title>
<g id="a_node7"><a xlink:href="redis__ipc_8c.html#a9040f6af2f364ef8da41175eb6073693" target="_top" xlink:title=" ">
<polygon fill="white" stroke="black" points="169,-84.5 169,-102.5 272,-102.5 272,-84.5 169,-84.5"/>
<text text-anchor="middle" x="220.5" y="-91.3" font-family="Helvetica,sans-Serif" font-size="9.00">redis_ipc_send_event</text>
</a>
</g>
</g>
<!-- Node2&#45;&gt;Node7 -->
<g id="edge6" class="edge">
<title>Node2&#45;&gt;Node7</title>
<path fill="none" stroke="midnightblue" d="M303.12,-69.51C286.57,-74.38 267.78,-79.9 252.4,-84.42"/>
<polygon fill="midnightblue" stroke="midnightblue" points="304.48,-72.76 313.09,-66.58 302.51,-66.05 304.48,-72.76"/>
</g>
<!-- Node4 -->
<g id="node4" class="node">
<title>Node4</title>
<g id="a_node4"><a xlink:href="redis__ipc_8c.html#a69a016ee903b3d8873ada802806e615d" target="_top" xlink:title=" ">
<polygon fill="white" stroke="black" points="0,-84.5 0,-112.5 131,-112.5 131,-84.5 0,-84.5"/>
<text text-anchor="start" x="8" y="-101.3" font-family="Helvetica,sans-Serif" font-size="9.00">redis_ipc_receive_command</text>
<text text-anchor="middle" x="65.5" y="-91.3" font-family="Helvetica,sans-Serif" font-size="9.00">_blocking</text>
</a>
</g>
</g>
<!-- Node3&#45;&gt;Node4 -->
<g id="edge3" class="edge">
<title>Node3&#45;&gt;Node4</title>
<path fill="none" stroke="midnightblue" d="M176.84,-68.21C158.48,-73.25 136.85,-79.19 117.63,-84.46"/>
<polygon fill="midnightblue" stroke="midnightblue" points="177.96,-71.53 186.68,-65.51 176.11,-64.78 177.96,-71.53"/>
</g>
<!-- Node5 -->
<g id="node5" class="node">
<title>Node5</title>
<g id="a_node5"><a xlink:href="redis__ipc_8c.html#afef4b2a08b3597ca1f62b7ead9490ef4" target="_top" xlink:title=" ">
<polygon fill="white" stroke="black" points="4.5,-0.5 4.5,-28.5 126.5,-28.5 126.5,-0.5 4.5,-0.5"/>
<text text-anchor="start" x="12.5" y="-17.3" font-family="Helvetica,sans-Serif" font-size="9.00">redis_ipc_send_command</text>
<text text-anchor="middle" x="65.5" y="-7.3" font-family="Helvetica,sans-Serif" font-size="9.00">_blocking</text>
</a>
</g>
</g>
<!-- Node3&#45;&gt;Node5 -->
<g id="edge4" class="edge">
<title>Node3&#45;&gt;Node5</title>
<path fill="none" stroke="midnightblue" d="M176.84,-44.79C158.48,-39.75 136.85,-33.81 117.63,-28.54"/>
<polygon fill="midnightblue" stroke="midnightblue" points="176.11,-48.22 186.68,-47.49 177.96,-41.47 176.11,-48.22"/>
</g>
<!-- Node6 -->
<g id="node6" class="node">
<title>Node6</title>
<g id="a_node6"><a xlink:href="redis__ipc_8c.html#aecff1f4edcb2ebf0654d0fff21e334a5" target="_top" xlink:title=" ">
<polygon fill="white" stroke="black" points="13.5,-47.5 13.5,-65.5 117.5,-65.5 117.5,-47.5 13.5,-47.5"/>
<text text-anchor="middle" x="65.5" y="-54.3" font-family="Helvetica,sans-Serif" font-size="9.00">redis_ipc_send_result</text>
</a>
</g>
</g>
<!-- Node3&#45;&gt;Node6 -->
<g id="edge5" class="edge">
<title>Node3&#45;&gt;Node6</title>
<path fill="none" stroke="midnightblue" d="M156.61,-56.5C143.66,-56.5 130.17,-56.5 117.7,-56.5"/>
<polygon fill="midnightblue" stroke="midnightblue" points="156.85,-60 166.85,-56.5 156.85,-53 156.85,-60"/>
</g>
<!-- Node8&#45;&gt;Node5 -->
<g id="edge8" class="edge">
<title>Node8&#45;&gt;Node5</title>
<path fill="none" stroke="midnightblue" d="M180.12,-18.21C163.83,-17.68 144.56,-17.05 126.57,-16.46"/>
<polygon fill="midnightblue" stroke="midnightblue" points="180.25,-21.72 190.36,-18.55 180.48,-14.72 180.25,-21.72"/>
</g>
<!-- Node8&#45;&gt;Node6 -->
<g id="edge9" class="edge">
<title>Node8&#45;&gt;Node6</title>
<path fill="none" stroke="midnightblue" d="M180.38,-28.96C156.88,-34.64 127.14,-41.84 103.94,-47.44"/>
<polygon fill="midnightblue" stroke="midnightblue" points="181.46,-32.3 190.36,-26.55 179.82,-25.5 181.46,-32.3"/>
</g>
</g>
</svg>
