<?xml version="1.0" encoding="UTF-8" standalone="no"?>
<!DOCTYPE svg PUBLIC "-//W3C//DTD SVG 1.1//EN"
 "http://www.w3.org/Graphics/SVG/1.1/DTD/svg11.dtd">
<!-- Generated by graphviz version 2.50.0 (20220203.2022)
 -->
<!-- Title: json_add_common_fields Pages: 1 -->
<svg width="331pt" height="46pt"
 viewBox="0.00 0.00 331.00 46.00" xmlns="http://www.w3.org/2000/svg" xmlns:xlink="http://www.w3.org/1999/xlink">
<g id="graph0" class="graph" transform="scale(1 1) rotate(0) translate(4 42)">
<title>json_add_common_fields</title>
<polygon fill="white" stroke="transparent" points="-4,4 -4,-42 327,-42 327,4 -4,4"/>
<!-- Node1 -->
<g id="node1" class="node">
<title>Node1</title>
<g id="a_node1"><a xlink:title=" ">
<polygon fill="#bfbfbf" stroke="black" points="0,-0.5 0,-18.5 118,-18.5 118,-0.5 0,-0.5"/>
<text text-anchor="middle" x="59" y="-7.3" font-family="Helvetica,sans-Serif" font-size="9.00">json_add_common_fields</text>
</a>
</g>
</g>
<!-- Node2 -->
<g id="node2" class="node">
<title>Node2</title>
<g id="a_node2"><a xlink:href="redis__ipc_8c.html#a7b930ec420c7b4bf2df1469aca77f93d" target="_top" xlink:title=" ">
<polygon fill="white" stroke="black" points="154,-19.5 154,-37.5 249,-37.5 249,-19.5 154,-19.5"/>
<text text-anchor="middle" x="201.5" y="-26.3" font-family="Helvetica,sans-Serif" font-size="9.00">get_per_thread_info</text>
</a>
</g>
</g>
<!-- Node1&#45;&gt;Node2 -->
<g id="edge1" class="edge">
<title>Node1&#45;&gt;Node2</title>
<path fill="none" stroke="midnightblue" d="M118.36,-17.39C126.73,-18.52 135.32,-19.69 143.65,-20.81"/>
<polygon fill="midnightblue" stroke="midnightblue" points="143.27,-24.29 153.65,-22.16 144.21,-17.36 143.27,-24.29"/>
</g>
<!-- Node3 -->
<g id="node3" class="node">
<title>Node3</title>
<g id="a_node3"><a xlink:href="redis__ipc_8c.html#af0449193b7cded86e600f052d0aabd39" target="_top" xlink:title=" ">
<polygon fill="white" stroke="black" points="285,-0.5 285,-18.5 323,-18.5 323,-0.5 285,-0.5"/>
<text text-anchor="middle" x="304" y="-7.3" font-family="Helvetica,sans-Serif" font-size="9.00">gettid</text>
</a>
</g>
</g>
<!-- Node1&#45;&gt;Node3 -->
<g id="edge3" class="edge">
<title>Node1&#45;&gt;Node3</title>
<path fill="none" stroke="midnightblue" d="M118.2,-9.5C167.53,-9.5 236.17,-9.5 274.4,-9.5"/>
<polygon fill="midnightblue" stroke="midnightblue" points="274.78,-13 284.78,-9.5 274.78,-6 274.78,-13"/>
</g>
<!-- Node2&#45;&gt;Node3 -->
<g id="edge2" class="edge">
<title>Node2&#45;&gt;Node3</title>
<path fill="none" stroke="midnightblue" d="M249.22,-19.67C258.06,-18 267.04,-16.3 275.07,-14.78"/>
<polygon fill="midnightblue" stroke="midnightblue" points="275.81,-18.2 284.99,-12.91 274.51,-11.32 275.81,-18.2"/>
</g>
</g>
</svg>
