<?xml version="1.0" encoding="UTF-8" standalone="no"?>
<!DOCTYPE svg PUBLIC "-//W3C//DTD SVG 1.1//EN"
 "http://www.w3.org/Graphics/SVG/1.1/DTD/svg11.dtd">
<!-- Generated by graphviz version 3.0.0 (20220413.0106)
 -->
<!-- Title: redis_push Pages: 1 -->
<svg width="226pt" height="74pt"
 viewBox="0.00 0.00 226.00 74.00" xmlns="http://www.w3.org/2000/svg" xmlns:xlink="http://www.w3.org/1999/xlink">
<g id="graph0" class="graph" transform="scale(1 1) rotate(0) translate(4 70)">
<title>redis_push</title>
<polygon fill="white" stroke="transparent" points="-4,4 -4,-70 222,-70 222,4 -4,4"/>
<!-- Node1 -->
<g id="node1" class="node">
<title>Node1</title>
<g id="a_node1"><a xlink:title=" ">
<polygon fill="#bfbfbf" stroke="black" points="158,-21.5 158,-39.5 218,-39.5 218,-21.5 158,-21.5"/>
<text text-anchor="middle" x="188" y="-28.3" font-family="Helvetica,sans-Serif" font-size="9.00">redis_push</text>
</a>
</g>
</g>
<!-- Node2 -->
<g id="node2" class="node">
<title>Node2</title>
<g id="a_node2"><a xlink:href="redis__ipc_8c.html#afef4b2a08b3597ca1f62b7ead9490ef4" target="_top" xlink:title=" ">
<polygon fill="white" stroke="black" points="0,-37.5 0,-65.5 122,-65.5 122,-37.5 0,-37.5"/>
<text text-anchor="start" x="8" y="-54.3" font-family="Helvetica,sans-Serif" font-size="9.00">redis_ipc_send_command</text>
<text text-anchor="middle" x="61" y="-44.3" font-family="Helvetica,sans-Serif" font-size="9.00">_blocking</text>
</a>
</g>
</g>
<!-- Node1&#45;&gt;Node2 -->
<g id="edge1" class="edge">
<title>Node1&#45;&gt;Node2</title>
<path fill="none" stroke="midnightblue" d="M147.75,-37.09C139.6,-38.46 130.84,-39.94 122.13,-41.4"/>
<polygon fill="midnightblue" stroke="midnightblue" points="148.41,-40.53 157.69,-35.42 147.25,-33.63 148.41,-40.53"/>
</g>
<!-- Node3 -->
<g id="node3" class="node">
<title>Node3</title>
<g id="a_node3"><a xlink:href="redis__ipc_8c.html#aecff1f4edcb2ebf0654d0fff21e334a5" target="_top" xlink:title=" ">
<polygon fill="white" stroke="black" points="9,-0.5 9,-18.5 113,-18.5 113,-0.5 9,-0.5"/>
<text text-anchor="middle" x="61" y="-7.3" font-family="Helvetica,sans-Serif" font-size="9.00">redis_ipc_send_result</text>
</a>
</g>
</g>
<!-- Node1&#45;&gt;Node3 -->
<g id="edge2" class="edge">
<title>Node1&#45;&gt;Node3</title>
<path fill="none" stroke="midnightblue" d="M147.6,-23.88C136.67,-22.05 124.65,-20.02 113.15,-18.09"/>
<polygon fill="midnightblue" stroke="midnightblue" points="147.25,-27.37 157.69,-25.58 148.41,-20.47 147.25,-27.37"/>
</g>
</g>
</svg>
