<?xml version="1.0" encoding="UTF-8" standalone="no"?>
<!DOCTYPE svg PUBLIC "-//W3C//DTD SVG 1.1//EN"
 "http://www.w3.org/Graphics/SVG/1.1/DTD/svg11.dtd">
<!-- Generated by graphviz version 3.0.0 (20220413.0106)
 -->
<!-- Title: get_per_thread_info Pages: 1 -->
<svg width="859pt" height="1031pt"
 viewBox="0.00 0.00 859.00 1031.07" xmlns="http://www.w3.org/2000/svg" xmlns:xlink="http://www.w3.org/1999/xlink">
<g id="graph0" class="graph" transform="scale(1 1) rotate(0) translate(4 1027.07)">
<title>get_per_thread_info</title>
<polygon fill="white" stroke="transparent" points="-4,4 -4,-1027.07 855,-1027.07 855,4 -4,4"/>
<!-- Node1 -->
<g id="node1" class="node">
<title>Node1</title>
<g id="a_node1"><a xlink:title=" ">
<polygon fill="#bfbfbf" stroke="black" points="756,-499.33 756,-517.33 851,-517.33 851,-499.33 756,-499.33"/>
<text text-anchor="middle" x="803.5" y="-506.13" font-family="Helvetica,sans-Serif" font-size="9.00">get_per_thread_info</text>
</a>
</g>
</g>
<!-- Node2 -->
<g id="node2" class="node">
<title>Node2</title>
<g id="a_node2"><a xlink:href="redis__ipc_8c.html#a1ca0a131f083c0547523e40cae96936e" target="_top" xlink:title=" ">
<polygon fill="white" stroke="black" points="453.5,-784.33 453.5,-802.33 571.5,-802.33 571.5,-784.33 453.5,-784.33"/>
<text text-anchor="middle" x="512.5" y="-791.13" font-family="Helvetica,sans-Serif" font-size="9.00">json_add_common_fields</text>
</a>
</g>
</g>
<!-- Node1&#45;&gt;Node2 -->
<g id="edge1" class="edge">
<title>Node1&#45;&gt;Node2</title>
<path fill="none" stroke="midnightblue" d="M802.93,-527.52C802.87,-576.59 795.32,-707.15 720,-769.33 679.09,-803.11 617.07,-806.01 571.68,-802.36"/>
<polygon fill="midnightblue" stroke="midnightblue" points="806.43,-527.33 802.83,-517.37 799.43,-527.4 806.43,-527.33"/>
</g>
<!-- Node4 -->
<g id="node4" class="node">
<title>Node4</title>
<g id="a_node4"><a xlink:href="redis__ipc_8c.html#a66cdf2ae760d1acb487dd82c1392c12f" target="_top" xlink:title=" ">
<polygon fill="white" stroke="black" points="167.5,-860.33 167.5,-878.33 274.5,-878.33 274.5,-860.33 167.5,-860.33"/>
<text text-anchor="middle" x="221" y="-867.13" font-family="Helvetica,sans-Serif" font-size="9.00">redis_ipc_send_debug</text>
</a>
</g>
</g>
<!-- Node1&#45;&gt;Node4 -->
<g id="edge43" class="edge">
<title>Node1&#45;&gt;Node4</title>
<path fill="none" stroke="midnightblue" d="M800.58,-527.65C793.72,-592.66 768.19,-801.84 720,-845.33 583.78,-968.28 331.65,-904.06 249,-878.35"/>
<polygon fill="midnightblue" stroke="midnightblue" points="804.08,-527.87 801.62,-517.57 797.11,-527.16 804.08,-527.87"/>
</g>
<!-- Node5 -->
<g id="node5" class="node">
<title>Node5</title>
<g id="a_node5"><a xlink:href="redis__ipc_8c.html#a69a016ee903b3d8873ada802806e615d" target="_top" xlink:title=" ">
<polygon fill="white" stroke="black" points="0,-853.33 0,-881.33 131,-881.33 131,-853.33 0,-853.33"/>
<text text-anchor="start" x="8" y="-870.13" font-family="Helvetica,sans-Serif" font-size="9.00">redis_ipc_receive_command</text>
<text text-anchor="middle" x="65.5" y="-860.13" font-family="Helvetica,sans-Serif" font-size="9.00">_blocking</text>
</a>
</g>
</g>
<!-- Node1&#45;&gt;Node5 -->
<g id="edge41" class="edge">
<title>Node1&#45;&gt;Node5</title>
<path fill="none" stroke="midnightblue" d="M801.27,-527.9C796.21,-602.1 774.68,-864.95 720,-924.33 655.35,-994.55 608.95,-983.33 513.5,-983.33 513.5,-983.33 513.5,-983.33 363,-983.33 275.48,-983.33 238.87,-1014.28 167,-964.33 136.97,-943.46 158.25,-914.73 131,-890.33 127.1,-886.84 122.64,-883.87 117.92,-881.35"/>
<polygon fill="midnightblue" stroke="midnightblue" points="804.78,-527.88 801.94,-517.67 797.79,-527.42 804.78,-527.88"/>
</g>
<!-- Node6 -->
<g id="node6" class="node">
<title>Node6</title>
<g id="a_node6"><a xlink:href="redis__ipc_8c.html#afef4b2a08b3597ca1f62b7ead9490ef4" target="_top" xlink:title=" ">
<polygon fill="white" stroke="black" points="4.5,-794.33 4.5,-822.33 126.5,-822.33 126.5,-794.33 4.5,-794.33"/>
<text text-anchor="start" x="12.5" y="-811.13" font-family="Helvetica,sans-Serif" font-size="9.00">redis_ipc_send_command</text>
<text text-anchor="middle" x="65.5" y="-801.13" font-family="Helvetica,sans-Serif" font-size="9.00">_blocking</text>
</a>
</g>
</g>
<!-- Node1&#45;&gt;Node6 -->
<g id="edge42" class="edge">
<title>Node1&#45;&gt;Node6</title>
<path fill="none" stroke="midnightblue" d="M799.8,-527.76C791.14,-587.12 762.17,-764.32 720,-801.33 650.29,-862.51 606.24,-831.33 513.5,-831.33 513.5,-831.33 513.5,-831.33 363,-831.33 280.91,-831.33 186.41,-822.46 126.59,-815.74"/>
<polygon fill="midnightblue" stroke="midnightblue" points="803.31,-527.93 801.26,-517.54 796.38,-526.94 803.31,-527.93"/>
</g>
<!-- Node7 -->
<g id="node7" class="node">
<title>Node7</title>
<g id="a_node7"><a xlink:href="redis__ipc_8c.html#aecff1f4edcb2ebf0654d0fff21e334a5" target="_top" xlink:title=" ">
<polygon fill="white" stroke="black" points="13.5,-900.33 13.5,-918.33 117.5,-918.33 117.5,-900.33 13.5,-900.33"/>
<text text-anchor="middle" x="65.5" y="-907.13" font-family="Helvetica,sans-Serif" font-size="9.00">redis_ipc_send_result</text>
</a>
</g>
</g>
<!-- Node1&#45;&gt;Node7 -->
<g id="edge45" class="edge">
<title>Node1&#45;&gt;Node7</title>
<path fill="none" stroke="midnightblue" d="M801.71,-527.89C798.12,-606.91 780.79,-901.61 720,-967.33 655.59,-1036.97 608.36,-1021.33 513.5,-1021.33 513.5,-1021.33 513.5,-1021.33 363,-1021.33 274.94,-1021.33 247.46,-1028.13 167,-992.33 126.89,-974.49 89.86,-936.02 74.27,-918.44"/>
<polygon fill="midnightblue" stroke="midnightblue" points="805.22,-527.62 802.16,-517.48 798.23,-527.32 805.22,-527.62"/>
</g>
<!-- Node8 -->
<g id="node8" class="node">
<title>Node8</title>
<g id="a_node8"><a xlink:href="redis__ipc_8c.html#a9040f6af2f364ef8da41175eb6073693" target="_top" xlink:title=" ">
<polygon fill="white" stroke="black" points="169.5,-936.33 169.5,-954.33 272.5,-954.33 272.5,-936.33 169.5,-936.33"/>
<text text-anchor="middle" x="221" y="-943.13" font-family="Helvetica,sans-Serif" font-size="9.00">redis_ipc_send_event</text>
</a>
</g>
</g>
<!-- Node1&#45;&gt;Node8 -->
<g id="edge44" class="edge">
<title>Node1&#45;&gt;Node8</title>
<path fill="none" stroke="midnightblue" d="M800.92,-527.55C794.8,-597.18 770.51,-834.88 720,-888.33 659.93,-951.9 387.19,-950.78 272.76,-947.37"/>
<polygon fill="midnightblue" stroke="midnightblue" points="804.41,-527.81 801.77,-517.55 797.43,-527.22 804.41,-527.81"/>
</g>
<!-- Node10 -->
<g id="node10" class="node">
<title>Node10</title>
<g id="a_node10"><a xlink:href="redis__ipc_8c.html#afab35d4c40b4b1866fc0239bb885a39b" target="_top" xlink:title=" ">
<polygon fill="white" stroke="black" points="472.5,-518.33 472.5,-536.33 552.5,-536.33 552.5,-518.33 472.5,-518.33"/>
<text text-anchor="middle" x="512.5" y="-525.13" font-family="Helvetica,sans-Serif" font-size="9.00">redis_command</text>
</a>
</g>
</g>
<!-- Node1&#45;&gt;Node10 -->
<g id="edge11" class="edge">
<title>Node1&#45;&gt;Node10</title>
<path fill="none" stroke="midnightblue" d="M745.46,-512.08C688.5,-515.83 602.48,-521.48 552.76,-524.75"/>
<polygon fill="midnightblue" stroke="midnightblue" points="746,-515.56 755.75,-511.41 745.54,-508.57 746,-515.56"/>
</g>
<!-- Node13 -->
<g id="node13" class="node">
<title>Node13</title>
<g id="a_node13"><a xlink:href="redis__ipc_8c.html#a9da7fba1b0bb29372229c5c3a0fcb432" target="_top" xlink:title=" ">
<polygon fill="white" stroke="black" points="167.5,-746.33 167.5,-764.33 274.5,-764.33 274.5,-746.33 167.5,-746.33"/>
<text text-anchor="middle" x="221" y="-753.13" font-family="Helvetica,sans-Serif" font-size="9.00">redis_ipc_read_setting</text>
</a>
</g>
</g>
<!-- Node1&#45;&gt;Node13 -->
<g id="edge37" class="edge">
<title>Node1&#45;&gt;Node13</title>
<path fill="none" stroke="midnightblue" d="M794.12,-526.81C781.54,-552.59 755.42,-599.24 720,-626.33 583.98,-730.38 372.33,-750.93 274.66,-754.7"/>
<polygon fill="midnightblue" stroke="midnightblue" points="797.44,-527.99 798.54,-517.45 791.11,-525 797.44,-527.99"/>
</g>
<!-- Node14 -->
<g id="node14" class="node">
<title>Node14</title>
<g id="a_node14"><a xlink:href="redis__ipc_8c.html#af379c19188b781eb8837ff97de173c41" target="_top" xlink:title=" ">
<polygon fill="white" stroke="black" points="168.5,-691.33 168.5,-709.33 273.5,-709.33 273.5,-691.33 168.5,-691.33"/>
<text text-anchor="middle" x="221" y="-698.13" font-family="Helvetica,sans-Serif" font-size="9.00">redis_ipc_read_status</text>
</a>
</g>
</g>
<!-- Node1&#45;&gt;Node14 -->
<g id="edge39" class="edge">
<title>Node1&#45;&gt;Node14</title>
<path fill="none" stroke="midnightblue" d="M789.29,-525.66C774.42,-543.96 748.57,-572.33 720,-588.33 572.53,-670.95 368.33,-692.63 273.82,-698.32"/>
<polygon fill="midnightblue" stroke="midnightblue" points="792.22,-527.6 795.67,-517.58 786.73,-523.26 792.22,-527.6"/>
</g>
<!-- Node16 -->
<g id="node16" class="node">
<title>Node16</title>
<g id="a_node16"><a xlink:href="redis__ipc_8c.html#a4d32bc83ac8b8c46384c6c69a3a4e4a3" target="_top" xlink:title=" ">
<polygon fill="white" stroke="black" points="167.5,-627.33 167.5,-655.33 274.5,-655.33 274.5,-627.33 167.5,-627.33"/>
<text text-anchor="start" x="175.5" y="-644.13" font-family="Helvetica,sans-Serif" font-size="9.00">redis_ipc_read_setting</text>
<text text-anchor="middle" x="221" y="-634.13" font-family="Helvetica,sans-Serif" font-size="9.00">_field</text>
</a>
</g>
</g>
<!-- Node1&#45;&gt;Node16 -->
<g id="edge38" class="edge">
<title>Node1&#45;&gt;Node16</title>
<path fill="none" stroke="midnightblue" d="M781.76,-523.44C765.67,-534.45 742.4,-548.86 720,-557.33 564.99,-615.94 367.42,-633.79 274.63,-639.13"/>
<polygon fill="midnightblue" stroke="midnightblue" points="784.16,-526.03 790.34,-517.43 780.14,-520.3 784.16,-526.03"/>
</g>
<!-- Node17 -->
<g id="node17" class="node">
<title>Node17</title>
<g id="a_node17"><a xlink:href="redis__ipc_8c.html#ac0d91847e135883a9dc48b57bdf463d7" target="_top" xlink:title=" ">
<polygon fill="white" stroke="black" points="168.5,-580.33 168.5,-608.33 273.5,-608.33 273.5,-580.33 168.5,-580.33"/>
<text text-anchor="start" x="176.5" y="-597.13" font-family="Helvetica,sans-Serif" font-size="9.00">redis_ipc_read_status</text>
<text text-anchor="middle" x="221" y="-587.13" font-family="Helvetica,sans-Serif" font-size="9.00">_field</text>
</a>
</g>
</g>
<!-- Node1&#45;&gt;Node17 -->
<g id="edge40" class="edge">
<title>Node1&#45;&gt;Node17</title>
<path fill="none" stroke="midnightblue" d="M762.93,-520.25C749.39,-524.09 734.1,-528.17 720,-531.33 586.69,-561.27 552.76,-567.91 417,-583.33 368.65,-588.83 313.24,-591.62 273.87,-593.01"/>
<polygon fill="midnightblue" stroke="midnightblue" points="764.26,-523.51 772.9,-517.37 762.32,-516.78 764.26,-523.51"/>
</g>
<!-- Node19 -->
<g id="node19" class="node">
<title>Node19</title>
<g id="a_node19"><a xlink:href="redis__ipc_8c.html#ac22692af167c24369831321eb5a1aa20" target="_top" xlink:title=" ">
<polygon fill="white" stroke="black" points="172.5,-238.33 172.5,-266.33 269.5,-266.33 269.5,-238.33 172.5,-238.33"/>
<text text-anchor="start" x="180.5" y="-255.13" font-family="Helvetica,sans-Serif" font-size="9.00">redis_ipc_subscribe</text>
<text text-anchor="middle" x="221" y="-245.13" font-family="Helvetica,sans-Serif" font-size="9.00">_debug</text>
</a>
</g>
</g>
<!-- Node1&#45;&gt;Node19 -->
<g id="edge46" class="edge">
<title>Node1&#45;&gt;Node19</title>
<path fill="none" stroke="midnightblue" d="M800.51,-489.05C795.27,-449.06 777.31,-357.12 720,-312.33 650.69,-258.18 380.7,-252.13 269.88,-251.99"/>
<polygon fill="midnightblue" stroke="midnightblue" points="797.04,-489.55 801.69,-499.07 803.99,-488.73 797.04,-489.55"/>
</g>
<!-- Node20 -->
<g id="node20" class="node">
<title>Node20</title>
<g id="a_node20"><a xlink:href="redis__ipc_8c.html#a26390ed4efc19636cc62fc3adf9e3278" target="_top" xlink:title=" ">
<polygon fill="white" stroke="black" points="172.5,-181.33 172.5,-209.33 269.5,-209.33 269.5,-181.33 172.5,-181.33"/>
<text text-anchor="start" x="180.5" y="-198.13" font-family="Helvetica,sans-Serif" font-size="9.00">redis_ipc_subscribe</text>
<text text-anchor="middle" x="221" y="-188.13" font-family="Helvetica,sans-Serif" font-size="9.00">_events</text>
</a>
</g>
</g>
<!-- Node1&#45;&gt;Node20 -->
<g id="edge47" class="edge">
<title>Node1&#45;&gt;Node20</title>
<path fill="none" stroke="midnightblue" d="M800.14,-489.08C792.31,-428.69 765.09,-244.89 720,-209.33 651.32,-155.18 380.33,-177.85 269.56,-189.76"/>
<polygon fill="midnightblue" stroke="midnightblue" points="796.68,-489.67 801.41,-499.15 803.63,-488.79 796.68,-489.67"/>
</g>
<!-- Node22 -->
<g id="node22" class="node">
<title>Node22</title>
<g id="a_node22"><a xlink:href="redis__ipc_8c.html#a55074bea4936100d8785f7ec9b5e83c9" target="_top" xlink:title=" ">
<polygon fill="white" stroke="black" points="168,-356.33 168,-384.33 274,-384.33 274,-356.33 168,-356.33"/>
<text text-anchor="start" x="176" y="-373.13" font-family="Helvetica,sans-Serif" font-size="9.00">redis_ipc_unsubscribe</text>
<text text-anchor="middle" x="221" y="-363.13" font-family="Helvetica,sans-Serif" font-size="9.00">_debug</text>
</a>
</g>
</g>
<!-- Node1&#45;&gt;Node22 -->
<g id="edge48" class="edge">
<title>Node1&#45;&gt;Node22</title>
<path fill="none" stroke="midnightblue" d="M795.25,-489.73C783.77,-463.18 758.69,-415.28 720,-394.33 644.36,-353.38 386,-361.55 274.23,-367.25"/>
<polygon fill="midnightblue" stroke="midnightblue" points="792.05,-491.16 799.1,-499.07 798.52,-488.49 792.05,-491.16"/>
</g>
<!-- Node23 -->
<g id="node23" class="node">
<title>Node23</title>
<g id="a_node23"><a xlink:href="redis__ipc_8c.html#a88193bfef2bb1f36fa783c616d430c15" target="_top" xlink:title=" ">
<polygon fill="white" stroke="black" points="168,-299.33 168,-327.33 274,-327.33 274,-299.33 168,-299.33"/>
<text text-anchor="start" x="176" y="-316.13" font-family="Helvetica,sans-Serif" font-size="9.00">redis_ipc_unsubscribe</text>
<text text-anchor="middle" x="221" y="-306.13" font-family="Helvetica,sans-Serif" font-size="9.00">_events</text>
</a>
</g>
</g>
<!-- Node1&#45;&gt;Node23 -->
<g id="edge49" class="edge">
<title>Node1&#45;&gt;Node23</title>
<path fill="none" stroke="midnightblue" d="M797.38,-489.35C787.84,-457.94 764.2,-395.62 720,-365.33 582.5,-271.12 371.58,-288.87 274.38,-303.71"/>
<polygon fill="midnightblue" stroke="midnightblue" points="794.05,-490.42 800.18,-499.07 800.77,-488.49 794.05,-490.42"/>
</g>
<!-- Node25 -->
<g id="node25" class="node">
<title>Node25</title>
<g id="a_node25"><a xlink:href="redis__ipc_8c.html#aef76ea4158d5075f2c2c0041ec62d1d5" target="_top" xlink:title=" ">
<polygon fill="white" stroke="black" points="167,-468.33 167,-496.33 275,-496.33 275,-468.33 167,-468.33"/>
<text text-anchor="start" x="175" y="-485.13" font-family="Helvetica,sans-Serif" font-size="9.00">redis_ipc_write_setting</text>
<text text-anchor="middle" x="221" y="-475.13" font-family="Helvetica,sans-Serif" font-size="9.00">_field</text>
</a>
</g>
</g>
<!-- Node1&#45;&gt;Node25 -->
<g id="edge51" class="edge">
<title>Node1&#45;&gt;Node25</title>
<path fill="none" stroke="midnightblue" d="M745.88,-505.8C633.76,-500.78 384.86,-489.63 275.4,-484.73"/>
<polygon fill="midnightblue" stroke="midnightblue" points="745.83,-509.3 755.98,-506.25 746.14,-502.31 745.83,-509.3"/>
</g>
<!-- Node26 -->
<g id="node26" class="node">
<title>Node26</title>
<g id="a_node26"><a xlink:href="redis__ipc_8c.html#a1ccd53107db1e7be09bb4e958975720e" target="_top" xlink:title=" ">
<polygon fill="white" stroke="black" points="168,-413.33 168,-441.33 274,-441.33 274,-413.33 168,-413.33"/>
<text text-anchor="start" x="176" y="-430.13" font-family="Helvetica,sans-Serif" font-size="9.00">redis_ipc_write_status</text>
<text text-anchor="middle" x="221" y="-420.13" font-family="Helvetica,sans-Serif" font-size="9.00">_field</text>
</a>
</g>
</g>
<!-- Node1&#45;&gt;Node26 -->
<g id="edge53" class="edge">
<title>Node1&#45;&gt;Node26</title>
<path fill="none" stroke="midnightblue" d="M757.17,-496.8C685.5,-479.17 541.4,-446.09 417,-432.33 368.87,-427.01 313.66,-426.07 274.3,-426.28"/>
<polygon fill="midnightblue" stroke="midnightblue" points="756.65,-500.28 767.2,-499.29 758.34,-493.49 756.65,-500.28"/>
</g>
<!-- Node27 -->
<g id="node27" class="node">
<title>Node27</title>
<g id="a_node27"><a xlink:href="redis__ipc_8c.html#a75d72df468cbcb8c72d15ca3b0cd9996" target="_top" xlink:title=" ">
<polygon fill="white" stroke="black" points="453,-214.33 453,-232.33 572,-232.33 572,-214.33 453,-214.33"/>
<text text-anchor="middle" x="512.5" y="-221.13" font-family="Helvetica,sans-Serif" font-size="9.00">redis_command_from_list</text>
</a>
</g>
</g>
<!-- Node1&#45;&gt;Node27 -->
<g id="edge32" class="edge">
<title>Node1&#45;&gt;Node27</title>
<path fill="none" stroke="midnightblue" d="M802.93,-489.15C802.87,-440.08 795.32,-309.52 720,-247.33 679.09,-213.56 617.07,-210.66 571.68,-214.31"/>
<polygon fill="midnightblue" stroke="midnightblue" points="799.43,-489.27 802.83,-499.3 806.43,-489.33 799.43,-489.27"/>
</g>
<!-- Node29 -->
<g id="node29" class="node">
<title>Node29</title>
<g id="a_node29"><a xlink:href="redis__ipc_8c.html#a11db23f8f055e2d63fd8308c3d382da4" target="_top" xlink:title=" ">
<polygon fill="white" stroke="black" points="167,-128.33 167,-146.33 275,-146.33 275,-128.33 167,-128.33"/>
<text text-anchor="middle" x="221" y="-135.13" font-family="Helvetica,sans-Serif" font-size="9.00">redis_ipc_write_setting</text>
</a>
</g>
</g>
<!-- Node1&#45;&gt;Node29 -->
<g id="edge50" class="edge">
<title>Node1&#45;&gt;Node29</title>
<path fill="none" stroke="midnightblue" d="M800.52,-489.27C793.46,-425.12 767.37,-218.66 720,-175.33 586.44,-53.16 339.57,-104.97 252.98,-128.25"/>
<polygon fill="midnightblue" stroke="midnightblue" points="797.04,-489.65 801.59,-499.22 804,-488.91 797.04,-489.65"/>
</g>
<!-- Node30 -->
<g id="node30" class="node">
<title>Node30</title>
<g id="a_node30"><a xlink:href="redis__ipc_8c.html#ab7d4be95434367c1b7dd526ebbab77a1" target="_top" xlink:title=" ">
<polygon fill="white" stroke="black" points="168,-59.33 168,-77.33 274,-77.33 274,-59.33 168,-59.33"/>
<text text-anchor="middle" x="221" y="-66.13" font-family="Helvetica,sans-Serif" font-size="9.00">redis_ipc_write_status</text>
</a>
</g>
</g>
<!-- Node1&#45;&gt;Node30 -->
<g id="edge52" class="edge">
<title>Node1&#45;&gt;Node30</title>
<path fill="none" stroke="midnightblue" d="M802.06,-488.84C799.83,-410.11 787.07,-117.16 720,-61.33 576.12,58.42 319.42,-29.38 243.63,-59.33"/>
<polygon fill="midnightblue" stroke="midnightblue" points="798.57,-489.3 802.32,-499.21 805.57,-489.12 798.57,-489.3"/>
</g>
<!-- Node31 -->
<g id="node31" class="node">
<title>Node31</title>
<g id="a_node31"><a xlink:href="redis__ipc_8c.html#a8d1d26b38b731bc77309f58295716f8f" target="_top" xlink:title=" ">
<polygon fill="white" stroke="black" points="608,-71.33 608,-99.33 720,-99.33 720,-71.33 608,-71.33"/>
<text text-anchor="start" x="616" y="-88.13" font-family="Helvetica,sans-Serif" font-size="9.00">redis_ipc_get_message</text>
<text text-anchor="middle" x="664" y="-78.13" font-family="Helvetica,sans-Serif" font-size="9.00">_blocking</text>
</a>
</g>
</g>
<!-- Node1&#45;&gt;Node31 -->
<g id="edge36" class="edge">
<title>Node1&#45;&gt;Node31</title>
<path fill="none" stroke="midnightblue" d="M800.65,-489.22C793.53,-418.87 765.93,-175.26 720,-114.33 715.45,-108.3 709.28,-103.4 702.71,-99.46"/>
<polygon fill="midnightblue" stroke="midnightblue" points="797.18,-489.69 801.65,-499.3 804.15,-489 797.18,-489.69"/>
</g>
<!-- Node32 -->
<g id="node32" class="node">
<title>Node32</title>
<g id="a_node32"><a xlink:href="redis__ipc_8c.html#a80ea8825dd17a3cff2530680c97d184a" target="_top" xlink:title=" ">
<polygon fill="white" stroke="black" points="615,-404.33 615,-422.33 713,-422.33 713,-404.33 615,-404.33"/>
<text text-anchor="middle" x="664" y="-411.13" font-family="Helvetica,sans-Serif" font-size="9.00">validate_redis_reply</text>
</a>
</g>
</g>
<!-- Node1&#45;&gt;Node32 -->
<g id="edge54" class="edge">
<title>Node1&#45;&gt;Node32</title>
<path fill="none" stroke="midnightblue" d="M786.2,-491.68C770.36,-476.15 745.07,-453.09 720,-437.33 710.65,-431.46 699.61,-426.33 689.89,-422.35"/>
<polygon fill="midnightblue" stroke="midnightblue" points="784.03,-494.45 793.58,-499.03 788.97,-489.5 784.03,-494.45"/>
</g>
<!-- Node3 -->
<g id="node3" class="node">
<title>Node3</title>
<g id="a_node3"><a xlink:href="redis__ipc_8c.html#ab3dc5609833c201c4e9ebaa5e2e70a2f" target="_top" xlink:title=" ">
<polygon fill="white" stroke="black" points="329,-860.33 329,-878.33 399,-878.33 399,-860.33 329,-860.33"/>
<text text-anchor="middle" x="364" y="-867.13" font-family="Helvetica,sans-Serif" font-size="9.00">redis_publish</text>
</a>
</g>
</g>
<!-- Node2&#45;&gt;Node3 -->
<g id="edge2" class="edge">
<title>Node2&#45;&gt;Node3</title>
<path fill="none" stroke="midnightblue" d="M485.13,-807.01C455.37,-822.45 407.79,-847.14 382.36,-860.33"/>
<polygon fill="midnightblue" stroke="midnightblue" points="486.85,-810.06 494.12,-802.35 483.63,-803.85 486.85,-810.06"/>
</g>
<!-- Node9 -->
<g id="node9" class="node">
<title>Node9</title>
<g id="a_node9"><a xlink:href="redis__ipc_8c.html#ae826a119ee7ca11d9636c6f34b9a29e9" target="_top" xlink:title=" ">
<polygon fill="white" stroke="black" points="334,-784.33 334,-802.33 394,-802.33 394,-784.33 334,-784.33"/>
<text text-anchor="middle" x="364" y="-791.13" font-family="Helvetica,sans-Serif" font-size="9.00">redis_push</text>
</a>
</g>
</g>
<!-- Node2&#45;&gt;Node9 -->
<g id="edge8" class="edge">
<title>Node2&#45;&gt;Node9</title>
<path fill="none" stroke="midnightblue" d="M443.1,-793.33C425.87,-793.33 408.28,-793.33 394.17,-793.33"/>
<polygon fill="midnightblue" stroke="midnightblue" points="443.18,-796.83 453.18,-793.33 443.18,-789.83 443.18,-796.83"/>
</g>
<!-- Node3&#45;&gt;Node4 -->
<g id="edge3" class="edge">
<title>Node3&#45;&gt;Node4</title>
<path fill="none" stroke="midnightblue" d="M318.54,-869.33C304.56,-869.33 289,-869.33 274.53,-869.33"/>
<polygon fill="midnightblue" stroke="midnightblue" points="318.87,-872.83 328.87,-869.33 318.87,-865.83 318.87,-872.83"/>
</g>
<!-- Node3&#45;&gt;Node8 -->
<g id="edge7" class="edge">
<title>Node3&#45;&gt;Node8</title>
<path fill="none" stroke="midnightblue" d="M339.71,-884.03C322.19,-894.86 297.45,-909.66 275,-921.33 264.78,-926.65 253.16,-931.99 243.4,-936.28"/>
<polygon fill="midnightblue" stroke="midnightblue" points="342,-886.73 348.64,-878.48 338.3,-880.79 342,-886.73"/>
</g>
<!-- Node4&#45;&gt;Node5 -->
<g id="edge4" class="edge">
<title>Node4&#45;&gt;Node5</title>
<path fill="none" stroke="midnightblue" d="M156.92,-868.51C148.4,-868.4 139.64,-868.29 131.09,-868.18"/>
<polygon fill="midnightblue" stroke="midnightblue" points="157.13,-872.01 167.17,-868.65 157.22,-865.02 157.13,-872.01"/>
</g>
<!-- Node4&#45;&gt;Node6 -->
<g id="edge5" class="edge">
<title>Node4&#45;&gt;Node6</title>
<path fill="none" stroke="midnightblue" d="M187.89,-856.57C162.72,-846.57 127.72,-832.66 101.77,-822.35"/>
<polygon fill="midnightblue" stroke="midnightblue" points="186.76,-859.89 197.35,-860.33 189.35,-853.39 186.76,-859.89"/>
</g>
<!-- Node4&#45;&gt;Node7 -->
<g id="edge6" class="edge">
<title>Node4&#45;&gt;Node7</title>
<path fill="none" stroke="midnightblue" d="M175.38,-880.96C151.74,-887.12 123.15,-894.57 101.19,-900.29"/>
<polygon fill="midnightblue" stroke="midnightblue" points="176.37,-884.32 185.17,-878.41 174.61,-877.55 176.37,-884.32"/>
</g>
<!-- Node9&#45;&gt;Node6 -->
<g id="edge9" class="edge">
<title>Node9&#45;&gt;Node6</title>
<path fill="none" stroke="midnightblue" d="M323.6,-795.33C273.21,-797.88 185.45,-802.32 126.67,-805.29"/>
<polygon fill="midnightblue" stroke="midnightblue" points="323.95,-798.81 333.76,-794.81 323.59,-791.82 323.95,-798.81"/>
</g>
<!-- Node9&#45;&gt;Node7 -->
<g id="edge10" class="edge">
<title>Node9&#45;&gt;Node7</title>
<path fill="none" stroke="midnightblue" d="M347.65,-810.02C323.06,-836.72 277.34,-886.17 275,-887.33 225.63,-911.9 161.67,-915.1 117.68,-913.61"/>
<polygon fill="midnightblue" stroke="midnightblue" points="350.34,-812.27 354.54,-802.54 345.19,-807.53 350.34,-812.27"/>
</g>
<!-- Node10&#45;&gt;Node3 -->
<g id="edge15" class="edge">
<title>Node10&#45;&gt;Node3</title>
<path fill="none" stroke="midnightblue" d="M507.93,-546.61C498.54,-594.15 470.14,-719.81 417,-811.33 405.73,-830.75 387.21,-849.37 375.58,-860.07"/>
<polygon fill="midnightblue" stroke="midnightblue" points="511.38,-547.22 509.82,-536.74 504.5,-545.9 511.38,-547.22"/>
</g>
<!-- Node10&#45;&gt;Node9 -->
<g id="edge16" class="edge">
<title>Node10&#45;&gt;Node9</title>
<path fill="none" stroke="midnightblue" d="M505.12,-546.24C491.91,-583.99 459.25,-670.66 417,-735.33 404.57,-754.35 386.06,-773.39 374.8,-784.23"/>
<polygon fill="midnightblue" stroke="midnightblue" points="508.51,-547.15 508.45,-536.55 501.89,-544.87 508.51,-547.15"/>
</g>
<!-- Node11 -->
<g id="node11" class="node">
<title>Node11</title>
<g id="a_node11"><a xlink:href="redis__ipc_8c.html#a51be0735eeaf88f636c16128647f11f7" target="_top" xlink:title=" ">
<polygon fill="white" stroke="black" points="193,-543.33 193,-561.33 249,-561.33 249,-543.33 193,-543.33"/>
<text text-anchor="middle" x="221" y="-550.13" font-family="Helvetica,sans-Serif" font-size="9.00">redis_pop</text>
</a>
</g>
</g>
<!-- Node10&#45;&gt;Node11 -->
<g id="edge12" class="edge">
<title>Node10&#45;&gt;Node11</title>
<path fill="none" stroke="midnightblue" d="M462.23,-531.59C400.8,-536.89 297.96,-545.77 249.22,-549.98"/>
<polygon fill="midnightblue" stroke="midnightblue" points="462.79,-535.05 472.46,-530.71 462.19,-528.08 462.79,-535.05"/>
</g>
<!-- Node12 -->
<g id="node12" class="node">
<title>Node12</title>
<g id="a_node12"><a xlink:href="redis__ipc_8c.html#a9f1ecd3f095bb4358ae2b26347b2b822" target="_top" xlink:title=" ">
<polygon fill="white" stroke="black" points="322.5,-708.33 322.5,-726.33 405.5,-726.33 405.5,-708.33 322.5,-708.33"/>
<text text-anchor="middle" x="364" y="-715.13" font-family="Helvetica,sans-Serif" font-size="9.00">redis_read_hash</text>
</a>
</g>
</g>
<!-- Node10&#45;&gt;Node12 -->
<g id="edge17" class="edge">
<title>Node10&#45;&gt;Node12</title>
<path fill="none" stroke="midnightblue" d="M498,-544.85C467.64,-584.22 394.86,-678.61 372,-708.26"/>
<polygon fill="midnightblue" stroke="midnightblue" points="501.1,-546.55 504.43,-536.5 495.56,-542.28 501.1,-546.55"/>
</g>
<!-- Node15 -->
<g id="node15" class="node">
<title>Node15</title>
<g id="a_node15"><a xlink:href="redis__ipc_8c.html#a4f935a08f52bbc4ef3c81532488f9a80" target="_top" xlink:title=" ">
<polygon fill="white" stroke="black" points="311.5,-556.33 311.5,-574.33 416.5,-574.33 416.5,-556.33 311.5,-556.33"/>
<text text-anchor="middle" x="364" y="-563.13" font-family="Helvetica,sans-Serif" font-size="9.00">redis_read_hash_field</text>
</a>
</g>
</g>
<!-- Node10&#45;&gt;Node15 -->
<g id="edge20" class="edge">
<title>Node10&#45;&gt;Node15</title>
<path fill="none" stroke="midnightblue" d="M466.87,-538.91C445.3,-544.5 419.81,-551.12 399.72,-556.33"/>
<polygon fill="midnightblue" stroke="midnightblue" points="467.98,-542.24 476.78,-536.34 466.22,-535.46 467.98,-542.24"/>
</g>
<!-- Node18 -->
<g id="node18" class="node">
<title>Node18</title>
<g id="a_node18"><a xlink:href="redis__ipc_8c.html#a420fcd64722043e4bc0bb7f61a29d588" target="_top" xlink:title=" ">
<polygon fill="white" stroke="black" points="324,-214.33 324,-232.33 404,-232.33 404,-214.33 324,-214.33"/>
<text text-anchor="middle" x="364" y="-221.13" font-family="Helvetica,sans-Serif" font-size="9.00">redis_subscribe</text>
</a>
</g>
</g>
<!-- Node10&#45;&gt;Node18 -->
<g id="edge23" class="edge">
<title>Node10&#45;&gt;Node18</title>
<path fill="none" stroke="midnightblue" d="M503.59,-508.58C487.92,-471.72 451.46,-387.41 417,-318.33 400.97,-286.2 379.91,-249.13 370.25,-232.38"/>
<polygon fill="midnightblue" stroke="midnightblue" points="500.48,-510.21 507.6,-518.05 506.92,-507.48 500.48,-510.21"/>
</g>
<!-- Node21 -->
<g id="node21" class="node">
<title>Node21</title>
<g id="a_node21"><a xlink:href="redis__ipc_8c.html#a40d3af6ed926711313712685503a1c91" target="_top" xlink:title=" ">
<polygon fill="white" stroke="black" points="319.5,-328.33 319.5,-346.33 408.5,-346.33 408.5,-328.33 319.5,-328.33"/>
<text text-anchor="middle" x="364" y="-335.13" font-family="Helvetica,sans-Serif" font-size="9.00">redis_unsubscribe</text>
</a>
</g>
</g>
<!-- Node10&#45;&gt;Node21 -->
<g id="edge26" class="edge">
<title>Node10&#45;&gt;Node21</title>
<path fill="none" stroke="midnightblue" d="M498,-509.82C467.64,-470.45 394.86,-376.06 372,-346.41"/>
<polygon fill="midnightblue" stroke="midnightblue" points="495.56,-512.39 504.43,-518.17 501.1,-508.11 495.56,-512.39"/>
</g>
<!-- Node24 -->
<g id="node24" class="node">
<title>Node24</title>
<g id="a_node24"><a xlink:href="redis__ipc_8c.html#ad0c6708404743ef74dddacc617fb8b8e" target="_top" xlink:title=" ">
<polygon fill="white" stroke="black" points="311,-442.33 311,-460.33 417,-460.33 417,-442.33 311,-442.33"/>
<text text-anchor="middle" x="364" y="-449.13" font-family="Helvetica,sans-Serif" font-size="9.00">redis_write_hash_field</text>
</a>
</g>
</g>
<!-- Node10&#45;&gt;Node24 -->
<g id="edge29" class="edge">
<title>Node10&#45;&gt;Node24</title>
<path fill="none" stroke="midnightblue" d="M485.13,-513.65C455.37,-498.21 407.79,-473.53 382.36,-460.34"/>
<polygon fill="midnightblue" stroke="midnightblue" points="483.63,-516.82 494.12,-518.32 486.85,-510.61 483.63,-516.82"/>
</g>
<!-- Node11&#45;&gt;Node5 -->
<g id="edge13" class="edge">
<title>Node11&#45;&gt;Node5</title>
<path fill="none" stroke="midnightblue" d="M183.11,-558.93C176.96,-561.55 171.22,-565.22 167,-570.33 92.44,-660.63 197.06,-734.65 131,-831.33 124.63,-840.65 115.02,-847.82 105.15,-853.21"/>
<polygon fill="midnightblue" stroke="midnightblue" points="184.59,-562.12 192.94,-555.59 182.35,-555.49 184.59,-562.12"/>
</g>
<!-- Node11&#45;&gt;Node6 -->
<g id="edge14" class="edge">
<title>Node11&#45;&gt;Node6</title>
<path fill="none" stroke="midnightblue" d="M183.41,-560.19C177.43,-562.69 171.67,-565.99 167,-570.33 98.04,-634.49 74.59,-753.54 68.39,-794.26"/>
<polygon fill="midnightblue" stroke="midnightblue" points="184.59,-563.48 192.87,-556.87 182.27,-556.87 184.59,-563.48"/>
</g>
<!-- Node12&#45;&gt;Node13 -->
<g id="edge18" class="edge">
<title>Node12&#45;&gt;Node13</title>
<path fill="none" stroke="midnightblue" d="M319.8,-728.98C299.18,-734.53 274.88,-741.08 255.66,-746.26"/>
<polygon fill="midnightblue" stroke="midnightblue" points="320.84,-732.32 329.58,-726.34 319.02,-725.56 320.84,-732.32"/>
</g>
<!-- Node12&#45;&gt;Node14 -->
<g id="edge19" class="edge">
<title>Node12&#45;&gt;Node14</title>
<path fill="none" stroke="midnightblue" d="M312.01,-711.19C299.56,-709.68 286.23,-708.08 273.75,-706.57"/>
<polygon fill="midnightblue" stroke="midnightblue" points="311.87,-714.69 322.22,-712.42 312.71,-707.74 311.87,-714.69"/>
</g>
<!-- Node15&#45;&gt;Node16 -->
<g id="edge21" class="edge">
<title>Node15&#45;&gt;Node16</title>
<path fill="none" stroke="midnightblue" d="M339.71,-580.03C322.19,-590.86 297.45,-605.66 275,-617.33 268.46,-620.74 261.34,-624.15 254.5,-627.29"/>
<polygon fill="midnightblue" stroke="midnightblue" points="342,-582.73 348.64,-574.48 338.3,-576.79 342,-582.73"/>
</g>
<!-- Node15&#45;&gt;Node17 -->
<g id="edge22" class="edge">
<title>Node15&#45;&gt;Node17</title>
<path fill="none" stroke="midnightblue" d="M309.15,-576.41C297.52,-578.8 285.26,-581.32 273.72,-583.7"/>
<polygon fill="midnightblue" stroke="midnightblue" points="310.07,-579.79 319.16,-574.35 308.66,-572.94 310.07,-579.79"/>
</g>
<!-- Node18&#45;&gt;Node19 -->
<g id="edge24" class="edge">
<title>Node18&#45;&gt;Node19</title>
<path fill="none" stroke="midnightblue" d="M313.59,-233.5C299.31,-236.43 283.75,-239.63 269.59,-242.55"/>
<polygon fill="midnightblue" stroke="midnightblue" points="314.63,-236.85 323.72,-231.41 313.22,-230 314.63,-236.85"/>
</g>
<!-- Node18&#45;&gt;Node20 -->
<g id="edge25" class="edge">
<title>Node18&#45;&gt;Node20</title>
<path fill="none" stroke="midnightblue" d="M313.59,-213.52C299.31,-210.69 283.75,-207.6 269.59,-204.78"/>
<polygon fill="midnightblue" stroke="midnightblue" points="313.23,-217.02 323.72,-215.53 314.6,-210.15 313.23,-217.02"/>
</g>
<!-- Node21&#45;&gt;Node22 -->
<g id="edge27" class="edge">
<title>Node21&#45;&gt;Node22</title>
<path fill="none" stroke="midnightblue" d="M314.36,-348.72C301.41,-351.75 287.36,-355.04 274.23,-358.11"/>
<polygon fill="midnightblue" stroke="midnightblue" points="315.53,-352.04 324.47,-346.35 313.94,-345.22 315.53,-352.04"/>
</g>
<!-- Node21&#45;&gt;Node23 -->
<g id="edge28" class="edge">
<title>Node21&#45;&gt;Node23</title>
<path fill="none" stroke="midnightblue" d="M309.26,-328.19C297.77,-326.23 285.66,-324.17 274.23,-322.22"/>
<polygon fill="midnightblue" stroke="midnightblue" points="308.71,-331.64 319.16,-329.87 309.89,-324.74 308.71,-331.64"/>
</g>
<!-- Node24&#45;&gt;Node25 -->
<g id="edge30" class="edge">
<title>Node24&#45;&gt;Node25</title>
<path fill="none" stroke="midnightblue" d="M311.98,-462.55C299.97,-465.19 287.14,-468.01 275.04,-470.67"/>
<polygon fill="midnightblue" stroke="midnightblue" points="312.82,-465.95 321.84,-460.38 311.32,-459.11 312.82,-465.95"/>
</g>
<!-- Node24&#45;&gt;Node26 -->
<g id="edge31" class="edge">
<title>Node24&#45;&gt;Node26</title>
<path fill="none" stroke="midnightblue" d="M300.98,-440.78C292.09,-439.26 283.03,-437.72 274.36,-436.25"/>
<polygon fill="midnightblue" stroke="midnightblue" points="300.45,-444.24 310.9,-442.47 301.63,-437.34 300.45,-444.24"/>
</g>
<!-- Node28 -->
<g id="node28" class="node">
<title>Node28</title>
<g id="a_node28"><a xlink:href="redis__ipc_8c.html#ab4f8e083ca57feea4be05c015b0eac9f" target="_top" xlink:title=" ">
<polygon fill="white" stroke="black" points="322,-138.33 322,-156.33 406,-156.33 406,-138.33 322,-138.33"/>
<text text-anchor="middle" x="364" y="-145.13" font-family="Helvetica,sans-Serif" font-size="9.00">redis_write_hash</text>
</a>
</g>
</g>
<!-- Node27&#45;&gt;Node28 -->
<g id="edge33" class="edge">
<title>Node27&#45;&gt;Node28</title>
<path fill="none" stroke="midnightblue" d="M485.13,-209.65C455.37,-194.21 407.79,-169.53 382.36,-156.34"/>
<polygon fill="midnightblue" stroke="midnightblue" points="483.63,-212.82 494.12,-214.32 486.85,-206.61 483.63,-212.82"/>
</g>
<!-- Node28&#45;&gt;Node29 -->
<g id="edge34" class="edge">
<title>Node28&#45;&gt;Node29</title>
<path fill="none" stroke="midnightblue" d="M311.62,-143.69C299.71,-142.85 287.02,-141.94 275.04,-141.1"/>
<polygon fill="midnightblue" stroke="midnightblue" points="311.62,-147.2 321.84,-144.41 312.11,-140.22 311.62,-147.2"/>
</g>
<!-- Node28&#45;&gt;Node30 -->
<g id="edge35" class="edge">
<title>Node28&#45;&gt;Node30</title>
<path fill="none" stroke="midnightblue" d="M337.8,-133.22C309.05,-117.11 262.87,-91.23 238.42,-77.53"/>
<polygon fill="midnightblue" stroke="midnightblue" points="336.39,-136.44 346.83,-138.27 339.81,-130.33 336.39,-136.44"/>
</g>
<!-- Node32&#45;&gt;Node10 -->
<g id="edge55" class="edge">
<title>Node32&#45;&gt;Node10</title>
<path fill="none" stroke="midnightblue" d="M642.94,-428.63C611.4,-452.68 551.18,-498.6 525.54,-518.15"/>
<polygon fill="midnightblue" stroke="midnightblue" points="645.19,-431.32 651.02,-422.47 640.94,-425.75 645.19,-431.32"/>
</g>
<!-- Node32&#45;&gt;Node27 -->
<g id="edge56" class="edge">
<title>Node32&#45;&gt;Node27</title>
<path fill="none" stroke="midnightblue" d="M649.22,-395.82C618.24,-356.45 543.97,-262.06 520.64,-232.41"/>
<polygon fill="midnightblue" stroke="midnightblue" points="646.85,-398.48 655.79,-404.17 652.36,-394.15 646.85,-398.48"/>
</g>
</g>
</svg>
