<?xml version="1.0" encoding="UTF-8" standalone="no"?>
<!DOCTYPE svg PUBLIC "-//W3C//DTD SVG 1.1//EN"
 "http://www.w3.org/Graphics/SVG/1.1/DTD/svg11.dtd">
<!-- Generated by graphviz version 2.47.1 (20210417.1919)
 -->
<!-- Title: redis_ipc_subscribe_events Pages: 1 -->
<svg width="745pt" height="100pt"
 viewBox="0.00 0.00 745.00 100.18" xmlns="http://www.w3.org/2000/svg" xmlns:xlink="http://www.w3.org/1999/xlink">
<g id="graph0" class="graph" transform="scale(1 1) rotate(0) translate(4 96.18)">
<title>redis_ipc_subscribe_events</title>
<polygon fill="white" stroke="transparent" points="-4,4 -4,-96.18 741,-96.18 741,4 -4,4"/>
<!-- Node1 -->
<g id="node1" class="node">
<title>Node1</title>
<g id="a_node1"><a xlink:title=" ">
<polygon fill="#bfbfbf" stroke="black" points="0,-52.5 0,-80.5 104,-80.5 104,-52.5 0,-52.5"/>
<text text-anchor="start" x="8" y="-69.3" font-family="Helvetica,sans-Serif" font-size="9.00">redis_ipc_subscribe</text>
<text text-anchor="middle" x="52" y="-59.3" font-family="Helvetica,sans-Serif" font-size="9.00">_events</text>
</a>
</g>
</g>
<!-- Node2 -->
<g id="node2" class="node">
<title>Node2</title>
<g id="a_node2"><a xlink:href="redis__ipc_8c.html#aa2a3ce97c0b6f3e83572446f3c92e541" target="_top" xlink:title=" ">
<polygon fill="white" stroke="black" points="539,-57.5 539,-75.5 646,-75.5 646,-57.5 539,-57.5"/>
<text text-anchor="middle" x="592.5" y="-64.3" font-family="Helvetica,sans-Serif" font-size="9.00">get_per_thread_info</text>
</a>
</g>
</g>
<!-- Node1&#45;&gt;Node2 -->
<g id="edge1" class="edge">
<title>Node1&#45;&gt;Node2</title>
<path fill="none" stroke="midnightblue" d="M104.22,-79.6C115.9,-82.05 128.32,-84.24 140,-85.5 278.24,-100.42 441.48,-85.57 528.84,-75.03"/>
<polygon fill="midnightblue" stroke="midnightblue" points="529.35,-78.49 538.85,-73.8 528.5,-71.54 529.35,-78.49"/>
</g>
<!-- Node4 -->
<g id="node4" class="node">
<title>Node4</title>
<g id="a_node4"><a xlink:href="redis__ipc_8c.html#a67c9dd84d2426ab58a759dbdfd223267" target="_top" xlink:title=" ">
<polygon fill="white" stroke="black" points="155,-57.5 155,-75.5 211,-75.5 211,-57.5 155,-57.5"/>
<text text-anchor="middle" x="183" y="-64.3" font-family="Helvetica,sans-Serif" font-size="9.00">ipc_path</text>
</a>
</g>
</g>
<!-- Node1&#45;&gt;Node4 -->
<g id="edge3" class="edge">
<title>Node1&#45;&gt;Node4</title>
<path fill="none" stroke="midnightblue" d="M104.35,-66.5C117.86,-66.5 132.16,-66.5 144.77,-66.5"/>
<polygon fill="midnightblue" stroke="midnightblue" points="144.9,-70 154.9,-66.5 144.9,-63 144.9,-70"/>
</g>
<!-- Node5 -->
<g id="node5" class="node">
<title>Node5</title>
<g id="a_node5"><a xlink:href="redis__ipc_8c.html#a420fcd64722043e4bc0bb7f61a29d588" target="_top" xlink:title=" ">
<polygon fill="white" stroke="black" points="140,-20.5 140,-38.5 226,-38.5 226,-20.5 140,-20.5"/>
<text text-anchor="middle" x="183" y="-27.3" font-family="Helvetica,sans-Serif" font-size="9.00">redis_subscribe</text>
</a>
</g>
</g>
<!-- Node1&#45;&gt;Node5 -->
<g id="edge4" class="edge">
<title>Node1&#45;&gt;Node5</title>
<path fill="none" stroke="midnightblue" d="M102.14,-52.41C114.82,-48.77 128.34,-44.89 140.59,-41.38"/>
<polygon fill="midnightblue" stroke="midnightblue" points="141.88,-44.65 150.53,-38.53 139.95,-37.92 141.88,-44.65"/>
</g>
<!-- Node3 -->
<g id="node3" class="node">
<title>Node3</title>
<g id="a_node3"><a xlink:href="redis__ipc_8c.html#af0449193b7cded86e600f052d0aabd39" target="_top" xlink:title=" ">
<polygon fill="white" stroke="black" points="693,-57.5 693,-75.5 737,-75.5 737,-57.5 693,-57.5"/>
<text text-anchor="middle" x="715" y="-64.3" font-family="Helvetica,sans-Serif" font-size="9.00">gettid</text>
</a>
</g>
</g>
<!-- Node2&#45;&gt;Node3 -->
<g id="edge2" class="edge">
<title>Node2&#45;&gt;Node3</title>
<path fill="none" stroke="midnightblue" d="M646,-66.5C658.5,-66.5 671.45,-66.5 682.65,-66.5"/>
<polygon fill="midnightblue" stroke="midnightblue" points="682.78,-70 692.78,-66.5 682.78,-63 682.78,-70"/>
</g>
<!-- Node6 -->
<g id="node6" class="node">
<title>Node6</title>
<g id="a_node6"><a xlink:href="redis__ipc_8c.html#aefb4508c1883e7d4345b206076b19e5d" target="_top" xlink:title=" ">
<polygon fill="white" stroke="black" points="262,-19.5 262,-37.5 351,-37.5 351,-19.5 262,-19.5"/>
<text text-anchor="middle" x="306.5" y="-26.3" font-family="Helvetica,sans-Serif" font-size="9.00">redis_command</text>
</a>
</g>
</g>
<!-- Node5&#45;&gt;Node6 -->
<g id="edge5" class="edge">
<title>Node5&#45;&gt;Node6</title>
<path fill="none" stroke="midnightblue" d="M226.15,-29.15C234.34,-29.09 243.02,-29.01 251.53,-28.94"/>
<polygon fill="midnightblue" stroke="midnightblue" points="251.8,-32.44 261.77,-28.86 251.74,-25.44 251.8,-32.44"/>
</g>
<!-- Node6&#45;&gt;Node2 -->
<g id="edge6" class="edge">
<title>Node6&#45;&gt;Node2</title>
<path fill="none" stroke="midnightblue" d="M342.93,-37.52C356.63,-40.74 372.47,-44.15 387,-46.5 434.24,-54.13 488.12,-59.25 528.71,-62.4"/>
<polygon fill="midnightblue" stroke="midnightblue" points="528.49,-65.9 538.73,-63.16 529.02,-58.92 528.49,-65.9"/>
</g>
<!-- Node7 -->
<g id="node7" class="node">
<title>Node7</title>
<g id="a_node7"><a xlink:href="redis__ipc_8c.html#a5e81feac565f9476476c5f042b2a5c9d" target="_top" xlink:title=" ">
<polygon fill="white" stroke="black" points="528,-0.5 528,-18.5 657,-18.5 657,-0.5 528,-0.5"/>
<text text-anchor="middle" x="592.5" y="-7.3" font-family="Helvetica,sans-Serif" font-size="9.00">stderr_debug_is_enabled</text>
</a>
</g>
</g>
<!-- Node6&#45;&gt;Node7 -->
<g id="edge7" class="edge">
<title>Node6&#45;&gt;Node7</title>
<path fill="none" stroke="midnightblue" d="M337.78,-19.5C352.49,-15.58 370.51,-11.44 387,-9.5 430.05,-4.43 478.55,-4.19 517.51,-5.34"/>
<polygon fill="midnightblue" stroke="midnightblue" points="517.61,-8.84 527.72,-5.67 517.84,-1.84 517.61,-8.84"/>
</g>
<!-- Node8 -->
<g id="node8" class="node">
<title>Node8</title>
<g id="a_node8"><a xlink:href="redis__ipc_8c.html#ae88037651d88f63c62d32afd7e0fccf2" target="_top" xlink:title=" ">
<polygon fill="white" stroke="black" points="387,-19.5 387,-37.5 492,-37.5 492,-19.5 387,-19.5"/>
<text text-anchor="middle" x="439.5" y="-26.3" font-family="Helvetica,sans-Serif" font-size="9.00">validate_redis_reply</text>
</a>
</g>
</g>
<!-- Node6&#45;&gt;Node8 -->
<g id="edge8" class="edge">
<title>Node6&#45;&gt;Node8</title>
<path fill="none" stroke="midnightblue" d="M351.12,-28.5C359.36,-28.5 368.12,-28.5 376.79,-28.5"/>
<polygon fill="midnightblue" stroke="midnightblue" points="376.89,-32 386.89,-28.5 376.89,-25 376.89,-32"/>
</g>
<!-- Node8&#45;&gt;Node2 -->
<g id="edge9" class="edge">
<title>Node8&#45;&gt;Node2</title>
<path fill="none" stroke="midnightblue" d="M476.28,-37.51C497.08,-42.74 523.5,-49.39 545.79,-55"/>
<polygon fill="midnightblue" stroke="midnightblue" points="545.16,-58.45 555.71,-57.49 546.87,-51.66 545.16,-58.45"/>
</g>
<!-- Node8&#45;&gt;Node7 -->
<g id="edge10" class="edge">
<title>Node8&#45;&gt;Node7</title>
<path fill="none" stroke="midnightblue" d="M492.04,-22.01C500.33,-20.97 509.05,-19.87 517.74,-18.78"/>
<polygon fill="midnightblue" stroke="midnightblue" points="518.42,-22.22 527.9,-17.5 517.54,-15.28 518.42,-22.22"/>
</g>
</g>
</svg>
