<?xml version="1.0" encoding="UTF-8" standalone="no"?>
<!DOCTYPE svg PUBLIC "-//W3C//DTD SVG 1.1//EN"
 "http://www.w3.org/Graphics/SVG/1.1/DTD/svg11.dtd">
<!-- Generated by graphviz version 3.0.0 (20220413.0106)
 -->
<!-- Title: redis_read_hash_field Pages: 1 -->
<svg width="591pt" height="103pt"
 viewBox="0.00 0.00 591.00 103.00" xmlns="http://www.w3.org/2000/svg" xmlns:xlink="http://www.w3.org/1999/xlink">
<g id="graph0" class="graph" transform="scale(1 1) rotate(0) translate(4 99)">
<title>redis_read_hash_field</title>
<polygon fill="white" stroke="transparent" points="-4,4 -4,-99 587,-99 587,4 -4,4"/>
<!-- Node1 -->
<g id="node1" class="node">
<title>Node1</title>
<g id="a_node1"><a xlink:title=" ">
<polygon fill="#bfbfbf" stroke="black" points="0,-0.5 0,-18.5 105,-18.5 105,-0.5 0,-0.5"/>
<text text-anchor="middle" x="52.5" y="-7.3" font-family="Helvetica,sans-Serif" font-size="9.00">redis_read_hash_field</text>
</a>
</g>
</g>
<!-- Node2 -->
<g id="node2" class="node">
<title>Node2</title>
<g id="a_node2"><a xlink:href="redis__ipc_8c.html#afab35d4c40b4b1866fc0239bb885a39b" target="_top" xlink:title=" ">
<polygon fill="white" stroke="black" points="141,-38.5 141,-56.5 221,-56.5 221,-38.5 141,-38.5"/>
<text text-anchor="middle" x="181" y="-45.3" font-family="Helvetica,sans-Serif" font-size="9.00">redis_command</text>
</a>
</g>
</g>
<!-- Node1&#45;&gt;Node2 -->
<g id="edge1" class="edge">
<title>Node1&#45;&gt;Node2</title>
<path fill="none" stroke="midnightblue" d="M83.48,-18.51C100.37,-23.58 121.69,-29.98 139.99,-35.48"/>
<polygon fill="midnightblue" stroke="midnightblue" points="139.21,-38.9 149.8,-38.43 141.23,-32.2 139.21,-38.9"/>
</g>
<!-- Node5 -->
<g id="node5" class="node">
<title>Node5</title>
<g id="a_node5"><a xlink:href="redis__ipc_8c.html#a5e81feac565f9476476c5f042b2a5c9d" target="_top" xlink:title=" ">
<polygon fill="white" stroke="black" points="391,-19.5 391,-37.5 509,-37.5 509,-19.5 391,-19.5"/>
<text text-anchor="middle" x="450" y="-26.3" font-family="Helvetica,sans-Serif" font-size="9.00">stderr_debug_is_enabled</text>
</a>
</g>
</g>
<!-- Node1&#45;&gt;Node5 -->
<g id="edge8" class="edge">
<title>Node1&#45;&gt;Node5</title>
<path fill="none" stroke="midnightblue" d="M105.2,-11.98C175.74,-15.37 302.29,-21.45 380.61,-25.21"/>
<polygon fill="midnightblue" stroke="midnightblue" points="380.7,-28.72 390.86,-25.71 381.03,-21.73 380.7,-28.72"/>
</g>
<!-- Node3 -->
<g id="node3" class="node">
<title>Node3</title>
<g id="a_node3"><a xlink:href="redis__ipc_8c.html#a7b930ec420c7b4bf2df1469aca77f93d" target="_top" xlink:title=" ">
<polygon fill="white" stroke="black" points="402.5,-76.5 402.5,-94.5 497.5,-94.5 497.5,-76.5 402.5,-76.5"/>
<text text-anchor="middle" x="450" y="-83.3" font-family="Helvetica,sans-Serif" font-size="9.00">get_per_thread_info</text>
</a>
</g>
</g>
<!-- Node2&#45;&gt;Node3 -->
<g id="edge2" class="edge">
<title>Node2&#45;&gt;Node3</title>
<path fill="none" stroke="midnightblue" d="M195.08,-56.54C209.48,-65.91 233.72,-79.94 257,-85.5 301.49,-96.13 353.46,-95.36 392.1,-92.36"/>
<polygon fill="midnightblue" stroke="midnightblue" points="392.46,-95.84 402.13,-91.51 391.87,-88.87 392.46,-95.84"/>
</g>
<!-- Node2&#45;&gt;Node5 -->
<g id="edge4" class="edge">
<title>Node2&#45;&gt;Node5</title>
<path fill="none" stroke="midnightblue" d="M221.11,-44.72C262.85,-41.75 329.79,-36.98 380.34,-33.39"/>
<polygon fill="midnightblue" stroke="midnightblue" points="380.82,-36.86 390.54,-32.66 380.32,-29.88 380.82,-36.86"/>
</g>
<!-- Node6 -->
<g id="node6" class="node">
<title>Node6</title>
<g id="a_node6"><a xlink:href="redis__ipc_8c.html#a80ea8825dd17a3cff2530680c97d184a" target="_top" xlink:title=" ">
<polygon fill="white" stroke="black" points="257,-57.5 257,-75.5 355,-75.5 355,-57.5 257,-57.5"/>
<text text-anchor="middle" x="306" y="-64.3" font-family="Helvetica,sans-Serif" font-size="9.00">validate_redis_reply</text>
</a>
</g>
</g>
<!-- Node2&#45;&gt;Node6 -->
<g id="edge5" class="edge">
<title>Node2&#45;&gt;Node6</title>
<path fill="none" stroke="midnightblue" d="M221.26,-53.56C229.34,-54.81 238.02,-56.15 246.62,-57.48"/>
<polygon fill="midnightblue" stroke="midnightblue" points="246.21,-60.96 256.63,-59.03 247.28,-54.04 246.21,-60.96"/>
</g>
<!-- Node4 -->
<g id="node4" class="node">
<title>Node4</title>
<g id="a_node4"><a xlink:href="redis__ipc_8c.html#af0449193b7cded86e600f052d0aabd39" target="_top" xlink:title=" ">
<polygon fill="white" stroke="black" points="545,-76.5 545,-94.5 583,-94.5 583,-76.5 545,-76.5"/>
<text text-anchor="middle" x="564" y="-83.3" font-family="Helvetica,sans-Serif" font-size="9.00">gettid</text>
</a>
</g>
</g>
<!-- Node3&#45;&gt;Node4 -->
<g id="edge3" class="edge">
<title>Node3&#45;&gt;Node4</title>
<path fill="none" stroke="midnightblue" d="M497.53,-85.5C510.19,-85.5 523.51,-85.5 534.82,-85.5"/>
<polygon fill="midnightblue" stroke="midnightblue" points="534.94,-89 544.94,-85.5 534.94,-82 534.94,-89"/>
</g>
<!-- Node6&#45;&gt;Node3 -->
<g id="edge6" class="edge">
<title>Node6&#45;&gt;Node3</title>
<path fill="none" stroke="midnightblue" d="M355.07,-72.93C367.02,-74.53 379.93,-76.26 392.25,-77.91"/>
<polygon fill="midnightblue" stroke="midnightblue" points="392.04,-81.41 402.42,-79.27 392.97,-74.47 392.04,-81.41"/>
</g>
<!-- Node6&#45;&gt;Node5 -->
<g id="edge7" class="edge">
<title>Node6&#45;&gt;Node5</title>
<path fill="none" stroke="midnightblue" d="M340.65,-57.49C359.96,-52.33 384.43,-45.78 405.22,-40.21"/>
<polygon fill="midnightblue" stroke="midnightblue" points="406.34,-43.54 415.1,-37.57 404.53,-36.78 406.34,-43.54"/>
</g>
</g>
</svg>
