<?xml version="1.0" encoding="UTF-8" standalone="no"?>
<!DOCTYPE svg PUBLIC "-//W3C//DTD SVG 1.1//EN"
 "http://www.w3.org/Graphics/SVG/1.1/DTD/svg11.dtd">
<!-- Generated by graphviz version 2.47.1 (20210417.1919)
 -->
<!-- Title: redis_write_hash Pages: 1 -->
<svg width="653pt" height="83pt"
 viewBox="0.00 0.00 653.00 83.00" xmlns="http://www.w3.org/2000/svg" xmlns:xlink="http://www.w3.org/1999/xlink">
<g id="graph0" class="graph" transform="scale(1 1) rotate(0) translate(4 79)">
<title>redis_write_hash</title>
<polygon fill="white" stroke="transparent" points="-4,4 -4,-79 649,-79 649,4 -4,4"/>
<!-- Node1 -->
<g id="node1" class="node">
<title>Node1</title>
<g id="a_node1"><a xlink:title=" ">
<polygon fill="#bfbfbf" stroke="black" points="0,-37.5 0,-55.5 92,-55.5 92,-37.5 0,-37.5"/>
<text text-anchor="middle" x="46" y="-44.3" font-family="Helvetica,sans-Serif" font-size="9.00">redis_write_hash</text>
</a>
</g>
</g>
<!-- Node2 -->
<g id="node2" class="node">
<title>Node2</title>
<g id="a_node2"><a xlink:href="redis__ipc_8c.html#a1d8ea9a795de6bcac8f989d7770028c3" target="_top" xlink:title=" ">
<polygon fill="white" stroke="black" points="150.5,-56.5 150.5,-74.5 236.5,-74.5 236.5,-56.5 150.5,-56.5"/>
<text text-anchor="middle" x="193.5" y="-63.3" font-family="Helvetica,sans-Serif" font-size="9.00">get_field_count</text>
</a>
</g>
</g>
<!-- Node1&#45;&gt;Node2 -->
<g id="edge1" class="edge">
<title>Node1&#45;&gt;Node2</title>
<path fill="none" stroke="midnightblue" d="M92.24,-52.41C107.43,-54.39 124.5,-56.62 140.19,-58.67"/>
<polygon fill="midnightblue" stroke="midnightblue" points="139.9,-62.16 150.27,-59.98 140.8,-55.22 139.9,-62.16"/>
</g>
<!-- Node3 -->
<g id="node3" class="node">
<title>Node3</title>
<g id="a_node3"><a xlink:href="redis__ipc_8c.html#a73fec3f4f77b193da7b8231788ee84f2" target="_top" xlink:title=" ">
<polygon fill="white" stroke="black" points="128,-19.5 128,-37.5 259,-37.5 259,-19.5 128,-19.5"/>
<text text-anchor="middle" x="193.5" y="-26.3" font-family="Helvetica,sans-Serif" font-size="9.00">redis_command_from_list</text>
</a>
</g>
</g>
<!-- Node1&#45;&gt;Node3 -->
<g id="edge2" class="edge">
<title>Node1&#45;&gt;Node3</title>
<path fill="none" stroke="midnightblue" d="M92.24,-40.9C100.33,-39.9 108.96,-38.83 117.63,-37.76"/>
<polygon fill="midnightblue" stroke="midnightblue" points="118.3,-41.21 127.79,-36.51 117.44,-34.26 118.3,-41.21"/>
</g>
<!-- Node4 -->
<g id="node4" class="node">
<title>Node4</title>
<g id="a_node4"><a xlink:href="redis__ipc_8c.html#aa2a3ce97c0b6f3e83572446f3c92e541" target="_top" xlink:title=" ">
<polygon fill="white" stroke="black" points="447,-37.5 447,-55.5 554,-55.5 554,-37.5 447,-37.5"/>
<text text-anchor="middle" x="500.5" y="-44.3" font-family="Helvetica,sans-Serif" font-size="9.00">get_per_thread_info</text>
</a>
</g>
</g>
<!-- Node3&#45;&gt;Node4 -->
<g id="edge3" class="edge">
<title>Node3&#45;&gt;Node4</title>
<path fill="none" stroke="midnightblue" d="M232.92,-37.51C251.55,-41.43 274.31,-45.56 295,-47.5 342.41,-51.94 396.28,-51.46 436.83,-49.98"/>
<polygon fill="midnightblue" stroke="midnightblue" points="436.98,-53.48 446.84,-49.59 436.71,-46.49 436.98,-53.48"/>
</g>
<!-- Node6 -->
<g id="node6" class="node">
<title>Node6</title>
<g id="a_node6"><a xlink:href="redis__ipc_8c.html#a5e81feac565f9476476c5f042b2a5c9d" target="_top" xlink:title=" ">
<polygon fill="white" stroke="black" points="436,-0.5 436,-18.5 565,-18.5 565,-0.5 436,-0.5"/>
<text text-anchor="middle" x="500.5" y="-7.3" font-family="Helvetica,sans-Serif" font-size="9.00">stderr_debug_is_enabled</text>
</a>
</g>
</g>
<!-- Node3&#45;&gt;Node6 -->
<g id="edge5" class="edge">
<title>Node3&#45;&gt;Node6</title>
<path fill="none" stroke="midnightblue" d="M232.92,-19.49C251.55,-15.57 274.31,-11.44 295,-9.5 338.16,-5.46 386.66,-5.27 425.6,-6.18"/>
<polygon fill="midnightblue" stroke="midnightblue" points="425.71,-9.68 435.8,-6.45 425.89,-2.69 425.71,-9.68"/>
</g>
<!-- Node7 -->
<g id="node7" class="node">
<title>Node7</title>
<g id="a_node7"><a xlink:href="redis__ipc_8c.html#ae88037651d88f63c62d32afd7e0fccf2" target="_top" xlink:title=" ">
<polygon fill="white" stroke="black" points="295,-19.5 295,-37.5 400,-37.5 400,-19.5 295,-19.5"/>
<text text-anchor="middle" x="347.5" y="-26.3" font-family="Helvetica,sans-Serif" font-size="9.00">validate_redis_reply</text>
</a>
</g>
</g>
<!-- Node3&#45;&gt;Node7 -->
<g id="edge6" class="edge">
<title>Node3&#45;&gt;Node7</title>
<path fill="none" stroke="midnightblue" d="M259.4,-28.5C267.78,-28.5 276.34,-28.5 284.66,-28.5"/>
<polygon fill="midnightblue" stroke="midnightblue" points="284.67,-32 294.67,-28.5 284.67,-25 284.67,-32"/>
</g>
<!-- Node5 -->
<g id="node5" class="node">
<title>Node5</title>
<g id="a_node5"><a xlink:href="redis__ipc_8c.html#af0449193b7cded86e600f052d0aabd39" target="_top" xlink:title=" ">
<polygon fill="white" stroke="black" points="601,-37.5 601,-55.5 645,-55.5 645,-37.5 601,-37.5"/>
<text text-anchor="middle" x="623" y="-44.3" font-family="Helvetica,sans-Serif" font-size="9.00">gettid</text>
</a>
</g>
</g>
<!-- Node4&#45;&gt;Node5 -->
<g id="edge4" class="edge">
<title>Node4&#45;&gt;Node5</title>
<path fill="none" stroke="midnightblue" d="M554,-46.5C566.5,-46.5 579.45,-46.5 590.65,-46.5"/>
<polygon fill="midnightblue" stroke="midnightblue" points="590.78,-50 600.78,-46.5 590.78,-43 590.78,-50"/>
</g>
<!-- Node7&#45;&gt;Node4 -->
<g id="edge7" class="edge">
<title>Node7&#45;&gt;Node4</title>
<path fill="none" stroke="midnightblue" d="M400.04,-34.64C411.86,-36.05 424.54,-37.56 436.77,-39.02"/>
<polygon fill="midnightblue" stroke="midnightblue" points="436.56,-42.52 446.91,-40.23 437.39,-35.57 436.56,-42.52"/>
</g>
<!-- Node7&#45;&gt;Node6 -->
<g id="edge8" class="edge">
<title>Node7&#45;&gt;Node6</title>
<path fill="none" stroke="midnightblue" d="M400.04,-22.01C408.33,-20.97 417.05,-19.87 425.74,-18.78"/>
<polygon fill="midnightblue" stroke="midnightblue" points="426.42,-22.22 435.9,-17.5 425.54,-15.28 426.42,-22.22"/>
</g>
</g>
</svg>
