<?xml version="1.0" encoding="UTF-8" standalone="no"?>
<!DOCTYPE svg PUBLIC "-//W3C//DTD SVG 1.1//EN"
 "http://www.w3.org/Graphics/SVG/1.1/DTD/svg11.dtd">
<!-- Generated by graphviz version 2.50.0 (20220203.2022)
 -->
<!-- Title: redis_ipc_receive_command_blocking Pages: 1 -->
<svg width="915pt" height="279pt"
 viewBox="0.00 0.00 915.00 279.00" xmlns="http://www.w3.org/2000/svg" xmlns:xlink="http://www.w3.org/1999/xlink">
<g id="graph0" class="graph" transform="scale(1 1) rotate(0) translate(4 275)">
<title>redis_ipc_receive_command_blocking</title>
<polygon fill="white" stroke="transparent" points="-4,4 -4,-275 911,-275 911,4 -4,4"/>
<!-- Node1 -->
<g id="node1" class="node">
<title>Node1</title>
<g id="a_node1"><a xlink:title=" ">
<polygon fill="#bfbfbf" stroke="black" points="0,-145.5 0,-173.5 131,-173.5 131,-145.5 0,-145.5"/>
<text text-anchor="start" x="8" y="-162.3" font-family="Helvetica,sans-Serif" font-size="9.00">redis_ipc_receive_command</text>
<text text-anchor="middle" x="65.5" y="-152.3" font-family="Helvetica,sans-Serif" font-size="9.00">_blocking</text>
</a>
</g>
</g>
<!-- Node2 -->
<g id="node2" class="node">
<title>Node2</title>
<g id="a_node2"><a xlink:href="redis__ipc_8c.html#a7b930ec420c7b4bf2df1469aca77f93d" target="_top" xlink:title=" ">
<polygon fill="white" stroke="black" points="726.5,-108.5 726.5,-126.5 821.5,-126.5 821.5,-108.5 726.5,-108.5"/>
<text text-anchor="middle" x="774" y="-115.3" font-family="Helvetica,sans-Serif" font-size="9.00">get_per_thread_info</text>
</a>
</g>
</g>
<!-- Node1&#45;&gt;Node2 -->
<g id="edge1" class="edge">
<title>Node1&#45;&gt;Node2</title>
<path fill="none" stroke="midnightblue" d="M131.02,-165.91C180.05,-170.45 249.2,-176.13 310,-178.5 353.97,-180.21 365.15,-182.15 409,-178.5 522.05,-169.09 652.83,-143.52 722.74,-128.64"/>
<polygon fill="midnightblue" stroke="midnightblue" points="723.56,-132.05 732.61,-126.53 722.1,-125.2 723.56,-132.05"/>
</g>
<!-- Node4 -->
<g id="node4" class="node">
<title>Node4</title>
<g id="a_node4"><a xlink:href="redis__ipc_8c.html#a67c9dd84d2426ab58a759dbdfd223267" target="_top" xlink:title=" ">
<polygon fill="white" stroke="black" points="334,-0.5 334,-18.5 385,-18.5 385,-0.5 334,-0.5"/>
<text text-anchor="middle" x="359.5" y="-7.3" font-family="Helvetica,sans-Serif" font-size="9.00">ipc_path</text>
</a>
</g>
</g>
<!-- Node1&#45;&gt;Node4 -->
<g id="edge3" class="edge">
<title>Node1&#45;&gt;Node4</title>
<path fill="none" stroke="midnightblue" d="M83.02,-145.25C102.23,-129.19 135.35,-103.05 167,-85.5 219.23,-56.54 284.79,-33.03 324.08,-20.18"/>
<polygon fill="midnightblue" stroke="midnightblue" points="325.27,-23.47 333.71,-17.07 323.12,-16.81 325.27,-23.47"/>
</g>
<!-- Node5 -->
<g id="node5" class="node">
<title>Node5</title>
<g id="a_node5"><a xlink:href="redis__ipc_8c.html#a66cdf2ae760d1acb487dd82c1392c12f" target="_top" xlink:title=" ">
<polygon fill="white" stroke="black" points="167,-94.5 167,-112.5 274,-112.5 274,-94.5 167,-94.5"/>
<text text-anchor="middle" x="220.5" y="-101.3" font-family="Helvetica,sans-Serif" font-size="9.00">redis_ipc_send_debug</text>
</a>
</g>
</g>
<!-- Node1&#45;&gt;Node5 -->
<g id="edge4" class="edge">
<title>Node1&#45;&gt;Node5</title>
<path fill="none" stroke="midnightblue" d="M105.11,-145.37C129.74,-136.35 161.38,-124.77 185.14,-116.07"/>
<polygon fill="midnightblue" stroke="midnightblue" points="186.61,-119.26 194.8,-112.54 184.21,-112.69 186.61,-119.26"/>
</g>
<!-- Node13 -->
<g id="node13" class="node">
<title>Node13</title>
<g id="a_node13"><a xlink:href="redis__ipc_8c.html#a51be0735eeaf88f636c16128647f11f7" target="_top" xlink:title=" ">
<polygon fill="white" stroke="black" points="331.5,-226.5 331.5,-244.5 387.5,-244.5 387.5,-226.5 331.5,-226.5"/>
<text text-anchor="middle" x="359.5" y="-233.3" font-family="Helvetica,sans-Serif" font-size="9.00">redis_pop</text>
</a>
</g>
</g>
<!-- Node1&#45;&gt;Node13 -->
<g id="edge19" class="edge">
<title>Node1&#45;&gt;Node13</title>
<path fill="none" stroke="midnightblue" d="M88.28,-173.65C108,-185.75 138.3,-202.59 167,-211.5 218.88,-227.61 281.86,-232.94 321.07,-234.68"/>
<polygon fill="midnightblue" stroke="midnightblue" points="321.1,-238.19 331.23,-235.08 321.37,-231.19 321.1,-238.19"/>
</g>
<!-- Node3 -->
<g id="node3" class="node">
<title>Node3</title>
<g id="a_node3"><a xlink:href="redis__ipc_8c.html#af0449193b7cded86e600f052d0aabd39" target="_top" xlink:title=" ">
<polygon fill="white" stroke="black" points="869,-89.5 869,-107.5 907,-107.5 907,-89.5 869,-89.5"/>
<text text-anchor="middle" x="888" y="-96.3" font-family="Helvetica,sans-Serif" font-size="9.00">gettid</text>
</a>
</g>
</g>
<!-- Node2&#45;&gt;Node3 -->
<g id="edge2" class="edge">
<title>Node2&#45;&gt;Node3</title>
<path fill="none" stroke="midnightblue" d="M821.53,-109.61C834.19,-107.46 847.51,-105.2 858.82,-103.28"/>
<polygon fill="midnightblue" stroke="midnightblue" points="859.67,-106.69 868.94,-101.56 858.5,-99.79 859.67,-106.69"/>
</g>
<!-- Node5&#45;&gt;Node2 -->
<g id="edge7" class="edge">
<title>Node5&#45;&gt;Node2</title>
<path fill="none" stroke="midnightblue" d="M237.83,-94.34C255.13,-85.21 283.55,-71.81 310,-66.5 386.52,-51.15 610.87,-87.94 716.62,-106.97"/>
<polygon fill="midnightblue" stroke="midnightblue" points="716.01,-110.42 726.47,-108.76 717.26,-103.53 716.01,-110.42"/>
</g>
<!-- Node5&#45;&gt;Node4 -->
<g id="edge8" class="edge">
<title>Node5&#45;&gt;Node4</title>
<path fill="none" stroke="midnightblue" d="M232.35,-94.45C252.27,-77.9 294.11,-43.56 310,-33.5 315.87,-29.79 322.39,-26.22 328.7,-23.02"/>
<polygon fill="midnightblue" stroke="midnightblue" points="330.24,-26.16 337.69,-18.62 327.17,-19.87 330.24,-26.16"/>
</g>
<!-- Node6 -->
<g id="node6" class="node">
<title>Node6</title>
<g id="a_node6"><a xlink:href="redis__ipc_8c.html#a134fbfb58bceaeaad9c15dec14104a65" target="_top" xlink:title=" ">
<polygon fill="white" stroke="black" points="312.5,-150.5 312.5,-168.5 406.5,-168.5 406.5,-150.5 312.5,-150.5"/>
<text text-anchor="middle" x="359.5" y="-157.3" font-family="Helvetica,sans-Serif" font-size="9.00">format_debug_msg</text>
</a>
</g>
</g>
<!-- Node5&#45;&gt;Node6 -->
<g id="edge5" class="edge">
<title>Node5&#45;&gt;Node6</title>
<path fill="none" stroke="midnightblue" d="M241.77,-112.55C259.63,-120.43 286.4,-132.06 310,-141.5 314.46,-143.28 319.17,-145.1 323.83,-146.87"/>
<polygon fill="midnightblue" stroke="midnightblue" points="322.64,-150.17 333.24,-150.4 325.1,-143.61 322.64,-150.17"/>
</g>
<!-- Node7 -->
<g id="node7" class="node">
<title>Node7</title>
<g id="a_node7"><a xlink:href="redis__ipc_8c.html#a69fe6204f8b392036b5faa4b9392aa8a" target="_top" xlink:title=" ">
<polygon fill="white" stroke="black" points="310,-76.5 310,-94.5 409,-94.5 409,-76.5 310,-76.5"/>
<text text-anchor="middle" x="359.5" y="-83.3" font-family="Helvetica,sans-Serif" font-size="9.00">get_debug_verbosity</text>
</a>
</g>
</g>
<!-- Node5&#45;&gt;Node7 -->
<g id="edge6" class="edge">
<title>Node5&#45;&gt;Node7</title>
<path fill="none" stroke="midnightblue" d="M274.08,-96.59C282.54,-95.48 291.34,-94.32 299.93,-93.2"/>
<polygon fill="midnightblue" stroke="midnightblue" points="300.43,-96.66 309.89,-91.89 299.51,-89.72 300.43,-96.66"/>
</g>
<!-- Node8 -->
<g id="node8" class="node">
<title>Node8</title>
<g id="a_node8"><a xlink:href="redis__ipc_8c.html#ab3dc5609833c201c4e9ebaa5e2e70a2f" target="_top" xlink:title=" ">
<polygon fill="white" stroke="black" points="324.5,-113.5 324.5,-131.5 394.5,-131.5 394.5,-113.5 324.5,-113.5"/>
<text text-anchor="middle" x="359.5" y="-120.3" font-family="Helvetica,sans-Serif" font-size="9.00">redis_publish</text>
</a>
</g>
</g>
<!-- Node5&#45;&gt;Node8 -->
<g id="edge9" class="edge">
<title>Node5&#45;&gt;Node8</title>
<path fill="none" stroke="midnightblue" d="M274.08,-110.79C287.41,-112.64 301.6,-114.61 314.47,-116.39"/>
<polygon fill="midnightblue" stroke="midnightblue" points="314.07,-119.87 324.46,-117.78 315.03,-112.94 314.07,-119.87"/>
</g>
<!-- Node9 -->
<g id="node9" class="node">
<title>Node9</title>
<g id="a_node9"><a xlink:href="redis__ipc_8c.html#a1ca0a131f083c0547523e40cae96936e" target="_top" xlink:title=" ">
<polygon fill="white" stroke="black" points="561,-40.5 561,-58.5 679,-58.5 679,-40.5 561,-40.5"/>
<text text-anchor="middle" x="620" y="-47.3" font-family="Helvetica,sans-Serif" font-size="9.00">json_add_common_fields</text>
</a>
</g>
</g>
<!-- Node8&#45;&gt;Node9 -->
<g id="edge10" class="edge">
<title>Node8&#45;&gt;Node9</title>
<path fill="none" stroke="midnightblue" d="M392.46,-113.48C439.06,-100.31 525.72,-75.84 577.29,-61.28"/>
<polygon fill="midnightblue" stroke="midnightblue" points="578.44,-64.59 587.12,-58.5 576.54,-57.85 578.44,-64.59"/>
</g>
<!-- Node10 -->
<g id="node10" class="node">
<title>Node10</title>
<g id="a_node10"><a xlink:href="redis__ipc_8c.html#afab35d4c40b4b1866fc0239bb885a39b" target="_top" xlink:title=" ">
<polygon fill="white" stroke="black" points="445,-214.5 445,-232.5 525,-232.5 525,-214.5 445,-214.5"/>
<text text-anchor="middle" x="485" y="-221.3" font-family="Helvetica,sans-Serif" font-size="9.00">redis_command</text>
</a>
</g>
</g>
<!-- Node8&#45;&gt;Node10 -->
<g id="edge13" class="edge">
<title>Node8&#45;&gt;Node10</title>
<path fill="none" stroke="midnightblue" d="M390.06,-131.6C396.58,-134.27 403.26,-137.56 409,-141.5 434.99,-159.34 458.35,-187.81 471.86,-206.08"/>
<polygon fill="midnightblue" stroke="midnightblue" points="469.14,-208.29 477.83,-214.36 474.82,-204.2 469.14,-208.29"/>
</g>
<!-- Node9&#45;&gt;Node2 -->
<g id="edge11" class="edge">
<title>Node9&#45;&gt;Node2</title>
<path fill="none" stroke="midnightblue" d="M644.69,-58.59C655.31,-62.84 667.91,-68.15 679,-73.5 695.48,-81.46 698.52,-85.54 715,-93.5 722.97,-97.35 731.72,-101.17 739.96,-104.59"/>
<polygon fill="midnightblue" stroke="midnightblue" points="738.73,-107.87 749.31,-108.41 741.37,-101.39 738.73,-107.87"/>
</g>
<!-- Node9&#45;&gt;Node3 -->
<g id="edge12" class="edge">
<title>Node9&#45;&gt;Node3</title>
<path fill="none" stroke="midnightblue" d="M670.1,-58.54C725.55,-68.76 813.89,-85.03 858.8,-93.3"/>
<polygon fill="midnightblue" stroke="midnightblue" points="858.25,-96.76 868.72,-95.13 859.52,-89.88 858.25,-96.76"/>
</g>
<!-- Node10&#45;&gt;Node2 -->
<g id="edge14" class="edge">
<title>Node10&#45;&gt;Node2</title>
<path fill="none" stroke="midnightblue" d="M518.54,-214.42C557.26,-203.3 623.64,-183.25 679,-161.5 702.14,-152.41 727.63,-140.34 746.23,-131.14"/>
<polygon fill="midnightblue" stroke="midnightblue" points="747.89,-134.22 755.28,-126.62 744.77,-127.96 747.89,-134.22"/>
</g>
<!-- Node11 -->
<g id="node11" class="node">
<title>Node11</title>
<g id="a_node11"><a xlink:href="redis__ipc_8c.html#a5e81feac565f9476476c5f042b2a5c9d" target="_top" xlink:title=" ">
<polygon fill="white" stroke="black" points="715,-252.5 715,-270.5 833,-270.5 833,-252.5 715,-252.5"/>
<text text-anchor="middle" x="774" y="-259.3" font-family="Helvetica,sans-Serif" font-size="9.00">stderr_debug_is_enabled</text>
</a>
</g>
</g>
<!-- Node10&#45;&gt;Node11 -->
<g id="edge15" class="edge">
<title>Node10&#45;&gt;Node11</title>
<path fill="none" stroke="midnightblue" d="M517.15,-232.57C530.54,-236.16 546.43,-240.02 561,-242.5 608.62,-250.61 662.88,-255.39 704.59,-258.13"/>
<polygon fill="midnightblue" stroke="midnightblue" points="704.44,-261.63 714.64,-258.77 704.88,-254.64 704.44,-261.63"/>
</g>
<!-- Node12 -->
<g id="node12" class="node">
<title>Node12</title>
<g id="a_node12"><a xlink:href="redis__ipc_8c.html#a80ea8825dd17a3cff2530680c97d184a" target="_top" xlink:title=" ">
<polygon fill="white" stroke="black" points="571,-214.5 571,-232.5 669,-232.5 669,-214.5 571,-214.5"/>
<text text-anchor="middle" x="620" y="-221.3" font-family="Helvetica,sans-Serif" font-size="9.00">validate_redis_reply</text>
</a>
</g>
</g>
<!-- Node10&#45;&gt;Node12 -->
<g id="edge16" class="edge">
<title>Node10&#45;&gt;Node12</title>
<path fill="none" stroke="midnightblue" d="M525.19,-223.5C536.21,-223.5 548.44,-223.5 560.34,-223.5"/>
<polygon fill="midnightblue" stroke="midnightblue" points="560.67,-227 570.67,-223.5 560.67,-220 560.67,-227"/>
</g>
<!-- Node12&#45;&gt;Node2 -->
<g id="edge17" class="edge">
<title>Node12&#45;&gt;Node2</title>
<path fill="none" stroke="midnightblue" d="M647.87,-214.48C657.99,-210.55 669.37,-205.47 679,-199.5 709.33,-180.7 739.56,-152.13 757.25,-134.16"/>
<polygon fill="midnightblue" stroke="midnightblue" points="760.01,-136.34 764.45,-126.72 754.98,-131.47 760.01,-136.34"/>
</g>
<!-- Node12&#45;&gt;Node11 -->
<g id="edge18" class="edge">
<title>Node12&#45;&gt;Node11</title>
<path fill="none" stroke="midnightblue" d="M657.02,-232.51C677.96,-237.74 704.55,-244.39 726.99,-250"/>
<polygon fill="midnightblue" stroke="midnightblue" points="726.42,-253.46 736.97,-252.49 728.12,-246.67 726.42,-253.46"/>
</g>
<!-- Node13&#45;&gt;Node10 -->
<g id="edge20" class="edge">
<title>Node13&#45;&gt;Node10</title>
<path fill="none" stroke="midnightblue" d="M387.6,-232.87C401.35,-231.53 418.48,-229.87 434.47,-228.31"/>
<polygon fill="midnightblue" stroke="midnightblue" points="435.16,-231.76 444.77,-227.31 434.48,-224.8 435.16,-231.76"/>
</g>
<!-- Node13&#45;&gt;Node11 -->
<g id="edge21" class="edge">
<title>Node13&#45;&gt;Node11</title>
<path fill="none" stroke="midnightblue" d="M387.62,-240.33C426.05,-246.9 498.62,-258.32 561,-262.5 613.33,-266.01 626.56,-262.78 679,-262.5 687.33,-262.46 696.07,-262.39 704.73,-262.31"/>
<polygon fill="midnightblue" stroke="midnightblue" points="704.87,-265.81 714.83,-262.22 704.8,-258.81 704.87,-265.81"/>
</g>
</g>
</svg>
