<?xml version="1.0" encoding="UTF-8" standalone="no"?>
<!DOCTYPE svg PUBLIC "-//W3C//DTD SVG 1.1//EN"
 "http://www.w3.org/Graphics/SVG/1.1/DTD/svg11.dtd">
<!-- Generated by graphviz version 2.47.1 (20210417.1919)
 -->
<!-- Title: ipc_path Pages: 1 -->
<svg width="398pt" height="703pt"
 viewBox="0.00 0.00 398.00 703.00" xmlns="http://www.w3.org/2000/svg" xmlns:xlink="http://www.w3.org/1999/xlink">
<g id="graph0" class="graph" transform="scale(1 1) rotate(0) translate(4 699)">
<title>ipc_path</title>
<polygon fill="white" stroke="transparent" points="-4,4 -4,-699 394,-699 394,4 -4,4"/>
<!-- Node1 -->
<g id="node1" class="node">
<title>Node1</title>
<g id="a_node1"><a xlink:title=" ">
<polygon fill="#bfbfbf" stroke="black" points="334,-356.5 334,-374.5 390,-374.5 390,-356.5 334,-356.5"/>
<text text-anchor="middle" x="362" y="-363.3" font-family="Helvetica,sans-Serif" font-size="9.00">ipc_path</text>
</a>
</g>
</g>
<!-- Node2 -->
<g id="node2" class="node">
<title>Node2</title>
<g id="a_node2"><a xlink:href="redis__ipc_8c.html#ad761c2631d54b43ea0a5426813bc4dd1" target="_top" xlink:title=" ">
<polygon fill="white" stroke="black" points="201,-676.5 201,-694.5 276,-694.5 276,-676.5 201,-676.5"/>
<text text-anchor="middle" x="238.5" y="-683.3" font-family="Helvetica,sans-Serif" font-size="9.00">redis_ipc_init</text>
</a>
</g>
</g>
<!-- Node1&#45;&gt;Node2 -->
<g id="edge1" class="edge">
<title>Node1&#45;&gt;Node2</title>
<path fill="none" stroke="midnightblue" d="M359.5,-384.79C354.49,-444.59 336.38,-625.38 298,-667.5 292.2,-673.86 284.22,-678 276.01,-680.68"/>
<polygon fill="midnightblue" stroke="midnightblue" points="363.02,-384.77 360.33,-374.52 356.04,-384.2 363.02,-384.77"/>
</g>
<!-- Node3 -->
<g id="node3" class="node">
<title>Node3</title>
<g id="a_node3"><a xlink:href="redis__ipc_8c.html#a3cfe2b5851e3cf7ef8acaafa0f409fae" target="_top" xlink:title=" ">
<polygon fill="white" stroke="black" points="180,-639.5 180,-657.5 297,-657.5 297,-639.5 180,-639.5"/>
<text text-anchor="middle" x="238.5" y="-646.3" font-family="Helvetica,sans-Serif" font-size="9.00">redis_ipc_read_setting</text>
</a>
</g>
</g>
<!-- Node1&#45;&gt;Node3 -->
<g id="edge2" class="edge">
<title>Node1&#45;&gt;Node3</title>
<path fill="none" stroke="midnightblue" d="M358.92,-384.54C352.61,-439.07 331.96,-594.26 298,-630.5 294.59,-634.14 290.45,-637.06 285.98,-639.38"/>
<polygon fill="midnightblue" stroke="midnightblue" points="362.41,-384.84 360.05,-374.51 355.45,-384.05 362.41,-384.84"/>
</g>
<!-- Node4 -->
<g id="node4" class="node">
<title>Node4</title>
<g id="a_node4"><a xlink:href="redis__ipc_8c.html#a6afa8c8738fc3e50675c93724dfe2236" target="_top" xlink:title=" ">
<polygon fill="white" stroke="black" points="180,-592.5 180,-620.5 297,-620.5 297,-592.5 180,-592.5"/>
<text text-anchor="start" x="188" y="-609.3" font-family="Helvetica,sans-Serif" font-size="9.00">redis_ipc_read_setting</text>
<text text-anchor="middle" x="238.5" y="-599.3" font-family="Helvetica,sans-Serif" font-size="9.00">_field</text>
</a>
</g>
</g>
<!-- Node1&#45;&gt;Node4 -->
<g id="edge3" class="edge">
<title>Node1&#45;&gt;Node4</title>
<path fill="none" stroke="midnightblue" d="M360.86,-384.9C359.52,-426.61 350.62,-525.73 298,-583.5 294.84,-586.97 291.09,-589.92 287.04,-592.43"/>
<polygon fill="midnightblue" stroke="midnightblue" points="364.36,-384.81 361.07,-374.74 357.36,-384.66 364.36,-384.81"/>
</g>
<!-- Node5 -->
<g id="node5" class="node">
<title>Node5</title>
<g id="a_node5"><a xlink:href="redis__ipc_8c.html#ada50e7500b7b76526f3dbe186d330335" target="_top" xlink:title=" ">
<polygon fill="white" stroke="black" points="182,-555.5 182,-573.5 295,-573.5 295,-555.5 182,-555.5"/>
<text text-anchor="middle" x="238.5" y="-562.3" font-family="Helvetica,sans-Serif" font-size="9.00">redis_ipc_read_status</text>
</a>
</g>
</g>
<!-- Node1&#45;&gt;Node5 -->
<g id="edge4" class="edge">
<title>Node1&#45;&gt;Node5</title>
<path fill="none" stroke="midnightblue" d="M359.84,-384.83C356.57,-421.6 344.25,-501.9 298,-546.5 294.18,-550.19 289.61,-553.12 284.75,-555.46"/>
<polygon fill="midnightblue" stroke="midnightblue" points="363.35,-384.76 360.61,-374.53 356.37,-384.24 363.35,-384.76"/>
</g>
<!-- Node6 -->
<g id="node6" class="node">
<title>Node6</title>
<g id="a_node6"><a xlink:href="redis__ipc_8c.html#ad71c568720d1ca8e41c247516841eac4" target="_top" xlink:title=" ">
<polygon fill="white" stroke="black" points="182,-508.5 182,-536.5 295,-536.5 295,-508.5 182,-508.5"/>
<text text-anchor="start" x="190" y="-525.3" font-family="Helvetica,sans-Serif" font-size="9.00">redis_ipc_read_status</text>
<text text-anchor="middle" x="238.5" y="-515.3" font-family="Helvetica,sans-Serif" font-size="9.00">_field</text>
</a>
</g>
</g>
<!-- Node1&#45;&gt;Node6 -->
<g id="edge5" class="edge">
<title>Node1&#45;&gt;Node6</title>
<path fill="none" stroke="midnightblue" d="M355.87,-384.62C347.69,-411.87 329.36,-462.05 298,-493.5 292.08,-499.44 284.69,-504.37 277.18,-508.38"/>
<polygon fill="midnightblue" stroke="midnightblue" points="359.3,-385.35 358.67,-374.77 352.57,-383.43 359.3,-385.35"/>
</g>
<!-- Node7 -->
<g id="node7" class="node">
<title>Node7</title>
<g id="a_node7"><a xlink:href="redis__ipc_8c.html#a6961dec4572f2b0b9f52ae09ae663728" target="_top" xlink:title=" ">
<polygon fill="white" stroke="black" points="0,-469.5 0,-497.5 143,-497.5 143,-469.5 0,-469.5"/>
<text text-anchor="start" x="8" y="-486.3" font-family="Helvetica,sans-Serif" font-size="9.00">redis_ipc_receive_command</text>
<text text-anchor="middle" x="71.5" y="-476.3" font-family="Helvetica,sans-Serif" font-size="9.00">_blocking</text>
</a>
</g>
</g>
<!-- Node1&#45;&gt;Node7 -->
<g id="edge6" class="edge">
<title>Node1&#45;&gt;Node7</title>
<path fill="none" stroke="midnightblue" d="M354.48,-383.87C345.51,-406.15 327.1,-442.92 298,-460.5 251.77,-488.43 190.29,-493.02 143.21,-491.27"/>
<polygon fill="midnightblue" stroke="midnightblue" points="357.76,-385.09 358.03,-374.5 351.21,-382.61 357.76,-385.09"/>
</g>
<!-- Node8 -->
<g id="node8" class="node">
<title>Node8</title>
<g id="a_node8"><a xlink:href="redis__ipc_8c.html#a696ecebb5df3f171ed7b6adf682c83a2" target="_top" xlink:title=" ">
<polygon fill="white" stroke="black" points="5,-385.5 5,-413.5 138,-413.5 138,-385.5 5,-385.5"/>
<text text-anchor="start" x="13" y="-402.3" font-family="Helvetica,sans-Serif" font-size="9.00">redis_ipc_send_command</text>
<text text-anchor="middle" x="71.5" y="-392.3" font-family="Helvetica,sans-Serif" font-size="9.00">_blocking</text>
</a>
</g>
</g>
<!-- Node1&#45;&gt;Node8 -->
<g id="edge7" class="edge">
<title>Node1&#45;&gt;Node8</title>
<path fill="none" stroke="midnightblue" d="M324.29,-377.37C315.74,-379.75 306.62,-381.98 298,-383.5 244.66,-392.91 183.3,-396.82 138.07,-398.43"/>
<polygon fill="midnightblue" stroke="midnightblue" points="325.38,-380.7 334,-374.55 323.42,-373.98 325.38,-380.7"/>
</g>
<!-- Node9 -->
<g id="node9" class="node">
<title>Node9</title>
<g id="a_node9"><a xlink:href="redis__ipc_8c.html#a66cdf2ae760d1acb487dd82c1392c12f" target="_top" xlink:title=" ">
<polygon fill="white" stroke="black" points="180.5,-432.5 180.5,-450.5 296.5,-450.5 296.5,-432.5 180.5,-432.5"/>
<text text-anchor="middle" x="238.5" y="-439.3" font-family="Helvetica,sans-Serif" font-size="9.00">redis_ipc_send_debug</text>
</a>
</g>
</g>
<!-- Node1&#45;&gt;Node9 -->
<g id="edge8" class="edge">
<title>Node1&#45;&gt;Node9</title>
<path fill="none" stroke="midnightblue" d="M344.34,-381.63C332.22,-392.75 315,-407.32 298,-417.5 288.11,-423.42 276.49,-428.52 266.23,-432.48"/>
<polygon fill="midnightblue" stroke="midnightblue" points="346.97,-383.97 351.86,-374.57 342.17,-378.86 346.97,-383.97"/>
</g>
<!-- Node11 -->
<g id="node11" class="node">
<title>Node11</title>
<g id="a_node11"><a xlink:href="redis__ipc_8c.html#a9040f6af2f364ef8da41175eb6073693" target="_top" xlink:title=" ">
<polygon fill="white" stroke="black" points="182,-356.5 182,-374.5 295,-374.5 295,-356.5 182,-356.5"/>
<text text-anchor="middle" x="238.5" y="-363.3" font-family="Helvetica,sans-Serif" font-size="9.00">redis_ipc_send_event</text>
</a>
</g>
</g>
<!-- Node1&#45;&gt;Node11 -->
<g id="edge12" class="edge">
<title>Node1&#45;&gt;Node11</title>
<path fill="none" stroke="midnightblue" d="M323.56,-365.5C314.53,-365.5 304.68,-365.5 295.02,-365.5"/>
<polygon fill="midnightblue" stroke="midnightblue" points="323.73,-369 333.73,-365.5 323.73,-362 323.73,-369"/>
</g>
<!-- Node12 -->
<g id="node12" class="node">
<title>Node12</title>
<g id="a_node12"><a xlink:href="redis__ipc_8c.html#ac22692af167c24369831321eb5a1aa20" target="_top" xlink:title=" ">
<polygon fill="white" stroke="black" points="186.5,-309.5 186.5,-337.5 290.5,-337.5 290.5,-309.5 186.5,-309.5"/>
<text text-anchor="start" x="194.5" y="-326.3" font-family="Helvetica,sans-Serif" font-size="9.00">redis_ipc_subscribe</text>
<text text-anchor="middle" x="238.5" y="-316.3" font-family="Helvetica,sans-Serif" font-size="9.00">_debug</text>
</a>
</g>
</g>
<!-- Node1&#45;&gt;Node12 -->
<g id="edge13" class="edge">
<title>Node1&#45;&gt;Node12</title>
<path fill="none" stroke="midnightblue" d="M325.13,-353.1C311.07,-348.24 294.85,-342.63 280.34,-337.62"/>
<polygon fill="midnightblue" stroke="midnightblue" points="324.34,-356.53 334.94,-356.49 326.63,-349.91 324.34,-356.53"/>
</g>
<!-- Node13 -->
<g id="node13" class="node">
<title>Node13</title>
<g id="a_node13"><a xlink:href="redis__ipc_8c.html#a26390ed4efc19636cc62fc3adf9e3278" target="_top" xlink:title=" ">
<polygon fill="white" stroke="black" points="186.5,-262.5 186.5,-290.5 290.5,-290.5 290.5,-262.5 186.5,-262.5"/>
<text text-anchor="start" x="194.5" y="-279.3" font-family="Helvetica,sans-Serif" font-size="9.00">redis_ipc_subscribe</text>
<text text-anchor="middle" x="238.5" y="-269.3" font-family="Helvetica,sans-Serif" font-size="9.00">_events</text>
</a>
</g>
</g>
<!-- Node1&#45;&gt;Node13 -->
<g id="edge14" class="edge">
<title>Node1&#45;&gt;Node13</title>
<path fill="none" stroke="midnightblue" d="M347.85,-347.95C336.14,-333.33 317.82,-312.82 298,-299.5 293.02,-296.15 287.48,-293.18 281.85,-290.58"/>
<polygon fill="midnightblue" stroke="midnightblue" points="345.35,-350.43 354.25,-356.17 350.87,-346.13 345.35,-350.43"/>
</g>
<!-- Node14 -->
<g id="node14" class="node">
<title>Node14</title>
<g id="a_node14"><a xlink:href="redis__ipc_8c.html#a55074bea4936100d8785f7ec9b5e83c9" target="_top" xlink:title=" ">
<polygon fill="white" stroke="black" points="180.5,-215.5 180.5,-243.5 296.5,-243.5 296.5,-215.5 180.5,-215.5"/>
<text text-anchor="start" x="188.5" y="-232.3" font-family="Helvetica,sans-Serif" font-size="9.00">redis_ipc_unsubscribe</text>
<text text-anchor="middle" x="238.5" y="-222.3" font-family="Helvetica,sans-Serif" font-size="9.00">_debug</text>
</a>
</g>
</g>
<!-- Node1&#45;&gt;Node14 -->
<g id="edge15" class="edge">
<title>Node1&#45;&gt;Node14</title>
<path fill="none" stroke="midnightblue" d="M354.97,-346.53C346.19,-321.72 327.61,-278.38 298,-252.5 294.06,-249.05 289.53,-246.09 284.79,-243.55"/>
<polygon fill="midnightblue" stroke="midnightblue" points="351.72,-347.85 358.23,-356.21 358.36,-345.61 351.72,-347.85"/>
</g>
<!-- Node15 -->
<g id="node15" class="node">
<title>Node15</title>
<g id="a_node15"><a xlink:href="redis__ipc_8c.html#a88193bfef2bb1f36fa783c616d430c15" target="_top" xlink:title=" ">
<polygon fill="white" stroke="black" points="180.5,-168.5 180.5,-196.5 296.5,-196.5 296.5,-168.5 180.5,-168.5"/>
<text text-anchor="start" x="188.5" y="-185.3" font-family="Helvetica,sans-Serif" font-size="9.00">redis_ipc_unsubscribe</text>
<text text-anchor="middle" x="238.5" y="-175.3" font-family="Helvetica,sans-Serif" font-size="9.00">_events</text>
</a>
</g>
</g>
<!-- Node1&#45;&gt;Node15 -->
<g id="edge16" class="edge">
<title>Node1&#45;&gt;Node15</title>
<path fill="none" stroke="midnightblue" d="M358.42,-345.95C353.04,-312.76 337.66,-245.14 298,-205.5 294.53,-202.03 290.47,-199.07 286.13,-196.54"/>
<polygon fill="midnightblue" stroke="midnightblue" points="355,-346.77 359.92,-356.15 361.92,-345.75 355,-346.77"/>
</g>
<!-- Node16 -->
<g id="node16" class="node">
<title>Node16</title>
<g id="a_node16"><a xlink:href="redis__ipc_8c.html#a11db23f8f055e2d63fd8308c3d382da4" target="_top" xlink:title=" ">
<polygon fill="white" stroke="black" points="179,-131.5 179,-149.5 298,-149.5 298,-131.5 179,-131.5"/>
<text text-anchor="middle" x="238.5" y="-138.3" font-family="Helvetica,sans-Serif" font-size="9.00">redis_ipc_write_setting</text>
</a>
</g>
</g>
<!-- Node1&#45;&gt;Node16 -->
<g id="edge17" class="edge">
<title>Node1&#45;&gt;Node16</title>
<path fill="none" stroke="midnightblue" d="M360.83,-345.94C359.39,-305.25 350.25,-210.91 298,-158.5 294.32,-154.81 289.91,-151.88 285.18,-149.54"/>
<polygon fill="midnightblue" stroke="midnightblue" points="357.33,-346.21 361.06,-356.13 364.33,-346.05 357.33,-346.21"/>
</g>
<!-- Node17 -->
<g id="node17" class="node">
<title>Node17</title>
<g id="a_node17"><a xlink:href="redis__ipc_8c.html#aef76ea4158d5075f2c2c0041ec62d1d5" target="_top" xlink:title=" ">
<polygon fill="white" stroke="black" points="179,-84.5 179,-112.5 298,-112.5 298,-84.5 179,-84.5"/>
<text text-anchor="start" x="187" y="-101.3" font-family="Helvetica,sans-Serif" font-size="9.00">redis_ipc_write_setting</text>
<text text-anchor="middle" x="238.5" y="-91.3" font-family="Helvetica,sans-Serif" font-size="9.00">_field</text>
</a>
</g>
</g>
<!-- Node1&#45;&gt;Node17 -->
<g id="edge18" class="edge">
<title>Node1&#45;&gt;Node17</title>
<path fill="none" stroke="midnightblue" d="M361.59,-345.98C361.9,-300.74 356.41,-187.51 298,-121.5 294.96,-118.07 291.35,-115.14 287.43,-112.65"/>
<polygon fill="midnightblue" stroke="midnightblue" points="358.09,-346.12 361.41,-356.18 365.09,-346.24 358.09,-346.12"/>
</g>
<!-- Node18 -->
<g id="node18" class="node">
<title>Node18</title>
<g id="a_node18"><a xlink:href="redis__ipc_8c.html#ab7d4be95434367c1b7dd526ebbab77a1" target="_top" xlink:title=" ">
<polygon fill="white" stroke="black" points="180.5,-47.5 180.5,-65.5 296.5,-65.5 296.5,-47.5 180.5,-47.5"/>
<text text-anchor="middle" x="238.5" y="-54.3" font-family="Helvetica,sans-Serif" font-size="9.00">redis_ipc_write_status</text>
</a>
</g>
</g>
<!-- Node1&#45;&gt;Node18 -->
<g id="edge19" class="edge">
<title>Node1&#45;&gt;Node18</title>
<path fill="none" stroke="midnightblue" d="M359.33,-346.14C353.92,-287.74 335.04,-114.84 298,-74.5 294.62,-70.82 290.51,-67.89 286.05,-65.55"/>
<polygon fill="midnightblue" stroke="midnightblue" points="355.86,-346.57 360.23,-356.22 362.83,-345.95 355.86,-346.57"/>
</g>
<!-- Node19 -->
<g id="node19" class="node">
<title>Node19</title>
<g id="a_node19"><a xlink:href="redis__ipc_8c.html#a1ccd53107db1e7be09bb4e958975720e" target="_top" xlink:title=" ">
<polygon fill="white" stroke="black" points="180.5,-0.5 180.5,-28.5 296.5,-28.5 296.5,-0.5 180.5,-0.5"/>
<text text-anchor="start" x="188.5" y="-17.3" font-family="Helvetica,sans-Serif" font-size="9.00">redis_ipc_write_status</text>
<text text-anchor="middle" x="238.5" y="-7.3" font-family="Helvetica,sans-Serif" font-size="9.00">_field</text>
</a>
</g>
</g>
<!-- Node1&#45;&gt;Node19 -->
<g id="edge20" class="edge">
<title>Node1&#45;&gt;Node19</title>
<path fill="none" stroke="midnightblue" d="M359.71,-346.33C355.13,-283.55 337.75,-85.38 298,-37.5 295.14,-34.06 291.7,-31.13 287.93,-28.64"/>
<polygon fill="midnightblue" stroke="midnightblue" points="356.23,-346.68 360.42,-356.41 363.21,-346.19 356.23,-346.68"/>
</g>
<!-- Node9&#45;&gt;Node7 -->
<g id="edge9" class="edge">
<title>Node9&#45;&gt;Node7</title>
<path fill="none" stroke="midnightblue" d="M192.32,-453C172.34,-458.09 148.65,-464.12 127.64,-469.46"/>
<polygon fill="midnightblue" stroke="midnightblue" points="193.28,-456.37 202.1,-450.51 191.55,-449.59 193.28,-456.37"/>
</g>
<!-- Node9&#45;&gt;Node8 -->
<g id="edge10" class="edge">
<title>Node9&#45;&gt;Node8</title>
<path fill="none" stroke="midnightblue" d="M192.32,-430C172.34,-424.91 148.65,-418.88 127.64,-413.54"/>
<polygon fill="midnightblue" stroke="midnightblue" points="191.55,-433.41 202.1,-432.49 193.28,-426.63 191.55,-433.41"/>
</g>
<!-- Node10 -->
<g id="node10" class="node">
<title>Node10</title>
<g id="a_node10"><a xlink:href="redis__ipc_8c.html#aecff1f4edcb2ebf0654d0fff21e334a5" target="_top" xlink:title=" ">
<polygon fill="white" stroke="black" points="15,-432.5 15,-450.5 128,-450.5 128,-432.5 15,-432.5"/>
<text text-anchor="middle" x="71.5" y="-439.3" font-family="Helvetica,sans-Serif" font-size="9.00">redis_ipc_send_result</text>
</a>
</g>
</g>
<!-- Node9&#45;&gt;Node10 -->
<g id="edge11" class="edge">
<title>Node9&#45;&gt;Node10</title>
<path fill="none" stroke="midnightblue" d="M170.23,-441.5C156.28,-441.5 141.73,-441.5 128.25,-441.5"/>
<polygon fill="midnightblue" stroke="midnightblue" points="170.25,-445 180.25,-441.5 170.25,-438 170.25,-445"/>
</g>
</g>
</svg>
