<?xml version="1.0" encoding="UTF-8" standalone="no"?>
<!DOCTYPE svg PUBLIC "-//W3C//DTD SVG 1.1//EN"
 "http://www.w3.org/Graphics/SVG/1.1/DTD/svg11.dtd">
<!-- Generated by graphviz version 2.47.1 (20210417.1919)
 -->
<!-- Title: validate_redis_reply Pages: 1 -->
<svg width="358pt" height="64pt"
 viewBox="0.00 0.00 358.00 64.00" xmlns="http://www.w3.org/2000/svg" xmlns:xlink="http://www.w3.org/1999/xlink">
<g id="graph0" class="graph" transform="scale(1 1) rotate(0) translate(4 60)">
<title>validate_redis_reply</title>
<polygon fill="white" stroke="transparent" points="-4,4 -4,-60 354,-60 354,4 -4,4"/>
<!-- Node1 -->
<g id="node1" class="node">
<title>Node1</title>
<g id="a_node1"><a xlink:title=" ">
<polygon fill="#bfbfbf" stroke="black" points="0,-18.5 0,-36.5 105,-36.5 105,-18.5 0,-18.5"/>
<text text-anchor="middle" x="52.5" y="-25.3" font-family="Helvetica,sans-Serif" font-size="9.00">validate_redis_reply</text>
</a>
</g>
</g>
<!-- Node2 -->
<g id="node2" class="node">
<title>Node2</title>
<g id="a_node2"><a xlink:href="redis__ipc_8c.html#aa2a3ce97c0b6f3e83572446f3c92e541" target="_top" xlink:title=" ">
<polygon fill="white" stroke="black" points="152,-37.5 152,-55.5 259,-55.5 259,-37.5 152,-37.5"/>
<text text-anchor="middle" x="205.5" y="-44.3" font-family="Helvetica,sans-Serif" font-size="9.00">get_per_thread_info</text>
</a>
</g>
</g>
<!-- Node1&#45;&gt;Node2 -->
<g id="edge1" class="edge">
<title>Node1&#45;&gt;Node2</title>
<path fill="none" stroke="midnightblue" d="M105.04,-33.99C116.86,-35.47 129.54,-37.07 141.77,-38.61"/>
<polygon fill="midnightblue" stroke="midnightblue" points="141.55,-42.11 151.91,-39.88 142.42,-35.16 141.55,-42.11"/>
</g>
<!-- Node4 -->
<g id="node4" class="node">
<title>Node4</title>
<g id="a_node4"><a xlink:href="redis__ipc_8c.html#a5e81feac565f9476476c5f042b2a5c9d" target="_top" xlink:title=" ">
<polygon fill="white" stroke="black" points="141,-0.5 141,-18.5 270,-18.5 270,-0.5 141,-0.5"/>
<text text-anchor="middle" x="205.5" y="-7.3" font-family="Helvetica,sans-Serif" font-size="9.00">stderr_debug_is_enabled</text>
</a>
</g>
</g>
<!-- Node1&#45;&gt;Node4 -->
<g id="edge3" class="edge">
<title>Node1&#45;&gt;Node4</title>
<path fill="none" stroke="midnightblue" d="M105.04,-21.36C113.33,-20.37 122.05,-19.33 130.74,-18.29"/>
<polygon fill="midnightblue" stroke="midnightblue" points="131.39,-21.74 140.9,-17.08 130.56,-14.79 131.39,-21.74"/>
</g>
<!-- Node3 -->
<g id="node3" class="node">
<title>Node3</title>
<g id="a_node3"><a xlink:href="redis__ipc_8c.html#af0449193b7cded86e600f052d0aabd39" target="_top" xlink:title=" ">
<polygon fill="white" stroke="black" points="306,-37.5 306,-55.5 350,-55.5 350,-37.5 306,-37.5"/>
<text text-anchor="middle" x="328" y="-44.3" font-family="Helvetica,sans-Serif" font-size="9.00">gettid</text>
</a>
</g>
</g>
<!-- Node2&#45;&gt;Node3 -->
<g id="edge2" class="edge">
<title>Node2&#45;&gt;Node3</title>
<path fill="none" stroke="midnightblue" d="M259,-46.5C271.5,-46.5 284.45,-46.5 295.65,-46.5"/>
<polygon fill="midnightblue" stroke="midnightblue" points="295.78,-50 305.78,-46.5 295.78,-43 295.78,-50"/>
</g>
</g>
</svg>
