<?xml version="1.0" encoding="UTF-8" standalone="no"?>
<!DOCTYPE svg PUBLIC "-//W3C//DTD SVG 1.1//EN"
 "http://www.w3.org/Graphics/SVG/1.1/DTD/svg11.dtd">
<!-- Generated by graphviz version 2.47.1 (20210417.1919)
 -->
<!-- Title: redis_ipc_receive_command_blocking Pages: 1 -->
<svg width="985pt" height="279pt"
 viewBox="0.00 0.00 985.00 279.00" xmlns="http://www.w3.org/2000/svg" xmlns:xlink="http://www.w3.org/1999/xlink">
<g id="graph0" class="graph" transform="scale(1 1) rotate(0) translate(4 275)">
<title>redis_ipc_receive_command_blocking</title>
<polygon fill="white" stroke="transparent" points="-4,4 -4,-275 981,-275 981,4 -4,4"/>
<!-- Node1 -->
<g id="node1" class="node">
<title>Node1</title>
<g id="a_node1"><a xlink:title=" ">
<polygon fill="#bfbfbf" stroke="black" points="0,-145.5 0,-173.5 143,-173.5 143,-145.5 0,-145.5"/>
<text text-anchor="start" x="8" y="-162.3" font-family="Helvetica,sans-Serif" font-size="9.00">redis_ipc_receive_command</text>
<text text-anchor="middle" x="71.5" y="-152.3" font-family="Helvetica,sans-Serif" font-size="9.00">_blocking</text>
</a>
</g>
</g>
<!-- Node2 -->
<g id="node2" class="node">
<title>Node2</title>
<g id="a_node2"><a xlink:href="redis__ipc_8c.html#aa2a3ce97c0b6f3e83572446f3c92e541" target="_top" xlink:title=" ">
<polygon fill="white" stroke="black" points="779,-108.5 779,-126.5 886,-126.5 886,-108.5 779,-108.5"/>
<text text-anchor="middle" x="832.5" y="-115.3" font-family="Helvetica,sans-Serif" font-size="9.00">get_per_thread_info</text>
</a>
</g>
</g>
<!-- Node1&#45;&gt;Node2 -->
<g id="edge1" class="edge">
<title>Node1&#45;&gt;Node2</title>
<path fill="none" stroke="midnightblue" d="M143.19,-166.1C195.1,-170.61 267.37,-176.16 331,-178.5 380.3,-180.31 392.82,-182.33 442,-178.5 563.06,-169.08 703.39,-143.42 778.14,-128.55"/>
<polygon fill="midnightblue" stroke="midnightblue" points="779.12,-131.93 788.24,-126.53 777.75,-125.06 779.12,-131.93"/>
</g>
<!-- Node4 -->
<g id="node4" class="node">
<title>Node4</title>
<g id="a_node4"><a xlink:href="redis__ipc_8c.html#a67c9dd84d2426ab58a759dbdfd223267" target="_top" xlink:title=" ">
<polygon fill="white" stroke="black" points="358.5,-0.5 358.5,-18.5 414.5,-18.5 414.5,-0.5 358.5,-0.5"/>
<text text-anchor="middle" x="386.5" y="-7.3" font-family="Helvetica,sans-Serif" font-size="9.00">ipc_path</text>
</a>
</g>
</g>
<!-- Node1&#45;&gt;Node4 -->
<g id="edge3" class="edge">
<title>Node1&#45;&gt;Node4</title>
<path fill="none" stroke="midnightblue" d="M89.71,-145.47C110.07,-129.38 145.45,-102.97 179,-85.5 235.62,-56.02 306.31,-32.65 348.58,-19.97"/>
<polygon fill="midnightblue" stroke="midnightblue" points="349.58,-23.32 358.17,-17.12 347.59,-16.61 349.58,-23.32"/>
</g>
<!-- Node5 -->
<g id="node5" class="node">
<title>Node5</title>
<g id="a_node5"><a xlink:href="redis__ipc_8c.html#a66cdf2ae760d1acb487dd82c1392c12f" target="_top" xlink:title=" ">
<polygon fill="white" stroke="black" points="179,-94.5 179,-112.5 295,-112.5 295,-94.5 179,-94.5"/>
<text text-anchor="middle" x="237" y="-101.3" font-family="Helvetica,sans-Serif" font-size="9.00">redis_ipc_send_debug</text>
</a>
</g>
</g>
<!-- Node1&#45;&gt;Node5 -->
<g id="edge4" class="edge">
<title>Node1&#45;&gt;Node5</title>
<path fill="none" stroke="midnightblue" d="M113.76,-145.37C140.32,-136.27 174.5,-124.56 199.96,-115.84"/>
<polygon fill="midnightblue" stroke="midnightblue" points="201.28,-119.09 209.61,-112.54 199.01,-112.47 201.28,-119.09"/>
</g>
<!-- Node13 -->
<g id="node13" class="node">
<title>Node13</title>
<g id="a_node13"><a xlink:href="redis__ipc_8c.html#aad35a453c0c1dea3338257c3e6841afe" target="_top" xlink:title=" ">
<polygon fill="white" stroke="black" points="356.5,-226.5 356.5,-244.5 416.5,-244.5 416.5,-226.5 356.5,-226.5"/>
<text text-anchor="middle" x="386.5" y="-233.3" font-family="Helvetica,sans-Serif" font-size="9.00">redis_pop</text>
</a>
</g>
</g>
<!-- Node1&#45;&gt;Node13 -->
<g id="edge19" class="edge">
<title>Node1&#45;&gt;Node13</title>
<path fill="none" stroke="midnightblue" d="M95.68,-173.68C116.65,-185.8 148.79,-202.65 179,-211.5 235.68,-228.1 304.27,-233.29 346.39,-234.87"/>
<polygon fill="midnightblue" stroke="midnightblue" points="346.39,-238.37 356.5,-235.19 346.62,-231.37 346.39,-238.37"/>
</g>
<!-- Node3 -->
<g id="node3" class="node">
<title>Node3</title>
<g id="a_node3"><a xlink:href="redis__ipc_8c.html#af0449193b7cded86e600f052d0aabd39" target="_top" xlink:title=" ">
<polygon fill="white" stroke="black" points="933,-89.5 933,-107.5 977,-107.5 977,-89.5 933,-89.5"/>
<text text-anchor="middle" x="955" y="-96.3" font-family="Helvetica,sans-Serif" font-size="9.00">gettid</text>
</a>
</g>
</g>
<!-- Node2&#45;&gt;Node3 -->
<g id="edge2" class="edge">
<title>Node2&#45;&gt;Node3</title>
<path fill="none" stroke="midnightblue" d="M886,-109.22C898.5,-107.25 911.45,-105.21 922.65,-103.44"/>
<polygon fill="midnightblue" stroke="midnightblue" points="923.45,-106.86 932.78,-101.85 922.36,-99.95 923.45,-106.86"/>
</g>
<!-- Node5&#45;&gt;Node2 -->
<g id="edge7" class="edge">
<title>Node5&#45;&gt;Node2</title>
<path fill="none" stroke="midnightblue" d="M255.23,-94.34C273.45,-85.21 303.35,-71.8 331,-66.5 413.64,-50.66 655.42,-87.56 769.96,-106.78"/>
<polygon fill="midnightblue" stroke="midnightblue" points="769.54,-110.26 779.98,-108.47 770.7,-103.35 769.54,-110.26"/>
</g>
<!-- Node5&#45;&gt;Node4 -->
<g id="edge8" class="edge">
<title>Node5&#45;&gt;Node4</title>
<path fill="none" stroke="midnightblue" d="M249.99,-94.45C274.88,-75.66 329.92,-34.13 331,-33.5 337.68,-29.58 345.13,-25.9 352.31,-22.66"/>
<polygon fill="midnightblue" stroke="midnightblue" points="354.07,-25.71 361.84,-18.52 351.28,-19.29 354.07,-25.71"/>
</g>
<!-- Node6 -->
<g id="node6" class="node">
<title>Node6</title>
<g id="a_node6"><a xlink:href="redis__ipc_8c.html#a134fbfb58bceaeaad9c15dec14104a65" target="_top" xlink:title=" ">
<polygon fill="white" stroke="black" points="334.5,-150.5 334.5,-168.5 438.5,-168.5 438.5,-150.5 334.5,-150.5"/>
<text text-anchor="middle" x="386.5" y="-157.3" font-family="Helvetica,sans-Serif" font-size="9.00">format_debug_msg</text>
</a>
</g>
</g>
<!-- Node5&#45;&gt;Node6 -->
<g id="edge5" class="edge">
<title>Node5&#45;&gt;Node6</title>
<path fill="none" stroke="midnightblue" d="M258.89,-112.52C277.63,-120.49 305.96,-132.26 331,-141.5 336.2,-143.42 341.71,-145.35 347.16,-147.21"/>
<polygon fill="midnightblue" stroke="midnightblue" points="346.21,-150.58 356.8,-150.43 348.43,-143.94 346.21,-150.58"/>
</g>
<!-- Node7 -->
<g id="node7" class="node">
<title>Node7</title>
<g id="a_node7"><a xlink:href="redis__ipc_8c.html#a69fe6204f8b392036b5faa4b9392aa8a" target="_top" xlink:title=" ">
<polygon fill="white" stroke="black" points="331,-76.5 331,-94.5 442,-94.5 442,-76.5 331,-76.5"/>
<text text-anchor="middle" x="386.5" y="-83.3" font-family="Helvetica,sans-Serif" font-size="9.00">get_debug_verbosity</text>
</a>
</g>
</g>
<!-- Node5&#45;&gt;Node7 -->
<g id="edge6" class="edge">
<title>Node5&#45;&gt;Node7</title>
<path fill="none" stroke="midnightblue" d="M295.03,-96.54C303.33,-95.53 311.92,-94.48 320.37,-93.45"/>
<polygon fill="midnightblue" stroke="midnightblue" points="321.06,-96.89 330.56,-92.2 320.21,-89.94 321.06,-96.89"/>
</g>
<!-- Node8 -->
<g id="node8" class="node">
<title>Node8</title>
<g id="a_node8"><a xlink:href="redis__ipc_8c.html#ab3dc5609833c201c4e9ebaa5e2e70a2f" target="_top" xlink:title=" ">
<polygon fill="white" stroke="black" points="348.5,-113.5 348.5,-131.5 424.5,-131.5 424.5,-113.5 348.5,-113.5"/>
<text text-anchor="middle" x="386.5" y="-120.3" font-family="Helvetica,sans-Serif" font-size="9.00">redis_publish</text>
</a>
</g>
</g>
<!-- Node5&#45;&gt;Node8 -->
<g id="edge9" class="edge">
<title>Node5&#45;&gt;Node8</title>
<path fill="none" stroke="midnightblue" d="M295.03,-110.85C309.24,-112.68 324.33,-114.62 338.02,-116.38"/>
<polygon fill="midnightblue" stroke="midnightblue" points="337.82,-119.89 348.19,-117.69 338.72,-112.94 337.82,-119.89"/>
</g>
<!-- Node9 -->
<g id="node9" class="node">
<title>Node9</title>
<g id="a_node9"><a xlink:href="redis__ipc_8c.html#a1ca0a131f083c0547523e40cae96936e" target="_top" xlink:title=" ">
<polygon fill="white" stroke="black" points="603,-40.5 603,-58.5 732,-58.5 732,-40.5 603,-40.5"/>
<text text-anchor="middle" x="667.5" y="-47.3" font-family="Helvetica,sans-Serif" font-size="9.00">json_add_common_fields</text>
</a>
</g>
</g>
<!-- Node8&#45;&gt;Node9 -->
<g id="edge10" class="edge">
<title>Node8&#45;&gt;Node9</title>
<path fill="none" stroke="midnightblue" d="M421.99,-113.48C472.5,-100.26 566.6,-75.64 622.18,-61.1"/>
<polygon fill="midnightblue" stroke="midnightblue" points="623.3,-64.42 632.09,-58.5 621.53,-57.65 623.3,-64.42"/>
</g>
<!-- Node10 -->
<g id="node10" class="node">
<title>Node10</title>
<g id="a_node10"><a xlink:href="redis__ipc_8c.html#aefb4508c1883e7d4345b206076b19e5d" target="_top" xlink:title=" ">
<polygon fill="white" stroke="black" points="478,-214.5 478,-232.5 567,-232.5 567,-214.5 478,-214.5"/>
<text text-anchor="middle" x="522.5" y="-221.3" font-family="Helvetica,sans-Serif" font-size="9.00">redis_command</text>
</a>
</g>
</g>
<!-- Node8&#45;&gt;Node10 -->
<g id="edge13" class="edge">
<title>Node8&#45;&gt;Node10</title>
<path fill="none" stroke="midnightblue" d="M421.49,-131.61C428.56,-134.24 435.75,-137.51 442,-141.5 469.43,-159.01 494.37,-187.78 508.73,-206.17"/>
<polygon fill="midnightblue" stroke="midnightblue" points="506.06,-208.43 514.9,-214.27 511.63,-204.19 506.06,-208.43"/>
</g>
<!-- Node9&#45;&gt;Node2 -->
<g id="edge11" class="edge">
<title>Node9&#45;&gt;Node2</title>
<path fill="none" stroke="midnightblue" d="M695.12,-58.58C706.62,-62.75 720.13,-68 732,-73.5 748.6,-81.2 751.4,-85.8 768,-93.5 776.72,-97.54 786.32,-101.44 795.36,-104.88"/>
<polygon fill="midnightblue" stroke="midnightblue" points="794.29,-108.22 804.88,-108.42 796.73,-101.66 794.29,-108.22"/>
</g>
<!-- Node9&#45;&gt;Node3 -->
<g id="edge12" class="edge">
<title>Node9&#45;&gt;Node3</title>
<path fill="none" stroke="midnightblue" d="M721.2,-58.54C780.34,-68.69 874.34,-84.83 922.81,-93.15"/>
<polygon fill="midnightblue" stroke="midnightblue" points="922.27,-96.61 932.72,-94.85 923.46,-89.71 922.27,-96.61"/>
</g>
<!-- Node10&#45;&gt;Node2 -->
<g id="edge14" class="edge">
<title>Node10&#45;&gt;Node2</title>
<path fill="none" stroke="midnightblue" d="M558.99,-214.43C600.85,-203.39 672.28,-183.48 732,-161.5 756.68,-152.42 783.94,-140.2 803.68,-130.94"/>
<polygon fill="midnightblue" stroke="midnightblue" points="805.18,-134.11 812.72,-126.67 802.18,-127.78 805.18,-134.11"/>
</g>
<!-- Node11 -->
<g id="node11" class="node">
<title>Node11</title>
<g id="a_node11"><a xlink:href="redis__ipc_8c.html#a5e81feac565f9476476c5f042b2a5c9d" target="_top" xlink:title=" ">
<polygon fill="white" stroke="black" points="768,-252.5 768,-270.5 897,-270.5 897,-252.5 768,-252.5"/>
<text text-anchor="middle" x="832.5" y="-259.3" font-family="Helvetica,sans-Serif" font-size="9.00">stderr_debug_is_enabled</text>
</a>
</g>
</g>
<!-- Node10&#45;&gt;Node11 -->
<g id="edge15" class="edge">
<title>Node10&#45;&gt;Node11</title>
<path fill="none" stroke="midnightblue" d="M556.54,-232.58C570.74,-236.18 587.59,-240.03 603,-242.5 654.23,-250.7 712.53,-255.48 757.42,-258.19"/>
<polygon fill="midnightblue" stroke="midnightblue" points="757.47,-261.7 767.66,-258.79 757.88,-254.71 757.47,-261.7"/>
</g>
<!-- Node12 -->
<g id="node12" class="node">
<title>Node12</title>
<g id="a_node12"><a xlink:href="redis__ipc_8c.html#ae88037651d88f63c62d32afd7e0fccf2" target="_top" xlink:title=" ">
<polygon fill="white" stroke="black" points="615,-214.5 615,-232.5 720,-232.5 720,-214.5 615,-214.5"/>
<text text-anchor="middle" x="667.5" y="-221.3" font-family="Helvetica,sans-Serif" font-size="9.00">validate_redis_reply</text>
</a>
</g>
</g>
<!-- Node10&#45;&gt;Node12 -->
<g id="edge16" class="edge">
<title>Node10&#45;&gt;Node12</title>
<path fill="none" stroke="midnightblue" d="M567.18,-223.5C579.04,-223.5 592.11,-223.5 604.77,-223.5"/>
<polygon fill="midnightblue" stroke="midnightblue" points="604.79,-227 614.79,-223.5 604.79,-220 604.79,-227"/>
</g>
<!-- Node12&#45;&gt;Node2 -->
<g id="edge17" class="edge">
<title>Node12&#45;&gt;Node2</title>
<path fill="none" stroke="midnightblue" d="M698.5,-214.44C709.41,-210.56 721.6,-205.53 732,-199.5 764.22,-180.82 796.59,-151.79 815.3,-133.75"/>
<polygon fill="midnightblue" stroke="midnightblue" points="817.97,-136.03 822.67,-126.53 813.08,-131.03 817.97,-136.03"/>
</g>
<!-- Node12&#45;&gt;Node11 -->
<g id="edge18" class="edge">
<title>Node12&#45;&gt;Node11</title>
<path fill="none" stroke="midnightblue" d="M707.13,-232.51C729.78,-237.79 758.61,-244.51 782.81,-250.15"/>
<polygon fill="midnightblue" stroke="midnightblue" points="782.33,-253.63 792.87,-252.49 783.92,-246.81 782.33,-253.63"/>
</g>
<!-- Node13&#45;&gt;Node10 -->
<g id="edge20" class="edge">
<title>Node13&#45;&gt;Node10</title>
<path fill="none" stroke="midnightblue" d="M416.58,-232.9C431.57,-231.55 450.34,-229.87 467.84,-228.31"/>
<polygon fill="midnightblue" stroke="midnightblue" points="468.32,-231.78 477.96,-227.4 467.69,-224.8 468.32,-231.78"/>
</g>
<!-- Node13&#45;&gt;Node11 -->
<g id="edge21" class="edge">
<title>Node13&#45;&gt;Node11</title>
<path fill="none" stroke="midnightblue" d="M416.67,-240.33C457.99,-246.9 536.01,-258.32 603,-262.5 660.22,-266.07 674.67,-262.79 732,-262.5 740.32,-262.46 749.03,-262.4 757.69,-262.32"/>
<polygon fill="midnightblue" stroke="midnightblue" points="757.84,-265.82 767.8,-262.24 757.77,-258.82 757.84,-265.82"/>
</g>
</g>
</svg>
