<?xml version="1.0" encoding="UTF-8" standalone="no"?>
<!DOCTYPE svg PUBLIC "-//W3C//DTD SVG 1.1//EN"
 "http://www.w3.org/Graphics/SVG/1.1/DTD/svg11.dtd">
<!-- Generated by graphviz version 2.43.0 (0)
 -->
<!-- Title: redis_push Pages: 1 -->
<svg width="242pt" height="74pt"
 viewBox="0.00 0.00 242.00 74.00" xmlns="http://www.w3.org/2000/svg" xmlns:xlink="http://www.w3.org/1999/xlink">
<g id="graph0" class="graph" transform="scale(1 1) rotate(0) translate(4 70)">
<title>redis_push</title>
<polygon fill="white" stroke="transparent" points="-4,4 -4,-70 238,-70 238,4 -4,4"/>
<!-- Node1 -->
<g id="node1" class="node">
<title>Node1</title>
<g id="a_node1"><a xlink:title=" ">
<polygon fill="#bfbfbf" stroke="black" points="169,-21.5 169,-39.5 234,-39.5 234,-21.5 169,-21.5"/>
<text text-anchor="middle" x="201.5" y="-28.3" font-family="Helvetica,sans-Serif" font-size="9.00">redis_push</text>
</a>
</g>
</g>
<!-- Node2 -->
<g id="node2" class="node">
<title>Node2</title>
<g id="a_node2"><a xlink:href="redis__ipc_8h.html#a696ecebb5df3f171ed7b6adf682c83a2" target="_top" xlink:title=" ">
<polygon fill="white" stroke="black" points="0,-37.5 0,-65.5 133,-65.5 133,-37.5 0,-37.5"/>
<text text-anchor="start" x="8" y="-54.3" font-family="Helvetica,sans-Serif" font-size="9.00">redis_ipc_send_command</text>
<text text-anchor="middle" x="66.5" y="-44.3" font-family="Helvetica,sans-Serif" font-size="9.00">_blocking</text>
</a>
</g>
</g>
<!-- Node1&#45;&gt;Node2 -->
<g id="edge1" class="edge">
<title>Node1&#45;&gt;Node2</title>
<path fill="none" stroke="midnightblue" d="M158.92,-37.06C150.7,-38.36 141.87,-39.76 133.07,-41.15"/>
<polygon fill="midnightblue" stroke="midnightblue" points="159.65,-40.49 168.98,-35.48 158.56,-33.58 159.65,-40.49"/>
</g>
<!-- Node3 -->
<g id="node3" class="node">
<title>Node3</title>
<g id="a_node3"><a xlink:href="redis__ipc_8h.html#aecff1f4edcb2ebf0654d0fff21e334a5" target="_top" xlink:title=" ">
<polygon fill="white" stroke="black" points="10,-0.5 10,-18.5 123,-18.5 123,-0.5 10,-0.5"/>
<text text-anchor="middle" x="66.5" y="-7.3" font-family="Helvetica,sans-Serif" font-size="9.00">redis_ipc_send_result</text>
</a>
</g>
</g>
<!-- Node1&#45;&gt;Node3 -->
<g id="edge2" class="edge">
<title>Node1&#45;&gt;Node3</title>
<path fill="none" stroke="midnightblue" d="M158.96,-23.94C147.65,-22.16 135.22,-20.19 123.26,-18.3"/>
<polygon fill="midnightblue" stroke="midnightblue" points="158.56,-27.42 168.98,-25.52 159.65,-20.51 158.56,-27.42"/>
</g>
</g>
</svg>
