<?xml version="1.0" encoding="UTF-8" standalone="no"?>
<!DOCTYPE svg PUBLIC "-//W3C//DTD SVG 1.1//EN"
 "http://www.w3.org/Graphics/SVG/1.1/DTD/svg11.dtd">
<!-- Generated by graphviz version 2.50.0 (20220203.2022)
 -->
<!-- Title: redis_command_from_list Pages: 1 -->
<svg width="489pt" height="64pt"
 viewBox="0.00 0.00 489.00 64.00" xmlns="http://www.w3.org/2000/svg" xmlns:xlink="http://www.w3.org/1999/xlink">
<g id="graph0" class="graph" transform="scale(1 1) rotate(0) translate(4 60)">
<title>redis_command_from_list</title>
<polygon fill="white" stroke="transparent" points="-4,4 -4,-60 485,-60 485,4 -4,4"/>
<!-- Node1 -->
<g id="node1" class="node">
<title>Node1</title>
<g id="a_node1"><a xlink:title=" ">
<polygon fill="#bfbfbf" stroke="black" points="0,-19.5 0,-37.5 119,-37.5 119,-19.5 0,-19.5"/>
<text text-anchor="middle" x="59.5" y="-26.3" font-family="Helvetica,sans-Serif" font-size="9.00">redis_command_from_list</text>
</a>
</g>
</g>
<!-- Node2 -->
<g id="node2" class="node">
<title>Node2</title>
<g id="a_node2"><a xlink:href="redis__ipc_8c.html#a7b930ec420c7b4bf2df1469aca77f93d" target="_top" xlink:title=" ">
<polygon fill="white" stroke="black" points="300.5,-37.5 300.5,-55.5 395.5,-55.5 395.5,-37.5 300.5,-37.5"/>
<text text-anchor="middle" x="348" y="-44.3" font-family="Helvetica,sans-Serif" font-size="9.00">get_per_thread_info</text>
</a>
</g>
</g>
<!-- Node1&#45;&gt;Node2 -->
<g id="edge1" class="edge">
<title>Node1&#45;&gt;Node2</title>
<path fill="none" stroke="midnightblue" d="M96.59,-37.51C114.1,-41.43 135.52,-45.56 155,-47.5 200.18,-52 251.63,-51.43 289.89,-49.91"/>
<polygon fill="midnightblue" stroke="midnightblue" points="290.48,-53.38 300.32,-49.46 290.17,-46.39 290.48,-53.38"/>
</g>
<!-- Node4 -->
<g id="node4" class="node">
<title>Node4</title>
<g id="a_node4"><a xlink:href="redis__ipc_8c.html#a5e81feac565f9476476c5f042b2a5c9d" target="_top" xlink:title=" ">
<polygon fill="white" stroke="black" points="289,-0.5 289,-18.5 407,-18.5 407,-0.5 289,-0.5"/>
<text text-anchor="middle" x="348" y="-7.3" font-family="Helvetica,sans-Serif" font-size="9.00">stderr_debug_is_enabled</text>
</a>
</g>
</g>
<!-- Node1&#45;&gt;Node4 -->
<g id="edge3" class="edge">
<title>Node1&#45;&gt;Node4</title>
<path fill="none" stroke="midnightblue" d="M96.59,-19.49C114.1,-15.57 135.52,-11.44 155,-9.5 195.93,-5.43 242.01,-5.28 278.77,-6.22"/>
<polygon fill="midnightblue" stroke="midnightblue" points="278.78,-9.72 288.88,-6.51 278.98,-2.73 278.78,-9.72"/>
</g>
<!-- Node5 -->
<g id="node5" class="node">
<title>Node5</title>
<g id="a_node5"><a xlink:href="redis__ipc_8c.html#a80ea8825dd17a3cff2530680c97d184a" target="_top" xlink:title=" ">
<polygon fill="white" stroke="black" points="155,-19.5 155,-37.5 253,-37.5 253,-19.5 155,-19.5"/>
<text text-anchor="middle" x="204" y="-26.3" font-family="Helvetica,sans-Serif" font-size="9.00">validate_redis_reply</text>
</a>
</g>
</g>
<!-- Node1&#45;&gt;Node5 -->
<g id="edge4" class="edge">
<title>Node1&#45;&gt;Node5</title>
<path fill="none" stroke="midnightblue" d="M119.28,-28.5C127.68,-28.5 136.31,-28.5 144.69,-28.5"/>
<polygon fill="midnightblue" stroke="midnightblue" points="144.77,-32 154.77,-28.5 144.77,-25 144.77,-32"/>
</g>
<!-- Node3 -->
<g id="node3" class="node">
<title>Node3</title>
<g id="a_node3"><a xlink:href="redis__ipc_8c.html#af0449193b7cded86e600f052d0aabd39" target="_top" xlink:title=" ">
<polygon fill="white" stroke="black" points="443,-37.5 443,-55.5 481,-55.5 481,-37.5 443,-37.5"/>
<text text-anchor="middle" x="462" y="-44.3" font-family="Helvetica,sans-Serif" font-size="9.00">gettid</text>
</a>
</g>
</g>
<!-- Node2&#45;&gt;Node3 -->
<g id="edge2" class="edge">
<title>Node2&#45;&gt;Node3</title>
<path fill="none" stroke="midnightblue" d="M395.53,-46.5C408.19,-46.5 421.51,-46.5 432.82,-46.5"/>
<polygon fill="midnightblue" stroke="midnightblue" points="432.94,-50 442.94,-46.5 432.94,-43 432.94,-50"/>
</g>
<!-- Node5&#45;&gt;Node2 -->
<g id="edge5" class="edge">
<title>Node5&#45;&gt;Node2</title>
<path fill="none" stroke="midnightblue" d="M253.07,-34.59C265.02,-36.11 277.93,-37.74 290.25,-39.31"/>
<polygon fill="midnightblue" stroke="midnightblue" points="290.06,-42.81 300.42,-40.6 290.94,-35.87 290.06,-42.81"/>
</g>
<!-- Node5&#45;&gt;Node4 -->
<g id="edge6" class="edge">
<title>Node5&#45;&gt;Node4</title>
<path fill="none" stroke="midnightblue" d="M253.07,-22.07C261.34,-20.96 270.08,-19.79 278.76,-18.63"/>
<polygon fill="midnightblue" stroke="midnightblue" points="279.44,-22.07 288.89,-17.28 278.52,-15.13 279.44,-22.07"/>
</g>
</g>
</svg>
