<?xml version="1.0" encoding="UTF-8" standalone="no"?>
<!DOCTYPE svg PUBLIC "-//W3C//DTD SVG 1.1//EN"
 "http://www.w3.org/Graphics/SVG/1.1/DTD/svg11.dtd">
<!-- Generated by graphviz version 2.50.0 (20220203.2022)
 -->
<!-- Title: redis_ipc_init Pages: 1 -->
<svg width="232pt" height="138pt"
 viewBox="0.00 0.00 232.00 138.00" xmlns="http://www.w3.org/2000/svg" xmlns:xlink="http://www.w3.org/1999/xlink">
<g id="graph0" class="graph" transform="scale(1 1) rotate(0) translate(4 134)">
<title>redis_ipc_init</title>
<polygon fill="white" stroke="transparent" points="-4,4 -4,-134 228,-134 228,4 -4,4"/>
<!-- Node1 -->
<g id="node1" class="node">
<title>Node1</title>
<g id="a_node1"><a xlink:title=" ">
<polygon fill="#bfbfbf" stroke="black" points="0,-55.5 0,-73.5 70,-73.5 70,-55.5 0,-55.5"/>
<text text-anchor="middle" x="35" y="-62.3" font-family="Helvetica,sans-Serif" font-size="9.00">redis_ipc_init</text>
</a>
</g>
</g>
<!-- Node2 -->
<g id="node2" class="node">
<title>Node2</title>
<g id="a_node2"><a xlink:href="redis__ipc_8c.html#a04a4c0f6793b33cc37b42c4719fb539c" target="_top" xlink:title=" ">
<polygon fill="white" stroke="black" points="108,-111.5 108,-129.5 222,-129.5 222,-111.5 108,-111.5"/>
<text text-anchor="middle" x="165" y="-118.3" font-family="Helvetica,sans-Serif" font-size="9.00">cleanup_per_thread_info</text>
</a>
</g>
</g>
<!-- Node1&#45;&gt;Node2 -->
<g id="edge1" class="edge">
<title>Node1&#45;&gt;Node2</title>
<path fill="none" stroke="midnightblue" d="M50.6,-73.53C64.48,-81.84 86.12,-94.12 106,-102.5 110.8,-104.52 115.9,-106.43 121.01,-108.2"/>
<polygon fill="midnightblue" stroke="midnightblue" points="120.18,-111.62 130.78,-111.42 122.37,-104.97 120.18,-111.62"/>
</g>
<!-- Node3 -->
<g id="node3" class="node">
<title>Node3</title>
<g id="a_node3"><a xlink:href="redis__ipc_8c.html#af0449193b7cded86e600f052d0aabd39" target="_top" xlink:title=" ">
<polygon fill="white" stroke="black" points="146,-74.5 146,-92.5 184,-92.5 184,-74.5 146,-74.5"/>
<text text-anchor="middle" x="165" y="-81.3" font-family="Helvetica,sans-Serif" font-size="9.00">gettid</text>
</a>
</g>
</g>
<!-- Node1&#45;&gt;Node3 -->
<g id="edge2" class="edge">
<title>Node1&#45;&gt;Node3</title>
<path fill="none" stroke="midnightblue" d="M70.3,-69.59C90.8,-72.63 116.51,-76.45 135.81,-79.32"/>
<polygon fill="midnightblue" stroke="midnightblue" points="135.4,-82.79 145.81,-80.8 136.43,-75.87 135.4,-82.79"/>
</g>
<!-- Node4 -->
<g id="node4" class="node">
<title>Node4</title>
<g id="a_node4"><a xlink:href="redis__ipc_8c.html#a67c9dd84d2426ab58a759dbdfd223267" target="_top" xlink:title=" ">
<polygon fill="white" stroke="black" points="139.5,-37.5 139.5,-55.5 190.5,-55.5 190.5,-37.5 139.5,-37.5"/>
<text text-anchor="middle" x="165" y="-44.3" font-family="Helvetica,sans-Serif" font-size="9.00">ipc_path</text>
</a>
</g>
</g>
<!-- Node1&#45;&gt;Node4 -->
<g id="edge3" class="edge">
<title>Node1&#45;&gt;Node4</title>
<path fill="none" stroke="midnightblue" d="M70.3,-59.68C88.59,-57.11 111.03,-53.95 129.36,-51.37"/>
<polygon fill="midnightblue" stroke="midnightblue" points="129.93,-54.83 139.35,-49.97 128.96,-47.89 129.93,-54.83"/>
</g>
<!-- Node5 -->
<g id="node5" class="node">
<title>Node5</title>
<g id="a_node5"><a xlink:href="redis__ipc_8c.html#a5e81feac565f9476476c5f042b2a5c9d" target="_top" xlink:title=" ">
<polygon fill="white" stroke="black" points="106,-0.5 106,-18.5 224,-18.5 224,-0.5 106,-0.5"/>
<text text-anchor="middle" x="165" y="-7.3" font-family="Helvetica,sans-Serif" font-size="9.00">stderr_debug_is_enabled</text>
</a>
</g>
</g>
<!-- Node1&#45;&gt;Node5 -->
<g id="edge4" class="edge">
<title>Node1&#45;&gt;Node5</title>
<path fill="none" stroke="midnightblue" d="M51.78,-55.47C65.75,-47.7 86.83,-36.51 106,-28.5 111.57,-26.17 117.54,-23.94 123.45,-21.87"/>
<polygon fill="midnightblue" stroke="midnightblue" points="124.91,-25.07 133.26,-18.57 122.67,-18.44 124.91,-25.07"/>
</g>
</g>
</svg>
