<?xml version="1.0" encoding="UTF-8" standalone="no"?>
<!DOCTYPE svg PUBLIC "-//W3C//DTD SVG 1.1//EN"
 "http://www.w3.org/Graphics/SVG/1.1/DTD/svg11.dtd">
<!-- Generated by graphviz version 2.50.0 (20220203.2022)
 -->
<!-- Title: ipc_path Pages: 1 -->
<svg width="370pt" height="703pt"
 viewBox="0.00 0.00 370.00 703.00" xmlns="http://www.w3.org/2000/svg" xmlns:xlink="http://www.w3.org/1999/xlink">
<g id="graph0" class="graph" transform="scale(1 1) rotate(0) translate(4 699)">
<title>ipc_path</title>
<polygon fill="white" stroke="transparent" points="-4,4 -4,-699 366,-699 366,4 -4,4"/>
<!-- Node1 -->
<g id="node1" class="node">
<title>Node1</title>
<g id="a_node1"><a xlink:title=" ">
<polygon fill="#bfbfbf" stroke="black" points="311,-356.5 311,-374.5 362,-374.5 362,-356.5 311,-356.5"/>
<text text-anchor="middle" x="336.5" y="-363.3" font-family="Helvetica,sans-Serif" font-size="9.00">ipc_path</text>
</a>
</g>
</g>
<!-- Node2 -->
<g id="node2" class="node">
<title>Node2</title>
<g id="a_node2"><a xlink:href="redis__ipc_8c.html#ad761c2631d54b43ea0a5426813bc4dd1" target="_top" xlink:title=" ">
<polygon fill="white" stroke="black" points="186,-676.5 186,-694.5 256,-694.5 256,-676.5 186,-676.5"/>
<text text-anchor="middle" x="221" y="-683.3" font-family="Helvetica,sans-Serif" font-size="9.00">redis_ipc_init</text>
</a>
</g>
</g>
<!-- Node1&#45;&gt;Node2 -->
<g id="edge1" class="edge">
<title>Node1&#45;&gt;Node2</title>
<path fill="none" stroke="midnightblue" d="M334.09,-385.13C329.4,-445.17 312.46,-624.84 275,-667.5 270.06,-673.12 263.3,-676.99 256.26,-679.65"/>
<polygon fill="midnightblue" stroke="midnightblue" points="337.61,-385.03 334.87,-374.79 330.63,-384.5 337.61,-385.03"/>
</g>
<!-- Node3 -->
<g id="node3" class="node">
<title>Node3</title>
<g id="a_node3"><a xlink:href="redis__ipc_8c.html#a9da7fba1b0bb29372229c5c3a0fcb432" target="_top" xlink:title=" ">
<polygon fill="white" stroke="black" points="167.5,-639.5 167.5,-657.5 274.5,-657.5 274.5,-639.5 167.5,-639.5"/>
<text text-anchor="middle" x="221" y="-646.3" font-family="Helvetica,sans-Serif" font-size="9.00">redis_ipc_read_setting</text>
</a>
</g>
</g>
<!-- Node1&#45;&gt;Node3 -->
<g id="edge2" class="edge">
<title>Node1&#45;&gt;Node3</title>
<path fill="none" stroke="midnightblue" d="M333.52,-384.85C327.56,-439.56 308.12,-593.78 275,-630.5 271.68,-634.18 267.58,-637.11 263.14,-639.44"/>
<polygon fill="midnightblue" stroke="midnightblue" points="337.02,-385.08 334.59,-374.76 330.06,-384.34 337.02,-385.08"/>
</g>
<!-- Node4 -->
<g id="node4" class="node">
<title>Node4</title>
<g id="a_node4"><a xlink:href="redis__ipc_8c.html#a4d32bc83ac8b8c46384c6c69a3a4e4a3" target="_top" xlink:title=" ">
<polygon fill="white" stroke="black" points="167.5,-592.5 167.5,-620.5 274.5,-620.5 274.5,-592.5 167.5,-592.5"/>
<text text-anchor="start" x="175.5" y="-609.3" font-family="Helvetica,sans-Serif" font-size="9.00">redis_ipc_read_setting</text>
<text text-anchor="middle" x="221" y="-599.3" font-family="Helvetica,sans-Serif" font-size="9.00">_field</text>
</a>
</g>
</g>
<!-- Node1&#45;&gt;Node4 -->
<g id="edge3" class="edge">
<title>Node1&#45;&gt;Node4</title>
<path fill="none" stroke="midnightblue" d="M335.46,-384.74C334.35,-426.16 326.14,-524.73 275,-583.5 271.97,-586.98 268.32,-589.95 264.37,-592.49"/>
<polygon fill="midnightblue" stroke="midnightblue" points="338.96,-384.71 335.61,-374.66 331.96,-384.61 338.96,-384.71"/>
</g>
<!-- Node5 -->
<g id="node5" class="node">
<title>Node5</title>
<g id="a_node5"><a xlink:href="redis__ipc_8c.html#af379c19188b781eb8837ff97de173c41" target="_top" xlink:title=" ">
<polygon fill="white" stroke="black" points="168.5,-555.5 168.5,-573.5 273.5,-573.5 273.5,-555.5 168.5,-555.5"/>
<text text-anchor="middle" x="221" y="-562.3" font-family="Helvetica,sans-Serif" font-size="9.00">redis_ipc_read_status</text>
</a>
</g>
</g>
<!-- Node1&#45;&gt;Node5 -->
<g id="edge4" class="edge">
<title>Node1&#45;&gt;Node5</title>
<path fill="none" stroke="midnightblue" d="M334.47,-385.21C331.49,-421.98 319.92,-501.36 275,-546.5 271.37,-550.15 266.97,-553.06 262.27,-555.38"/>
<polygon fill="midnightblue" stroke="midnightblue" points="337.99,-385.08 335.17,-374.87 331,-384.61 337.99,-385.08"/>
</g>
<!-- Node6 -->
<g id="node6" class="node">
<title>Node6</title>
<g id="a_node6"><a xlink:href="redis__ipc_8c.html#ac0d91847e135883a9dc48b57bdf463d7" target="_top" xlink:title=" ">
<polygon fill="white" stroke="black" points="168.5,-508.5 168.5,-536.5 273.5,-536.5 273.5,-508.5 168.5,-508.5"/>
<text text-anchor="start" x="176.5" y="-525.3" font-family="Helvetica,sans-Serif" font-size="9.00">redis_ipc_read_status</text>
<text text-anchor="middle" x="221" y="-515.3" font-family="Helvetica,sans-Serif" font-size="9.00">_field</text>
</a>
</g>
</g>
<!-- Node1&#45;&gt;Node6 -->
<g id="edge5" class="edge">
<title>Node1&#45;&gt;Node6</title>
<path fill="none" stroke="midnightblue" d="M330.6,-384.45C322.79,-411.49 305.23,-461.43 275,-493.5 269.46,-499.38 262.46,-504.34 255.37,-508.41"/>
<polygon fill="midnightblue" stroke="midnightblue" points="334.01,-385.25 333.28,-374.68 327.26,-383.4 334.01,-385.25"/>
</g>
<!-- Node7 -->
<g id="node7" class="node">
<title>Node7</title>
<g id="a_node7"><a xlink:href="redis__ipc_8c.html#a69a016ee903b3d8873ada802806e615d" target="_top" xlink:title=" ">
<polygon fill="white" stroke="black" points="0,-469.5 0,-497.5 131,-497.5 131,-469.5 0,-469.5"/>
<text text-anchor="start" x="8" y="-486.3" font-family="Helvetica,sans-Serif" font-size="9.00">redis_ipc_receive_command</text>
<text text-anchor="middle" x="65.5" y="-476.3" font-family="Helvetica,sans-Serif" font-size="9.00">_blocking</text>
</a>
</g>
</g>
<!-- Node1&#45;&gt;Node7 -->
<g id="edge6" class="edge">
<title>Node1&#45;&gt;Node7</title>
<path fill="none" stroke="midnightblue" d="M329.18,-384.45C320.67,-406.74 303.25,-442.92 275,-460.5 232.33,-487.06 175.08,-491.67 131.36,-490.27"/>
<polygon fill="midnightblue" stroke="midnightblue" points="332.57,-385.36 332.65,-374.77 325.98,-383 332.57,-385.36"/>
</g>
<!-- Node8 -->
<g id="node8" class="node">
<title>Node8</title>
<g id="a_node8"><a xlink:href="redis__ipc_8c.html#afef4b2a08b3597ca1f62b7ead9490ef4" target="_top" xlink:title=" ">
<polygon fill="white" stroke="black" points="4.5,-385.5 4.5,-413.5 126.5,-413.5 126.5,-385.5 4.5,-385.5"/>
<text text-anchor="start" x="12.5" y="-402.3" font-family="Helvetica,sans-Serif" font-size="9.00">redis_ipc_send_command</text>
<text text-anchor="middle" x="65.5" y="-392.3" font-family="Helvetica,sans-Serif" font-size="9.00">_blocking</text>
</a>
</g>
</g>
<!-- Node1&#45;&gt;Node8 -->
<g id="edge7" class="edge">
<title>Node1&#45;&gt;Node8</title>
<path fill="none" stroke="midnightblue" d="M301.19,-377.08C292.71,-379.56 283.6,-381.91 275,-383.5 225.56,-392.64 168.59,-396.58 126.7,-398.26"/>
<polygon fill="midnightblue" stroke="midnightblue" points="302.23,-380.43 310.77,-374.15 300.18,-373.73 302.23,-380.43"/>
</g>
<!-- Node9 -->
<g id="node9" class="node">
<title>Node9</title>
<g id="a_node9"><a xlink:href="redis__ipc_8c.html#a66cdf2ae760d1acb487dd82c1392c12f" target="_top" xlink:title=" ">
<polygon fill="white" stroke="black" points="167.5,-432.5 167.5,-450.5 274.5,-450.5 274.5,-432.5 167.5,-432.5"/>
<text text-anchor="middle" x="221" y="-439.3" font-family="Helvetica,sans-Serif" font-size="9.00">redis_ipc_send_debug</text>
</a>
</g>
</g>
<!-- Node1&#45;&gt;Node9 -->
<g id="edge8" class="edge">
<title>Node1&#45;&gt;Node9</title>
<path fill="none" stroke="midnightblue" d="M319.09,-381.88C307.47,-392.89 291.13,-407.22 275,-417.5 265.89,-423.31 255.13,-428.46 245.7,-432.48"/>
<polygon fill="midnightblue" stroke="midnightblue" points="321.58,-384.35 326.33,-374.88 316.71,-379.32 321.58,-384.35"/>
</g>
<!-- Node11 -->
<g id="node11" class="node">
<title>Node11</title>
<g id="a_node11"><a xlink:href="redis__ipc_8c.html#a9040f6af2f364ef8da41175eb6073693" target="_top" xlink:title=" ">
<polygon fill="white" stroke="black" points="169.5,-356.5 169.5,-374.5 272.5,-374.5 272.5,-356.5 169.5,-356.5"/>
<text text-anchor="middle" x="221" y="-363.3" font-family="Helvetica,sans-Serif" font-size="9.00">redis_ipc_send_event</text>
</a>
</g>
</g>
<!-- Node1&#45;&gt;Node11 -->
<g id="edge12" class="edge">
<title>Node1&#45;&gt;Node11</title>
<path fill="none" stroke="midnightblue" d="M300.59,-365.5C291.77,-365.5 282.12,-365.5 272.69,-365.5"/>
<polygon fill="midnightblue" stroke="midnightblue" points="300.87,-369 310.87,-365.5 300.87,-362 300.87,-369"/>
</g>
<!-- Node12 -->
<g id="node12" class="node">
<title>Node12</title>
<g id="a_node12"><a xlink:href="redis__ipc_8c.html#ac22692af167c24369831321eb5a1aa20" target="_top" xlink:title=" ">
<polygon fill="white" stroke="black" points="172.5,-309.5 172.5,-337.5 269.5,-337.5 269.5,-309.5 172.5,-309.5"/>
<text text-anchor="start" x="180.5" y="-326.3" font-family="Helvetica,sans-Serif" font-size="9.00">redis_ipc_subscribe</text>
<text text-anchor="middle" x="221" y="-316.3" font-family="Helvetica,sans-Serif" font-size="9.00">_debug</text>
</a>
</g>
</g>
<!-- Node1&#45;&gt;Node12 -->
<g id="edge13" class="edge">
<title>Node1&#45;&gt;Node12</title>
<path fill="none" stroke="midnightblue" d="M301.61,-352.96C288.56,-348.13 273.58,-342.59 260.15,-337.62"/>
<polygon fill="midnightblue" stroke="midnightblue" points="300.56,-356.3 311.15,-356.49 302.99,-349.74 300.56,-356.3"/>
</g>
<!-- Node13 -->
<g id="node13" class="node">
<title>Node13</title>
<g id="a_node13"><a xlink:href="redis__ipc_8c.html#a26390ed4efc19636cc62fc3adf9e3278" target="_top" xlink:title=" ">
<polygon fill="white" stroke="black" points="172.5,-262.5 172.5,-290.5 269.5,-290.5 269.5,-262.5 172.5,-262.5"/>
<text text-anchor="start" x="180.5" y="-279.3" font-family="Helvetica,sans-Serif" font-size="9.00">redis_ipc_subscribe</text>
<text text-anchor="middle" x="221" y="-269.3" font-family="Helvetica,sans-Serif" font-size="9.00">_events</text>
</a>
</g>
</g>
<!-- Node1&#45;&gt;Node13 -->
<g id="edge14" class="edge">
<title>Node1&#45;&gt;Node13</title>
<path fill="none" stroke="midnightblue" d="M322.9,-348.09C311.66,-333.56 294.08,-313.1 275,-299.5 270.34,-296.18 265.13,-293.2 259.85,-290.57"/>
<polygon fill="midnightblue" stroke="midnightblue" points="320.23,-350.36 329.03,-356.26 325.83,-346.16 320.23,-350.36"/>
</g>
<!-- Node14 -->
<g id="node14" class="node">
<title>Node14</title>
<g id="a_node14"><a xlink:href="redis__ipc_8c.html#a55074bea4936100d8785f7ec9b5e83c9" target="_top" xlink:title=" ">
<polygon fill="white" stroke="black" points="168,-215.5 168,-243.5 274,-243.5 274,-215.5 168,-215.5"/>
<text text-anchor="start" x="176" y="-232.3" font-family="Helvetica,sans-Serif" font-size="9.00">redis_ipc_unsubscribe</text>
<text text-anchor="middle" x="221" y="-222.3" font-family="Helvetica,sans-Serif" font-size="9.00">_debug</text>
</a>
</g>
</g>
<!-- Node1&#45;&gt;Node14 -->
<g id="edge15" class="edge">
<title>Node1&#45;&gt;Node14</title>
<path fill="none" stroke="midnightblue" d="M329.78,-346.68C321.42,-322.04 303.66,-278.9 275,-252.5 271.31,-249.1 267.04,-246.15 262.56,-243.61"/>
<polygon fill="midnightblue" stroke="midnightblue" points="326.48,-347.85 332.88,-356.29 333.14,-345.7 326.48,-347.85"/>
</g>
<!-- Node15 -->
<g id="node15" class="node">
<title>Node15</title>
<g id="a_node15"><a xlink:href="redis__ipc_8c.html#a88193bfef2bb1f36fa783c616d430c15" target="_top" xlink:title=" ">
<polygon fill="white" stroke="black" points="168,-168.5 168,-196.5 274,-196.5 274,-168.5 168,-168.5"/>
<text text-anchor="start" x="176" y="-185.3" font-family="Helvetica,sans-Serif" font-size="9.00">redis_ipc_unsubscribe</text>
<text text-anchor="middle" x="221" y="-175.3" font-family="Helvetica,sans-Serif" font-size="9.00">_events</text>
</a>
</g>
</g>
<!-- Node1&#45;&gt;Node15 -->
<g id="edge16" class="edge">
<title>Node1&#45;&gt;Node15</title>
<path fill="none" stroke="midnightblue" d="M333.1,-346.11C328.07,-313.15 313.49,-245.88 275,-205.5 271.75,-202.09 267.9,-199.15 263.79,-196.64"/>
<polygon fill="midnightblue" stroke="midnightblue" points="329.67,-346.81 334.51,-356.23 336.6,-345.84 329.67,-346.81"/>
</g>
<!-- Node16 -->
<g id="node16" class="node">
<title>Node16</title>
<g id="a_node16"><a xlink:href="redis__ipc_8c.html#a11db23f8f055e2d63fd8308c3d382da4" target="_top" xlink:title=" ">
<polygon fill="white" stroke="black" points="167,-131.5 167,-149.5 275,-149.5 275,-131.5 167,-131.5"/>
<text text-anchor="middle" x="221" y="-138.3" font-family="Helvetica,sans-Serif" font-size="9.00">redis_ipc_write_setting</text>
</a>
</g>
</g>
<!-- Node1&#45;&gt;Node16 -->
<g id="edge17" class="edge">
<title>Node1&#45;&gt;Node16</title>
<path fill="none" stroke="midnightblue" d="M335.47,-346.08C334.35,-305.65 326.02,-211.77 275,-158.5 271.5,-154.85 267.24,-151.94 262.67,-149.62"/>
<polygon fill="midnightblue" stroke="midnightblue" points="331.97,-346.25 335.63,-356.2 338.97,-346.14 331.97,-346.25"/>
</g>
<!-- Node17 -->
<g id="node17" class="node">
<title>Node17</title>
<g id="a_node17"><a xlink:href="redis__ipc_8c.html#aef76ea4158d5075f2c2c0041ec62d1d5" target="_top" xlink:title=" ">
<polygon fill="white" stroke="black" points="167,-84.5 167,-112.5 275,-112.5 275,-84.5 167,-84.5"/>
<text text-anchor="start" x="175" y="-101.3" font-family="Helvetica,sans-Serif" font-size="9.00">redis_ipc_write_setting</text>
<text text-anchor="middle" x="221" y="-91.3" font-family="Helvetica,sans-Serif" font-size="9.00">_field</text>
</a>
</g>
</g>
<!-- Node1&#45;&gt;Node17 -->
<g id="edge18" class="edge">
<title>Node1&#45;&gt;Node17</title>
<path fill="none" stroke="midnightblue" d="M336.16,-346.14C336.67,-301.21 331.79,-188.62 275,-121.5 272.08,-118.05 268.56,-115.11 264.72,-112.6"/>
<polygon fill="midnightblue" stroke="midnightblue" points="332.66,-346.18 335.94,-356.26 339.66,-346.33 332.66,-346.18"/>
</g>
<!-- Node18 -->
<g id="node18" class="node">
<title>Node18</title>
<g id="a_node18"><a xlink:href="redis__ipc_8c.html#ab7d4be95434367c1b7dd526ebbab77a1" target="_top" xlink:title=" ">
<polygon fill="white" stroke="black" points="168,-47.5 168,-65.5 274,-65.5 274,-47.5 168,-47.5"/>
<text text-anchor="middle" x="221" y="-54.3" font-family="Helvetica,sans-Serif" font-size="9.00">redis_ipc_write_status</text>
</a>
</g>
</g>
<!-- Node1&#45;&gt;Node18 -->
<g id="edge19" class="edge">
<title>Node1&#45;&gt;Node18</title>
<path fill="none" stroke="midnightblue" d="M333.96,-346.19C328.93,-287.95 311.22,-115.45 275,-74.5 271.72,-70.79 267.64,-67.84 263.21,-65.5"/>
<polygon fill="midnightblue" stroke="midnightblue" points="330.47,-346.57 334.79,-356.25 337.45,-345.99 330.47,-346.57"/>
</g>
<!-- Node19 -->
<g id="node19" class="node">
<title>Node19</title>
<g id="a_node19"><a xlink:href="redis__ipc_8c.html#a1ccd53107db1e7be09bb4e958975720e" target="_top" xlink:title=" ">
<polygon fill="white" stroke="black" points="168,-0.5 168,-28.5 274,-28.5 274,-0.5 168,-0.5"/>
<text text-anchor="start" x="176" y="-17.3" font-family="Helvetica,sans-Serif" font-size="9.00">redis_ipc_write_status</text>
<text text-anchor="middle" x="221" y="-7.3" font-family="Helvetica,sans-Serif" font-size="9.00">_field</text>
</a>
</g>
</g>
<!-- Node1&#45;&gt;Node19 -->
<g id="edge20" class="edge">
<title>Node1&#45;&gt;Node19</title>
<path fill="none" stroke="midnightblue" d="M334.3,-346.39C330.03,-283.79 313.68,-86.14 275,-37.5 272.25,-34.05 268.88,-31.1 265.19,-28.59"/>
<polygon fill="midnightblue" stroke="midnightblue" points="330.81,-346.69 334.96,-356.44 337.8,-346.23 330.81,-346.69"/>
</g>
<!-- Node9&#45;&gt;Node7 -->
<g id="edge9" class="edge">
<title>Node9&#45;&gt;Node7</title>
<path fill="none" stroke="midnightblue" d="M177.21,-453.21C158.78,-458.25 137.08,-464.19 117.8,-469.46"/>
<polygon fill="midnightblue" stroke="midnightblue" points="178.35,-456.53 187.07,-450.51 176.5,-449.77 178.35,-456.53"/>
</g>
<!-- Node9&#45;&gt;Node8 -->
<g id="edge10" class="edge">
<title>Node9&#45;&gt;Node8</title>
<path fill="none" stroke="midnightblue" d="M177.21,-429.79C158.78,-424.75 137.08,-418.81 117.8,-413.54"/>
<polygon fill="midnightblue" stroke="midnightblue" points="176.5,-433.23 187.07,-432.49 178.35,-426.47 176.5,-433.23"/>
</g>
<!-- Node10 -->
<g id="node10" class="node">
<title>Node10</title>
<g id="a_node10"><a xlink:href="redis__ipc_8c.html#aecff1f4edcb2ebf0654d0fff21e334a5" target="_top" xlink:title=" ">
<polygon fill="white" stroke="black" points="13.5,-432.5 13.5,-450.5 117.5,-450.5 117.5,-432.5 13.5,-432.5"/>
<text text-anchor="middle" x="65.5" y="-439.3" font-family="Helvetica,sans-Serif" font-size="9.00">redis_ipc_send_result</text>
</a>
</g>
</g>
<!-- Node9&#45;&gt;Node10 -->
<g id="edge11" class="edge">
<title>Node9&#45;&gt;Node10</title>
<path fill="none" stroke="midnightblue" d="M156.84,-441.5C143.78,-441.5 130.18,-441.5 117.61,-441.5"/>
<polygon fill="midnightblue" stroke="midnightblue" points="157.17,-445 167.17,-441.5 157.17,-438 157.17,-445"/>
</g>
</g>
</svg>
