<?xml version="1.0" encoding="UTF-8" standalone="no"?>
<!DOCTYPE svg PUBLIC "-//W3C//DTD SVG 1.1//EN"
 "http://www.w3.org/Graphics/SVG/1.1/DTD/svg11.dtd">
<!-- Generated by graphviz version 2.50.0 (20220203.2022)
 -->
<!-- Title: redis_ipc_send_result Pages: 1 -->
<svg width="888pt" height="301pt"
 viewBox="0.00 0.00 888.00 300.50" xmlns="http://www.w3.org/2000/svg" xmlns:xlink="http://www.w3.org/1999/xlink">
<g id="graph0" class="graph" transform="scale(1 1) rotate(0) translate(4 296.5)">
<title>redis_ipc_send_result</title>
<polygon fill="white" stroke="transparent" points="-4,4 -4,-296.5 884,-296.5 884,4 -4,4"/>
<!-- Node1 -->
<g id="node1" class="node">
<title>Node1</title>
<g id="a_node1"><a xlink:title=" ">
<polygon fill="#bfbfbf" stroke="black" points="0,-103 0,-121 104,-121 104,-103 0,-103"/>
<text text-anchor="middle" x="52" y="-109.8" font-family="Helvetica,sans-Serif" font-size="9.00">redis_ipc_send_result</text>
</a>
</g>
</g>
<!-- Node2 -->
<g id="node2" class="node">
<title>Node2</title>
<g id="a_node2"><a xlink:href="redis__ipc_8c.html#a7b930ec420c7b4bf2df1469aca77f93d" target="_top" xlink:title=" ">
<polygon fill="white" stroke="black" points="699.5,-160 699.5,-178 794.5,-178 794.5,-160 699.5,-160"/>
<text text-anchor="middle" x="747" y="-166.8" font-family="Helvetica,sans-Serif" font-size="9.00">get_per_thread_info</text>
</a>
</g>
</g>
<!-- Node1&#45;&gt;Node2 -->
<g id="edge1" class="edge">
<title>Node1&#45;&gt;Node2</title>
<path fill="none" stroke="midnightblue" d="M65.6,-102.83C103.65,-76.09 221.54,0 331.5,0 331.5,0 331.5,0 459,0 578.26,0 691.64,-109.7 731.21,-152.33"/>
<polygon fill="midnightblue" stroke="midnightblue" points="728.79,-154.88 738.12,-159.91 733.97,-150.17 728.79,-154.88"/>
</g>
<!-- Node4 -->
<g id="node4" class="node">
<title>Node4</title>
<g id="a_node4"><a xlink:href="redis__ipc_8c.html#a66cdf2ae760d1acb487dd82c1392c12f" target="_top" xlink:title=" ">
<polygon fill="white" stroke="black" points="140,-103 140,-121 247,-121 247,-103 140,-103"/>
<text text-anchor="middle" x="193.5" y="-109.8" font-family="Helvetica,sans-Serif" font-size="9.00">redis_ipc_send_debug</text>
</a>
</g>
</g>
<!-- Node1&#45;&gt;Node4 -->
<g id="edge3" class="edge">
<title>Node1&#45;&gt;Node4</title>
<path fill="none" stroke="midnightblue" d="M104.15,-112C112.54,-112 121.31,-112 129.93,-112"/>
<polygon fill="midnightblue" stroke="midnightblue" points="129.95,-115.5 139.95,-112 129.95,-108.5 129.95,-115.5"/>
</g>
<!-- Node13 -->
<g id="node13" class="node">
<title>Node13</title>
<g id="a_node13"><a xlink:href="redis__ipc_8c.html#ae826a119ee7ca11d9636c6f34b9a29e9" target="_top" xlink:title=" ">
<polygon fill="white" stroke="black" points="302.5,-217 302.5,-235 362.5,-235 362.5,-217 302.5,-217"/>
<text text-anchor="middle" x="332.5" y="-223.8" font-family="Helvetica,sans-Serif" font-size="9.00">redis_push</text>
</a>
</g>
</g>
<!-- Node1&#45;&gt;Node13 -->
<g id="edge18" class="edge">
<title>Node1&#45;&gt;Node13</title>
<path fill="none" stroke="midnightblue" d="M74.51,-121.04C115.15,-138.08 206.05,-176.04 283,-207 287.91,-208.97 293.11,-211.04 298.2,-213.05"/>
<polygon fill="midnightblue" stroke="midnightblue" points="297.2,-216.41 307.78,-216.81 299.75,-209.9 297.2,-216.41"/>
</g>
<!-- Node3 -->
<g id="node3" class="node">
<title>Node3</title>
<g id="a_node3"><a xlink:href="redis__ipc_8c.html#af0449193b7cded86e600f052d0aabd39" target="_top" xlink:title=" ">
<polygon fill="white" stroke="black" points="842,-179 842,-197 880,-197 880,-179 842,-179"/>
<text text-anchor="middle" x="861" y="-185.8" font-family="Helvetica,sans-Serif" font-size="9.00">gettid</text>
</a>
</g>
</g>
<!-- Node2&#45;&gt;Node3 -->
<g id="edge2" class="edge">
<title>Node2&#45;&gt;Node3</title>
<path fill="none" stroke="midnightblue" d="M794.53,-176.89C807.19,-179.04 820.51,-181.3 831.82,-183.22"/>
<polygon fill="midnightblue" stroke="midnightblue" points="831.5,-186.71 841.94,-184.94 832.67,-179.81 831.5,-186.71"/>
</g>
<!-- Node4&#45;&gt;Node2 -->
<g id="edge6" class="edge">
<title>Node4&#45;&gt;Node2</title>
<path fill="none" stroke="midnightblue" d="M233.98,-121.06C249.23,-124.28 266.86,-127.69 283,-130 428.6,-150.87 601.67,-161.79 689.22,-166.35"/>
<polygon fill="midnightblue" stroke="midnightblue" points="689.3,-169.86 699.47,-166.88 689.66,-162.87 689.3,-169.86"/>
</g>
<!-- Node5 -->
<g id="node5" class="node">
<title>Node5</title>
<g id="a_node5"><a xlink:href="redis__ipc_8c.html#a134fbfb58bceaeaad9c15dec14104a65" target="_top" xlink:title=" ">
<polygon fill="white" stroke="black" points="285.5,-103 285.5,-121 379.5,-121 379.5,-103 285.5,-103"/>
<text text-anchor="middle" x="332.5" y="-109.8" font-family="Helvetica,sans-Serif" font-size="9.00">format_debug_msg</text>
</a>
</g>
</g>
<!-- Node4&#45;&gt;Node5 -->
<g id="edge4" class="edge">
<title>Node4&#45;&gt;Node5</title>
<path fill="none" stroke="midnightblue" d="M247.08,-112C256.18,-112 265.67,-112 274.88,-112"/>
<polygon fill="midnightblue" stroke="midnightblue" points="275.11,-115.5 285.11,-112 275.11,-108.5 275.11,-115.5"/>
</g>
<!-- Node6 -->
<g id="node6" class="node">
<title>Node6</title>
<g id="a_node6"><a xlink:href="redis__ipc_8c.html#a69fe6204f8b392036b5faa4b9392aa8a" target="_top" xlink:title=" ">
<polygon fill="white" stroke="black" points="283,-66 283,-84 382,-84 382,-66 283,-66"/>
<text text-anchor="middle" x="332.5" y="-72.8" font-family="Helvetica,sans-Serif" font-size="9.00">get_debug_verbosity</text>
</a>
</g>
</g>
<!-- Node4&#45;&gt;Node6 -->
<g id="edge5" class="edge">
<title>Node4&#45;&gt;Node6</title>
<path fill="none" stroke="midnightblue" d="M228.01,-102.95C246.09,-98.07 268.62,-91.98 288.03,-86.74"/>
<polygon fill="midnightblue" stroke="midnightblue" points="289.12,-90.07 297.86,-84.09 287.29,-83.31 289.12,-90.07"/>
</g>
<!-- Node7 -->
<g id="node7" class="node">
<title>Node7</title>
<g id="a_node7"><a xlink:href="redis__ipc_8c.html#a67c9dd84d2426ab58a759dbdfd223267" target="_top" xlink:title=" ">
<polygon fill="white" stroke="black" points="307,-29 307,-47 358,-47 358,-29 307,-29"/>
<text text-anchor="middle" x="332.5" y="-35.8" font-family="Helvetica,sans-Serif" font-size="9.00">ipc_path</text>
</a>
</g>
</g>
<!-- Node4&#45;&gt;Node7 -->
<g id="edge7" class="edge">
<title>Node4&#45;&gt;Node7</title>
<path fill="none" stroke="midnightblue" d="M206.91,-102.97C223.6,-91.1 254.49,-70.12 283,-56 287.61,-53.72 292.59,-51.55 297.53,-49.57"/>
<polygon fill="midnightblue" stroke="midnightblue" points="298.81,-52.83 306.9,-46 296.31,-46.29 298.81,-52.83"/>
</g>
<!-- Node8 -->
<g id="node8" class="node">
<title>Node8</title>
<g id="a_node8"><a xlink:href="redis__ipc_8c.html#ab3dc5609833c201c4e9ebaa5e2e70a2f" target="_top" xlink:title=" ">
<polygon fill="white" stroke="black" points="297.5,-179 297.5,-197 367.5,-197 367.5,-179 297.5,-179"/>
<text text-anchor="middle" x="332.5" y="-185.8" font-family="Helvetica,sans-Serif" font-size="9.00">redis_publish</text>
</a>
</g>
</g>
<!-- Node4&#45;&gt;Node8 -->
<g id="edge8" class="edge">
<title>Node4&#45;&gt;Node8</title>
<path fill="none" stroke="midnightblue" d="M209.35,-121.16C226.78,-131.82 256.66,-149.77 283,-164 289.44,-167.48 296.46,-171.07 303.1,-174.37"/>
<polygon fill="midnightblue" stroke="midnightblue" points="301.93,-177.7 312.45,-178.97 305.02,-171.41 301.93,-177.7"/>
</g>
<!-- Node9 -->
<g id="node9" class="node">
<title>Node9</title>
<g id="a_node9"><a xlink:href="redis__ipc_8c.html#a1ca0a131f083c0547523e40cae96936e" target="_top" xlink:title=" ">
<polygon fill="white" stroke="black" points="534,-179 534,-197 652,-197 652,-179 534,-179"/>
<text text-anchor="middle" x="593" y="-185.8" font-family="Helvetica,sans-Serif" font-size="9.00">json_add_common_fields</text>
</a>
</g>
</g>
<!-- Node8&#45;&gt;Node9 -->
<g id="edge9" class="edge">
<title>Node8&#45;&gt;Node9</title>
<path fill="none" stroke="midnightblue" d="M367.56,-188C407.06,-188 473.19,-188 523.46,-188"/>
<polygon fill="midnightblue" stroke="midnightblue" points="523.61,-191.5 533.61,-188 523.61,-184.5 523.61,-191.5"/>
</g>
<!-- Node10 -->
<g id="node10" class="node">
<title>Node10</title>
<g id="a_node10"><a xlink:href="redis__ipc_8c.html#afab35d4c40b4b1866fc0239bb885a39b" target="_top" xlink:title=" ">
<polygon fill="white" stroke="black" points="418,-255 418,-273 498,-273 498,-255 418,-255"/>
<text text-anchor="middle" x="458" y="-261.8" font-family="Helvetica,sans-Serif" font-size="9.00">redis_command</text>
</a>
</g>
</g>
<!-- Node8&#45;&gt;Node10 -->
<g id="edge12" class="edge">
<title>Node8&#45;&gt;Node10</title>
<path fill="none" stroke="midnightblue" d="M358.74,-197.02C366.4,-200.12 374.71,-203.86 382,-208 402.56,-219.67 423.96,-236.15 438.62,-248.22"/>
<polygon fill="midnightblue" stroke="midnightblue" points="436.5,-251.01 446.41,-254.74 440.99,-245.64 436.5,-251.01"/>
</g>
<!-- Node9&#45;&gt;Node2 -->
<g id="edge10" class="edge">
<title>Node9&#45;&gt;Node2</title>
<path fill="none" stroke="midnightblue" d="M652.33,-180.71C664.5,-179.19 677.3,-177.59 689.4,-176.07"/>
<polygon fill="midnightblue" stroke="midnightblue" points="689.89,-179.54 699.37,-174.83 689.02,-172.6 689.89,-179.54"/>
</g>
<!-- Node9&#45;&gt;Node3 -->
<g id="edge11" class="edge">
<title>Node9&#45;&gt;Node3</title>
<path fill="none" stroke="midnightblue" d="M652.05,-188C707.59,-188 789.04,-188 831.64,-188"/>
<polygon fill="midnightblue" stroke="midnightblue" points="831.84,-191.5 841.84,-188 831.84,-184.5 831.84,-191.5"/>
</g>
<!-- Node10&#45;&gt;Node2 -->
<g id="edge13" class="edge">
<title>Node10&#45;&gt;Node2</title>
<path fill="none" stroke="midnightblue" d="M493.14,-255C531.96,-244.51 597.08,-226.16 652,-207 673.7,-199.43 697.71,-189.7 716.03,-181.98"/>
<polygon fill="midnightblue" stroke="midnightblue" points="717.48,-185.17 725.31,-178.04 714.74,-178.73 717.48,-185.17"/>
</g>
<!-- Node11 -->
<g id="node11" class="node">
<title>Node11</title>
<g id="a_node11"><a xlink:href="redis__ipc_8c.html#a5e81feac565f9476476c5f042b2a5c9d" target="_top" xlink:title=" ">
<polygon fill="white" stroke="black" points="688,-274 688,-292 806,-292 806,-274 688,-274"/>
<text text-anchor="middle" x="747" y="-280.8" font-family="Helvetica,sans-Serif" font-size="9.00">stderr_debug_is_enabled</text>
</a>
</g>
</g>
<!-- Node10&#45;&gt;Node11 -->
<g id="edge14" class="edge">
<title>Node10&#45;&gt;Node11</title>
<path fill="none" stroke="midnightblue" d="M487.53,-273C501.4,-276.92 518.41,-281.06 534,-283 581.74,-288.95 636.01,-288.83 677.68,-287.28"/>
<polygon fill="midnightblue" stroke="midnightblue" points="677.87,-290.77 687.72,-286.87 677.59,-283.78 677.87,-290.77"/>
</g>
<!-- Node12 -->
<g id="node12" class="node">
<title>Node12</title>
<g id="a_node12"><a xlink:href="redis__ipc_8c.html#a80ea8825dd17a3cff2530680c97d184a" target="_top" xlink:title=" ">
<polygon fill="white" stroke="black" points="544,-255 544,-273 642,-273 642,-255 544,-255"/>
<text text-anchor="middle" x="593" y="-261.8" font-family="Helvetica,sans-Serif" font-size="9.00">validate_redis_reply</text>
</a>
</g>
</g>
<!-- Node10&#45;&gt;Node12 -->
<g id="edge15" class="edge">
<title>Node10&#45;&gt;Node12</title>
<path fill="none" stroke="midnightblue" d="M498.19,-264C509.21,-264 521.44,-264 533.34,-264"/>
<polygon fill="midnightblue" stroke="midnightblue" points="533.67,-267.5 543.67,-264 533.67,-260.5 533.67,-267.5"/>
</g>
<!-- Node12&#45;&gt;Node2 -->
<g id="edge16" class="edge">
<title>Node12&#45;&gt;Node2</title>
<path fill="none" stroke="midnightblue" d="M619.79,-254.96C630.09,-250.93 641.88,-245.79 652,-240 680.22,-223.85 709.65,-200.38 727.89,-184.91"/>
<polygon fill="midnightblue" stroke="midnightblue" points="730.6,-187.19 735.9,-178.02 726.03,-181.89 730.6,-187.19"/>
</g>
<!-- Node12&#45;&gt;Node11 -->
<g id="edge17" class="edge">
<title>Node12&#45;&gt;Node11</title>
<path fill="none" stroke="midnightblue" d="M642.09,-270.01C653.44,-271.43 665.75,-272.97 677.8,-274.47"/>
<polygon fill="midnightblue" stroke="midnightblue" points="677.47,-277.96 687.83,-275.73 678.34,-271.02 677.47,-277.96"/>
</g>
<!-- Node13&#45;&gt;Node9 -->
<g id="edge19" class="edge">
<title>Node13&#45;&gt;Node9</title>
<path fill="none" stroke="midnightblue" d="M362.62,-221.78C395.51,-217 450.6,-208.99 498,-202 506.33,-200.77 515.07,-199.48 523.74,-198.19"/>
<polygon fill="midnightblue" stroke="midnightblue" points="524.46,-201.62 533.84,-196.69 523.43,-194.7 524.46,-201.62"/>
</g>
<!-- Node13&#45;&gt;Node10 -->
<g id="edge20" class="edge">
<title>Node13&#45;&gt;Node10</title>
<path fill="none" stroke="midnightblue" d="M362.77,-235.01C379.26,-240.08 400.07,-246.48 417.94,-251.98"/>
<polygon fill="midnightblue" stroke="midnightblue" points="416.93,-255.33 427.51,-254.93 418.99,-248.64 416.93,-255.33"/>
</g>
</g>
</svg>
