<?xml version="1.0" encoding="UTF-8" standalone="no"?>
<!DOCTYPE svg PUBLIC "-//W3C//DTD SVG 1.1//EN"
 "http://www.w3.org/Graphics/SVG/1.1/DTD/svg11.dtd">
<!-- Generated by graphviz version 2.50.0 (20220203.2022)
 -->
<!-- Title: redis_publish Pages: 1 -->
<svg width="576pt" height="123pt"
 viewBox="0.00 0.00 576.00 122.77" xmlns="http://www.w3.org/2000/svg" xmlns:xlink="http://www.w3.org/1999/xlink">
<g id="graph0" class="graph" transform="scale(1 1) rotate(0) translate(4 118.77)">
<title>redis_publish</title>
<polygon fill="white" stroke="transparent" points="-4,4 -4,-118.77 572,-118.77 572,4 -4,4"/>
<!-- Node1 -->
<g id="node1" class="node">
<title>Node1</title>
<g id="a_node1"><a xlink:title=" ">
<polygon fill="#bfbfbf" stroke="black" points="0,-58.27 0,-76.27 70,-76.27 70,-58.27 0,-58.27"/>
<text text-anchor="middle" x="35" y="-65.07" font-family="Helvetica,sans-Serif" font-size="9.00">redis_publish</text>
</a>
</g>
</g>
<!-- Node2 -->
<g id="node2" class="node">
<title>Node2</title>
<g id="a_node2"><a xlink:href="redis__ipc_8c.html#a1ca0a131f083c0547523e40cae96936e" target="_top" xlink:title=" ">
<polygon fill="white" stroke="black" points="222,-96.27 222,-114.27 340,-114.27 340,-96.27 222,-96.27"/>
<text text-anchor="middle" x="281" y="-103.07" font-family="Helvetica,sans-Serif" font-size="9.00">json_add_common_fields</text>
</a>
</g>
</g>
<!-- Node1&#45;&gt;Node2 -->
<g id="edge1" class="edge">
<title>Node1&#45;&gt;Node2</title>
<path fill="none" stroke="midnightblue" d="M70.18,-72.6C106.84,-78.31 166,-87.52 212.17,-94.71"/>
<polygon fill="midnightblue" stroke="midnightblue" points="211.69,-98.18 222.11,-96.26 212.77,-91.26 211.69,-98.18"/>
</g>
<!-- Node5 -->
<g id="node5" class="node">
<title>Node5</title>
<g id="a_node5"><a xlink:href="redis__ipc_8c.html#afab35d4c40b4b1866fc0239bb885a39b" target="_top" xlink:title=" ">
<polygon fill="white" stroke="black" points="106,-39.27 106,-57.27 186,-57.27 186,-39.27 106,-39.27"/>
<text text-anchor="middle" x="146" y="-46.07" font-family="Helvetica,sans-Serif" font-size="9.00">redis_command</text>
</a>
</g>
</g>
<!-- Node1&#45;&gt;Node5 -->
<g id="edge5" class="edge">
<title>Node1&#45;&gt;Node5</title>
<path fill="none" stroke="midnightblue" d="M70.19,-61.31C78.36,-59.89 87.23,-58.34 95.92,-56.83"/>
<polygon fill="midnightblue" stroke="midnightblue" points="96.74,-60.24 105.99,-55.07 95.54,-53.34 96.74,-60.24"/>
</g>
<!-- Node3 -->
<g id="node3" class="node">
<title>Node3</title>
<g id="a_node3"><a xlink:href="redis__ipc_8c.html#a7b930ec420c7b4bf2df1469aca77f93d" target="_top" xlink:title=" ">
<polygon fill="white" stroke="black" points="387.5,-58.27 387.5,-76.27 482.5,-76.27 482.5,-58.27 387.5,-58.27"/>
<text text-anchor="middle" x="435" y="-65.07" font-family="Helvetica,sans-Serif" font-size="9.00">get_per_thread_info</text>
</a>
</g>
</g>
<!-- Node2&#45;&gt;Node3 -->
<g id="edge2" class="edge">
<title>Node2&#45;&gt;Node3</title>
<path fill="none" stroke="midnightblue" d="M318.02,-96.27C338.96,-91.03 365.55,-84.39 387.99,-78.78"/>
<polygon fill="midnightblue" stroke="midnightblue" points="389.12,-82.1 397.97,-76.28 387.42,-75.31 389.12,-82.1"/>
</g>
<!-- Node4 -->
<g id="node4" class="node">
<title>Node4</title>
<g id="a_node4"><a xlink:href="redis__ipc_8c.html#af0449193b7cded86e600f052d0aabd39" target="_top" xlink:title=" ">
<polygon fill="white" stroke="black" points="530,-77.27 530,-95.27 568,-95.27 568,-77.27 530,-77.27"/>
<text text-anchor="middle" x="549" y="-84.07" font-family="Helvetica,sans-Serif" font-size="9.00">gettid</text>
</a>
</g>
</g>
<!-- Node2&#45;&gt;Node4 -->
<g id="edge4" class="edge">
<title>Node2&#45;&gt;Node4</title>
<path fill="none" stroke="midnightblue" d="M340.05,-101.13C395.59,-97.16 477.04,-91.34 519.64,-88.3"/>
<polygon fill="midnightblue" stroke="midnightblue" points="520.12,-91.77 529.84,-87.57 519.62,-84.79 520.12,-91.77"/>
</g>
<!-- Node3&#45;&gt;Node4 -->
<g id="edge3" class="edge">
<title>Node3&#45;&gt;Node4</title>
<path fill="none" stroke="midnightblue" d="M482.53,-75.17C495.19,-77.31 508.51,-79.58 519.82,-81.49"/>
<polygon fill="midnightblue" stroke="midnightblue" points="519.5,-84.99 529.94,-83.21 520.67,-78.09 519.5,-84.99"/>
</g>
<!-- Node5&#45;&gt;Node3 -->
<g id="edge6" class="edge">
<title>Node5&#45;&gt;Node3</title>
<path fill="none" stroke="midnightblue" d="M186,-50.86C235.35,-54.12 320.7,-59.77 377.26,-63.52"/>
<polygon fill="midnightblue" stroke="midnightblue" points="377.26,-67.03 387.47,-64.19 377.72,-60.04 377.26,-67.03"/>
</g>
<!-- Node6 -->
<g id="node6" class="node">
<title>Node6</title>
<g id="a_node6"><a xlink:href="redis__ipc_8c.html#a5e81feac565f9476476c5f042b2a5c9d" target="_top" xlink:title=" ">
<polygon fill="white" stroke="black" points="376,-1.27 376,-19.27 494,-19.27 494,-1.27 376,-1.27"/>
<text text-anchor="middle" x="435" y="-8.07" font-family="Helvetica,sans-Serif" font-size="9.00">stderr_debug_is_enabled</text>
</a>
</g>
</g>
<!-- Node5&#45;&gt;Node6 -->
<g id="edge7" class="edge">
<title>Node5&#45;&gt;Node6</title>
<path fill="none" stroke="midnightblue" d="M160.08,-39.23C174.48,-29.87 198.72,-15.84 222,-10.27 268.96,0.94 323.46,0.66 365.44,-2.27"/>
<polygon fill="midnightblue" stroke="midnightblue" points="365.32,-5.77 375.56,-3.05 365.86,1.2 365.32,-5.77"/>
</g>
<!-- Node7 -->
<g id="node7" class="node">
<title>Node7</title>
<g id="a_node7"><a xlink:href="redis__ipc_8c.html#a80ea8825dd17a3cff2530680c97d184a" target="_top" xlink:title=" ">
<polygon fill="white" stroke="black" points="232,-20.27 232,-38.27 330,-38.27 330,-20.27 232,-20.27"/>
<text text-anchor="middle" x="281" y="-27.07" font-family="Helvetica,sans-Serif" font-size="9.00">validate_redis_reply</text>
</a>
</g>
</g>
<!-- Node5&#45;&gt;Node7 -->
<g id="edge8" class="edge">
<title>Node5&#45;&gt;Node7</title>
<path fill="none" stroke="midnightblue" d="M186.19,-42.68C197.32,-41.09 209.69,-39.32 221.7,-37.6"/>
<polygon fill="midnightblue" stroke="midnightblue" points="222.26,-41.06 231.67,-36.18 221.27,-34.13 222.26,-41.06"/>
</g>
<!-- Node7&#45;&gt;Node3 -->
<g id="edge9" class="edge">
<title>Node7&#45;&gt;Node3</title>
<path fill="none" stroke="midnightblue" d="M318.02,-38.28C338.96,-43.51 365.55,-50.16 387.99,-55.77"/>
<polygon fill="midnightblue" stroke="midnightblue" points="387.42,-59.24 397.97,-58.27 389.12,-52.45 387.42,-59.24"/>
</g>
<!-- Node7&#45;&gt;Node6 -->
<g id="edge10" class="edge">
<title>Node7&#45;&gt;Node6</title>
<path fill="none" stroke="midnightblue" d="M330.09,-23.26C341.44,-21.84 353.75,-20.31 365.8,-18.8"/>
<polygon fill="midnightblue" stroke="midnightblue" points="366.34,-22.26 375.83,-17.55 365.47,-15.31 366.34,-22.26"/>
</g>
</g>
</svg>
