<?xml version="1.0" encoding="UTF-8" standalone="no"?>
<!DOCTYPE svg PUBLIC "-//W3C//DTD SVG 1.1//EN"
 "http://www.w3.org/Graphics/SVG/1.1/DTD/svg11.dtd">
<!-- Generated by graphviz version 2.50.0 (20220203.2022)
 -->
<!-- Title: redis_ipc_send_event Pages: 1 -->
<svg width="715pt" height="198pt"
 viewBox="0.00 0.00 715.00 197.77" xmlns="http://www.w3.org/2000/svg" xmlns:xlink="http://www.w3.org/1999/xlink">
<g id="graph0" class="graph" transform="scale(1 1) rotate(0) translate(4 193.77)">
<title>redis_ipc_send_event</title>
<polygon fill="white" stroke="transparent" points="-4,4 -4,-193.77 711,-193.77 711,4 -4,4"/>
<!-- Node1 -->
<g id="node1" class="node">
<title>Node1</title>
<g id="a_node1"><a xlink:title=" ">
<polygon fill="#bfbfbf" stroke="black" points="0,-37.5 0,-55.5 103,-55.5 103,-37.5 0,-37.5"/>
<text text-anchor="middle" x="51.5" y="-44.3" font-family="Helvetica,sans-Serif" font-size="9.00">redis_ipc_send_event</text>
</a>
</g>
</g>
<!-- Node2 -->
<g id="node2" class="node">
<title>Node2</title>
<g id="a_node2"><a xlink:href="redis__ipc_8c.html#a7b930ec420c7b4bf2df1469aca77f93d" target="_top" xlink:title=" ">
<polygon fill="white" stroke="black" points="526.5,-75.5 526.5,-93.5 621.5,-93.5 621.5,-75.5 526.5,-75.5"/>
<text text-anchor="middle" x="574" y="-82.3" font-family="Helvetica,sans-Serif" font-size="9.00">get_per_thread_info</text>
</a>
</g>
</g>
<!-- Node1&#45;&gt;Node2 -->
<g id="edge1" class="edge">
<title>Node1&#45;&gt;Node2</title>
<path fill="none" stroke="midnightblue" d="M89.32,-55.51C104.6,-58.9 122.56,-62.42 139,-64.5 273.38,-81.47 432.78,-84.47 515.98,-84.75"/>
<polygon fill="midnightblue" stroke="midnightblue" points="516.22,-88.25 526.23,-84.78 516.24,-81.25 516.22,-88.25"/>
</g>
<!-- Node4 -->
<g id="node4" class="node">
<title>Node4</title>
<g id="a_node4"><a xlink:href="redis__ipc_8c.html#a67c9dd84d2426ab58a759dbdfd223267" target="_top" xlink:title=" ">
<polygon fill="white" stroke="black" points="148.5,-0.5 148.5,-18.5 199.5,-18.5 199.5,-0.5 148.5,-0.5"/>
<text text-anchor="middle" x="174" y="-7.3" font-family="Helvetica,sans-Serif" font-size="9.00">ipc_path</text>
</a>
</g>
</g>
<!-- Node1&#45;&gt;Node4 -->
<g id="edge3" class="edge">
<title>Node1&#45;&gt;Node4</title>
<path fill="none" stroke="midnightblue" d="M81.98,-37.45C99.06,-32.2 120.66,-25.57 138.54,-20.08"/>
<polygon fill="midnightblue" stroke="midnightblue" points="139.76,-23.37 148.29,-17.09 137.71,-16.68 139.76,-23.37"/>
</g>
<!-- Node5 -->
<g id="node5" class="node">
<title>Node5</title>
<g id="a_node5"><a xlink:href="redis__ipc_8c.html#ab3dc5609833c201c4e9ebaa5e2e70a2f" target="_top" xlink:title=" ">
<polygon fill="white" stroke="black" points="139,-37.5 139,-55.5 209,-55.5 209,-37.5 139,-37.5"/>
<text text-anchor="middle" x="174" y="-44.3" font-family="Helvetica,sans-Serif" font-size="9.00">redis_publish</text>
</a>
</g>
</g>
<!-- Node1&#45;&gt;Node5 -->
<g id="edge4" class="edge">
<title>Node1&#45;&gt;Node5</title>
<path fill="none" stroke="midnightblue" d="M103.25,-46.5C111.67,-46.5 120.33,-46.5 128.57,-46.5"/>
<polygon fill="midnightblue" stroke="midnightblue" points="128.73,-50 138.73,-46.5 128.73,-43 128.73,-50"/>
</g>
<!-- Node3 -->
<g id="node3" class="node">
<title>Node3</title>
<g id="a_node3"><a xlink:href="redis__ipc_8c.html#af0449193b7cded86e600f052d0aabd39" target="_top" xlink:title=" ">
<polygon fill="white" stroke="black" points="669,-56.5 669,-74.5 707,-74.5 707,-56.5 669,-56.5"/>
<text text-anchor="middle" x="688" y="-63.3" font-family="Helvetica,sans-Serif" font-size="9.00">gettid</text>
</a>
</g>
</g>
<!-- Node2&#45;&gt;Node3 -->
<g id="edge2" class="edge">
<title>Node2&#45;&gt;Node3</title>
<path fill="none" stroke="midnightblue" d="M621.53,-76.61C634.19,-74.46 647.51,-72.2 658.82,-70.28"/>
<polygon fill="midnightblue" stroke="midnightblue" points="659.67,-73.69 668.94,-68.56 658.5,-66.79 659.67,-73.69"/>
</g>
<!-- Node6 -->
<g id="node6" class="node">
<title>Node6</title>
<g id="a_node6"><a xlink:href="redis__ipc_8c.html#a1ca0a131f083c0547523e40cae96936e" target="_top" xlink:title=" ">
<polygon fill="white" stroke="black" points="361,-37.5 361,-55.5 479,-55.5 479,-37.5 361,-37.5"/>
<text text-anchor="middle" x="420" y="-44.3" font-family="Helvetica,sans-Serif" font-size="9.00">json_add_common_fields</text>
</a>
</g>
</g>
<!-- Node5&#45;&gt;Node6 -->
<g id="edge5" class="edge">
<title>Node5&#45;&gt;Node6</title>
<path fill="none" stroke="midnightblue" d="M209.18,-46.5C245.64,-46.5 304.36,-46.5 350.42,-46.5"/>
<polygon fill="midnightblue" stroke="midnightblue" points="350.64,-50 360.64,-46.5 350.64,-43 350.64,-50"/>
</g>
<!-- Node7 -->
<g id="node7" class="node">
<title>Node7</title>
<g id="a_node7"><a xlink:href="redis__ipc_8c.html#afab35d4c40b4b1866fc0239bb885a39b" target="_top" xlink:title=" ">
<polygon fill="white" stroke="black" points="245,-132.5 245,-150.5 325,-150.5 325,-132.5 245,-132.5"/>
<text text-anchor="middle" x="285" y="-139.3" font-family="Helvetica,sans-Serif" font-size="9.00">redis_command</text>
</a>
</g>
</g>
<!-- Node5&#45;&gt;Node7 -->
<g id="edge8" class="edge">
<title>Node5&#45;&gt;Node7</title>
<path fill="none" stroke="midnightblue" d="M185.45,-55.61C203.96,-71.74 242.71,-105.51 265.72,-125.57"/>
<polygon fill="midnightblue" stroke="midnightblue" points="263.58,-128.35 273.42,-132.28 268.18,-123.07 263.58,-128.35"/>
</g>
<!-- Node6&#45;&gt;Node2 -->
<g id="edge6" class="edge">
<title>Node6&#45;&gt;Node2</title>
<path fill="none" stroke="midnightblue" d="M457.02,-55.51C477.96,-60.74 504.55,-67.39 526.99,-73"/>
<polygon fill="midnightblue" stroke="midnightblue" points="526.42,-76.46 536.97,-75.49 528.12,-69.67 526.42,-76.46"/>
</g>
<!-- Node6&#45;&gt;Node3 -->
<g id="edge7" class="edge">
<title>Node6&#45;&gt;Node3</title>
<path fill="none" stroke="midnightblue" d="M479.05,-50.65C534.59,-54.61 616.04,-60.43 658.64,-63.47"/>
<polygon fill="midnightblue" stroke="midnightblue" points="658.62,-66.98 668.84,-64.2 659.12,-60 658.62,-66.98"/>
</g>
<!-- Node7&#45;&gt;Node2 -->
<g id="edge9" class="edge">
<title>Node7&#45;&gt;Node2</title>
<path fill="none" stroke="midnightblue" d="M325,-133.75C374.74,-123.88 461.06,-106.73 517.6,-95.5"/>
<polygon fill="midnightblue" stroke="midnightblue" points="518.32,-98.93 527.45,-93.55 516.96,-92.06 518.32,-98.93"/>
</g>
<!-- Node8 -->
<g id="node8" class="node">
<title>Node8</title>
<g id="a_node8"><a xlink:href="redis__ipc_8c.html#a5e81feac565f9476476c5f042b2a5c9d" target="_top" xlink:title=" ">
<polygon fill="white" stroke="black" points="515,-170.5 515,-188.5 633,-188.5 633,-170.5 515,-170.5"/>
<text text-anchor="middle" x="574" y="-177.3" font-family="Helvetica,sans-Serif" font-size="9.00">stderr_debug_is_enabled</text>
</a>
</g>
</g>
<!-- Node7&#45;&gt;Node8 -->
<g id="edge10" class="edge">
<title>Node7&#45;&gt;Node8</title>
<path fill="none" stroke="midnightblue" d="M299.08,-150.54C313.48,-159.91 337.72,-173.94 361,-179.5 407.96,-190.72 462.46,-190.44 504.44,-187.5"/>
<polygon fill="midnightblue" stroke="midnightblue" points="504.86,-190.98 514.56,-186.72 504.32,-184 504.86,-190.98"/>
</g>
<!-- Node9 -->
<g id="node9" class="node">
<title>Node9</title>
<g id="a_node9"><a xlink:href="redis__ipc_8c.html#a80ea8825dd17a3cff2530680c97d184a" target="_top" xlink:title=" ">
<polygon fill="white" stroke="black" points="371,-151.5 371,-169.5 469,-169.5 469,-151.5 371,-151.5"/>
<text text-anchor="middle" x="420" y="-158.3" font-family="Helvetica,sans-Serif" font-size="9.00">validate_redis_reply</text>
</a>
</g>
</g>
<!-- Node7&#45;&gt;Node9 -->
<g id="edge11" class="edge">
<title>Node7&#45;&gt;Node9</title>
<path fill="none" stroke="midnightblue" d="M325.19,-147.1C336.32,-148.69 348.69,-150.46 360.7,-152.17"/>
<polygon fill="midnightblue" stroke="midnightblue" points="360.27,-155.65 370.67,-153.6 361.26,-148.72 360.27,-155.65"/>
</g>
<!-- Node9&#45;&gt;Node2 -->
<g id="edge12" class="edge">
<title>Node9&#45;&gt;Node2</title>
<path fill="none" stroke="midnightblue" d="M444.69,-151.4C455.3,-147.15 467.91,-141.84 479,-136.5 503.44,-124.73 530.44,-109.55 549.22,-98.64"/>
<polygon fill="midnightblue" stroke="midnightblue" points="551.12,-101.58 557.97,-93.5 547.58,-95.54 551.12,-101.58"/>
</g>
<!-- Node9&#45;&gt;Node8 -->
<g id="edge13" class="edge">
<title>Node9&#45;&gt;Node8</title>
<path fill="none" stroke="midnightblue" d="M469.09,-166.51C480.44,-167.93 492.75,-169.47 504.8,-170.97"/>
<polygon fill="midnightblue" stroke="midnightblue" points="504.47,-174.46 514.83,-172.23 505.34,-167.52 504.47,-174.46"/>
</g>
</g>
</svg>
