<?xml version="1.0" encoding="UTF-8" standalone="no"?>
<!DOCTYPE svg PUBLIC "-//W3C//DTD SVG 1.1//EN"
 "http://www.w3.org/Graphics/SVG/1.1/DTD/svg11.dtd">
<!-- Generated by graphviz version 2.47.1 (20210417.1919)
 -->
<!-- Title: redis_ipc_send_debug Pages: 1 -->
<svg width="806pt" height="198pt"
 viewBox="0.00 0.00 806.00 198.04" xmlns="http://www.w3.org/2000/svg" xmlns:xlink="http://www.w3.org/1999/xlink">
<g id="graph0" class="graph" transform="scale(1 1) rotate(0) translate(4 194.04)">
<title>redis_ipc_send_debug</title>
<polygon fill="white" stroke="transparent" points="-4,4 -4,-194.04 802,-194.04 802,4 -4,4"/>
<!-- Node1 -->
<g id="node1" class="node">
<title>Node1</title>
<g id="a_node1"><a xlink:title=" ">
<polygon fill="#bfbfbf" stroke="black" points="0,-75.5 0,-93.5 116,-93.5 116,-75.5 0,-75.5"/>
<text text-anchor="middle" x="58" y="-82.3" font-family="Helvetica,sans-Serif" font-size="9.00">redis_ipc_send_debug</text>
</a>
</g>
</g>
<!-- Node2 -->
<g id="node2" class="node">
<title>Node2</title>
<g id="a_node2"><a xlink:href="redis__ipc_8c.html#a134fbfb58bceaeaad9c15dec14104a65" target="_top" xlink:title=" ">
<polygon fill="white" stroke="black" points="155.5,-150.5 155.5,-168.5 259.5,-168.5 259.5,-150.5 155.5,-150.5"/>
<text text-anchor="middle" x="207.5" y="-157.3" font-family="Helvetica,sans-Serif" font-size="9.00">format_debug_msg</text>
</a>
</g>
</g>
<!-- Node1&#45;&gt;Node2 -->
<g id="edge1" class="edge">
<title>Node1&#45;&gt;Node2</title>
<path fill="none" stroke="midnightblue" d="M71.71,-93.61C89.15,-105.79 121.77,-127.47 152,-141.5 156.18,-143.44 160.63,-145.27 165.11,-146.96"/>
<polygon fill="midnightblue" stroke="midnightblue" points="164.3,-150.38 174.89,-150.43 166.64,-143.79 164.3,-150.38"/>
</g>
<!-- Node3 -->
<g id="node3" class="node">
<title>Node3</title>
<g id="a_node3"><a xlink:href="redis__ipc_8c.html#a69fe6204f8b392036b5faa4b9392aa8a" target="_top" xlink:title=" ">
<polygon fill="white" stroke="black" points="152,-113.5 152,-131.5 263,-131.5 263,-113.5 152,-113.5"/>
<text text-anchor="middle" x="207.5" y="-120.3" font-family="Helvetica,sans-Serif" font-size="9.00">get_debug_verbosity</text>
</a>
</g>
</g>
<!-- Node1&#45;&gt;Node3 -->
<g id="edge2" class="edge">
<title>Node1&#45;&gt;Node3</title>
<path fill="none" stroke="midnightblue" d="M93.96,-93.51C114.27,-98.74 140.08,-105.39 161.85,-111"/>
<polygon fill="midnightblue" stroke="midnightblue" points="160.98,-114.39 171.54,-113.49 162.73,-107.61 160.98,-114.39"/>
</g>
<!-- Node4 -->
<g id="node4" class="node">
<title>Node4</title>
<g id="a_node4"><a xlink:href="redis__ipc_8c.html#aa2a3ce97c0b6f3e83572446f3c92e541" target="_top" xlink:title=" ">
<polygon fill="white" stroke="black" points="600,-75.5 600,-93.5 707,-93.5 707,-75.5 600,-75.5"/>
<text text-anchor="middle" x="653.5" y="-82.3" font-family="Helvetica,sans-Serif" font-size="9.00">get_per_thread_info</text>
</a>
</g>
</g>
<!-- Node1&#45;&gt;Node4 -->
<g id="edge3" class="edge">
<title>Node1&#45;&gt;Node4</title>
<path fill="none" stroke="midnightblue" d="M116.18,-84.5C227.71,-84.5 473.53,-84.5 589.54,-84.5"/>
<polygon fill="midnightblue" stroke="midnightblue" points="589.68,-88 599.68,-84.5 589.68,-81 589.68,-88"/>
</g>
<!-- Node6 -->
<g id="node6" class="node">
<title>Node6</title>
<g id="a_node6"><a xlink:href="redis__ipc_8c.html#a67c9dd84d2426ab58a759dbdfd223267" target="_top" xlink:title=" ">
<polygon fill="white" stroke="black" points="179.5,-0.5 179.5,-18.5 235.5,-18.5 235.5,-0.5 179.5,-0.5"/>
<text text-anchor="middle" x="207.5" y="-7.3" font-family="Helvetica,sans-Serif" font-size="9.00">ipc_path</text>
</a>
</g>
</g>
<!-- Node1&#45;&gt;Node6 -->
<g id="edge5" class="edge">
<title>Node1&#45;&gt;Node6</title>
<path fill="none" stroke="midnightblue" d="M71.71,-75.39C89.15,-63.21 121.77,-41.53 152,-27.5 157.56,-24.92 163.59,-22.54 169.55,-20.42"/>
<polygon fill="midnightblue" stroke="midnightblue" points="171.06,-23.6 179.41,-17.09 168.82,-16.97 171.06,-23.6"/>
</g>
<!-- Node7 -->
<g id="node7" class="node">
<title>Node7</title>
<g id="a_node7"><a xlink:href="redis__ipc_8c.html#ab3dc5609833c201c4e9ebaa5e2e70a2f" target="_top" xlink:title=" ">
<polygon fill="white" stroke="black" points="169.5,-37.5 169.5,-55.5 245.5,-55.5 245.5,-37.5 169.5,-37.5"/>
<text text-anchor="middle" x="207.5" y="-44.3" font-family="Helvetica,sans-Serif" font-size="9.00">redis_publish</text>
</a>
</g>
</g>
<!-- Node1&#45;&gt;Node7 -->
<g id="edge6" class="edge">
<title>Node1&#45;&gt;Node7</title>
<path fill="none" stroke="midnightblue" d="M93.96,-75.49C114.27,-70.26 140.08,-63.61 161.85,-58"/>
<polygon fill="midnightblue" stroke="midnightblue" points="162.73,-61.39 171.54,-55.51 160.98,-54.61 162.73,-61.39"/>
</g>
<!-- Node5 -->
<g id="node5" class="node">
<title>Node5</title>
<g id="a_node5"><a xlink:href="redis__ipc_8c.html#af0449193b7cded86e600f052d0aabd39" target="_top" xlink:title=" ">
<polygon fill="white" stroke="black" points="754,-56.5 754,-74.5 798,-74.5 798,-56.5 754,-56.5"/>
<text text-anchor="middle" x="776" y="-63.3" font-family="Helvetica,sans-Serif" font-size="9.00">gettid</text>
</a>
</g>
</g>
<!-- Node4&#45;&gt;Node5 -->
<g id="edge4" class="edge">
<title>Node4&#45;&gt;Node5</title>
<path fill="none" stroke="midnightblue" d="M707,-76.22C719.5,-74.25 732.45,-72.21 743.65,-70.44"/>
<polygon fill="midnightblue" stroke="midnightblue" points="744.45,-73.86 753.78,-68.85 743.36,-66.95 744.45,-73.86"/>
</g>
<!-- Node8 -->
<g id="node8" class="node">
<title>Node8</title>
<g id="a_node8"><a xlink:href="redis__ipc_8c.html#a1ca0a131f083c0547523e40cae96936e" target="_top" xlink:title=" ">
<polygon fill="white" stroke="black" points="424,-37.5 424,-55.5 553,-55.5 553,-37.5 424,-37.5"/>
<text text-anchor="middle" x="488.5" y="-44.3" font-family="Helvetica,sans-Serif" font-size="9.00">json_add_common_fields</text>
</a>
</g>
</g>
<!-- Node7&#45;&gt;Node8 -->
<g id="edge7" class="edge">
<title>Node7&#45;&gt;Node8</title>
<path fill="none" stroke="midnightblue" d="M245.55,-46.5C288.23,-46.5 359.43,-46.5 413.57,-46.5"/>
<polygon fill="midnightblue" stroke="midnightblue" points="413.81,-50 423.81,-46.5 413.81,-43 413.81,-50"/>
</g>
<!-- Node9 -->
<g id="node9" class="node">
<title>Node9</title>
<g id="a_node9"><a xlink:href="redis__ipc_8c.html#aefb4508c1883e7d4345b206076b19e5d" target="_top" xlink:title=" ">
<polygon fill="white" stroke="black" points="299,-132.5 299,-150.5 388,-150.5 388,-132.5 299,-132.5"/>
<text text-anchor="middle" x="343.5" y="-139.3" font-family="Helvetica,sans-Serif" font-size="9.00">redis_command</text>
</a>
</g>
</g>
<!-- Node7&#45;&gt;Node9 -->
<g id="edge10" class="edge">
<title>Node7&#45;&gt;Node9</title>
<path fill="none" stroke="midnightblue" d="M221.35,-55.61C244.4,-71.95 293,-106.41 321.14,-126.35"/>
<polygon fill="midnightblue" stroke="midnightblue" points="319.31,-129.35 329.49,-132.28 323.36,-123.64 319.31,-129.35"/>
</g>
<!-- Node8&#45;&gt;Node4 -->
<g id="edge8" class="edge">
<title>Node8&#45;&gt;Node4</title>
<path fill="none" stroke="midnightblue" d="M528.13,-55.51C550.78,-60.79 579.61,-67.51 603.81,-73.15"/>
<polygon fill="midnightblue" stroke="midnightblue" points="603.33,-76.63 613.87,-75.49 604.92,-69.81 603.33,-76.63"/>
</g>
<!-- Node8&#45;&gt;Node5 -->
<g id="edge9" class="edge">
<title>Node8&#45;&gt;Node5</title>
<path fill="none" stroke="midnightblue" d="M553.22,-50.74C612.4,-54.68 698.05,-60.38 743.66,-63.41"/>
<polygon fill="midnightblue" stroke="midnightblue" points="743.61,-66.92 753.82,-64.09 744.07,-59.93 743.61,-66.92"/>
</g>
<!-- Node9&#45;&gt;Node4 -->
<g id="edge11" class="edge">
<title>Node9&#45;&gt;Node4</title>
<path fill="none" stroke="midnightblue" d="M388.3,-133.39C442.15,-123.43 533.75,-106.48 593.7,-95.38"/>
<polygon fill="midnightblue" stroke="midnightblue" points="594.57,-98.78 603.77,-93.52 593.3,-91.9 594.57,-98.78"/>
</g>
<!-- Node10 -->
<g id="node10" class="node">
<title>Node10</title>
<g id="a_node10"><a xlink:href="redis__ipc_8c.html#a5e81feac565f9476476c5f042b2a5c9d" target="_top" xlink:title=" ">
<polygon fill="white" stroke="black" points="589,-170.5 589,-188.5 718,-188.5 718,-170.5 589,-170.5"/>
<text text-anchor="middle" x="653.5" y="-177.3" font-family="Helvetica,sans-Serif" font-size="9.00">stderr_debug_is_enabled</text>
</a>
</g>
</g>
<!-- Node9&#45;&gt;Node10 -->
<g id="edge12" class="edge">
<title>Node9&#45;&gt;Node10</title>
<path fill="none" stroke="midnightblue" d="M358.44,-150.55C373.79,-159.92 399.53,-173.95 424,-179.5 474.71,-191 533.4,-190.72 578.61,-187.71"/>
<polygon fill="midnightblue" stroke="midnightblue" points="578.9,-191.2 588.62,-186.99 578.39,-184.22 578.9,-191.2"/>
</g>
<!-- Node11 -->
<g id="node11" class="node">
<title>Node11</title>
<g id="a_node11"><a xlink:href="redis__ipc_8c.html#ae88037651d88f63c62d32afd7e0fccf2" target="_top" xlink:title=" ">
<polygon fill="white" stroke="black" points="436,-151.5 436,-169.5 541,-169.5 541,-151.5 436,-151.5"/>
<text text-anchor="middle" x="488.5" y="-158.3" font-family="Helvetica,sans-Serif" font-size="9.00">validate_redis_reply</text>
</a>
</g>
</g>
<!-- Node9&#45;&gt;Node11 -->
<g id="edge13" class="edge">
<title>Node9&#45;&gt;Node11</title>
<path fill="none" stroke="midnightblue" d="M388.18,-147.3C400.04,-148.88 413.11,-150.62 425.77,-152.3"/>
<polygon fill="midnightblue" stroke="midnightblue" points="425.42,-155.78 435.79,-153.63 426.34,-148.84 425.42,-155.78"/>
</g>
<!-- Node11&#45;&gt;Node4 -->
<g id="edge14" class="edge">
<title>Node11&#45;&gt;Node4</title>
<path fill="none" stroke="midnightblue" d="M515.74,-151.39C527.3,-147.17 540.96,-141.9 553,-136.5 578.98,-124.85 607.72,-109.56 627.6,-98.58"/>
<polygon fill="midnightblue" stroke="midnightblue" points="629.56,-101.5 636.59,-93.57 626.15,-95.38 629.56,-101.5"/>
</g>
<!-- Node11&#45;&gt;Node10 -->
<g id="edge15" class="edge">
<title>Node11&#45;&gt;Node10</title>
<path fill="none" stroke="midnightblue" d="M541.07,-166.51C553.07,-167.91 566.07,-169.43 578.81,-170.91"/>
<polygon fill="midnightblue" stroke="midnightblue" points="578.62,-174.41 588.95,-172.09 579.43,-167.46 578.62,-174.41"/>
</g>
</g>
</svg>
