<?xml version="1.0" encoding="UTF-8" standalone="no"?>
<!DOCTYPE svg PUBLIC "-//W3C//DTD SVG 1.1//EN"
 "http://www.w3.org/Graphics/SVG/1.1/DTD/svg11.dtd">
<!-- Generated by graphviz version 2.43.0 (0)
 -->
<!-- Title: get_per_thread_info Pages: 1 -->
<svg width="924pt" height="1036pt"
 viewBox="0.00 0.00 924.00 1036.49" xmlns="http://www.w3.org/2000/svg" xmlns:xlink="http://www.w3.org/1999/xlink">
<g id="graph0" class="graph" transform="scale(1 1) rotate(0) translate(4 1032.49)">
<title>get_per_thread_info</title>
<polygon fill="white" stroke="transparent" points="-4,4 -4,-1032.49 920,-1032.49 920,4 -4,4"/>
<!-- Node1 -->
<g id="node1" class="node">
<title>Node1</title>
<g id="a_node1"><a xlink:title=" ">
<polygon fill="#bfbfbf" stroke="black" points="809,-503.28 809,-521.28 916,-521.28 916,-503.28 809,-503.28"/>
<text text-anchor="middle" x="862.5" y="-510.08" font-family="Helvetica,sans-Serif" font-size="9.00">get_per_thread_info</text>
</a>
</g>
</g>
<!-- Node2 -->
<g id="node2" class="node">
<title>Node2</title>
<g id="a_node2"><a xlink:href="redis__ipc_8c.html#a1ca0a131f083c0547523e40cae96936e" target="_top" xlink:title=" ">
<polygon fill="white" stroke="black" points="487,-788.28 487,-806.28 616,-806.28 616,-788.28 487,-788.28"/>
<text text-anchor="middle" x="551.5" y="-795.08" font-family="Helvetica,sans-Serif" font-size="9.00">json_add_common_fields</text>
</a>
</g>
</g>
<!-- Node1&#45;&gt;Node2 -->
<g id="edge1" class="edge">
<title>Node1&#45;&gt;Node2</title>
<path fill="none" stroke="midnightblue" d="M861.48,-531.54C860.29,-580.79 849.7,-711.74 773,-773.28 725.99,-810.99 654.06,-811.56 605.23,-806.31"/>
<polygon fill="midnightblue" stroke="midnightblue" points="864.98,-531.39 861.62,-521.35 857.98,-531.3 864.98,-531.39"/>
</g>
<!-- Node4 -->
<g id="node4" class="node">
<title>Node4</title>
<g id="a_node4"><a xlink:href="redis__ipc_8h.html#a66cdf2ae760d1acb487dd82c1392c12f" target="_top" xlink:title=" ">
<polygon fill="white" stroke="black" points="180.5,-864.28 180.5,-882.28 296.5,-882.28 296.5,-864.28 180.5,-864.28"/>
<text text-anchor="middle" x="238.5" y="-871.08" font-family="Helvetica,sans-Serif" font-size="9.00">redis_ipc_send_debug</text>
</a>
</g>
</g>
<!-- Node1&#45;&gt;Node4 -->
<g id="edge43" class="edge">
<title>Node1&#45;&gt;Node4</title>
<path fill="none" stroke="midnightblue" d="M859.24,-531.63C851.21,-596.73 821.94,-806.21 773,-849.28 624.4,-980.04 352.59,-909.39 266.44,-882.32"/>
<polygon fill="midnightblue" stroke="midnightblue" points="862.73,-531.87 860.45,-521.53 855.78,-531.04 862.73,-531.87"/>
</g>
<!-- Node5 -->
<g id="node5" class="node">
<title>Node5</title>
<g id="a_node5"><a xlink:href="redis__ipc_8h.html#a6961dec4572f2b0b9f52ae09ae663728" target="_top" xlink:title=" ">
<polygon fill="white" stroke="black" points="0,-857.28 0,-885.28 143,-885.28 143,-857.28 0,-857.28"/>
<text text-anchor="start" x="8" y="-874.08" font-family="Helvetica,sans-Serif" font-size="9.00">redis_ipc_receive_command</text>
<text text-anchor="middle" x="71.5" y="-864.08" font-family="Helvetica,sans-Serif" font-size="9.00">_blocking</text>
</a>
</g>
</g>
<!-- Node1&#45;&gt;Node5 -->
<g id="edge41" class="edge">
<title>Node1&#45;&gt;Node5</title>
<path fill="none" stroke="midnightblue" d="M860.08,-531.56C854.23,-605.86 829.58,-872.36 773,-931.28 702.97,-1004.21 653.61,-987.28 552.5,-987.28 552.5,-987.28 552.5,-987.28 391,-987.28 296.4,-987.28 256.88,-1021.98 179,-968.28 148.89,-947.51 170.58,-918.3 143,-894.28 139.02,-890.81 134.51,-887.86 129.73,-885.36"/>
<polygon fill="midnightblue" stroke="midnightblue" points="863.59,-531.59 860.86,-521.35 856.61,-531.05 863.59,-531.59"/>
</g>
<!-- Node6 -->
<g id="node6" class="node">
<title>Node6</title>
<g id="a_node6"><a xlink:href="redis__ipc_8h.html#a696ecebb5df3f171ed7b6adf682c83a2" target="_top" xlink:title=" ">
<polygon fill="white" stroke="black" points="5,-798.28 5,-826.28 138,-826.28 138,-798.28 5,-798.28"/>
<text text-anchor="start" x="13" y="-815.08" font-family="Helvetica,sans-Serif" font-size="9.00">redis_ipc_send_command</text>
<text text-anchor="middle" x="71.5" y="-805.08" font-family="Helvetica,sans-Serif" font-size="9.00">_blocking</text>
</a>
</g>
</g>
<!-- Node1&#45;&gt;Node6 -->
<g id="edge42" class="edge">
<title>Node1&#45;&gt;Node6</title>
<path fill="none" stroke="midnightblue" d="M862.2,-531.58C862.97,-584.63 857.17,-733.46 773,-805.28 697.76,-869.47 651.4,-835.28 552.5,-835.28 552.5,-835.28 552.5,-835.28 391,-835.28 303.41,-835.28 202.61,-826.52 138.28,-819.81"/>
<polygon fill="midnightblue" stroke="midnightblue" points="865.7,-531.43 861.95,-521.52 858.7,-531.6 865.7,-531.43"/>
</g>
<!-- Node7 -->
<g id="node7" class="node">
<title>Node7</title>
<g id="a_node7"><a xlink:href="redis__ipc_8h.html#aecff1f4edcb2ebf0654d0fff21e334a5" target="_top" xlink:title=" ">
<polygon fill="white" stroke="black" points="15,-904.28 15,-922.28 128,-922.28 128,-904.28 15,-904.28"/>
<text text-anchor="middle" x="71.5" y="-911.08" font-family="Helvetica,sans-Serif" font-size="9.00">redis_ipc_send_result</text>
</a>
</g>
</g>
<!-- Node1&#45;&gt;Node7 -->
<g id="edge45" class="edge">
<title>Node1&#45;&gt;Node7</title>
<path fill="none" stroke="midnightblue" d="M860.52,-531.48C856.11,-610.33 835.5,-908.1 773,-973.28 703.31,-1045.95 653.19,-1025.28 552.5,-1025.28 552.5,-1025.28 552.5,-1025.28 391,-1025.28 295.96,-1025.28 266.55,-1034.25 179,-997.28 136.91,-979.5 97.45,-940.43 80.81,-922.54"/>
<polygon fill="midnightblue" stroke="midnightblue" points="864.02,-531.66 861.06,-521.49 857.03,-531.29 864.02,-531.66"/>
</g>
<!-- Node8 -->
<g id="node8" class="node">
<title>Node8</title>
<g id="a_node8"><a xlink:href="redis__ipc_8h.html#a9040f6af2f364ef8da41175eb6073693" target="_top" xlink:title=" ">
<polygon fill="white" stroke="black" points="182,-940.28 182,-958.28 295,-958.28 295,-940.28 182,-940.28"/>
<text text-anchor="middle" x="238.5" y="-947.08" font-family="Helvetica,sans-Serif" font-size="9.00">redis_ipc_send_event</text>
</a>
</g>
</g>
<!-- Node1&#45;&gt;Node8 -->
<g id="edge44" class="edge">
<title>Node1&#45;&gt;Node8</title>
<path fill="none" stroke="midnightblue" d="M859.63,-531.63C852.49,-601.75 824.66,-841.07 773,-894.28 708.05,-961.16 418.27,-957.06 295.14,-952.1"/>
<polygon fill="midnightblue" stroke="midnightblue" points="863.13,-531.86 860.63,-521.56 856.16,-531.16 863.13,-531.86"/>
</g>
<!-- Node10 -->
<g id="node10" class="node">
<title>Node10</title>
<g id="a_node10"><a xlink:href="redis__ipc_8c.html#aefb4508c1883e7d4345b206076b19e5d" target="_top" xlink:title=" ">
<polygon fill="white" stroke="black" points="507,-522.28 507,-540.28 596,-540.28 596,-522.28 507,-522.28"/>
<text text-anchor="middle" x="551.5" y="-529.08" font-family="Helvetica,sans-Serif" font-size="9.00">redis_command</text>
</a>
</g>
</g>
<!-- Node1&#45;&gt;Node10 -->
<g id="edge11" class="edge">
<title>Node1&#45;&gt;Node10</title>
<path fill="none" stroke="midnightblue" d="M798.57,-516.15C738.28,-519.85 648.88,-525.35 596.06,-528.6"/>
<polygon fill="midnightblue" stroke="midnightblue" points="798.97,-519.63 808.73,-515.52 798.54,-512.64 798.97,-519.63"/>
</g>
<!-- Node13 -->
<g id="node13" class="node">
<title>Node13</title>
<g id="a_node13"><a xlink:href="redis__ipc_8h.html#a3cfe2b5851e3cf7ef8acaafa0f409fae" target="_top" xlink:title=" ">
<polygon fill="white" stroke="black" points="180,-750.28 180,-768.28 297,-768.28 297,-750.28 180,-750.28"/>
<text text-anchor="middle" x="238.5" y="-757.08" font-family="Helvetica,sans-Serif" font-size="9.00">redis_ipc_read_setting</text>
</a>
</g>
</g>
<!-- Node1&#45;&gt;Node13 -->
<g id="edge37" class="edge">
<title>Node1&#45;&gt;Node13</title>
<path fill="none" stroke="midnightblue" d="M852.47,-530.67C838.79,-556.72 810.36,-604.2 773,-631.28 625.87,-737.88 401.8,-756.68 297.13,-759.34"/>
<polygon fill="midnightblue" stroke="midnightblue" points="855.71,-532.02 857.13,-521.52 849.47,-528.84 855.71,-532.02"/>
</g>
<!-- Node14 -->
<g id="node14" class="node">
<title>Node14</title>
<g id="a_node14"><a xlink:href="redis__ipc_8h.html#ada50e7500b7b76526f3dbe186d330335" target="_top" xlink:title=" ">
<polygon fill="white" stroke="black" points="182,-695.28 182,-713.28 295,-713.28 295,-695.28 182,-695.28"/>
<text text-anchor="middle" x="238.5" y="-702.08" font-family="Helvetica,sans-Serif" font-size="9.00">redis_ipc_read_status</text>
</a>
</g>
</g>
<!-- Node1&#45;&gt;Node14 -->
<g id="edge39" class="edge">
<title>Node1&#45;&gt;Node14</title>
<path fill="none" stroke="midnightblue" d="M847.87,-529.14C831.9,-547.73 803.7,-577.14 773,-593.28 613.48,-677.14 395.95,-697.65 295.07,-702.66"/>
<polygon fill="midnightblue" stroke="midnightblue" points="850.57,-531.36 854.31,-521.44 845.21,-526.86 850.57,-531.36"/>
</g>
<!-- Node16 -->
<g id="node16" class="node">
<title>Node16</title>
<g id="a_node16"><a xlink:href="redis__ipc_8h.html#a6afa8c8738fc3e50675c93724dfe2236" target="_top" xlink:title=" ">
<polygon fill="white" stroke="black" points="180,-631.28 180,-659.28 297,-659.28 297,-631.28 180,-631.28"/>
<text text-anchor="start" x="188" y="-648.08" font-family="Helvetica,sans-Serif" font-size="9.00">redis_ipc_read_setting</text>
<text text-anchor="middle" x="238.5" y="-638.08" font-family="Helvetica,sans-Serif" font-size="9.00">_field</text>
</a>
</g>
</g>
<!-- Node1&#45;&gt;Node16 -->
<g id="edge38" class="edge">
<title>Node1&#45;&gt;Node16</title>
<path fill="none" stroke="midnightblue" d="M839.59,-527.08C822.24,-538.13 797.01,-552.74 773,-561.28 606.91,-620.33 397.05,-637.95 297.27,-643.14"/>
<polygon fill="midnightblue" stroke="midnightblue" points="841.89,-529.76 848.36,-521.37 838.07,-523.9 841.89,-529.76"/>
</g>
<!-- Node17 -->
<g id="node17" class="node">
<title>Node17</title>
<g id="a_node17"><a xlink:href="redis__ipc_8h.html#ad71c568720d1ca8e41c247516841eac4" target="_top" xlink:title=" ">
<polygon fill="white" stroke="black" points="182,-584.28 182,-612.28 295,-612.28 295,-584.28 182,-584.28"/>
<text text-anchor="start" x="190" y="-601.08" font-family="Helvetica,sans-Serif" font-size="9.00">redis_ipc_read_status</text>
<text text-anchor="middle" x="238.5" y="-591.08" font-family="Helvetica,sans-Serif" font-size="9.00">_field</text>
</a>
</g>
</g>
<!-- Node1&#45;&gt;Node17 -->
<g id="edge40" class="edge">
<title>Node1&#45;&gt;Node17</title>
<path fill="none" stroke="midnightblue" d="M819.88,-523.96C805.14,-527.87 788.4,-532.04 773,-535.28 630.7,-565.15 594.59,-571.9 450,-587.28 397.6,-592.85 337.55,-595.63 295.03,-597"/>
<polygon fill="midnightblue" stroke="midnightblue" points="820.97,-527.29 829.72,-521.31 819.15,-520.53 820.97,-527.29"/>
</g>
<!-- Node19 -->
<g id="node19" class="node">
<title>Node19</title>
<g id="a_node19"><a xlink:href="redis__ipc_8h.html#ac22692af167c24369831321eb5a1aa20" target="_top" xlink:title=" ">
<polygon fill="white" stroke="black" points="186.5,-242.28 186.5,-270.28 290.5,-270.28 290.5,-242.28 186.5,-242.28"/>
<text text-anchor="start" x="194.5" y="-259.08" font-family="Helvetica,sans-Serif" font-size="9.00">redis_ipc_subscribe</text>
<text text-anchor="middle" x="238.5" y="-249.08" font-family="Helvetica,sans-Serif" font-size="9.00">_debug</text>
</a>
</g>
</g>
<!-- Node1&#45;&gt;Node19 -->
<g id="edge46" class="edge">
<title>Node1&#45;&gt;Node19</title>
<path fill="none" stroke="midnightblue" d="M858.96,-492.75C852.6,-452.28 831.98,-359.26 773,-314.28 698.18,-257.21 409.27,-254.09 290.71,-255.31"/>
<polygon fill="midnightblue" stroke="midnightblue" points="855.54,-493.5 860.43,-502.9 862.46,-492.5 855.54,-493.5"/>
</g>
<!-- Node20 -->
<g id="node20" class="node">
<title>Node20</title>
<g id="a_node20"><a xlink:href="redis__ipc_8h.html#a26390ed4efc19636cc62fc3adf9e3278" target="_top" xlink:title=" ">
<polygon fill="white" stroke="black" points="186.5,-185.28 186.5,-213.28 290.5,-213.28 290.5,-185.28 186.5,-185.28"/>
<text text-anchor="start" x="194.5" y="-202.08" font-family="Helvetica,sans-Serif" font-size="9.00">redis_ipc_subscribe</text>
<text text-anchor="middle" x="238.5" y="-192.08" font-family="Helvetica,sans-Serif" font-size="9.00">_events</text>
</a>
</g>
</g>
<!-- Node1&#45;&gt;Node20 -->
<g id="edge47" class="edge">
<title>Node1&#45;&gt;Node20</title>
<path fill="none" stroke="midnightblue" d="M858.76,-492.93C849.75,-432.23 818.93,-247.54 773,-212.28 698.78,-155.29 409.52,-180.14 290.79,-193.16"/>
<polygon fill="midnightblue" stroke="midnightblue" points="855.33,-493.65 860.23,-503.04 862.26,-492.64 855.33,-493.65"/>
</g>
<!-- Node22 -->
<g id="node22" class="node">
<title>Node22</title>
<g id="a_node22"><a xlink:href="redis__ipc_8h.html#a526138f5c01d96f3174e41a8aaa4d8fa" target="_top" xlink:title=" ">
<polygon fill="white" stroke="black" points="180.5,-360.28 180.5,-388.28 296.5,-388.28 296.5,-360.28 180.5,-360.28"/>
<text text-anchor="start" x="188.5" y="-377.08" font-family="Helvetica,sans-Serif" font-size="9.00">redis_ipc_unsubscribe</text>
<text text-anchor="middle" x="238.5" y="-367.08" font-family="Helvetica,sans-Serif" font-size="9.00">_debug</text>
</a>
</g>
</g>
<!-- Node1&#45;&gt;Node22 -->
<g id="edge48" class="edge">
<title>Node1&#45;&gt;Node22</title>
<path fill="none" stroke="midnightblue" d="M853.34,-493.62C840.56,-467 813.07,-419.03 773,-398.28 691.49,-356.07 416.92,-364.79 296.69,-370.91"/>
<polygon fill="midnightblue" stroke="midnightblue" points="850.29,-495.36 857.65,-502.99 856.65,-492.44 850.29,-495.36"/>
</g>
<!-- Node23 -->
<g id="node23" class="node">
<title>Node23</title>
<g id="a_node23"><a xlink:href="redis__ipc_8h.html#ab0de58de598a36be8c674c2f44a62c60" target="_top" xlink:title=" ">
<polygon fill="white" stroke="black" points="180.5,-303.28 180.5,-331.28 296.5,-331.28 296.5,-303.28 180.5,-303.28"/>
<text text-anchor="start" x="188.5" y="-320.08" font-family="Helvetica,sans-Serif" font-size="9.00">redis_ipc_unsubscribe</text>
<text text-anchor="middle" x="238.5" y="-310.08" font-family="Helvetica,sans-Serif" font-size="9.00">_events</text>
</a>
</g>
</g>
<!-- Node1&#45;&gt;Node23 -->
<g id="edge49" class="edge">
<title>Node1&#45;&gt;Node23</title>
<path fill="none" stroke="midnightblue" d="M855.62,-493.22C844.82,-461.69 818.64,-399.22 773,-369.28 624.57,-271.91 401.14,-290.77 296.88,-306.71"/>
<polygon fill="midnightblue" stroke="midnightblue" points="852.37,-494.55 858.81,-502.97 859.03,-492.38 852.37,-494.55"/>
</g>
<!-- Node25 -->
<g id="node25" class="node">
<title>Node25</title>
<g id="a_node25"><a xlink:href="redis__ipc_8h.html#aef76ea4158d5075f2c2c0041ec62d1d5" target="_top" xlink:title=" ">
<polygon fill="white" stroke="black" points="179,-472.28 179,-500.28 298,-500.28 298,-472.28 179,-472.28"/>
<text text-anchor="start" x="187" y="-489.08" font-family="Helvetica,sans-Serif" font-size="9.00">redis_ipc_write_setting</text>
<text text-anchor="middle" x="238.5" y="-479.08" font-family="Helvetica,sans-Serif" font-size="9.00">_field</text>
</a>
</g>
</g>
<!-- Node1&#45;&gt;Node25 -->
<g id="edge51" class="edge">
<title>Node1&#45;&gt;Node25</title>
<path fill="none" stroke="midnightblue" d="M798.56,-509.65C677.9,-504.6 415.65,-493.64 298.31,-488.73"/>
<polygon fill="midnightblue" stroke="midnightblue" points="798.6,-513.15 808.74,-510.07 798.89,-506.16 798.6,-513.15"/>
</g>
<!-- Node26 -->
<g id="node26" class="node">
<title>Node26</title>
<g id="a_node26"><a xlink:href="redis__ipc_8h.html#a1ccd53107db1e7be09bb4e958975720e" target="_top" xlink:title=" ">
<polygon fill="white" stroke="black" points="180.5,-417.28 180.5,-445.28 296.5,-445.28 296.5,-417.28 180.5,-417.28"/>
<text text-anchor="start" x="188.5" y="-434.08" font-family="Helvetica,sans-Serif" font-size="9.00">redis_ipc_write_status</text>
<text text-anchor="middle" x="238.5" y="-424.08" font-family="Helvetica,sans-Serif" font-size="9.00">_field</text>
</a>
</g>
</g>
<!-- Node1&#45;&gt;Node26 -->
<g id="edge53" class="edge">
<title>Node1&#45;&gt;Node26</title>
<path fill="none" stroke="midnightblue" d="M814,-500.96C737.76,-483.37 583.13,-450.06 450,-436.28 398.37,-430.93 339.25,-429.98 296.83,-430.19"/>
<polygon fill="midnightblue" stroke="midnightblue" points="813.25,-504.38 823.78,-503.23 814.83,-497.56 813.25,-504.38"/>
</g>
<!-- Node27 -->
<g id="node27" class="node">
<title>Node27</title>
<g id="a_node27"><a xlink:href="redis__ipc_8c.html#a73fec3f4f77b193da7b8231788ee84f2" target="_top" xlink:title=" ">
<polygon fill="white" stroke="black" points="486,-218.28 486,-236.28 617,-236.28 617,-218.28 486,-218.28"/>
<text text-anchor="middle" x="551.5" y="-225.08" font-family="Helvetica,sans-Serif" font-size="9.00">redis_command_from_list</text>
</a>
</g>
</g>
<!-- Node1&#45;&gt;Node27 -->
<g id="edge32" class="edge">
<title>Node1&#45;&gt;Node27</title>
<path fill="none" stroke="midnightblue" d="M861.48,-493.01C860.29,-443.77 849.7,-312.81 773,-251.28 725.99,-213.56 654.06,-212.99 605.23,-218.24"/>
<polygon fill="midnightblue" stroke="midnightblue" points="857.98,-493.25 861.62,-503.21 864.98,-493.16 857.98,-493.25"/>
</g>
<!-- Node29 -->
<g id="node29" class="node">
<title>Node29</title>
<g id="a_node29"><a xlink:href="redis__ipc_8h.html#a11db23f8f055e2d63fd8308c3d382da4" target="_top" xlink:title=" ">
<polygon fill="white" stroke="black" points="179,-132.28 179,-150.28 298,-150.28 298,-132.28 179,-132.28"/>
<text text-anchor="middle" x="238.5" y="-139.08" font-family="Helvetica,sans-Serif" font-size="9.00">redis_ipc_write_setting</text>
</a>
</g>
</g>
<!-- Node1&#45;&gt;Node29 -->
<g id="edge50" class="edge">
<title>Node1&#45;&gt;Node29</title>
<path fill="none" stroke="midnightblue" d="M859.22,-492.99C851.13,-428.11 821.69,-219.36 773,-176.28 626.14,-46.35 358.37,-107.02 269.24,-132.2"/>
<polygon fill="midnightblue" stroke="midnightblue" points="855.76,-493.55 860.44,-503.06 862.71,-492.71 855.76,-493.55"/>
</g>
<!-- Node30 -->
<g id="node30" class="node">
<title>Node30</title>
<g id="a_node30"><a xlink:href="redis__ipc_8h.html#ab7d4be95434367c1b7dd526ebbab77a1" target="_top" xlink:title=" ">
<polygon fill="white" stroke="black" points="180.5,-63.28 180.5,-81.28 296.5,-81.28 296.5,-63.28 180.5,-63.28"/>
<text text-anchor="middle" x="238.5" y="-70.08" font-family="Helvetica,sans-Serif" font-size="9.00">redis_ipc_write_status</text>
</a>
</g>
</g>
<!-- Node1&#45;&gt;Node30 -->
<g id="edge52" class="edge">
<title>Node1&#45;&gt;Node30</title>
<path fill="none" stroke="midnightblue" d="M860.78,-492.76C857.45,-413.97 840.59,-120.8 773,-65.28 617.32,62.6 341.07,-31.87 261.51,-63.17"/>
<polygon fill="midnightblue" stroke="midnightblue" points="857.3,-493.29 861.2,-503.14 864.3,-493.01 857.3,-493.29"/>
</g>
<!-- Node31 -->
<g id="node31" class="node">
<title>Node31</title>
<g id="a_node31"><a xlink:href="redis__ipc_8h.html#ac678ffdefda8e893d287e04d05e65347" target="_top" xlink:title=" ">
<polygon fill="white" stroke="black" points="653,-75.28 653,-103.28 773,-103.28 773,-75.28 653,-75.28"/>
<text text-anchor="start" x="661" y="-92.08" font-family="Helvetica,sans-Serif" font-size="9.00">redis_ipc_get_message</text>
<text text-anchor="middle" x="713" y="-82.08" font-family="Helvetica,sans-Serif" font-size="9.00">_blocking</text>
</a>
</g>
</g>
<!-- Node1&#45;&gt;Node31 -->
<g id="edge36" class="edge">
<title>Node1&#45;&gt;Node31</title>
<path fill="none" stroke="midnightblue" d="M859.39,-493.11C851.32,-422.58 820.38,-178.39 773,-118.28 768.2,-112.18 761.78,-107.28 754.95,-103.36"/>
<polygon fill="midnightblue" stroke="midnightblue" points="855.93,-493.67 860.53,-503.22 862.89,-492.89 855.93,-493.67"/>
</g>
<!-- Node32 -->
<g id="node32" class="node">
<title>Node32</title>
<g id="a_node32"><a xlink:href="redis__ipc_8c.html#ae88037651d88f63c62d32afd7e0fccf2" target="_top" xlink:title=" ">
<polygon fill="white" stroke="black" points="660.5,-408.28 660.5,-426.28 765.5,-426.28 765.5,-408.28 660.5,-408.28"/>
<text text-anchor="middle" x="713" y="-415.08" font-family="Helvetica,sans-Serif" font-size="9.00">validate_redis_reply</text>
</a>
</g>
</g>
<!-- Node1&#45;&gt;Node32 -->
<g id="edge54" class="edge">
<title>Node1&#45;&gt;Node32</title>
<path fill="none" stroke="midnightblue" d="M844.36,-496C827.3,-480.43 799.85,-457.06 773,-441.28 762.99,-435.39 751.26,-430.3 740.92,-426.34"/>
<polygon fill="midnightblue" stroke="midnightblue" points="842.14,-498.71 851.85,-502.94 846.9,-493.58 842.14,-498.71"/>
</g>
<!-- Node3 -->
<g id="node3" class="node">
<title>Node3</title>
<g id="a_node3"><a xlink:href="redis__ipc_8c.html#ab3dc5609833c201c4e9ebaa5e2e70a2f" target="_top" xlink:title=" ">
<polygon fill="white" stroke="black" points="354,-864.28 354,-882.28 430,-882.28 430,-864.28 354,-864.28"/>
<text text-anchor="middle" x="392" y="-871.08" font-family="Helvetica,sans-Serif" font-size="9.00">redis_publish</text>
</a>
</g>
</g>
<!-- Node2&#45;&gt;Node3 -->
<g id="edge2" class="edge">
<title>Node2&#45;&gt;Node3</title>
<path fill="none" stroke="midnightblue" d="M522.57,-810.76C490.59,-826.18 439.12,-851.02 411.66,-864.27"/>
<polygon fill="midnightblue" stroke="midnightblue" points="524.33,-813.79 531.81,-806.29 521.29,-807.49 524.33,-813.79"/>
</g>
<!-- Node9 -->
<g id="node9" class="node">
<title>Node9</title>
<g id="a_node9"><a xlink:href="redis__ipc_8c.html#ae826a119ee7ca11d9636c6f34b9a29e9" target="_top" xlink:title=" ">
<polygon fill="white" stroke="black" points="359.5,-788.28 359.5,-806.28 424.5,-806.28 424.5,-788.28 359.5,-788.28"/>
<text text-anchor="middle" x="392" y="-795.08" font-family="Helvetica,sans-Serif" font-size="9.00">redis_push</text>
</a>
</g>
</g>
<!-- Node2&#45;&gt;Node9 -->
<g id="edge8" class="edge">
<title>Node2&#45;&gt;Node9</title>
<path fill="none" stroke="midnightblue" d="M476.8,-797.28C458.52,-797.28 439.88,-797.28 424.83,-797.28"/>
<polygon fill="midnightblue" stroke="midnightblue" points="476.89,-800.78 486.89,-797.28 476.89,-793.78 476.89,-800.78"/>
</g>
<!-- Node3&#45;&gt;Node4 -->
<g id="edge3" class="edge">
<title>Node3&#45;&gt;Node4</title>
<path fill="none" stroke="midnightblue" d="M343.88,-873.28C328.9,-873.28 312.16,-873.28 296.55,-873.28"/>
<polygon fill="midnightblue" stroke="midnightblue" points="343.94,-876.78 353.94,-873.28 343.94,-869.78 343.94,-876.78"/>
</g>
<!-- Node3&#45;&gt;Node8 -->
<g id="edge7" class="edge">
<title>Node3&#45;&gt;Node8</title>
<path fill="none" stroke="midnightblue" d="M367.5,-887.46C348.94,-898.4 322.23,-913.59 298,-925.28 286.83,-930.67 274.12,-935.98 263.41,-940.22"/>
<polygon fill="midnightblue" stroke="midnightblue" points="369.35,-890.43 376.15,-882.31 365.77,-884.41 369.35,-890.43"/>
</g>
<!-- Node4&#45;&gt;Node5 -->
<g id="edge4" class="edge">
<title>Node4&#45;&gt;Node5</title>
<path fill="none" stroke="midnightblue" d="M170.25,-872.46C161.28,-872.35 152.05,-872.24 143.02,-872.13"/>
<polygon fill="midnightblue" stroke="midnightblue" points="170.21,-875.96 180.25,-872.58 170.3,-868.96 170.21,-875.96"/>
</g>
<!-- Node4&#45;&gt;Node6 -->
<g id="edge5" class="edge">
<title>Node4&#45;&gt;Node6</title>
<path fill="none" stroke="midnightblue" d="M203.7,-860.78C176.59,-850.76 138.55,-836.7 110.41,-826.29"/>
<polygon fill="midnightblue" stroke="midnightblue" points="202.56,-864.09 213.15,-864.28 204.99,-857.53 202.56,-864.09"/>
</g>
<!-- Node4&#45;&gt;Node7 -->
<g id="edge6" class="edge">
<title>Node4&#45;&gt;Node7</title>
<path fill="none" stroke="midnightblue" d="M190.21,-884.74C164.68,-890.93 133.6,-898.46 109.79,-904.24"/>
<polygon fill="midnightblue" stroke="midnightblue" points="191.17,-888.11 200.06,-882.35 189.52,-881.31 191.17,-888.11"/>
</g>
<!-- Node9&#45;&gt;Node6 -->
<g id="edge9" class="edge">
<title>Node9&#45;&gt;Node6</title>
<path fill="none" stroke="midnightblue" d="M349.1,-799.25C295.36,-801.78 201.54,-806.2 138.24,-809.18"/>
<polygon fill="midnightblue" stroke="midnightblue" points="349.47,-802.74 359.3,-798.77 349.14,-795.74 349.47,-802.74"/>
</g>
<!-- Node9&#45;&gt;Node7 -->
<g id="edge10" class="edge">
<title>Node9&#45;&gt;Node7</title>
<path fill="none" stroke="midnightblue" d="M374.51,-813.65C363.09,-825.01 347.57,-840.51 334,-854.28 317.89,-870.61 318.68,-881.33 298,-891.28 244.47,-917.01 175.63,-920.04 128.17,-918.2"/>
<polygon fill="midnightblue" stroke="midnightblue" points="377.06,-816.05 381.68,-806.52 372.12,-811.09 377.06,-816.05"/>
</g>
<!-- Node10&#45;&gt;Node3 -->
<g id="edge15" class="edge">
<title>Node10&#45;&gt;Node3</title>
<path fill="none" stroke="midnightblue" d="M546.69,-550.7C536.69,-598.58 506.44,-724.93 450,-815.28 437.58,-835.15 417.3,-853.64 404.58,-864.18"/>
<polygon fill="midnightblue" stroke="midnightblue" points="550.15,-551.25 548.71,-540.76 543.29,-549.86 550.15,-551.25"/>
</g>
<!-- Node10&#45;&gt;Node9 -->
<g id="edge16" class="edge">
<title>Node10&#45;&gt;Node9</title>
<path fill="none" stroke="midnightblue" d="M543.72,-550.32C529.69,-588.32 494.97,-675.4 450,-739.28 436.51,-758.44 416.55,-777.14 404.18,-787.92"/>
<polygon fill="midnightblue" stroke="midnightblue" points="547.14,-551.16 547.26,-540.57 540.56,-548.77 547.14,-551.16"/>
</g>
<!-- Node11 -->
<g id="node11" class="node">
<title>Node11</title>
<g id="a_node11"><a xlink:href="redis__ipc_8c.html#aad35a453c0c1dea3338257c3e6841afe" target="_top" xlink:title=" ">
<polygon fill="white" stroke="black" points="208.5,-547.28 208.5,-565.28 268.5,-565.28 268.5,-547.28 208.5,-547.28"/>
<text text-anchor="middle" x="238.5" y="-554.08" font-family="Helvetica,sans-Serif" font-size="9.00">redis_pop</text>
</a>
</g>
</g>
<!-- Node10&#45;&gt;Node11 -->
<g id="edge12" class="edge">
<title>Node10&#45;&gt;Node11</title>
<path fill="none" stroke="midnightblue" d="M496.72,-535.6C430.67,-540.91 321,-549.73 268.82,-553.92"/>
<polygon fill="midnightblue" stroke="midnightblue" points="497.24,-539.07 506.93,-534.78 496.68,-532.09 497.24,-539.07"/>
</g>
<!-- Node12 -->
<g id="node12" class="node">
<title>Node12</title>
<g id="a_node12"><a xlink:href="redis__ipc_8c.html#a94fc3b660886cc8cc8e69692e0f5ca78" target="_top" xlink:title=" ">
<polygon fill="white" stroke="black" points="347.5,-712.28 347.5,-730.28 436.5,-730.28 436.5,-712.28 347.5,-712.28"/>
<text text-anchor="middle" x="392" y="-719.08" font-family="Helvetica,sans-Serif" font-size="9.00">redis_read_hash</text>
</a>
</g>
</g>
<!-- Node10&#45;&gt;Node12 -->
<g id="edge17" class="edge">
<title>Node10&#45;&gt;Node12</title>
<path fill="none" stroke="midnightblue" d="M536.39,-548.29C504.01,-587.36 425.2,-682.43 400.52,-712.2"/>
<polygon fill="midnightblue" stroke="midnightblue" points="539.22,-550.37 542.9,-540.44 533.83,-545.91 539.22,-550.37"/>
</g>
<!-- Node15 -->
<g id="node15" class="node">
<title>Node15</title>
<g id="a_node15"><a xlink:href="redis__ipc_8c.html#abbcf0019b124792da8357b2fa972e11a" target="_top" xlink:title=" ">
<polygon fill="white" stroke="black" points="335.5,-560.28 335.5,-578.28 448.5,-578.28 448.5,-560.28 335.5,-560.28"/>
<text text-anchor="middle" x="392" y="-567.08" font-family="Helvetica,sans-Serif" font-size="9.00">redis_read_hash_field</text>
</a>
</g>
</g>
<!-- Node10&#45;&gt;Node15 -->
<g id="edge20" class="edge">
<title>Node10&#45;&gt;Node15</title>
<path fill="none" stroke="midnightblue" d="M503.15,-542.7C479.83,-548.33 452.12,-555.01 430.33,-560.27"/>
<polygon fill="midnightblue" stroke="midnightblue" points="504.27,-546.03 513.17,-540.28 502.63,-539.22 504.27,-546.03"/>
</g>
<!-- Node18 -->
<g id="node18" class="node">
<title>Node18</title>
<g id="a_node18"><a xlink:href="redis__ipc_8c.html#a420fcd64722043e4bc0bb7f61a29d588" target="_top" xlink:title=" ">
<polygon fill="white" stroke="black" points="349,-218.28 349,-236.28 435,-236.28 435,-218.28 349,-218.28"/>
<text text-anchor="middle" x="392" y="-225.08" font-family="Helvetica,sans-Serif" font-size="9.00">redis_subscribe</text>
</a>
</g>
</g>
<!-- Node10&#45;&gt;Node18 -->
<g id="edge23" class="edge">
<title>Node10&#45;&gt;Node18</title>
<path fill="none" stroke="midnightblue" d="M542.16,-512.46C525.61,-475.49 487.03,-390.99 450,-322.28 432.57,-289.94 409.42,-252.97 398.79,-236.29"/>
<polygon fill="midnightblue" stroke="midnightblue" points="539.12,-514.25 546.39,-521.96 545.52,-511.4 539.12,-514.25"/>
</g>
<!-- Node21 -->
<g id="node21" class="node">
<title>Node21</title>
<g id="a_node21"><a xlink:href="redis__ipc_8c.html#a40d3af6ed926711313712685503a1c91" target="_top" xlink:title=" ">
<polygon fill="white" stroke="black" points="343,-332.28 343,-350.28 441,-350.28 441,-332.28 343,-332.28"/>
<text text-anchor="middle" x="392" y="-339.08" font-family="Helvetica,sans-Serif" font-size="9.00">redis_unsubscribe</text>
</a>
</g>
</g>
<!-- Node10&#45;&gt;Node21 -->
<g id="edge26" class="edge">
<title>Node10&#45;&gt;Node21</title>
<path fill="none" stroke="midnightblue" d="M536.39,-514.26C504.01,-475.19 425.2,-380.12 400.52,-350.35"/>
<polygon fill="midnightblue" stroke="midnightblue" points="533.83,-516.65 542.9,-522.11 539.22,-512.18 533.83,-516.65"/>
</g>
<!-- Node24 -->
<g id="node24" class="node">
<title>Node24</title>
<g id="a_node24"><a xlink:href="redis__ipc_8c.html#ad0c6708404743ef74dddacc617fb8b8e" target="_top" xlink:title=" ">
<polygon fill="white" stroke="black" points="334,-446.28 334,-464.28 450,-464.28 450,-446.28 334,-446.28"/>
<text text-anchor="middle" x="392" y="-453.08" font-family="Helvetica,sans-Serif" font-size="9.00">redis_write_hash_field</text>
</a>
</g>
</g>
<!-- Node10&#45;&gt;Node24 -->
<g id="edge29" class="edge">
<title>Node10&#45;&gt;Node24</title>
<path fill="none" stroke="midnightblue" d="M522.57,-517.8C490.59,-502.37 439.12,-477.53 411.66,-464.28"/>
<polygon fill="midnightblue" stroke="midnightblue" points="521.29,-521.07 531.81,-522.26 524.33,-514.76 521.29,-521.07"/>
</g>
<!-- Node11&#45;&gt;Node5 -->
<g id="edge13" class="edge">
<title>Node11&#45;&gt;Node5</title>
<path fill="none" stroke="midnightblue" d="M198.22,-561.67C190.92,-564.38 184.02,-568.38 179,-574.28 103.14,-663.48 210.84,-739.83 143,-835.28 136.31,-844.69 126.42,-851.8 116.15,-857.1"/>
<polygon fill="midnightblue" stroke="midnightblue" points="199.68,-564.9 208.3,-558.74 197.72,-558.18 199.68,-564.9"/>
</g>
<!-- Node11&#45;&gt;Node6 -->
<g id="edge14" class="edge">
<title>Node11&#45;&gt;Node6</title>
<path fill="none" stroke="midnightblue" d="M198.59,-563.16C191.49,-565.76 184.58,-569.34 179,-574.28 107.8,-637.26 81.75,-757.07 74.68,-798.09"/>
<polygon fill="midnightblue" stroke="midnightblue" points="199.74,-566.46 208.27,-560.18 197.69,-559.77 199.74,-566.46"/>
</g>
<!-- Node12&#45;&gt;Node13 -->
<g id="edge18" class="edge">
<title>Node12&#45;&gt;Node13</title>
<path fill="none" stroke="midnightblue" d="M345.15,-732.78C322.78,-738.39 296.28,-745.04 275.41,-750.27"/>
<polygon fill="midnightblue" stroke="midnightblue" points="346.25,-736.11 355.1,-730.28 344.55,-729.32 346.25,-736.11"/>
</g>
<!-- Node12&#45;&gt;Node14 -->
<g id="edge19" class="edge">
<title>Node12&#45;&gt;Node14</title>
<path fill="none" stroke="midnightblue" d="M337.01,-715.22C323.41,-713.69 308.78,-712.05 295.1,-710.52"/>
<polygon fill="midnightblue" stroke="midnightblue" points="336.85,-718.72 347.18,-716.36 337.63,-711.77 336.85,-718.72"/>
</g>
<!-- Node15&#45;&gt;Node16 -->
<g id="edge21" class="edge">
<title>Node15&#45;&gt;Node16</title>
<path fill="none" stroke="midnightblue" d="M367.5,-583.46C348.94,-594.4 322.23,-609.59 298,-621.28 290.88,-624.71 283.14,-628.11 275.69,-631.23"/>
<polygon fill="midnightblue" stroke="midnightblue" points="369.35,-586.43 376.15,-578.31 365.77,-580.41 369.35,-586.43"/>
</g>
<!-- Node15&#45;&gt;Node17 -->
<g id="edge22" class="edge">
<title>Node15&#45;&gt;Node17</title>
<path fill="none" stroke="midnightblue" d="M333.89,-580.21C321.18,-582.64 307.72,-585.22 295.08,-587.64"/>
<polygon fill="midnightblue" stroke="midnightblue" points="334.73,-583.61 343.89,-578.29 333.42,-576.74 334.73,-583.61"/>
</g>
<!-- Node18&#45;&gt;Node19 -->
<g id="edge24" class="edge">
<title>Node18&#45;&gt;Node19</title>
<path fill="none" stroke="midnightblue" d="M338.8,-237.27C323.21,-240.25 306.15,-243.52 290.63,-246.49"/>
<polygon fill="midnightblue" stroke="midnightblue" points="339.64,-240.67 348.8,-235.35 338.32,-233.8 339.64,-240.67"/>
</g>
<!-- Node18&#45;&gt;Node20 -->
<g id="edge25" class="edge">
<title>Node18&#45;&gt;Node20</title>
<path fill="none" stroke="midnightblue" d="M338.8,-217.63C323.21,-214.75 306.15,-211.59 290.63,-208.73"/>
<polygon fill="midnightblue" stroke="midnightblue" points="338.33,-221.1 348.8,-219.48 339.6,-214.22 338.33,-221.1"/>
</g>
<!-- Node21&#45;&gt;Node22 -->
<g id="edge27" class="edge">
<title>Node21&#45;&gt;Node22</title>
<path fill="none" stroke="midnightblue" d="M339.78,-352.43C325.94,-355.45 310.89,-358.73 296.75,-361.81"/>
<polygon fill="midnightblue" stroke="midnightblue" points="340.58,-355.84 349.6,-350.29 339.09,-349 340.58,-355.84"/>
</g>
<!-- Node21&#45;&gt;Node23 -->
<g id="edge28" class="edge">
<title>Node21&#45;&gt;Node23</title>
<path fill="none" stroke="midnightblue" d="M332.49,-332.01C320.72,-330.14 308.37,-328.19 296.65,-326.33"/>
<polygon fill="midnightblue" stroke="midnightblue" points="332.22,-335.51 342.65,-333.62 333.32,-328.59 332.22,-335.51"/>
</g>
<!-- Node24&#45;&gt;Node25 -->
<g id="edge30" class="edge">
<title>Node24&#45;&gt;Node25</title>
<path fill="none" stroke="midnightblue" d="M336.91,-466.34C324.34,-468.92 310.91,-471.66 298.16,-474.27"/>
<polygon fill="midnightblue" stroke="midnightblue" points="337.68,-469.76 346.77,-464.33 336.27,-462.9 337.68,-469.76"/>
</g>
<!-- Node24&#45;&gt;Node26 -->
<g id="edge31" class="edge">
<title>Node24&#45;&gt;Node26</title>
<path fill="none" stroke="midnightblue" d="M324.26,-444.7C315.06,-443.25 305.67,-441.76 296.66,-440.33"/>
<polygon fill="midnightblue" stroke="midnightblue" points="323.73,-448.16 334.16,-446.27 324.83,-441.25 323.73,-448.16"/>
</g>
<!-- Node28 -->
<g id="node28" class="node">
<title>Node28</title>
<g id="a_node28"><a xlink:href="redis__ipc_8c.html#ab4f8e083ca57feea4be05c015b0eac9f" target="_top" xlink:title=" ">
<polygon fill="white" stroke="black" points="346,-142.28 346,-160.28 438,-160.28 438,-142.28 346,-142.28"/>
<text text-anchor="middle" x="392" y="-149.08" font-family="Helvetica,sans-Serif" font-size="9.00">redis_write_hash</text>
</a>
</g>
</g>
<!-- Node27&#45;&gt;Node28 -->
<g id="edge33" class="edge">
<title>Node27&#45;&gt;Node28</title>
<path fill="none" stroke="midnightblue" d="M522.57,-213.8C490.59,-198.37 439.12,-173.53 411.66,-160.28"/>
<polygon fill="midnightblue" stroke="midnightblue" points="521.29,-217.07 531.81,-218.26 524.33,-210.76 521.29,-217.07"/>
</g>
<!-- Node28&#45;&gt;Node29 -->
<g id="edge34" class="edge">
<title>Node28&#45;&gt;Node29</title>
<path fill="none" stroke="midnightblue" d="M335.86,-147.64C323.59,-146.83 310.54,-145.97 298.14,-145.15"/>
<polygon fill="midnightblue" stroke="midnightblue" points="335.75,-151.14 345.96,-148.3 336.21,-144.15 335.75,-151.14"/>
</g>
<!-- Node28&#45;&gt;Node30 -->
<g id="edge35" class="edge">
<title>Node28&#45;&gt;Node30</title>
<path fill="none" stroke="midnightblue" d="M364.73,-137.58C333.9,-121.5 283.64,-95.3 257.14,-81.48"/>
<polygon fill="midnightblue" stroke="midnightblue" points="363.14,-140.69 373.62,-142.21 366.37,-134.49 363.14,-140.69"/>
</g>
<!-- Node32&#45;&gt;Node10 -->
<g id="edge55" class="edge">
<title>Node32&#45;&gt;Node10</title>
<path fill="none" stroke="midnightblue" d="M691.02,-432.27C657.49,-456.23 592.81,-502.46 565.34,-522.1"/>
<polygon fill="midnightblue" stroke="midnightblue" points="693.12,-435.08 699.22,-426.41 689.05,-429.38 693.12,-435.08"/>
</g>
<!-- Node32&#45;&gt;Node27 -->
<g id="edge56" class="edge">
<title>Node32&#45;&gt;Node27</title>
<path fill="none" stroke="midnightblue" d="M697.72,-400.26C664.92,-361.19 585.11,-266.12 560.12,-236.35"/>
<polygon fill="midnightblue" stroke="midnightblue" points="695.2,-402.7 704.31,-408.11 700.56,-398.2 695.2,-402.7"/>
</g>
</g>
</svg>
