<?xml version="1.0" encoding="UTF-8" standalone="no"?>
<!DOCTYPE svg PUBLIC "-//W3C//DTD SVG 1.1//EN"
 "http://www.w3.org/Graphics/SVG/1.1/DTD/svg11.dtd">
<!-- Generated by graphviz version 2.43.0 (0)
 -->
<!-- Title: gettid Pages: 1 -->
<svg width="1004pt" height="1048pt"
 viewBox="0.00 0.00 1004.00 1047.92" xmlns="http://www.w3.org/2000/svg" xmlns:xlink="http://www.w3.org/1999/xlink">
<g id="graph0" class="graph" transform="scale(1 1) rotate(0) translate(4 1043.92)">
<title>gettid</title>
<polygon fill="white" stroke="transparent" points="-4,4 -4,-1043.92 1000,-1043.92 1000,4 -4,4"/>
<!-- Node1 -->
<g id="node1" class="node">
<title>Node1</title>
<g id="a_node1"><a xlink:title=" ">
<polygon fill="#bfbfbf" stroke="black" points="952,-537.92 952,-555.92 996,-555.92 996,-537.92 952,-537.92"/>
<text text-anchor="middle" x="974" y="-544.72" font-family="Helvetica,sans-Serif" font-size="9.00">gettid</text>
</a>
</g>
</g>
<!-- Node2 -->
<g id="node2" class="node">
<title>Node2</title>
<g id="a_node2"><a xlink:href="redis__ipc_8c.html#aa2a3ce97c0b6f3e83572446f3c92e541" target="_top" xlink:title=" ">
<polygon fill="white" stroke="black" points="809,-537.92 809,-555.92 916,-555.92 916,-537.92 809,-537.92"/>
<text text-anchor="middle" x="862.5" y="-544.72" font-family="Helvetica,sans-Serif" font-size="9.00">get_per_thread_info</text>
</a>
</g>
</g>
<!-- Node1&#45;&gt;Node2 -->
<g id="edge1" class="edge">
<title>Node1&#45;&gt;Node2</title>
<path fill="none" stroke="midnightblue" d="M941.67,-546.92C933.75,-546.92 925.03,-546.92 916.37,-546.92"/>
<polygon fill="midnightblue" stroke="midnightblue" points="941.89,-550.42 951.89,-546.92 941.89,-543.42 941.89,-550.42"/>
</g>
<!-- Node3 -->
<g id="node3" class="node">
<title>Node3</title>
<g id="a_node3"><a xlink:href="redis__ipc_8c.html#a1ca0a131f083c0547523e40cae96936e" target="_top" xlink:title=" ">
<polygon fill="white" stroke="black" points="487,-816.92 487,-834.92 616,-834.92 616,-816.92 487,-816.92"/>
<text text-anchor="middle" x="551.5" y="-823.72" font-family="Helvetica,sans-Serif" font-size="9.00">json_add_common_fields</text>
</a>
</g>
</g>
<!-- Node1&#45;&gt;Node3 -->
<g id="edge58" class="edge">
<title>Node1&#45;&gt;Node3</title>
<path fill="none" stroke="midnightblue" d="M968.16,-565.86C952.16,-624.03 894.89,-800.25 773,-867.92 703.32,-906.6 604.26,-856.68 567.22,-835.03"/>
<polygon fill="midnightblue" stroke="midnightblue" points="971.56,-566.71 970.75,-556.14 964.8,-564.91 971.56,-566.71"/>
</g>
<!-- Node34 -->
<g id="node34" class="node">
<title>Node34</title>
<g id="a_node34"><a xlink:href="redis__ipc_8h.html#ad761c2631d54b43ea0a5426813bc4dd1" target="_top" xlink:title=" ">
<polygon fill="white" stroke="black" points="825,-500.92 825,-518.92 900,-518.92 900,-500.92 825,-500.92"/>
<text text-anchor="middle" x="862.5" y="-507.72" font-family="Helvetica,sans-Serif" font-size="9.00">redis_ipc_init</text>
</a>
</g>
</g>
<!-- Node1&#45;&gt;Node34 -->
<g id="edge59" class="edge">
<title>Node1&#45;&gt;Node34</title>
<path fill="none" stroke="midnightblue" d="M942.25,-536.53C925.94,-531.02 906.07,-524.3 890.37,-519"/>
<polygon fill="midnightblue" stroke="midnightblue" points="941.29,-539.9 951.89,-539.78 943.53,-533.27 941.29,-539.9"/>
</g>
<!-- Node2&#45;&gt;Node3 -->
<g id="edge2" class="edge">
<title>Node2&#45;&gt;Node3</title>
<path fill="none" stroke="midnightblue" d="M860.1,-566.23C855.77,-610.84 838.64,-721.54 773,-777.92 749.78,-797.86 672.76,-811.34 616.27,-818.82"/>
<polygon fill="midnightblue" stroke="midnightblue" points="863.59,-566.42 860.96,-556.16 856.62,-565.82 863.59,-566.42"/>
</g>
<!-- Node5 -->
<g id="node5" class="node">
<title>Node5</title>
<g id="a_node5"><a xlink:href="redis__ipc_8h.html#a66cdf2ae760d1acb487dd82c1392c12f" target="_top" xlink:title=" ">
<polygon fill="white" stroke="black" points="180.5,-840.92 180.5,-858.92 296.5,-858.92 296.5,-840.92 180.5,-840.92"/>
<text text-anchor="middle" x="238.5" y="-847.72" font-family="Helvetica,sans-Serif" font-size="9.00">redis_ipc_send_debug</text>
</a>
</g>
</g>
<!-- Node2&#45;&gt;Node5 -->
<g id="edge44" class="edge">
<title>Node2&#45;&gt;Node5</title>
<path fill="none" stroke="midnightblue" d="M859.18,-566.4C851.16,-630.12 822.36,-830.33 773,-867.92 695.39,-927.03 431.12,-877.09 334,-867.92 315.38,-866.16 294.96,-862.5 277.89,-858.93"/>
<polygon fill="midnightblue" stroke="midnightblue" points="862.69,-566.52 860.44,-556.17 855.75,-565.66 862.69,-566.52"/>
</g>
<!-- Node6 -->
<g id="node6" class="node">
<title>Node6</title>
<g id="a_node6"><a xlink:href="redis__ipc_8h.html#a6961dec4572f2b0b9f52ae09ae663728" target="_top" xlink:title=" ">
<polygon fill="white" stroke="black" points="0,-882.92 0,-910.92 143,-910.92 143,-882.92 0,-882.92"/>
<text text-anchor="start" x="8" y="-899.72" font-family="Helvetica,sans-Serif" font-size="9.00">redis_ipc_receive_command</text>
<text text-anchor="middle" x="71.5" y="-889.72" font-family="Helvetica,sans-Serif" font-size="9.00">_blocking</text>
</a>
</g>
</g>
<!-- Node2&#45;&gt;Node6 -->
<g id="edge42" class="edge">
<title>Node2&#45;&gt;Node6</title>
<path fill="none" stroke="midnightblue" d="M859.46,-566.14C851.62,-636.86 821.42,-881.64 773,-940.92 705.05,-1024.12 659.92,-1039.92 552.5,-1039.92 552.5,-1039.92 552.5,-1039.92 391,-1039.92 292.32,-1039.92 267.25,-1018.07 179,-973.92 144.11,-956.46 108.31,-927.97 88.39,-910.97"/>
<polygon fill="midnightblue" stroke="midnightblue" points="862.96,-566.32 860.56,-556 856,-565.57 862.96,-566.32"/>
</g>
<!-- Node7 -->
<g id="node7" class="node">
<title>Node7</title>
<g id="a_node7"><a xlink:href="redis__ipc_8h.html#a696ecebb5df3f171ed7b6adf682c83a2" target="_top" xlink:title=" ">
<polygon fill="white" stroke="black" points="5,-835.92 5,-863.92 138,-863.92 138,-835.92 5,-835.92"/>
<text text-anchor="start" x="13" y="-852.72" font-family="Helvetica,sans-Serif" font-size="9.00">redis_ipc_send_command</text>
<text text-anchor="middle" x="71.5" y="-842.72" font-family="Helvetica,sans-Serif" font-size="9.00">_blocking</text>
</a>
</g>
</g>
<!-- Node2&#45;&gt;Node7 -->
<g id="edge43" class="edge">
<title>Node2&#45;&gt;Node7</title>
<path fill="none" stroke="midnightblue" d="M859.5,-566.21C852.17,-633 824.45,-852.71 773,-896.92 672.58,-983.2 292.02,-1011.88 179,-942.92 149.14,-924.7 169.63,-895.6 143,-872.92 138.98,-869.5 134.44,-866.58 129.65,-864.09"/>
<polygon fill="midnightblue" stroke="midnightblue" points="862.99,-566.53 860.57,-556.22 856.03,-565.79 862.99,-566.53"/>
</g>
<!-- Node8 -->
<g id="node8" class="node">
<title>Node8</title>
<g id="a_node8"><a xlink:href="redis__ipc_8h.html#aecff1f4edcb2ebf0654d0fff21e334a5" target="_top" xlink:title=" ">
<polygon fill="white" stroke="black" points="15,-650.92 15,-668.92 128,-668.92 128,-650.92 15,-650.92"/>
<text text-anchor="middle" x="71.5" y="-657.72" font-family="Helvetica,sans-Serif" font-size="9.00">redis_ipc_send_result</text>
</a>
</g>
</g>
<!-- Node2&#45;&gt;Node8 -->
<g id="edge46" class="edge">
<title>Node2&#45;&gt;Node8</title>
<path fill="none" stroke="midnightblue" d="M812.65,-531.86C811.33,-530.65 810.11,-529.33 809,-527.92 761.89,-467.75 827.55,-239.44 773,-185.92 702.79,-117.03 650.86,-166.92 552.5,-166.92 552.5,-166.92 552.5,-166.92 391,-166.92 295.9,-166.92 249.19,-131.75 179,-195.92 108.08,-260.74 78.14,-590.54 73.23,-650.54"/>
<polygon fill="midnightblue" stroke="midnightblue" points="810.86,-534.88 821.05,-537.8 814.9,-529.17 810.86,-534.88"/>
</g>
<!-- Node9 -->
<g id="node9" class="node">
<title>Node9</title>
<g id="a_node9"><a xlink:href="redis__ipc_8h.html#a9040f6af2f364ef8da41175eb6073693" target="_top" xlink:title=" ">
<polygon fill="white" stroke="black" points="182,-915.92 182,-933.92 295,-933.92 295,-915.92 182,-915.92"/>
<text text-anchor="middle" x="238.5" y="-922.72" font-family="Helvetica,sans-Serif" font-size="9.00">redis_ipc_send_event</text>
</a>
</g>
</g>
<!-- Node2&#45;&gt;Node9 -->
<g id="edge45" class="edge">
<title>Node2&#45;&gt;Node9</title>
<path fill="none" stroke="midnightblue" d="M859.57,-566.26C852.44,-633.26 825.31,-853.71 773,-896.92 621.76,-1021.84 356.27,-959.46 268.55,-934"/>
<polygon fill="midnightblue" stroke="midnightblue" points="863.09,-566.23 860.63,-555.92 856.12,-565.51 863.09,-566.23"/>
</g>
<!-- Node11 -->
<g id="node11" class="node">
<title>Node11</title>
<g id="a_node11"><a xlink:href="redis__ipc_8c.html#aefb4508c1883e7d4345b206076b19e5d" target="_top" xlink:title=" ">
<polygon fill="white" stroke="black" points="507,-575.92 507,-593.92 596,-593.92 596,-575.92 507,-575.92"/>
<text text-anchor="middle" x="551.5" y="-582.72" font-family="Helvetica,sans-Serif" font-size="9.00">redis_command</text>
</a>
</g>
</g>
<!-- Node2&#45;&gt;Node11 -->
<g id="edge12" class="edge">
<title>Node2&#45;&gt;Node11</title>
<path fill="none" stroke="midnightblue" d="M798.66,-557.24C790.05,-558.55 781.31,-559.81 773,-560.92 711.74,-569.09 640.62,-576.45 596.09,-580.8"/>
<polygon fill="midnightblue" stroke="midnightblue" points="799.33,-560.68 808.68,-555.7 798.26,-553.76 799.33,-560.68"/>
</g>
<!-- Node14 -->
<g id="node14" class="node">
<title>Node14</title>
<g id="a_node14"><a xlink:href="redis__ipc_8h.html#a3cfe2b5851e3cf7ef8acaafa0f409fae" target="_top" xlink:title=" ">
<polygon fill="white" stroke="black" points="180,-764.92 180,-782.92 297,-782.92 297,-764.92 180,-764.92"/>
<text text-anchor="middle" x="238.5" y="-771.72" font-family="Helvetica,sans-Serif" font-size="9.00">redis_ipc_read_setting</text>
</a>
</g>
</g>
<!-- Node2&#45;&gt;Node14 -->
<g id="edge38" class="edge">
<title>Node2&#45;&gt;Node14</title>
<path fill="none" stroke="midnightblue" d="M850.49,-564.61C835.53,-587.32 806.75,-626.55 773,-649.92 624.07,-753.04 401.37,-771.35 297.16,-773.97"/>
<polygon fill="midnightblue" stroke="midnightblue" points="853.57,-566.3 856.03,-555.99 847.68,-562.51 853.57,-566.3"/>
</g>
<!-- Node15 -->
<g id="node15" class="node">
<title>Node15</title>
<g id="a_node15"><a xlink:href="redis__ipc_8h.html#ada50e7500b7b76526f3dbe186d330335" target="_top" xlink:title=" ">
<polygon fill="white" stroke="black" points="182,-726.92 182,-744.92 295,-744.92 295,-726.92 182,-726.92"/>
<text text-anchor="middle" x="238.5" y="-733.72" font-family="Helvetica,sans-Serif" font-size="9.00">redis_ipc_read_status</text>
</a>
</g>
</g>
<!-- Node2&#45;&gt;Node15 -->
<g id="edge40" class="edge">
<title>Node2&#45;&gt;Node15</title>
<path fill="none" stroke="midnightblue" d="M842.6,-562.62C825.35,-576.33 798.7,-596.01 773,-608.92 637.86,-676.8 597.99,-684.79 450,-715.92 398.27,-726.8 338.13,-731.77 295.41,-734.03"/>
<polygon fill="midnightblue" stroke="midnightblue" points="845.14,-565.07 850.71,-556.06 840.73,-559.63 845.14,-565.07"/>
</g>
<!-- Node17 -->
<g id="node17" class="node">
<title>Node17</title>
<g id="a_node17"><a xlink:href="redis__ipc_8h.html#a6afa8c8738fc3e50675c93724dfe2236" target="_top" xlink:title=" ">
<polygon fill="white" stroke="black" points="180,-481.92 180,-509.92 297,-509.92 297,-481.92 180,-481.92"/>
<text text-anchor="start" x="188" y="-498.72" font-family="Helvetica,sans-Serif" font-size="9.00">redis_ipc_read_setting</text>
<text text-anchor="middle" x="238.5" y="-488.72" font-family="Helvetica,sans-Serif" font-size="9.00">_field</text>
</a>
</g>
</g>
<!-- Node2&#45;&gt;Node17 -->
<g id="edge39" class="edge">
<title>Node2&#45;&gt;Node17</title>
<path fill="none" stroke="midnightblue" d="M798.53,-541.75C677.55,-531.84 414.27,-510.25 297.4,-500.67"/>
<polygon fill="midnightblue" stroke="midnightblue" points="798.48,-545.26 808.74,-542.59 799.06,-538.29 798.48,-545.26"/>
</g>
<!-- Node18 -->
<g id="node18" class="node">
<title>Node18</title>
<g id="a_node18"><a xlink:href="redis__ipc_8h.html#ad71c568720d1ca8e41c247516841eac4" target="_top" xlink:title=" ">
<polygon fill="white" stroke="black" points="182,-423.92 182,-451.92 295,-451.92 295,-423.92 182,-423.92"/>
<text text-anchor="start" x="190" y="-440.72" font-family="Helvetica,sans-Serif" font-size="9.00">redis_ipc_read_status</text>
<text text-anchor="middle" x="238.5" y="-430.72" font-family="Helvetica,sans-Serif" font-size="9.00">_field</text>
</a>
</g>
</g>
<!-- Node2&#45;&gt;Node18 -->
<g id="edge41" class="edge">
<title>Node2&#45;&gt;Node18</title>
<path fill="none" stroke="midnightblue" d="M820.55,-535.15C747.03,-514.56 587.51,-472.23 450,-451.92 397.82,-444.21 337.74,-440.75 295.16,-439.19"/>
<polygon fill="midnightblue" stroke="midnightblue" points="819.76,-538.57 830.34,-537.91 821.66,-531.83 819.76,-538.57"/>
</g>
<!-- Node20 -->
<g id="node20" class="node">
<title>Node20</title>
<g id="a_node20"><a xlink:href="redis__ipc_8h.html#ac22692af167c24369831321eb5a1aa20" target="_top" xlink:title=" ">
<polygon fill="white" stroke="black" points="186.5,-259.92 186.5,-287.92 290.5,-287.92 290.5,-259.92 186.5,-259.92"/>
<text text-anchor="start" x="194.5" y="-276.72" font-family="Helvetica,sans-Serif" font-size="9.00">redis_ipc_subscribe</text>
<text text-anchor="middle" x="238.5" y="-266.72" font-family="Helvetica,sans-Serif" font-size="9.00">_debug</text>
</a>
</g>
</g>
<!-- Node2&#45;&gt;Node20 -->
<g id="edge47" class="edge">
<title>Node2&#45;&gt;Node20</title>
<path fill="none" stroke="midnightblue" d="M813.35,-532.19C811.79,-530.88 810.33,-529.46 809,-527.92 755.29,-465.36 829.56,-405.92 773,-345.92 646.39,-211.59 397.6,-241.67 290.51,-262.44"/>
<polygon fill="midnightblue" stroke="midnightblue" points="811.63,-535.24 821.91,-537.79 815.46,-529.38 811.63,-535.24"/>
</g>
<!-- Node21 -->
<g id="node21" class="node">
<title>Node21</title>
<g id="a_node21"><a xlink:href="redis__ipc_8h.html#a26390ed4efc19636cc62fc3adf9e3278" target="_top" xlink:title=" ">
<polygon fill="white" stroke="black" points="186.5,-205.92 186.5,-233.92 290.5,-233.92 290.5,-205.92 186.5,-205.92"/>
<text text-anchor="start" x="194.5" y="-222.72" font-family="Helvetica,sans-Serif" font-size="9.00">redis_ipc_subscribe</text>
<text text-anchor="middle" x="238.5" y="-212.72" font-family="Helvetica,sans-Serif" font-size="9.00">_events</text>
</a>
</g>
</g>
<!-- Node2&#45;&gt;Node21 -->
<g id="edge48" class="edge">
<title>Node2&#45;&gt;Node21</title>
<path fill="none" stroke="midnightblue" d="M813.16,-532.21C811.65,-530.9 810.26,-529.47 809,-527.92 735.59,-437.25 854.08,-351.79 773,-267.92 707.47,-200.14 411.1,-209.61 290.64,-216.49"/>
<polygon fill="midnightblue" stroke="midnightblue" points="811.2,-535.11 821.43,-537.84 815.13,-529.32 811.2,-535.11"/>
</g>
<!-- Node23 -->
<g id="node23" class="node">
<title>Node23</title>
<g id="a_node23"><a xlink:href="redis__ipc_8h.html#a526138f5c01d96f3174e41a8aaa4d8fa" target="_top" xlink:title=" ">
<polygon fill="white" stroke="black" points="180.5,-591.92 180.5,-619.92 296.5,-619.92 296.5,-591.92 180.5,-591.92"/>
<text text-anchor="start" x="188.5" y="-608.72" font-family="Helvetica,sans-Serif" font-size="9.00">redis_ipc_unsubscribe</text>
<text text-anchor="middle" x="238.5" y="-598.72" font-family="Helvetica,sans-Serif" font-size="9.00">_debug</text>
</a>
</g>
</g>
<!-- Node2&#45;&gt;Node23 -->
<g id="edge49" class="edge">
<title>Node2&#45;&gt;Node23</title>
<path fill="none" stroke="midnightblue" d="M833.93,-560.29C816.78,-568.06 794.05,-577.39 773,-582.92 604.43,-627.21 395.73,-618.85 296.75,-611.29"/>
<polygon fill="midnightblue" stroke="midnightblue" points="835.73,-563.32 843.33,-555.94 832.79,-556.97 835.73,-563.32"/>
</g>
<!-- Node24 -->
<g id="node24" class="node">
<title>Node24</title>
<g id="a_node24"><a xlink:href="redis__ipc_8h.html#ab0de58de598a36be8c674c2f44a62c60" target="_top" xlink:title=" ">
<polygon fill="white" stroke="black" points="180.5,-538.92 180.5,-566.92 296.5,-566.92 296.5,-538.92 180.5,-538.92"/>
<text text-anchor="start" x="188.5" y="-555.72" font-family="Helvetica,sans-Serif" font-size="9.00">redis_ipc_unsubscribe</text>
<text text-anchor="middle" x="238.5" y="-545.72" font-family="Helvetica,sans-Serif" font-size="9.00">_events</text>
</a>
</g>
</g>
<!-- Node2&#45;&gt;Node24 -->
<g id="edge50" class="edge">
<title>Node2&#45;&gt;Node24</title>
<path fill="none" stroke="midnightblue" d="M798.51,-547.53C677.37,-548.69 413.58,-551.24 296.94,-552.36"/>
<polygon fill="midnightblue" stroke="midnightblue" points="798.77,-551.02 808.74,-547.43 798.7,-544.02 798.77,-551.02"/>
</g>
<!-- Node26 -->
<g id="node26" class="node">
<title>Node26</title>
<g id="a_node26"><a xlink:href="redis__ipc_8h.html#aef76ea4158d5075f2c2c0041ec62d1d5" target="_top" xlink:title=" ">
<polygon fill="white" stroke="black" points="179,-366.92 179,-394.92 298,-394.92 298,-366.92 179,-366.92"/>
<text text-anchor="start" x="187" y="-383.72" font-family="Helvetica,sans-Serif" font-size="9.00">redis_ipc_write_setting</text>
<text text-anchor="middle" x="238.5" y="-373.72" font-family="Helvetica,sans-Serif" font-size="9.00">_field</text>
</a>
</g>
</g>
<!-- Node2&#45;&gt;Node26 -->
<g id="edge52" class="edge">
<title>Node2&#45;&gt;Node26</title>
<path fill="none" stroke="midnightblue" d="M819.65,-533.83C815.93,-532.06 812.33,-530.1 809,-527.92 789.54,-515.17 792.51,-502.59 773,-489.92 645.32,-407.02 600.05,-401.62 450,-375.92 399.2,-367.22 340.5,-369.62 298.02,-373.53"/>
<polygon fill="midnightblue" stroke="midnightblue" points="818.43,-537.12 829,-537.83 821.18,-530.68 818.43,-537.12"/>
</g>
<!-- Node27 -->
<g id="node27" class="node">
<title>Node27</title>
<g id="a_node27"><a xlink:href="redis__ipc_8h.html#a1ccd53107db1e7be09bb4e958975720e" target="_top" xlink:title=" ">
<polygon fill="white" stroke="black" points="180.5,-310.92 180.5,-338.92 296.5,-338.92 296.5,-310.92 180.5,-310.92"/>
<text text-anchor="start" x="188.5" y="-327.72" font-family="Helvetica,sans-Serif" font-size="9.00">redis_ipc_write_status</text>
<text text-anchor="middle" x="238.5" y="-317.72" font-family="Helvetica,sans-Serif" font-size="9.00">_field</text>
</a>
</g>
</g>
<!-- Node2&#45;&gt;Node27 -->
<g id="edge54" class="edge">
<title>Node2&#45;&gt;Node27</title>
<path fill="none" stroke="midnightblue" d="M814.39,-532.56C812.46,-531.15 810.65,-529.61 809,-527.92 773.68,-491.69 809.92,-454.52 773,-419.92 640.69,-295.91 405.18,-304.79 296.88,-316.74"/>
<polygon fill="midnightblue" stroke="midnightblue" points="813.05,-535.83 823.44,-537.88 816.6,-529.8 813.05,-535.83"/>
</g>
<!-- Node28 -->
<g id="node28" class="node">
<title>Node28</title>
<g id="a_node28"><a xlink:href="redis__ipc_8c.html#a73fec3f4f77b193da7b8231788ee84f2" target="_top" xlink:title=" ">
<polygon fill="white" stroke="black" points="486,-81.92 486,-99.92 617,-99.92 617,-81.92 486,-81.92"/>
<text text-anchor="middle" x="551.5" y="-88.72" font-family="Helvetica,sans-Serif" font-size="9.00">redis_command_from_list</text>
</a>
</g>
</g>
<!-- Node2&#45;&gt;Node28 -->
<g id="edge33" class="edge">
<title>Node2&#45;&gt;Node28</title>
<path fill="none" stroke="midnightblue" d="M812.62,-531.89C811.31,-530.66 810.1,-529.34 809,-527.92 752.86,-454.87 837.44,-180.76 773,-114.92 726.27,-67.17 641.6,-73.12 591.88,-81.91"/>
<polygon fill="midnightblue" stroke="midnightblue" points="810.81,-534.89 820.98,-537.85 814.87,-529.19 810.81,-534.89"/>
</g>
<!-- Node30 -->
<g id="node30" class="node">
<title>Node30</title>
<g id="a_node30"><a xlink:href="redis__ipc_8h.html#a11db23f8f055e2d63fd8308c3d382da4" target="_top" xlink:title=" ">
<polygon fill="white" stroke="black" points="179,-62.92 179,-80.92 298,-80.92 298,-62.92 179,-62.92"/>
<text text-anchor="middle" x="238.5" y="-69.72" font-family="Helvetica,sans-Serif" font-size="9.00">redis_ipc_write_setting</text>
</a>
</g>
</g>
<!-- Node2&#45;&gt;Node30 -->
<g id="edge51" class="edge">
<title>Node2&#45;&gt;Node30</title>
<path fill="none" stroke="midnightblue" d="M812.6,-531.9C811.3,-530.67 810.09,-529.35 809,-527.92 747.39,-447.07 847.65,-140.91 773,-71.92 624.71,65.12 342.11,-31.23 261.47,-62.86"/>
<polygon fill="midnightblue" stroke="midnightblue" points="810.78,-534.9 820.95,-537.87 814.86,-529.21 810.78,-534.9"/>
</g>
<!-- Node31 -->
<g id="node31" class="node">
<title>Node31</title>
<g id="a_node31"><a xlink:href="redis__ipc_8h.html#ab7d4be95434367c1b7dd526ebbab77a1" target="_top" xlink:title=" ">
<polygon fill="white" stroke="black" points="180.5,-119.92 180.5,-137.92 296.5,-137.92 296.5,-119.92 180.5,-119.92"/>
<text text-anchor="middle" x="238.5" y="-126.72" font-family="Helvetica,sans-Serif" font-size="9.00">redis_ipc_write_status</text>
</a>
</g>
</g>
<!-- Node2&#45;&gt;Node31 -->
<g id="edge53" class="edge">
<title>Node2&#45;&gt;Node31</title>
<path fill="none" stroke="midnightblue" d="M812.63,-531.87C811.32,-530.66 810.1,-529.34 809,-527.92 757.7,-461.76 833.68,-210.59 773,-152.92 706.05,-89.28 420.13,-110.17 296.66,-122.55"/>
<polygon fill="midnightblue" stroke="midnightblue" points="810.83,-534.89 821.01,-537.82 814.89,-529.18 810.83,-534.89"/>
</g>
<!-- Node32 -->
<g id="node32" class="node">
<title>Node32</title>
<g id="a_node32"><a xlink:href="redis__ipc_8h.html#ac678ffdefda8e893d287e04d05e65347" target="_top" xlink:title=" ">
<polygon fill="white" stroke="black" points="653,-830.92 653,-858.92 773,-858.92 773,-830.92 653,-830.92"/>
<text text-anchor="start" x="661" y="-847.72" font-family="Helvetica,sans-Serif" font-size="9.00">redis_ipc_get_message</text>
<text text-anchor="middle" x="713" y="-837.72" font-family="Helvetica,sans-Serif" font-size="9.00">_blocking</text>
</a>
</g>
</g>
<!-- Node2&#45;&gt;Node32 -->
<g id="edge37" class="edge">
<title>Node2&#45;&gt;Node32</title>
<path fill="none" stroke="midnightblue" d="M860.19,-566.22C855.97,-614.15 838.88,-740.18 773,-815.92 767.76,-821.95 760.97,-826.85 753.87,-830.78"/>
<polygon fill="midnightblue" stroke="midnightblue" points="863.69,-566.27 860.99,-556.03 856.71,-565.73 863.69,-566.27"/>
</g>
<!-- Node33 -->
<g id="node33" class="node">
<title>Node33</title>
<g id="a_node33"><a xlink:href="redis__ipc_8c.html#ae88037651d88f63c62d32afd7e0fccf2" target="_top" xlink:title=" ">
<polygon fill="white" stroke="black" points="660.5,-195.92 660.5,-213.92 765.5,-213.92 765.5,-195.92 660.5,-195.92"/>
<text text-anchor="middle" x="713" y="-202.72" font-family="Helvetica,sans-Serif" font-size="9.00">validate_redis_reply</text>
</a>
</g>
</g>
<!-- Node2&#45;&gt;Node33 -->
<g id="edge55" class="edge">
<title>Node2&#45;&gt;Node33</title>
<path fill="none" stroke="midnightblue" d="M812.75,-531.91C811.4,-530.68 810.14,-529.35 809,-527.92 725.7,-423.15 854.23,-335.3 773,-228.92 767.9,-222.24 760.63,-217.41 752.92,-213.92"/>
<polygon fill="midnightblue" stroke="midnightblue" points="811.16,-535.06 821.36,-537.89 815.15,-529.31 811.16,-535.06"/>
</g>
<!-- Node4 -->
<g id="node4" class="node">
<title>Node4</title>
<g id="a_node4"><a xlink:href="redis__ipc_8c.html#ab3dc5609833c201c4e9ebaa5e2e70a2f" target="_top" xlink:title=" ">
<polygon fill="white" stroke="black" points="354,-840.92 354,-858.92 430,-858.92 430,-840.92 354,-840.92"/>
<text text-anchor="middle" x="392" y="-847.72" font-family="Helvetica,sans-Serif" font-size="9.00">redis_publish</text>
</a>
</g>
</g>
<!-- Node3&#45;&gt;Node4 -->
<g id="edge3" class="edge">
<title>Node3&#45;&gt;Node4</title>
<path fill="none" stroke="midnightblue" d="M481.23,-836.47C463.77,-839.13 445.68,-841.89 430.46,-844.21"/>
<polygon fill="midnightblue" stroke="midnightblue" points="482.05,-839.89 491.4,-834.92 480.99,-832.97 482.05,-839.89"/>
</g>
<!-- Node10 -->
<g id="node10" class="node">
<title>Node10</title>
<g id="a_node10"><a xlink:href="redis__ipc_8c.html#ae826a119ee7ca11d9636c6f34b9a29e9" target="_top" xlink:title=" ">
<polygon fill="white" stroke="black" points="359.5,-651.92 359.5,-669.92 424.5,-669.92 424.5,-651.92 359.5,-651.92"/>
<text text-anchor="middle" x="392" y="-658.72" font-family="Helvetica,sans-Serif" font-size="9.00">redis_push</text>
</a>
</g>
</g>
<!-- Node3&#45;&gt;Node10 -->
<g id="edge9" class="edge">
<title>Node3&#45;&gt;Node10</title>
<path fill="none" stroke="midnightblue" d="M542.82,-807.53C528.92,-776.45 496.61,-713.52 450,-678.92 442.58,-673.41 433.43,-669.56 424.65,-666.88"/>
<polygon fill="midnightblue" stroke="midnightblue" points="539.64,-808.99 546.83,-816.77 546.06,-806.2 539.64,-808.99"/>
</g>
<!-- Node4&#45;&gt;Node5 -->
<g id="edge4" class="edge">
<title>Node4&#45;&gt;Node5</title>
<path fill="none" stroke="midnightblue" d="M343.88,-849.92C328.9,-849.92 312.16,-849.92 296.55,-849.92"/>
<polygon fill="midnightblue" stroke="midnightblue" points="343.94,-853.42 353.94,-849.92 343.94,-846.42 343.94,-853.42"/>
</g>
<!-- Node4&#45;&gt;Node9 -->
<g id="edge8" class="edge">
<title>Node4&#45;&gt;Node9</title>
<path fill="none" stroke="midnightblue" d="M369.09,-864.62C350.67,-876.54 323.36,-893.23 298,-904.92 289.03,-909.05 278.95,-912.8 269.72,-915.9"/>
<polygon fill="midnightblue" stroke="midnightblue" points="371.17,-867.44 377.61,-859.03 367.33,-861.59 371.17,-867.44"/>
</g>
<!-- Node5&#45;&gt;Node6 -->
<g id="edge5" class="edge">
<title>Node5&#45;&gt;Node6</title>
<path fill="none" stroke="midnightblue" d="M196.06,-861.72C173.5,-868.15 145.43,-876.14 121.75,-882.89"/>
<polygon fill="midnightblue" stroke="midnightblue" points="197.03,-865.09 205.69,-858.98 195.11,-858.35 197.03,-865.09"/>
</g>
<!-- Node5&#45;&gt;Node7 -->
<g id="edge6" class="edge">
<title>Node5&#45;&gt;Node7</title>
<path fill="none" stroke="midnightblue" d="M170.23,-849.92C159.63,-849.92 148.69,-849.92 138.13,-849.92"/>
<polygon fill="midnightblue" stroke="midnightblue" points="170.25,-853.42 180.25,-849.92 170.25,-846.42 170.25,-853.42"/>
</g>
<!-- Node5&#45;&gt;Node8 -->
<g id="edge7" class="edge">
<title>Node5&#45;&gt;Node8</title>
<path fill="none" stroke="midnightblue" d="M220.13,-833.68C208.22,-822.31 192.24,-806.58 179,-791.92 139.14,-747.77 95.88,-691.11 79.4,-669.17"/>
<polygon fill="midnightblue" stroke="midnightblue" points="217.98,-836.46 227.65,-840.79 222.79,-831.37 217.98,-836.46"/>
</g>
<!-- Node10&#45;&gt;Node7 -->
<g id="edge10" class="edge">
<title>Node10&#45;&gt;Node7</title>
<path fill="none" stroke="midnightblue" d="M349.33,-668.7C295.95,-679.21 206.95,-698.73 179,-716.92 130.9,-748.22 94.54,-808.46 79.75,-835.8"/>
<polygon fill="midnightblue" stroke="midnightblue" points="350.04,-672.12 359.19,-666.78 348.7,-665.25 350.04,-672.12"/>
</g>
<!-- Node10&#45;&gt;Node8 -->
<g id="edge11" class="edge">
<title>Node10&#45;&gt;Node8</title>
<path fill="none" stroke="midnightblue" d="M349.26,-660.79C292.65,-660.61 191.35,-660.29 128.27,-660.09"/>
<polygon fill="midnightblue" stroke="midnightblue" points="349.29,-664.29 359.3,-660.82 349.31,-657.29 349.29,-664.29"/>
</g>
<!-- Node11&#45;&gt;Node4 -->
<g id="edge16" class="edge">
<title>Node11&#45;&gt;Node4</title>
<path fill="none" stroke="midnightblue" d="M547.54,-604.26C539.71,-649.1 514.47,-761.23 450,-825.92 443.48,-832.46 434.91,-837.31 426.4,-840.88"/>
<polygon fill="midnightblue" stroke="midnightblue" points="551.03,-604.59 549.2,-594.16 544.12,-603.46 551.03,-604.59"/>
</g>
<!-- Node11&#45;&gt;Node10 -->
<g id="edge17" class="edge">
<title>Node11&#45;&gt;Node10</title>
<path fill="none" stroke="midnightblue" d="M522.57,-598.4C490.59,-613.82 439.12,-638.66 411.66,-651.91"/>
<polygon fill="midnightblue" stroke="midnightblue" points="524.33,-601.43 531.81,-593.93 521.29,-595.13 524.33,-601.43"/>
</g>
<!-- Node12 -->
<g id="node12" class="node">
<title>Node12</title>
<g id="a_node12"><a xlink:href="redis__ipc_8c.html#aad35a453c0c1dea3338257c3e6841afe" target="_top" xlink:title=" ">
<polygon fill="white" stroke="black" points="208.5,-877.92 208.5,-895.92 268.5,-895.92 268.5,-877.92 208.5,-877.92"/>
<text text-anchor="middle" x="238.5" y="-884.72" font-family="Helvetica,sans-Serif" font-size="9.00">redis_pop</text>
</a>
</g>
</g>
<!-- Node11&#45;&gt;Node12 -->
<g id="edge13" class="edge">
<title>Node11&#45;&gt;Node12</title>
<path fill="none" stroke="midnightblue" d="M538.17,-602.5C519.9,-628.21 484.08,-677.22 450,-715.92 402.02,-770.4 385.09,-779.34 334,-830.92 317.85,-847.22 317.48,-855.8 298,-867.92 289.11,-873.45 278.46,-877.53 268.69,-880.46"/>
<polygon fill="midnightblue" stroke="midnightblue" points="541.17,-604.33 544.08,-594.15 535.45,-600.29 541.17,-604.33"/>
</g>
<!-- Node13 -->
<g id="node13" class="node">
<title>Node13</title>
<g id="a_node13"><a xlink:href="redis__ipc_8c.html#a94fc3b660886cc8cc8e69692e0f5ca78" target="_top" xlink:title=" ">
<polygon fill="white" stroke="black" points="347.5,-688.92 347.5,-706.92 436.5,-706.92 436.5,-688.92 347.5,-688.92"/>
<text text-anchor="middle" x="392" y="-695.72" font-family="Helvetica,sans-Serif" font-size="9.00">redis_read_hash</text>
</a>
</g>
</g>
<!-- Node11&#45;&gt;Node13 -->
<g id="edge18" class="edge">
<title>Node11&#45;&gt;Node13</title>
<path fill="none" stroke="midnightblue" d="M536.63,-601.75C518.64,-622.58 485.37,-657.87 450,-678.92 443.28,-682.92 435.6,-686.21 428.11,-688.86"/>
<polygon fill="midnightblue" stroke="midnightblue" points="539.37,-603.94 543.16,-594.04 534.02,-599.41 539.37,-603.94"/>
</g>
<!-- Node16 -->
<g id="node16" class="node">
<title>Node16</title>
<g id="a_node16"><a xlink:href="redis__ipc_8c.html#abbcf0019b124792da8357b2fa972e11a" target="_top" xlink:title=" ">
<polygon fill="white" stroke="black" points="335.5,-461.92 335.5,-479.92 448.5,-479.92 448.5,-461.92 335.5,-461.92"/>
<text text-anchor="middle" x="392" y="-468.72" font-family="Helvetica,sans-Serif" font-size="9.00">redis_read_hash_field</text>
</a>
</g>
</g>
<!-- Node11&#45;&gt;Node16 -->
<g id="edge21" class="edge">
<title>Node11&#45;&gt;Node16</title>
<path fill="none" stroke="midnightblue" d="M529.36,-569.62C496.14,-545.57 432.69,-499.65 405.68,-480.1"/>
<polygon fill="midnightblue" stroke="midnightblue" points="527.72,-572.75 537.88,-575.78 531.83,-567.08 527.72,-572.75"/>
</g>
<!-- Node19 -->
<g id="node19" class="node">
<title>Node19</title>
<g id="a_node19"><a xlink:href="redis__ipc_8c.html#a420fcd64722043e4bc0bb7f61a29d588" target="_top" xlink:title=" ">
<polygon fill="white" stroke="black" points="349,-271.92 349,-289.92 435,-289.92 435,-271.92 349,-271.92"/>
<text text-anchor="middle" x="392" y="-278.72" font-family="Helvetica,sans-Serif" font-size="9.00">redis_subscribe</text>
</a>
</g>
</g>
<!-- Node11&#45;&gt;Node19 -->
<g id="edge24" class="edge">
<title>Node11&#45;&gt;Node19</title>
<path fill="none" stroke="midnightblue" d="M542.16,-566.1C525.61,-529.13 487.03,-444.63 450,-375.92 432.57,-343.58 409.42,-306.61 398.79,-289.93"/>
<polygon fill="midnightblue" stroke="midnightblue" points="539.12,-567.89 546.39,-575.6 545.52,-565.04 539.12,-567.89"/>
</g>
<!-- Node22 -->
<g id="node22" class="node">
<title>Node22</title>
<g id="a_node22"><a xlink:href="redis__ipc_8c.html#a40d3af6ed926711313712685503a1c91" target="_top" xlink:title=" ">
<polygon fill="white" stroke="black" points="343,-575.92 343,-593.92 441,-593.92 441,-575.92 343,-575.92"/>
<text text-anchor="middle" x="392" y="-582.72" font-family="Helvetica,sans-Serif" font-size="9.00">redis_unsubscribe</text>
</a>
</g>
</g>
<!-- Node11&#45;&gt;Node22 -->
<g id="edge27" class="edge">
<title>Node11&#45;&gt;Node22</title>
<path fill="none" stroke="midnightblue" d="M496.56,-584.92C478.54,-584.92 458.6,-584.92 441.06,-584.92"/>
<polygon fill="midnightblue" stroke="midnightblue" points="496.63,-588.42 506.63,-584.92 496.63,-581.42 496.63,-588.42"/>
</g>
<!-- Node25 -->
<g id="node25" class="node">
<title>Node25</title>
<g id="a_node25"><a xlink:href="redis__ipc_8c.html#ad0c6708404743ef74dddacc617fb8b8e" target="_top" xlink:title=" ">
<polygon fill="white" stroke="black" points="334,-385.92 334,-403.92 450,-403.92 450,-385.92 334,-385.92"/>
<text text-anchor="middle" x="392" y="-392.72" font-family="Helvetica,sans-Serif" font-size="9.00">redis_write_hash_field</text>
</a>
</g>
</g>
<!-- Node11&#45;&gt;Node25 -->
<g id="edge30" class="edge">
<title>Node11&#45;&gt;Node25</title>
<path fill="none" stroke="midnightblue" d="M538.47,-567.45C520.31,-541.44 484.35,-491.39 450,-451.92 434.56,-434.18 414.84,-415.18 403.1,-404.21"/>
<polygon fill="midnightblue" stroke="midnightblue" points="535.74,-569.66 544.32,-575.87 541.49,-565.66 535.74,-569.66"/>
</g>
<!-- Node12&#45;&gt;Node6 -->
<g id="edge14" class="edge">
<title>Node12&#45;&gt;Node6</title>
<path fill="none" stroke="midnightblue" d="M198.06,-889.31C181.6,-890.31 161.97,-891.5 143.17,-892.64"/>
<polygon fill="midnightblue" stroke="midnightblue" points="198.61,-892.78 208.38,-888.68 198.19,-885.79 198.61,-892.78"/>
</g>
<!-- Node12&#45;&gt;Node7 -->
<g id="edge15" class="edge">
<title>Node12&#45;&gt;Node7</title>
<path fill="none" stroke="midnightblue" d="M198.37,-878.14C179.5,-873.91 156.4,-868.73 135.16,-863.97"/>
<polygon fill="midnightblue" stroke="midnightblue" points="197.86,-881.62 208.38,-880.39 199.39,-874.79 197.86,-881.62"/>
</g>
<!-- Node13&#45;&gt;Node14 -->
<g id="edge19" class="edge">
<title>Node13&#45;&gt;Node14</title>
<path fill="none" stroke="midnightblue" d="M369.44,-712.7C351.05,-724.88 323.58,-742.01 298,-753.92 289.15,-758.04 279.19,-761.76 270.04,-764.84"/>
<polygon fill="midnightblue" stroke="midnightblue" points="371.58,-715.48 377.94,-707.01 367.69,-709.67 371.58,-715.48"/>
</g>
<!-- Node13&#45;&gt;Node15 -->
<g id="edge20" class="edge">
<title>Node13&#45;&gt;Node15</title>
<path fill="none" stroke="midnightblue" d="M345.15,-709.42C322.78,-715.03 296.28,-721.68 275.41,-726.91"/>
<polygon fill="midnightblue" stroke="midnightblue" points="346.25,-712.75 355.1,-706.92 344.55,-705.96 346.25,-712.75"/>
</g>
<!-- Node16&#45;&gt;Node17 -->
<g id="edge22" class="edge">
<title>Node16&#45;&gt;Node17</title>
<path fill="none" stroke="midnightblue" d="M326.33,-481.59C316.64,-483.19 306.71,-484.83 297.18,-486.4"/>
<polygon fill="midnightblue" stroke="midnightblue" points="327.01,-485.03 336.31,-479.94 325.87,-478.12 327.01,-485.03"/>
</g>
<!-- Node16&#45;&gt;Node18 -->
<g id="edge23" class="edge">
<title>Node16&#45;&gt;Node18</title>
<path fill="none" stroke="midnightblue" d="M339.45,-459.69C325.15,-456.58 309.57,-453.18 295.05,-450.02"/>
<polygon fill="midnightblue" stroke="midnightblue" points="339.09,-463.19 349.6,-461.9 340.58,-456.35 339.09,-463.19"/>
</g>
<!-- Node19&#45;&gt;Node20 -->
<g id="edge25" class="edge">
<title>Node19&#45;&gt;Node20</title>
<path fill="none" stroke="midnightblue" d="M338.8,-278.51C323.21,-277.79 306.15,-277 290.63,-276.28"/>
<polygon fill="midnightblue" stroke="midnightblue" points="338.65,-282 348.8,-278.97 338.97,-275.01 338.65,-282"/>
</g>
<!-- Node19&#45;&gt;Node21 -->
<g id="edge26" class="edge">
<title>Node19&#45;&gt;Node21</title>
<path fill="none" stroke="midnightblue" d="M359.31,-268.16C334.46,-258.15 299.92,-244.25 274.31,-233.93"/>
<polygon fill="midnightblue" stroke="midnightblue" points="358.06,-271.43 368.65,-271.92 360.68,-264.94 358.06,-271.43"/>
</g>
<!-- Node22&#45;&gt;Node23 -->
<g id="edge28" class="edge">
<title>Node22&#45;&gt;Node23</title>
<path fill="none" stroke="midnightblue" d="M332.49,-593.03C320.72,-594.66 308.37,-596.37 296.65,-598"/>
<polygon fill="midnightblue" stroke="midnightblue" points="333.22,-596.46 342.65,-591.62 332.26,-589.53 333.22,-596.46"/>
</g>
<!-- Node22&#45;&gt;Node24 -->
<g id="edge29" class="edge">
<title>Node22&#45;&gt;Node24</title>
<path fill="none" stroke="midnightblue" d="M338.02,-573.73C324.69,-570.91 310.31,-567.87 296.77,-565.01"/>
<polygon fill="midnightblue" stroke="midnightblue" points="337.48,-577.19 347.99,-575.83 338.93,-570.34 337.48,-577.19"/>
</g>
<!-- Node25&#45;&gt;Node26 -->
<g id="edge31" class="edge">
<title>Node25&#45;&gt;Node26</title>
<path fill="none" stroke="midnightblue" d="M323.5,-388.68C315.03,-387.9 306.43,-387.1 298.12,-386.33"/>
<polygon fill="midnightblue" stroke="midnightblue" points="323.44,-392.19 333.72,-389.63 324.09,-385.22 323.44,-392.19"/>
</g>
<!-- Node25&#45;&gt;Node27 -->
<g id="edge32" class="edge">
<title>Node25&#45;&gt;Node27</title>
<path fill="none" stroke="midnightblue" d="M362.39,-381.7C335.98,-369.5 296.88,-351.43 269.91,-338.97"/>
<polygon fill="midnightblue" stroke="midnightblue" points="360.96,-384.89 371.5,-385.91 363.89,-378.54 360.96,-384.89"/>
</g>
<!-- Node29 -->
<g id="node29" class="node">
<title>Node29</title>
<g id="a_node29"><a xlink:href="redis__ipc_8c.html#ab4f8e083ca57feea4be05c015b0eac9f" target="_top" xlink:title=" ">
<polygon fill="white" stroke="black" points="346,-81.92 346,-99.92 438,-99.92 438,-81.92 346,-81.92"/>
<text text-anchor="middle" x="392" y="-88.72" font-family="Helvetica,sans-Serif" font-size="9.00">redis_write_hash</text>
</a>
</g>
</g>
<!-- Node28&#45;&gt;Node29 -->
<g id="edge34" class="edge">
<title>Node28&#45;&gt;Node29</title>
<path fill="none" stroke="midnightblue" d="M475.8,-90.92C463.02,-90.92 450.1,-90.92 438.39,-90.92"/>
<polygon fill="midnightblue" stroke="midnightblue" points="475.98,-94.42 485.98,-90.92 475.98,-87.42 475.98,-94.42"/>
</g>
<!-- Node29&#45;&gt;Node30 -->
<g id="edge35" class="edge">
<title>Node29&#45;&gt;Node30</title>
<path fill="none" stroke="midnightblue" d="M335.86,-84C323.59,-82.46 310.54,-80.83 298.14,-79.27"/>
<polygon fill="midnightblue" stroke="midnightblue" points="335.6,-87.5 345.96,-85.27 336.47,-80.55 335.6,-87.5"/>
</g>
<!-- Node29&#45;&gt;Node31 -->
<g id="edge36" class="edge">
<title>Node29&#45;&gt;Node31</title>
<path fill="none" stroke="midnightblue" d="M345.15,-102.42C322.78,-108.03 296.28,-114.68 275.41,-119.91"/>
<polygon fill="midnightblue" stroke="midnightblue" points="346.25,-105.75 355.1,-99.92 344.55,-98.96 346.25,-105.75"/>
</g>
<!-- Node33&#45;&gt;Node11 -->
<g id="edge56" class="edge">
<title>Node33&#45;&gt;Node11</title>
<path fill="none" stroke="midnightblue" d="M704.26,-223.36C675.73,-291.33 577.01,-526.53 556.32,-575.82"/>
<polygon fill="midnightblue" stroke="midnightblue" points="707.57,-224.51 708.21,-213.94 701.12,-221.8 707.57,-224.51"/>
</g>
<!-- Node33&#45;&gt;Node28 -->
<g id="edge57" class="edge">
<title>Node33&#45;&gt;Node28</title>
<path fill="none" stroke="midnightblue" d="M691.02,-189.93C657.49,-165.96 592.81,-119.73 565.34,-100.1"/>
<polygon fill="midnightblue" stroke="midnightblue" points="689.05,-192.81 699.22,-195.78 693.12,-187.12 689.05,-192.81"/>
</g>
</g>
</svg>
